<?xml version="1.0" standalone="no"?>
<!DOCTYPE svg PUBLIC "-//W3C//DTD SVG 20010904//EN"
 "http://www.w3.org/TR/2001/REC-SVG-20010904/DTD/svg10.dtd">
<svg version="1.0" xmlns="http://www.w3.org/2000/svg"
 width="700.000000pt" height="700.000000pt" viewBox="0 0 700.000000 700.000000"
 preserveAspectRatio="xMidYMid meet">
<metadata>
Created by potrace 1.14, written by Peter Selinger 2001-2017
</metadata>
<g transform="translate(0.000000,700.000000) scale(0.100000,-0.100000)"
fill="#000000" stroke="none">
<path d="M3255 6093 c-572 -50 -1129 -289 -1518 -651 -447 -416 -716 -933
-814 -1562 -22 -144 -25 -555 -5 -700 82 -582 327 -1086 731 -1503 413 -426
899 -673 1496 -759 119 -17 550 -17 670 0 865 125 1551 563 1951 1247 232 397
346 867 331 1365 -14 462 -136 885 -364 1268 -64 107 -181 269 -232 319 -60
61 -138 61 -205 3 -45 -40 -59 -79 -54 -144 4 -48 11 -61 72 -137 322 -400
486 -872 486 -1397 0 -336 -73 -668 -210 -958 -308 -653 -955 -1108 -1750
-1231 -179 -28 -542 -25 -715 6 -980 174 -1717 938 -1872 1941 -24 160 -24
491 0 650 69 443 235 817 506 1141 358 429 883 702 1481 770 150 17 473 7 623
-20 243 -43 339 -73 657 -209 224 -95 323 -127 349 -112 50 26 4 125 -115 250
-129 135 -289 230 -519 310 -137 47 -359 94 -519 109 -101 10 -367 12 -461 4z"/>
<path d="M3433 5365 c-35 -25 -58 -145 -57 -300 0 -151 12 -203 55 -239 68
-58 166 -16 176 74 9 79 -59 432 -89 462 -22 22 -56 23 -85 3z"/>
<path d="M4533 4979 c-50 -25 -237 -215 -290 -295 -46 -69 -52 -134 -17 -181
74 -100 189 -98 270 4 50 63 175 252 195 297 63 138 -28 239 -158 175z"/>
<path d="M1892 4355 c-26 -21 -32 -34 -32 -65 0 -33 7 -44 48 -82 60 -53 368
-263 416 -283 71 -30 157 -8 186 46 64 119 8 190 -256 321 -158 79 -165 82
-246 86 -79 4 -85 3 -116 -23z"/>
<path d="M4980 4243 c-237 -37 -320 -86 -320 -189 0 -116 119 -166 243 -103
23 12 89 42 146 65 124 52 166 79 183 118 15 38 -4 74 -52 98 -33 17 -130 22
-200 11z"/>
<path d="M1810 3643 c-218 -16 -259 -26 -279 -69 -23 -52 -2 -113 46 -132 15
-7 154 -20 308 -30 330 -23 338 -22 373 50 31 63 23 119 -23 165 -33 33 -33
33 -126 32 -52 -1 -186 -8 -299 -16z"/>
<path d="M2725 2558 c-22 -11 -75 -57 -119 -102 -171 -177 -226 -259 -226
-342 0 -40 5 -51 38 -85 65 -65 131 -65 198 0 37 35 153 178 247 304 46 62 60
110 47 157 -25 87 -98 114 -185 68z"/>
<path d="M4114 2495 c-15 -23 -15 -30 0 -90 9 -36 59 -153 111 -259 131 -266
181 -319 269 -282 54 22 78 68 73 137 -6 65 -34 125 -122 259 -133 202 -283
308 -331 235z"/>
</g>
</svg>
