<svg width="92" height="14" viewBox="0 0 92 14" fill="none" xmlns="http://www.w3.org/2000/svg">
<mask id="mask0_436_21045" style="mask-type:alpha" maskUnits="userSpaceOnUse" x="0" y="0" width="92" height="14">
<path d="M6.80192 14C4.93537 14 3.33489 13.3165 2.00108 11.9494C0.666786 10.5823 0 8.9272 0 6.98349V0C1.09659 0 1.94566 0.313046 2.54674 0.93889C3.14794 1.56486 3.44836 2.31159 3.44836 3.17895V6.98349C3.44836 7.94992 3.77523 8.787 4.42921 9.49534C5.08307 10.2036 5.87385 10.5577 6.80192 10.5577C7.72975 10.5577 8.51826 10.2036 9.16686 9.49534C9.81545 8.787 10.1397 7.94992 10.1397 6.98349V3.17895C10.1397 2.31159 10.4402 1.56486 11.0413 0.93889C11.6425 0.313046 12.4912 0 13.5882 0V6.98349C13.5882 8.91623 12.9238 10.5687 11.595 11.9411C10.2662 13.3138 8.66859 14 6.80192 14Z" fill="#232C42"/>
<path d="M36.7769 13.0612C36.176 12.4353 35.8753 11.6885 35.8753 10.8212V7.01651C35.8753 6.03936 35.5535 5.19929 34.9104 4.49656C34.2669 3.79395 33.4761 3.4424 32.5375 3.4424C31.6095 3.4424 30.8186 3.79657 30.1648 4.50479C29.5107 5.21288 29.184 6.05045 29.184 7.01651V14C28.0872 14 27.2383 13.687 26.6371 13.0612C26.036 12.4353 25.7355 11.6885 25.7355 10.8212V7.01651C25.7355 6.03936 25.4138 5.19929 24.7706 4.49656C24.1272 3.79395 23.3362 3.4424 22.3977 3.4424C21.4698 3.4424 20.6788 3.79657 20.0249 4.50479C19.3709 5.21288 19.0443 6.05045 19.0443 7.01651V10.8212C19.0443 11.6998 18.7462 12.4492 18.1505 13.0693C17.5546 13.6896 16.7031 14 15.5957 14V7.01651C15.5957 5.0839 16.2627 3.43155 17.5969 2.05898C18.9308 0.686407 20.5313 0 22.3977 0C24.412 0 26.1045 0.785232 27.4755 2.35545C28.1186 1.61982 28.8836 1.04332 29.7693 0.625969C30.6552 0.208739 31.5779 0 32.5375 0C34.4042 0 36.0019 0.683542 37.3306 2.05063C38.6595 3.41772 39.3239 5.07293 39.3239 7.01651V14C38.227 14 37.3781 13.687 36.7769 13.0612Z" fill="#232C42"/>
<path d="M51.5677 7.01651C51.5677 6.03936 51.2451 5.19929 50.6001 4.49656C49.9551 3.79395 49.1626 3.4424 48.222 3.4424C47.2812 3.4424 46.4883 3.79395 45.8433 4.49656C45.1984 5.19929 44.8762 6.03936 44.8762 7.01651C44.8762 7.98282 45.2012 8.81454 45.8514 9.51179C46.5012 10.2092 47.2915 10.5577 48.222 10.5577H51.5677V7.01651ZM48.2297 14C46.3631 14 44.7629 13.3192 43.4287 11.9576C42.0946 10.5962 41.4277 8.94925 41.4277 7.01651C41.4277 5.0839 42.0946 3.43155 43.4287 2.05898C44.7629 0.686407 46.3631 0 48.2297 0C50.0963 0 51.6992 0.686407 53.0385 2.05898C54.378 3.43155 55.0475 5.0839 55.0475 7.01651V14H48.2297Z" fill="#232C42"/>
<path d="M68.1918 13.0612C67.591 12.4353 67.2906 11.6885 67.2906 10.8212V7.01651C67.2906 6.05045 66.9662 5.21288 66.3175 4.50479C65.6688 3.79657 64.88 3.4424 63.9524 3.4424C63.0244 3.4424 62.2333 3.79657 61.5796 4.50479C60.9256 5.21288 60.5989 6.05045 60.5989 7.01651V10.8212C60.5989 11.6885 60.2983 12.4353 59.6973 13.0612C59.0961 13.687 58.2471 14 57.1504 14V7.01651C57.1504 5.07293 57.8172 3.41772 59.1516 2.05063C60.4853 0.683542 62.0859 0 63.9524 0C65.8184 0 67.4162 0.686407 68.746 2.05898C70.0745 3.43155 70.7388 5.0839 70.7388 7.01651V14C69.6413 14 68.7926 13.687 68.1918 13.0612Z" fill="#232C42"/>
<path d="M73.7462 13.0612C73.1454 12.4353 72.8438 11.6885 72.8438 10.8212V0C73.9413 0 74.7899 0.313046 75.3907 0.93889C75.9928 1.56486 76.2932 2.31159 76.2932 3.17895V14C75.1956 14 74.347 13.687 73.7462 13.0612Z" fill="#232C42"/>
<path d="M91.146 2.75062C90.5763 3.34357 89.8905 3.64004 89.0898 3.64004H86.9545V14C85.857 14 85.0084 13.687 84.4075 13.0612C83.8055 12.4353 83.5051 11.6885 83.5051 10.8212V3.64004H81.3698C80.5679 3.64004 79.8833 3.34357 79.3136 2.75062C78.7438 2.1578 78.459 1.3069 78.459 0.197774H92.0006C92.0006 1.3069 91.7157 2.1578 91.146 2.75062Z" fill="#232C42"/>
</mask>
<g mask="url(#mask0_436_21045)">
<rect x="-29.832" y="-19.25" width="151.411" height="52.5" fill="#2E3F3A"/>
</g>
</svg>
