<svg width="128" height="24" viewBox="0 0 128 24" fill="none" xmlns="http://www.w3.org/2000/svg">
<path d="M85.1656 15.7399C85.7083 15.7399 86.1556 15.9146 86.5076 16.264C86.8596 16.6133 87.0356 17.0519 87.0356 17.5795C87.0356 18.9584 85.4471 19.8261 84.9045 19.8261C84.3618 19.8261 83.9145 19.6514 83.5625 19.302C83.2252 18.9671 82.9359 17.1881 83.7158 16.3656L83.8237 16.264C84.1756 15.9146 84.623 15.7399 85.1656 15.7399ZM57.3181 8.53086C58.3007 8.53086 59.1624 8.74121 59.903 9.16191C60.6437 9.58262 61.2193 10.1816 61.63 10.9588C62.0407 11.736 62.246 12.6452 62.246 13.6863C62.246 14 62.169 14.2389 62.015 14.4029C61.8867 14.5395 61.7151 14.6193 61.5002 14.642L61.366 14.6489H55.2061L55.2418 14.8943C55.3632 15.6099 55.6153 16.1377 55.9981 16.4779C56.4234 16.8558 57.0321 17.0447 57.8241 17.0447C58.2494 17.0447 58.6307 16.9948 58.9681 16.895C59.2211 16.8201 59.4947 16.7252 59.7889 16.6102L60.09 16.4886C60.2954 16.403 60.4934 16.3281 60.684 16.264C60.8747 16.1998 61.0434 16.1677 61.19 16.1677C61.4833 16.1677 61.7217 16.2818 61.905 16.51C62.0883 16.7381 62.18 17.0305 62.18 17.387C62.18 17.6295 62.1067 17.8541 61.96 18.0609C61.8133 18.2676 61.608 18.4423 61.344 18.5849C60.8454 18.8416 60.266 19.052 59.606 19.216C58.9461 19.38 58.3374 19.462 57.7801 19.462C56.6068 19.462 55.5838 19.241 54.7111 18.7989C53.8385 18.3568 53.1675 17.7257 52.6982 16.9057C52.2288 16.0857 51.9942 15.1195 51.9942 14.0071C51.9942 12.9375 52.2215 11.9892 52.6762 11.162C53.1308 10.3349 53.7615 9.68957 54.5681 9.22609C55.3748 8.7626 56.2914 8.53086 57.3181 8.53086ZM76.9318 8.53086C78.5157 8.53086 79.689 8.90521 80.4517 9.65392C81.1667 10.3558 81.5465 11.4056 81.5912 12.8031L81.5957 13.0873V17.9218L81.5892 18.0934C81.5587 18.4826 81.4215 18.7926 81.1777 19.0235C80.899 19.2873 80.5104 19.4192 80.0117 19.4192C79.5424 19.4192 79.1647 19.2802 78.8787 19.0021C78.6285 18.7588 78.4877 18.4526 78.4564 18.0837L78.4497 17.9218V17.7721L78.3604 17.9646C78.1358 18.4013 77.7989 18.7507 77.3498 19.0128C76.8364 19.3123 76.2351 19.462 75.5458 19.462C74.8125 19.462 74.1488 19.3194 73.5548 19.0342C72.9608 18.749 72.4915 18.3496 72.1468 17.8362C71.8022 17.3228 71.6298 16.7524 71.6298 16.1249C71.6298 15.3548 71.8315 14.7487 72.2348 14.3066C72.6382 13.8645 73.2872 13.5436 74.1818 13.344C75.0019 13.161 76.0993 13.0618 77.474 13.0466L78.4277 13.0445V12.6595L78.4227 12.4659C78.3959 11.9659 78.2619 11.5954 78.0207 11.3546C77.7494 11.0836 77.2984 10.9481 76.6678 10.9481C76.0371 10.9481 75.1278 11.162 73.9398 11.5899C73.6025 11.7467 73.3165 11.8252 73.0818 11.8252C72.7592 11.8252 72.5025 11.7147 72.3118 11.4936C72.1212 11.2726 72.0258 10.9838 72.0258 10.6272C72.0258 10.342 72.0918 10.1067 72.2238 9.92132C72.3558 9.73592 72.5685 9.56479 72.8618 9.40792C73.3752 9.13696 74.0021 8.92304 74.7428 8.76617C75.4835 8.60929 76.2131 8.53086 76.9318 8.53086ZM41.6483 3.13043C42.1323 3.13043 42.521 3.25878 42.8143 3.51548C43.071 3.74009 43.2154 4.03022 43.2474 4.38586L43.2543 4.54228V10.178L43.4025 9.98098C43.7602 9.53566 44.2021 9.19133 44.7283 8.948C45.3296 8.6699 46.0116 8.53086 46.7743 8.53086C49.2062 8.53086 50.459 9.91878 50.5327 12.6946L50.5362 12.9589V17.9004L50.5291 18.0722C50.4963 18.4622 50.3483 18.7757 50.0852 19.0128C49.7845 19.2837 49.3775 19.4192 48.8642 19.4192C48.3509 19.4192 47.9476 19.2837 47.6542 19.0128C47.3976 18.7757 47.2532 18.4622 47.2211 18.0722L47.2142 17.9004V12.9162L47.2092 12.7129C47.1824 12.1869 47.0484 11.7875 46.8072 11.515C46.5359 11.2084 46.1143 11.0551 45.5423 11.0551C44.8529 11.0551 44.2993 11.269 43.8813 11.6968C43.5051 12.0819 43.2982 12.5824 43.2606 13.1985L43.2543 13.4082V17.9004L43.2474 18.0722C43.2154 18.4622 43.071 18.7757 42.8143 19.0128C42.521 19.2837 42.1177 19.4192 41.6043 19.4192C41.091 19.4192 40.684 19.2837 40.3834 19.0128C40.1203 18.7757 39.9723 18.4622 39.9394 18.0722L39.9324 17.9004L39.9333 10.8815C39.782 10.9448 39.6285 11.0065 39.473 11.0667C38.3363 11.5063 37.2112 11.845 36.0988 12.082L36.0984 15.6757C36.0984 16.1035 36.2011 16.428 36.4064 16.649C36.5824 16.8385 36.8285 16.9572 37.1445 17.0052L37.3084 17.0234L37.9244 17.0661C38.3644 17.0947 38.6871 17.2016 38.8924 17.387C39.0977 17.5724 39.2004 17.8434 39.2004 18.1999C39.2004 18.6135 39.0317 18.9272 38.6944 19.1411C38.3945 19.3313 37.9788 19.42 37.4472 19.4073L37.2424 19.3978L36.6264 19.355C34.1426 19.1618 32.8606 17.9335 32.7805 15.6702L32.7765 15.4404L32.7768 12.4883C31.2981 12.5314 29.8447 12.385 28.4189 12.0475C27.614 11.8569 27.1204 11.068 27.3164 10.2853C27.5123 9.50268 28.3237 9.02269 29.1286 9.21325C30.3155 9.49425 31.5307 9.61356 32.7766 9.56954L32.7765 7.11901C32.7765 6.64839 32.9268 6.2776 33.2275 6.00664C33.5281 5.73568 33.9351 5.6002 34.4485 5.6002C34.9618 5.6002 35.3651 5.73568 35.6584 6.00664C35.9151 6.24373 36.0595 6.55725 36.0916 6.94721L36.0984 7.11901L36.0989 9.08302C36.8431 8.8947 37.598 8.65253 38.3642 8.35618C38.927 8.13854 39.45 7.89878 39.9337 7.63724L39.9324 4.60646L39.9398 4.44468C39.9742 4.07657 40.1294 3.77397 40.4054 3.53687C40.7207 3.26591 41.135 3.13043 41.6483 3.13043ZM70.3546 8.5688C70.7195 8.57114 71.0143 8.66901 71.2389 8.86243C71.4955 9.08348 71.6239 9.41505 71.6239 9.85714C71.6239 10.3278 71.5065 10.6772 71.2719 10.9053C71.0633 11.1082 70.7098 11.2434 70.2115 11.311L70.0179 11.3332L69.3579 11.3973L69.1226 11.4281C68.4369 11.536 67.9323 11.7824 67.6089 12.1674C67.2895 12.5477 67.1121 13.0238 67.0766 13.5957L67.0699 13.8146V17.9004L67.0641 18.0623C67.0329 18.482 66.8772 18.806 66.5969 19.0342C66.2816 19.2909 65.8893 19.4192 65.4199 19.4192C64.936 19.4192 64.5363 19.2909 64.221 19.0342C63.9407 18.806 63.785 18.482 63.7538 18.0623L63.748 17.9004V10.0497L63.7555 9.8782C63.7908 9.48981 63.9496 9.18331 64.232 8.95869C64.5546 8.70199 64.9433 8.57364 65.3979 8.57364C65.8379 8.57364 66.2046 8.69843 66.4979 8.948C66.7546 9.16637 66.899 9.45844 66.931 9.82422L66.9379 9.98549V10.5631L67.0309 10.3639C67.2924 9.84702 67.6611 9.44278 68.1369 9.15122C68.6053 8.86421 69.1102 8.68639 69.6516 8.61776L69.8859 8.59503L70.1939 8.57364L70.3546 8.5688ZM102.249 8.57364C102.719 8.57364 103.111 8.70199 103.426 8.95869C103.707 9.18687 103.862 9.51083 103.893 9.93056L103.899 10.0925V17.9004L103.893 18.0623C103.862 18.482 103.707 18.806 103.426 19.0342C103.111 19.2909 102.719 19.4192 102.249 19.4192C101.765 19.4192 101.366 19.2909 101.05 19.0342C100.77 18.806 100.614 18.482 100.583 18.0623L100.577 17.9004V10.0925L100.583 9.93056C100.615 9.51083 100.775 9.18687 101.061 8.95869C101.384 8.70199 101.78 8.57364 102.249 8.57364ZM121.769 8.59503C122.18 8.59503 122.546 8.73051 122.869 9.00148C123.192 9.27244 123.353 9.60757 123.353 10.0069C123.353 10.1352 123.328 10.2756 123.279 10.428L123.221 10.5845L119.613 18.4566C119.481 18.7703 119.268 19.0092 118.975 19.1732C118.682 19.3372 118.374 19.4192 118.051 19.4192C117.714 19.4192 117.402 19.3372 117.116 19.1732C116.878 19.0366 116.693 18.8479 116.562 18.6072L116.489 18.4566L114.135 13.1301L111.869 18.4566C111.737 18.7703 111.532 19.0092 111.253 19.1732C110.975 19.3372 110.659 19.4192 110.307 19.4192C109.97 19.4192 109.655 19.3372 109.361 19.1732C109.117 19.0366 108.928 18.8479 108.796 18.6072L108.723 18.4566L105.137 10.5845C105.049 10.3848 105.005 10.1923 105.005 10.0069C105.005 9.60757 105.178 9.27244 105.522 9.00148C105.867 8.73051 106.259 8.59503 106.699 8.59503C106.993 8.59503 107.26 8.67347 107.502 8.83034C107.704 8.96107 107.867 9.14131 107.993 9.37108L108.063 9.51488L109.5 13.0273C109.601 13.2729 109.8 13.4682 110.051 13.5681C110.526 13.7566 111.063 13.5644 111.305 13.1379L111.355 13.0354L112.815 9.55766C112.947 9.25818 113.142 9.02643 113.398 8.86243C113.655 8.69843 113.937 8.61643 114.245 8.61643C114.553 8.61643 114.839 8.69486 115.103 8.85173C115.323 8.98246 115.497 9.16766 115.626 9.40732L115.697 9.55766L117.191 13.0515C117.295 13.2946 117.496 13.4864 117.748 13.5829C118.225 13.7657 118.76 13.5671 118.996 13.1378L119.045 13.0347L120.471 9.51488C120.603 9.21539 120.786 8.98722 121.021 8.83034C121.256 8.67347 121.505 8.59503 121.769 8.59503ZM126.109 8.57364C126.578 8.57364 126.971 8.70199 127.286 8.95869C127.566 9.18687 127.722 9.51083 127.753 9.93056L127.759 10.0925V17.9004L127.753 18.0623C127.722 18.482 127.566 18.806 127.286 19.0342C126.971 19.2909 126.578 19.4192 126.109 19.4192C125.625 19.4192 125.225 19.2909 124.91 19.0342C124.63 18.806 124.474 18.482 124.443 18.0623L124.437 17.9004V10.0925L124.443 9.93056C124.475 9.51083 124.634 9.18687 124.921 8.95869C125.244 8.70199 125.64 8.57364 126.109 8.57364ZM90.4735 4.10278C90.9429 4.10278 91.3352 4.23113 91.6505 4.48783C91.9308 4.71601 92.0865 5.03997 92.1177 5.4597L92.1235 5.62159V10.9572C92.1235 11.2126 92.2268 11.4576 92.4111 11.6396C92.7688 11.9927 93.3358 12.0238 93.7304 11.7301L93.8252 11.6499L96.5234 9.06565C96.8461 8.75191 97.2054 8.59503 97.6014 8.59503C98.0121 8.59503 98.3714 8.74121 98.6794 9.03356C98.9874 9.32592 99.1414 9.67175 99.1414 10.0711C99.1414 10.3955 99.0123 10.7036 98.754 10.9952L98.6354 11.1193L95.7095 13.836L98.9874 16.788C99.3247 17.1018 99.4934 17.4583 99.4934 17.8576C99.4934 18.2569 99.3431 18.6135 99.0424 18.9272C98.7417 19.241 98.3934 19.3978 97.9974 19.3978C97.6638 19.3978 97.3526 19.2832 97.0638 19.0539L96.9414 18.9486L93.8033 16.1201C93.6184 15.9535 93.3756 15.8609 93.1235 15.8609C92.6107 15.8609 92.188 16.2363 92.1302 16.7198L92.1235 16.8332V17.879C92.1235 18.3782 91.9659 18.7561 91.6505 19.0128C91.3352 19.2695 90.9429 19.3978 90.4735 19.3978C89.9896 19.3978 89.5899 19.2695 89.2746 19.0128C88.9943 18.7846 88.8386 18.4606 88.8074 18.0409L88.8016 17.879V5.62159C88.8016 5.12245 88.9592 4.74453 89.2746 4.48783C89.5899 4.23113 89.9896 4.10278 90.4735 4.10278ZM78.4277 14.9698V14.6061L77.7642 14.608C76.7295 14.6222 75.9937 14.7142 75.5568 14.8842C75.0801 15.0696 74.8418 15.4047 74.8418 15.8896C74.8418 16.2889 74.9775 16.6133 75.2488 16.8629C75.5201 17.1125 75.8611 17.2373 76.2718 17.2373C76.9171 17.2373 77.4378 17.0269 77.8337 16.6062C78.1857 16.2323 78.3813 15.7597 78.4204 15.1886L78.4277 14.9698ZM57.4061 10.7556C56.7754 10.7556 56.2694 10.9517 55.8881 11.3439C55.5491 11.6925 55.3319 12.1791 55.2363 12.8038L55.2061 13.0445H59.452C59.408 12.2887 59.2137 11.7182 58.8691 11.3332C58.5244 10.9481 58.0367 10.7556 57.4061 10.7556ZM102.249 3.63216C102.821 3.63216 103.28 3.77834 103.624 4.07069C103.969 4.36305 104.141 4.75166 104.141 5.23654C104.141 5.73568 103.973 6.13143 103.635 6.42378C103.298 6.71613 102.836 6.86231 102.249 6.86231C101.663 6.86231 101.201 6.71613 100.863 6.42378C100.526 6.13143 100.357 5.73568 100.357 5.23654C100.357 4.7374 100.526 4.34522 100.863 4.06C101.201 3.77478 101.663 3.63216 102.249 3.63216ZM126.109 3.63216C126.681 3.63216 127.139 3.77834 127.484 4.07069C127.829 4.36305 128.001 4.75166 128.001 5.23654C128.001 5.73568 127.832 6.13143 127.495 6.42378C127.158 6.71613 126.696 6.86231 126.109 6.86231C125.522 6.86231 125.06 6.71613 124.723 6.42378C124.386 6.13143 124.217 5.73568 124.217 5.23654C124.217 4.7374 124.386 4.34522 124.723 4.06C125.06 3.77478 125.522 3.63216 126.109 3.63216Z" fill="#002517"/>
<path fill-rule="evenodd" clip-rule="evenodd" d="M12.0663 24C20.1679 24 24.1326 20.3946 24.1326 12C24.1326 3.60535 19.9834 0 12.0663 0C4.1492 0 0 3.4681 0 12C0 20.5319 3.9647 24 12.0663 24Z" fill="#91CF5E"/>
<path d="M11.9471 0.922614L12.3273 0.928736C14.3001 1.00466 17.0318 1.63821 18.0183 3.5385C18.094 3.66524 17.9677 3.86789 17.7906 3.81723C16.7536 3.53852 15.8177 2.9558 14.7807 2.67707C13.6929 2.37308 12.5801 2.24634 11.4672 2.29701C9.24152 2.42374 6.99037 3.28519 5.34629 4.83084C2.51348 7.49154 1.60297 11.647 2.91824 15.2451C4.20801 18.8685 7.59744 21.453 11.4169 21.6811C15.0844 21.9092 18.929 20.1606 20.7754 16.8921C22.6723 13.522 22.2929 9.01182 19.713 6.09778C19.1311 5.43898 20.0924 4.47621 20.6741 5.135C23.8611 8.86005 24.0887 14.7384 21.1294 18.6658C18.5494 22.1117 13.8954 23.7081 9.69689 22.8466C5.44777 21.9852 2.05847 18.4632 1.17317 14.2317C0.262234 9.87303 2.03299 5.23633 5.77647 2.75314C7.67332 1.4862 10.0509 0.852658 12.3273 0.928736L11.9471 0.922614ZM14.6799 16.4868C14.6293 16.2841 14.8318 16.1067 15.0341 16.2081C15.4387 16.4362 15.7169 16.7149 15.9952 17.1204C16.2228 17.475 16.5769 17.9311 16.6528 18.3619C16.7286 18.8178 16.1975 19.2487 15.8181 18.8432C15.5146 18.5138 15.3627 18.0577 15.1604 17.6776C15.1183 17.6101 15.0818 17.5425 15.0481 17.4749L14.857 17.0695C14.7559 16.8668 14.7305 16.7149 14.6799 16.4868ZM8.86227 15.9799C9.29224 15.7773 9.67163 16.1827 9.52007 16.664C9.36836 16.9934 9.0901 17.2469 8.86243 17.5508C8.63477 17.8296 8.43229 18.1844 8.12885 18.387C7.72408 18.6658 7.14239 18.1844 7.29411 17.7283C7.42062 17.3482 7.72406 17.0188 8.0023 16.7401C8.25515 16.4613 8.50805 16.1319 8.86223 15.9799H8.86227ZM6.28239 11.3179C6.99057 11.2927 6.99057 12.4835 6.28239 12.4328L4.00604 12.2808C3.47492 12.2554 3.47492 11.4953 4.00604 11.4699L6.28239 11.3179ZM5.42249 8.25191C5.85246 8.20124 6.25721 8.37865 6.6366 8.5813C7.01597 8.78413 7.44611 8.96152 7.74956 9.2655C8.17953 9.67082 7.74956 10.3803 7.19308 10.2283C6.78834 10.1015 6.45952 9.79755 6.13071 9.59473C5.80189 9.36666 5.44786 9.16402 5.16962 8.88529C4.89137 8.65738 5.11905 8.27732 5.42249 8.25191ZM18.3474 8.86007C18.6762 8.80941 19.0304 8.75875 19.3339 8.91074C19.5363 9.01208 19.5615 9.26556 19.4098 9.41756C19.2074 9.62018 18.9039 9.69626 18.6003 9.82284C18.3221 9.92433 18.0438 10.127 17.7404 10.1777C17.1081 10.279 16.8045 9.54412 17.3104 9.16406C17.5886 8.9614 18.0186 8.91074 18.3474 8.86007ZM16.8551 5.61647C17.0322 5.61647 17.2091 5.74321 17.2344 5.8952C17.3356 6.30065 17.0826 6.60481 16.8803 6.90879C16.6778 7.21295 16.4755 7.56761 16.1973 7.84634C15.6915 8.35309 14.8314 7.71975 15.1858 7.08603C15.3881 6.75663 15.6663 6.4779 15.9446 6.19917C16.1974 5.94587 16.4503 5.61647 16.8551 5.61647ZM11.6952 4.19778C11.771 3.94447 12.1757 3.91905 12.2263 4.19778C12.3527 4.72984 12.4538 5.2873 12.5298 5.84476C12.5551 6.09807 12.4792 6.35139 12.2009 6.42747C11.9733 6.50354 11.6952 6.35155 11.6192 6.09807C11.4929 5.48996 11.5181 4.80593 11.6952 4.19778Z" fill="#002517"/>
<path d="M19.4541 4.17297C19.4035 4.07164 19.3024 3.97031 19.2012 3.91965C19.0495 3.84357 18.8724 3.81832 18.6953 3.84357C18.5942 3.86898 18.4425 3.9449 18.3665 4.04623C18.2654 4.17297 18.1895 4.29954 18.1895 4.47695C18.1895 4.65436 18.2906 4.83176 18.4171 4.93308C18.5182 5.00916 18.6194 5.05982 18.7459 5.05982C18.9988 5.1359 19.3529 4.98374 19.454 4.73043C19.5552 4.55302 19.5552 4.32511 19.454 4.17297H19.4541Z" fill="#AD705D"/>
<path d="M18.4459 13.5226C17.94 13.1171 17.3078 12.8892 16.6503 12.8131C16.8779 11.5717 16.5491 10.178 15.7904 9.16439C15.0063 8.04947 13.3877 9.29113 14.2981 10.3046C14.9557 11.014 15.2591 12.4077 14.6775 13.2437C13.8176 14.4347 12.1231 14.8656 10.8584 14.08C9.54324 13.2693 9.18909 11.7997 9.94799 10.4567C10.3022 9.8233 10.8584 9.34177 11.5414 9.1137C12.1736 8.91105 12.8566 8.98696 13.4636 8.78431C13.6659 8.70823 13.8178 8.35358 13.8178 8.32818C13.9695 8.10011 14.096 7.8468 14.2731 7.61874C14.4502 7.39067 14.703 7.16261 14.8295 6.88386C14.9307 6.6812 14.8295 6.40249 14.5513 6.40249C14.1972 6.40249 13.8432 6.63056 13.5649 6.83321C13.2615 7.06128 13.0085 7.31458 12.7808 7.61874C12.0473 7.44133 11.2128 7.59333 10.5552 7.84681C10.4793 7.87222 10.3781 7.92289 10.3024 7.97355C10.1507 7.64415 9.97357 7.34016 9.74592 7.06145C9.49306 6.75747 9.24003 6.52939 8.91123 6.32657C8.63301 6.14916 8.38015 6.50397 8.5065 6.73204C8.78472 7.31474 9.08814 7.89765 9.31579 8.50576C9.31579 8.53117 9.34115 8.55642 9.36636 8.58184C8.96162 8.93664 8.63282 9.34196 8.37997 9.82333C7.82353 10.8115 7.69702 11.8758 7.92467 12.8385C7.31764 13.1173 6.71064 13.5227 6.17955 13.8521C5.80019 14.0802 5.9267 14.8149 6.43241 14.739C6.9383 14.6883 7.36824 14.5363 7.84873 14.3335C8.05102 14.2574 8.25347 14.1815 8.45577 14.1054C8.80993 14.6881 9.31565 15.195 9.94805 15.6004C10.4539 15.9298 10.985 16.1325 11.5415 16.2086V16.234C11.5161 16.6395 11.4655 17.0955 11.6174 17.4755C11.7691 17.9569 12.5532 18.033 12.6797 17.4755C12.7557 17.0954 12.7051 16.69 12.6797 16.3099V16.2592C13.9444 16.1579 15.1836 15.4991 15.9677 14.3842C16.1194 14.1561 16.2711 13.9028 16.3724 13.6493C16.8783 13.9026 17.3842 14.1814 17.9153 14.3842C18.4208 14.6121 18.876 13.852 18.446 13.5226L18.4459 13.5226Z" fill="white"/>
</svg>
