<svg width="40" height="40" viewBox="0 0 40 40" fill="none" xmlns="http://www.w3.org/2000/svg">
<rect width="40" height="40" rx="20" fill="#D1FADF"/>
<g clip-path="url(#clip0_442_772)">
<path d="M28.3327 20.0001C28.3327 24.6025 24.6017 28.3334 19.9993 28.3334M28.3327 20.0001C28.3327 15.3977 24.6017 11.6667 19.9993 11.6667M28.3327 20.0001H11.666M19.9993 28.3334C15.397 28.3334 11.666 24.6025 11.666 20.0001M19.9993 28.3334C22.0837 26.0515 23.2683 23.0901 23.3327 20.0001C23.2683 16.9101 22.0837 13.9487 19.9993 11.6667M19.9993 28.3334C17.9149 26.0515 16.7304 23.0901 16.666 20.0001C16.7304 16.9101 17.9149 13.9487 19.9993 11.6667M11.666 20.0001C11.666 15.3977 15.397 11.6667 19.9993 11.6667" stroke="#2E3F37" stroke-width="1.67" stroke-linecap="round" stroke-linejoin="round"/>
</g>
<defs>
<clipPath id="clip0_442_772">
<rect width="20" height="20" fill="white" transform="translate(10 10)"/>
</clipPath>
</defs>
</svg>
