<svg width="176" height="213" viewBox="0 0 176 213" fill="none" xmlns="http://www.w3.org/2000/svg">
<g clip-path="url(#clip0_500_846)">
<path d="M83.9462 2.10158C84.757 12.5189 84.7066 22.985 83.7953 33.394C83.578 36.05 83.2992 38.7036 82.8741 41.3352C82.7795 41.9213 83.6797 42.1735 83.7751 41.5827C84.5166 36.6563 84.9747 31.6918 85.1471 26.7133C85.3978 21.1806 85.4499 15.6426 85.3035 10.0991C85.2299 7.43047 85.1051 4.76213 84.8805 2.10158C84.8305 1.50891 83.8957 1.50361 83.9462 2.10158Z" fill="#86B3A7"/>
<path d="M85.2933 18.9724C87.722 14.6401 90.5146 10.5205 93.641 6.65777C94.0082 6.18389 93.1969 5.71986 92.8342 6.1879C89.7078 10.0506 86.9153 14.1702 84.4865 18.5025C84.2049 19.0315 85.0111 19.5024 85.2933 18.9724Z" fill="#86B3A7"/>
<path d="M95.5529 3.96922C95.6741 3.96506 95.7888 3.9142 95.873 3.82736C95.9572 3.74052 96.0043 3.62449 96.0043 3.50374C96.0043 3.38299 95.9572 3.26696 95.873 3.18012C95.7888 3.09328 95.6741 3.04242 95.5529 3.03827C95.4318 3.04242 95.3171 3.09328 95.2328 3.18012C95.1486 3.26696 95.1016 3.38299 95.1016 3.50374C95.1016 3.62449 95.1486 3.74052 95.2328 3.82736C95.3171 3.9142 95.4318 3.96506 95.5529 3.96922Z" fill="#86B3A7"/>
<path d="M84.828 35.0775C88.216 32.002 91.6041 28.9266 94.9921 25.851C95.4375 25.4467 94.7753 24.7898 94.3314 25.1927C90.9434 28.2683 87.5553 31.3437 84.1673 34.4192C83.7218 34.8236 84.3841 35.4804 84.828 35.0775Z" fill="#86B3A7"/>
<path d="M97.3576 23.038C97.4787 23.0338 97.5935 22.983 97.6777 22.8961C97.7619 22.8093 97.809 22.6933 97.809 22.5725C97.809 22.4517 97.7619 22.3357 97.6777 22.2489C97.5935 22.162 97.4787 22.1112 97.3576 22.107C97.2365 22.1112 97.1217 22.162 97.0375 22.2489C96.9533 22.3357 96.9062 22.4517 96.9062 22.5725C96.9062 22.6933 96.9533 22.8093 97.0375 22.8961C97.1217 22.983 97.2365 23.0338 97.3576 23.038Z" fill="#86B3A7"/>
<path d="M100.393 20.0102C100.514 20.006 100.629 19.9552 100.713 19.8683C100.797 19.7815 100.844 19.6655 100.844 19.5447C100.844 19.424 100.797 19.3079 100.713 19.2211C100.629 19.1343 100.514 19.0834 100.393 19.0793C100.272 19.0834 100.157 19.1343 100.073 19.2211C99.9885 19.3079 99.9414 19.424 99.9414 19.5447C99.9414 19.6655 99.9885 19.7815 100.073 19.8683C100.157 19.9552 100.272 20.006 100.393 20.0102Z" fill="#86B3A7"/>
<path d="M84.9766 28.6327C82.6775 24.3161 80.0429 20.1854 77.0968 16.2784C76.74 15.8052 75.9284 16.2687 76.29 16.7483C79.2361 20.6552 81.8707 24.7859 84.1698 29.1025C84.4517 29.6319 85.2586 29.1621 84.9766 28.6327H84.9766Z" fill="#86B3A7"/>
<path d="M74.5158 14.1071C74.6369 14.1029 74.7517 14.0521 74.8359 13.9652C74.9201 13.8784 74.9672 13.7623 74.9672 13.6416C74.9672 13.5208 74.9201 13.4048 74.8359 13.318C74.7517 13.2311 74.6369 13.1803 74.5158 13.1761C74.3947 13.1803 74.2799 13.2311 74.1957 13.318C74.1115 13.4048 74.0645 13.5208 74.0645 13.6416C74.0645 13.7623 74.1115 13.8784 74.1957 13.9652C74.2799 14.0521 74.3947 14.1029 74.5158 14.1071Z" fill="#86B3A7"/>
<path d="M71.965 10.824C72.0862 10.8198 72.2009 10.7689 72.2851 10.6821C72.3693 10.5953 72.4164 10.4792 72.4164 10.3585C72.4164 10.2377 72.3693 10.1217 72.2851 10.0349C72.2009 9.94802 72.0862 9.89716 71.965 9.89301C71.8439 9.89716 71.7292 9.94802 71.6449 10.0349C71.5607 10.1217 71.5137 10.2377 71.5137 10.3585C71.5137 10.4792 71.5607 10.5953 71.6449 10.6821C71.7292 10.7689 71.8439 10.8198 71.965 10.824Z" fill="#86B3A7"/>
<path d="M113.963 54.4774C116.267 55.4681 118.794 55.8297 121.285 55.5251C122.109 55.447 122.914 55.2247 123.66 54.8683C123.841 54.7889 123.998 54.6664 124.12 54.5116C124.224 54.2981 124.251 54.0555 124.197 53.8243C124.144 53.593 124.012 53.3872 123.824 53.2409C123.137 52.7281 122.287 52.4781 121.43 52.5362C118.86 52.4613 116.155 52.8694 114.106 54.4159" fill="#FFBB57"/>
<path d="M113.001 44.7472C116.434 39.4521 118.138 33.228 117.88 26.9293C117.898 26.0018 117.694 25.0833 117.285 24.2499C117.073 23.8379 116.739 23.5 116.329 23.2815C115.919 23.0629 115.452 22.974 114.99 23.0265C114.378 23.2034 113.839 23.5715 113.453 24.0766C111.033 26.7877 110.107 30.5671 110.175 34.1944C110.244 37.8218 111.213 41.3651 112.175 44.8641" fill="#FFBB57"/>
<path d="M122.795 36.2239C125.665 34.1882 128.056 31.5539 129.8 28.5043C130.69 27.1518 131.159 25.5683 131.151 23.9514C131.144 23.5256 131.005 23.1123 130.753 22.7685C130.494 22.5111 130.16 22.3414 129.799 22.2837C129.438 22.2259 129.068 22.2831 128.742 22.447C128.095 22.7897 127.544 23.2874 127.138 23.8951C124.42 27.4612 122.858 31.769 122.662 36.2428" fill="#FFBB57"/>
<path d="M121.911 41.0635C123.452 40.0634 125.025 39.113 126.628 38.2123C127.954 37.3426 129.468 36.7988 131.046 36.6256C131.766 36.5984 132.649 36.8593 132.791 37.5638C132.809 37.8023 132.771 38.0418 132.678 38.2625C132.586 38.4832 132.442 38.6787 132.258 38.8327C130.877 40.2372 128.738 40.5028 126.773 40.6893C124.916 40.8656 123.058 41.0419 121.201 41.2182" fill="#FFBB57"/>
<path d="M127.424 28.4961C121.858 37.3782 115.564 45.7855 108.605 53.6319C106.859 55.6233 105.063 57.575 103.167 59.4269C102.737 59.847 103.398 60.5051 103.828 60.0852C107.383 56.5337 110.729 52.7806 113.849 48.8448C117.309 44.5793 120.617 40.196 123.774 35.695C125.316 33.4899 126.816 31.2547 128.23 28.966C128.547 28.4544 127.739 27.9863 127.424 28.4961Z" fill="#558075"/>
<path d="M118.531 42.8007C123.032 40.771 127.696 39.1239 132.475 37.8769C132.591 37.8408 132.688 37.7614 132.746 37.6554C132.804 37.5493 132.819 37.425 132.786 37.3085C132.754 37.1921 132.678 37.0927 132.573 37.0313C132.469 36.9698 132.345 36.9512 132.227 36.9792C127.371 38.251 122.632 39.9295 118.06 41.9968C117.518 42.2557 117.991 43.0587 118.531 42.8006V42.8007Z" fill="#558075"/>
<path d="M135.953 36.9156C136.074 36.9114 136.189 36.8606 136.273 36.7737C136.358 36.6869 136.405 36.5709 136.405 36.4501C136.405 36.3294 136.358 36.2133 136.273 36.1265C136.189 36.0397 136.074 35.9888 135.953 35.9846C135.832 35.9888 135.717 36.0397 135.633 36.1265C135.549 36.2133 135.502 36.3294 135.502 36.4501C135.502 36.5709 135.549 36.6869 135.633 36.7737C135.717 36.8606 135.832 36.9114 135.953 36.9156Z" fill="#86B3A7"/>
<path d="M108.433 55.5127C112.992 55.0424 117.551 54.572 122.11 54.1016C122.702 54.0405 122.708 53.1089 122.11 53.1707C117.551 53.641 112.992 54.1114 108.433 54.5818C107.841 54.6429 107.834 55.5745 108.433 55.5127Z" fill="#558075"/>
<path d="M126.037 53.3262C126.158 53.322 126.273 53.2711 126.357 53.1843C126.441 53.0974 126.488 52.9814 126.488 52.8607C126.488 52.74 126.441 52.624 126.357 52.5372C126.273 52.4503 126.158 52.3994 126.037 52.3952C125.916 52.3994 125.801 52.4503 125.717 52.5372C125.633 52.624 125.586 52.74 125.586 52.8607C125.586 52.9814 125.633 53.0974 125.717 53.1843C125.801 53.2711 125.916 53.322 126.037 53.3262Z" fill="#86B3A7"/>
<path d="M130.281 52.6818C130.402 52.6776 130.517 52.6267 130.601 52.5399C130.685 52.453 130.732 52.337 130.732 52.2163C130.732 52.0956 130.685 51.9796 130.601 51.8927C130.517 51.8059 130.402 51.755 130.281 51.7508C130.16 51.755 130.045 51.8059 129.961 51.8927C129.877 51.9796 129.83 52.0956 129.83 52.2163C129.83 52.337 129.877 52.453 129.961 52.5399C130.045 52.6267 130.16 52.6776 130.281 52.6818Z" fill="#86B3A7"/>
<path d="M112.466 50.4913C113.195 45.6169 113.542 40.6932 113.504 35.7651C113.5 35.6444 113.448 35.5301 113.361 35.4463C113.274 35.3624 113.158 35.3155 113.037 35.3155C112.915 35.3155 112.799 35.3624 112.712 35.4463C112.625 35.5301 112.574 35.6444 112.569 35.7651C112.612 40.61 112.277 45.4509 111.565 50.2438C111.477 50.8298 112.377 51.0827 112.466 50.4913Z" fill="#558075"/>
<path d="M112.986 32.6277C113.107 32.6235 113.222 32.5726 113.306 32.4858C113.39 32.399 113.438 32.283 113.438 32.1623C113.438 32.0415 113.39 31.9255 113.306 31.8387C113.222 31.7519 113.107 31.701 112.986 31.6968C112.865 31.701 112.751 31.7519 112.666 31.8387C112.582 31.9255 112.535 32.0415 112.535 32.1623C112.535 32.283 112.582 32.399 112.666 32.4858C112.751 32.5726 112.865 32.6235 112.986 32.6277Z" fill="#86B3A7"/>
<path d="M112.891 28.4765C113.012 28.4723 113.127 28.4215 113.211 28.3346C113.295 28.2478 113.342 28.1318 113.342 28.011C113.342 27.8903 113.295 27.7742 113.211 27.6874C113.127 27.6005 113.012 27.5497 112.891 27.5455C112.77 27.5497 112.655 27.6005 112.571 27.6874C112.487 27.7742 112.439 27.8903 112.439 28.011C112.439 28.1318 112.487 28.2478 112.571 28.3346C112.655 28.4215 112.77 28.4723 112.891 28.4765Z" fill="#86B3A7"/>
<path d="M49.6363 54.4775C47.3322 55.4681 44.805 55.8298 42.3142 55.5252C41.4898 55.4471 40.6857 55.2248 39.9388 54.8684C39.7586 54.789 39.6009 54.6665 39.4796 54.5117C39.3756 54.2982 39.3481 54.0556 39.4018 53.8244C39.4555 53.5931 39.5872 53.3872 39.7748 53.241C40.4627 52.7282 41.3123 52.4782 42.1695 52.5363C44.7389 52.4614 47.4439 52.8694 49.4928 54.416" fill="#FFBB57"/>
<path d="M50.5998 44.7473C47.1665 39.4521 45.4622 33.2281 45.721 26.9294C45.7026 26.0019 45.9064 25.0834 46.3154 24.25C46.5279 23.8379 46.8614 23.5001 47.2714 23.2815C47.6815 23.063 48.1486 22.974 48.6106 23.0266C49.2227 23.2035 49.7617 23.5716 50.148 24.0767C52.5676 26.7878 53.4938 30.5672 53.4252 34.1945C53.3565 37.8218 52.3876 41.3652 51.4253 44.8642" fill="#FFBB57"/>
<path d="M40.8103 36.2239C37.9403 34.1883 35.5499 31.554 33.8055 28.5043C32.9162 27.1519 32.4465 25.5683 32.4552 23.9515C32.4617 23.5257 32.6006 23.1124 32.8529 22.7686C33.1117 22.5111 33.4453 22.3415 33.8064 22.2837C34.1674 22.226 34.5376 22.2831 34.8642 22.447C35.5109 22.7898 36.062 23.2874 36.4676 23.8952C39.1862 27.4612 40.7478 31.769 40.9437 36.2429" fill="#FFBB57"/>
<path d="M41.685 41.0636C40.1437 40.0635 38.5714 39.1131 36.9681 38.2124C35.6422 37.3427 34.1282 36.7989 32.5503 36.6257C31.8297 36.5985 30.9468 36.8594 30.8055 37.5639C30.7865 37.8023 30.825 38.0419 30.9176 38.2626C31.0102 38.4833 31.1544 38.6788 31.3381 38.8328C32.7195 40.2373 34.8581 40.5029 36.8228 40.6894C38.6802 40.8657 40.5376 41.042 42.3948 41.2183" fill="#FFBB57"/>
<path d="M35.3612 28.9653C40.9493 37.8798 47.266 46.3199 54.2468 54.1996C56.0183 56.2222 57.8395 58.2047 59.7639 60.0845C60.1936 60.5043 60.8548 59.8465 60.4246 59.4262C56.8998 55.9053 53.5809 52.1857 50.4842 48.2857C47.0194 44.0197 43.7098 39.6333 40.5554 35.1263C39.0379 32.953 37.5611 30.7503 36.168 28.4955C35.8533 27.9862 35.0448 28.4532 35.3612 28.9653H35.3612Z" fill="#558075"/>
<path d="M45.5361 41.9959C40.9641 39.9286 36.2248 38.2501 31.369 36.9783C31.2511 36.9503 31.1269 36.969 31.0226 37.0305C30.9183 37.0919 30.842 37.1913 30.8098 37.3077C30.7776 37.4241 30.792 37.5484 30.85 37.6544C30.908 37.7605 31.005 37.8399 31.1206 37.876C35.8995 39.123 40.5641 40.7701 45.0645 42.7998C45.6041 43.0575 46.0787 42.2551 45.5361 41.9959V41.9959Z" fill="#558075"/>
<path d="M27.6428 36.915C27.7639 36.9109 27.8787 36.86 27.9629 36.7732C28.0471 36.6864 28.0942 36.5703 28.0942 36.4496C28.0942 36.3288 28.0471 36.2128 27.9629 36.126C27.8787 36.0391 27.7639 35.9883 27.6428 35.9841C27.5217 35.9883 27.4069 36.0391 27.3227 36.126C27.2385 36.2128 27.1914 36.3288 27.1914 36.4496C27.1914 36.5703 27.2385 36.6864 27.3227 36.7732C27.4069 36.86 27.5217 36.9109 27.6428 36.915Z" fill="#86B3A7"/>
<path d="M55.1623 54.581C50.6034 54.1107 46.0445 53.6403 41.4856 53.1699C40.8881 53.1082 40.8924 54.0396 41.4856 54.1008C46.0445 54.5712 50.6034 55.0415 55.1623 55.5119C55.7598 55.5736 55.7554 54.6422 55.1623 54.581Z" fill="#558075"/>
<path d="M37.5549 53.3252C37.676 53.3211 37.7908 53.2702 37.875 53.1834C37.9592 53.0965 38.0063 52.9805 38.0063 52.8598C38.0063 52.739 37.9592 52.623 37.875 52.5361C37.7908 52.4493 37.676 52.3984 37.5549 52.3943C37.4338 52.3984 37.319 52.4493 37.2348 52.5361C37.1506 52.623 37.1035 52.739 37.1035 52.8598C37.1035 52.9805 37.1506 53.0965 37.2348 53.1834C37.319 53.2702 37.4338 53.3211 37.5549 53.3252Z" fill="#86B3A7"/>
<path d="M33.3127 52.6808C33.4338 52.6766 33.5486 52.6258 33.6328 52.5389C33.717 52.4521 33.7641 52.3361 33.7641 52.2153C33.7641 52.0946 33.717 51.9785 33.6328 51.8917C33.5486 51.8049 33.4338 51.754 33.3127 51.7498C33.1916 51.754 33.0768 51.8049 32.9926 51.8917C32.9084 51.9785 32.8613 52.0946 32.8613 52.2153C32.8613 52.3361 32.9084 52.4521 32.9926 52.5389C33.0768 52.6258 33.1916 52.6766 33.3127 52.6808Z" fill="#86B3A7"/>
<path d="M52.0339 50.243C51.3219 45.4501 50.9859 40.6092 51.029 35.7642C51.0248 35.6436 50.9738 35.5293 50.8866 35.4454C50.7995 35.3616 50.683 35.3147 50.5619 35.3147C50.4407 35.3147 50.3243 35.3616 50.2371 35.4454C50.15 35.5293 50.0989 35.6436 50.0947 35.7642C50.0561 40.6924 50.4032 45.6161 51.1329 50.4904C51.221 51.081 52.1214 50.83 52.0339 50.243H52.0339Z" fill="#558075"/>
<path d="M50.6057 32.6274C50.7268 32.6232 50.8416 32.5723 50.9258 32.4855C51.01 32.3987 51.057 32.2826 51.057 32.1619C51.057 32.0411 51.01 31.9251 50.9258 31.8383C50.8416 31.7514 50.7268 31.7006 50.6057 31.6964C50.4846 31.7006 50.3698 31.7514 50.2856 31.8383C50.2014 31.9251 50.1543 32.0411 50.1543 32.1619C50.1543 32.2826 50.2014 32.3987 50.2856 32.4855C50.3698 32.5723 50.4846 32.6232 50.6057 32.6274Z" fill="#86B3A7"/>
<path d="M50.7053 28.4761C50.8264 28.472 50.9412 28.4211 51.0254 28.3343C51.1096 28.2474 51.1567 28.1314 51.1567 28.0106C51.1567 27.8899 51.1096 27.7739 51.0254 27.687C50.9412 27.6002 50.8264 27.5493 50.7053 27.5452C50.5842 27.5493 50.4694 27.6002 50.3852 27.687C50.301 27.7739 50.2539 27.8899 50.2539 28.0106C50.2539 28.1314 50.301 28.2474 50.3852 28.3343C50.4694 28.4211 50.5842 28.472 50.7053 28.4761Z" fill="#86B3A7"/>
<path d="M44.3847 9.56338C46.8571 14.1227 48.9701 18.8666 50.7046 23.7523C50.9036 24.3133 51.8067 24.0717 51.6055 23.5048C49.8454 18.5427 47.7009 13.7245 45.1914 9.09353C44.9056 8.56623 44.0986 9.0357 44.3846 9.5634L44.3847 9.56338Z" fill="#558075"/>
<path d="M47.6289 4.34682C47.808 11.2014 48.8726 18.0044 50.7964 24.5879C50.8327 24.7031 50.9124 24.7998 51.0188 24.8576C51.1252 24.9153 51.25 24.9297 51.3668 24.8976C51.4837 24.8655 51.5834 24.7895 51.6451 24.6855C51.7067 24.5816 51.7255 24.4578 51.6974 24.3404C49.7947 17.8377 48.7414 11.1178 48.5633 4.34682C48.559 4.22618 48.508 4.11187 48.4208 4.02801C48.3337 3.94415 48.2172 3.89728 48.0961 3.89728C47.9749 3.89728 47.8585 3.94415 47.7713 4.02801C47.6842 4.11187 47.6331 4.22618 47.6289 4.34682Z" fill="#558075"/>
<path d="M43.1796 7.7708C43.2835 7.50709 43.4636 7.28 43.697 7.11826C43.9305 6.95653 44.2069 6.8674 44.4912 6.86215C44.7755 6.85691 45.055 6.93578 45.2943 7.0888C45.5336 7.24181 45.722 7.4621 45.8356 7.7218C45.9493 7.9815 45.9831 8.26895 45.9328 8.5478C45.8825 8.82665 45.7503 9.08437 45.553 9.28837C45.3557 9.49237 45.1021 9.63349 44.8243 9.69389C44.5464 9.75428 44.2569 9.73124 43.9922 9.62766C43.8165 9.55891 43.6561 9.45634 43.5201 9.32581C43.3842 9.19528 43.2754 9.03936 43.1999 8.86693C43.1244 8.6945 43.0838 8.50896 43.0803 8.32088C43.0768 8.13281 43.1106 7.94589 43.1796 7.7708Z" fill="#98FACB" stroke="#98FACB" stroke-width="0.958173" stroke-miterlimit="10"/>
<path d="M46.7733 4.21171C46.8773 3.948 47.0574 3.72092 47.2909 3.55919C47.5243 3.39747 47.8007 3.30836 48.085 3.30313C48.3693 3.2979 48.6488 3.3768 48.8881 3.52983C49.1274 3.68286 49.3158 3.90317 49.4295 4.16288C49.5431 4.42259 49.5769 4.71005 49.5266 4.9889C49.4762 5.26775 49.3441 5.52547 49.1467 5.72947C48.9494 5.93346 48.6958 6.07458 48.418 6.13496C48.1401 6.19534 47.8506 6.17229 47.5859 6.0687C47.231 5.9298 46.946 5.65612 46.7936 5.30787C46.6413 4.95962 46.6339 4.56533 46.7733 4.21171Z" fill="#98FACB" stroke="#98FACB" stroke-width="0.958173" stroke-miterlimit="10"/>
<path d="M57.3988 30.6216C56.4354 30.8264 55.4354 30.7806 54.4949 30.4888C51.2921 29.6453 48.3795 27.9504 46.0686 25.5854C43.7577 23.2203 42.1354 20.274 41.375 17.0614C41.1194 16.086 41.0606 15.0697 41.2021 14.0715C41.3389 13.3188 41.7996 12.4919 42.565 12.4299C42.8821 12.424 43.1954 12.4998 43.4746 12.6499C45.1618 13.4325 46.3995 14.9134 47.5788 16.3481C51.3971 20.9931 55.2363 25.6686 58.1814 30.9067" fill="#98FACB"/>
<path d="M57.2047 29.9278C55.6342 30.292 53.8447 29.6442 52.3959 29.0463C51.1187 28.5133 49.91 27.8299 48.7957 27.0107C46.4888 25.3176 44.6236 23.0973 43.3569 20.5366C42.6863 19.1908 42.2123 17.7563 41.9493 16.2767C41.7606 15.476 41.7787 14.6407 42.002 13.8489C42.3702 12.864 43.0915 13.2068 43.8049 13.6458C45.139 14.5975 46.3065 15.7617 47.2606 17.0917C48.362 18.4316 49.462 19.7727 50.541 21.1305C53.1407 24.3228 55.4863 27.7125 57.5562 31.2687C57.6562 31.4264 57.8137 31.5392 57.9955 31.5834C58.1774 31.6276 58.3693 31.5997 58.5309 31.5056C58.6925 31.4115 58.8111 31.2585 58.8617 31.079C58.9123 30.8994 58.8909 30.7073 58.802 30.5432C56.6647 26.8842 54.2437 23.3973 51.5612 20.114C50.2536 18.4686 48.931 16.8309 47.5765 15.2235C46.4608 13.8995 45.1322 12.4493 43.4455 11.8621C41.8639 11.3116 40.7247 12.5574 40.4818 14.0284C40.3007 15.8333 40.5762 17.6545 41.2831 19.326C42.1742 21.751 43.5495 23.9709 45.3257 25.8515C47.102 27.732 49.2425 29.2344 51.6179 30.2676C53.4522 31.0538 55.5852 31.7785 57.5883 31.314C58.4922 31.1043 58.1096 29.7179 57.2047 29.9278V29.9278Z" fill="#98FACB"/>
<path d="M59.4707 30.3038C61.2608 29.7485 62.4933 28.144 63.5078 26.5732C65.3391 23.9075 66.6497 20.9217 67.3709 17.7722C68.0835 14.5963 67.6183 11.2706 66.0613 8.40984C65.5962 7.51707 64.8734 6.78361 63.9859 6.30407C63.5389 6.07439 63.0325 5.98515 62.5335 6.04812C62.0345 6.11109 61.5664 6.32331 61.191 6.65678C60.6568 7.34668 60.3892 8.20479 60.4368 9.07482C60.1085 16.145 62.407 23.512 59.9536 30.1541" fill="#98FACB"/>
<path d="M59.6592 30.9972C61.2658 30.368 62.629 29.2444 63.5503 27.7899C64.718 26.1533 65.7198 24.4054 66.5409 22.5717C68.0914 19.113 68.8789 15.2885 68.0439 11.5359C67.6946 9.74119 66.8798 8.06893 65.6804 6.68553C64.6063 5.54542 62.8637 4.87742 61.3753 5.6421C59.8647 6.41821 59.7303 8.17184 59.6904 9.67327C59.6673 11.7873 59.7604 13.901 59.9692 16.0048C60.3586 20.6698 60.8705 25.46 59.2546 29.9633C58.9415 30.836 60.3351 31.2117 60.6459 30.3455C63.0683 23.5943 60.9207 16.4582 61.1378 9.52364C61.0783 8.78979 61.2129 8.05321 61.5281 7.38732C61.7621 7.08482 62.0937 6.87196 62.4669 6.78462C62.8401 6.69728 63.2321 6.74079 63.5768 6.90783C65.0705 7.50398 65.9122 9.44504 66.3657 10.8574C67.4006 14.0807 66.9581 17.5462 65.7812 20.6658C65.0519 22.5207 64.1333 24.296 63.0399 25.9638C62.1011 27.4388 61.008 29.0198 59.2756 29.611C58.4022 29.909 58.7773 31.2981 59.6591 30.9971L59.6592 30.9972Z" fill="#98FACB"/>
<path d="M58.9223 31.296C55.1043 31.1016 51.7557 28.2805 50.168 24.8157C48.5803 21.3508 48.5277 17.3593 49.1631 13.6034C49.2429 12.6392 49.616 11.7223 50.2326 10.9749C50.9106 10.2913 52.1778 10.1063 52.7995 10.8412C53.4659 9.53652 54.5956 8.00647 56.0168 8.37731C56.5033 8.54322 56.9387 8.8312 57.2811 9.21349C60.0092 11.9674 61.9077 15.4283 62.7608 19.2033C63.3337 21.2879 63.4373 23.4729 63.0643 25.6021C62.8712 26.6641 62.4654 27.6763 61.8711 28.5785C61.2767 29.4807 60.506 30.2544 59.605 30.8532" fill="#98FACB"/>
<path d="M58.9232 30.5771C54.7046 30.3002 51.4517 26.8365 50.2376 22.9907C49.5657 20.7036 49.3453 18.3084 49.5886 15.9378C49.6464 14.8201 49.8243 13.7118 50.1192 12.6319C50.3615 11.8506 51.3716 10.4249 52.2903 11.3493C52.3689 11.4259 52.4639 11.4837 52.5681 11.5185C52.6723 11.5532 52.7831 11.564 52.8921 11.55C53.0012 11.536 53.1056 11.4976 53.1976 11.4377C53.2896 11.3777 53.3667 11.2978 53.4233 11.2039C53.8296 10.4304 54.5416 9.04463 55.5788 9.03958C56.5434 9.03489 57.5212 10.4651 58.0744 11.134C59.5594 12.9657 60.7025 15.048 61.4494 17.2819C62.8855 21.4713 63.5869 27.4526 59.2418 30.2325C58.4629 30.7308 59.1856 31.9756 59.97 31.4738C65.2425 28.1006 64.465 20.9053 62.458 15.8666C61.4338 13.1749 59.8428 10.733 57.7921 8.70516C56.9023 7.85676 55.814 7.29481 54.5953 7.81999C53.5129 8.4108 52.6614 9.34706 52.1775 10.4783L53.3105 10.3328C52.9253 9.96495 52.4303 9.73224 51.9004 9.66993C51.3706 9.60762 50.8348 9.71912 50.3743 9.98752C49.2095 10.6129 48.746 11.9336 48.5142 13.1528C47.9195 16.0595 47.9069 19.0547 48.4772 21.9662C49.559 27.0347 53.48 31.6573 58.9232 32.0146C59.8502 32.0755 59.8464 30.6377 58.9232 30.5771L58.9232 30.5771Z" fill="#98FACB"/>
<path d="M47.5051 15.7974C47.6797 18.1914 48.4086 20.5125 49.6346 22.5787C50.8606 24.645 52.5504 26.4001 54.5714 27.7065C55.0492 28.0126 55.491 27.2539 55.0156 26.9493C53.1238 25.724 51.5414 24.0803 50.3913 22.146C49.2413 20.2118 48.5548 18.0392 48.3853 15.7974C48.3463 15.2375 47.4659 15.2332 47.5052 15.7974H47.5051Z" fill="#FFF9F0"/>
<path d="M59.3709 11.1408C61.813 15.0789 62.8139 19.7369 62.2043 24.326C62.129 24.8779 62.9769 25.1166 63.0529 24.5591C63.7177 19.7412 62.685 14.8426 60.1308 10.6982C59.8339 10.2189 59.0723 10.6588 59.3709 11.1408H59.3709Z" fill="#FFF9F0"/>
<path d="M58.5242 25.6029C57.8202 24.5154 57.1162 23.4278 56.4121 22.3403C56.3515 22.2417 56.255 22.1704 56.1428 22.1411C56.0306 22.1117 55.9114 22.1268 55.8101 22.183C55.7102 22.2426 55.6378 22.3387 55.6083 22.4508C55.5788 22.563 55.5945 22.6822 55.6522 22.7829C56.3563 23.8704 57.0603 24.958 57.7643 26.0455C57.8249 26.1441 57.9214 26.2154 58.0336 26.2448C58.1458 26.2741 58.265 26.259 58.3664 26.2028C58.4662 26.1433 58.5386 26.0471 58.5681 25.935C58.5977 25.8228 58.5819 25.7036 58.5242 25.6029Z" fill="#FFF9F0"/>
<path d="M60.4618 24.2012C60.3559 22.8355 60.014 21.4983 59.4511 20.2486C59.3916 20.1489 59.2951 20.0764 59.1824 20.047C59.0697 20.0175 58.95 20.0335 58.849 20.0913C58.7503 20.1519 58.6789 20.2481 58.6495 20.3598C58.6201 20.4715 58.635 20.5902 58.6911 20.6912C59.1869 21.802 59.4881 22.9892 59.5817 24.2012C59.5845 24.3166 59.6318 24.4266 59.7137 24.5082C59.7956 24.5898 59.906 24.6369 60.0218 24.6397C60.1382 24.6387 60.2496 24.5923 60.3319 24.5102C60.4142 24.4282 60.4609 24.3172 60.4618 24.2012Z" fill="#FFF9F0"/>
<path d="M59.6328 32.8178C57.8963 31.9974 56.1346 31.2331 54.3477 30.525C54.4614 30.0034 54.7375 29.5308 55.1366 29.1747C55.3344 29.0475 55.556 28.9617 55.7881 28.9225C56.0201 28.8832 56.2578 28.8913 56.4866 28.9462C56.9431 29.0585 57.3821 29.2326 57.7913 29.4635C57.8907 28.9362 58.1327 28.4459 58.4912 28.0456C58.8497 27.6453 59.3111 27.3501 59.8256 27.1918C60.3401 27.0335 60.8882 27.0182 61.4108 27.1475C61.9334 27.2768 62.4107 27.5458 62.7911 27.9255C61.7929 29.5401 60.9174 31.2268 60.172 32.9716" fill="#0E6B75"/>
<path d="M64.4221 40.9154C64.1076 36.9025 66.1929 33.0827 68.6762 29.9076C69.7399 28.548 70.9859 27.1908 72.6514 26.7236C73.0143 26.6219 73.4838 26.6038 73.6842 26.9219C73.7594 27.0663 73.7958 27.2277 73.7899 27.3904C73.8403 30.5872 72.9495 33.7287 71.2276 36.4266C70.8158 37.1435 70.3117 37.8035 69.728 38.39C68.4456 39.6164 66.7031 40.2183 65.0193 40.7857" fill="#558075"/>
<path d="M65.7516 45.3638C65.0661 44.0951 63.9827 43.0848 62.6668 42.4872C61.3572 41.8976 59.9586 41.5282 58.5278 41.3939C57.2739 41.2427 55.8767 41.2247 54.8984 42.0211C55.0592 42.6241 55.3401 43.1887 55.7245 43.6812C56.8701 45.2266 58.5706 46.2714 60.4709 46.5975C62.3711 46.9237 64.3244 46.5059 65.923 45.4315" fill="#558075"/>
<path d="M59.2221 31.6469C66.1473 42.8853 69.4444 55.9705 68.6681 69.1354C68.6335 69.7339 69.568 69.732 69.6024 69.1354C70.1832 58.8092 68.3145 48.4918 64.1476 39.0193C62.9556 36.3147 61.5795 33.6945 60.0288 31.177C59.7152 30.6669 58.9068 31.1341 59.2221 31.6469V31.6469Z" fill="#0E6B75"/>
<path d="M123.65 5.78989C121.141 10.4209 118.996 15.2392 117.236 20.2012C117.035 20.7672 117.938 21.0106 118.137 20.4487C119.871 15.5631 121.984 10.8191 124.457 6.25976C124.743 5.73258 123.936 5.26199 123.65 5.78989H123.65Z" fill="#558075"/>
<path d="M120.282 1.04305C120.104 7.81408 119.05 14.534 117.148 21.0366C117.119 21.1541 117.138 21.2778 117.2 21.3818C117.261 21.4858 117.361 21.5618 117.478 21.5939C117.595 21.626 117.72 21.6116 117.826 21.5539C117.933 21.4961 118.012 21.3993 118.049 21.2841C119.972 14.7006 121.037 7.8976 121.216 1.04305C121.212 0.922404 121.161 0.808102 121.074 0.72424C120.986 0.640377 120.87 0.593506 120.749 0.593506C120.628 0.593506 120.511 0.640377 120.424 0.72424C120.337 0.808102 120.286 0.922404 120.282 1.04305Z" fill="#558075"/>
<path d="M125.667 4.46792C125.563 4.20421 125.383 3.97712 125.149 3.81538C124.916 3.65364 124.639 3.56451 124.355 3.55927C124.071 3.55402 123.791 3.63289 123.552 3.78591C123.313 3.93893 123.124 4.15921 123.01 4.41891C122.897 4.67861 122.863 4.96606 122.913 5.24491C122.964 5.52376 123.096 5.78148 123.293 5.98548C123.49 6.18948 123.744 6.33061 124.022 6.391C124.3 6.4514 124.589 6.42835 124.854 6.32478C125.03 6.25603 125.19 6.15346 125.326 6.02293C125.462 5.89241 125.571 5.73648 125.646 5.56405C125.722 5.39162 125.762 5.20608 125.766 5.018C125.769 4.82993 125.736 4.64301 125.667 4.46792Z" fill="#98FACB" stroke="#98FACB" stroke-width="0.958173" stroke-miterlimit="10"/>
<path d="M122.071 0.908845C121.967 0.645132 121.787 0.418053 121.553 0.256323C121.32 0.094594 121.044 0.00547763 120.759 0.000244474C120.475 -0.00498868 120.195 0.0738964 119.956 0.226923C119.717 0.37995 119.528 0.600246 119.415 0.859954C119.301 1.11966 119.267 1.40712 119.318 1.68597C119.368 1.96482 119.5 2.22254 119.697 2.42654C119.895 2.63054 120.148 2.77167 120.426 2.83206C120.704 2.89246 120.994 2.86941 121.258 2.76584C121.613 2.62695 121.898 2.35328 122.051 2.00503C122.203 1.65678 122.21 1.26247 122.071 0.908845Z" fill="#98FACB" stroke="#98FACB" stroke-width="0.958173" stroke-miterlimit="10"/>
<path d="M111.464 27.317C112.428 27.5218 113.428 27.476 114.368 27.1842C117.571 26.3407 120.484 24.6458 122.795 22.2808C125.105 19.9157 126.728 16.9694 127.488 13.7568C127.744 12.7814 127.803 11.7651 127.661 10.7669C127.524 10.0142 127.064 9.18735 126.298 9.12526C125.981 9.11938 125.668 9.19519 125.389 9.34534C123.701 10.1279 122.464 11.6088 121.284 13.0435C117.466 17.6885 113.627 22.364 110.682 27.6021" fill="#98FACB"/>
<path d="M111.269 28.0099C113.066 28.4265 114.946 27.8723 116.622 27.2178C118.178 26.6127 119.645 25.8011 120.984 24.8049C123.678 22.8105 125.803 20.1499 127.148 17.0863C127.87 15.5171 128.31 13.8344 128.45 12.1141C128.526 10.728 128.154 8.70138 126.487 8.4319C124.882 8.17267 123.158 9.86402 122.166 10.9164C120.772 12.3949 119.529 14.0359 118.254 15.6155C115.207 19.2603 112.465 23.1478 110.055 27.2391C109.966 27.4033 109.945 27.5954 109.996 27.775C110.046 27.9546 110.165 28.1076 110.326 28.2017C110.488 28.2958 110.68 28.3237 110.862 28.2795C111.044 28.2353 111.201 28.1224 111.301 27.9647C113.104 24.8435 115.133 21.8572 117.37 19.0292C118.497 17.5792 119.656 16.1538 120.82 14.7334C121.771 13.4748 122.815 12.2889 123.943 11.1857C124.493 10.6308 125.155 10.1985 125.885 9.91722C126.865 9.62774 127.007 10.994 127.019 11.6631C126.973 13.1891 126.631 14.6918 126.013 16.0886C124.936 18.7326 123.233 21.0777 121.05 22.9238C119.812 23.9773 118.433 24.8539 116.952 25.5283C115.4 26.2372 113.366 27.021 111.653 26.6237C110.749 26.4142 110.364 27.7999 111.269 28.0099L111.269 28.0099Z" fill="#98FACB"/>
<path d="M109.4 27.0006C107.61 26.4452 106.377 24.8408 105.363 23.27C103.531 20.6042 102.221 17.6185 101.5 14.469C100.787 11.2931 101.252 7.96747 102.809 5.10668C103.274 4.21389 103.997 3.48041 104.885 3.00085C105.332 2.77117 105.838 2.68192 106.337 2.74489C106.836 2.80786 107.304 3.02008 107.68 3.35356C108.214 4.04347 108.481 4.90157 108.434 5.77159C108.762 12.8418 106.464 20.2088 108.917 26.8509" fill="#98FACB"/>
<path d="M109.591 26.3068C108.037 25.7767 106.996 24.4398 106.124 23.1208C105.179 21.7057 104.346 20.2193 103.632 18.6753C102.229 15.5986 101.473 12.1031 102.185 8.74842C102.462 7.14591 103.159 5.64487 104.206 4.39785C105.364 3.16171 107.314 3.05103 107.645 5.01097C107.835 6.71238 107.836 8.42956 107.647 10.1311C107.539 11.8957 107.363 13.6552 107.23 15.4179C106.935 19.3225 106.88 23.305 108.22 27.0413C108.531 27.9062 109.925 27.5334 109.612 26.6592C108.171 22.6453 108.422 18.3878 108.77 14.2115C108.941 12.1504 109.137 10.0891 109.179 8.02022C109.21 6.45549 109.422 4.31978 108.341 3.02144C107.292 1.76121 105.389 1.77474 104.086 2.62354C102.622 3.5774 101.75 5.31089 101.196 6.91068C99.947 10.521 100.431 14.5164 101.799 18.0167C102.617 20.0623 103.649 22.0163 104.879 23.8464C105.974 25.5033 107.27 27.0318 109.207 27.693C110.088 27.9933 110.466 26.6053 109.591 26.3068V26.3068Z" fill="#98FACB"/>
<path d="M109.938 27.9913C113.755 27.7969 117.104 24.9758 118.692 21.511C120.28 18.0462 120.332 14.0546 119.697 10.2987C119.617 9.33451 119.244 8.41752 118.627 7.6702C117.949 6.98656 116.682 6.80161 116.06 7.53645C115.394 6.23186 114.264 4.70175 112.843 5.07259C112.357 5.2385 111.921 5.52648 111.579 5.90877C108.851 8.66267 106.952 12.1236 106.099 15.8986C105.526 17.9832 105.423 20.1682 105.796 22.2974C105.989 23.3593 106.394 24.3716 106.989 25.2738C107.583 26.176 108.354 26.9497 109.255 27.5486" fill="#98FACB"/>
<path d="M109.936 28.71C115.38 28.3527 119.3 23.7301 120.382 18.6616C120.952 15.7501 120.94 12.7549 120.345 9.84819C120.113 8.62899 119.65 7.30827 118.485 6.68293C118.025 6.41453 117.489 6.30304 116.959 6.36534C116.429 6.42765 115.934 6.66036 115.549 7.02821L116.682 7.17365C116.198 6.04245 115.347 5.1062 114.264 4.51534C113.045 3.99014 111.957 4.55211 111.067 5.4005C109.017 7.4283 107.426 9.87022 106.402 12.5619C104.394 17.6008 103.617 24.7959 108.89 28.1692C109.673 28.6705 110.397 27.4267 109.618 26.9279C105.276 24.15 105.969 18.1645 107.41 13.9772C108.159 11.7442 109.302 9.66225 110.785 7.8293C111.343 7.15298 112.307 5.74623 113.281 5.73493C114.313 5.72298 115.036 7.13732 115.436 7.8992C115.493 7.99312 115.57 8.07305 115.662 8.13301C115.754 8.19296 115.858 8.23138 115.967 8.24538C116.076 8.25937 116.187 8.24858 116.291 8.21381C116.396 8.17905 116.491 8.12121 116.569 8.04464C117.429 7.17921 118.444 8.43435 118.702 9.20082C119.027 10.3185 119.218 11.4706 119.271 12.6331C119.513 15.0038 119.292 17.3987 118.622 19.6861C117.414 23.5326 114.15 26.9958 109.936 27.2724C109.015 27.333 109.008 28.7709 109.936 28.71L109.936 28.71Z" fill="#98FACB"/>
<path d="M109.209 6.92611C107.995 9.0604 107.278 11.4392 107.112 13.8867C106.945 16.3341 107.333 18.7876 108.246 21.0655C108.457 21.5816 109.308 21.356 109.095 20.8324C108.215 18.6673 107.836 16.3322 107.987 14.0011C108.139 11.67 108.816 9.40286 109.969 7.36868C110.023 7.26856 110.036 7.15136 110.005 7.04181C109.974 6.93226 109.902 6.83894 109.803 6.78152C109.705 6.72411 109.588 6.70709 109.477 6.73407C109.366 6.76104 109.27 6.8299 109.209 6.92611H109.209Z" fill="#FFF9F0"/>
<path d="M121.034 12.392C119.754 16.8494 116.873 20.682 112.94 23.1598C112.462 23.4595 112.903 24.2186 113.385 23.9169C117.513 21.3202 120.538 17.301 121.883 12.6251C121.909 12.5144 121.892 12.3979 121.834 12.3C121.776 12.202 121.682 12.1304 121.572 12.1002C121.462 12.0699 121.344 12.0835 121.244 12.1379C121.144 12.1923 121.068 12.2834 121.034 12.392H121.034Z" fill="#FFF9F0"/>
<path d="M111.575 19.5442L111.94 14.6378C111.982 14.0749 111.102 14.0775 111.06 14.6378L110.695 19.5442C110.653 20.1071 111.533 20.1045 111.575 19.5442Z" fill="#FFF9F0"/>
<path d="M113.014 19.3985C113.849 18.4362 114.569 17.3813 115.16 16.2545C115.217 16.1535 115.232 16.0348 115.202 15.923C115.173 15.8112 115.101 15.7151 115.002 15.6547C114.901 15.5972 114.782 15.5815 114.669 15.6109C114.557 15.6403 114.46 15.7125 114.4 15.8119C113.848 16.8745 113.174 17.8699 112.392 18.7785C112.312 18.8621 112.268 18.9731 112.268 19.0885C112.268 19.2039 112.312 19.3149 112.392 19.3985C112.475 19.4798 112.587 19.5253 112.703 19.5253C112.82 19.5253 112.931 19.4798 113.014 19.3985H113.014Z" fill="#FFF9F0"/>
<path d="M109.231 29.5143C110.967 28.6939 112.729 27.9296 114.516 27.2214C114.402 26.6998 114.126 26.2273 113.727 25.8711C113.529 25.744 113.307 25.6582 113.075 25.6189C112.843 25.5796 112.606 25.5877 112.377 25.6427C111.92 25.755 111.481 25.9291 111.072 26.16C110.973 25.6327 110.731 25.1424 110.372 24.7421C110.014 24.3418 109.552 24.0465 109.038 23.8883C108.523 23.73 107.975 23.7147 107.453 23.844C106.93 23.9733 106.453 24.2423 106.072 24.622C107.07 26.2366 107.946 27.9233 108.691 29.6681" fill="#0E6B75"/>
<path d="M104.45 37.6103C104.764 33.5973 102.679 29.7776 100.196 26.6025C99.1321 25.2429 97.8861 23.8856 96.2206 23.4185C95.8577 23.3168 95.3882 23.2987 95.1877 23.6168C95.1126 23.7613 95.0762 23.9227 95.0821 24.0853C95.0317 27.2821 95.9225 30.4236 97.6444 33.1215C98.0562 33.8384 98.5603 34.4984 99.144 35.0849C100.426 36.3113 102.169 36.9132 103.853 37.4805" fill="#558075"/>
<path d="M103.12 42.6889C103.694 41.6267 104.601 40.7809 105.703 40.2806C106.799 39.7869 107.97 39.4776 109.168 39.3652C110.218 39.2386 111.388 39.2236 112.207 39.8903C112.072 40.3952 111.837 40.8679 111.515 41.2802C110.556 42.5741 109.132 43.4488 107.541 43.7219C105.95 43.9949 104.315 43.6452 102.977 42.7456" fill="#558075"/>
<path d="M108.836 27.8725C103.425 36.6984 100.176 46.6702 99.3522 56.9802C99.12 59.9249 99.0901 62.8821 99.2627 65.8309C99.2971 66.4264 100.232 66.4304 100.197 65.8309C99.4169 52.6656 102.714 39.5793 109.643 28.3423C109.958 27.8301 109.15 27.3619 108.836 27.8725V27.8725Z" fill="#0E6B75"/>
<path d="M68.0411 23.5911C72.1784 29.8092 75.8197 36.3411 78.9314 43.1267C79.1969 43.7058 80.0541 43.2029 79.7898 42.6267C76.6781 35.8411 73.0368 29.3092 68.8996 23.0912C68.5476 22.5622 67.6862 23.0578 68.0411 23.5911Z" fill="#FF976A"/>
<path d="M71.5907 17.2971C73.4883 25.5227 75.7355 33.6563 78.3325 41.6981C78.5277 42.3025 79.4879 42.0441 79.2911 41.4348C76.6963 33.4005 74.449 25.2668 72.5494 17.0338C72.4061 16.4127 71.4474 16.6756 71.5907 17.2971Z" fill="#FF976A"/>
<path d="M67.9559 25.4297C70.5147 25.4297 70.519 21.4674 67.9559 21.4674C65.397 21.4674 65.3928 25.4297 67.9559 25.4297Z" fill="#FF976A"/>
<path d="M71.8797 19.3408C74.4386 19.3408 74.4428 15.3785 71.8797 15.3785C69.3209 15.3785 69.3166 19.3408 71.8797 19.3408Z" fill="#FF976A"/>
<path d="M86.9703 54.7357C91.4141 53.3611 93.6419 48.3138 95.2761 43.9729C96.8739 39.729 97.6725 35.133 96.8561 30.6345C96.5021 28.6838 95.852 26.7055 94.4723 25.2771C93.8487 24.6015 93.0525 24.1074 92.1689 23.8477C91.2853 23.5879 90.3475 23.5723 89.4557 23.8025C87.7405 24.3021 86.8306 26.1667 85.9403 27.595C84.9529 29.1791 84.7967 31.3551 84.2265 33.1312C83.5184 31.2152 82.4976 28.7018 81.1086 27.2006C80.4104 26.4462 79.064 25.6488 77.7753 26.0716C77.1198 26.3286 76.5441 26.7534 76.1062 27.3031C75.6683 27.8528 75.3837 28.508 75.2813 29.2023C74.7646 31.7147 74.88 34.3154 75.6174 36.7724C75.3778 35.9779 73.5018 34.929 72.8344 34.4879C71.7238 33.7543 70.5338 33.1476 69.2869 32.6791C67.3397 31.9476 64.0519 30.9041 62.9453 33.482C61.9597 35.7777 64.4354 38.5843 65.6616 40.4233C67.1556 42.6642 68.834 44.7775 70.6794 46.7414C73.8673 50.1328 77.8756 53.6596 82.534 54.7691C83.989 55.1546 85.5213 55.1431 86.9703 54.7357Z" fill="#EC7C84"/>
<path d="M79.8068 48.2116C76.0546 46.1799 72.7304 43.447 70.0159 40.1623C69.8281 39.969 69.6938 39.7305 69.6261 39.4702C69.5235 38.8714 70.1684 38.3549 70.778 38.357C71.3888 38.4185 71.9649 38.6685 72.4261 39.0722C75.6058 41.3864 77.9851 44.7233 79.8423 48.1826" fill="#FFF9F0"/>
<path d="M83.9372 45.5064C81.8592 42.5631 79.9718 38.849 79.3816 35.2989C79.2613 34.8822 79.3087 34.4352 79.5138 34.0528C79.6869 33.8576 79.9216 33.7268 80.1792 33.682C80.4368 33.6372 80.7021 33.6811 80.9313 33.8064C81.3839 34.0706 81.7565 34.4516 82.0099 34.9092C83.9974 38.0005 84.7285 41.73 84.0546 45.3392" fill="#FFF9F0"/>
<path d="M89.4613 44.651C88.3427 41.6452 87.4894 38.1677 87.6529 34.966C87.7175 33.7051 88.1029 32.1799 89.327 31.8541C89.8178 31.7763 90.3206 31.8678 90.7522 32.1133C91.1838 32.3589 91.5184 32.7438 91.7007 33.2045C92.04 34.1385 92.1217 35.1461 91.9375 36.1223C91.6056 38.9767 90.8538 41.7669 89.7061 44.4031" fill="#FFF9F0"/>
<path d="M87.3913 52.662C87.3913 52.662 92.4061 46.1273 94.5712 46.2858C94.5712 46.2858 92.4894 53.3559 86.8766 54.7296C85.174 55.1111 83.4101 55.1342 81.698 54.7975C79.9858 54.4607 78.3631 53.7715 76.9336 52.774C76.9336 52.774 85.2262 50.9182 87.3913 52.662Z" fill="#558075"/>
<path d="M87.0832 53.5651C88.2842 56.7256 89.4852 59.8862 90.6862 63.0467C90.8971 63.6016 91.8007 63.361 91.5872 62.7992C90.3862 59.6387 89.1852 56.4781 87.9841 53.3176C87.7733 52.7626 86.8697 53.0032 87.0832 53.5651Z" fill="#0E6B75"/>
<path d="M90.0447 58.5685C90.4119 57.0203 90.9488 55.517 91.6456 54.0857C92.3522 52.6455 93.5153 51.4775 94.9551 50.7622C95.2028 51.8841 95.2376 53.0422 95.0579 54.1768C94.513 56.7739 92.1249 58.5112 89.916 59.9931" fill="#0E6B75"/>
<path d="M74.6804 55.2818C74.5433 54.7595 74.3014 54.2702 73.9692 53.8436C73.6371 53.4169 73.2216 53.0618 72.7479 52.7996C71.7984 52.2812 70.7823 51.8944 69.7278 51.6498C69.3254 51.5371 68.691 51.6058 68.7455 52.0188C68.7739 52.1388 68.8365 52.2481 68.9259 52.3334C69.5828 53.1549 70.3357 53.8954 71.1686 54.5393C72.0115 55.1856 73.0585 55.5105 74.1207 55.4553" fill="#0E6B75"/>
<path d="M176 213.478C158.829 161.12 105.124 166.271 105.124 166.271L57.2183 166.532C13.2531 172.591 0 213.448 0 213.448L176 213.478Z" fill="#9FD2BD"/>
<path d="M12.0187 191.674C19.34 191.861 27.0826 192.071 33.7465 195.463C37.1937 197.217 39.9861 199.87 42.8805 202.379C45.6316 204.791 48.6356 206.9 51.8405 208.671C55.4569 210.64 59.3072 212.149 63.3011 213.162C63.4122 213.188 63.5291 213.171 63.6274 213.113C63.7257 213.055 63.7975 212.961 63.8279 212.852C63.8582 212.742 63.8447 212.625 63.79 212.525C63.7354 212.425 63.644 212.35 63.5351 212.316C56.1201 210.409 49.2584 206.792 43.5028 201.759C40.6966 199.326 37.9809 196.739 34.6836 194.964C31.4706 193.306 28.0001 192.2 24.418 191.692C20.3094 191.12 16.1672 190.821 12.0187 190.798C11.9047 190.802 11.7966 190.849 11.7173 190.931C11.6381 191.013 11.5938 191.122 11.5938 191.236C11.5938 191.35 11.6381 191.459 11.7173 191.541C11.7966 191.623 11.9047 191.67 12.0187 191.674V191.674Z" fill="#FFF9F0"/>
<path d="M33.1729 174.582C39.7829 185.097 50.0157 194.7 63.2431 194.595C66.7834 194.588 70.2724 193.751 73.4277 192.151C73.9311 191.892 73.4865 191.135 72.9835 191.394C67.4198 194.255 60.8447 194.298 54.9564 192.431C49.1208 190.581 44.1104 186.794 40.0405 182.307C37.7688 179.768 35.7251 177.035 33.9329 174.139C33.6329 173.662 32.8711 174.102 33.1729 174.582Z" fill="#FFF9F0"/>
<path d="M100.948 185.039C107.765 184.772 114.214 187.609 121.005 187.688C123.978 187.8 126.929 187.137 129.567 185.765C132.147 184.334 134.205 182.157 136.039 179.888C138.406 176.96 140.625 173.907 142.903 170.91C143.245 170.46 142.481 170.022 142.143 170.467C140.131 173.115 138.146 175.786 136.099 178.408C134.32 180.686 132.39 182.947 129.933 184.524C124.52 187.996 117.871 186.784 111.962 185.544C108.333 184.782 104.678 184.016 100.948 184.162C100.383 184.185 100.381 185.062 100.948 185.039H100.948Z" fill="#FFF9F0"/>
<path d="M90.9903 193.118C105.63 197.205 118.914 205.099 129.481 215.991C129.876 216.397 130.497 215.777 130.103 215.371C121.817 206.861 111.871 200.131 100.876 195.596C97.7276 194.299 94.5046 193.19 91.2242 192.273C91.1132 192.246 90.9962 192.264 90.898 192.322C90.7997 192.38 90.7278 192.473 90.6975 192.583C90.6671 192.693 90.6807 192.81 90.7353 192.909C90.79 193.009 90.8814 193.084 90.9903 193.118H90.9903Z" fill="#FFF9F0"/>
<path d="M162.738 183.728C159.656 184.43 156.77 185.81 154.293 187.767C151.815 189.724 149.809 192.208 148.421 195.038C147.075 197.87 146.404 200.974 146.46 204.107C146.517 207.24 147.299 210.318 148.747 213.1C150.389 216.353 152.868 219.114 155.93 221.102C156.407 221.409 156.849 220.65 156.374 220.345C153.799 218.641 151.647 216.373 150.084 213.715C148.521 211.057 147.587 208.079 147.354 205.007C147.172 202.041 147.674 199.074 148.821 196.331C149.967 193.588 151.729 191.143 153.97 189.183C156.518 186.894 159.62 185.306 162.972 184.574C163.525 184.455 163.291 183.609 162.738 183.728V183.728Z" fill="#FFF9F0"/>
<path d="M3.48991 199.914C12.3231 202.856 20.167 208.175 26.1534 215.284C27.8687 217.326 29.4147 219.504 30.7762 221.795C30.8371 221.892 30.9332 221.96 31.0441 221.987C31.1551 222.014 31.2722 221.997 31.3708 221.94C31.4694 221.883 31.5417 221.789 31.5725 221.68C31.6034 221.57 31.5903 221.453 31.5361 221.353C26.6429 213.178 19.5567 206.527 11.0753 202.147C8.70956 200.931 6.25151 199.901 3.72387 199.069C3.18502 198.891 2.95402 199.737 3.48991 199.914Z" fill="#FFF9F0"/>
<path d="M62.3147 124.385C62.3147 124.385 60.8237 166.671 58.2113 169.04C57.6198 169.576 50.9036 170.741 48.6172 171.88C49.6099 173.671 50.8108 175.338 52.195 176.849C66.6771 193.119 80.3639 194.961 90.1973 204.759L120.636 169.033L106.347 167.894L100.031 121.557L62.3147 124.385Z" fill="#FFB899"/>
<path d="M61.3223 130.578L101.28 129.644C101.28 129.644 94.4124 149.551 82.2378 149.551C67.4819 149.551 61.3223 130.578 61.3223 130.578Z" fill="#EF9880"/>
<path d="M119.692 92.8847C119.692 92.8847 123.647 73.4906 119.402 62.189C118.707 60.3393 117.993 58.3794 117.166 56.3954H44.1041C42.9719 58.4184 42.2417 60.6399 41.9537 62.9382C41.5159 69.9575 42.5171 80.3539 42.5171 80.3539C42.5171 80.3539 41.6882 93.0536 42.3054 94.5009C42.9221 95.9483 33.0663 92.8866 34.7882 102.584C35.8399 108.507 38.3812 110.832 45.0148 110.303C45.0148 110.303 55.6287 140.553 78.946 141.212C102.624 141.882 116.344 110.824 116.344 110.824C116.344 110.824 126.706 109.574 126.567 100.718C126.155 92.8989 119.692 92.8847 119.692 92.8847Z" fill="#FFB899"/>
<path d="M42.4844 56.3954C35.4212 75.8777 41.8164 95.2747 41.8164 95.2747C61.0873 81.83 77.8735 58.1597 79.1209 59.0392C104.063 83.2537 105.275 85.7072 120.015 93.0976C121.175 89.2993 123.303 71.9993 118.13 56.3954H42.4844Z" fill="#042419"/>
<path d="M78.3679 110.433L83.4853 110.671C84.7002 110.7 80.9263 86.4102 80.9263 86.4102C80.9263 86.4102 77.185 110.405 78.3679 110.433Z" fill="#F78C80"/>
<path d="M42.362 98.7867C42.362 98.7867 44.2733 108.601 44.1098 107.037C43.8393 104.45 38.5638 106.145 38.3351 102.256C38.1065 98.3661 42.362 98.7867 42.362 98.7867Z" fill="#F68C80"/>
<path d="M118.676 101.513L119.678 96.3181C119.678 96.3181 123.338 96.8025 122.589 100.376C122.44 101.314 122.059 102.2 121.48 102.953C121.236 103.212 120.913 103.384 120.562 103.444C120.211 103.504 119.85 103.448 119.533 103.286C119.217 103.123 118.962 102.862 118.807 102.542C118.652 102.222 118.607 101.861 118.676 101.513Z" fill="#F68C80"/>
<path d="M62.4556 106.078C63.5525 106.486 64.5033 107.209 65.1878 108.155C65.8722 109.102 66.2597 110.229 66.3011 111.395C66.3425 112.561 66.036 113.713 65.4203 114.705C64.8047 115.697 63.9075 116.485 62.8423 116.97C61.7771 117.454 60.5917 117.613 59.436 117.426C58.2803 117.239 57.2062 116.714 56.3495 115.919C55.4928 115.124 54.892 114.094 54.6231 112.958C54.3542 111.823 54.4292 110.633 54.8387 109.541C55.1106 108.815 55.5233 108.15 56.0533 107.583C56.5832 107.016 57.22 106.559 57.9273 106.237C58.6346 105.916 59.3986 105.736 60.1755 105.709C60.9525 105.681 61.7273 105.807 62.4556 106.078Z" fill="#FFAC91"/>
<path d="M102.932 105.857C104.029 106.265 104.98 106.988 105.664 107.935C106.349 108.881 106.736 110.009 106.778 111.175C106.819 112.34 106.512 113.492 105.897 114.485C105.281 115.477 104.384 116.265 103.319 116.749C102.254 117.234 101.068 117.392 99.9125 117.205C98.7568 117.018 97.6827 116.494 96.826 115.699C95.9693 114.904 95.3685 113.873 95.0996 112.738C94.8307 111.602 94.9058 110.413 95.3153 109.32C95.5872 108.594 95.9999 107.929 96.5299 107.363C97.0598 106.796 97.6966 106.339 98.4038 106.017C99.1111 105.695 99.875 105.516 100.652 105.488C101.429 105.461 102.204 105.586 102.932 105.857Z" fill="#FFAC91"/>
<path d="M61.2242 89.256C62.7238 88.325 64.4246 87.7634 66.1855 87.6178C67.9464 87.4723 69.7168 87.747 71.3499 88.4191C71.9683 88.6809 72.5071 87.7747 71.8829 87.5105C70.0862 86.7484 68.1322 86.4266 66.1848 86.5722C64.2375 86.7178 62.3536 87.3266 60.6911 88.3475C60.1162 88.7058 60.6457 89.6166 61.2242 89.256Z" fill="#042419"/>
<path d="M100.596 88.3474C98.9336 87.3265 97.0497 86.7178 95.1024 86.5722C93.155 86.4265 91.2011 86.7483 89.4043 87.5105C88.7808 87.7744 89.3183 88.6811 89.9373 88.4191C91.5705 87.7469 93.3408 87.4723 95.1017 87.6178C96.8626 87.7634 98.5634 88.3249 100.063 89.256C100.641 89.6162 101.172 88.7061 100.596 88.3474Z" fill="#042419"/>
<path d="M60.2363 102.428L62.2655 99.6289C62.2655 99.6289 65.2311 101.651 68.0406 101.806C70.8502 101.962 72.411 99.1623 72.411 99.1623" stroke="#042419" stroke-width="2.46946" stroke-miterlimit="10"/>
<path d="M62.5801 103.361L64.141 100.562" stroke="#042419" stroke-width="2.46946" stroke-miterlimit="10"/>
<path d="M87.543 102.428L89.5721 99.6285C89.5721 99.6285 92.5377 101.65 95.3473 101.806C98.1568 101.961 99.7177 99.1619 99.7177 99.1619" stroke="#042419" stroke-width="2.46946" stroke-miterlimit="10"/>
<path d="M89.8867 103.361L91.4476 100.562" stroke="#042419" stroke-width="2.46946" stroke-miterlimit="10"/>
<path d="M73.4102 117.215C73.4102 117.215 74.3563 123.302 81.2327 123.302C87.6229 123.302 88.7246 116.997 88.7246 116.997L73.4102 117.215Z" fill="#F56656"/>
<path d="M88.7246 116.997C88.7246 116.997 85.8953 118.839 81.0124 119.13C76.0237 119.428 73.4102 117.215 73.4102 117.215C73.4102 117.215 78.3331 115.181 81.2987 116.892C84.5765 114.715 88.7246 116.997 88.7246 116.997Z" fill="#E84A4A"/>
<path d="M37.5299 75.2528C39.4848 75.2528 39.488 72.2257 37.5299 72.2257C35.575 72.2257 35.5717 75.2528 37.5299 75.2528Z" fill="#EC7C84"/>
<path d="M49.3014 65.9622C51.2563 65.9622 51.2595 62.9351 49.3014 62.9351C47.3465 62.9351 47.3432 65.9622 49.3014 65.9622Z" fill="#EC7C84"/>
<path d="M30.4522 74.021C31.0531 74.021 31.6405 73.8434 32.1401 73.5108C32.6398 73.1782 33.0292 72.7054 33.2591 72.1523C33.4891 71.5992 33.5492 70.9905 33.432 70.4033C33.3148 69.8161 33.0254 69.2768 32.6005 68.8534C32.1756 68.4301 31.6343 68.1418 31.0449 68.025C30.4556 67.9082 29.8447 67.9681 29.2896 68.1972C28.7344 68.4263 28.2599 68.8143 27.9261 69.3121C27.5922 69.8099 27.4141 70.3952 27.4141 70.9939C27.423 71.794 27.7459 72.5588 28.3137 73.1246C28.8816 73.6904 29.6492 74.0121 30.4522 74.021Z" fill="#EC7C84"/>
<path d="M36.0303 60.99C36.6312 60.99 37.2186 60.8124 37.7183 60.4798C38.2179 60.1472 38.6073 59.6744 38.8372 59.1213C39.0672 58.5682 39.1273 57.9595 39.0101 57.3723C38.8929 56.7851 38.6035 56.2458 38.1786 55.8224C37.7538 55.3991 37.2124 55.1108 36.6231 54.994C36.0337 54.8772 35.4228 54.9371 34.8677 55.1662C34.3125 55.3953 33.838 55.7833 33.5042 56.2811C33.1704 56.7789 32.9922 57.3642 32.9922 57.9629C33.0011 58.763 33.324 59.5278 33.8919 60.0936C34.4597 60.6594 35.2273 60.9811 36.0303 60.99Z" fill="#EC7C84"/>
<path d="M40.6158 69.174C42.5707 69.174 42.574 66.1469 40.6158 66.1469C38.6609 66.1469 38.6577 69.174 40.6158 69.174Z" fill="#EC7C84"/>
<path d="M32.985 65.2814C34.9399 65.2814 34.9431 62.2543 32.985 62.2543C31.0301 62.2543 31.0268 65.2814 32.985 65.2814Z" fill="#EC7C84"/>
<path d="M30.7046 71.7606C36.2787 67.4356 41.7018 62.8603 47.5045 58.8375C50.3976 56.8317 53.9738 54.3253 57.6922 54.6C59.4054 54.7984 61.0155 55.5182 62.3033 56.6614C62.6785 56.9674 63.2189 56.4351 62.8403 56.1262C61.6194 55.0537 60.1458 54.3067 58.5569 53.9548C56.9866 53.7044 55.3778 53.8683 53.8908 54.43C51.9211 55.1786 50.0514 56.166 48.3239 57.3699C45.8646 58.9903 43.5236 60.7866 41.1973 62.5888C37.5058 65.4488 33.8569 68.3629 30.1675 71.2255C29.7823 71.5244 30.3232 72.0565 30.7046 71.7606H30.7046Z" fill="#EC7C84"/>
<path d="M37.7699 73.3582C37.571 70.4253 38.1168 67.4897 39.3568 64.8223C39.5618 64.3835 38.9073 63.9987 38.701 64.4403C37.3942 67.2242 36.8128 70.2913 37.0104 73.3582C37.0423 73.8417 37.8021 73.8453 37.7699 73.3582Z" fill="#EC7C84"/>
<path d="M39.8391 63.1345C37.665 63.5402 35.4349 63.5491 33.2576 63.1608C32.7796 63.0754 32.5746 63.8046 33.0557 63.8906C35.3664 64.3049 37.7335 64.2959 40.041 63.8642C40.5208 63.7746 40.3176 63.0451 39.8391 63.1345H39.8391Z" fill="#EC7C84"/>
<path d="M37.1762 58.8871C40.434 60.0734 43.9952 60.1464 47.2993 59.0948C47.763 58.9468 47.5648 58.2159 47.0974 58.3651C43.9249 59.377 40.5041 59.3039 37.3781 58.1573C36.9186 57.9891 36.7204 58.7203 37.1762 58.8871Z" fill="#EC7C84"/>
<path d="M49.7841 64.0989C50.0013 61.0233 51.0629 58.0663 52.853 55.5513C53.1358 55.1529 52.4774 54.7744 52.1972 55.1694C50.3384 57.8 49.2409 60.889 49.0245 64.0989C48.9911 64.585 49.7508 64.5829 49.784 64.0989H49.7841Z" fill="#EC7C84"/>
<path d="M120.897 75.2538C122.852 75.2538 122.855 72.2267 120.897 72.2267C118.942 72.2267 118.939 75.2538 120.897 75.2538Z" fill="#EC7C84"/>
<path d="M109.116 65.9625C111.071 65.9625 111.074 62.9354 109.116 62.9354C107.161 62.9354 107.158 65.9625 109.116 65.9625Z" fill="#EC7C84"/>
<path d="M127.968 74.0206C128.569 74.0206 129.156 73.8431 129.656 73.5105C130.155 73.1778 130.545 72.7051 130.775 72.1519C131.005 71.5988 131.065 70.9902 130.948 70.403C130.83 69.8158 130.541 69.2764 130.116 68.853C129.691 68.4297 129.15 68.1414 128.561 68.0246C127.971 67.9078 127.36 67.9677 126.805 68.1969C126.25 68.426 125.776 68.814 125.442 69.3118C125.108 69.8096 124.93 70.3948 124.93 70.9935C124.939 71.7936 125.262 72.5584 125.829 73.1242C126.397 73.69 127.165 74.0118 127.968 74.0206Z" fill="#EC7C84"/>
<path d="M122.386 60.991C122.987 60.991 123.574 60.8135 124.074 60.4809C124.573 60.1483 124.963 59.6755 125.193 59.1224C125.423 58.5692 125.483 57.9606 125.366 57.3734C125.248 56.7862 124.959 56.2468 124.534 55.8235C124.109 55.4001 123.568 55.1118 122.979 54.995C122.389 54.8782 121.778 54.9382 121.223 55.1673C120.668 55.3964 120.194 55.7844 119.86 56.2822C119.526 56.78 119.348 57.3653 119.348 57.964C119.357 58.764 119.679 59.5289 120.247 60.0946C120.815 60.6604 121.583 60.9822 122.386 60.991Z" fill="#EC7C84"/>
<path d="M117.807 69.1746C119.762 69.1746 119.765 66.1475 117.807 66.1475C115.852 66.1475 115.849 69.1746 117.807 69.1746Z" fill="#EC7C84"/>
<path d="M125.434 65.2817C127.389 65.2817 127.392 62.2546 125.434 62.2546C123.479 62.2546 123.476 65.2817 125.434 65.2817Z" fill="#EC7C84"/>
<path d="M128.247 71.2263C122.479 66.7507 116.875 61.9843 110.835 57.8699C107.865 55.8467 104.201 53.446 100.415 53.8732C98.6163 54.1412 96.9344 54.9242 95.574 56.127C95.1956 56.4357 95.7357 56.9683 96.1111 56.6621C97.236 55.6048 98.6537 54.9086 100.181 54.6638C101.707 54.4189 103.273 54.6368 104.674 55.2891C106.61 56.088 108.447 57.1048 110.151 58.3198C112.597 59.9647 114.935 61.7666 117.26 63.575C120.753 66.2919 124.214 69.0487 127.71 71.7614C128.091 72.0571 128.632 71.5253 128.247 71.2262L128.247 71.2263Z" fill="#EC7C84"/>
<path d="M121.409 73.3591C121.607 70.2922 121.025 67.2251 119.719 64.4412C119.512 64.0001 118.858 64.384 119.063 64.8232C120.303 67.4906 120.849 70.4262 120.65 73.3591C120.618 73.8454 121.377 73.8434 121.409 73.3591Z" fill="#EC7C84"/>
<path d="M118.372 63.8652C120.679 64.2969 123.046 64.3058 125.357 63.8915C125.838 63.8057 125.634 63.0762 125.155 63.1618C122.978 63.5501 120.748 63.5411 118.574 63.1354C118.096 63.0462 117.891 63.7754 118.372 63.8652H118.372Z" fill="#EC7C84"/>
<path d="M121.039 58.1578C117.913 59.3044 114.492 59.3775 111.319 58.3656C110.853 58.2166 110.653 58.9471 111.117 59.0953C114.422 60.1469 117.983 60.0739 121.241 58.8876C121.696 58.721 121.499 57.9893 121.039 58.1578Z" fill="#EC7C84"/>
<path d="M109.388 64.0998C109.171 60.8899 108.074 57.8009 106.215 55.1703C105.935 54.7757 105.276 55.1534 105.559 55.5522C107.35 58.0672 108.411 61.0241 108.628 64.0998C108.662 64.583 109.421 64.5867 109.388 64.0998V64.0998Z" fill="#EC7C84"/>
</g>
<defs>
<clipPath id="clip0_500_846">
<rect width="176" height="213" fill="white"/>
</clipPath>
</defs>
</svg>
