<?xml version="1.0" standalone="no"?>
<!DOCTYPE svg PUBLIC "-//W3C//DTD SVG 20010904//EN"
 "http://www.w3.org/TR/2001/REC-SVG-20010904/DTD/svg10.dtd">
<svg version="1.0" xmlns="http://www.w3.org/2000/svg"
 width="700.000000pt" height="700.000000pt" viewBox="0 0 700.000000 700.000000"
 preserveAspectRatio="xMidYMid meet">
<metadata>
Created by potrace 1.14, written by Peter Selinger 2001-2017
</metadata>
<g transform="translate(0.000000,700.000000) scale(0.100000,-0.100000)"
fill="#000000" stroke="none">
<path d="M3452 6296 c-261 -394 -387 -932 -368 -1571 9 -327 56 -765 81 -765
31 0 144 42 187 69 66 42 98 94 108 178 5 37 18 284 30 548 27 619 37 788 39
680 2 -107 39 -1021 47 -1160 4 -69 13 -125 23 -150 33 -75 129 -138 242 -159
l37 -6 11 76 c39 261 54 485 55 784 1 312 -6 404 -45 630 -55 317 -163 604
-321 847 -33 51 -61 93 -62 93 -1 0 -30 -42 -64 -94z"/>
<path d="M1195 4549 c-167 -20 -446 -97 -550 -151 l-28 -15 74 -44 c41 -23
139 -92 219 -153 422 -321 481 -360 657 -430 163 -65 302 -87 678 -106 340
-18 498 -46 642 -115 40 -19 73 -29 73 -23 0 21 -49 95 -74 111 -38 25 -399
166 -1413 552 -128 49 -231 90 -230 92 2 1 374 -121 828 -272 453 -151 836
-275 852 -275 20 0 32 8 47 33 36 59 31 67 -112 180 -452 355 -805 534 -1193
602 -111 20 -362 27 -470 14z"/>
<path d="M5455 4519 c-189 -19 -377 -69 -568 -152 -263 -114 -490 -262 -860
-559 -18 -14 -20 -21 -11 -54 5 -21 21 -46 35 -57 l27 -19 828 276 c455 151
829 274 831 272 2 -2 -83 -36 -189 -76 -534 -201 -1321 -506 -1378 -533 -45
-22 -75 -45 -97 -75 -51 -68 -43 -76 40 -37 148 69 317 97 677 115 231 11 344
23 451 45 220 46 419 153 699 374 157 124 313 236 382 274 32 18 58 35 58 38
0 9 -174 74 -278 105 -193 56 -461 82 -647 63z"/>
<path d="M3265 3873 c-137 -70 -204 -199 -175 -339 15 -71 69 -224 79 -224 5
0 16 18 26 40 25 56 96 124 163 157 50 24 68 28 147 28 76 0 99 -4 147 -27 67
-31 149 -105 185 -166 14 -23 27 -41 29 -39 2 2 20 48 40 103 47 131 54 217
24 296 -26 71 -90 137 -165 172 -70 34 -79 33 -60 -4 24 -45 19 -103 -10 -139
-31 -37 -77 -52 -158 -54 -87 -2 -132 9 -172 45 -31 26 -35 36 -35 78 0 27 4
60 10 74 13 34 -8 34 -75 -1z"/>
<path d="M3463 3450 c-182 -37 -276 -213 -196 -369 101 -198 399 -197 500 2
54 107 21 242 -76 312 -66 48 -155 69 -228 55z"/>
<path d="M2847 3329 c-216 -32 -442 -157 -655 -363 -186 -179 -333 -371 -691
-905 -394 -584 -494 -716 -720 -942 -80 -81 -183 -174 -228 -207 l-82 -60 72
-7 c86 -8 348 8 502 31 61 8 169 31 241 49 417 107 718 288 1080 649 233 234
418 485 569 774 36 70 37 75 26 115 -37 124 -113 227 -169 227 -29 0 -186
-155 -1018 -1000 -175 -178 -307 -311 -293 -295 14 17 210 241 434 500 566
651 682 782 812 918 131 137 202 227 240 306 23 47 28 69 28 136 l0 80 -45 2
c-25 0 -71 -3 -103 -8z"/>
<path d="M4008 3304 c-5 -4 -8 -37 -8 -73 1 -127 61 -226 270 -446 108 -114
819 -923 1169 -1330 59 -69 -43 29 -274 265 -807 821 -928 940 -957 940 -41 0
-84 -44 -128 -133 -63 -128 -63 -131 20 -277 170 -296 313 -485 539 -711 303
-302 538 -462 854 -578 250 -93 511 -139 837 -147 l215 -6 -67 49 c-103 76
-248 205 -330 296 -184 203 -304 365 -630 849 -294 437 -390 570 -531 738
-259 310 -516 491 -775 544 -91 19 -195 29 -204 20z"/>
<path d="M3095 3041 c-51 -23 -111 -89 -124 -138 -39 -140 17 -309 145 -440
115 -117 193 -139 304 -83 77 39 108 38 184 -5 77 -43 122 -45 193 -10 159 80
275 302 244 470 -19 101 -83 181 -161 200 -24 6 -26 3 -36 -53 -29 -150 -110
-229 -260 -255 -75 -13 -182 1 -243 33 -73 37 -161 167 -161 238 0 35 -13 62
-29 62 -9 0 -34 -9 -56 -19z"/>
<path d="M3190 2241 c0 -5 11 -143 25 -308 41 -478 84 -730 165 -973 35 -104
126 -319 140 -334 12 -12 92 156 150 314 106 289 166 650 185 1105 3 77 8 155
11 174 l5 34 -46 -6 c-97 -14 -179 -67 -214 -140 -17 -36 -24 -95 -46 -417
-27 -395 -42 -521 -44 -378 -2 129 -31 639 -41 707 -11 77 -44 129 -109 170
-72 45 -181 77 -181 52z"/>
</g>
</svg>
