<svg width="91" height="72" viewBox="0 0 91 72" fill="none" xmlns="http://www.w3.org/2000/svg">
<g clip-path="url(#clip0_380_13475)">
<path d="M68.9621 34.3705L78.2017 16.1244C79.0251 14.5642 79.4997 12.7583 79.4997 10.8658C79.4997 4.79827 74.7682 -0.0991211 68.9063 -0.0991211C64.8308 -0.0991211 61.3416 2.25567 59.5411 5.7373L56.8613 10.9236V34.356C56.8474 34.3705 68.9621 34.3705 68.9621 34.3705Z" fill="#2270B1"/>
<path d="M56.8762 34.3271V10.9236L54.1964 5.7373C52.396 2.24123 48.8788 -0.0991211 44.8033 -0.0991211C40.7279 -0.0991211 37.2107 2.25567 35.4102 5.7373L32.7305 10.9236V34.3271H56.8762Z" fill="#43AA49"/>
<path d="M20.643 34.3705L11.4035 16.1244C10.58 14.5642 10.1055 12.7583 10.1055 10.8658C10.1055 4.79827 14.8369 -0.0991211 20.6989 -0.0991211C24.7743 -0.0991211 28.2636 2.25567 30.0641 5.7373L32.7438 10.9236V34.356C32.7578 34.3705 20.643 34.3705 20.643 34.3705Z" fill="#27AA9B"/>
<path d="M44.8008 34.3268L52.3376 48.9468C53.2448 50.6081 54.9894 51.7205 56.9434 51.7205C58.9393 51.7205 60.6979 50.5792 61.5772 48.8745L68.9604 34.3557L56.8876 10.9233C56.8736 10.9233 44.8008 34.3268 44.8008 34.3268Z" fill="#176D3D"/>
<path d="M44.8022 34.3268L37.2654 48.9468C36.3582 50.6081 34.6136 51.7205 32.6596 51.7205C30.6777 51.7205 28.9052 50.5792 28.0259 48.8745L20.6426 34.3557L32.7154 10.9233C32.7294 10.9233 44.8022 34.3268 44.8022 34.3268Z" fill="#22955A"/>
<path d="M34.9627 64.5204C35.3116 65.7628 35.535 67.063 35.7164 68.3776C35.7443 67.0052 35.8978 65.7628 36.1909 64.5204L38.1728 55.9969H41.3969L37.4192 71.7004H34.2928L31.5572 61.6889C31.3618 61.0388 31.1524 60.1142 31.0827 58.8573C31.0268 59.8975 30.8593 60.851 30.636 61.6889L27.9284 71.7004H24.802L20.8242 55.968H24.0762L26.0581 64.6793C26.2814 65.7628 26.407 66.933 26.4629 68.2043C26.6862 66.7307 26.9932 65.5317 27.2584 64.5204L29.5055 55.9391H32.6877C32.7017 55.9391 34.9627 64.5204 34.9627 64.5204ZM51.0133 58.3228C47.7613 58.3228 45.7096 60.5187 45.7096 63.8703C45.7096 67.1352 47.5659 69.2589 50.6923 69.2589C52.423 69.2589 53.9443 68.6666 55.2284 67.4386L55.2004 70.9058C53.8187 71.7581 52.2974 72.1482 50.6365 72.1482C45.7096 72.1482 42.346 68.6232 42.346 63.8992C42.346 59.2618 45.6259 55.6357 50.7063 55.6357C52.6323 55.6357 54.1118 56.1269 55.34 56.7481L55.2423 60.1142C54.1397 59.0451 52.8138 58.3228 51.0133 58.3228ZM59.7784 67.5975C60.2529 68.7677 61.3276 69.4611 62.5837 69.4611C64.1609 69.4611 65.0402 68.6088 65.0402 67.4097C65.0402 66.0373 63.784 65.7484 61.6905 64.6071C59.4434 63.3936 58.1593 62.2523 58.1593 60.0708C58.1593 57.586 60.211 55.6357 63.5189 55.6357C65.3472 55.6357 66.6452 56.2858 67.6501 57.6872L65.738 59.5652C65.2635 58.6551 64.5098 58.1928 63.477 58.1928C62.1511 58.1928 61.3276 58.9729 61.3276 59.9842C61.3276 61.4288 62.6814 61.7755 64.3842 62.5557C66.9383 63.7547 68.1665 65.2572 68.1665 67.2219C68.1665 70.0534 66.1846 72.0471 62.807 72.0471C60.4483 72.0471 58.7735 71.1658 57.95 69.6345C57.95 69.6489 59.7784 67.5975 59.7784 67.5975Z" fill="#27231D"/>
</g>
<defs>
<clipPath id="clip0_380_13475">
<rect width="91" height="72" fill="white"/>
</clipPath>
</defs>
</svg>
