<svg width="118" height="72" viewBox="0 0 118 72" fill="none" xmlns="http://www.w3.org/2000/svg">
<g clip-path="url(#clip0_380_13469)">
<mask id="mask0_380_13469" style="mask-type:luminance" maskUnits="userSpaceOnUse" x="-32" y="-54" width="178" height="207">
<path d="M-31.7012 152.161H145.825V-53.6631H-31.7012V152.161Z" fill="white"/>
</mask>
<g mask="url(#mask0_380_13469)">
<path fill-rule="evenodd" clip-rule="evenodd" d="M62.5785 3.37325H69.4303V0.822266H62.5785V3.37325ZM60.5962 5.35411H71.4144V8.42701H63.9229V12.3922H70.5575V15.4651H63.9246V19.6266H71.5119V22.6995H60.5962V5.35411ZM6.2793 5.37133H8.79357L14.5302 14.2679L20.2686 5.37133H22.7829V22.6719H19.463V12.4145L14.5559 19.8539H14.5063L9.60088 12.4145V22.6719H6.2793V5.37133ZM27.1683 16.1472V5.37133H30.4882V16.2712C30.4882 18.6671 31.9779 19.8298 33.9312 19.8298C35.8844 19.8298 37.3725 18.6671 37.3725 16.2712V5.37133H40.6924V16.1472C40.6924 20.9184 37.7642 22.9165 33.9312 22.9165C30.0982 22.9165 27.1683 20.9184 27.1683 16.1472ZM44.3167 20.0262L46.2682 17.4562C47.2945 18.5431 49.0527 19.8539 50.835 19.8539C52.323 19.8539 53.3492 19.0134 53.3492 17.8765C53.3492 16.7397 52.0066 16.1713 50.2722 15.6029L49.3692 15.3066C47.6844 14.7623 44.9016 13.6513 44.9016 10.3148C44.9016 7.17649 47.197 5.12502 50.6143 5.12502C52.6387 5.10183 54.5984 5.84223 56.1081 7.2006L54.1548 9.77054C53.3253 8.9782 52.1024 8.18931 50.6143 8.18931C49.0288 8.18931 48.0265 9.05399 48.0265 10.1908C48.0265 11.4017 49.2956 11.8961 50.7358 12.3663L51.6406 12.6626C54.0573 13.4532 56.5716 14.6142 56.5716 17.8025C56.5716 20.9649 54.2027 22.9182 50.8589 22.9182C47.929 22.9182 45.5858 21.3852 44.3167 20.0262ZM75.8717 16.1472V5.37133H79.1915V16.2712C79.1915 18.6671 80.6813 19.8298 82.6345 19.8298C84.5878 19.8298 86.0776 18.6671 86.0776 16.2712V5.37133H89.3957V16.1472C89.3957 20.9184 86.4675 22.9165 82.6345 22.9165C78.8016 22.9165 75.8717 20.9184 75.8717 16.1472ZM94.0172 5.37133H96.5315L102.268 14.2679L108.006 5.37133H110.521V22.6719H107.199V12.4145L102.294 19.8539H102.242L97.3371 12.4145V22.6719H94.0172V5.37133ZM6.34258 51.5286H8.01535L16.8871 64.1681V51.5286H18.6711V67.3254H16.9983L8.12481 54.6876V67.3254H6.34258V51.5286ZM31.2442 61.4811L28.2116 54.0796H28.1672L25.1346 61.4811H31.2442ZM31.9112 63.1519H24.4436L22.7264 67.3272H20.7868L27.4095 51.5303H28.9693L35.5903 67.3254H33.6284L31.9112 63.1519ZM38.893 53.2218H33.8115V51.5303H45.7602V53.2218H40.677V67.3289H38.893V53.2218ZM47.6878 61.5724V51.5303H49.4718V61.6172C49.4718 64.3697 51.0317 65.8837 53.5066 65.8837C56.0038 65.8837 57.5636 64.3697 57.5636 61.6172V51.5303H59.3476V61.5724C59.3476 65.8837 56.6725 67.5528 53.5066 67.5528C50.3629 67.5528 47.6878 65.882 47.6878 61.5724ZM64.6737 59.2711H68.2177C70.8482 59.2711 71.6504 57.8277 71.6504 56.2465C71.6504 54.6652 70.8465 53.1994 68.2177 53.1994H64.6737V59.2711ZM72.7434 67.3272L67.8824 60.9402H64.6737V67.3272H62.8898V51.5303H68.2399C71.517 51.5303 73.4566 53.3561 73.4566 56.2017C73.4566 58.3462 72.3414 60.1496 70.0016 60.737L75.0387 67.3272H72.7434ZM76.7029 51.5286H86.199V53.1994H78.4851V58.4805H85.4191V60.1513H78.4868V65.6564H86.2212V67.3272H76.7029V51.5286ZM94.6483 51.5286H96.3416V60.3081H101.158V61.91H94.6483V51.5286ZM89.4094 51.5286H91.1933V65.6564H101.158V67.3272H89.4094V51.5286ZM103.893 51.5286H113.389V53.1994H105.675V58.4805H112.609V60.1513H105.675V65.6564H113.411V67.3272H103.893V51.5286ZM21.1306 29.5446H22.7897L31.6016 42.0946V29.5446H33.3736V45.2329H31.7128L22.9026 32.6812V45.2329H21.1306V29.5446ZM54.3036 37.4559V38.9579H48.0162V29.5446H49.6103V37.4559H54.3036ZM39.3976 35.327H42.5635L40.9917 31.8079H40.9694L39.3976 35.327ZM39.4899 45.1864H50.3817V43.619H39.4899V45.1864ZM38.734 36.829L37.7813 38.9579H36.0777L40.3708 29.5446H41.5903L45.8834 38.9579H44.2021L43.2494 36.829H38.734ZM60.733 29.5446H62.505V36.4466H70.9167V29.5446H72.6869V45.2329H70.9167V38.1277H62.505V45.2329H60.733V29.5446ZM92.9516 31.0466H89.8319V29.5446H97.6466V31.0466H94.5474V38.9562H92.9533V31.0483L92.9516 31.0466ZM81.4339 37.7246L82.3404 36.4242C82.939 36.9633 84.0028 37.5903 85.065 37.5903C86.0604 37.5903 86.7686 37.1425 86.7686 36.3794C86.7686 35.4613 85.8398 35.2374 85.0205 34.9911L84.2457 34.7672C83.1613 34.4519 81.7229 34.0489 81.7229 32.1886C81.7229 30.4851 82.9612 29.4102 84.8871 29.4102C86.2383 29.4102 87.3672 29.9029 87.9863 30.3283L87.2133 31.7184C86.6369 31.3377 85.7286 30.9122 84.7759 30.9122C83.8472 30.9122 83.2058 31.3153 83.2058 32.099C83.2058 32.9052 83.825 33.0412 84.8221 33.3323L85.5302 33.5339C86.6146 33.8474 88.2754 34.2745 88.2754 36.2674C88.2754 38.0605 86.9464 39.0923 84.9983 39.0923C83.686 39.0801 82.4215 38.5949 81.4339 37.7246ZM79.7594 45.1864H90.6529V43.619H79.7594V45.1864ZM77.0005 38.9562H78.5946V29.5446H77.0005V38.9562Z" fill="#1D1D1B"/>
</g>
</g>
<defs>
<clipPath id="clip0_380_13469">
<rect width="118" height="72" fill="white"/>
</clipPath>
</defs>
</svg>
