<svg width="167" height="188" viewBox="0 0 167 188" fill="none" xmlns="http://www.w3.org/2000/svg">
<path d="M77.6418 97.76C74.5696 93.4071 49.2546 101.665 40.0793 106.507C30.904 111.358 22.0019 119.027 16.9174 125.892C11.8329 132.757 1.94543 149.721 3.50225 154.024C5.05907 158.336 20.9917 157.258 40.4851 147.831C59.9868 138.404 86.9579 110.943 77.6335 97.7517L77.6418 97.76Z" fill="white" stroke="#242625" stroke-width="1.2" stroke-miterlimit="10"/>
<path d="M40.2392 125.531C45.4231 121.651 50.2178 118.26 53.7289 115.864C55.4844 114.67 56.9171 113.716 57.9191 113.078C58.9211 112.44 59.4842 112.1 59.509 112.141C59.5338 112.183 59.0204 112.589 58.0681 113.294C57.1075 113.99 55.7163 115.002 54.0022 116.254C50.5656 118.741 45.8288 122.19 40.6449 126.062C35.4693 129.942 30.8237 133.524 27.4782 136.119C25.7972 137.413 24.4391 138.466 23.495 139.187C22.551 139.908 22.0128 140.282 21.9879 140.248C21.9548 140.215 22.4434 139.768 23.3377 138.98C24.2321 138.2 25.5487 137.089 27.1884 135.746C30.4676 133.052 35.0636 129.403 40.2557 125.523L40.2392 125.531Z" fill="#242625"/>
<path d="M43.3605 109.165C46.4907 107.324 49.4719 105.931 51.6746 105.044C53.8774 104.157 55.2851 103.743 55.3182 103.817C55.3514 103.908 54.0016 104.48 51.8651 105.475C49.7203 106.47 46.8054 107.913 43.7 109.737C40.603 111.561 37.9116 113.41 36.007 114.803C34.1024 116.196 32.9513 117.1 32.8851 117.025C32.8271 116.959 33.8788 115.931 35.7255 114.43C37.5721 112.929 40.2386 110.997 43.3688 109.157L43.3605 109.165Z" fill="#242625"/>
<path d="M52.3461 134.155C55.0954 131.858 57.323 129.479 58.8301 127.68C60.3373 125.872 61.1819 124.678 61.273 124.745C61.3144 124.769 61.1405 125.093 60.7927 125.665C60.4532 126.237 59.9067 127.033 59.1945 127.978C57.7702 129.877 55.5674 132.348 52.7767 134.677C49.9861 137.007 47.1622 138.732 45.0506 139.81C42.9307 140.888 41.5395 141.377 41.5146 141.302C41.4732 141.203 42.7899 140.573 44.827 139.395C46.8641 138.226 49.5968 136.46 52.3544 134.163L52.3461 134.155Z" fill="#242625"/>
<path d="M88.5814 97.7598C91.6536 93.4069 116.969 101.665 126.144 106.507C135.319 111.357 144.221 119.027 149.306 125.892C154.39 132.757 164.278 149.721 162.721 154.024C161.164 158.336 145.232 157.258 125.738 147.831C106.236 138.404 79.2653 110.943 88.5897 97.7515L88.5814 97.7598Z" fill="white" stroke="#242625" stroke-width="1.2" stroke-miterlimit="10"/>
<path d="M127.31 128.246C133.09 133.279 138.53 137.591 142.58 140.559C144.6 142.043 146.257 143.229 147.408 144.033C148.559 144.837 149.18 145.302 149.155 145.343C149.13 145.384 148.459 144.986 147.259 144.249C146.058 143.511 144.36 142.383 142.298 140.949C138.166 138.072 132.659 133.81 126.871 128.761C121.082 123.711 116.056 118.902 112.454 115.395C110.657 113.637 109.207 112.203 108.222 111.2C107.237 110.196 106.707 109.624 106.74 109.591C106.773 109.558 107.361 110.064 108.404 111.009C109.439 111.962 110.93 113.339 112.777 115.047C116.462 118.471 121.53 123.214 127.301 128.246H127.31Z" fill="#242625"/>
<path d="M125.619 114.259C128.816 116.522 131.524 118.819 133.395 120.577C134.331 121.456 135.068 122.185 135.548 122.716C136.037 123.238 136.294 123.545 136.26 123.578C136.186 123.653 135.018 122.583 133.081 120.925C131.143 119.267 128.41 117.045 125.238 114.798C122.067 112.551 119.061 110.71 116.858 109.433C114.655 108.148 113.264 107.402 113.306 107.311C113.322 107.269 113.695 107.41 114.357 107.692C115.02 107.974 115.947 108.43 117.09 109.019C119.367 110.196 122.431 111.995 125.628 114.251L125.619 114.259Z" fill="#242625"/>
<path d="M122.293 137.931C125.564 140.617 128.868 142.607 131.328 143.892C133.795 145.177 135.394 145.824 135.352 145.932C135.336 145.973 134.922 145.849 134.176 145.592C133.431 145.343 132.388 144.903 131.112 144.315C128.57 143.129 125.183 141.172 121.863 138.445C120.206 137.077 118.732 135.659 117.465 134.299C116.215 132.923 115.147 131.629 114.335 130.485C113.913 129.93 113.565 129.391 113.259 128.926C112.944 128.462 112.696 128.056 112.505 127.707C112.116 127.028 111.917 126.638 111.959 126.613C112.058 126.555 112.977 128.014 114.7 130.195C115.552 131.289 116.646 132.533 117.904 133.868C119.188 135.186 120.654 136.571 122.285 137.914L122.293 137.931Z" fill="#242625"/>
<path d="M84.4137 106.507C90.3098 106.507 98.6736 91.2927 100.885 80.1244C103.096 68.9478 103.957 49.1649 103.22 37.8556C102.483 26.5464 98.4251 20.7591 96.3383 14.1592C94.2515 7.55941 90.3181 4.46678 87.7924 2.17839C85.2667 -0.109991 85.5234 1.63947 84.4137 1.63947C83.3041 1.63947 83.5608 -0.109991 81.0351 2.17839C78.5094 4.46678 74.5759 7.55941 72.4891 14.1592C70.4023 20.7591 66.3446 26.5464 65.6076 37.8556C64.8706 49.1649 65.7319 68.9561 67.9429 80.1244C70.1539 91.301 78.5094 106.507 84.4137 106.507Z" fill="white" stroke="#242625" stroke-width="1.2" stroke-miterlimit="10"/>
<path d="M84.8454 101.342C84.8454 101.342 83.4128 87.4042 87.2552 79.7265C91.0975 72.0488 90.7249 71.2197 91.9587 64.4872C93.2009 57.7547 95.18 54.4465 101.374 51.8513C107.568 49.2562 106.078 43.585 110.79 41.338C115.493 39.0911 116.86 41.6945 121.323 39.9202C125.787 38.1459 126.648 38.2702 129.496 38.5024C132.345 38.7346 131.476 40.0363 133.836 39.5637C136.187 39.0911 140.899 36.2555 145.106 35.0781C149.321 33.9008 152.551 34.5641 155.764 36.1394C160.103 38.262 164.31 44.1736 163.448 50.5496C162.695 56.0633 166.794 56.6934 166.297 60.2338C165.8 63.7741 164.442 64.0726 165.179 67.8783C165.924 71.684 165.552 75.1083 163.2 78.0682C160.848 81.0199 161.593 83.9716 159.73 87.6364C157.875 91.3011 156.633 90.4471 156.385 93.349C156.136 96.2509 155.143 100.62 150.439 105.23C145.735 109.84 135.575 109.84 133.711 111.134C131.856 112.435 127.641 111.134 124.172 108.539C120.702 105.943 117.356 104.401 112.529 106.648C107.701 108.895 88.0087 103.58 84.8454 101.333V101.342Z" fill="white" stroke="#242625" stroke-width="1.2" stroke-miterlimit="10"/>
<path d="M82.4936 101.342C82.4936 101.342 83.9262 87.4042 80.0838 79.7265C76.2414 72.0488 76.6141 71.2197 75.3802 64.4872C74.1381 57.7547 72.1589 54.4465 65.9648 51.8513C59.7706 49.2562 61.2612 43.585 56.5493 41.338C51.8457 39.0911 50.4793 41.6945 46.0159 39.9202C41.5524 38.1459 40.6912 38.2702 37.8426 38.5024C34.9939 38.7346 35.8634 40.0363 33.5033 39.5637C31.1515 39.0911 26.4397 36.2555 22.2329 35.0781C18.0179 33.9008 14.7883 34.5641 11.5753 36.1394C7.23609 38.262 3.02935 44.1736 3.89057 50.5496C4.64414 56.0633 0.54506 56.6934 1.04192 60.2338C1.53878 63.7741 2.89686 64.0726 2.15985 67.8783C1.41456 71.684 1.78721 75.1083 4.139 78.0682C6.4908 81.0199 5.74551 83.9716 7.60873 87.6364C9.46367 91.3011 10.7058 90.4471 10.9542 93.349C11.2027 96.2509 12.1964 100.62 16.9 105.23C21.6036 109.84 31.7643 109.84 33.6276 111.134C35.4825 112.435 39.6975 111.134 43.1672 108.539C46.637 105.943 49.9825 104.401 54.8103 106.648C59.6381 108.895 79.3302 103.58 82.4936 101.333V101.342Z" fill="white" stroke="#242625" stroke-width="1.2" stroke-miterlimit="10"/>
<path d="M41.1708 69.5779C43.5143 71.6259 45.5762 73.5494 47.0254 74.9838C48.4746 76.4182 49.3275 77.3551 49.2613 77.4214C49.195 77.4878 48.2344 76.6752 46.7025 75.332C45.1705 73.9889 43.0588 72.1316 40.7319 70.0837C38.3801 68.0523 36.2519 66.22 34.7116 64.8851C33.1713 63.5502 32.2356 62.7128 32.2936 62.6381C32.3515 62.5635 33.3949 63.2766 35.0097 64.5202C36.6328 65.7639 38.819 67.5383 41.1708 69.5779Z" fill="#242625"/>
<path d="M61.5581 86.8983C64.1997 89.0706 66.5681 91.0605 68.2574 92.5364C69.9467 94.0039 70.9653 94.9491 70.9073 95.0237C70.8494 95.0984 69.7232 94.2775 67.9593 92.9012C66.1872 91.5248 63.7774 89.593 61.1441 87.4207C58.5107 85.2484 56.1424 83.2584 54.453 81.7909C52.7637 80.3233 51.7452 79.3781 51.8031 79.3035C51.8611 79.2289 52.979 80.0497 54.7512 81.4178C56.515 82.7941 58.9331 84.7343 61.5747 86.8983H61.5581Z" fill="#242625"/>
<path d="M24.9232 54.2558C26.2813 55.4746 27.0763 56.7349 26.9355 56.8426C26.7865 56.9587 25.7927 55.9223 24.4761 54.7533C23.176 53.5759 22.0415 52.6887 22.1408 52.5229C22.2319 52.3737 23.5652 53.0287 24.9232 54.2558Z" fill="#242625"/>
<path d="M107.582 82.6115C112.476 78.698 117.097 75.3649 120.583 73.1926C122.322 72.0982 123.763 71.2525 124.782 70.7219C125.792 70.1829 126.363 69.901 126.388 69.9425C126.413 69.9839 125.883 70.3405 124.914 70.9457C123.937 71.5427 122.546 72.4464 120.848 73.5906C117.436 75.8624 112.89 79.2287 108.004 83.1421C103.119 87.0556 98.7213 90.6374 95.4503 93.1248C93.819 94.3685 92.4775 95.3552 91.5334 96.0019C90.5894 96.6569 90.0594 97.0051 90.0263 96.9637C90.0015 96.9305 90.4818 96.5076 91.3761 95.7946C92.2705 95.0733 93.5623 94.0368 95.1605 92.7517C98.357 90.1814 102.696 86.5415 107.59 82.6198L107.582 82.6115Z" fill="#242625"/>
<path d="M136.045 62.0416C138.182 60.5657 139.937 59.3801 140.053 59.5293C140.169 59.6703 138.588 61.1046 136.426 62.5971C134.273 64.0895 132.377 65.0596 132.278 64.9103C132.178 64.7528 133.909 63.534 136.045 62.0498V62.0416Z" fill="#242625"/>
<path d="M151.333 47.3245C153.163 44.8786 154.256 42.5902 154.455 42.6897C154.538 42.7311 154.347 43.3364 153.917 44.2733C153.494 45.2019 152.815 46.4705 151.863 47.7307C150.903 48.991 149.809 49.9611 148.932 50.5166C148.054 51.0804 147.433 51.2711 147.4 51.1965C147.35 51.1053 147.88 50.7653 148.65 50.1352C149.42 49.5051 150.406 48.535 151.325 47.3245H151.333Z" fill="#242625"/>
<path d="M39.1727 91.4426C43.5367 92.6283 47.346 94.1207 50.0704 95.2483C51.4368 95.8121 52.5299 96.293 53.2752 96.6412C54.0204 96.9895 54.4262 97.1968 54.4097 97.2465C54.3765 97.3377 52.6541 96.7159 49.8965 95.6878C47.1307 94.6762 43.3214 93.2584 38.9988 92.0894C36.8374 91.5173 34.7506 91.0778 32.8377 90.7627C30.9248 90.4808 29.1858 90.2984 27.7201 90.2487C24.7969 90.1326 22.9751 90.3233 22.9668 90.2072C22.9668 90.1575 23.414 90.0829 24.2338 89.9751C24.6478 89.9171 25.1447 89.859 25.7326 89.8424C26.3206 89.8176 26.9913 89.7595 27.7284 89.7844C29.2106 89.7678 30.9745 89.9087 32.9205 90.1575C34.8583 90.4394 36.9782 90.8622 39.1644 91.4426H39.1727Z" fill="#242625"/>
<path d="M66.3962 76.0448C67.5721 80.4474 68.6321 84.4355 69.4022 87.3209C69.7831 88.7635 70.0895 89.9326 70.3048 90.7451C70.5036 91.5577 70.6029 92.0137 70.5533 92.022C70.5118 92.0386 70.3379 91.6074 70.0564 90.8198C69.7748 90.0321 69.3939 88.8796 68.9467 87.4535C68.0524 84.6013 66.8931 80.6298 65.742 76.2189C64.591 71.7996 63.6635 67.7784 63.0507 64.8516C62.7443 63.384 62.5124 62.1984 62.3717 61.3775C62.2309 60.5567 62.1729 60.0924 62.2226 60.0841C62.2723 60.0758 62.4131 60.5152 62.6284 61.3195C62.8354 62.132 63.1418 63.3011 63.5144 64.7438C64.2514 67.6374 65.27 71.6338 66.3879 76.0531L66.3962 76.0448Z" fill="#242625"/>
<path d="M107.096 69.3962C108.57 65.2175 109.555 61.3206 110.152 58.4767C110.748 55.6328 111.021 53.8501 111.12 53.8584C111.17 53.8584 111.145 54.3144 111.079 55.127C111.013 55.9395 110.855 57.1169 110.615 58.5596C110.135 61.4449 109.216 65.3998 107.725 69.6118C106.226 73.8238 104.454 77.4719 103.022 80.0173C102.301 81.2942 101.688 82.2974 101.233 82.9773C100.778 83.6572 100.513 84.022 100.471 83.9971C100.38 83.9391 101.291 82.3803 102.608 79.7935C103.933 77.2066 105.622 73.5584 107.104 69.3879L107.096 69.3962Z" fill="#242625"/>
<path d="M119.047 93.0671C120.951 93.5397 122.748 94.0869 124.355 94.659C125.953 95.2477 127.377 95.8447 128.528 96.4333C129.116 96.7069 129.621 96.9971 130.069 97.2459C130.516 97.4863 130.897 97.7268 131.195 97.9258C131.799 98.3238 132.122 98.5559 132.098 98.5974C132.04 98.6969 130.673 97.8926 128.338 96.8562C127.179 96.3256 125.754 95.7949 124.164 95.2394C122.566 94.7088 120.786 94.1864 118.898 93.7138C115.113 92.7852 111.627 92.1965 109.101 91.7405C106.576 91.2928 105.019 90.9943 105.035 90.9031C105.052 90.8119 106.634 90.9445 109.176 91.2762C111.718 91.6078 115.237 92.1302 119.055 93.0671H119.047Z" fill="#242625"/>
<path d="M84.387 57.9779C84.4201 63.0521 84.4947 67.6372 84.5526 70.962C84.5692 72.6285 84.5857 73.9717 84.594 74.9003C84.594 75.8289 84.5692 76.343 84.5278 76.3513C84.4781 76.3513 84.4118 75.8455 84.3373 74.9169C84.2545 73.9883 84.1717 72.6451 84.0806 70.9869C83.9067 67.6621 83.7494 63.0687 83.7245 57.9862C83.6997 52.9036 83.7991 48.3103 83.9316 44.9855C83.9978 43.319 84.0723 41.9758 84.1469 41.0472C84.2131 40.1185 84.2794 39.6045 84.3208 39.6045C84.3704 39.6045 84.3953 40.1185 84.4036 41.0555C84.4036 41.9841 84.4036 43.3273 84.4036 44.9938C84.387 48.3186 84.3622 52.9119 84.387 57.9779Z" fill="#242625"/>
<path d="M84.63 11.3983C84.7377 15.4444 84.8205 18.7278 84.63 18.7443C84.4478 18.7609 84.0752 15.4776 83.9592 11.4149C83.8433 7.35217 84.0338 4.06055 84.216 4.06055C84.4064 4.06055 84.5058 7.34388 84.6217 11.39L84.63 11.3983Z" fill="#242625"/>
<path d="M84.0318 25.2774C83.9904 26.4133 83.891 27.3419 83.7005 27.3585C83.5183 27.3668 83.3196 26.4299 83.361 25.2608C83.4024 24.0917 83.6591 23.1631 83.8413 23.188C84.0235 23.2129 84.0649 24.1415 84.0235 25.2857L84.0318 25.2774Z" fill="#242625"/>
<path d="M82.8654 169.313C84.3146 169.313 83.9585 172.339 85.1261 175.772C86.2938 179.205 83.2215 179.71 84.3477 182.438C85.4739 185.166 87.8837 183.242 89.5813 183.242C91.2789 183.242 91.5936 186.476 95.1958 186.775C98.798 187.081 99.005 184.959 100.595 183.848C102.185 182.737 103.353 184.254 105.994 183.143C108.644 182.032 109.273 179.511 108.959 177.994C108.644 176.477 109.596 175.366 110.971 176.983C112.346 178.599 113.936 176.784 115.526 173.749C117.116 170.723 116.271 170.515 115.633 169.305C114.996 168.094 116.586 166.279 118.068 164.761C119.55 163.244 118.068 162.34 117.853 161.13C117.637 159.919 119.335 159.72 120.925 156.785C122.515 153.85 121.239 152.44 119.442 150.426C117.646 148.411 118.805 148.61 119.442 146.189C120.08 143.768 118.068 142.756 116.263 141.645C114.466 140.534 115.31 139.423 116.478 139.73C117.646 140.037 119.757 140.742 119.865 138.32C119.972 135.899 120.925 136.405 122.937 134.283C124.949 132.16 124.527 128.728 123.997 126.812C123.467 124.897 124.212 124.789 124.742 121.663C125.272 118.538 121.248 118.43 121.14 116.921C121.032 115.403 122.515 114.292 120.188 112.684C117.861 111.067 117.96 108.547 114.896 107.436C111.824 106.325 111.186 109.956 109.919 110.263C108.652 110.57 110.027 108.14 109.919 105.819C109.812 103.497 106.11 102.486 104.073 102.585C102.044 102.685 102.185 102.486 103.56 101.673C104.934 100.869 103.56 98.5474 99.005 97.5358C94.4505 96.5243 94.8728 95.5127 92.314 93.1912C89.7552 90.8697 88.306 89.7586 85.5567 91.3754C82.7992 92.9922 82.8737 100.595 82.8737 100.595C82.8737 100.595 82.9482 92.9922 80.1907 91.3754C77.4331 89.7586 75.9922 90.8697 73.4334 93.1912C70.8746 95.5127 71.2969 96.5243 66.7424 97.5358C62.1878 98.5474 60.8132 100.869 62.1878 101.673C63.5625 102.477 63.7115 102.685 61.6744 102.585C59.6456 102.486 55.9357 103.497 55.828 105.819C55.7204 108.14 57.095 110.561 55.828 110.263C54.5611 109.956 53.9234 106.325 50.8512 107.436C47.7789 108.547 47.8866 111.067 45.5596 112.684C43.2327 114.301 44.715 115.412 44.6073 116.921C44.4997 118.438 40.4751 118.538 41.0051 121.663C41.5351 124.789 42.2721 124.897 41.7504 126.812C41.2204 128.728 40.7981 132.16 42.8104 134.283C44.8226 136.405 45.7749 135.899 45.8826 138.32C45.9903 140.742 48.1102 140.037 49.2695 139.73C50.4371 139.423 51.2818 140.534 49.4848 141.645C47.6878 142.756 45.6756 143.768 46.3049 146.189C46.9426 148.61 48.1019 148.411 46.3049 150.426C44.508 152.449 43.2327 153.858 44.8226 156.785C46.4126 159.712 48.1019 159.911 47.8949 161.13C47.6796 162.34 46.1973 163.252 47.6796 164.761C49.1619 166.27 50.7518 168.094 50.1142 169.305C49.4765 170.515 48.6319 170.714 50.2218 173.749C51.8118 176.775 53.4017 178.599 54.7764 176.983C56.151 175.366 57.1033 176.477 56.7886 177.994C56.474 179.511 57.1033 182.032 59.7532 183.143C62.4031 184.254 63.5625 182.737 65.1524 183.848C66.7424 184.959 66.9494 187.081 70.5516 186.775C74.1538 186.468 74.4685 183.242 76.1661 183.242C77.8637 183.242 80.2735 185.158 81.3997 182.438C82.5259 179.719 79.4537 179.205 80.6213 175.772C81.7889 172.339 81.4328 169.313 82.882 169.313H82.8654Z" fill="white" stroke="#242625" stroke-width="1.2" stroke-miterlimit="10"/>
<path d="M85.5817 121.094L86.0455 122.512L86.2773 123.217L86.3933 123.573C86.4347 123.714 86.4595 123.847 86.4844 123.98C86.5672 124.51 86.5589 124.958 86.7659 125.306C86.8653 125.497 87.0061 125.688 87.1386 125.92C87.2793 126.168 87.3621 126.426 87.4367 126.649C87.5857 127.097 87.7513 127.545 87.9501 127.951C88.1406 128.341 88.4387 128.714 88.6871 129.153C88.9272 129.568 89.1757 130.065 89.2502 130.571C89.2916 130.803 89.333 130.986 89.4241 131.118C89.4904 131.243 89.6891 131.4 89.7968 131.458C89.7968 131.475 89.921 131.45 90.1942 131.549C90.2356 131.574 90.277 131.599 90.3102 131.624V131.549C90.3019 131.433 90.2853 131.326 90.277 131.16V130.778C90.3019 130.53 90.3019 130.306 90.277 130.107C90.2522 129.908 90.1694 129.742 90.0535 129.543L89.6477 128.929C89.4986 128.697 89.391 128.424 89.3247 128.175L89.1343 127.462C89.068 127.255 88.9935 127.031 88.919 126.782C88.7699 126.276 88.6705 125.862 88.4469 125.447C88.3476 125.248 88.2316 125.008 88.124 124.842C88.0081 124.651 87.8176 124.411 87.7679 124.063C87.7348 123.731 87.7679 123.573 87.7099 123.391C87.6603 123.209 87.5609 123.01 87.4532 122.794C87.3456 122.578 87.2214 122.33 87.18 122.031C87.1551 121.774 87.122 121.592 87.064 121.36C86.9647 120.92 86.8073 120.448 86.7576 119.933C86.7079 119.428 86.7576 118.922 86.8653 118.433C86.9481 118.126 86.7659 117.72 86.592 117.28C86.5506 117.164 86.5009 117.048 86.4678 116.924C86.443 116.833 86.4016 116.733 86.3601 116.634C86.2691 116.426 86.1697 116.202 86.1117 115.896L85.9875 115.34C85.9461 115.174 85.8799 114.917 85.9213 114.868V114.818L85.9378 114.785C85.9378 114.776 86.0123 114.834 85.9958 114.793C86.0041 114.735 86.0206 114.644 86.0786 114.61C86.2028 114.544 86.3684 114.561 86.5092 114.586C86.6583 114.61 86.799 114.693 86.9398 114.818C87.0806 114.942 87.2048 115.141 87.2959 115.299C87.4118 115.523 87.4946 115.746 87.5775 115.945C87.7845 116.343 87.9832 116.733 88.182 117.131C88.2813 117.322 88.4055 117.537 88.4884 117.769L88.7037 118.4C89.0846 119.171 89.5152 119.875 89.9707 120.688C90.3599 121.583 90.5172 122.33 90.8402 123.167C90.9892 123.565 91.1548 123.946 91.3453 124.303C91.5192 124.643 91.8007 125.033 91.9829 125.066C91.9995 125.074 92.016 125.066 92.0243 125.066C92.0326 125.066 92.0575 125.066 92.074 125.041C92.1237 125.016 92.0989 125.041 92.132 124.966C92.1734 124.834 92.1817 124.626 92.1817 124.444C92.1734 124.104 92.0326 123.706 91.8918 123.341C91.5523 122.612 91.337 121.716 91.1548 121.003C91.0472 120.671 90.8153 120.348 90.6331 119.95C90.4592 119.544 90.393 119.154 90.2274 118.864C90.1528 118.723 90.0286 118.574 89.9044 118.4C89.7885 118.225 89.6891 118.051 89.5897 117.869C89.391 117.504 89.2668 117.131 89.1343 116.783L88.9272 116.252C88.8776 116.119 88.7948 115.954 88.7037 115.796C88.6788 115.755 88.6457 115.713 88.6126 115.663C88.5712 115.614 88.4801 115.539 88.4387 115.489C88.3227 115.365 88.3145 115.29 88.2979 115.224C88.273 114.975 88.2813 114.975 88.2399 114.942C88.2316 114.926 88.2234 114.859 88.2979 114.768C88.3641 114.669 88.4055 114.677 88.4635 114.627C88.803 114.735 89.0929 114.843 89.4986 115.199C89.9707 115.639 90.0783 115.788 90.3185 116.012C90.7656 116.435 91.2045 116.857 91.6351 117.264C91.8587 117.463 92.0823 117.67 92.2976 117.886C92.5212 118.109 92.6951 118.358 92.8856 118.549C93.2748 118.963 93.7302 119.337 94.0946 119.826C94.4589 120.315 94.6825 120.821 95.022 121.227C95.3616 121.633 95.7591 122.056 96.082 122.479C96.4298 122.902 96.7445 123.2 97.2496 123.374C97.4732 123.474 97.7216 123.557 97.8459 123.507C97.8873 123.507 97.9618 123.416 98.028 123.333C98.0943 123.25 98.1274 123.159 98.144 123.076C98.2102 122.703 97.9121 122.28 97.5974 121.94C97.2165 121.567 97.0343 121.053 96.8604 120.63C96.7279 120.207 96.3801 120 95.9992 119.71C95.6266 119.411 95.3202 119.071 95.0386 118.74C94.4755 118.085 93.8627 117.496 93.3493 116.891C92.8607 116.269 92.4384 115.614 91.9581 115.108C91.7179 114.851 91.4695 114.594 91.2542 114.312C91.0306 114.038 90.8816 113.707 90.7656 113.425C90.6497 113.143 90.4344 112.919 90.2605 112.679C90.0866 112.438 89.9127 112.223 89.7305 112.015C89.3496 111.609 89.0018 111.236 88.6788 110.896C88.3559 110.539 88.1488 110.142 87.9915 109.793C87.6851 109.097 87.4367 108.566 87.3207 108.185C87.2628 107.994 87.2296 107.853 87.2131 107.754C87.1965 107.654 87.1965 107.604 87.2048 107.604C87.2214 107.604 87.2545 107.803 87.3953 108.16C87.5278 108.525 87.801 109.039 88.1323 109.727C88.2979 110.067 88.5049 110.432 88.8196 110.763C89.1508 111.095 89.5069 111.46 89.8961 111.858C90.0866 112.065 90.277 112.289 90.4592 112.529C90.6331 112.77 90.865 112.994 90.9975 113.309C91.2211 113.922 91.6517 114.378 92.1651 114.901C92.6785 115.44 93.0843 116.061 93.5894 116.683C94.1111 117.28 94.7157 117.844 95.2953 118.499C95.5852 118.822 95.875 119.146 96.2145 119.411C96.3884 119.544 96.5871 119.668 96.7693 119.842C96.9598 120 97.1254 120.265 97.2082 120.481C97.3987 120.92 97.5477 121.343 97.879 121.666C98.1937 122.031 98.616 122.479 98.5332 123.15C98.5001 123.308 98.4421 123.457 98.351 123.582C98.2599 123.698 98.1771 123.83 97.9701 123.913C97.5809 124.021 97.3159 123.872 97.0674 123.781C96.8356 123.681 96.5457 123.565 96.3222 123.374C96.0986 123.192 95.9081 122.985 95.7259 122.777C95.3864 122.346 95.0303 121.973 94.6494 121.534C94.2685 121.086 94.02 120.555 93.6971 120.124C93.3824 119.701 92.927 119.336 92.5129 118.897C92.2893 118.673 92.1237 118.433 91.925 118.242C91.7262 118.035 91.5026 117.844 91.279 117.645C90.8401 117.231 90.393 116.816 89.9458 116.393C89.333 115.804 89.4489 115.879 89.2833 115.788C89.2419 115.755 89.2005 115.804 89.2502 115.838C89.2833 115.862 89.3082 115.896 89.333 115.929C89.3579 115.97 89.3661 115.987 89.391 116.053L89.6063 116.592C89.8796 117.363 90.1694 117.919 90.6828 118.615C90.9064 119.013 90.9726 119.428 91.1217 119.743C91.2625 120.074 91.5109 120.406 91.66 120.845C91.8836 121.683 92.0492 122.388 92.4053 123.159C92.5543 123.557 92.7117 123.955 92.7365 124.444C92.7365 124.676 92.7365 124.9 92.662 125.165C92.6371 125.29 92.4963 125.505 92.3473 125.563C92.2314 125.654 91.9995 125.704 91.8421 125.654C91.5026 125.563 91.3287 125.356 91.1797 125.174C91.0389 124.983 90.9147 124.792 90.807 124.593C90.5917 124.203 90.4261 123.797 90.2688 123.391C89.9707 122.628 89.7305 121.675 89.4075 120.97C89.0101 120.257 88.5132 119.461 88.1074 118.632L87.8838 117.993C87.8176 117.803 87.7182 117.637 87.6106 117.421C87.4036 117.015 87.1965 116.634 86.9812 116.202C86.8901 115.979 86.8073 115.78 86.7162 115.597C86.6831 115.539 86.6914 115.556 86.6748 115.539C86.6583 115.531 86.6417 115.539 86.6583 115.556C86.6583 115.556 86.6914 115.73 86.7079 115.813C86.7328 115.97 86.8156 116.169 86.9067 116.385C86.9564 116.493 86.9978 116.617 87.0392 116.75C87.064 116.841 87.1054 116.94 87.1468 117.048C87.2959 117.454 87.5857 117.944 87.4532 118.574C87.3539 119.005 87.3207 119.436 87.3621 119.867C87.4035 120.29 87.5443 120.729 87.652 121.21C87.7099 121.442 87.7513 121.724 87.7762 121.94C87.801 122.114 87.8838 122.305 87.9915 122.512C88.0909 122.719 88.2234 122.951 88.2979 123.233C88.389 123.515 88.3476 123.847 88.3724 123.988C88.389 124.129 88.4884 124.286 88.6291 124.502C88.7782 124.742 88.8693 124.941 88.9935 125.174C89.2254 125.621 89.3744 126.152 89.4986 126.575C89.5566 126.79 89.6394 127.022 89.7222 127.288L89.9127 127.993C90.0203 128.44 90.277 128.73 90.5752 129.203C90.7159 129.419 90.8484 129.709 90.8898 130.007C90.9312 130.298 90.923 130.563 90.9147 130.812V131.168C90.9064 131.251 90.9147 131.384 90.9312 131.516V131.624C90.9395 131.682 90.9312 131.748 90.9312 131.807C90.923 131.923 90.8981 132.039 90.8484 132.13C90.7656 132.321 90.5586 132.428 90.3516 132.428C90.2522 132.428 90.1611 132.395 90.0617 132.329C89.9707 132.263 89.8299 132.113 89.8713 132.163C89.8961 132.155 89.7305 132.171 89.4738 132.072C89.184 131.906 89.0101 131.757 88.8196 131.491C88.654 131.226 88.596 130.944 88.5546 130.712C88.4884 130.281 88.2979 129.908 88.0743 129.51C87.8507 129.12 87.5443 128.739 87.3125 128.266C87.0889 127.81 86.915 127.346 86.7576 126.882C86.6831 126.649 86.6086 126.442 86.5092 126.268C86.4016 126.086 86.2525 125.878 86.12 125.638C85.8302 125.115 85.8467 124.543 85.7722 124.104C85.7556 123.996 85.7308 123.888 85.7059 123.789L85.59 123.441L85.3581 122.736L84.8944 121.326C84.7536 120.945 84.6294 120.456 84.5135 120.116C84.4555 119.942 84.3479 119.809 84.3147 119.809C84.3147 119.809 84.2651 119.809 84.2816 119.809L84.2319 119.9C84.2319 119.9 84.2319 119.958 84.1657 120.157C84.0829 120.34 83.9752 120.423 83.9669 120.439C83.9669 120.439 83.9255 120.638 83.9421 120.787C83.9504 120.962 83.9752 121.152 83.9752 121.384C83.9752 121.492 83.9504 121.641 83.9255 121.733L83.8593 122.006C83.8179 122.197 83.7682 122.388 83.702 122.578C83.644 122.769 83.5363 122.985 83.5032 123.101C83.4121 123.366 83.4701 123.747 83.379 124.179L83.2217 124.734C83.1803 124.875 83.1802 125.049 83.1471 125.256C83.1306 125.356 83.114 125.464 83.056 125.621C82.9898 125.762 82.8573 125.911 82.7 125.978C82.3687 126.119 82.0706 126.011 81.847 125.87C81.6234 125.729 81.4412 125.422 81.4412 125.132C81.4412 124.875 81.4992 124.676 81.5489 124.485L81.7145 123.963C81.7559 123.822 81.7725 123.673 81.7725 123.499C81.7725 123.175 81.7311 122.728 81.8387 122.338C81.905 122.039 81.8636 121.675 81.9381 121.252C82.0292 120.879 82.0458 120.597 82.0623 120.207C82.0706 120.025 82.0872 119.834 82.112 119.635C82.1534 119.411 82.17 119.32 82.1783 119.121C82.1865 118.947 82.2031 118.731 82.2693 118.516C82.2942 118.416 82.3522 118.292 82.3853 118.217C82.4184 118.151 82.4432 118.076 82.4681 118.002C82.5675 117.703 82.6006 117.371 82.6006 117.032C82.6006 116.692 82.584 116.335 82.584 115.962C82.584 115.556 82.642 115.232 82.642 114.884C82.6503 114.561 82.6337 114.179 82.5343 114.022C82.5095 113.989 82.5178 113.997 82.5012 113.989C82.4515 113.972 82.4267 113.972 82.4184 113.972C82.4184 113.972 82.3439 114.014 82.2942 114.146C82.112 114.809 81.9215 115.464 81.7394 116.119C81.698 116.277 81.6648 116.459 81.5903 116.658C81.5158 116.866 81.3667 117.056 81.2839 117.172C81.1183 117.396 81.0272 117.695 80.9361 118.026C80.8864 118.201 80.845 118.358 80.7539 118.565C80.6546 118.773 80.5303 118.922 80.431 119.046C80.3233 119.179 80.2571 119.278 80.2239 119.386C80.1825 119.502 80.1743 119.676 80.108 119.884C80.0418 120.124 79.8761 120.298 79.7933 120.406C79.7436 120.472 79.7188 120.514 79.694 120.564L79.5863 120.804C79.4538 121.136 79.2882 121.426 79.1391 121.716C78.8327 122.305 78.5677 122.902 78.369 123.515C78.2531 123.83 78.2282 124.079 78.1371 124.469C78.0957 124.659 77.955 124.9 77.8307 125.016C77.7065 125.149 77.6237 125.24 77.5906 125.331C77.4995 125.572 77.4333 125.92 77.3339 126.243C77.2842 126.409 77.218 126.583 77.1351 126.749L77.0689 126.873C77.0358 126.94 76.9944 126.981 76.9612 127.022C76.895 127.089 76.8619 127.139 76.8702 127.13C76.8536 127.097 76.9033 127.255 76.8122 127.52C76.7542 127.653 76.6797 127.744 76.6383 127.81C76.5969 127.876 76.5886 127.893 76.5638 127.976C76.5223 128.134 76.4975 128.316 76.4561 128.507C76.4147 128.697 76.3567 128.921 76.2491 129.112L75.9841 129.601C75.9013 129.767 75.7936 129.933 75.7439 130.074C75.6777 130.231 75.6114 130.422 75.5203 130.604C75.421 130.787 75.3216 130.986 75.0897 131.152C74.9821 131.234 74.8082 131.292 74.6757 131.276C74.5432 131.276 74.3776 131.251 74.2451 131.16C73.9718 130.953 73.9304 130.671 73.8973 130.463C73.8807 130.248 73.8973 130.049 73.9138 129.858C73.9635 129.477 74.0546 129.112 74.1623 128.764C74.2616 128.449 74.3196 128.092 74.4438 127.727C74.5018 127.553 74.5929 127.346 74.684 127.197L74.9324 126.732C75.0069 126.575 75.156 126.384 75.2471 126.268C75.3547 126.127 75.4044 126.061 75.4293 125.911C75.5038 125.605 75.5204 125.265 75.5949 124.892C75.7853 124.121 76.1994 123.59 76.3981 122.985C76.6466 122.355 76.9033 121.733 77.1434 121.111C77.2759 120.796 77.367 120.506 77.5409 120.182C77.7148 119.875 77.9053 119.618 78.0543 119.353C78.369 118.872 78.3193 118.225 78.6092 117.562C78.9321 116.99 79.2716 116.426 79.5946 115.954C79.6691 115.829 79.7022 115.746 79.6857 115.688C79.6774 115.605 79.6111 115.473 79.5449 115.315C79.5035 115.207 79.5035 115.199 79.5035 115.183C79.5035 115.166 79.5035 115.141 79.4787 115.133C79.4372 115.116 79.4041 115.158 79.3793 115.174L79.0977 115.473L78.7831 115.771C78.5346 115.962 78.4601 116.119 78.311 116.426C78.1454 116.708 77.9964 116.915 77.839 117.164C77.6817 117.363 77.6982 117.604 77.5078 117.952C77.3173 118.25 77.16 118.375 77.0772 118.623C77.0275 118.748 76.9695 118.897 76.8702 119.038C76.7708 119.179 76.6466 119.278 76.5555 119.37C76.4561 119.461 76.3899 119.527 76.3402 119.618C76.2822 119.726 76.2325 119.842 76.1663 119.975C76.0503 120.249 75.8102 120.489 75.628 120.655C75.4375 120.837 75.2636 121.02 75.1063 121.21C75.0318 121.31 74.9572 121.401 74.9241 121.484C74.8827 121.575 74.8496 121.733 74.7419 121.882C74.5763 122.064 74.4604 122.097 74.4438 122.139C74.361 122.222 74.3445 122.421 74.2037 122.653C74.0629 122.819 73.9304 122.943 73.7979 123.092C73.5246 123.374 73.2928 123.656 72.9864 123.93C72.7876 124.112 72.5226 124.286 72.3322 124.311C72.2411 124.328 72.1252 124.32 72.0506 124.228C71.9927 124.145 71.9844 124.046 71.9844 123.938C71.9844 123.739 72.1169 123.399 72.1997 123.225C72.2825 123.059 72.3819 122.902 72.4812 122.752C72.8787 122.172 73.3176 121.65 73.7151 121.119C74.1043 120.572 74.6094 120.174 74.9158 119.685C75.2388 119.196 75.4541 118.64 75.7522 118.143C76.0503 117.612 76.4809 117.289 76.6134 116.808C76.895 115.78 77.5658 115.025 77.9881 114.32C79.4207 111.294 79.8099 109.453 79.9175 109.503C79.9258 109.503 79.8927 109.619 79.8265 109.826C79.7685 110.042 79.6774 110.365 79.5615 110.788C79.4621 111.219 79.2716 111.733 79.0398 112.339C78.7996 112.936 78.6174 113.682 78.1785 114.428C77.7562 115.174 77.1269 115.887 76.8702 116.899C76.7873 117.148 76.6466 117.421 76.4727 117.637C76.2988 117.852 76.1414 118.06 76.0089 118.3C75.7357 118.773 75.5286 119.328 75.1808 119.867C74.8413 120.414 74.3362 120.821 73.9718 121.351C73.5909 121.874 73.1686 122.388 72.7793 122.968C72.6883 123.109 72.5972 123.25 72.5226 123.399C72.4564 123.54 72.4564 123.557 72.4315 123.648C72.4315 123.681 72.415 123.723 72.4315 123.756C72.4481 123.797 72.5061 123.772 72.5309 123.756C72.6054 123.714 72.6469 123.681 72.7214 123.615C72.9615 123.391 73.2182 123.092 73.4667 122.827L73.8393 122.421C73.9138 122.33 73.9304 122.114 74.096 121.882C74.2285 121.733 74.361 121.675 74.3941 121.625C74.4355 121.567 74.4687 121.467 74.5184 121.318C74.5846 121.161 74.6757 121.053 74.7585 120.945C74.9324 120.729 75.1146 120.539 75.305 120.348C75.5038 120.149 75.6528 120.008 75.7522 119.784C75.8019 119.676 75.8599 119.544 75.9261 119.411C76.0006 119.262 76.1249 119.129 76.2325 119.038C76.4561 118.847 76.5389 118.731 76.6383 118.449C76.688 118.325 76.7625 118.159 76.8619 118.035C76.953 117.91 77.0358 117.811 77.0937 117.711C77.1931 117.562 77.2262 117.197 77.4167 116.932C77.5657 116.692 77.7479 116.426 77.8721 116.211C77.9301 116.095 77.9881 115.954 78.0792 115.804C78.1785 115.639 78.2945 115.564 78.4021 115.448L78.7251 115.141C78.8245 115.042 78.8907 114.942 79.0563 114.793C79.2468 114.619 79.4787 114.494 79.6857 114.586C79.785 114.635 79.843 114.718 79.8844 114.843C79.9258 114.967 79.9589 115.108 79.9838 115.141C80.0335 115.265 80.1163 115.406 80.1577 115.622C80.1991 115.871 80.0832 116.078 80.0004 116.219C79.6443 116.758 79.3544 117.272 79.0563 117.786C78.8245 118.267 78.8741 118.988 78.4932 119.627C78.3276 119.925 78.1289 120.191 77.9881 120.448C77.8556 120.696 77.7479 121.036 77.6237 121.326C77.3836 121.932 77.1434 122.545 76.895 123.167C76.6714 123.839 76.2491 124.436 76.1166 125.008C76.0503 125.314 76.0338 125.663 75.951 126.036C75.9178 126.243 75.7771 126.475 75.6694 126.608C75.5452 126.765 75.4707 126.848 75.3961 127.006L75.1477 127.47C75.0649 127.619 75.0069 127.744 74.9572 127.901C74.8579 128.208 74.7999 128.556 74.684 128.929C74.5846 129.261 74.5018 129.593 74.4604 129.933C74.4107 130.239 74.4604 130.646 74.5432 130.671C74.568 130.687 74.684 130.704 74.7254 130.662C74.7999 130.621 74.8827 130.488 74.9572 130.347C75.0318 130.198 75.0897 130.04 75.156 129.858C75.2388 129.651 75.3299 129.502 75.4127 129.336L75.6694 128.847C75.7439 128.706 75.7853 128.573 75.8185 128.399C75.8516 128.225 75.8764 128.034 75.9344 127.835C75.9592 127.727 76.0255 127.578 76.0917 127.487C76.158 127.396 76.1911 127.338 76.216 127.296C76.2325 127.321 76.1828 127.197 76.2739 126.906C76.3484 126.749 76.4313 126.683 76.4727 126.633C76.4975 126.608 76.5058 126.591 76.5141 126.583L76.5638 126.492C76.63 126.367 76.6797 126.235 76.7211 126.086C76.8122 125.787 76.8619 125.489 77.0026 125.107C77.102 124.883 77.2511 124.742 77.3504 124.635C77.4498 124.519 77.4829 124.46 77.5243 124.328C77.5823 124.079 77.6403 123.665 77.7562 123.349C77.9632 122.694 78.2448 122.064 78.5595 121.451C78.7168 121.144 78.8907 120.846 78.9984 120.547L79.0977 120.323C79.1391 120.224 79.2137 120.124 79.2634 120.05C79.3793 119.892 79.4538 119.809 79.4787 119.71C79.5201 119.594 79.5283 119.419 79.5946 119.212C79.6608 118.988 79.7933 118.806 79.901 118.673C80.0086 118.532 80.108 118.408 80.1577 118.308C80.2074 118.201 80.2571 118.026 80.2985 117.861C80.3896 117.537 80.4972 117.148 80.7456 116.808C80.8616 116.65 80.9361 116.559 80.9775 116.435C81.0272 116.31 81.0603 116.144 81.1017 115.962C81.3253 115.216 81.433 114.693 81.6814 113.889C81.7642 113.707 81.9133 113.425 82.2693 113.342C82.435 113.309 82.584 113.342 82.7 113.383C82.8573 113.433 82.9981 113.566 83.0643 113.682C83.3127 114.154 83.2631 114.528 83.2713 114.901C83.2713 115.265 83.2134 115.647 83.2134 115.962C83.2134 116.31 83.2382 116.667 83.2299 117.048C83.2299 117.421 83.1885 117.819 83.0643 118.209C83.0312 118.308 82.9981 118.4 82.9484 118.499C82.907 118.59 82.8904 118.632 82.8656 118.706C82.8242 118.839 82.8159 118.988 82.7993 119.171C82.6585 120.564 82.4018 122.205 82.3853 123.515C82.3853 123.714 82.3687 123.938 82.3025 124.145L82.1369 124.676C82.0872 124.842 82.054 125.008 82.054 125.115C82.054 125.207 82.0872 125.248 82.17 125.323C82.2528 125.381 82.3604 125.389 82.377 125.373C82.3853 125.373 82.4184 125.364 82.4432 125.165C82.4681 125.008 82.4764 124.8 82.5261 124.577L82.6751 124.054C82.7496 123.756 82.6751 123.366 82.8159 122.902C82.8987 122.661 82.9649 122.545 83.0146 122.371C83.0726 122.205 83.114 122.031 83.1554 121.849L83.2217 121.575C83.2465 121.484 83.2465 121.442 83.2548 121.36C83.2548 121.21 83.2382 121.028 83.2217 120.821C83.2217 120.597 83.1802 120.406 83.3541 120.066C83.5943 119.743 83.4121 120.083 83.5695 119.594C83.6026 119.527 83.7185 119.287 83.909 119.204C84.116 119.113 84.2982 119.121 84.4969 119.196C84.8696 119.37 84.9689 119.66 85.06 119.875C85.2174 120.348 85.3002 120.696 85.4575 121.119L85.5817 121.094Z" fill="#242625"/>
<path d="M83.7005 134.013C83.5101 134.66 83.4438 135.215 83.4769 135.87C83.5183 136.5 83.4521 137.222 83.4521 137.777C83.4521 138.067 83.5018 138.333 83.6177 138.54C83.7916 138.822 83.8661 139.203 83.9489 139.444C84.0235 139.692 84.1891 139.941 84.2802 140.306C84.363 140.696 84.305 140.953 84.3216 141.251C84.3216 142.404 84.2885 143.523 84.2388 144.534C84.2222 145.04 84.2222 145.529 84.2471 145.994C84.2471 146.218 84.305 146.383 84.3878 146.599C84.4706 146.806 84.5369 147.063 84.5866 147.246C84.6445 147.445 84.7191 147.619 84.8102 147.793C84.9095 147.984 85.0006 148.183 85.0586 148.39C85.1828 148.804 85.1662 149.227 85.1 149.584C84.9344 150.247 84.9509 150.827 84.9758 151.308C84.9923 151.532 85.0586 151.739 85.0752 151.938C85.1 152.146 85.0752 152.295 85.0586 152.428C85.0338 152.685 85.0172 152.817 84.9923 152.817C84.9675 152.817 84.9427 152.685 84.9261 152.428C84.9095 152.303 84.9178 152.137 84.8764 151.972C84.8433 151.798 84.7522 151.599 84.7108 151.333C84.6445 150.844 84.5949 150.214 84.7274 149.517C84.7688 149.194 84.7688 148.854 84.6528 148.514C84.5949 148.34 84.5203 148.174 84.4127 148.008C84.305 147.818 84.2057 147.602 84.1311 147.387C84.0566 147.154 84.0069 146.98 83.9158 146.765C83.833 146.566 83.7336 146.276 83.7254 146.019C83.6757 145.529 83.6674 145.024 83.6757 144.51C83.7005 143.473 83.7088 142.404 83.6922 141.243C83.684 140.961 83.7088 140.629 83.6591 140.447C83.6094 140.231 83.4438 139.966 83.3361 139.643C83.2285 139.311 83.1871 139.079 83.038 138.83C82.8641 138.498 82.8062 138.125 82.7979 137.794C82.7979 137.097 82.8559 136.542 82.8062 135.878C82.7979 135.547 82.7979 135.207 82.831 134.85C82.8724 134.494 82.9635 134.162 83.0463 133.839C83.1291 133.515 83.2037 133.209 83.2368 132.918C83.2616 132.595 83.2865 132.28 83.3113 131.965C83.361 131.343 83.4438 130.655 83.3279 130.149C83.2699 129.9 83.1291 129.618 83.038 129.279C82.9469 128.93 82.9387 128.607 82.9387 128.284C82.9635 127.678 82.9801 127.081 83.0049 126.501C83.0298 125.921 83.0546 125.398 82.8973 124.934C82.7316 124.387 82.6323 123.839 82.6074 123.3C82.5909 122.239 82.6323 121.302 82.6323 120.44C82.6323 120.009 82.6157 119.586 82.6488 119.18C82.6737 118.765 82.7896 118.384 82.8807 118.052C82.9883 117.72 83.0298 117.381 83.2285 117.107C83.4024 116.85 83.5515 116.659 83.6177 116.435C83.7668 116.012 83.7419 115.598 83.8496 115.349C83.9407 115.109 83.9738 114.984 83.9986 114.984C84.0235 114.984 84.0318 115.134 83.9821 115.382C83.9158 115.623 83.9821 115.996 83.8661 116.51C83.8082 116.767 83.6343 117.032 83.4935 117.264C83.3444 117.488 83.3196 117.812 83.2368 118.143C83.0298 118.807 83.038 119.528 83.096 120.415C83.1126 121.286 83.1291 122.239 83.154 123.259C83.1871 123.748 83.2865 124.246 83.4438 124.743C83.6508 125.315 83.626 125.945 83.6094 126.518C83.5929 127.09 83.5846 127.678 83.568 128.275C83.568 128.557 83.5929 128.847 83.6591 129.096C83.7254 129.353 83.8744 129.627 83.9655 129.992C84.1146 130.721 84.0152 131.318 83.9655 131.981C83.9407 132.313 83.9158 132.645 83.8827 132.976C83.8496 133.333 83.7585 133.673 83.6757 133.996L83.7005 134.013Z" fill="#242625"/>
<path d="M86.6415 133.415C86.6415 133.746 86.6249 134.053 86.6084 134.352C86.6084 134.609 86.6084 135.015 86.5256 135.305C86.4924 135.454 86.4593 135.587 86.4593 135.687C86.4593 135.803 86.4759 135.952 86.4593 136.143C86.4096 136.532 86.3351 136.748 86.3185 137.021C86.2606 137.544 86.4593 137.909 86.7988 138.398C86.9562 138.638 87.1218 138.945 87.1632 139.285C87.2046 139.608 87.1798 139.907 87.1135 140.197C87.0555 140.471 86.9313 140.802 86.7574 141.026C86.6001 141.267 86.5338 141.349 86.5338 141.565C86.5587 142.046 86.5338 142.568 86.5338 143.008C86.5504 143.381 86.8071 143.829 86.8237 144.343C86.8402 144.823 86.7823 145.213 86.9065 145.528C86.981 145.694 87.0638 145.959 87.0555 146.175C87.0555 146.391 87.0307 146.598 86.9976 146.78C86.9148 147.162 86.8734 147.419 86.8568 147.775C86.774 148.422 86.6912 148.953 86.6663 149.4C86.6415 149.84 86.6415 150.196 86.7243 150.387C86.8071 150.578 86.9644 150.52 86.9644 150.553C86.9644 150.561 86.9396 150.578 86.8734 150.594C86.8071 150.619 86.6829 150.561 86.6084 150.453C86.4593 150.221 86.4179 149.856 86.4096 149.4C86.3931 148.944 86.4427 148.38 86.4924 147.75C86.5007 147.618 86.4924 147.427 86.509 147.245C86.5256 147.062 86.5587 146.888 86.5835 146.714C86.6332 146.349 86.6581 146.059 86.4759 145.711C86.2854 145.263 86.3517 144.782 86.3185 144.392C86.3185 144.011 86.0618 143.638 85.9956 143.066C85.979 142.56 85.9956 142.104 85.9625 141.573C85.9625 141.432 85.979 141.25 86.0453 141.084C86.1115 140.927 86.1943 140.811 86.2606 140.703C86.4013 140.504 86.4593 140.33 86.509 140.081C86.5504 139.849 86.567 139.608 86.5338 139.384C86.509 139.169 86.4096 138.986 86.2606 138.763C86.1198 138.539 85.9293 138.298 85.7968 137.983C85.6726 137.668 85.6312 137.32 85.6561 136.988C85.6726 136.681 85.772 136.325 85.7886 136.134C85.7886 136.026 85.7803 135.877 85.7886 135.703C85.7886 135.504 85.8382 135.347 85.8631 135.206C85.9376 134.915 85.9293 134.716 85.9376 134.36C85.9459 134.045 85.9707 133.746 85.9625 133.464C85.9625 133.183 85.9045 132.926 85.8631 132.594C85.8217 132.279 85.8051 131.964 85.7968 131.657C85.7968 131.06 85.7968 130.463 85.7968 129.883C85.7968 129.75 85.7968 129.568 85.7968 129.476C85.7886 129.377 85.7554 129.261 85.714 129.112C85.6147 128.788 85.6395 128.44 85.6561 128.175C85.6726 127.652 85.6892 127.047 85.772 126.516C85.8465 125.977 85.979 125.447 86.0618 124.983C86.1446 124.51 86.1612 124.037 86.1115 123.606C86.0535 123.167 85.921 122.727 85.83 122.28C85.7306 121.824 85.7306 121.368 85.7223 120.978C85.7057 120.165 85.7223 119.427 85.8051 118.772C85.8631 118.416 86.0039 118.142 86.095 117.894C86.1529 117.769 86.1529 117.686 86.1943 117.529C86.2357 117.388 86.3185 117.255 86.4179 117.172C86.509 117.089 86.567 117.04 86.5918 116.973C86.6249 116.899 86.6332 116.807 86.6498 116.724C86.6829 116.534 86.7905 116.393 86.8485 116.302C86.981 116.119 86.9562 115.995 86.981 115.987C86.9976 115.97 87.0721 116.127 86.9644 116.368C86.9148 116.484 86.8485 116.6 86.8402 116.758C86.8402 116.841 86.8402 116.94 86.8071 117.056C86.774 117.189 86.6663 117.288 86.6084 117.363C86.5421 117.438 86.509 117.512 86.4842 117.62C86.4676 117.703 86.4593 117.885 86.4096 118.018C86.3268 118.291 86.2109 118.565 86.186 118.839C86.1364 119.452 86.1612 120.182 86.2109 120.978C86.2357 121.392 86.244 121.782 86.3517 122.188C86.451 122.603 86.6001 123.042 86.6829 123.54C86.7657 124.046 86.7491 124.568 86.6663 125.09C86.5835 125.621 86.4593 126.102 86.4013 126.616C86.3268 127.138 86.3268 127.627 86.3103 128.224C86.2937 128.506 86.2854 128.738 86.3599 128.962C86.3931 129.087 86.451 129.244 86.4676 129.427C86.4842 129.626 86.4676 129.733 86.4759 129.891C86.4759 130.471 86.4759 131.06 86.4759 131.657C86.4759 131.947 86.5007 132.237 86.5421 132.528L86.6084 132.967C86.6332 133.141 86.6498 133.307 86.6498 133.473L86.6415 133.415Z" fill="#242625"/>
<path d="M55.0262 143.489C55.6142 143 56.1773 142.511 56.7073 142.022C57.229 141.532 57.7755 141.043 58.2972 140.629C59.3572 139.791 60.2929 139.095 61.0134 138.382C62.4957 137.014 63.448 136.201 63.506 136.267C63.5722 136.334 62.7358 137.271 61.3363 138.73C60.6656 139.484 59.6967 140.272 58.6864 141.11C58.1647 141.532 57.6844 141.988 57.1462 142.502C56.6079 143 56.0448 143.506 55.4486 144.003C53.0554 146.001 50.7864 147.56 49.0805 148.713C48.6416 148.986 48.2524 149.193 47.9212 149.417C47.5899 149.633 47.3084 149.815 47.0765 149.965C46.8943 150.122 46.7701 150.329 46.6459 150.429C46.5217 150.537 46.4389 150.553 46.4306 150.537C46.414 150.512 46.472 150.462 46.5465 150.338C46.6293 150.222 46.6873 150.014 46.9026 149.774C47.1593 149.55 47.3995 149.368 47.7141 149.111C48.0288 148.854 48.4263 148.597 48.8321 148.315C50.4054 147.112 52.691 145.446 55.0345 143.489H55.0262Z" fill="#242625"/>
<path d="M60.17 161.572C63.2422 159.375 66.0661 157.427 68.0866 156.05C68.5504 155.652 68.9727 155.288 69.3453 154.972C69.7263 154.641 70.0906 154.425 70.3473 154.21C70.604 154.002 70.7531 153.787 70.9022 153.654C71.0429 153.521 71.1423 153.488 71.1506 153.505C71.1671 153.521 71.1009 153.596 71.0015 153.745C70.9021 153.886 70.7779 154.143 70.5212 154.4C70.2728 154.666 69.9333 154.914 69.5938 155.254C69.2377 155.594 68.8319 155.992 68.3847 156.423C66.3973 157.932 63.6232 159.931 60.5675 162.12C59.0438 163.222 57.5449 164.225 56.2531 165.204C55.6155 165.71 55.0192 166.215 54.4147 166.647C53.8102 167.053 53.2471 167.426 52.7337 167.766C51.6903 168.413 50.9036 169.043 50.3322 169.432C50.0838 169.615 49.9016 169.864 49.7029 169.938C49.5041 170.021 49.3965 169.955 49.4047 169.938C49.4047 169.913 49.5041 169.922 49.6366 169.822C49.7774 169.731 49.8933 169.507 50.1666 169.242C50.6883 168.786 51.4253 168.106 52.4521 167.393C52.949 167.028 53.5038 166.63 54.0918 166.207C54.6632 165.776 55.2345 165.262 55.8722 164.74C57.1723 163.711 58.6463 162.708 60.1866 161.597L60.17 161.572Z" fill="#242625"/>
<path d="M62.9006 168.844C64.0103 167.857 65.0371 166.887 65.948 165.984C66.8175 165.038 67.6042 164.193 68.2584 163.48C69.5917 162.029 70.3701 161.142 70.428 161.175C70.4612 161.2 70.3369 161.481 70.0223 161.938C69.7076 162.394 69.2273 163.024 68.6145 163.778C67.9851 164.533 67.2399 165.445 66.3786 166.415C65.4843 167.36 64.4492 168.347 63.3312 169.342C62.2216 170.353 61.0954 171.224 60.1596 172.086C59.2156 172.948 58.3792 173.769 57.6422 174.416C56.1682 175.734 55.0751 176.315 55.0337 176.24C54.9757 176.157 55.9529 175.452 57.3192 174.068C58.0066 173.388 58.8015 172.534 59.7373 171.63C60.6813 170.718 61.791 169.839 62.8923 168.836L62.9006 168.844Z" fill="#242625"/>
<path d="M102.54 169.905C100.42 167.949 98.524 166.158 97.1742 164.831C95.8244 163.505 95.0211 162.651 95.0791 162.584C95.1371 162.518 96.0563 163.248 97.4889 164.483C98.9215 165.718 100.868 167.46 102.987 169.416C105.107 171.373 107.004 173.164 108.362 174.49C109.712 175.817 110.515 176.671 110.449 176.737C110.382 176.804 109.471 176.074 108.039 174.839C106.606 173.603 104.66 171.862 102.54 169.905Z" fill="#242625"/>
<path d="M106.409 163.811C109.133 165.121 111.675 166.241 113.373 167.343C115.079 168.421 115.94 169.35 115.89 169.4C115.824 169.483 114.872 168.695 113.133 167.75C111.419 166.771 108.876 165.735 106.119 164.408C103.37 163.082 100.968 161.697 99.287 160.627C97.5977 159.558 96.6123 158.812 96.6619 158.737C96.7116 158.654 97.7882 159.259 99.5272 160.221C101.266 161.183 103.684 162.485 106.417 163.803L106.409 163.811Z" fill="#242625"/>
<path d="M106.417 156.548C109.514 157.75 112.321 158.836 114.358 159.624C116.387 160.42 117.638 160.934 117.605 161.017C117.571 161.1 116.271 160.743 114.193 160.064C112.114 159.384 109.274 158.372 106.169 157.162C103.063 155.951 100.289 154.765 98.3099 153.853C96.3225 152.95 95.1217 152.328 95.1631 152.245C95.2046 152.162 96.4715 152.626 98.5004 153.422C100.529 154.218 103.328 155.321 106.425 156.54L106.417 156.548Z" fill="#242625"/>
<path d="M107.652 145.155C110.84 146.424 113.722 147.568 115.809 148.397C117.896 149.243 119.171 149.79 119.138 149.881C119.105 149.964 117.771 149.574 115.643 148.845C113.515 148.115 110.6 147.046 107.404 145.777C104.215 144.517 101.35 143.298 99.2965 142.369C97.2429 141.449 96.0007 140.819 96.0338 140.736C96.067 140.653 97.3836 141.126 99.4787 141.938C101.566 142.759 104.456 143.903 107.644 145.155H107.652Z" fill="#242625"/>
<path d="M58.3152 152.319C60.9734 149.616 63.201 146.996 64.824 145.106C66.4471 143.215 67.4657 142.054 67.5402 142.112C67.6064 142.17 66.7204 143.431 65.1884 145.404C63.6564 147.369 61.4702 150.055 58.7872 152.792C56.1042 155.519 53.3632 157.683 51.2432 159.027C50.1833 159.698 49.3055 160.204 48.6679 160.502C48.0385 160.809 47.6824 160.958 47.6576 160.917C47.6079 160.818 48.9577 160.071 50.9782 158.637C53.0071 157.211 55.6487 155.022 58.3069 152.327L58.3152 152.319Z" fill="#242625"/>
<path d="M78.1375 165.22C77.8477 165.634 77.4916 165.941 77.1686 166.231C76.8457 166.513 76.5062 166.82 76.5144 167.002C76.473 167.152 76.7711 167.392 77.0527 167.384C77.2018 167.384 77.3674 167.351 77.5247 167.284C77.6241 167.243 77.6489 167.235 77.8063 167.152L78.3114 166.878C78.3942 167.011 78.4936 167.152 78.5598 167.301C78.6344 167.442 78.6592 167.658 78.6592 167.807C78.6592 168.047 78.593 168.263 78.5267 168.453C78.4605 168.644 78.3859 168.818 78.3114 168.984C78.2452 169.133 78.212 169.266 78.1955 169.415C78.1623 169.705 78.2534 169.987 78.3942 170.045C78.5433 170.137 78.8165 170.045 79.0898 169.904C79.2306 169.838 79.3797 169.763 79.5536 169.697C79.7275 169.631 80.0753 169.589 80.2574 169.73C80.5307 169.83 80.4396 170.079 80.3816 170.327C80.3402 170.477 80.3071 170.617 80.2657 170.758C80.1249 171.297 79.9842 171.803 79.8682 172.251C79.8434 172.35 79.8103 172.45 79.7854 172.549C79.7689 172.599 79.7523 172.649 79.7357 172.699L79.7109 172.781C79.7109 172.781 79.7523 172.781 79.7771 172.781C79.8268 172.781 79.8682 172.773 79.9179 172.757C79.9842 172.748 80.1746 172.674 80.2906 172.599C80.4148 172.524 80.5224 172.45 80.6135 172.367C80.9779 172.044 81.0607 171.762 81.1021 171.778C81.1269 171.778 81.1104 172.093 80.7626 172.508C80.6715 172.607 80.5638 172.715 80.4231 172.806C80.2823 172.906 80.1581 172.989 79.8765 173.072C79.7523 173.105 79.6198 173.138 79.4873 173.155C79.4211 173.155 79.33 173.188 79.2886 173.171L79.3134 172.972C79.3217 172.84 79.3714 172.674 79.4045 172.508C79.4293 172.392 79.4542 172.267 79.479 172.143C79.5784 171.687 79.686 171.181 79.802 170.634C79.8268 170.501 79.8599 170.369 79.8848 170.236C79.8848 170.203 79.9179 170.153 79.8599 170.145C79.802 170.145 79.8268 170.128 79.7109 170.17C79.595 170.219 79.4625 170.286 79.3134 170.36C79.0401 170.493 78.6344 170.742 78.1292 170.526C77.8891 170.418 77.7317 170.186 77.6572 169.979C77.5827 169.763 77.5661 169.548 77.5827 169.341C77.591 169.133 77.6489 168.918 77.7235 168.727C77.7897 168.553 77.8642 168.387 77.9139 168.23C77.9719 168.072 78.005 167.915 78.005 167.774C78.005 167.724 78.005 167.74 77.9884 167.732H77.9719C77.9719 167.732 77.798 167.832 77.7152 167.865C77.5081 167.948 77.268 168.014 77.003 168.014C76.7297 168.014 76.4647 167.931 76.2329 167.765C76.001 167.616 75.7857 167.301 75.8106 166.944C75.8354 166.596 76.0259 166.356 76.1832 166.182C76.3571 165.999 76.5144 165.867 76.6801 165.717C77.003 165.427 77.3177 165.145 77.5413 164.822C77.6903 164.606 77.7897 164.358 77.8145 164.117C77.8642 163.902 77.74 163.57 77.7649 163.661H77.5992C77.4667 163.678 77.3343 163.678 77.1935 163.661C76.9202 163.636 76.6221 163.578 76.3488 163.354C76.0755 163.139 75.943 162.741 76.0093 162.417C76.0673 162.094 76.2246 161.87 76.3819 161.663C77.0113 160.933 77.591 160.328 78.1623 159.706C79.2968 158.487 80.3071 157.401 81.1518 156.497C81.5741 156.05 81.806 155.635 81.7977 155.146C81.8143 154.69 81.8308 154.143 82.1786 153.877C82.4767 153.629 82.8163 153.604 83.0067 153.695C83.1972 153.795 83.2055 153.927 83.1889 153.927C83.1641 153.944 83.1144 153.853 82.957 153.811C82.808 153.778 82.5513 153.836 82.336 154.052C82.1124 154.251 82.1207 154.657 82.1372 155.146C82.1372 155.395 82.1207 155.702 81.9882 155.992C81.8639 156.282 81.6735 156.531 81.4747 156.779C80.6549 157.716 79.686 158.836 78.593 160.096C78.0547 160.718 77.4419 161.389 76.8871 162.044C76.3405 162.757 76.6966 163.164 78.1209 162.923C78.5019 163.462 78.5101 163.785 78.477 164.167C78.4356 164.532 78.2948 164.88 78.0878 165.178L78.1375 165.22Z" fill="#242625"/>
<path d="M91.2461 165.079C91.1136 165.452 90.7161 165.66 90.4263 165.701C90.1199 165.751 89.8466 165.726 89.5899 165.684C89.3415 165.651 89.0517 165.552 88.8778 165.51C88.679 165.469 88.4637 165.452 88.2733 165.477C88.0828 165.494 87.9006 165.56 87.8426 165.635C87.7764 165.693 87.7681 165.801 87.8178 165.892C87.8675 166 88.0248 166.132 88.1987 166.257L88.472 166.472C88.6293 166.605 88.7618 166.762 88.8943 166.912C88.8115 167.069 88.7453 167.235 88.6128 167.368C88.5382 167.426 88.472 167.492 88.3892 167.533C88.3312 167.567 88.2815 167.591 88.2236 167.616C88.0331 167.683 87.8509 167.757 87.6687 167.824C87.3541 167.956 87.263 168.105 87.3127 168.379C87.3706 168.653 87.5611 168.943 87.7764 169.183C88.0083 169.432 88.2733 169.722 88.4389 170.062C88.6211 170.377 88.7039 170.891 88.4389 171.248C88.1822 171.613 87.7598 171.712 87.4369 171.704C86.7496 171.704 86.2444 171.322 85.8386 171.115C85.7476 171.065 85.5985 170.999 85.5654 170.983C85.5157 170.958 85.466 170.941 85.408 170.924C85.3252 170.883 85.3501 170.958 85.3501 171.007C85.3501 171.065 85.3501 171.124 85.3501 171.173C85.3666 171.555 85.3749 171.886 85.3915 172.152C85.408 172.691 85.3915 172.981 85.3584 172.981C85.3252 172.981 85.259 172.699 85.1845 172.168C85.1513 171.903 85.1016 171.58 85.052 171.198C85.0354 171.065 85.0188 170.916 85.0023 170.775C85.0023 170.643 84.9277 170.41 85.1513 170.51C85.3004 170.535 85.4577 170.56 85.6316 170.618C85.8055 170.676 85.8801 170.709 86.0126 170.767C86.4763 170.974 86.9152 171.264 87.4286 171.24C87.9586 171.24 88.2898 170.817 87.9669 170.303C87.8261 170.046 87.6108 169.813 87.3541 169.556C87.0974 169.275 86.8406 168.951 86.733 168.495C86.675 168.271 86.6916 167.973 86.8406 167.732C86.9814 167.492 87.2216 167.343 87.4203 167.26C87.6025 167.185 87.7847 167.119 87.9669 167.044C88 167.028 88.0414 167.011 88.0662 166.994C88.0662 166.994 88.0662 166.994 88.0745 166.994C88.0745 166.994 88.0828 166.986 88.0745 166.978L87.8012 166.771C87.6273 166.63 87.4038 166.489 87.2381 166.198C87.0725 165.9 87.0891 165.461 87.3623 165.187C87.6273 164.922 87.9255 164.864 88.1987 164.83C88.472 164.797 88.737 164.814 89.0103 164.872C89.3001 164.938 89.4657 165.005 89.6976 165.038C90.1282 165.121 90.5836 165.054 90.6251 164.847C90.683 164.739 90.6251 164.573 90.476 164.383C90.3352 164.2 90.1282 164.026 89.9129 163.835C89.4906 163.462 89.0765 163.098 88.6707 162.733C88.4637 162.55 88.265 162.368 88.0662 162.194C87.8675 162.003 87.6191 161.779 87.5114 161.414C87.412 161.041 87.5197 160.585 87.9503 160.378C88.149 160.287 88.3726 160.303 88.5382 160.353C88.7039 160.403 88.8281 160.469 88.9357 160.519C89.1676 160.635 89.2835 160.668 89.4077 160.627C89.5402 160.585 89.681 160.453 89.739 160.312C89.8798 159.988 89.739 159.856 89.2753 159.59C88.8198 159.292 88.6045 158.828 88.4223 158.479C88.2401 158.115 88.0414 157.849 87.7598 157.625C87.2133 157.186 86.5591 156.954 86.0208 156.688C85.466 156.431 85.0106 156.133 84.6959 155.818C84.05 155.171 84.1245 154.582 84.1576 154.599C84.2156 154.582 84.2404 155.097 84.8781 155.627C85.1927 155.884 85.6233 156.133 86.1699 156.348C86.7164 156.581 87.3872 156.771 88.0497 157.261C88.3809 157.493 88.6707 157.866 88.8695 158.239C89.0765 158.604 89.2587 158.952 89.5734 159.134C89.739 159.242 89.9791 159.333 90.1862 159.607C90.4097 159.889 90.3932 160.279 90.269 160.56C90.1448 160.842 89.9212 161.091 89.5899 161.215C89.4243 161.273 89.2421 161.29 89.06 161.249C88.8943 161.207 88.7618 161.149 88.6459 161.091C88.1573 160.834 88.0911 160.958 88.1076 161.265C88.1822 161.555 88.7039 161.912 89.0931 162.268C89.4988 162.625 89.9212 162.99 90.3435 163.363C90.5505 163.545 90.7824 163.736 90.9894 164.001C91.0888 164.134 91.1882 164.292 91.2544 164.482C91.3124 164.673 91.3207 164.922 91.2378 165.129L91.2461 165.079Z" fill="#242625"/>
<path d="M83.4297 98.6413C86.179 98.7574 86.328 101.336 87.5288 102.745C88.7295 104.155 89.0111 104.296 89.5079 106.112C90.0048 107.927 90.3526 108.06 91.9757 110.282C93.5987 112.504 93.9051 114.27 93.1764 115.738C92.5388 117.015 90.4851 118.026 89.0773 117.761C87.6613 117.496 87.3797 116.683 87.3797 116.683C87.3797 116.683 87.7358 117.894 83.9928 118.234C80.2498 118.573 80.109 116.749 80.109 116.749C80.109 116.749 79.9682 118.043 77.6413 118.275C75.3143 118.507 74.1302 116.683 73.6581 115.539C72.9129 113.723 74.1136 111.567 75.099 110.083C76.0845 108.599 76.0845 107.455 77.9974 104.769C79.902 102.074 80.3243 98.5086 83.438 98.6413H83.4297Z" fill="white" stroke="#242625" stroke-width="1.2" stroke-miterlimit="10"/>
<path d="M156.118 54.1896C155.861 55.1514 155.149 55.624 155.042 55.483C154.909 55.3504 155.282 54.7866 155.472 54.0155C155.687 53.2527 155.646 52.5811 155.828 52.5314C155.994 52.465 156.375 53.2278 156.118 54.1896Z" fill="#242625"/>
<path d="M157.851 56.1793C157.528 56.9504 157.023 57.4396 156.874 57.3318C156.717 57.224 156.94 56.627 157.23 55.9223C157.528 55.2175 157.793 54.6371 157.984 54.6703C158.158 54.7035 158.174 55.3999 157.851 56.1793Z" fill="#242625"/>
<path d="M153.85 58.2519C154.281 57.4726 154.596 56.7927 154.786 56.8424C154.96 56.8839 154.919 57.7047 154.438 58.5753C153.966 59.4459 153.296 59.9351 153.171 59.8024C153.031 59.6697 153.428 59.0396 153.859 58.2519H153.85Z" fill="#242625"/>
<path d="M145.808 99.592C146.967 99.0614 147.92 98.6302 148.019 98.7878C148.118 98.937 147.29 99.6501 146.081 100.197C144.872 100.753 143.796 100.91 143.746 100.736C143.696 100.554 144.64 100.123 145.8 99.592H145.808Z" fill="#242625"/>
<path d="M140.152 103.365C140.724 103.025 141.229 102.768 141.353 102.901C141.477 103.033 141.138 103.556 140.492 103.937C139.846 104.319 139.225 104.368 139.167 104.194C139.109 104.02 139.581 103.705 140.152 103.365Z" fill="#242625"/>
<path d="M143.979 103.796C144.807 103.298 145.561 103.025 145.652 103.182C145.743 103.34 145.147 103.87 144.319 104.368C143.491 104.865 142.737 105.139 142.646 104.981C142.555 104.824 143.151 104.293 143.979 103.796Z" fill="#242625"/>
<path d="M69.8308 46.7438C69.7646 47.5232 69.7315 48.1865 69.5493 48.2113C69.3754 48.2445 69.1021 47.5646 69.1683 46.6857C69.2346 45.8069 69.599 45.1767 69.7729 45.2431C69.955 45.3011 69.8888 45.9561 69.8308 46.7438Z" fill="#242625"/>
<path d="M72.2993 49.156C72.3572 49.753 72.6388 50.2007 72.5146 50.3417C72.4566 50.408 72.2744 50.3666 72.084 50.1759C71.8852 49.9935 71.6948 49.6452 71.6451 49.2307C71.5954 48.8161 71.703 48.4347 71.8521 48.2108C72.0012 47.9787 72.1585 47.8958 72.233 47.9455C72.3821 48.0533 72.2248 48.5591 72.3076 49.1477L72.2993 49.156Z" fill="#242625"/>
<path d="M72.5551 42.9711C72.5551 43.9412 72.406 44.7206 72.2238 44.7206C72.0416 44.7206 71.8926 43.9329 71.8926 42.9711C71.8926 42.0094 72.0416 41.2217 72.2238 41.2217C72.406 41.2217 72.5551 42.0011 72.5551 42.9711Z" fill="#242625"/>
<path d="M19.5396 102.453C20.2269 102.818 20.8645 102.992 20.8563 103.182C20.8563 103.365 20.0696 103.481 19.2249 103.041C18.3885 102.602 18.0324 101.881 18.1815 101.781C18.3306 101.665 18.8357 102.096 19.5313 102.453H19.5396Z" fill="#242625"/>
<path d="M20.4444 98.6304C21.3222 99.103 21.8025 99.7746 21.67 99.9073C21.5375 100.04 20.9081 99.642 20.1214 99.2191C19.3347 98.788 18.6557 98.4895 18.6971 98.3071C18.7302 98.133 19.5583 98.1578 20.4361 98.6304H20.4444Z" fill="#242625"/>
<path d="M25.7519 103.207C26.7125 103.737 27.4164 104.301 27.3253 104.459C27.2342 104.616 26.3896 104.318 25.429 103.787C24.4684 103.257 23.7645 102.693 23.8556 102.535C23.9467 102.378 24.7913 102.676 25.7519 103.207Z" fill="#242625"/>
<path d="M154.072 139.756C154.759 140.668 154.924 141.605 154.751 141.655C154.568 141.721 154.163 140.975 153.542 140.154C152.929 139.333 152.324 138.728 152.44 138.579C152.54 138.429 153.392 138.844 154.08 139.756H154.072Z" fill="#242625"/>
<path d="M154.165 145.218C154.521 145.824 154.687 146.387 154.53 146.479C154.372 146.57 153.95 146.163 153.594 145.558C153.238 144.953 153.072 144.389 153.229 144.298C153.387 144.207 153.809 144.613 154.165 145.218Z" fill="#242625"/>
<path d="M157.541 145.924C158.046 146.604 158.344 147.242 158.195 147.35C158.046 147.458 157.516 147.002 157.011 146.322C156.506 145.642 156.208 145.003 156.357 144.896C156.506 144.788 157.036 145.244 157.541 145.924Z" fill="#242625"/>
<path d="M34.5625 142.59C35.2332 142.217 35.846 142.043 35.9371 142.209C36.0282 142.366 35.5562 142.806 34.8937 143.179C34.2312 143.552 33.6102 143.726 33.5191 143.56C33.428 143.403 33.9 142.963 34.5625 142.59Z" fill="#242625"/>
<path d="M31.5069 146.463C32.2274 146.057 32.9313 146.057 32.9644 146.239C33.0058 146.421 32.4593 146.695 31.8299 147.052C31.2005 147.4 30.6788 147.715 30.5464 147.582C30.4139 147.458 30.7782 146.869 31.5069 146.463Z" fill="#242625"/>
<path d="M37.0642 145.311C37.6936 144.896 38.1904 144.498 38.3395 144.606C38.4886 144.705 38.1656 145.377 37.4286 145.866C36.6916 146.355 35.9546 146.38 35.9132 146.206C35.8635 146.024 36.4349 145.725 37.0642 145.311Z" fill="#242625"/>
<path d="M78.6932 109.119C78.4697 109.816 78.2958 110.413 78.1136 110.413C77.9314 110.413 77.8072 109.716 78.0639 108.92C78.3123 108.116 78.8175 107.627 78.9665 107.735C79.1239 107.834 78.9168 108.423 78.6932 109.127V109.119Z" fill="#242625"/>
<path d="M77.1031 114.466C77.0369 115.014 76.9872 115.486 76.805 115.528C76.6311 115.569 76.3661 115.063 76.4406 114.392C76.5152 113.72 76.8878 113.281 77.0452 113.364C77.2108 113.447 77.1611 113.919 77.1031 114.466Z" fill="#242625"/>
<path d="M80.0824 113.107C80.0824 113.704 79.9333 114.185 79.7512 114.185C79.569 114.185 79.4199 113.704 79.4199 113.107C79.4199 112.51 79.569 112.029 79.7512 112.029C79.9333 112.029 80.0824 112.51 80.0824 113.107Z" fill="#242625"/>
<path d="M92.6276 176.485C92.6773 176.668 92.7187 176.842 92.7435 176.999C92.7601 177.074 92.7684 177.165 92.7766 177.223C92.7766 177.281 92.8015 177.289 92.7518 177.331C92.7104 177.372 92.7104 177.397 92.7104 177.397V177.381C92.7104 177.323 92.7104 177.455 92.7104 177.439V177.472C92.7104 177.472 92.6607 177.447 92.6276 177.455C92.7435 177.339 92.7104 177.43 92.669 177.381C92.6524 177.372 92.6276 177.356 92.6524 177.306C92.7021 177.231 92.8429 177.298 92.8677 177.339C92.8926 177.389 92.9919 177.447 92.8677 177.646C92.7684 177.737 92.6855 177.737 92.6276 177.729C92.553 177.729 92.4785 177.687 92.4288 177.646C92.2301 177.472 92.2052 177.298 92.139 177.165C92.081 177.016 92.0231 176.842 91.9651 176.668C91.7581 175.946 91.7332 175.324 91.9154 175.275C92.0893 175.225 92.404 175.764 92.611 176.485H92.6276Z" fill="#242625"/>
<path d="M94.4106 173.094C94.6673 173.658 94.9157 174.123 94.7749 174.255C94.6507 174.388 94.1207 174.048 93.8061 173.376C93.4914 172.705 93.5742 172.083 93.7481 172.066C93.9386 172.041 94.1373 172.531 94.4023 173.094H94.4106Z" fill="#242625"/>
<path d="M96.1377 179.338C96.4193 179.869 96.5104 180.366 96.3447 180.458C96.1791 180.54 95.823 180.184 95.5415 179.653C95.2599 179.123 95.1688 178.625 95.3345 178.542C95.5001 178.459 95.8562 178.816 96.1377 179.346V179.338Z" fill="#242625"/>
<path d="M8.85771 42.6985C9.46222 41.9689 10.1413 41.3802 10.8037 40.9159C11.4828 40.4681 12.1453 40.1448 12.7332 39.9624C13.9091 39.581 14.6792 39.6307 14.6792 39.7054C14.6958 39.8214 13.9671 39.9375 12.9071 40.4018C12.3771 40.6257 11.7809 40.9739 11.1598 41.4134C10.5553 41.8694 9.93423 42.4332 9.37113 43.113C8.82458 43.8012 8.39397 44.5226 8.07101 45.2107C7.76462 45.9072 7.54103 46.5622 7.43338 47.126C7.19323 48.2619 7.21807 48.9998 7.10214 49.0081C7.03589 49.0164 6.82887 48.2702 6.96136 47.0514C7.01933 46.4378 7.20151 45.7248 7.49963 44.9703C7.8143 44.2241 8.26148 43.4364 8.84942 42.6985H8.85771Z" fill="#242625"/>
<path d="M19.1101 38.4689C20.0293 38.4689 20.667 38.9166 20.5842 39.0741C20.5096 39.2482 19.872 39.1239 19.1101 39.1322C18.3483 39.1322 17.7107 39.2482 17.6361 39.0741C17.5533 38.9166 18.191 38.4606 19.1101 38.4689Z" fill="#242625"/>
<path d="M7.95525 77.2889C9.26365 79.0964 9.81847 81.0946 9.95925 82.5207C10.1 83.9634 9.90128 84.8422 9.82675 84.8339C9.7191 84.8339 9.74394 83.9468 9.49551 82.587C9.24709 81.2355 8.65914 79.3783 7.42527 77.6786C6.82076 76.8329 6.06719 76.1198 5.53721 75.2907C4.99066 74.4699 4.75052 73.5661 4.72567 72.8365C4.67599 71.3358 5.25566 70.5315 5.30534 70.5813C5.41299 70.6144 5.03207 71.4519 5.19769 72.7951C5.2805 73.4666 5.52893 74.2294 6.05063 74.9508C6.55577 75.6804 7.31762 76.3769 7.97182 77.2889H7.95525Z" fill="#242625"/>
<path d="M10.8371 140.517C13.0398 136.72 15.6566 134.266 15.7643 134.382C15.9133 134.523 13.5698 137.135 11.4167 140.849C9.23885 144.555 8.12092 147.888 7.93046 147.822C7.77312 147.789 8.61778 144.298 10.8454 140.509L10.8371 140.517Z" fill="#242625"/>
<path d="M18.5048 127.7C19.5648 126.249 20.749 125.362 20.8649 125.495C20.9974 125.635 20.0616 126.697 19.0431 128.09C18.0162 129.483 17.2792 130.693 17.1136 130.61C16.948 130.536 17.4366 129.143 18.5131 127.7H18.5048Z" fill="#242625"/>
<path d="M141.941 120.37C144.384 123.04 145.966 125.527 145.825 125.627C145.668 125.743 143.862 123.463 141.453 120.826C139.051 118.181 136.948 116.175 137.08 116.025C137.196 115.893 139.515 117.692 141.949 120.378L141.941 120.37Z" fill="#242625"/>
<path d="M148.592 130.245C149.039 130.767 149.287 131.281 149.146 131.406C149.006 131.53 148.534 131.199 148.086 130.676C147.639 130.154 147.391 129.64 147.532 129.515C147.672 129.391 148.144 129.723 148.592 130.245Z" fill="#242625"/>
<path d="M63.8277 179.321C64.78 179.196 65.7571 179.18 66.6184 179.462C67.0407 179.603 67.4299 179.827 67.728 180.109C68.0179 180.382 68.2249 180.672 68.4153 180.921C68.7797 181.419 69.0944 181.767 69.3759 181.908C69.6575 182.049 69.8562 182.032 69.8645 182.09C69.8728 182.123 69.674 182.239 69.2848 182.156C68.8956 182.065 68.465 181.692 68.051 181.228C67.6286 180.755 67.1732 180.249 66.4362 180.059C65.7157 179.843 64.838 179.868 63.9188 179.992C62.9913 180.109 62.0473 180.241 61.1778 180.109C60.3 180.009 59.5381 179.52 59.1406 178.989C58.7183 178.459 58.5941 177.87 58.6521 177.497C58.7018 177.115 58.8508 176.958 58.8839 176.966C58.9336 176.983 58.8839 177.173 58.9171 177.497C58.9419 177.812 59.1075 178.268 59.505 178.682C59.9025 179.097 60.4904 179.437 61.2689 179.503C62.0307 179.586 62.9085 179.454 63.8525 179.329L63.8277 179.321Z" fill="#242625"/>
<path d="M96.7779 60.1842C97.8958 58.6504 99.2125 57.5145 100.256 56.8429C101.299 56.1713 102.028 55.9225 102.061 55.9889C102.177 56.163 99.4526 57.5808 97.3244 60.5739C95.1548 63.5256 94.6579 66.5602 94.4509 66.5105C94.3764 66.5022 94.3847 65.7311 94.6993 64.5289C95.0057 63.3349 95.6765 61.7264 96.7861 60.1842H96.7779Z" fill="#242625"/>
<path d="M105.661 51.851C106.497 51.2126 107.333 50.9555 107.408 51.1214C107.491 51.2872 106.845 51.7846 106.066 52.3816C105.28 52.9786 104.642 53.4761 104.501 53.3517C104.369 53.2356 104.824 52.4894 105.661 51.851Z" fill="#242625"/>
<path d="M142.015 39.4393C143.862 38.436 145.733 37.7727 147.157 37.723C148.59 37.6484 149.41 38.0546 149.377 38.121C149.352 38.237 148.524 38.0049 147.199 38.1956C145.874 38.3614 144.143 39.0413 142.321 40.0279C140.491 41.0229 138.736 41.8686 137.344 42.1256C135.962 42.4158 135.075 42.2169 135.092 42.1422C135.092 42.0344 135.945 42.0593 137.229 41.6696C138.52 41.3048 140.168 40.4342 142.007 39.4393H142.015Z" fill="#242625"/>
<path d="M153.98 38.2121C154.642 38.5188 155.122 38.9002 155.04 39.0661C154.965 39.2319 154.361 39.1241 153.698 38.8173C153.036 38.5106 152.555 38.1292 152.638 37.9633C152.713 37.7975 153.317 37.9053 153.98 38.2121Z" fill="#242625"/>
<path d="M159.125 77.8684C157.933 79.9246 157.543 82.0886 157.336 83.6391C157.138 85.2061 157.08 86.1928 156.98 86.1845C156.898 86.1845 156.782 85.1978 156.864 83.5893C156.947 82.0057 157.287 79.7007 158.537 77.5367C159.142 76.4589 159.788 75.5137 160.26 74.6016C160.74 73.6979 161.03 72.819 161.154 72.0645C161.411 70.5389 160.93 69.6186 161.038 69.5771C161.071 69.5605 161.237 69.7595 161.402 70.1907C161.568 70.6218 161.701 71.2934 161.626 72.1225C161.56 72.9434 161.295 73.9051 160.814 74.8752C160.351 75.8453 159.713 76.8237 159.125 77.8601V77.8684Z" fill="#242625"/>
<path d="M128.974 105.529C130.05 106.275 131.226 106.59 132.087 106.698C132.949 106.806 133.512 106.756 133.528 106.856C133.545 106.93 132.998 107.162 132.062 107.171C131.135 107.179 129.793 106.914 128.601 106.085C127.996 105.67 127.541 105.189 127.094 104.841C126.655 104.476 126.224 104.236 125.827 104.12C125.024 103.871 124.51 104.161 124.469 104.07C124.444 104.037 124.535 103.912 124.783 103.788C125.032 103.664 125.438 103.581 125.926 103.655C126.415 103.722 126.97 103.979 127.466 104.343C127.972 104.708 128.444 105.164 128.982 105.529H128.974Z" fill="#242625"/>
<path d="M114.714 101.706C115.898 101.723 116.858 101.888 116.858 102.079C116.858 102.27 115.89 102.394 114.705 102.378C113.521 102.361 112.561 102.195 112.561 102.013C112.561 101.83 113.529 101.698 114.714 101.714V101.706Z" fill="#242625"/>
<path d="M103.37 94.4519C103.784 94.4519 104.214 94.5183 104.603 94.6841C104.984 94.8499 105.299 95.0738 105.564 95.3142C106.094 95.7868 106.467 96.2677 106.814 96.6326C107.469 97.3871 108.024 97.6524 107.99 97.7518C107.974 97.8348 107.278 97.6938 106.483 96.9725C105.688 96.334 104.819 95.0572 103.361 95.1235C102.641 95.1318 101.829 95.2147 101.134 95.0821C100.438 94.9743 99.8336 94.7421 99.3616 94.51C98.4176 94.0208 97.9952 93.5067 98.0449 93.4404C98.1112 93.3575 98.6246 93.7306 99.5521 94.0705C100.016 94.2364 100.579 94.4022 101.217 94.4685C101.862 94.5597 102.533 94.4685 103.37 94.4519Z" fill="#242625"/>
<path d="M87.2295 84.2787C87.6766 83.2838 88.4136 82.7449 88.5296 82.8692C88.6703 83.0019 88.2232 83.6735 87.834 84.5523C87.4365 85.4229 87.2295 86.2023 87.039 86.1857C86.8568 86.1857 86.774 85.2737 87.2212 84.2787H87.2295Z" fill="#242625"/>
<path d="M51.7563 118.951C54.3979 120.286 55.9299 122.193 55.7891 122.293C55.6483 122.434 53.9756 120.817 51.4499 119.548C48.9407 118.255 46.6469 117.857 46.68 117.658C46.68 117.492 49.1229 117.6 51.7563 118.96V118.951Z" fill="#242625"/>
<path d="M46.6043 124.566C48.2688 124.351 49.6352 124.508 49.6352 124.69C49.6352 124.881 48.3102 125.022 46.6954 125.229C45.0806 125.428 43.7557 125.627 43.7143 125.445C43.6646 125.271 44.9482 124.782 46.6126 124.574L46.6043 124.566Z" fill="#242625"/>
<path d="M50.2975 132.169C52.2269 130.759 53.8831 129.731 53.9908 129.881C54.0984 130.03 52.6244 131.298 50.695 132.708C48.7655 134.117 47.1093 135.146 47.0016 134.996C46.894 134.847 48.368 133.579 50.2975 132.169Z" fill="#242625"/>
<path d="M66.7409 106.888C67.8092 108.928 68.5462 110.644 68.3806 110.727C68.215 110.81 67.2212 109.226 66.153 107.203C65.093 105.18 64.356 103.455 64.5134 103.364C64.6707 103.273 65.6727 104.848 66.7409 106.888Z" fill="#242625"/>
<path d="M60.3739 113.828C61.6574 114.964 62.8416 115.735 62.7505 115.901C62.676 116.058 61.2848 115.528 59.935 114.325C58.5686 113.131 57.8647 111.821 58.0138 111.73C58.1711 111.622 59.0821 112.7 60.3739 113.828Z" fill="#242625"/>
<path d="M98.4899 106.466C100.187 104.376 101.678 102.768 101.819 102.884C101.96 103 100.701 104.791 99.0116 106.88C97.314 108.97 95.8234 110.578 95.6826 110.462C95.5418 110.346 96.8006 108.555 98.4899 106.466Z" fill="#242625"/>
<path d="M104.629 113.646C106.931 112.038 108.678 110.562 108.811 110.703C108.935 110.827 107.361 112.552 105.01 114.193C102.666 115.843 100.513 116.739 100.439 116.581C100.347 116.407 102.335 115.263 104.629 113.646Z" fill="#242625"/>
<path d="M113.472 119.399C118.067 117.244 121.653 115.187 121.752 115.353C121.802 115.428 120.958 116.041 119.525 116.912C118.092 117.782 116.063 118.91 113.753 119.996C111.434 121.091 109.281 121.936 107.7 122.484C106.118 123.031 105.108 123.288 105.083 123.205C105.017 123.023 108.884 121.563 113.472 119.391V119.399Z" fill="#242625"/>
<path d="M114.26 128.761C117.589 130.312 120.123 131.895 120.032 132.044C119.94 132.21 117.282 130.9 113.978 129.366C110.674 127.824 107.966 126.63 108.032 126.448C108.099 126.282 110.931 127.202 114.26 128.761Z" fill="#242625"/>
<path d="M60.7547 132.981C63.2473 131.007 65.3506 129.042 66.8329 127.575C68.3152 126.107 69.193 125.154 69.2758 125.22C69.3421 125.27 68.5802 126.331 67.1724 127.898C65.773 129.465 63.6862 131.505 61.1687 133.503C58.643 135.493 56.1753 137.043 54.3287 138.047C52.482 139.05 51.273 139.539 51.2398 139.464C51.1902 139.373 52.3247 138.735 54.0885 137.632C55.8606 136.538 58.2538 134.937 60.7547 132.972V132.981Z" fill="#242625"/>
<path d="M85.6141 105.072C85.6721 105.943 85.9371 106.731 86.2766 107.129C86.6161 107.535 87.0219 107.494 87.0301 107.61C87.0301 107.651 86.9473 107.717 86.7486 107.742C86.5581 107.767 86.2352 107.709 85.9536 107.485C85.3822 107.029 85.0096 106.125 84.9433 105.131C84.8854 104.235 84.6949 103.439 84.3968 103C84.0987 102.56 83.6929 102.519 83.7095 102.411C83.7095 102.37 83.8088 102.32 84.0076 102.328C84.1981 102.328 84.4962 102.436 84.7529 102.685C85.2746 103.19 85.5479 104.111 85.6141 105.081V105.072Z" fill="#242625"/>
<path d="M89.8367 112.602C90.0106 113.282 89.9692 113.928 89.8449 114.359C89.7207 114.799 89.5468 115.023 89.464 114.998C89.2818 114.94 89.4971 113.928 89.1908 112.767C88.9092 111.59 88.2302 110.819 88.3627 110.678C88.4206 110.612 88.6856 110.728 89.0003 111.059C89.315 111.383 89.6628 111.93 89.8367 112.61V112.602Z" fill="#242625"/>
<path d="M76.7042 179.934C77.0355 179.644 77.1762 179.204 77.2094 178.889C77.2508 178.566 77.2094 178.334 77.2922 178.292C77.3584 178.251 77.5903 178.425 77.6814 178.856C77.7808 179.27 77.6814 179.959 77.1431 180.44C76.5966 180.912 75.901 180.912 75.5035 180.763C75.0894 180.614 74.9404 180.365 74.9983 180.299C75.0563 180.216 75.2716 180.299 75.6029 180.299C75.9258 180.307 76.373 180.224 76.7042 179.934Z" fill="#242625"/>
<path d="M104.098 179.901C104.71 179.586 105.042 178.956 105.274 178.5C105.505 178.036 105.671 177.729 105.762 177.762C105.845 177.787 105.845 178.127 105.721 178.666C105.654 178.931 105.547 179.255 105.348 179.595C105.149 179.926 104.835 180.274 104.421 180.49C104.007 180.714 103.501 180.789 103.079 180.656C102.665 180.523 102.408 180.299 102.201 180.142C101.804 179.802 101.539 179.678 101.547 179.586C101.547 179.487 101.953 179.479 102.45 179.744C102.698 179.86 102.963 180.009 103.236 180.067C103.501 180.125 103.808 180.067 104.114 179.91L104.098 179.901Z" fill="#242625"/>
<path d="M143.968 151.777C147.347 152.673 150.204 152.789 150.196 152.996C150.212 153.162 147.273 153.344 143.795 152.424C140.317 151.52 137.849 149.92 137.94 149.779C138.031 149.597 140.582 150.907 143.96 151.777H143.968Z" fill="#242625"/>
<path d="M155.442 153.196C156.518 153.196 157.396 153.038 157.462 153.221C157.528 153.387 156.651 153.859 155.45 153.868C154.249 153.876 153.363 153.42 153.429 153.254C153.487 153.072 154.373 153.221 155.45 153.204L155.442 153.196Z" fill="#242625"/>
<path d="M93.4418 13.4292C94.7171 16.7706 94.7585 19.7057 94.5929 19.6974C94.3942 19.7223 94.0629 16.8949 92.8208 13.6614C91.6118 10.4195 89.9887 8.08134 90.1543 7.96526C90.2785 7.84919 92.1914 10.0795 93.4418 13.4209V13.4292Z" fill="#242625"/>
<path d="M100.321 36.2884C100.578 38.3364 100.553 40.1936 100.487 41.5285C100.42 42.8634 100.313 43.6842 100.222 43.6842C100.13 43.6842 100.073 42.8551 100.015 41.5285C99.9566 40.2019 99.9069 38.3696 99.6585 36.3714C99.4101 34.3732 98.9298 32.6237 98.4412 31.4049C97.9609 30.1861 97.5386 29.473 97.6296 29.415C97.6876 29.3736 98.259 30.0037 98.8718 31.2142C99.4929 32.4247 100.064 34.2405 100.321 36.2802V36.2884Z" fill="#242625"/>
<path d="M76.4819 12.7831C75.629 14.9305 75.2066 16.7712 75.0162 16.738C74.8423 16.7215 74.983 14.7647 75.8608 12.5344C76.7303 10.304 77.9559 8.77844 78.0967 8.88623C78.2623 8.99401 77.3183 10.6274 76.4819 12.7831Z" fill="#242625"/>
<path d="M59.2957 49.4805C59.8256 50.6661 60.3225 51.7606 61.0926 52.4819C61.8545 53.2116 62.7654 53.6759 63.4775 54.1319C64.2063 54.5796 64.7611 55.0273 65.0841 55.3921C65.407 55.7652 65.5147 56.014 65.4815 56.0389C65.4401 56.072 65.258 55.873 64.9019 55.5829C64.5458 55.2927 63.9827 54.9278 63.2374 54.5381C62.5087 54.1319 61.5564 53.7256 60.662 52.9296C59.7511 52.1254 59.2046 50.9149 58.6829 49.7541C57.6726 47.416 56.1737 45.6085 54.9481 44.514C54.3271 43.9917 53.6977 43.7512 53.2754 43.7678C52.8448 43.7844 52.6295 43.9751 52.5963 43.9254C52.5715 43.9088 52.7206 43.6186 53.2505 43.5108C53.7722 43.403 54.5258 43.6269 55.2463 44.1492C56.6209 45.2105 58.244 47.0594 59.2957 49.4888V49.4805Z" fill="#242625"/>
<path d="M71.4272 60.1336C71.9406 60.9876 72.1476 61.8913 72.1642 62.538C72.1808 63.1847 72.0565 63.5744 71.9737 63.5661C71.775 63.5661 71.7998 62.024 70.8558 60.4818C69.9449 58.9148 68.5868 58.2017 68.6696 58.0276C68.7028 57.9529 69.1002 58.0276 69.6633 58.3509C70.2182 58.6743 70.9138 59.2879 71.4272 60.1419V60.1336Z" fill="#242625"/>
<path d="M78.0126 83.7633C78.5011 86.1097 78.3769 88.0664 78.203 88.0664C78.0126 88.0664 77.8387 86.176 77.3584 83.8959C76.8946 81.6159 76.2984 79.8084 76.4723 79.7337C76.6296 79.6591 77.524 81.4086 78.0043 83.755L78.0126 83.7633Z" fill="#242625"/>
<rect width="163" height="41" transform="translate(0 79)" fill="white"/>
<path d="M1.8833 110V89.5669H4.81445L17.3887 107.621L14.0327 104.647H15.4062V89.5669H18.564V110H15.6328L3.05859 91.9175L6.41455 94.877H5.04102V110H1.8833ZM31.1807 110.34C29.2077 110.34 27.5037 109.915 26.0688 109.065C24.634 108.206 23.5295 106.989 22.7554 105.412C21.9813 103.826 21.5942 101.952 21.5942 99.7905V99.7622C21.5942 97.6004 21.9813 95.7313 22.7554 94.1548C23.5389 92.5783 24.6481 91.3652 26.083 90.5156C27.5179 89.6566 29.2171 89.2271 31.1807 89.2271C33.1348 89.2271 34.8293 89.6566 36.2642 90.5156C37.6991 91.3747 38.8035 92.5924 39.5776 94.1689C40.3517 95.736 40.7388 97.6004 40.7388 99.7622V99.7905C40.7388 101.952 40.3517 103.821 39.5776 105.398C38.8035 106.974 37.6991 108.192 36.2642 109.051C34.8387 109.91 33.1442 110.34 31.1807 110.34ZM31.1807 107.522C32.4834 107.522 33.6068 107.206 34.5508 106.573C35.4948 105.941 36.2217 105.044 36.7314 103.883C37.2412 102.722 37.4961 101.358 37.4961 99.7905V99.7622C37.4961 98.1857 37.2365 96.8216 36.7173 95.6699C36.2075 94.5088 35.4759 93.6167 34.5225 92.9937C33.5785 92.3612 32.4645 92.0449 31.1807 92.0449C29.8874 92.0449 28.764 92.3564 27.8105 92.9795C26.8665 93.6025 26.1349 94.4946 25.6157 95.6558C25.0965 96.8075 24.8369 98.1763 24.8369 99.7622V99.7905C24.8369 101.367 25.0965 102.736 25.6157 103.897C26.1349 105.058 26.8665 105.955 27.8105 106.587C28.7546 107.21 29.8779 107.522 31.1807 107.522ZM51.2173 103.019V100.357H56.4565C57.8254 100.357 58.8874 100.003 59.6426 99.2949C60.4072 98.5775 60.7896 97.5863 60.7896 96.3213V96.293C60.7896 95.0091 60.4072 94.0132 59.6426 93.3052C58.8874 92.5972 57.8254 92.2432 56.4565 92.2432H51.2173V89.5669H57.2495C58.59 89.5669 59.7653 89.8501 60.7754 90.4165C61.7949 90.9735 62.5926 91.757 63.1685 92.7671C63.7443 93.7677 64.0322 94.9336 64.0322 96.2646V96.293C64.0322 97.624 63.7443 98.7993 63.1685 99.8188C62.5926 100.829 61.7949 101.617 60.7754 102.184C59.7653 102.741 58.59 103.019 57.2495 103.019H51.2173ZM49.6313 110V89.5669H52.8032V110H49.6313ZM66.8218 110V89.5669H69.9937V110H66.8218ZM82.4971 110.34C80.5713 110.34 78.8957 109.91 77.4702 109.051C76.0542 108.192 74.9591 106.974 74.1851 105.398C73.411 103.812 73.0239 101.938 73.0239 99.7764V99.7622C73.0239 97.6004 73.411 95.7313 74.1851 94.1548C74.9591 92.5783 76.0542 91.3652 77.4702 90.5156C78.8862 89.6566 80.5618 89.2271 82.4971 89.2271C83.998 89.2271 85.3527 89.515 86.561 90.0908C87.7694 90.6667 88.7653 91.4644 89.5488 92.4839C90.3324 93.5034 90.828 94.6882 91.0356 96.0381L91.0498 96.1797H87.8921L87.8071 95.8965C87.59 95.0941 87.236 94.4049 86.7451 93.8291C86.2637 93.2533 85.6642 92.8143 84.9468 92.5122C84.2388 92.2007 83.4222 92.0449 82.4971 92.0449C81.2321 92.0449 80.1323 92.3612 79.1978 92.9937C78.2726 93.6261 77.5552 94.5182 77.0454 95.6699C76.5356 96.8216 76.2808 98.1857 76.2808 99.7622V99.7764C76.2808 101.343 76.5356 102.712 77.0454 103.883C77.5552 105.044 78.2773 105.941 79.2119 106.573C80.1465 107.206 81.2415 107.522 82.4971 107.522C83.4033 107.522 84.2104 107.371 84.9185 107.069C85.6359 106.757 86.2448 106.304 86.7451 105.709C87.2454 105.115 87.6183 104.388 87.8638 103.529L87.9062 103.387H91.064L91.0356 103.529C90.828 104.888 90.3324 106.082 89.5488 107.111C88.7747 108.131 87.7835 108.924 86.5752 109.49C85.3669 110.057 84.0075 110.34 82.4971 110.34ZM98.1582 110V92.314H91.9136V89.5669H107.589V92.314H101.344V110H98.1582ZM118.464 110.34C116.755 110.34 115.283 110.028 114.046 109.405C112.809 108.773 111.856 107.89 111.186 106.757C110.515 105.625 110.18 104.312 110.18 102.821V89.5669H113.352V102.566C113.352 103.557 113.55 104.426 113.947 105.171C114.353 105.908 114.933 106.484 115.688 106.899C116.453 107.314 117.378 107.522 118.464 107.522C119.549 107.522 120.47 107.314 121.225 106.899C121.98 106.484 122.556 105.908 122.953 105.171C123.349 104.426 123.547 103.557 123.547 102.566V89.5669H126.733V102.821C126.733 104.312 126.398 105.625 125.728 106.757C125.067 107.881 124.118 108.759 122.882 109.391C121.645 110.024 120.173 110.34 118.464 110.34ZM130.486 110V89.5669H138.43C139.817 89.5669 141.021 89.8218 142.041 90.3315C143.06 90.8413 143.844 91.5635 144.391 92.498C144.948 93.4326 145.227 94.5418 145.227 95.8257V95.854C145.227 97.2417 144.873 98.4548 144.165 99.4932C143.466 100.532 142.503 101.258 141.276 101.674L145.85 110H142.182L138.019 102.169C137.981 102.169 137.948 102.169 137.92 102.169C137.901 102.169 137.873 102.169 137.835 102.169H133.658V110H130.486ZM133.658 99.5498H138.118C139.336 99.5498 140.28 99.2336 140.95 98.6011C141.62 97.9591 141.956 97.0529 141.956 95.8823V95.854C141.956 94.7306 141.602 93.848 140.894 93.2061C140.195 92.5547 139.237 92.229 138.019 92.229H133.658V99.5498ZM148.299 110V89.5669H161.27V92.314H151.471V98.2612H160.746V100.923H151.471V107.253H161.27V110H148.299Z" fill="#E3E3E3"/>
</svg>
