<svg width="512" height="512" viewBox="0 0 512 512" fill="none" xmlns="http://www.w3.org/2000/svg">
<rect width="512" height="512" rx="10" fill="#F9F8F4"/>
<path fill-rule="evenodd" clip-rule="evenodd" d="M252.85 205.53C251.323 219.766 231.771 221.976 231.771 221.976H230.79C222.417 165.658 219.659 95.5705 257.12 45C294.579 95.5705 291.822 165.658 283.448 221.976H283.265C283.265 221.976 263.287 220.638 262.154 205.53C261.021 190.42 257.729 98.9619 257.729 98.9619C257.729 98.9619 254.378 191.292 252.85 205.53ZM45.3552 191.236C114.092 161.338 167.113 189.182 218.599 232.303H218.592C218.592 232.303 218.173 241.748 211.626 239.644C205.079 237.54 66.9707 191.342 66.9707 191.342C66.9707 191.342 204.076 243.292 209.419 246.107C214.762 248.923 216.559 255.803 216.559 255.803C200.748 246.353 181.335 245.5 161.989 244.649H161.989C148.556 244.058 135.155 243.469 123.015 240.004C103.225 234.356 89.101 223.153 75.0689 212.023C65.612 204.522 56.1967 197.054 45.1167 191.342L45.3552 191.236ZM466.64 193.611C397.904 163.713 344.881 191.557 293.395 234.678H293.402C293.402 234.678 293.823 244.123 300.369 242.02C306.916 239.916 445.025 193.718 445.025 193.718C445.025 193.718 307.92 245.666 302.576 248.483C297.233 251.299 295.436 258.177 295.436 258.177C311.246 248.729 330.659 247.875 350.005 247.025C363.439 246.434 376.84 245.845 388.981 242.38C408.769 236.732 422.892 225.53 436.923 214.401C446.381 206.899 455.797 199.43 466.879 193.718L466.64 193.611ZM236.844 278.4C236.844 267.95 245.922 259.477 257.121 259.477C268.32 259.477 277.398 267.95 277.398 278.4C277.398 288.852 268.32 297.324 257.121 297.324C245.922 297.324 236.844 288.852 236.844 278.4ZM226.959 256.969C222.534 241.773 230.174 230.821 244.528 226.638L244.869 226.668C243.603 229.732 242.002 234.288 243.666 237.568C247.307 244.737 261.39 244.59 267.368 241.71C273.434 238.789 273.951 231.335 269.875 226.638C284.23 230.821 291.87 241.773 287.444 256.969C286.495 260.226 285.038 264.078 283.724 267.555L283.723 267.557L283.723 267.557L283.723 267.558C283.361 268.514 283.011 269.441 282.684 270.32H282.575C282.575 270.32 274.218 252.376 255.745 252.9C237.271 253.425 231.784 270.32 231.784 270.32H231.718C231.388 269.432 231.034 268.495 230.669 267.529C229.357 264.059 227.905 260.218 226.959 256.969ZM281.922 289.747C281.922 289.747 282.576 313.228 257.122 313.197C231.668 313.167 231.785 288.053 231.785 288.053C231.785 288.053 218.267 289.614 216.752 303.317C215.237 317.019 224.193 331.06 235.118 337.792C242.135 342.115 246.588 339.659 250.564 337.467C252.778 336.245 254.844 335.106 257.122 335.266C259.364 335.423 261.182 336.599 263.076 337.824C266.561 340.079 270.3 342.498 277.399 339.028C288.354 333.672 297.691 318.853 295.441 304.739C293.19 290.626 281.922 289.747 281.922 289.747ZM314.116 309.98C302.364 297.9 289.532 284.708 293.072 270.456L293.403 270.322C340.057 270.322 370.654 316.384 402.322 364.057L402.322 364.058C424.819 397.925 447.855 432.604 477.571 452.16C433.17 454.393 392.767 443.249 364.373 421.439C336.218 399.811 313.674 374.75 294.761 337.344L294.758 337.342C295.781 331.827 303.361 311.748 311.4 319.338C319.44 326.928 412.603 422.2 412.603 422.2C412.603 422.2 334.68 332.57 321.984 318.3C319.571 315.589 316.873 312.815 314.116 309.981L314.116 309.98ZM477.571 452.16L477.767 452.15L478 452.138V452.441C477.857 452.348 477.714 452.254 477.571 452.16ZM197.889 307.602C209.639 295.522 222.469 282.332 218.929 268.081L218.597 267.947C171.944 267.947 141.347 314.009 109.68 361.681C87.1826 395.549 64.1456 430.229 34.4286 449.785C34.2858 449.778 34.1429 449.771 34 449.763V450.066C34.143 449.973 34.2859 449.879 34.4286 449.785C78.8303 452.018 119.233 440.874 147.626 419.065C175.783 397.436 198.327 372.375 217.24 334.969L217.242 334.968C216.22 329.452 208.64 309.373 200.6 316.962C192.561 324.554 99.3973 419.826 99.3973 419.826C99.3973 419.826 177.321 330.195 190.017 315.926C192.431 313.213 195.13 310.438 197.889 307.602ZM234.799 363.273L234.8 363.28C238.148 404.402 240.38 431.825 257.96 467C277.711 427.485 280.339 397.753 282.575 347.392C282.575 347.392 263.838 348.485 262.706 363.595C261.573 378.703 257.96 430.106 257.96 430.106C257.96 430.106 255.935 378.072 254.407 363.836C252.88 349.6 233.673 347.392 233.673 347.392H233.479C233.956 352.921 234.386 358.201 234.799 363.273Z" fill="#1B532B"/>
<path d="M231.771 221.976V222.121C231.776 222.121 231.782 222.121 231.787 222.12L231.771 221.976ZM252.85 205.53L252.706 205.514V205.514L252.85 205.53ZM230.79 221.976L230.647 221.997C230.657 222.068 230.718 222.121 230.79 222.121V221.976ZM257.12 45L257.237 44.9134C257.209 44.8764 257.166 44.8546 257.12 44.8546C257.074 44.8546 257.031 44.8764 257.003 44.9134L257.12 45ZM283.448 221.976V222.121C283.521 222.121 283.582 222.068 283.592 221.997L283.448 221.976ZM283.265 221.976L283.255 222.121H283.265V221.976ZM262.154 205.53L262.009 205.54L262.154 205.53ZM257.729 98.9619L257.875 98.9567C257.872 98.8784 257.808 98.8165 257.729 98.8165C257.651 98.8165 257.587 98.8784 257.584 98.9566L257.729 98.9619ZM218.599 232.303V232.448C218.66 232.448 218.715 232.41 218.735 232.352C218.756 232.295 218.739 232.23 218.692 232.191L218.599 232.303ZM45.3552 191.236L45.2972 191.102L45.2961 191.103L45.3552 191.236ZM218.592 232.303V232.157C218.514 232.157 218.45 232.218 218.447 232.296L218.592 232.303ZM211.626 239.644L211.581 239.783L211.626 239.644ZM66.9707 191.342L67.0168 191.204C66.9417 191.179 66.8603 191.219 66.8337 191.293C66.8071 191.368 66.8451 191.45 66.9192 191.478L66.9707 191.342ZM209.419 246.107L209.487 245.978H209.487L209.419 246.107ZM216.559 255.803L216.484 255.927C216.535 255.958 216.599 255.954 216.646 255.919C216.693 255.883 216.715 255.823 216.7 255.766L216.559 255.803ZM161.989 244.649L161.996 244.504H161.989V244.649ZM161.989 244.649L161.983 244.794H161.989V244.649ZM123.015 240.004L122.975 240.144L123.015 240.004ZM75.0689 212.023L75.1593 211.91L75.0689 212.023ZM45.1167 191.342L45.0575 191.209C45.0064 191.232 44.9729 191.282 44.9713 191.338C44.9697 191.394 45.0003 191.446 45.05 191.471L45.1167 191.342ZM293.395 234.678L293.302 234.567C293.255 234.606 293.238 234.67 293.259 234.728C293.28 234.785 293.334 234.824 293.395 234.824V234.678ZM466.64 193.611L466.699 193.479L466.698 193.478L466.64 193.611ZM293.402 234.678L293.547 234.672C293.544 234.594 293.48 234.533 293.402 234.533V234.678ZM300.369 242.02L300.325 241.881L300.369 242.02ZM445.025 193.718L445.076 193.854C445.15 193.826 445.188 193.744 445.161 193.669C445.135 193.594 445.053 193.555 444.978 193.58L445.025 193.718ZM302.576 248.483L302.509 248.354L302.576 248.483ZM295.436 258.177L295.296 258.14C295.281 258.198 295.302 258.258 295.349 258.294C295.396 258.329 295.46 258.332 295.511 258.302L295.436 258.177ZM350.005 247.025L350.011 247.17L350.005 247.025ZM388.981 242.38L389.021 242.52L388.981 242.38ZM436.923 214.401L436.833 214.287L436.923 214.401ZM466.879 193.718L466.945 193.847C466.995 193.821 467.026 193.77 467.024 193.714C467.022 193.658 466.989 193.608 466.938 193.585L466.879 193.718ZM244.528 226.638L244.54 226.493C244.522 226.491 244.504 226.493 244.487 226.498L244.528 226.638ZM226.959 256.969L227.099 256.929V256.929L226.959 256.969ZM244.869 226.668L245.004 226.724C245.021 226.681 245.017 226.632 244.993 226.593C244.97 226.553 244.928 226.527 244.882 226.523L244.869 226.668ZM243.666 237.568L243.537 237.634L243.537 237.634L243.666 237.568ZM267.368 241.71L267.432 241.841H267.432L267.368 241.71ZM269.875 226.638L269.915 226.498C269.853 226.48 269.787 226.505 269.752 226.559C269.717 226.614 269.723 226.684 269.765 226.733L269.875 226.638ZM287.444 256.969L287.584 257.01L287.584 257.01L287.444 256.969ZM283.724 267.555L283.588 267.504L283.588 267.504L283.724 267.555ZM283.723 267.557L283.858 267.611L283.86 267.607L283.723 267.557ZM283.723 267.557L283.857 267.615L283.858 267.611L283.723 267.557ZM283.723 267.558L283.589 267.5L283.587 267.506L283.723 267.558ZM282.684 270.32V270.466C282.745 270.466 282.799 270.428 282.821 270.371L282.684 270.32ZM282.575 270.32L282.443 270.382C282.467 270.433 282.518 270.466 282.575 270.466V270.32ZM255.745 252.9L255.741 252.755H255.741L255.745 252.9ZM231.784 270.32V270.466C231.847 270.466 231.903 270.425 231.922 270.365L231.784 270.32ZM231.718 270.32L231.582 270.371C231.603 270.428 231.657 270.466 231.718 270.466V270.32ZM230.669 267.529L230.533 267.58L230.669 267.529ZM257.122 313.197L257.123 313.052H257.123L257.122 313.197ZM281.922 289.747L281.933 289.602C281.892 289.599 281.851 289.613 281.822 289.641C281.792 289.67 281.775 289.71 281.776 289.751L281.922 289.747ZM231.785 288.053L231.93 288.054C231.931 288.012 231.913 287.973 231.882 287.945C231.851 287.917 231.81 287.904 231.768 287.909L231.785 288.053ZM216.752 303.317L216.608 303.301L216.752 303.317ZM235.118 337.792L235.041 337.915L235.118 337.792ZM250.564 337.467L250.634 337.594L250.564 337.467ZM257.122 335.266L257.112 335.411H257.112L257.122 335.266ZM263.076 337.824L262.997 337.947L263.076 337.824ZM277.399 339.028L277.462 339.159H277.462L277.399 339.028ZM295.441 304.739L295.584 304.716L295.441 304.739ZM293.072 270.456L293.018 270.322C292.975 270.339 292.942 270.376 292.931 270.421L293.072 270.456ZM314.116 309.98L314.011 310.082L314.013 310.083L314.116 309.98ZM293.403 270.322V270.176C293.384 270.176 293.366 270.18 293.348 270.187L293.403 270.322ZM402.322 364.057L402.201 364.138L402.201 364.138L402.322 364.057ZM402.322 364.058L402.443 363.977L402.443 363.977L402.322 364.058ZM364.373 421.439L364.462 421.323L364.373 421.439ZM294.761 337.344L294.891 337.278C294.879 337.256 294.862 337.237 294.842 337.223L294.761 337.344ZM294.758 337.342L294.615 337.315C294.604 337.372 294.629 337.43 294.677 337.463L294.758 337.342ZM311.4 319.338L311.3 319.443L311.4 319.338ZM412.603 422.2L412.499 422.302C412.554 422.358 412.643 422.361 412.701 422.307C412.759 422.254 412.764 422.164 412.712 422.105L412.603 422.2ZM321.984 318.3L322.093 318.204V318.204L321.984 318.3ZM314.116 309.981L314.22 309.88L314.219 309.878L314.116 309.981ZM477.767 452.15L477.775 452.295H477.775L477.767 452.15ZM478 452.138H478.145C478.145 452.098 478.129 452.06 478.1 452.033C478.071 452.005 478.032 451.991 477.992 451.993L478 452.138ZM478 452.441L477.92 452.563C477.965 452.592 478.022 452.594 478.069 452.569C478.116 452.543 478.145 452.494 478.145 452.441H478ZM218.929 268.081L219.07 268.046C219.059 268.001 219.026 267.964 218.983 267.946L218.929 268.081ZM197.889 307.602L197.785 307.501L197.889 307.602ZM218.597 267.947L218.651 267.812C218.634 267.805 218.616 267.801 218.597 267.801V267.947ZM109.68 361.681L109.558 361.601L109.68 361.681ZM34 449.763L34.0076 449.618C33.9677 449.616 33.9288 449.63 33.8999 449.658C33.871 449.685 33.8546 449.723 33.8546 449.763H34ZM34 450.066H33.8546C33.8546 450.119 33.8838 450.168 33.9307 450.194C33.9776 450.219 34.0347 450.217 34.0794 450.188L34 450.066ZM147.626 419.065L147.715 419.18H147.715L147.626 419.065ZM217.24 334.969L217.174 334.839C217.146 334.853 217.124 334.876 217.11 334.903L217.24 334.969ZM217.242 334.968L217.309 335.097C217.366 335.068 217.397 335.004 217.385 334.941L217.242 334.968ZM200.6 316.962L200.5 316.857H200.5L200.6 316.962ZM99.3973 419.826L99.2876 419.731C99.2359 419.79 99.2409 419.88 99.2987 419.933C99.3565 419.987 99.4463 419.984 99.5013 419.928L99.3973 419.826ZM190.017 315.926L190.126 316.023L190.017 315.926ZM234.8 363.28L234.655 363.292V363.292L234.8 363.28ZM234.799 363.273L234.944 363.262V363.262L234.799 363.273ZM257.96 467L257.83 467.065C257.855 467.114 257.905 467.145 257.96 467.145C258.015 467.145 258.066 467.114 258.09 467.065L257.96 467ZM282.575 347.392L282.721 347.398C282.723 347.357 282.707 347.317 282.678 347.288C282.648 347.259 282.608 347.244 282.567 347.247L282.575 347.392ZM262.706 363.595L262.851 363.606L262.706 363.595ZM257.96 430.106L257.815 430.111C257.818 430.189 257.881 430.25 257.958 430.251C258.035 430.252 258.1 430.193 258.105 430.116L257.96 430.106ZM254.407 363.836L254.262 363.851V363.851L254.407 363.836ZM233.673 347.392L233.689 347.247C233.684 347.247 233.678 347.246 233.673 347.246V347.392ZM233.479 347.392V347.246C233.438 347.246 233.399 347.264 233.372 347.294C233.344 347.324 233.33 347.364 233.334 347.404L233.479 347.392ZM231.771 221.976C231.787 222.12 231.787 222.12 231.787 222.12C231.788 222.12 231.788 222.12 231.788 222.12C231.789 222.12 231.79 222.12 231.791 222.12C231.793 222.119 231.797 222.119 231.802 222.118C231.812 222.117 231.826 222.115 231.845 222.113C231.882 222.108 231.938 222.101 232.01 222.091C232.155 222.072 232.367 222.041 232.637 221.996C233.178 221.908 233.951 221.765 234.882 221.55C236.746 221.118 239.248 220.395 241.799 219.223C246.896 216.883 252.223 212.738 252.995 205.545L252.706 205.514C251.95 212.557 246.738 216.636 241.677 218.959C239.149 220.12 236.667 220.838 234.817 221.266C233.892 221.48 233.125 221.622 232.59 221.709C232.323 221.753 232.113 221.784 231.971 221.803C231.9 221.813 231.845 221.82 231.809 221.825C231.791 221.827 231.777 221.828 231.768 221.83C231.763 221.83 231.76 221.831 231.758 221.831C231.756 221.831 231.756 221.831 231.755 221.831C231.755 221.831 231.755 221.831 231.754 221.831C231.754 221.831 231.754 221.831 231.771 221.976ZM230.79 222.121H231.771V221.83H230.79V222.121ZM257.003 44.9134C219.504 95.5355 222.273 165.678 230.647 221.997L230.934 221.954C222.561 165.639 219.814 95.6055 257.237 45.0866L257.003 44.9134ZM283.592 221.997C291.966 165.678 294.734 95.5355 257.237 44.9134L257.003 45.0866C294.424 95.6055 291.678 165.639 283.305 221.954L283.592 221.997ZM283.265 222.121H283.448V221.83H283.265V222.121ZM262.009 205.54C262.581 213.172 267.917 217.319 273.077 219.552C275.658 220.669 278.201 221.311 280.099 221.673C281.048 221.855 281.836 221.967 282.387 222.033C282.663 222.066 282.879 222.088 283.027 222.102C283.101 222.109 283.158 222.113 283.196 222.116C283.216 222.118 283.23 222.119 283.24 222.12C283.245 222.12 283.249 222.12 283.251 222.12C283.253 222.121 283.254 222.121 283.254 222.121C283.255 222.121 283.255 222.121 283.255 222.121C283.255 222.121 283.255 222.121 283.265 221.976C283.275 221.831 283.275 221.831 283.275 221.831C283.275 221.831 283.274 221.83 283.274 221.83C283.274 221.83 283.273 221.83 283.272 221.83C283.269 221.83 283.266 221.83 283.261 221.83C283.252 221.829 283.238 221.828 283.219 221.826C283.182 221.823 283.127 221.819 283.054 221.812C282.909 221.799 282.695 221.777 282.422 221.744C281.876 221.679 281.095 221.568 280.153 221.388C278.269 221.028 275.748 220.391 273.192 219.285C268.079 217.072 262.86 212.995 262.299 205.519L262.009 205.54ZM257.729 98.9619C257.584 98.9671 257.584 98.9675 257.584 98.9682C257.584 98.9689 257.584 98.9699 257.584 98.9713C257.584 98.9741 257.584 98.9783 257.585 98.9838C257.585 98.9949 257.586 99.0115 257.586 99.0335C257.588 99.0775 257.59 99.1432 257.594 99.23C257.6 99.4035 257.609 99.6612 257.621 99.998C257.646 100.672 257.682 101.661 257.728 102.927C257.82 105.457 257.953 109.089 258.116 113.494C258.442 122.304 258.889 134.209 259.371 146.585C260.336 171.337 261.442 197.982 262.009 205.54L262.299 205.519C261.733 197.967 260.627 171.329 259.662 146.574C259.18 134.198 258.733 122.293 258.407 113.483C258.244 109.078 258.111 105.446 258.018 102.916C257.972 101.651 257.936 100.661 257.912 99.9874C257.9 99.6507 257.89 99.393 257.884 99.2195C257.881 99.1327 257.879 99.067 257.877 99.023C257.876 99.001 257.876 98.9844 257.875 98.9733C257.875 98.9678 257.875 98.9636 257.875 98.9608C257.875 98.9594 257.875 98.9584 257.875 98.9577C257.875 98.957 257.875 98.9567 257.729 98.9619ZM252.995 205.545C253.76 198.42 254.98 171.772 256.008 146.913C256.523 134.481 256.989 122.495 257.327 113.617C257.496 109.177 257.633 105.515 257.728 102.962C257.775 101.686 257.812 100.687 257.837 100.008C257.849 99.6677 257.859 99.4076 257.865 99.2325C257.868 99.1449 257.871 99.0786 257.872 99.0342C257.873 99.0119 257.874 98.9952 257.874 98.984C257.874 98.9784 257.874 98.9742 257.875 98.9714C257.875 98.97 257.875 98.9689 257.875 98.9682C257.875 98.9675 257.875 98.9672 257.729 98.9619C257.584 98.9566 257.584 98.957 257.584 98.9577C257.584 98.9584 257.584 98.9594 257.584 98.9608C257.584 98.9636 257.584 98.9678 257.583 98.9734C257.583 98.9846 257.582 99.0014 257.582 99.0236C257.58 99.068 257.578 99.1343 257.574 99.2219C257.568 99.397 257.559 99.6571 257.546 99.997C257.521 100.677 257.484 101.675 257.437 102.952C257.343 105.504 257.206 109.166 257.037 113.605C256.699 122.484 256.232 134.47 255.718 146.901C254.689 171.766 253.469 198.402 252.706 205.514L252.995 205.545ZM218.692 232.191C192.944 210.627 166.799 192.871 138.488 184.248C110.172 175.624 79.6967 176.14 45.2972 191.102L45.4132 191.369C79.7501 176.434 110.154 175.923 138.404 184.526C166.659 193.132 192.768 210.858 218.505 232.414L218.692 232.191ZM218.592 232.448H218.599V232.157H218.592V232.448ZM211.581 239.783C213.252 240.319 214.551 240.124 215.552 239.508C216.548 238.897 217.23 237.884 217.697 236.821C218.166 235.756 218.425 234.628 218.568 233.769C218.639 233.339 218.682 232.975 218.706 232.718C218.719 232.59 218.726 232.488 218.731 232.418C218.733 232.383 218.735 232.356 218.736 232.338C218.737 232.328 218.737 232.321 218.737 232.317C218.737 232.314 218.737 232.312 218.737 232.311C218.738 232.31 218.738 232.31 218.738 232.31C218.738 232.309 218.738 232.309 218.738 232.309C218.738 232.309 218.738 232.309 218.592 232.303C218.447 232.296 218.447 232.296 218.447 232.296C218.447 232.296 218.447 232.296 218.447 232.296C218.447 232.297 218.447 232.297 218.447 232.297C218.447 232.298 218.447 232.3 218.447 232.302C218.447 232.306 218.446 232.313 218.446 232.321C218.445 232.339 218.443 232.365 218.441 232.398C218.436 232.466 218.429 232.565 218.417 232.69C218.393 232.942 218.351 233.299 218.281 233.722C218.14 234.568 217.886 235.67 217.431 236.704C216.975 237.739 216.325 238.693 215.4 239.261C214.482 239.825 213.273 240.021 211.67 239.506L211.581 239.783ZM66.9707 191.342C66.9246 191.48 66.9251 191.48 66.9262 191.481C66.9272 191.481 66.9288 191.481 66.9309 191.482C66.9351 191.484 66.9414 191.486 66.9497 191.488C66.9665 191.494 66.9915 191.502 67.0247 191.514C67.0911 191.536 67.1902 191.569 67.321 191.613C67.5825 191.7 67.9706 191.83 68.4772 191.999C69.4903 192.338 70.9771 192.836 72.8717 193.469C76.6609 194.737 82.0813 196.549 88.6063 198.731C101.656 203.095 119.124 208.936 136.797 214.842C172.142 226.654 208.307 238.73 211.581 239.783L211.67 239.506C208.398 238.454 172.236 226.379 136.889 214.566C119.217 208.66 101.748 202.82 88.6985 198.456C82.1736 196.274 76.7531 194.461 72.964 193.193C71.0694 192.56 69.5826 192.062 68.5695 191.724C68.0629 191.554 67.6747 191.424 67.4132 191.337C67.2825 191.293 67.1834 191.26 67.117 191.238C67.0838 191.227 67.0587 191.218 67.042 191.213C67.0336 191.21 67.0273 191.208 67.0231 191.206C67.021 191.206 67.0195 191.205 67.0184 191.205C67.0174 191.204 67.0168 191.204 66.9707 191.342ZM209.487 245.978C208.81 245.622 206.073 244.498 201.818 242.81C197.557 241.12 191.762 238.86 184.96 236.227C171.354 230.96 153.715 224.203 136.243 217.533C118.771 210.863 101.466 204.282 88.5285 199.367C82.0599 196.91 76.6834 194.87 72.9239 193.444C71.0442 192.731 69.5688 192.171 68.5633 191.79C68.0606 191.6 67.6753 191.454 67.4157 191.355C67.2859 191.306 67.1875 191.269 67.1216 191.244C67.0887 191.231 67.0638 191.222 67.0472 191.216C67.0389 191.212 67.0327 191.21 67.0285 191.208C67.0264 191.208 67.0248 191.207 67.0238 191.207C67.0228 191.206 67.0222 191.206 66.9707 191.342C66.9192 191.478 66.9197 191.478 66.9207 191.479C66.9218 191.479 66.9234 191.48 66.9254 191.48C66.9296 191.482 66.9359 191.484 66.9442 191.488C66.9608 191.494 66.9856 191.503 67.0186 191.516C67.0845 191.541 67.1829 191.578 67.3126 191.627C67.5722 191.726 67.9575 191.872 68.4602 192.062C69.4657 192.443 70.9411 193.003 72.8208 193.716C76.5802 195.142 81.9567 197.182 88.4252 199.639C101.362 204.553 118.667 211.135 136.139 217.805C153.611 224.474 171.25 231.232 184.855 236.498C191.657 239.131 197.451 241.391 201.71 243.081C205.976 244.772 208.692 245.888 209.351 246.235L209.487 245.978ZM216.559 255.803C216.7 255.766 216.7 255.766 216.7 255.766C216.7 255.766 216.7 255.766 216.7 255.765C216.699 255.765 216.699 255.765 216.699 255.764C216.699 255.763 216.699 255.762 216.698 255.76C216.697 255.757 216.696 255.751 216.694 255.745C216.69 255.731 216.685 255.711 216.677 255.685C216.663 255.633 216.64 255.557 216.61 255.459C216.55 255.263 216.458 254.981 216.331 254.634C216.077 253.94 215.683 252.985 215.121 251.942C213.997 249.858 212.194 247.405 209.487 245.978L209.351 246.235C211.986 247.625 213.754 250.02 214.865 252.08C215.419 253.108 215.808 254.05 216.058 254.734C216.183 255.076 216.273 255.353 216.332 255.544C216.362 255.64 216.383 255.714 216.398 255.764C216.405 255.789 216.41 255.808 216.413 255.821C216.415 255.827 216.416 255.832 216.417 255.835C216.418 255.837 216.418 255.838 216.418 255.838C216.418 255.839 216.418 255.839 216.418 255.839C216.418 255.839 216.418 255.839 216.418 255.839C216.418 255.839 216.418 255.839 216.559 255.803ZM161.983 244.794C181.337 245.645 200.711 246.5 216.484 255.927L216.634 255.678C200.786 246.206 181.333 245.354 161.996 244.504L161.983 244.794ZM161.989 244.794H161.989V244.504H161.989V244.794ZM122.975 240.144C135.134 243.614 148.553 244.204 161.983 244.794L161.996 244.504C148.558 243.913 135.175 243.324 123.054 239.864L122.975 240.144ZM74.9786 212.137C89.0088 223.266 103.153 234.487 122.975 240.144L123.054 239.864C103.296 234.225 89.1932 223.041 75.1593 211.91L74.9786 212.137ZM45.05 191.471C56.1154 197.176 65.52 204.635 74.9786 212.137L75.1593 211.91C65.7039 204.41 56.2779 196.933 45.1833 191.213L45.05 191.471ZM45.2961 191.103L45.0575 191.209L45.1758 191.475L45.4144 191.369L45.2961 191.103ZM293.489 234.79C319.227 213.233 345.336 195.507 373.591 186.901C401.841 178.298 432.245 178.809 466.582 193.745L466.698 193.478C432.299 178.515 401.823 177.999 373.506 186.623C345.195 195.245 319.05 213.002 293.302 234.567L293.489 234.79ZM293.402 234.533H293.395V234.824H293.402V234.533ZM300.325 241.881C298.722 242.396 297.513 242.2 296.595 241.636C295.67 241.068 295.019 240.115 294.564 239.079C294.109 238.045 293.854 236.943 293.713 236.097C293.643 235.675 293.602 235.318 293.577 235.066C293.565 234.94 293.558 234.841 293.553 234.774C293.551 234.74 293.549 234.714 293.548 234.697C293.548 234.689 293.548 234.682 293.547 234.678C293.547 234.676 293.547 234.674 293.547 234.673C293.547 234.673 293.547 234.672 293.547 234.672C293.547 234.672 293.547 234.672 293.547 234.672C293.547 234.672 293.547 234.672 293.402 234.678C293.257 234.685 293.257 234.685 293.257 234.685C293.257 234.685 293.257 234.685 293.257 234.685C293.257 234.686 293.257 234.686 293.257 234.687C293.257 234.688 293.257 234.69 293.257 234.692C293.257 234.697 293.258 234.704 293.258 234.713C293.259 234.732 293.261 234.759 293.263 234.794C293.268 234.864 293.276 234.965 293.288 235.094C293.313 235.351 293.355 235.715 293.426 236.145C293.569 237.004 293.829 238.132 294.297 239.196C294.765 240.259 295.447 241.273 296.443 241.884C297.444 242.499 298.743 242.695 300.414 242.158L300.325 241.881ZM445.025 193.718C444.978 193.58 444.978 193.58 444.977 193.58C444.976 193.581 444.974 193.581 444.972 193.582C444.968 193.583 444.962 193.585 444.953 193.588C444.937 193.594 444.911 193.602 444.878 193.613C444.812 193.636 444.713 193.669 444.582 193.712C444.32 193.8 443.932 193.93 443.426 194.099C442.413 194.438 440.926 194.935 439.031 195.569C435.242 196.836 429.822 198.649 423.297 200.831C410.247 205.195 392.779 211.036 375.106 216.942C339.76 228.755 303.597 240.83 300.325 241.881L300.414 242.158C303.688 241.106 339.854 229.03 375.198 217.218C392.871 211.312 410.339 205.471 423.389 201.107C429.914 198.925 435.334 197.112 439.124 195.845C441.018 195.211 442.505 194.714 443.518 194.375C444.025 194.206 444.413 194.076 444.674 193.988C444.805 193.945 444.904 193.911 444.971 193.889C445.004 193.878 445.029 193.87 445.046 193.864C445.054 193.861 445.06 193.859 445.064 193.858C445.066 193.857 445.068 193.857 445.069 193.856C445.07 193.856 445.071 193.856 445.025 193.718ZM302.644 248.611C303.303 248.264 306.019 247.148 310.285 245.456C314.545 243.766 320.338 241.506 327.141 238.873C340.745 233.607 358.384 226.849 375.856 220.18C393.328 213.51 410.633 206.929 423.57 202.015C430.039 199.558 435.415 197.517 439.174 196.091C441.054 195.378 442.53 194.819 443.535 194.438C444.038 194.247 444.423 194.101 444.683 194.003C444.812 193.954 444.911 193.916 444.977 193.891C445.01 193.879 445.034 193.87 445.051 193.863C445.059 193.86 445.066 193.858 445.07 193.856C445.072 193.855 445.073 193.855 445.074 193.854C445.076 193.854 445.076 193.854 445.025 193.718C444.973 193.582 444.973 193.582 444.971 193.582C444.97 193.583 444.969 193.583 444.967 193.584C444.963 193.586 444.956 193.588 444.948 193.591C444.931 193.598 444.907 193.607 444.874 193.619C444.808 193.644 444.709 193.682 444.58 193.731C444.32 193.829 443.935 193.975 443.432 194.166C442.426 194.547 440.951 195.106 439.071 195.819C435.312 197.245 429.935 199.286 423.467 201.743C410.53 206.657 393.224 213.239 375.752 219.908C358.28 226.578 340.641 233.335 327.036 238.602C320.233 241.235 314.439 243.495 310.178 245.186C305.922 246.874 303.185 247.997 302.509 248.354L302.644 248.611ZM295.436 258.177C295.577 258.214 295.577 258.214 295.577 258.214C295.577 258.214 295.577 258.214 295.577 258.214C295.577 258.214 295.577 258.213 295.577 258.213C295.577 258.212 295.578 258.211 295.578 258.21C295.579 258.207 295.58 258.202 295.582 258.196C295.585 258.183 295.591 258.164 295.598 258.139C295.612 258.089 295.633 258.015 295.663 257.919C295.722 257.728 295.812 257.45 295.937 257.108C296.187 256.425 296.576 255.483 297.131 254.455C298.241 252.396 300.009 250 302.644 248.611L302.509 248.354C299.801 249.781 297.998 252.233 296.875 254.317C296.312 255.36 295.918 256.315 295.664 257.009C295.537 257.356 295.445 257.638 295.385 257.833C295.355 257.931 295.333 258.008 295.318 258.06C295.31 258.086 295.305 258.106 295.301 258.119C295.299 258.126 295.298 258.131 295.297 258.135C295.297 258.137 295.296 258.138 295.296 258.139C295.296 258.139 295.296 258.14 295.296 258.14C295.296 258.14 295.296 258.14 295.296 258.14C295.296 258.14 295.296 258.14 295.436 258.177ZM349.998 246.879C330.661 247.729 311.209 248.582 295.362 258.052L295.511 258.302C311.283 248.876 330.657 248.021 350.011 247.17L349.998 246.879ZM388.941 242.24C376.82 245.699 363.436 246.289 349.998 246.879L350.011 247.17C363.441 246.579 376.861 245.99 389.021 242.52L388.941 242.24ZM436.833 214.287C422.799 225.418 408.697 236.601 388.941 242.24L389.021 242.52C408.84 236.863 422.984 225.642 437.013 214.515L436.833 214.287ZM466.812 193.589C455.716 199.309 446.289 206.786 436.833 214.287L437.013 214.515C446.473 207.012 455.878 199.552 466.945 193.847L466.812 193.589ZM466.581 193.744L466.819 193.851L466.938 193.585L466.699 193.479L466.581 193.744ZM257.121 259.331C245.852 259.331 236.699 267.86 236.699 278.4H236.99C236.99 268.039 245.993 259.622 257.121 259.622V259.331ZM277.543 278.4C277.543 267.86 268.39 259.331 257.121 259.331V259.622C268.249 259.622 277.252 268.039 277.252 278.4H277.543ZM257.121 297.47C268.39 297.47 277.543 288.942 277.543 278.4H277.252C277.252 288.763 268.249 297.179 257.121 297.179V297.47ZM236.699 278.4C236.699 288.942 245.852 297.47 257.121 297.47V297.179C245.993 297.179 236.99 288.763 236.99 278.4H236.699ZM244.487 226.498C237.285 228.597 231.752 232.399 228.577 237.598C225.401 242.799 224.597 249.38 226.82 257.01L227.099 256.929C224.895 249.363 225.699 242.869 228.825 237.75C231.953 232.628 237.416 228.862 244.568 226.777L244.487 226.498ZM244.882 226.523L244.54 226.493L244.515 226.783L244.856 226.813L244.882 226.523ZM243.796 237.502C242.984 235.903 242.964 233.981 243.312 232.063C243.659 230.147 244.371 228.253 245.004 226.724L244.735 226.613C244.101 228.147 243.379 230.063 243.025 232.011C242.673 233.957 242.684 235.953 243.537 237.634L243.796 237.502ZM267.305 241.579C264.346 243.004 259.359 243.76 254.656 243.263C249.946 242.765 245.582 241.018 243.796 237.502L243.537 237.634C245.392 241.287 249.889 243.051 254.625 243.552C259.368 244.053 264.412 243.295 267.432 241.841L267.305 241.579ZM269.765 226.733C273.794 231.376 273.265 238.709 267.305 241.579L267.432 241.841C273.603 238.869 274.109 231.295 269.984 226.542L269.765 226.733ZM287.584 257.01C289.806 249.38 289.002 242.799 285.826 237.598C282.651 232.399 277.118 228.597 269.915 226.498L269.834 226.777C276.986 228.862 282.45 232.628 285.578 237.75C288.704 242.869 289.508 249.363 287.304 256.929L287.584 257.01ZM283.86 267.606C285.174 264.131 286.633 260.273 287.584 257.01L287.304 256.929C286.357 260.179 284.903 264.025 283.588 267.504L283.86 267.606ZM283.86 267.607L283.86 267.606L283.588 267.504L283.587 267.506L283.86 267.607ZM283.858 267.611L283.858 267.611L283.588 267.503L283.588 267.503L283.858 267.611ZM283.857 267.615L283.857 267.615L283.589 267.5L283.589 267.5L283.857 267.615ZM282.821 270.371C283.147 269.492 283.497 268.565 283.859 267.609L283.587 267.506C283.225 268.462 282.875 269.39 282.548 270.27L282.821 270.371ZM282.575 270.466H282.684V270.175H282.575V270.466ZM255.749 253.045C264.933 252.785 271.604 257.114 275.984 261.516C278.174 263.717 279.79 265.935 280.858 267.603C281.392 268.437 281.789 269.132 282.052 269.619C282.183 269.863 282.281 270.054 282.346 270.184C282.379 270.249 282.403 270.299 282.419 270.332C282.427 270.349 282.433 270.361 282.437 270.369C282.439 270.374 282.441 270.377 282.442 270.379C282.442 270.38 282.442 270.38 282.443 270.381C282.443 270.381 282.443 270.381 282.443 270.381C282.443 270.382 282.443 270.382 282.575 270.32C282.707 270.259 282.706 270.259 282.706 270.258C282.706 270.258 282.706 270.258 282.706 270.258C282.706 270.257 282.705 270.256 282.705 270.255C282.704 270.253 282.702 270.249 282.7 270.245C282.696 270.236 282.689 270.223 282.681 270.206C282.664 270.171 282.64 270.12 282.606 270.054C282.54 269.921 282.441 269.727 282.307 269.481C282.041 268.989 281.641 268.287 281.103 267.446C280.027 265.766 278.398 263.53 276.19 261.311C271.774 256.872 265.03 252.491 255.741 252.755L255.749 253.045ZM231.784 270.32C231.922 270.365 231.922 270.365 231.922 270.365C231.922 270.365 231.922 270.365 231.922 270.365C231.923 270.364 231.923 270.363 231.923 270.363C231.924 270.361 231.925 270.358 231.926 270.354C231.929 270.346 231.933 270.334 231.938 270.319C231.949 270.288 231.965 270.241 231.987 270.18C232.031 270.057 232.098 269.877 232.191 269.647C232.376 269.188 232.66 268.53 233.06 267.738C233.859 266.153 235.116 264.035 236.947 261.902C240.608 257.636 246.562 253.306 255.749 253.045L255.741 252.755C246.454 253.019 240.428 257.399 236.727 261.712C234.877 263.868 233.607 266.007 232.8 267.607C232.397 268.407 232.108 269.073 231.921 269.539C231.827 269.772 231.759 269.956 231.713 270.081C231.691 270.144 231.674 270.192 231.663 270.225C231.657 270.241 231.653 270.253 231.65 270.262C231.649 270.266 231.648 270.269 231.647 270.272C231.647 270.273 231.646 270.274 231.646 270.274C231.646 270.275 231.646 270.275 231.646 270.275C231.646 270.275 231.646 270.275 231.784 270.32ZM231.718 270.466H231.784V270.175H231.718V270.466ZM230.533 267.58C230.898 268.547 231.252 269.483 231.582 270.371L231.854 270.27C231.525 269.381 231.17 268.444 230.805 267.477L230.533 267.58ZM226.82 257.01C227.767 260.265 229.222 264.112 230.533 267.58L230.805 267.477C229.493 264.006 228.043 260.171 227.099 256.929L226.82 257.01ZM257.122 313.342C263.509 313.35 268.268 311.883 271.812 309.669C275.357 307.456 277.678 304.502 279.196 301.55C280.715 298.599 281.432 295.649 281.77 293.437C281.939 292.331 282.013 291.409 282.045 290.763C282.061 290.44 282.067 290.186 282.068 290.012C282.069 289.925 282.069 289.858 282.068 289.813C282.068 289.79 282.068 289.773 282.068 289.761C282.067 289.755 282.067 289.751 282.067 289.748C282.067 289.746 282.067 289.745 282.067 289.744C282.067 289.744 282.067 289.743 282.067 289.743C282.067 289.743 282.067 289.743 281.922 289.747C281.776 289.751 281.776 289.751 281.776 289.751C281.776 289.751 281.776 289.751 281.776 289.752C281.776 289.752 281.777 289.753 281.777 289.754C281.777 289.757 281.777 289.761 281.777 289.767C281.777 289.777 281.777 289.794 281.778 289.816C281.778 289.859 281.778 289.924 281.778 290.009C281.776 290.179 281.771 290.43 281.755 290.748C281.723 291.386 281.65 292.298 281.483 293.393C281.148 295.584 280.438 298.502 278.938 301.417C277.438 304.332 275.15 307.242 271.658 309.423C268.167 311.603 263.463 313.059 257.123 313.052L257.122 313.342ZM231.785 288.053C231.64 288.053 231.64 288.053 231.64 288.053C231.64 288.053 231.64 288.054 231.64 288.054C231.64 288.055 231.64 288.056 231.64 288.058C231.64 288.061 231.64 288.066 231.64 288.072C231.64 288.084 231.64 288.103 231.64 288.127C231.641 288.175 231.642 288.247 231.645 288.339C231.65 288.525 231.661 288.797 231.685 289.142C231.731 289.833 231.827 290.819 232.021 292.001C232.409 294.366 233.194 297.521 234.778 300.679C236.363 303.837 238.751 307.001 242.345 309.377C245.94 311.753 250.734 313.335 257.122 313.342L257.123 313.052C250.784 313.044 246.047 311.475 242.505 309.134C238.962 306.792 236.606 303.672 235.038 300.548C233.471 297.424 232.693 294.299 232.308 291.954C232.115 290.782 232.021 289.805 231.975 289.123C231.952 288.781 231.941 288.513 231.935 288.331C231.933 288.24 231.931 288.17 231.931 288.124C231.931 288.1 231.931 288.083 231.931 288.071C231.93 288.065 231.93 288.061 231.93 288.058C231.93 288.056 231.93 288.055 231.93 288.055C231.93 288.054 231.93 288.054 231.93 288.054C231.93 288.054 231.93 288.054 231.785 288.053ZM216.897 303.333C217.648 296.536 221.372 292.757 224.911 290.672C226.682 289.628 228.406 289.009 229.688 288.651C230.329 288.472 230.859 288.359 231.228 288.29C231.412 288.256 231.557 288.232 231.654 288.218C231.703 288.211 231.74 288.206 231.765 288.202C231.778 288.201 231.787 288.199 231.793 288.199C231.796 288.198 231.798 288.198 231.8 288.198C231.801 288.198 231.801 288.198 231.801 288.198C231.802 288.198 231.802 288.198 231.802 288.198C231.802 288.198 231.802 288.198 231.785 288.053C231.768 287.909 231.768 287.909 231.768 287.909C231.768 287.909 231.768 287.909 231.768 287.909C231.767 287.909 231.766 287.909 231.765 287.909C231.764 287.909 231.761 287.91 231.757 287.91C231.751 287.911 231.74 287.912 231.727 287.914C231.701 287.917 231.662 287.923 231.612 287.93C231.51 287.945 231.363 287.969 231.175 288.004C230.798 288.074 230.26 288.19 229.61 288.371C228.31 288.734 226.561 289.362 224.763 290.421C221.164 292.542 217.371 296.395 216.608 303.301L216.897 303.333ZM235.194 337.668C224.305 330.958 215.389 316.966 216.897 303.333L216.608 303.301C215.085 317.072 224.081 331.161 235.041 337.915L235.194 337.668ZM250.493 337.339C248.502 338.437 246.418 339.585 243.961 339.929C241.512 340.271 238.678 339.814 235.194 337.668L235.041 337.915C238.574 340.092 241.476 340.57 244.001 340.217C246.519 339.865 248.649 338.688 250.634 337.594L250.493 337.339ZM257.133 335.121C254.804 334.957 252.699 336.123 250.493 337.339L250.634 337.594C252.858 336.368 254.885 335.255 257.112 335.411L257.133 335.121ZM263.155 337.702C261.267 336.481 259.417 335.281 257.133 335.121L257.112 335.411C259.31 335.565 261.098 336.718 262.997 337.947L263.155 337.702ZM277.335 338.898C273.808 340.622 271.131 340.876 268.911 340.431C266.684 339.984 264.9 338.832 263.155 337.702L262.997 337.947C264.737 339.072 266.565 340.257 268.854 340.716C271.149 341.176 273.891 340.905 277.462 339.159L277.335 338.898ZM295.297 304.762C296.416 311.78 294.655 318.981 291.245 325.097C287.834 331.214 282.782 336.235 277.335 338.898L277.462 339.159C282.971 336.466 288.064 331.399 291.499 325.239C294.934 319.078 296.716 311.811 295.584 304.716L295.297 304.762ZM281.922 289.747C281.911 289.892 281.91 289.892 281.91 289.892C281.911 289.892 281.911 289.892 281.911 289.892C281.911 289.892 281.911 289.892 281.912 289.892C281.913 289.892 281.915 289.892 281.917 289.892C281.922 289.893 281.93 289.893 281.94 289.894C281.96 289.896 281.991 289.9 282.032 289.904C282.113 289.914 282.233 289.93 282.387 289.956C282.695 290.006 283.139 290.095 283.679 290.245C284.76 290.545 286.224 291.09 287.759 292.073C290.824 294.035 294.179 297.748 295.297 304.762L295.584 304.716C294.452 297.617 291.048 293.833 287.916 291.828C286.352 290.827 284.859 290.27 283.757 289.964C283.205 289.811 282.751 289.721 282.434 289.669C282.276 289.642 282.151 289.626 282.066 289.616C282.024 289.611 281.991 289.607 281.968 289.605C281.957 289.604 281.949 289.603 281.943 289.603C281.94 289.602 281.937 289.602 281.936 289.602C281.935 289.602 281.934 289.602 281.934 289.602C281.934 289.602 281.934 289.602 281.933 289.602C281.933 289.602 281.933 289.602 281.922 289.747ZM292.931 270.421C291.147 277.602 293.492 284.506 297.737 291.111C301.981 297.715 308.138 304.044 314.011 310.082L314.22 309.879C308.341 303.836 302.207 297.529 297.982 290.954C293.758 284.381 291.457 277.562 293.214 270.491L292.931 270.421ZM293.348 270.187L293.018 270.322L293.127 270.591L293.458 270.456L293.348 270.187ZM402.443 363.977C386.611 340.144 371.037 316.697 353.585 299.209C336.131 281.72 316.783 270.176 293.403 270.176V270.467C316.676 270.467 335.954 281.955 353.379 299.415C370.807 316.877 386.365 340.298 402.201 364.138L402.443 363.977ZM402.443 363.977L402.443 363.977L402.201 364.138L402.201 364.138L402.443 363.977ZM477.651 452.039C447.965 432.502 424.945 397.852 402.443 363.977L402.201 364.138C424.693 397.998 447.745 432.706 477.491 452.282L477.651 452.039ZM364.285 421.554C392.711 443.39 433.15 454.539 477.579 452.305L477.564 452.015C433.189 454.246 392.822 443.108 364.462 421.323L364.285 421.554ZM294.631 337.409C313.555 374.837 336.113 399.914 364.285 421.554L364.462 421.323C336.322 399.708 313.793 374.663 294.891 337.278L294.631 337.409ZM294.677 337.463L294.68 337.465L294.842 337.223L294.838 337.221L294.677 337.463ZM311.5 319.232C310.479 318.268 309.456 317.735 308.443 317.562C307.429 317.39 306.439 317.581 305.488 318.042C303.594 318.962 301.843 320.961 300.325 323.347C297.287 328.125 295.13 334.541 294.615 337.315L294.901 337.368C295.409 334.628 297.554 328.247 300.571 323.503C302.081 321.129 303.796 319.187 305.615 318.304C306.522 317.864 307.451 317.689 308.394 317.849C309.338 318.01 310.311 318.51 311.3 319.443L311.5 319.232ZM412.603 422.2C412.707 422.099 412.706 422.098 412.706 422.098C412.705 422.097 412.704 422.096 412.702 422.094C412.699 422.091 412.695 422.087 412.69 422.081C412.678 422.07 412.661 422.053 412.639 422.03C412.594 421.984 412.527 421.915 412.439 421.825C412.263 421.645 412 421.377 411.658 421.027C410.974 420.327 409.969 419.3 408.688 417.99C406.125 415.37 402.454 411.619 398.024 407.094C389.165 398.043 377.268 385.897 365.12 373.513C340.826 348.748 315.522 323.029 311.5 319.232L311.3 319.443C315.317 323.236 340.615 348.948 364.912 373.717C377.06 386.1 388.957 398.247 397.816 407.297C402.246 411.822 405.917 415.574 408.48 418.193C409.761 419.503 410.766 420.531 411.45 421.23C411.793 421.58 412.055 421.848 412.231 422.029C412.319 422.119 412.386 422.187 412.431 422.233C412.453 422.256 412.47 422.273 412.482 422.285C412.487 422.29 412.492 422.295 412.494 422.298C412.496 422.299 412.497 422.3 412.498 422.301C412.498 422.302 412.499 422.302 412.603 422.2ZM321.875 318.397C328.223 325.531 350.877 351.505 371.945 375.697C382.478 387.793 392.615 399.442 400.119 408.068C403.871 412.381 406.964 415.938 409.12 418.417C410.198 419.656 411.041 420.626 411.615 421.286C411.902 421.616 412.121 421.868 412.269 422.038C412.343 422.123 412.399 422.188 412.436 422.231C412.455 422.252 412.469 422.269 412.479 422.279C412.483 422.285 412.487 422.289 412.489 422.292C412.49 422.293 412.491 422.294 412.492 422.295C412.493 422.295 412.493 422.296 412.603 422.2C412.712 422.105 412.712 422.105 412.711 422.104C412.711 422.103 412.71 422.102 412.709 422.101C412.706 422.098 412.703 422.094 412.698 422.089C412.689 422.078 412.675 422.062 412.656 422.04C412.618 421.997 412.562 421.932 412.488 421.847C412.341 421.677 412.121 421.425 411.834 421.095C411.26 420.435 410.417 419.465 409.339 418.226C407.184 415.747 404.09 412.19 400.339 407.877C392.835 399.251 382.698 387.602 372.164 375.506C351.097 351.315 328.441 325.339 322.093 318.204L321.875 318.397ZM314.012 310.082C316.77 312.917 319.465 315.688 321.875 318.397L322.093 318.204C319.677 315.489 316.977 312.714 314.22 309.88L314.012 310.082ZM314.013 310.083L314.013 310.084L314.219 309.878L314.218 309.878L314.013 310.083ZM477.76 452.005L477.564 452.015L477.579 452.305L477.775 452.295L477.76 452.005ZM477.992 451.993L477.76 452.005L477.775 452.295L478.007 452.283L477.992 451.993ZM478.145 452.441V452.138H477.854V452.441H478.145ZM477.491 452.282C477.634 452.376 477.777 452.469 477.92 452.563L478.079 452.319C477.936 452.226 477.794 452.133 477.651 452.039L477.491 452.282ZM218.788 268.116C220.544 275.187 218.244 282.004 214.02 288.577C209.796 295.151 203.662 301.458 197.785 307.501L197.993 307.703C203.866 301.666 210.022 295.338 214.265 288.734C218.509 282.129 220.854 275.227 219.07 268.046L218.788 268.116ZM218.542 268.081L218.874 268.216L218.983 267.946L218.651 267.812L218.542 268.081ZM109.801 361.762C125.637 337.922 141.195 314.502 158.622 297.039C176.047 279.579 195.324 268.092 218.597 268.092V267.801C195.217 267.801 175.87 279.345 158.416 296.834C140.964 314.321 125.39 337.768 109.558 361.601L109.801 361.762ZM34.5086 449.907C64.2553 430.331 87.3086 395.622 109.801 361.762L109.558 361.601C87.0566 395.475 64.0359 430.127 34.3487 449.664L34.5086 449.907ZM33.9924 449.908C34.1354 449.916 34.2784 449.923 34.4213 449.93L34.4359 449.64C34.2932 449.633 34.1504 449.625 34.0076 449.618L33.9924 449.908ZM34.1454 450.066V449.763H33.8546V450.066H34.1454ZM34.3487 449.664C34.2062 449.757 34.0635 449.851 33.9206 449.944L34.0794 450.188C34.2226 450.094 34.3657 450.001 34.5086 449.907L34.3487 449.664ZM147.538 418.949C119.178 440.733 78.8109 451.871 34.4359 449.64L34.4213 449.93C78.8496 452.164 119.289 441.014 147.715 419.18L147.538 418.949ZM217.11 334.903C198.208 372.288 175.679 397.333 147.538 418.949L147.715 419.18C175.888 397.539 198.446 372.462 217.37 335.034L217.11 334.903ZM217.176 334.838L217.174 334.839L217.307 335.098L217.309 335.097L217.176 334.838ZM200.7 317.068C201.689 316.134 202.662 315.635 203.606 315.474C204.55 315.314 205.479 315.489 206.385 315.929C208.205 316.812 209.92 318.754 211.43 321.128C214.447 325.872 216.591 332.253 217.099 334.994L217.385 334.941C216.871 332.166 214.714 325.75 211.676 320.972C210.158 318.586 208.407 316.587 206.512 315.667C205.561 315.206 204.571 315.015 203.557 315.187C202.544 315.36 201.521 315.893 200.5 316.857L200.7 317.068ZM99.3973 419.826C99.5013 419.928 99.5016 419.928 99.5023 419.927C99.503 419.926 99.5041 419.925 99.5055 419.924C99.5083 419.921 99.5126 419.916 99.5182 419.911C99.5295 419.899 99.5464 419.882 99.5688 419.859C99.6136 419.813 99.6805 419.745 99.7688 419.654C99.9453 419.474 100.207 419.206 100.549 418.856C101.234 418.157 102.239 417.129 103.52 415.819C106.083 413.2 109.754 409.448 114.184 404.923C123.043 395.873 134.94 383.726 147.088 371.343C171.386 346.574 196.683 320.861 200.7 317.068L200.5 316.857C196.478 320.655 171.174 346.374 146.88 371.139C134.732 383.523 122.836 395.669 113.976 404.72C109.546 409.245 105.875 412.996 103.312 415.616C102.031 416.926 101.026 417.953 100.342 418.653C99.9994 419.003 99.7374 419.271 99.5608 419.451C99.4726 419.541 99.4057 419.61 99.3609 419.656C99.3385 419.679 99.3216 419.696 99.3103 419.707C99.3047 419.713 99.3004 419.717 99.2976 419.72C99.2962 419.722 99.2951 419.723 99.2944 419.724C99.2937 419.724 99.2933 419.725 99.3973 419.826ZM189.908 315.83C183.56 322.965 160.904 348.941 139.837 373.132C129.303 385.227 119.165 396.877 111.662 405.503C107.91 409.816 104.816 413.373 102.661 415.852C101.583 417.091 100.74 418.061 100.166 418.721C99.8789 419.051 99.6593 419.303 99.5115 419.473C99.4376 419.558 99.3816 419.623 99.3441 419.666C99.3253 419.688 99.3112 419.704 99.3018 419.715C99.297 419.72 99.2935 419.724 99.2911 419.727C99.2899 419.728 99.289 419.729 99.2884 419.73C99.2878 419.731 99.2876 419.731 99.3973 419.826C99.507 419.922 99.5073 419.921 99.5079 419.921C99.5085 419.92 99.5094 419.919 99.5106 419.918C99.513 419.915 99.5165 419.911 99.5212 419.905C99.5307 419.895 99.5448 419.878 99.5636 419.857C99.6011 419.814 99.657 419.749 99.731 419.664C99.8788 419.494 100.098 419.242 100.385 418.912C100.959 418.252 101.802 417.282 102.88 416.043C105.036 413.564 108.129 410.007 111.881 405.694C119.385 397.068 129.522 385.418 140.056 373.323C161.124 349.131 183.778 323.157 190.126 316.023L189.908 315.83ZM197.785 307.501C195.026 310.336 192.325 313.114 189.908 315.83L190.126 316.023C192.537 313.313 195.234 310.54 197.993 307.703L197.785 307.501ZM234.945 363.268L234.944 363.262L234.654 363.285L234.655 363.292L234.945 363.268ZM258.09 466.935C240.525 431.788 238.293 404.391 234.945 363.268L234.655 363.292C238.003 404.413 240.236 431.862 257.83 467.065L258.09 466.935ZM282.43 347.385C280.194 397.743 277.566 427.449 257.83 466.935L258.09 467.065C277.855 427.521 280.484 397.763 282.721 347.398L282.43 347.385ZM262.851 363.606C263.412 356.124 268.326 352.11 273.125 349.96C275.524 348.885 277.89 348.279 279.657 347.942C280.541 347.773 281.273 347.672 281.785 347.613C282.041 347.583 282.241 347.564 282.377 347.553C282.445 347.547 282.497 347.543 282.532 347.54C282.549 347.539 282.563 347.538 282.571 347.538C282.576 347.538 282.579 347.537 282.581 347.537C282.582 347.537 282.583 347.537 282.583 347.537C282.584 347.537 282.584 347.537 282.584 347.537C282.584 347.537 282.584 347.537 282.575 347.392C282.567 347.247 282.567 347.247 282.567 347.247C282.566 347.247 282.566 347.247 282.566 347.247C282.565 347.247 282.564 347.247 282.563 347.247C282.561 347.247 282.557 347.247 282.552 347.248C282.543 347.248 282.529 347.249 282.511 347.25C282.475 347.253 282.422 347.257 282.352 347.263C282.214 347.275 282.01 347.294 281.751 347.324C281.234 347.384 280.494 347.486 279.603 347.656C277.821 347.996 275.432 348.608 273.006 349.695C268.153 351.869 263.133 355.956 262.561 363.584L262.851 363.606ZM257.96 430.106C258.105 430.116 258.105 430.116 258.105 430.115C258.105 430.115 258.106 430.114 258.106 430.114C258.106 430.112 258.106 430.11 258.106 430.107C258.107 430.1 258.107 430.091 258.108 430.079C258.11 430.054 258.112 430.017 258.116 429.968C258.123 429.87 258.133 429.725 258.146 429.535C258.173 429.155 258.212 428.595 258.263 427.878C258.364 426.443 258.509 424.376 258.688 421.848C259.044 416.793 259.531 409.896 260.053 402.526C261.098 387.787 262.284 371.16 262.851 363.606L262.561 363.584C261.994 371.139 260.808 387.767 259.763 402.506C259.241 409.875 258.754 416.773 258.397 421.828C258.219 424.355 258.074 426.422 257.973 427.857C257.922 428.575 257.883 429.134 257.856 429.515C257.843 429.705 257.833 429.85 257.826 429.948C257.822 429.997 257.82 430.034 257.818 430.058C257.817 430.071 257.816 430.08 257.816 430.086C257.816 430.089 257.816 430.092 257.815 430.093C257.815 430.094 257.815 430.095 257.815 430.095C257.815 430.095 257.815 430.096 257.96 430.106ZM254.262 363.851C255.025 370.964 255.914 387.526 256.611 402.316C256.96 409.71 257.261 416.659 257.475 421.759C257.582 424.309 257.667 426.397 257.725 427.848C257.754 428.573 257.777 429.139 257.792 429.524C257.8 429.716 257.805 429.863 257.809 429.962C257.811 430.011 257.813 430.049 257.814 430.074C257.814 430.086 257.814 430.096 257.815 430.102C257.815 430.105 257.815 430.108 257.815 430.109C257.815 430.11 257.815 430.111 257.815 430.111C257.815 430.111 257.815 430.111 257.96 430.106C258.106 430.1 258.106 430.1 258.106 430.1C258.106 430.099 258.106 430.099 258.106 430.098C258.106 430.096 258.105 430.094 258.105 430.091C258.105 430.084 258.105 430.075 258.104 430.062C258.103 430.037 258.102 430 258.1 429.95C258.096 429.852 258.09 429.705 258.083 429.512C258.067 429.128 258.045 428.562 258.016 427.836C257.957 426.386 257.872 424.297 257.765 421.747C257.551 416.646 257.25 409.697 256.902 402.302C256.204 387.516 255.316 370.944 254.551 363.82L254.262 363.851ZM233.673 347.392C233.656 347.536 233.656 347.536 233.656 347.536C233.656 347.536 233.657 347.536 233.657 347.536C233.657 347.536 233.658 347.537 233.659 347.537C233.661 347.537 233.665 347.537 233.669 347.538C233.678 347.539 233.692 347.541 233.71 347.543C233.745 347.547 233.799 347.554 233.869 347.564C234.009 347.584 234.214 347.614 234.477 347.658C235.003 347.746 235.756 347.887 236.664 348.101C238.482 348.529 240.921 349.247 243.406 350.407C248.379 352.729 253.507 356.807 254.262 363.851L254.551 363.82C253.78 356.628 248.541 352.484 243.529 350.144C241.021 348.972 238.562 348.249 236.731 347.818C235.815 347.602 235.056 347.46 234.525 347.371C234.26 347.327 234.051 347.296 233.909 347.276C233.838 347.266 233.783 347.259 233.746 347.254C233.728 347.252 233.714 347.25 233.704 347.249C233.699 347.249 233.696 347.248 233.693 347.248C233.692 347.248 233.691 347.248 233.691 347.247C233.69 347.247 233.69 347.247 233.69 347.247C233.69 347.247 233.689 347.247 233.673 347.392ZM233.479 347.537H233.673V347.246H233.479V347.537ZM234.944 363.262C234.531 358.19 234.101 352.909 233.624 347.379L233.334 347.404C233.812 352.933 234.241 358.213 234.654 363.285L234.944 363.262Z" fill="#1B532B"/>
</svg>
