<svg width="512" height="512" viewBox="0 0 512 512" fill="none" xmlns="http://www.w3.org/2000/svg">
<rect width="512" height="512" rx="10" fill="#F9F8F4"/>
<path d="M182.698 443.697C141.287 395.976 208.877 319.593 250.373 287.043C402.435 398.404 319.302 464.196 258.728 483.172C253.158 486.08 216.953 483.172 182.698 443.697Z" fill="#1B532B" stroke="#F9F8F4" stroke-width="15.1666"/>
<path d="M262.487 284.133C262.487 286.626 242.018 437.046 458.413 390.923C457.716 324.577 417.557 210.335 262.487 284.133Z" fill="#1B532B" stroke="#F9F8F4" stroke-width="15.1666"/>
<path d="M244.003 284.133C244.003 286.626 264.473 437.046 48.0782 390.923C48.7744 324.577 88.9342 210.335 244.003 284.133Z" fill="#1B532B" stroke="#F9F8F4" stroke-width="15.1666"/>
<path d="M264.996 267.096C264.972 267.083 264.948 267.068 264.925 267.052C258.715 263.212 249.391 265.341 245.219 266.985C245.129 267.027 245.037 267.064 244.943 267.096C245.033 267.06 245.125 267.023 245.219 266.985C249.412 265.028 249.345 252.075 216.954 214.325C175.597 166.124 169.748 129.973 180.192 95.8997C188.547 68.6412 233.246 39.9422 254.552 29C274.882 39.6652 318.635 67.9763 331 95.8997C346.457 130.804 326.405 166.124 291.732 214.325C264.243 252.537 262.382 265.342 264.925 267.052C264.949 267.067 264.972 267.082 264.996 267.096Z" fill="#1B532B" stroke="#F9F8F4" stroke-width="15.1666"/>
<path d="M282.542 162.72C271.847 176.682 278.086 211.752 282.542 227.542C265.163 254.136 263.81 273.501 265.143 283.129C256.128 281.142 256.128 281.142 245.362 283.129C248.447 265.861 235.753 237.515 227.816 227.542C228.373 213.553 228.652 181.003 225.31 162.72C221.132 139.866 148.443 124.907 69.9062 162.72C-8.63097 200.533 19.7761 242.916 40.6637 282.807C61.5512 322.697 117.948 354.277 125.049 357.601C132.151 360.926 166.824 372.56 182.699 329.346C195.399 294.774 232.183 289.871 234.104 289.871C227.002 294.857 227.816 307.323 229.487 311.478C230.824 314.802 246.476 328.099 254.134 334.332C259.704 329.9 272.516 319.124 279.2 311.478C285.884 303.832 278.921 293.887 274.604 289.871H282.542C302.218 288.783 323.063 315.218 325.57 329.346C328.076 343.474 335.178 355.108 361.496 362.172C387.815 369.236 440.034 320.62 465.517 282.807C490.999 244.994 523.166 212.999 440.034 162.72C356.901 112.441 295.91 145.268 282.542 162.72Z" fill="#1B532B" stroke="#F9F8F4" stroke-width="15.1666"/>
</svg>
