<svg width="193" height="72" viewBox="0 0 193 72" fill="none" xmlns="http://www.w3.org/2000/svg">
<g clip-path="url(#clip0_380_7701)">
<path fill-rule="evenodd" clip-rule="evenodd" d="M40.4013 27.4734L46.5451 27.1576C57.2888 26.5891 57.5139 18.5681 57.5139 18.4734V0.125983L56.6133 0.03125C56.6133 0.0944079 54.9406 8.24177 47.2528 8.62072L40.2083 8.93651C34.2574 9.22072 31.2659 12.8207 29.7863 16.2628C28.3066 19.7049 28.3066 23.0523 28.3066 23.0839V35.9681C28.1458 35.3997 27.9528 34.8628 27.7276 34.3576C26.2479 30.9155 23.2564 27.3155 17.3056 27.0312L10.2611 26.7155C5.62911 26.4944 2.66977 23.3681 1.25444 19.4207C0.997107 18.6312 0.86844 18.126 0.86844 18.126L-0.0322266 18.2207V36.5681C-0.0322266 36.5681 -0.0322264 37.1049 0.160774 37.8628C1.38311 42.8207 5.95077 44.9681 10.9044 45.2207L17.0483 45.5365C26.0871 46.0418 28.1136 55.8628 28.2744 57.5049V72.0312H29.1751C29.1751 71.0207 31.0086 60.4102 40.4013 59.9049L46.5451 59.5891C57.2888 58.9891 57.5139 50.9997 57.5139 50.9365V32.5891L56.6133 32.4944C56.6133 32.526 54.9406 40.7049 47.2528 41.0839L40.2083 41.3997C34.2574 41.6839 31.2659 45.2839 29.7863 48.726C29.5611 49.2312 29.3681 49.7681 29.2073 50.2418V39.5049C29.0786 38.747 31.6519 27.4734 40.4013 27.4734ZM27.4381 50.0839C25.4116 46.7997 23.2243 44.2418 16.8553 43.926L11.0331 43.6418C6.72277 43.4207 2.66977 41.7155 1.60827 37.6102C1.44744 37.0102 1.44744 36.5997 1.44744 36.5997V23.2418C3.08794 26.6523 5.72561 27.9155 10.2933 28.547L16.9839 28.8312C27.3738 29.3365 27.4703 40.7049 27.4703 40.7997V50.0839H27.4381ZM29.8506 55.1681C29.8506 55.0734 29.9471 43.7049 40.3369 43.1997L47.0276 42.9155C51.5631 42.3155 54.2329 41.0207 55.8734 37.6418V50.9997C55.8734 50.9997 55.8734 51.4102 55.7126 52.0102C54.6511 56.1155 50.6303 57.8207 46.2878 58.0418L40.4656 58.326C34.0644 58.6418 31.9093 61.1997 29.8828 64.4839V55.1681H29.8506ZM29.8506 31.9891V22.6733C29.8506 22.5786 29.9471 11.2102 40.3369 10.7049L47.0276 10.4207C51.5631 9.82072 54.2329 8.52598 55.8734 5.11546V18.4734C55.8734 18.4734 55.8734 18.8523 55.7126 19.4839C54.6511 23.5891 50.6303 25.2944 46.2878 25.5155L40.4656 25.7997C34.0644 26.147 31.9093 28.7049 29.8506 31.9891Z" fill="#009951"/>
<path d="M84.2447 33.7579V33.5369C84.2447 32.2421 83.7622 31.579 82.8937 31.579C82.4433 31.579 82.0573 31.7684 81.8643 32.1474C81.6392 32.5263 81.5748 32.8421 81.5748 33.7579V37.5158C81.5748 38.3684 81.6392 38.8105 81.7678 39.1895C81.9287 39.6316 82.379 39.9158 82.9258 39.9158C83.8265 39.9158 84.309 39.1895 84.309 37.7053C84.309 37.6421 84.309 37.5474 84.2768 37.4211H86.0782V37.8C86.0782 40.2316 84.9845 41.5263 82.9258 41.5263C81.7678 41.5263 80.8672 41.0842 80.3525 40.2632C79.9343 39.5684 79.8057 38.9053 79.8057 37.2316V34.0737C79.8057 32.3053 79.9343 31.6737 80.4812 30.9474C80.9958 30.2842 81.8643 29.9053 82.8937 29.9053C84.8558 29.9053 86.0138 31.2 86.0138 33.4105V33.7579H84.2447Z" fill="#009951"/>
<path d="M93.0898 38.4632C93.0898 39.7895 92.929 40.3579 92.4143 40.8316C91.964 41.2737 91.2885 41.5263 90.4843 41.5263C89.648 41.5263 88.9725 41.2737 88.5222 40.8316C88.0075 40.3263 87.8467 39.7579 87.8467 38.4632V35.8737C87.8467 34.5474 88.0075 33.979 88.5222 33.4737C88.9725 33.0316 89.648 32.8105 90.4843 32.8105C91.2885 32.8105 91.964 33.0632 92.4143 33.4737C92.929 33.979 93.0898 34.5474 93.0898 35.8737V38.4632ZM89.4228 38.5579C89.4228 39.6316 89.7445 40.1053 90.4522 40.1053C91.1598 40.1053 91.4815 39.6316 91.4815 38.5579V35.779C91.4815 34.7053 91.1598 34.2316 90.4522 34.2316C89.7123 34.2316 89.4228 34.7053 89.4228 35.779V38.5579Z" fill="#009951"/>
<path d="M96.7577 34.0418C97.4975 33.1892 98.1408 32.8418 98.8807 32.8418C99.8135 32.8418 100.264 33.4734 100.264 34.7997V41.3681H98.6555V35.2102C98.6555 34.4523 98.4947 34.2313 98.0443 34.2313C97.6262 34.2313 97.1437 34.5471 96.7255 35.0839V41.3681H95.1172V32.9681H96.7255V34.0418H96.7577Z" fill="#009951"/>
<path d="M104.155 41.3688L102.064 32.9688H103.769L104.992 38.3056L106.053 32.9688H107.758L105.828 41.3688H104.155Z" fill="#009951"/>
<path d="M110.911 37.4214V38.1477C110.911 38.9688 110.975 39.3161 111.104 39.6319C111.265 39.9161 111.587 40.074 111.973 40.074C112.68 40.074 113.002 39.6319 113.002 38.653V38.4319H114.61C114.578 39.5688 114.546 39.9477 114.289 40.3582C113.87 41.0846 113.066 41.4951 111.973 41.4951C111.008 41.4951 110.236 41.1793 109.817 40.6109C109.431 40.074 109.271 39.474 109.271 38.3372V35.8425C109.271 34.5161 109.431 33.9477 109.946 33.474C110.396 33.0004 111.072 32.7793 111.876 32.7793C112.745 32.7793 113.452 33.0635 113.903 33.5688C114.385 34.1056 114.546 34.7056 114.546 36.0319V37.4214H110.911ZM113.002 35.5898C113.002 34.5793 112.68 34.2003 111.94 34.2003C111.201 34.2003 110.879 34.6109 110.879 35.5898V36.0635H112.97V35.5898H113.002Z" fill="#009951"/>
<path d="M118.116 34.0418C118.856 33.1892 119.499 32.8418 120.239 32.8418C121.172 32.8418 121.622 33.4734 121.622 34.7997V41.3681H120.014V35.2102C120.014 34.4523 119.853 34.2313 119.403 34.2313C118.985 34.2313 118.502 34.5471 118.084 35.0839V41.3681H116.476V32.9681H118.084V34.0418H118.116Z" fill="#009951"/>
<path d="M127.509 34.3891H126.061V38.8417C126.061 39.6943 126.351 40.0417 127.058 40.0417C127.251 40.0417 127.412 40.0101 127.669 39.947V41.368C127.219 41.4628 126.93 41.4943 126.576 41.4943C125.772 41.4943 125.193 41.3049 124.839 40.8628C124.517 40.4838 124.453 40.0733 124.453 39.0312V34.3891H123.198V32.9996H124.453V30.6943H126.061V32.9996H127.509V34.3891Z" fill="#009951"/>
<path d="M130.822 31.7368H129.214V30.0947H130.822V31.7368ZM130.822 41.3684H129.214V32.9684H130.822V41.3684Z" fill="#009951"/>
<path d="M138.027 38.4632C138.027 39.7895 137.867 40.3579 137.352 40.8316C136.869 41.2737 136.226 41.5263 135.422 41.5263C134.586 41.5263 133.91 41.2737 133.46 40.8316C132.945 40.3263 132.784 39.7579 132.784 38.4632V35.8737C132.784 34.5474 132.945 33.979 133.46 33.4737C133.91 33.0316 134.586 32.8105 135.422 32.8105C136.226 32.8105 136.902 33.0632 137.352 33.4737C137.867 33.979 138.027 34.5474 138.027 35.8737V38.4632ZM134.36 38.5579C134.36 39.6316 134.682 40.1053 135.39 40.1053C136.097 40.1053 136.419 39.6316 136.419 38.5579V35.779C136.419 34.7053 136.097 34.2316 135.39 34.2316C134.682 34.2316 134.36 34.7053 134.36 35.779V38.5579Z" fill="#009951"/>
<path d="M141.63 34.0418C142.37 33.1892 143.013 32.8418 143.753 32.8418C144.686 32.8418 145.136 33.4734 145.136 34.7997V41.3681H143.528V35.2102C143.528 34.4523 143.367 34.2313 142.916 34.2313C142.498 34.2313 142.016 34.5471 141.598 35.0839V41.3681H139.989V32.9681H141.598V34.0418H141.63Z" fill="#009951"/>
<path d="M156.201 38.4632C156.201 39.7895 156.04 40.3579 155.526 40.8316C155.043 41.2737 154.4 41.5263 153.596 41.5263C152.759 41.5263 152.084 41.2737 151.634 40.8316C151.119 40.3263 150.958 39.7579 150.958 38.4632V35.8737C150.958 34.5474 151.119 33.979 151.634 33.4737C152.084 33.0316 152.759 32.8105 153.596 32.8105C154.4 32.8105 155.075 33.0632 155.526 33.4737C156.04 33.979 156.201 34.5474 156.201 35.8737V38.4632ZM152.566 38.5579C152.566 39.6316 152.888 40.1053 153.596 40.1053C154.303 40.1053 154.625 39.6316 154.625 38.5579V35.779C154.625 34.7053 154.303 34.2316 153.596 34.2316C152.888 34.2316 152.566 34.7053 152.566 35.779V38.5579Z" fill="#009951"/>
<path d="M159.547 34.0418C160.287 33.1892 160.93 32.8418 161.67 32.8418C162.603 32.8418 163.053 33.4734 163.053 34.7997V41.3681H161.445V35.2102C161.445 34.4523 161.284 34.2313 160.833 34.2313C160.415 34.2313 159.933 34.5471 159.515 35.0839V41.3681H157.906V32.9681H159.515V34.0418H159.547Z" fill="#009951"/>
<path d="M79.9345 47.4316H82.5722C84.7273 47.4316 85.9175 48.4737 85.9175 50.2737C85.9175 51.6001 85.3063 52.3895 84.0197 52.8001C85.5637 53.2422 86.1748 54.0316 86.1748 55.5158C86.1748 57.5053 84.8882 58.7053 82.7652 58.7053H79.9023V47.4316H79.9345ZM82.347 52.0422C83.4407 52.0422 84.1483 51.4106 84.1483 50.4632C84.1483 50.0527 83.9875 49.6737 83.7302 49.4211C83.4407 49.1685 83.0868 49.0737 82.4113 49.0737H81.7037V52.0737H82.347V52.0422ZM82.5722 57.0948C83.698 57.0948 84.3413 56.5264 84.3413 55.5158C84.3413 54.379 83.5372 53.6527 82.3148 53.6527H81.6715V57.1264H82.5722V57.0948Z" fill="#009951"/>
<path d="M89.7451 49.0737H88.1367V47.4316H89.7451V49.0737ZM89.7451 58.7053H88.1367V50.3053H89.7451V58.7053Z" fill="#009951"/>
<path d="M96.9502 55.8001C96.9502 57.1264 96.7894 57.6948 96.2747 58.1685C95.8244 58.6106 95.1489 58.8633 94.3447 58.8633C93.5084 58.8633 92.8329 58.6422 92.3825 58.1685C91.9 57.6633 91.707 57.0948 91.707 55.8001V53.2106C91.707 51.8843 91.8679 51.3159 92.3825 50.8106C92.8329 50.3685 93.5084 50.1475 94.3447 50.1475C95.1489 50.1475 95.8244 50.4001 96.2747 50.8106C96.7894 51.3159 96.9502 51.8843 96.9502 53.2106V55.8001ZM93.3154 55.8948C93.3154 56.9685 93.637 57.4422 94.3447 57.4422C95.0524 57.4422 95.374 56.9685 95.374 55.8948V53.1159C95.374 52.0422 95.0524 51.5685 94.3447 51.5685C93.637 51.5685 93.3154 52.0422 93.3154 53.1159V55.8948Z" fill="#009951"/>
<path d="M100.489 47.4629H98.8809V58.7366H100.489V47.4629Z" fill="#009951"/>
<path d="M107.694 55.8001C107.694 57.1264 107.534 57.6948 107.019 58.1685C106.536 58.6106 105.893 58.8633 105.089 58.8633C104.253 58.8633 103.577 58.6422 103.127 58.1685C102.612 57.6633 102.451 57.0948 102.451 55.8001V53.2106C102.451 51.8843 102.612 51.3159 103.127 50.8106C103.577 50.3685 104.253 50.1475 105.089 50.1475C105.893 50.1475 106.569 50.4001 107.019 50.8106C107.534 51.3159 107.694 51.8843 107.694 53.2106V55.8001ZM104.06 55.8948C104.06 56.9685 104.381 57.4422 105.089 57.4422C105.797 57.4422 106.118 56.9685 106.118 55.8948V53.1159C106.118 52.0422 105.797 51.5685 105.089 51.5685C104.381 51.5685 104.06 52.0422 104.06 53.1159V55.8948Z" fill="#009951"/>
<path d="M115.704 51.9159C115.511 51.758 115.382 51.6948 115.157 51.6948C114.9 51.6948 114.739 51.7896 114.546 52.0106C114.675 52.4527 114.707 52.8317 114.707 53.4001C114.707 55.4843 113.806 56.6211 112.133 56.6211C111.94 56.6211 111.78 56.5896 111.522 56.558C111.297 56.6843 111.136 56.8422 111.136 57.0633C111.136 57.2527 111.265 57.379 111.49 57.4422C111.651 57.4738 111.844 57.5054 112.809 57.5369C113.903 57.6001 114.353 57.6948 114.835 57.979C115.35 58.2948 115.64 58.8948 115.64 59.5896C115.64 61.0106 114.578 61.6738 112.23 61.6738C110.268 61.6738 109.271 61.1685 109.271 60.158C109.271 59.4948 109.657 59.0843 110.622 58.7685C109.914 58.4843 109.624 58.1685 109.624 57.6633C109.624 57.0317 109.978 56.6843 110.943 56.3685C109.946 55.8317 109.528 54.9475 109.528 53.3685C109.528 51.2843 110.429 50.1475 112.166 50.1475C113.163 50.1475 113.71 50.4633 114.256 51.2212C114.482 50.4633 114.9 50.1475 115.736 50.179V51.9159H115.704ZM111.265 58.9896C111.072 59.1475 110.879 59.4633 110.879 59.6843C110.879 60.1896 111.329 60.379 112.455 60.379C113.581 60.379 114.096 60.158 114.096 59.6527C114.096 59.3369 113.903 59.1475 113.42 59.0843C113.195 59.0212 113.034 59.0211 112.133 58.9896C111.908 58.958 111.683 58.958 111.297 58.8948C111.297 58.958 111.297 58.958 111.265 58.9896ZM111.136 53.8738C111.136 54.7896 111.458 55.2317 112.101 55.2317C112.777 55.2317 113.066 54.7896 113.066 53.8738V52.958C113.066 52.0422 112.745 51.6001 112.101 51.6001C111.458 51.6001 111.136 52.0422 111.136 52.958V53.8738Z" fill="#009951"/>
<path d="M118.663 49.0737H117.055V47.4316H118.663V49.0737ZM118.663 58.7053H117.055V50.3053H118.663V58.7053Z" fill="#009951"/>
<path d="M124.324 53.2109V52.9899C124.324 52.0425 124.002 51.5688 123.295 51.5688C122.909 51.5688 122.587 51.7267 122.426 52.0109C122.266 52.2952 122.233 52.6741 122.233 53.4636V55.4846C122.233 56.2741 122.298 56.653 122.426 56.9373C122.587 57.2215 122.909 57.3794 123.295 57.3794C124.002 57.3794 124.324 56.9373 124.324 55.9267V55.7057H125.932V56.0215C125.932 57.0004 125.772 57.6004 125.321 58.0741C124.871 58.5794 124.163 58.8636 123.295 58.8636C122.33 58.8636 121.59 58.5478 121.14 57.9794C120.754 57.4425 120.625 56.8741 120.625 55.7057V53.2741C120.625 52.1373 120.754 51.5057 121.14 51.0004C121.59 50.432 122.33 50.1162 123.295 50.1162C124.163 50.1162 124.871 50.3688 125.321 50.8741C125.74 51.3162 125.932 51.9162 125.932 52.8952V53.2109H124.324Z" fill="#009951"/>
<path d="M131.143 58.705C131.047 58.484 131.015 58.1366 131.015 57.7261C130.243 58.5471 129.76 58.8313 129.085 58.8313C127.991 58.8313 127.348 57.9787 127.348 56.5892C127.348 55.5471 127.734 54.884 128.731 54.284C129.149 54.0313 129.567 53.8419 131.015 53.2103V52.7682C131.015 51.9156 130.789 51.5682 130.178 51.5682C129.567 51.5682 129.31 51.9156 129.245 52.7682H127.573C127.701 51.0945 128.699 50.1787 130.436 50.1787C131.24 50.1787 131.787 50.3998 132.205 50.8103C132.559 51.2208 132.655 51.6313 132.655 52.6734V56.3998C132.655 57.6629 132.687 58.0419 132.848 58.6734H131.143V58.705ZM131.015 54.3787C129.599 55.105 129.052 55.705 129.052 56.4945C129.052 57.0629 129.406 57.4419 129.857 57.4419C130.307 57.4419 130.725 57.1577 131.015 56.684V54.3787Z" fill="#009951"/>
<path d="M136.354 47.4629H134.746V58.7366H136.354V47.4629Z" fill="#009951"/>
<path d="M141.983 47.4316H144.782C147.034 47.4316 148.095 48.5685 148.095 50.9685V55.1685C148.095 57.5685 147.034 58.7053 144.782 58.7053H141.983V47.4316ZM144.653 57.0948C145.908 57.0948 146.358 56.4632 146.358 54.6948V51.4422C146.358 49.6737 145.908 49.0422 144.653 49.0422H143.785V57.0948H144.653Z" fill="#009951"/>
<path d="M151.666 49.0737H150.058V47.4316H151.666V49.0737ZM151.666 58.7053H150.058V50.3053H151.666V58.7053Z" fill="#009951"/>
<path d="M155.333 58.7057L153.242 50.3057H154.947L156.169 55.6425L157.263 50.3057H158.936L157.038 58.7057H155.333Z" fill="#009951"/>
<path d="M161.894 54.7896V55.5159C161.894 56.3369 161.959 56.6843 162.087 56.9685C162.248 57.2527 162.57 57.4422 162.956 57.4422C163.664 57.4422 163.985 57.0001 163.985 56.0211V55.8001H165.594C165.561 56.9369 165.529 57.3159 165.272 57.7264C164.854 58.4527 164.017 58.8633 162.956 58.8633C161.959 58.8633 161.219 58.5475 160.801 57.979C160.415 57.4422 160.254 56.8422 160.254 55.7054V53.2106C160.254 51.8843 160.415 51.3159 160.929 50.8422C161.38 50.3685 162.055 50.1475 162.859 50.1475C163.728 50.1475 164.436 50.4317 164.886 50.9369C165.368 51.4738 165.529 52.0738 165.529 53.4001V54.7896H161.894ZM163.985 52.9264C163.985 51.9159 163.664 51.5369 162.924 51.5369C162.184 51.5369 161.862 51.9475 161.862 52.9264V53.3685H163.953V52.9264H163.985Z" fill="#009951"/>
<path d="M169.101 50.305V51.7577C169.519 50.6524 170.162 50.1787 171.159 50.1787V52.0103C170.838 51.884 170.645 51.8524 170.387 51.8524C169.969 51.8524 169.615 52.0103 169.39 52.2945C169.165 52.5787 169.101 52.8629 169.101 53.6524V58.705H167.492V50.305H169.101Z" fill="#009951"/>
<path d="M175.758 52.7998C175.437 51.9156 175.051 51.5682 174.439 51.5682C173.957 51.5682 173.603 51.884 173.603 52.2945C173.603 52.7366 173.86 52.9577 175.051 53.6208C176.016 54.1577 176.434 54.4419 176.788 54.7577C177.174 55.1366 177.399 55.7366 177.399 56.3366C177.399 57.8208 176.337 58.8313 174.761 58.8313C173.314 58.8313 172.381 58.0735 171.834 56.4629L173.346 55.9577C173.7 56.9998 174.086 57.3787 174.761 57.3787C175.308 57.3787 175.662 57.0314 175.662 56.5261C175.662 56.0524 175.372 55.7366 174.472 55.2629C173.281 54.5998 172.96 54.4103 172.606 53.9998C172.22 53.5892 171.995 53.0208 171.995 52.4208C171.995 51.0629 173.056 50.084 174.504 50.084C175.855 50.084 176.723 50.7471 177.27 52.105L175.758 52.7998Z" fill="#009951"/>
<path d="M180.519 49.0737H178.911V47.4316H180.519V49.0737ZM180.519 58.7053H178.911V50.3053H180.519V58.7053Z" fill="#009951"/>
<path d="M186.213 51.7266H184.765V56.2108C184.765 57.0635 185.055 57.4108 185.762 57.4108C185.955 57.4108 186.116 57.3793 186.374 57.3161V58.7372C185.923 58.8319 185.634 58.8635 185.28 58.8635C184.476 58.8635 183.897 58.674 183.543 58.2319C183.221 57.8529 183.157 57.474 183.157 56.4003V51.7582H181.902V50.3687H183.157V48.0635H184.765V50.3687H186.213V51.7266Z" fill="#009951"/>
<path d="M192.968 50.3057L191.102 58.3583C190.523 61.1057 189.88 61.7057 187.467 61.7057V60.0951C187.564 60.1267 187.692 60.1267 187.725 60.1267C188.625 60.1267 189.204 59.5583 189.204 58.7372C189.204 58.5478 189.172 58.3583 189.076 58.0109L187.21 50.3372H188.883L190.137 56.053L191.295 50.3372H192.968V50.3057Z" fill="#009951"/>
</g>
<defs>
<clipPath id="clip0_380_7701">
<rect width="193" height="72" fill="white"/>
</clipPath>
</defs>
</svg>
