<svg width="75" height="72" viewBox="0 0 75 72" fill="none" xmlns="http://www.w3.org/2000/svg">
<g clip-path="url(#clip0_380_7737)">
<path d="M17.6374 0C16.0893 0 15.0325 0.86867 14.9711 1.45741C14.9064 2.10838 15.3183 2.74433 15.8758 3.18062C19.9652 6.40454 8.16793 12.675 9.62264 25.4465C10.6541 34.4784 20.9683 46.7985 23.0947 46.7985C23.1753 46.7985 23.2454 46.7799 23.3014 46.7435C24.9441 45.671 18.4666 33.8388 16.983 29.9348C13.6897 21.1723 18.6623 15.5666 20.6023 12.306C23.1496 8.0165 23.7715 3.95668 21.7817 1.99774C20.2653 0.498833 18.8096 0 17.6374 0Z" fill="#E51B24"/>
<path d="M47.353 3.5708C47.2155 3.5708 47.0747 3.5732 46.9306 3.57983C31.906 4.26057 29.7059 22.8355 29.6695 29.5648C29.6695 30.1427 29.7145 33.0894 29.044 33.0894C28.9086 33.0894 28.743 32.9673 28.5402 32.6784C27.759 31.5541 25.5293 28.2857 24.8639 27.4059C24.6724 27.1555 24.4123 27.0295 24.1582 27.0295C23.6242 27.0295 23.1204 27.5854 23.3507 28.707C23.467 29.2765 24.9575 35.6218 27.1001 38.2326C27.7163 38.9897 29.1335 40.0583 30.5983 40.0583C32.0235 40.0583 33.4958 39.0475 34.3232 35.7544C35.7568 30.6596 34.0551 10.4056 51.1721 8.09067C52.5254 7.90605 53.0465 6.28657 52.251 5.33281C51.6864 4.65838 49.9674 3.5708 47.353 3.5708Z" fill="#FAB20B"/>
<path d="M56.5192 21.7362C55.9778 21.5645 55.9536 21.2256 56.3524 20.624C57.0361 19.5956 59.8295 13.3907 56.3873 10.1337C56.1078 9.86823 55.7433 9.59341 55.3502 9.40188C54.7173 9.09638 53.9214 9.42141 53.9328 10.4943C54.0139 18.3616 50.1771 19.8713 44.8072 19.9288H44.1692V23.5442L48.9238 23.8755L49.0103 23.8842C54.1481 24.2914 57.2407 27.7134 57.2407 31.6572C57.2407 36.3993 53.3329 39.4638 49.0115 39.4638C47.5773 39.4638 46.1068 39.1649 44.9185 38.415C44.6939 38.2731 44.3908 38.0527 44.1558 37.8726C44.1558 38.486 44.1602 45.5884 44.1602 45.5884C45.7999 46.3747 47.6591 46.8417 50.065 46.8417C56.9809 46.8417 65.6301 41.7039 65.6301 32.7219C65.6301 28.04 61.779 23.3993 56.5192 21.7362Z" fill="#1B4690"/>
<path d="M74.75 69.9266C74.583 69.7176 74.2621 69.4849 73.7827 69.2308L73.6768 69.1707C73.4254 69.0396 73.256 68.9286 73.1695 68.8393C73.0842 68.7494 73.0409 68.6385 73.0409 68.5044C73.0409 68.3414 73.0883 68.2187 73.1826 68.1366C73.2768 68.0542 73.4179 68.0127 73.6064 68.0127C73.7607 68.0127 73.8979 68.0416 74.0157 68.0993C74.1338 68.1562 74.2459 68.2497 74.3509 68.3793L74.8386 67.9156L74.7888 67.866C74.6361 67.7115 74.458 67.5939 74.257 67.5127C74.0551 67.4312 73.8376 67.3906 73.6064 67.3906C73.2208 67.3906 72.9165 67.4917 72.6913 67.6952C72.4679 67.8985 72.3546 68.1757 72.3546 68.5263C72.3546 68.67 72.3743 68.8005 72.4142 68.9178C72.4533 69.0348 72.5129 69.1409 72.5938 69.2368C72.6806 69.3388 72.7975 69.4425 72.9452 69.5465C73.0919 69.6506 73.2783 69.763 73.5029 69.8842L73.6121 69.941C73.8937 70.0908 74.0789 70.2258 74.1693 70.3448C74.26 70.4636 74.3044 70.6004 74.3044 70.7547C74.3044 70.9447 74.2451 71.0944 74.1255 71.2054C74.007 71.3154 73.8451 71.3717 73.6375 71.3717C73.4651 71.3717 73.3067 71.3317 73.1608 71.2526C73.017 71.1735 72.8554 71.0373 72.6776 70.8452L72.1989 71.3395L72.246 71.384C72.4637 71.6029 72.6821 71.7607 72.9016 71.8564C73.1205 71.9523 73.3699 72.0001 73.65 72.0001C74.0649 72.0001 74.3939 71.8879 74.6367 71.6639C74.8789 71.4402 75 71.132 75 70.742C75 70.4086 74.9162 70.1365 74.75 69.9266ZM69.2104 71.2303C69.1713 71.2303 69.1403 71.2334 69.1206 71.2415C69.0994 71.2484 69.0774 71.2613 69.055 71.2805L69.0344 71.2586C69.0502 71.2348 69.0621 71.2126 69.0711 71.1909C69.0788 71.169 69.083 71.1401 69.083 71.1019V70.1223C69.083 70.0907 69.0788 70.0637 69.0711 70.0393C69.0621 70.0156 69.0502 69.9921 69.0344 69.969L69.058 69.9443C69.0815 69.9626 69.1015 69.9753 69.1206 69.9816C69.1382 69.9876 69.1689 69.9921 69.2104 69.9936H70.697V69.3213H69.2104C69.1731 69.3213 69.1445 69.3243 69.1248 69.3309C69.1057 69.3366 69.0818 69.3507 69.055 69.3715L69.0311 69.3462C69.0514 69.3147 69.0654 69.2882 69.0717 69.2681C69.0788 69.2467 69.083 69.2224 69.083 69.1926V68.2881C69.083 68.2569 69.0788 68.2292 69.0711 68.2054C69.0621 68.1817 69.0502 68.1567 69.0344 68.1315L69.055 68.1071C69.086 68.1276 69.1129 68.1411 69.1352 68.1492C69.1555 68.1561 69.1818 68.16 69.2104 68.16H70.9124L70.8372 67.4742H68.3761V71.9156H70.831L70.9124 71.2303L69.2104 71.2303ZM65.5696 71.2303C65.5308 71.2303 65.501 71.2334 65.4798 71.2415C65.4595 71.2484 65.4392 71.2613 65.4175 71.2805L65.3921 71.2553C65.4115 71.2342 65.4249 71.2144 65.4321 71.1961C65.4392 71.1771 65.4428 71.1458 65.4428 71.1019V67.4682H64.7159V71.9156H66.9545L67.0631 71.2303L65.5696 71.2303ZM61.9023 71.2303C61.8629 71.2303 61.8319 71.2334 61.8122 71.2415C61.7916 71.2484 61.7707 71.2613 61.7495 71.2805L61.7254 71.2553C61.7439 71.2342 61.7567 71.2144 61.763 71.1961C61.7707 71.1771 61.7749 71.1458 61.7749 71.1019V67.4682H61.0483V71.9156H63.2872L63.3957 71.2303L61.9023 71.2303ZM57.7758 71.2303C57.7365 71.2303 57.707 71.2334 57.6858 71.2415C57.6646 71.2484 57.6428 71.2613 57.6198 71.2805L57.5993 71.2586C57.6154 71.2348 57.6276 71.2126 57.6359 71.1909C57.6443 71.169 57.6485 71.1401 57.6485 71.1019V70.1223C57.6485 70.0907 57.6443 70.0637 57.6359 70.0393C57.6276 70.0156 57.6153 69.9921 57.5993 69.969L57.624 69.9443C57.6464 69.9626 57.6667 69.9753 57.6858 69.9816C57.7048 69.9876 57.7338 69.9921 57.7758 69.9936H59.2631V69.3213H57.7758C57.738 69.3213 57.7099 69.3243 57.6902 69.3309C57.6705 69.3366 57.6479 69.3507 57.6198 69.3715L57.5963 69.3462C57.6169 69.3147 57.6303 69.2882 57.638 69.2681C57.6443 69.2467 57.6485 69.2224 57.6485 69.1926V68.2881C57.6485 68.2569 57.6443 68.2292 57.636 68.2054C57.6276 68.1817 57.6154 68.1567 57.5993 68.1315L57.6199 68.1071C57.6515 68.1276 57.678 68.1411 57.6992 68.1492C57.7219 68.1561 57.7466 68.16 57.7759 68.16H59.4767L59.4024 67.4742H56.941V71.9156H59.3961L59.4767 71.2303L57.7758 71.2303ZM54.3707 69.7564C54.3504 69.7167 54.3328 69.6911 54.3194 69.6794C54.3066 69.6686 54.2875 69.659 54.2657 69.653V69.628C54.2875 69.622 54.3066 69.613 54.3194 69.6015C54.3328 69.5901 54.3504 69.5646 54.3707 69.5246L55.5283 67.4742H54.7328L54.073 68.7235C54.0187 68.8234 53.9829 68.9055 53.9644 68.9677C53.9453 69.0302 53.9307 69.1304 53.9203 69.2681H53.889C53.8791 69.1382 53.8639 69.0411 53.8442 68.9752C53.8251 68.9097 53.7879 68.8255 53.7342 68.7235L53.0732 67.4742H52.2789L53.4299 69.5246C53.449 69.5579 53.4654 69.582 53.4809 69.597C53.4967 69.6115 53.5161 69.622 53.5391 69.628V69.653C53.5161 69.659 53.4967 69.6698 53.4809 69.6842C53.4654 69.6987 53.449 69.723 53.4299 69.7564L52.235 71.9156H53.0365L53.7342 70.5631C53.7968 70.4429 53.8362 70.3499 53.8532 70.2853C53.8714 70.2203 53.8827 70.1316 53.889 70.0192H53.9203C53.9307 70.1464 53.9447 70.2417 53.9629 70.3054C53.9799 70.3689 54.0166 70.4552 54.073 70.5631L54.7716 71.9156H55.5722L54.3707 69.7564ZM50.9351 67.4742H50.2109V70.0447C50.2109 70.4699 50.1268 70.7874 49.957 70.9973C49.7861 71.2069 49.5305 71.3115 49.1863 71.3115C48.8433 71.3115 48.5868 71.2069 48.4167 70.9973C48.2467 70.7874 48.1623 70.4699 48.1623 70.0447V67.4742H47.4393V69.9723C47.4393 70.3394 47.4757 70.6392 47.5475 70.8704C47.6194 71.1019 47.7316 71.2971 47.8834 71.4556C48.049 71.6312 48.2434 71.7656 48.468 71.8594C48.6932 71.9529 48.9325 72.0001 49.1863 72.0001C49.441 72.0001 49.6811 71.9529 49.9057 71.8594C50.1298 71.7656 50.3254 71.6312 50.491 71.4556C50.6416 71.2971 50.7535 71.1019 50.8262 70.8704C50.8993 70.6392 50.9351 70.3394 50.9351 69.9723V67.4742ZM45.022 70.1539C44.9811 70.0935 44.9304 70.0363 44.8699 69.9828C44.8111 69.9299 44.7407 69.8797 44.6593 69.8313L44.6718 69.8093C44.7261 69.824 44.7741 69.8352 44.8183 69.8421C44.8618 69.8502 44.903 69.8532 44.9424 69.8532C45.2153 69.8532 45.445 69.744 45.6332 69.526C45.8196 69.3084 45.9142 69.0407 45.9142 68.7235C45.9142 68.3182 45.7916 68.0094 45.5473 67.7953C45.3036 67.5818 44.9459 67.4742 44.4767 67.4742H43.312V71.9156H44.0073V70.3502C44.0073 70.1839 44.0028 70.0613 43.995 69.9816C43.9861 69.9019 43.9706 69.8102 43.9488 69.7062L43.9795 69.6968C44.0141 69.7907 44.0502 69.8715 44.0866 69.9392C44.1233 70.0071 44.1833 70.1013 44.2686 70.2227L45.3978 71.9156H46.1871L45.022 70.1539ZM45.0817 69.2104C44.9677 69.3132 44.7902 69.3649 44.5474 69.3649H44.1191C44.0797 69.3649 44.0502 69.3685 44.0311 69.3763C44.0108 69.3833 43.9903 69.3965 43.967 69.4154L43.9425 69.3905C43.967 69.3634 43.984 69.3378 43.9932 69.3147C44.0028 69.2924 44.0072 69.2663 44.0072 69.2368V68.2193C43.9989 68.1817 43.9903 68.1523 43.981 68.13C43.9715 68.1086 43.9592 68.0861 43.9425 68.063L43.967 68.0383C43.9938 68.0591 44.0165 68.0726 44.0359 68.0786C44.0535 68.0855 44.0812 68.0876 44.1191 68.0876H44.5474C44.7876 68.0876 44.9656 68.1396 45.0802 68.2434C45.195 68.3462 45.252 68.5062 45.252 68.7236C45.252 68.9446 45.1959 69.1066 45.0817 69.2104ZM41.5509 69.908C41.4033 69.7257 41.1992 69.61 40.9415 69.5622V69.5246C41.159 69.4599 41.3209 69.3553 41.4259 69.2104C41.5315 69.0651 41.5849 68.8748 41.5849 68.6391C41.5849 68.2608 41.4644 67.9731 41.2246 67.774C40.9836 67.5738 40.6295 67.4742 40.1618 67.4742H38.9326V71.9156H40.2555C40.7315 71.9156 41.1026 71.7926 41.3696 71.5446C41.6371 71.2977 41.7702 70.979 41.7702 70.5887C41.7702 70.3175 41.6971 70.0902 41.5509 69.908ZM40.7626 69.1376C40.6525 69.2452 40.4944 69.2994 40.2895 69.2994H39.7216C39.6837 69.2994 39.6562 69.3027 39.6378 69.3099C39.619 69.3174 39.5963 69.3315 39.5698 69.3523L39.545 69.3273C39.5471 69.3231 39.5501 69.318 39.5542 69.3114C39.5853 69.2639 39.6008 69.217 39.6008 69.1706V68.2166C39.5986 68.1871 39.5936 68.1628 39.5867 68.1426C39.579 68.1231 39.5661 68.0966 39.545 68.0629L39.5697 68.0383C39.5936 68.059 39.6154 68.0726 39.6345 68.0786C39.6533 68.0855 39.6822 68.0876 39.7216 68.0876H40.2057C40.4604 68.0876 40.6447 68.1357 40.759 68.231C40.8723 68.3254 40.9287 68.4731 40.9287 68.6733C40.9287 68.8757 40.8738 69.0309 40.7626 69.1376ZM40.8956 71.0974C40.7563 71.224 40.5633 71.2869 40.3148 71.2869H39.7275C39.6899 71.2869 39.6625 71.2902 39.6428 71.2977C39.6252 71.3049 39.6025 71.319 39.5748 71.3395L39.5513 71.3115C39.5733 71.282 39.5873 71.2598 39.5921 71.243C39.5987 71.2258 39.6008 71.1979 39.6008 71.1585V70.0129C39.6008 69.9816 39.5986 69.9563 39.5921 69.9377C39.5873 69.9191 39.5733 69.8923 39.5513 69.8595L39.5748 69.8313C39.6025 69.852 39.6252 69.8661 39.6428 69.8737C39.6625 69.8812 39.6899 69.8842 39.7275 69.8842H40.2895C40.447 69.8842 40.5732 69.8995 40.6683 69.9299C40.7638 69.9603 40.847 70.0129 40.9174 70.0878C40.9743 70.1503 41.0203 70.2243 41.0531 70.3088C41.0862 70.3936 41.1026 70.4805 41.1026 70.5701C41.1026 70.7953 41.0337 70.9708 40.8956 71.0974ZM37.2664 69.9816H35.7425V70.6386H37.2664V69.9816ZM32.6747 71.2303C32.6356 71.2303 32.6052 71.2334 32.5849 71.2415C32.5634 71.2484 32.5432 71.2613 32.5196 71.2806L32.4975 71.2586C32.5148 71.2349 32.5274 71.2126 32.5351 71.1909C32.5438 71.169 32.5476 71.1401 32.5476 71.1019V70.1223C32.5476 70.0907 32.5438 70.0637 32.5351 70.0393C32.5274 70.0156 32.5148 69.9921 32.4975 69.969L32.5226 69.9443C32.5455 69.9626 32.5661 69.9753 32.5849 69.9816C32.6037 69.9876 32.6335 69.9921 32.6747 69.9936H34.1622V69.3213H32.6747C32.6374 69.3213 32.6091 69.3243 32.5894 69.3309C32.57 69.3366 32.5464 69.3508 32.5196 69.3715L32.4945 69.3462C32.516 69.3147 32.5297 69.2882 32.5366 69.2681C32.5446 69.2467 32.5476 69.2224 32.5476 69.1926V68.2881C32.5476 68.2569 32.5438 68.2292 32.5351 68.2054C32.5274 68.1817 32.5148 68.1567 32.4975 68.1315L32.5196 68.1071C32.5506 68.1276 32.5772 68.1411 32.5986 68.1492C32.6201 68.1561 32.6458 68.16 32.6747 68.16H34.3761L34.3021 67.4742H31.8401V71.9156H34.2956L34.3761 71.2303L32.6747 71.2303ZM30.043 67.4682H29.3194V71.9156H30.043V67.4682ZM27.5207 67.4742H26.8216V70.2035C26.8216 70.331 26.8317 70.4627 26.8526 70.6001C26.8732 70.7363 26.9075 70.9017 26.9549 71.096L26.9236 71.102C26.866 70.9333 26.8102 70.7899 26.7553 70.6735C26.7005 70.5562 26.6357 70.4429 26.5612 70.3319L24.6149 67.4742H23.9658V71.9156H24.6671V69.1809C24.6671 69.0636 24.6585 68.9467 24.6414 68.8297C24.6235 68.7133 24.5874 68.5344 24.5338 68.2942L24.5651 68.2882C24.6352 68.4887 24.6921 68.6355 24.7375 68.7299C24.7816 68.8234 24.8446 68.931 24.9275 69.0522L26.8708 71.9156H27.5207V67.4742ZM21.8191 68.0335C21.4048 67.6044 20.8697 67.3906 20.2135 67.3906C19.5781 67.3906 19.0553 67.6071 18.6439 68.0416C18.2329 68.4755 18.0277 69.0251 18.0277 69.6906C18.0277 70.3644 18.2338 70.9173 18.6457 71.3476C19.0576 71.7788 19.5865 71.9941 20.2323 71.9941C20.8754 71.9941 21.4048 71.7788 21.8191 71.3476C22.2325 70.9173 22.4398 70.3665 22.4398 69.6969C22.4398 69.0164 22.2325 68.462 21.8191 68.0335ZM21.3019 70.8578C21.0314 71.1519 20.6752 71.2989 20.2323 71.2989C19.7894 71.2989 19.4326 71.1519 19.1627 70.8578C18.8924 70.5632 18.7579 70.175 18.7579 69.6906C18.7579 69.2089 18.8939 68.8201 19.166 68.5248C19.4383 68.2293 19.7956 68.0816 20.2386 68.0816C20.6726 68.0816 21.0266 68.2314 21.299 68.5308C21.5704 68.8297 21.707 69.217 21.707 69.6906C21.707 70.175 21.5719 70.5632 21.3019 70.8578ZM15.5657 71.2304C15.526 71.2304 15.4956 71.2334 15.4753 71.2415C15.4551 71.2484 15.4345 71.2613 15.4133 71.2806L15.3885 71.2553C15.4076 71.2343 15.4202 71.2144 15.4273 71.1961C15.4348 71.1771 15.4384 71.1459 15.4384 71.102V67.4682H14.7121V71.9156H16.9504L17.0589 71.2304L15.5657 71.2304ZM11.8972 71.2304C11.8581 71.2304 11.8283 71.2334 11.8074 71.2415C11.7862 71.2484 11.7659 71.2613 11.7454 71.2806L11.7206 71.2553C11.7388 71.2343 11.7522 71.2144 11.7594 71.1961C11.7659 71.1771 11.7698 71.1459 11.7698 71.102V67.4682H11.0438V71.9156H13.2818L13.391 71.2304L11.8972 71.2304ZM8.13319 67.4742H7.50293L5.90117 71.9156H6.62747L7.09637 70.5827H8.54601L9.01192 71.9156H9.73525L8.13319 67.4742ZM8.37539 69.9594C8.35303 69.9513 8.33095 69.9452 8.31037 69.941C8.28949 69.9368 8.26533 69.9347 8.2358 69.9347H7.40062C7.37407 69.9347 7.352 69.9362 7.3341 69.9392C7.3162 69.9428 7.29323 69.9491 7.264 69.9594L7.24222 69.9287C7.26071 69.9137 7.27503 69.8993 7.28607 69.8842C7.29592 69.8701 7.30546 69.8502 7.3138 69.825L7.73259 68.6075C7.75139 68.5555 7.76629 68.4818 7.77763 68.3868C7.78927 68.2921 7.79703 68.1839 7.80118 68.063H7.83519C7.83936 68.1839 7.84711 68.2921 7.85814 68.3868C7.87007 68.4818 7.88499 68.5555 7.90348 68.6075L8.3166 69.825C8.32464 69.8502 8.33449 69.8701 8.34583 69.8842C8.35746 69.8992 8.37327 69.9137 8.39415 69.9287L8.37539 69.9594ZM4.48344 67.4742L3.65124 70.3921C3.61813 70.5081 3.59546 70.6128 3.58323 70.7045C3.57042 70.7962 3.56087 70.9459 3.5546 71.1519H3.51761C3.49673 70.9375 3.47854 70.7835 3.46213 70.6918C3.44483 70.6004 3.41918 70.5003 3.38398 70.3921L2.62695 68.1412L1.872 70.3978C1.83531 70.5021 1.80787 70.6004 1.79117 70.6918C1.77475 70.7835 1.75567 70.9375 1.73539 71.1519H1.69811C1.69154 70.9435 1.6832 70.7944 1.67186 70.7045C1.66023 70.6146 1.63696 70.5105 1.60206 70.3921L0.769863 67.4742H0L1.3351 71.9156H1.99012L2.53926 70.141C2.55627 70.0848 2.56998 70.0063 2.58101 69.9062C2.59294 69.806 2.60189 69.6843 2.60786 69.5405L2.63888 69.5375C2.64515 69.6809 2.65379 69.803 2.66572 69.9038C2.67706 70.0033 2.69197 70.083 2.71017 70.141L3.26288 71.9156H3.91164L5.253 67.4742H4.48344Z" fill="#231F20"/>
<path d="M74.8839 56.5006H73.6159V61.4556C73.6159 61.6871 73.6347 61.9261 73.6719 62.1754C73.7101 62.4232 73.7719 62.7227 73.8581 63.0754L73.8008 63.0871C73.6967 62.7798 73.5944 62.5206 73.4948 62.3083C73.3951 62.0963 73.277 61.8898 73.1419 61.6889L69.6076 56.5006H68.4297V64.5643H69.7033V59.5974C69.7033 59.386 69.6872 59.174 69.6547 58.9614C69.6231 58.7488 69.559 58.425 69.4611 57.9893L69.5169 57.9779C69.6452 58.3417 69.7487 58.6093 69.8307 58.7792C69.9112 58.9497 70.0267 59.1451 70.1773 59.3646L73.7059 64.5643H74.8839V56.5006ZM64.6054 57.5148C63.8547 56.7367 62.8826 56.3473 61.6909 56.3473C60.5369 56.3473 59.5863 56.7418 58.8415 57.529C58.0949 58.3171 57.7232 59.3159 57.7232 60.5247C57.7232 61.7476 58.0964 62.7503 58.8442 63.533C59.592 64.3157 60.5518 64.7066 61.7249 64.7066C62.8936 64.7066 63.8547 64.3157 64.6054 63.533C65.3568 62.7503 65.7335 61.7518 65.7335 60.5349C65.7335 59.3009 65.3568 58.2936 64.6054 57.5148ZM63.667 62.6439C63.1761 63.1779 62.5288 63.4446 61.7249 63.4446C60.9208 63.4446 60.2735 63.1779 59.7828 62.6439C59.2928 62.1099 59.0464 61.403 59.0464 60.5247C59.0464 59.6485 59.2943 58.9434 59.7882 58.4076C60.2828 57.8711 60.9318 57.6029 61.736 57.6029C62.5252 57.6029 63.1668 57.8748 63.6614 58.4184C64.155 58.962 64.402 59.6644 64.402 60.5247C64.402 61.403 64.1568 62.1099 63.667 62.6439ZM54.9412 56.4889H53.6284V64.5637H54.9412V56.4889ZM51.0591 56.5006H46.3245L46.1553 57.7112H47.8123C47.8836 57.7112 47.9385 57.7043 47.9752 57.6916C48.013 57.6781 48.0509 57.654 48.0882 57.6198L48.1389 57.6658C48.0969 57.7262 48.0715 57.7746 48.0596 57.8104C48.0488 57.8465 48.0431 57.8907 48.0431 57.9436V64.5643H49.3389V57.9436C49.3389 57.8832 49.3338 57.8336 49.3201 57.7927C49.3067 57.7539 49.2834 57.7094 49.2497 57.6598L49.2953 57.6147C49.3431 57.6525 49.3848 57.6781 49.4191 57.6916C49.4522 57.7043 49.5038 57.7112 49.5712 57.7112H51.2339L51.0591 56.5006ZM42.2709 56.5006H41.1264L38.2169 64.5643H39.5365L40.3878 62.1439H43.0207L43.8658 64.5643H45.1794L42.2709 56.5006ZM42.7108 61.0127C42.6688 60.9977 42.6294 60.9865 42.5924 60.9787C42.5545 60.9712 42.5089 60.9667 42.4561 60.9667H40.9405C40.8913 60.9667 40.8513 60.9697 40.8194 60.9757C40.7872 60.9808 40.7454 60.9937 40.6921 61.0127L40.6527 60.9562C40.6864 60.9291 40.7126 60.9026 40.732 60.8765C40.7505 60.8497 40.7669 60.8133 40.7821 60.7682L41.5439 58.5576C41.5774 58.4632 41.6039 58.3297 41.6251 58.1568C41.6457 57.9848 41.6597 57.7891 41.6671 57.569H41.7298C41.7369 57.7891 41.751 57.9848 41.7709 58.1568C41.7918 58.3297 41.8196 58.4632 41.8533 58.5576L42.6031 60.7682C42.618 60.8133 42.6357 60.8497 42.6571 60.8765C42.6771 60.9026 42.7066 60.9291 42.7439 60.9562L42.7108 61.0127ZM34.123 61.3645C34.0479 61.2553 33.956 61.1519 33.8468 61.0554C33.738 60.9586 33.6097 60.8668 33.4633 60.7794L33.4856 60.74C33.5838 60.7661 33.6723 60.786 33.7511 60.7998C33.8295 60.8127 33.9053 60.8196 33.9766 60.8196C34.4723 60.8196 34.8905 60.6218 35.2305 60.2258C35.5706 59.8301 35.7409 59.3436 35.7409 58.7678C35.7409 58.0329 35.5187 57.4715 35.0751 57.0828C34.6322 56.6952 33.9843 56.5006 33.1313 56.5006H31.0171V64.5643H32.2797V61.7226C32.2797 61.4198 32.2719 61.1964 32.257 61.0527C32.2418 60.908 32.214 60.7418 32.1723 60.5523L32.2284 60.5349C32.2925 60.7057 32.3575 60.8527 32.4225 60.9757C32.4885 61.0987 32.5991 61.2704 32.7527 61.4899L34.8052 64.5643H36.2367L34.123 61.3645ZM34.2295 59.6518C34.0231 59.8394 33.6998 59.9335 33.2604 59.9335H32.4828C32.4106 59.9335 32.3575 59.9398 32.3217 59.9531C32.2859 59.966 32.2484 59.9894 32.2063 60.0234L32.161 59.9786C32.2063 59.9296 32.237 59.8839 32.2543 59.8415C32.271 59.8 32.2797 59.7531 32.2797 59.6999V57.8534C32.2648 57.7848 32.2484 57.7313 32.2317 57.6916C32.215 57.6513 32.1914 57.6108 32.161 57.569L32.2063 57.5233C32.2552 57.5605 32.2964 57.5861 32.3304 57.5975C32.3647 57.6086 32.4148 57.6146 32.4828 57.6146H33.2604C33.6968 57.6146 34.0187 57.7082 34.226 57.8958C34.4362 58.0834 34.5397 58.3736 34.5397 58.7678C34.5397 59.1701 34.4368 59.4642 34.2295 59.6518ZM25.4643 54.0176L24.9119 55.5799H25.8813L26.9187 54.0176H25.4643ZM25.1657 63.3201C25.0944 63.3201 25.0401 63.3264 25.002 63.3397C24.9641 63.3532 24.9253 63.3766 24.8832 63.4106L24.8451 63.3712C24.874 63.3291 24.8967 63.2888 24.9119 63.2492C24.9268 63.2086 24.9348 63.155 24.9348 63.0871V61.3079C24.9348 61.252 24.9268 61.2012 24.9119 61.1573C24.8967 61.1143 24.874 61.0719 24.8451 61.0298L24.8889 60.9841C24.9298 61.0181 24.9685 61.0415 25.002 61.0527C25.036 61.0638 25.0908 61.0719 25.1657 61.0755H27.866V59.8535H25.1657C25.0977 59.8535 25.0464 59.8589 25.0106 59.8704C24.9745 59.8821 24.9325 59.9065 24.8832 59.9446L24.8385 59.8992C24.8761 59.8415 24.9014 59.7943 24.9143 59.757C24.9277 59.7188 24.9348 59.6734 24.9348 59.6208V57.9779C24.9348 57.9213 24.9268 57.8711 24.9119 57.8272C24.8967 57.7842 24.874 57.7394 24.8451 57.694L24.8832 57.6486C24.9402 57.6868 24.9879 57.7118 25.027 57.7256C25.067 57.7386 25.1129 57.7452 25.1657 57.7452H28.2553L28.1196 56.5006H23.649V64.5643H28.1076L28.2553 63.3201L25.1657 63.3201ZM19.7949 57.6369C18.9976 56.8792 17.9873 56.5006 16.7617 56.5006H14.6138V64.5643H16.7163C17.9831 64.5643 19.0119 64.184 19.8035 63.422C20.5943 62.6607 20.9898 61.6985 20.9898 60.5349C20.9898 59.361 20.5916 58.3949 19.7949 57.6369ZM18.8762 62.5612C18.3268 63.0898 17.6297 63.3541 16.7847 63.3541H16.1532C16.0777 63.3541 16.0234 63.3592 15.9897 63.3712C15.9557 63.382 15.9187 63.407 15.8767 63.4446L15.826 63.3992C15.8668 63.3577 15.8937 63.3201 15.9053 63.2855C15.9161 63.2515 15.9217 63.1968 15.9217 63.121V57.9436C15.9217 57.8871 15.9155 57.8398 15.902 57.8017C15.8892 57.7641 15.8633 57.7187 15.826 57.6658L15.8767 57.6146C15.9256 57.6525 15.9674 57.6781 16.0011 57.6916C16.0351 57.7042 16.0855 57.7112 16.1532 57.7112H16.8461C17.6652 57.7112 18.3458 57.9773 18.8875 58.5098C19.4283 59.042 19.6988 59.717 19.6988 60.5349C19.6988 61.3572 19.4241 62.0329 18.8762 62.5612ZM9.05025 54.0176L8.49784 55.5799H9.46755L10.505 54.0176H9.05025ZM8.75137 63.3201C8.68038 63.3201 8.6258 63.3264 8.58822 63.3397C8.55064 63.3532 8.51066 63.3766 8.4698 63.4106L8.43013 63.3712C8.46055 63.3291 8.48352 63.2888 8.49784 63.2492C8.51275 63.2086 8.52079 63.155 8.52079 63.0871V61.3079C8.52079 61.252 8.51275 61.2012 8.49784 61.1573C8.48353 61.1143 8.46055 61.0719 8.43013 61.0298L8.47576 60.9841C8.51693 61.0181 8.55451 61.0415 8.58822 61.0527C8.62222 61.0638 8.6768 61.0719 8.75137 61.0755H11.4517V59.8535H8.75137C8.68426 59.8535 8.63296 59.8589 8.59686 59.8704C8.56107 59.8821 8.51872 59.9065 8.4698 59.9446L8.42476 59.8992C8.46204 59.8415 8.488 59.7943 8.50082 59.757C8.51426 59.7188 8.52082 59.6734 8.52082 59.6208V57.9779C8.52082 57.9213 8.51278 57.8711 8.49786 57.8272C8.48355 57.7842 8.46058 57.7394 8.43015 57.694L8.46982 57.6486C8.5259 57.6868 8.57452 57.7118 8.61389 57.7256C8.65327 57.7386 8.6992 57.7452 8.7514 57.7452H11.841L11.7056 56.5006H7.23584V64.5643H11.6951L11.841 63.3201L8.75137 63.3201ZM4.61632 56.5006H0.112305V64.5643H1.43189V61.3079C1.43189 61.2403 1.42474 61.1883 1.4119 61.1519C1.39849 61.1158 1.37551 61.0734 1.3415 61.0238L1.38624 60.9787C1.43486 61.0163 1.47692 61.0421 1.51063 61.0554C1.54463 61.0689 1.59563 61.0755 1.66245 61.0755H4.34011V59.8535H1.63978C1.55775 59.8535 1.50108 59.8589 1.47096 59.8704C1.44143 59.8821 1.40324 59.9047 1.3585 59.9386L1.31317 59.8992C1.36208 59.8415 1.394 59.7943 1.40891 59.757C1.42382 59.7188 1.43187 59.6734 1.43187 59.6208V57.9893C1.41664 57.9096 1.40144 57.8534 1.38623 57.8194C1.37162 57.7848 1.34716 57.7491 1.31315 57.7112L1.36416 57.6658C1.41278 57.7037 1.45394 57.728 1.48794 57.7394C1.52165 57.7506 1.57265 57.7563 1.63977 57.7563H4.8251L4.61632 56.5006Z" fill="#231F20"/>
</g>
<defs>
<clipPath id="clip0_380_7737">
<rect width="75" height="72" fill="white"/>
</clipPath>
</defs>
</svg>
