<svg width="103" height="72" viewBox="0 0 103 72" fill="none" xmlns="http://www.w3.org/2000/svg">
<g clip-path="url(#clip0_380_7670)">
<path fill-rule="evenodd" clip-rule="evenodd" d="M52.7164 5.37556C54.0573 8.19469 56.0174 15.1718 56.8075 20.5858C58.0698 29.226 55.7882 32.9596 52.7506 39.1948C51.8749 37.9146 49.4326 33.5393 48.3653 28.5463C46.2753 18.7259 49.7336 14.3712 52.713 5.37556H52.7164ZM37.6791 33.8843L32.8457 20.113C35.2812 21.6899 45.8545 31.814 46.9491 34.7884C44.2434 33.805 41.4076 33.5255 37.6791 33.8878V33.8843ZM46.0016 29.0328C44.7667 26.8244 36.0953 16.3312 26.75 15.02L27.5231 15.9758C32.295 21.2103 33.8856 27.656 36.4545 34.1259C31.6177 34.9299 26.0762 38.2459 26.0762 44.0532C26.0762 46.0097 27.5265 47.8868 29.555 47.8868H30.1878C30.9541 47.8868 32.6541 47.0104 32.6541 46.165C27.9302 47.1656 27.2768 43.8427 28.9564 40.3818C30.8378 36.5102 34.922 35.6752 36.8684 35.2922C38.2538 41.4411 44.1818 45.7371 50.0517 44.1567C46.8157 43.2527 40.3096 42.6281 38.0006 35.0472C44.24 35.0472 51.8544 38.239 52.2854 43.477C53.6605 41.5964 55.6342 36.7897 59.4825 35.9271C59.7048 36.5482 60.3616 39.3915 60.5326 42.4211C60.7721 46.6688 61.0218 51.2788 56.6228 53.3664C49.7986 56.603 46.8397 52.1863 44.1031 46.6067C44.1031 54.1048 49.9012 57.3483 56.4039 55.6334C65.1095 53.3388 62.2088 43.9083 61.576 35.3163C67.2748 35.3543 73.2063 37.8042 75.7923 40.82C78.1457 43.5667 77.6976 46.9517 72.3477 46.0994C76.7877 52.5693 83.6564 42.3176 75.6213 36.9726C70.8118 33.7739 67.0148 33.5082 61.4152 33.4979C60.9158 25.0336 65.5303 18.4291 74.9645 13.9296C74.0101 15.993 73.5449 19.8404 73.001 21.9211C71.7148 26.8451 68.9988 30.696 65.9989 32.2833C72.2964 32.9147 73.7536 26.645 75.0158 20.3994C75.7376 16.8212 76.8082 13.4741 77.6463 10.8655C71.407 13.9606 63.3855 17.4595 59.5885 25.7099C59.934 17.1559 54.9535 8.03252 52.4017 -0.00390625C52.3196 0.651706 52.1075 1.16239 51.8578 1.7766C47.6059 12.2319 42.5912 16.1311 46.0016 29.0328ZM59.1233 34.0741C58.5589 34.2881 56.6604 35.5717 56.3799 36.1203C57.0983 35.1852 58.4939 31.2343 58.8155 29.6953C58.8941 29.3227 59.1233 33.4565 59.1233 34.0741Z" fill="#4E7A39"/>
<path d="M1.83348 66.979C1.85401 66.979 1.88821 66.979 1.9361 66.9824C2.22686 66.9928 2.43552 66.9962 2.56209 66.9962C2.70233 66.9962 2.93494 66.9893 3.25306 66.979H3.30095C3.20517 66.6684 3.09913 66.351 2.97599 66.0266C2.85627 65.7023 2.71944 65.371 2.56893 65.0294C2.42526 65.3814 2.28843 65.7195 2.16529 66.0439C2.04214 66.3717 1.93268 66.6822 1.83348 66.9755V66.979ZM0 69.4876C0.475474 68.411 0.927003 67.3379 1.35117 66.2751C1.77191 65.2088 2.17213 64.1495 2.54156 63.0902H2.56893C2.77075 63.1143 2.91784 63.1247 3.0102 63.1247C3.08545 63.1247 3.20517 63.1143 3.37621 63.0971C3.42068 63.0902 3.45146 63.0867 3.47199 63.0867C3.85168 64.2047 4.24164 65.2951 4.63844 66.3544C5.03524 67.4138 5.44572 68.4558 5.86646 69.4841C5.6749 69.4738 5.50387 69.4703 5.35678 69.4634C5.20969 69.46 5.08313 69.4565 4.98393 69.4565C4.85052 69.4565 4.71027 69.4565 4.55976 69.4634C4.40925 69.4669 4.24848 69.4738 4.07745 69.4841C4.02272 69.3185 3.9372 69.039 3.81748 68.6456C3.69433 68.2488 3.59855 67.9452 3.53014 67.7312C3.47541 67.7312 3.33174 67.7209 3.09913 67.714C2.86995 67.7071 2.68181 67.7036 2.54156 67.7036C2.49709 67.7036 2.36369 67.7036 2.14819 67.714C1.92926 67.7209 1.73428 67.7278 1.55641 67.7312C1.43668 68.1004 1.24513 68.6663 0.985155 69.4358L0.968052 69.4841C0.85859 69.4738 0.766232 69.4703 0.694397 69.4634C0.622563 69.46 0.564412 69.4565 0.523364 69.4565C0.448109 69.4565 0.369433 69.4565 0.280495 69.4634C0.191558 69.4669 0.0991996 69.4738 0.00342068 69.4841L0 69.4876ZM6.27694 69.4876C6.30431 69.1184 6.32483 68.7422 6.33851 68.3661C6.3522 67.99 6.35904 67.6139 6.35904 67.2309C6.35904 66.7961 6.3522 66.3993 6.33851 66.037C6.32483 65.6781 6.30431 65.3296 6.27694 64.9984C6.42745 65.0087 6.56086 65.0122 6.67374 65.0191C6.78662 65.0225 6.87898 65.026 6.95082 65.026C7.0637 65.026 7.18 65.026 7.30315 65.0191C7.42629 65.0156 7.55628 65.0087 7.69652 64.9984V65.6298C7.90861 65.3607 8.12753 65.1674 8.35671 65.0501C8.5859 64.9328 8.85613 64.8741 9.16741 64.8741C9.4958 64.8741 9.76945 64.9466 9.98496 65.0915C10.2039 65.2364 10.351 65.44 10.4331 65.7092C10.5802 65.4297 10.7717 65.2226 11.018 65.0812C11.2609 64.9431 11.5482 64.8741 11.88 64.8741C12.3623 64.8741 12.7181 65.0122 12.9404 65.2848C13.1628 65.5573 13.2756 65.9956 13.2756 66.596C13.2756 66.6132 13.2756 66.7685 13.2722 67.0584C13.2722 67.3482 13.2688 67.6312 13.2688 67.9037C13.2688 68.2454 13.2756 68.5387 13.2825 68.7768C13.2928 69.0148 13.3064 69.2495 13.3235 69.4841C13.1388 69.4669 12.9883 69.4565 12.8686 69.4496C12.7489 69.4427 12.6462 69.4393 12.5539 69.4393C12.4718 69.4393 12.376 69.4393 12.2665 69.4496C12.1571 69.4565 11.9997 69.4669 11.7979 69.4841C11.8184 69.2253 11.8355 68.9044 11.8458 68.518C11.8561 68.1315 11.8595 67.7002 11.8595 67.224C11.8595 66.6201 11.8116 66.2233 11.7158 66.0301C11.62 65.8368 11.449 65.7402 11.2061 65.7402C10.9496 65.7402 10.7683 65.8575 10.6588 66.0922C10.5494 66.3268 10.4946 66.7271 10.4946 67.2964C10.4946 67.6139 10.4981 67.9555 10.5083 68.3247C10.5186 68.6939 10.5288 69.0804 10.5494 69.4841C10.3749 69.4703 10.2312 69.4565 10.1149 69.4496C9.99864 69.4427 9.90286 69.4393 9.82418 69.4393C9.73183 69.4393 9.62578 69.4393 9.50606 69.4496C9.38634 69.4565 9.23925 69.4669 9.06821 69.4841C9.08532 69.2253 9.099 68.9044 9.11268 68.5145C9.12637 68.1246 9.12979 67.6933 9.12979 67.224C9.12979 66.6201 9.0819 66.2233 8.98612 66.0301C8.89034 65.8368 8.71589 65.7402 8.4696 65.7402C8.22331 65.7402 8.03517 65.8575 7.92571 66.0922C7.81625 66.3268 7.76152 66.7271 7.76152 67.2964C7.76152 67.6139 7.76494 67.9555 7.7752 68.3247C7.78546 68.6939 7.79572 69.0804 7.80941 69.4841C7.61785 69.4703 7.45365 69.4565 7.32025 69.4496C7.18684 69.4427 7.07738 69.4393 6.98502 69.4393C6.93713 69.4393 6.87214 69.4393 6.79004 69.4462C6.70795 69.4496 6.53349 69.4634 6.27352 69.4841L6.27694 69.4876ZM15.653 66.7202H17.076V66.5994C17.076 66.5822 17.076 66.5615 17.0794 66.5373C17.0794 66.5166 17.0829 66.5028 17.0829 66.5028C17.0829 66.1094 17.0247 65.8092 16.905 65.6022C16.7887 65.3952 16.6176 65.2917 16.3953 65.2917C16.1593 65.2917 15.9746 65.4021 15.8446 65.6229C15.7146 65.8437 15.6496 66.1578 15.6496 66.5684V66.7168L15.653 66.7202ZM15.653 67.2516V67.2792C15.653 67.7623 15.7796 68.1453 16.0361 68.4248C16.2927 68.7043 16.6382 68.8458 17.0794 68.8458C17.3052 68.8458 17.5104 68.8078 17.6917 68.7353C17.8765 68.6594 18.0338 68.549 18.1638 68.4041L18.2801 68.4627C18.2459 68.5663 18.2117 68.6801 18.1741 68.7975C18.1364 68.9148 18.0954 69.0563 18.0509 69.2184C17.8457 69.3461 17.6131 69.4427 17.3599 69.5083C17.1068 69.5738 16.8229 69.6049 16.5116 69.6049C15.783 69.6049 15.2083 69.391 14.7842 68.9631C14.3634 68.5352 14.1513 67.959 14.1513 67.2309C14.1513 66.5028 14.3566 65.9576 14.7739 65.5297C15.1878 65.1019 15.7385 64.8879 16.4295 64.8879C17.1205 64.8879 17.6096 65.057 17.9415 65.3986C18.2733 65.7402 18.4409 66.2613 18.4409 66.9583C18.4409 67.0342 18.4409 67.0963 18.4409 67.1377C18.4409 67.1826 18.4374 67.2205 18.434 67.2585H15.653V67.2516ZM19.2755 69.4876C19.3029 69.1184 19.3234 68.7457 19.3371 68.3696C19.3508 67.9969 19.3576 67.6208 19.3576 67.2447C19.3576 66.8686 19.3508 66.4787 19.3371 66.106C19.3234 65.7333 19.3029 65.3641 19.2755 65.0053C19.4158 65.0191 19.5457 65.026 19.6621 65.0329C19.7818 65.0363 19.8741 65.0398 19.946 65.0398C20.0588 65.0398 20.1786 65.0398 20.3086 65.0329C20.4385 65.026 20.572 65.0191 20.7122 65.0053C20.6814 65.1536 20.6575 65.2986 20.6404 65.4435C20.6233 65.5919 20.6164 65.7333 20.6164 65.8748C20.6164 65.8955 20.6164 65.93 20.6198 65.9783C20.6198 66.0266 20.6233 66.0611 20.6233 66.0853H20.6677C20.7875 65.6919 20.9551 65.3952 21.1706 65.195C21.3895 64.9915 21.6495 64.8914 21.9539 64.8914C21.995 64.8914 22.0257 64.8914 22.0497 64.8914C22.0702 64.8914 22.0942 64.8983 22.1181 64.9052C22.0839 65.1191 22.0565 65.3296 22.0394 65.5366C22.0223 65.7437 22.0155 65.9473 22.0155 66.1509C22.0155 66.1819 22.0155 66.2233 22.0189 66.2854C22.0189 66.3441 22.0223 66.3855 22.0223 66.4165C21.8992 66.3372 21.7966 66.2854 21.711 66.2578C21.6255 66.2302 21.54 66.2164 21.4545 66.2164C21.2048 66.2164 21.0201 66.2992 20.8969 66.458C20.7738 66.6201 20.7156 66.8686 20.7156 67.2102C20.7156 67.607 20.7225 67.9969 20.7396 68.3765C20.7567 68.756 20.7772 69.1287 20.8046 69.491C20.613 69.4772 20.4488 69.4634 20.3154 69.4565C20.182 69.4496 20.0725 69.4462 19.9802 69.4462C19.9323 69.4462 19.8673 69.4462 19.7852 69.4531C19.7031 69.4565 19.5286 69.4703 19.2687 69.491L19.2755 69.4876ZM22.7749 69.4876C22.8022 69.3081 22.8193 69.1115 22.8296 68.8975C22.8399 68.6836 22.8433 68.411 22.8433 68.0832V66.8858C22.8433 66.42 22.8364 66.0439 22.8228 65.7644C22.8091 65.4849 22.7851 65.2295 22.7543 65.0018C22.9151 65.0191 23.0588 65.0329 23.1888 65.0432C23.3188 65.0536 23.4351 65.057 23.5377 65.057C23.6403 65.057 23.7634 65.0536 23.8934 65.0432C24.0234 65.0329 24.1671 65.0225 24.321 65.0018C24.2936 65.2123 24.2697 65.4262 24.256 65.654C24.2423 65.8783 24.2321 66.1198 24.2321 66.382C24.2321 66.4821 24.2321 66.6305 24.2355 66.8203C24.2355 67.0135 24.2389 67.1515 24.2389 67.2412V67.9866C24.2389 68.3765 24.2423 68.6801 24.2526 68.901C24.2629 69.1218 24.28 69.3185 24.3073 69.4841C24.2287 69.4841 24.1226 69.4738 23.9858 69.4669C23.7532 69.4565 23.6027 69.4496 23.5308 69.4496C23.4351 69.4496 23.2538 69.4565 22.9869 69.4703C22.8877 69.4772 22.8125 69.4807 22.7646 69.4841L22.7749 69.4876ZM22.8022 63.4076C22.8022 63.2006 22.8741 63.0212 23.0177 62.8728C23.1614 62.7244 23.3393 62.652 23.5479 62.652C23.7566 62.652 23.9276 62.7244 24.0713 62.8728C24.215 63.0177 24.2868 63.1971 24.2868 63.4076C24.2868 63.6181 24.215 63.7906 24.0679 63.9356C23.9208 64.0805 23.7429 64.153 23.5411 64.153C23.3393 64.153 23.1614 64.0805 23.0177 63.9356C22.8741 63.7906 22.8022 63.6147 22.8022 63.4076ZM28.6276 66.3924C28.5729 66.0887 28.4669 65.8576 28.3129 65.6988C28.159 65.5401 27.9572 65.4642 27.7075 65.4642C27.3859 65.4642 27.1328 65.6057 26.9413 65.8886C26.7497 66.175 26.6573 66.5615 26.6573 67.0515C26.6573 67.6588 26.7702 68.1211 26.996 68.4351C27.2217 68.7491 27.5536 68.9079 27.988 68.9079C28.1727 68.9079 28.3437 68.8803 28.5045 68.8285C28.6653 68.7768 28.8124 68.6974 28.9458 68.5939L29.0039 68.6525C28.9492 68.8423 28.9116 68.9838 28.8842 69.077C28.8603 69.1736 28.8397 69.2633 28.8192 69.3461C28.6379 69.4289 28.4429 69.4945 28.2377 69.5359C28.0324 69.5773 27.8067 69.598 27.5672 69.598C26.8147 69.598 26.2161 69.391 25.7748 68.9734C25.3335 68.5559 25.1146 67.99 25.1146 67.2757C25.1146 66.5615 25.3404 65.9921 25.7885 65.5539C26.2366 65.1157 26.8284 64.8948 27.557 64.8948C27.8135 64.8948 28.0598 64.919 28.3027 64.9673C28.5455 65.0191 28.7884 65.0915 29.0244 65.1881C28.9766 65.3676 28.9355 65.5539 28.9013 65.7471C28.8637 65.9404 28.8329 66.1509 28.8055 66.3786H28.6242L28.6276 66.3924ZM31.997 67.1274C31.6207 67.186 31.3402 67.3033 31.1589 67.469C30.9776 67.6381 30.8853 67.8658 30.8853 68.1556C30.8853 68.3592 30.9332 68.5249 31.0324 68.6491C31.1282 68.7733 31.2581 68.8389 31.4121 68.8389C31.6105 68.8389 31.7576 68.7767 31.8533 68.6491C31.9491 68.5249 31.997 68.3316 31.997 68.0728V67.1274ZM32.0928 69.0666C31.9423 69.2495 31.7678 69.3841 31.5626 69.4703C31.3573 69.5566 31.1179 69.6014 30.8408 69.6014C30.4509 69.6014 30.1464 69.491 29.9275 69.2667C29.7086 69.0424 29.5957 68.7388 29.5957 68.3489C29.5957 68.0245 29.6812 67.7657 29.8488 67.569C30.0164 67.3724 30.3209 67.2033 30.7519 67.0584C30.9161 67.0031 31.1247 66.941 31.3779 66.8686C31.8089 66.7444 32.0244 66.6098 32.0244 66.458C32.0244 66.1819 31.9457 65.9645 31.7884 65.8127C31.631 65.6609 31.4087 65.585 31.1179 65.585C30.9161 65.585 30.7382 65.6264 30.5877 65.7057C30.4338 65.7851 30.3175 65.899 30.2354 66.0439H30.1909L30.0541 65.5263C30.2661 65.3227 30.5124 65.164 30.7998 65.0536C31.0837 64.9431 31.3847 64.8845 31.696 64.8845C32.2365 64.8845 32.6435 65.0122 32.9206 65.2675C33.1942 65.5228 33.3345 65.899 33.3345 66.3924V66.42L33.3242 68.0383V68.3523C33.3242 68.5766 33.3516 68.7353 33.4029 68.8285C33.4576 68.9217 33.5432 68.9665 33.6629 68.9665C33.7108 68.9665 33.7621 68.9596 33.8168 68.9493C33.8715 68.9355 33.9297 68.9217 33.9913 68.8941L34.0186 69.2184C33.8613 69.3392 33.6937 69.4324 33.5158 69.4979C33.3379 69.5635 33.1635 69.5945 32.9856 69.5945C32.7872 69.5945 32.6093 69.5497 32.4554 69.4565C32.3015 69.3633 32.1817 69.2322 32.0962 69.0597L32.0928 69.0666ZM34.5249 69.491C34.5523 69.1218 34.5728 68.7491 34.5865 68.373C34.6001 68.0004 34.607 67.6243 34.607 67.2481C34.607 66.872 34.6001 66.4821 34.5865 66.1094C34.5728 65.7368 34.5523 65.3676 34.5249 65.0087C34.6446 65.0225 34.7609 65.0294 34.8738 65.0363C34.9867 65.0398 35.0961 65.0432 35.1988 65.0432C35.3014 65.0432 35.4211 65.0432 35.5443 65.0363C35.6674 65.0294 35.8008 65.0225 35.9376 65.0087V65.6609C36.1463 65.3986 36.3652 65.2088 36.5978 65.0915C36.8304 64.9742 37.1041 64.9155 37.4256 64.9155C37.9011 64.9155 38.2534 65.0536 38.4758 65.3262C38.6981 65.5988 38.811 66.0301 38.811 66.627C38.811 66.6512 38.811 66.8065 38.8007 67.0963C38.7939 67.3862 38.7905 67.6622 38.7905 67.9245C38.7905 68.2661 38.7973 68.5525 38.8076 68.7906C38.8178 69.0252 38.8349 69.2598 38.852 69.4979C38.6263 69.4807 38.4655 69.4703 38.3629 69.4634C38.2637 69.4565 38.185 69.4531 38.1269 69.4531C38.0379 69.4531 37.9319 69.4531 37.8087 69.4634C37.6856 69.4703 37.5317 69.4807 37.3435 69.4979C37.3675 69.2702 37.3846 68.9665 37.3983 68.5835C37.4119 68.2005 37.4154 67.7554 37.4154 67.2447C37.4154 66.6443 37.3641 66.2509 37.2649 66.0611C37.1657 65.8714 36.9878 65.7747 36.7312 65.7747C36.4747 65.7747 36.2831 65.8886 36.1737 66.1198C36.0642 66.351 36.006 66.7513 36.006 67.3172C36.006 67.645 36.0095 67.9935 36.0197 68.3592C36.03 68.725 36.0403 69.1011 36.0539 69.4945C35.8521 69.4772 35.6879 69.4669 35.5614 69.46C35.4348 69.4531 35.3288 69.4496 35.2398 69.4496C35.1919 69.4496 35.1269 69.4496 35.0448 69.4565C34.9627 69.46 34.7883 69.4738 34.5283 69.4945L34.5249 69.491ZM43.812 66.3579C43.812 67.186 43.9762 67.8347 44.3046 68.3006C44.633 68.7664 45.0845 69.001 45.6626 69.001C46.2407 69.001 46.6786 68.7664 47.0069 68.2937C47.3387 67.8209 47.5029 67.1757 47.5029 66.3579C47.5029 65.5401 47.3387 64.8707 47.0104 64.398C46.682 63.9287 46.2339 63.6906 45.6592 63.6906C45.0845 63.6906 44.6296 63.9252 44.3012 64.4014C43.9728 64.8741 43.8086 65.5263 43.8086 66.3579H43.812ZM42.1598 66.4407C42.1598 65.3848 42.4745 64.5636 43.1074 63.977C43.7402 63.3869 44.6159 63.0936 45.7447 63.0936C46.8735 63.0936 47.6706 63.3662 48.2623 63.908C48.8575 64.4497 49.1517 65.2192 49.1517 66.2095C49.1517 67.2826 48.8404 68.1177 48.2179 68.7112C47.5953 69.3047 46.7128 69.6014 45.5771 69.6014C44.4414 69.6014 43.6342 69.3288 43.0458 68.7837C42.454 68.2385 42.1598 67.4552 42.1598 66.4372V66.4407ZM49.9727 69.4945C50 69.1253 50.0206 68.7526 50.0342 68.3765C50.0479 68.0038 50.0548 67.6277 50.0548 67.2516C50.0548 66.8755 50.0479 66.4856 50.0342 66.1129C50.0206 65.7402 50 65.371 49.9727 65.0122C50.1129 65.026 50.2429 65.0329 50.3592 65.0398C50.4789 65.0432 50.5713 65.0467 50.6431 65.0467C50.756 65.0467 50.8757 65.0467 51.0057 65.0398C51.1357 65.0329 51.2691 65.026 51.4094 65.0122C51.3786 65.1605 51.3546 65.3055 51.3375 65.4504C51.3204 65.5988 51.3136 65.7402 51.3136 65.8817C51.3136 65.9024 51.3136 65.9369 51.317 65.9852C51.317 66.0335 51.3204 66.068 51.3204 66.0922H51.3649C51.4846 65.6988 51.6522 65.4021 51.8677 65.2019C52.0866 64.9984 52.3466 64.8983 52.6511 64.8983C52.6921 64.8983 52.7229 64.8983 52.7468 64.8983C52.7674 64.8983 52.7913 64.9052 52.8153 64.9121C52.781 65.126 52.7537 65.3365 52.7366 65.5435C52.7195 65.7506 52.7126 65.9542 52.7126 66.1578C52.7126 66.1888 52.7126 66.2302 52.7161 66.2923C52.7161 66.351 52.7195 66.3924 52.7195 66.4234C52.5963 66.3441 52.4937 66.2923 52.4082 66.2647C52.3227 66.2371 52.2372 66.2233 52.1516 66.2233C51.9019 66.2233 51.7172 66.3061 51.5941 66.4649C51.4709 66.627 51.4128 66.8755 51.4128 67.2171C51.4128 67.6139 51.4196 68.0038 51.4367 68.3834C51.4538 68.7629 51.4743 69.1356 51.5017 69.4979C51.3102 69.4841 51.146 69.4703 51.0126 69.4634C50.8792 69.4565 50.7697 69.4531 50.6773 69.4531C50.6294 69.4531 50.5644 69.4531 50.4823 69.46C50.4003 69.4634 50.2258 69.4772 49.9658 69.4979L49.9727 69.4945ZM56.6704 66.3958C56.6156 66.0922 56.5096 65.861 56.3557 65.7023C56.2017 65.5435 55.9999 65.4676 55.7502 65.4676C55.4286 65.4676 55.1755 65.6091 54.984 65.8921C54.7924 66.1785 54.7 66.5649 54.7 67.0549C54.7 67.6622 54.8129 68.1246 55.0387 68.4386C55.2645 68.7526 55.5963 68.9113 56.0307 68.9113C56.2154 68.9113 56.3864 68.8837 56.5472 68.832C56.708 68.7802 56.8551 68.7008 56.9885 68.5973L57.0466 68.656C56.9919 68.8458 56.9543 68.9872 56.9269 69.0804C56.903 69.177 56.8824 69.2667 56.8619 69.3495C56.6806 69.4324 56.4856 69.4979 56.2804 69.5393C56.0752 69.5807 55.8494 69.6014 55.6099 69.6014C54.8574 69.6014 54.2588 69.3944 53.8175 68.9769C53.3762 68.5594 53.1573 67.9935 53.1573 67.2792C53.1573 66.5649 53.3831 65.9956 53.8312 65.5574C54.2793 65.1191 54.8711 64.8983 55.5997 64.8983C55.8562 64.8983 56.1025 64.9224 56.3454 64.9707C56.5883 65.0225 56.8311 65.095 57.0672 65.1916C57.0193 65.371 56.9782 65.5574 56.944 65.7506C56.9064 65.9438 56.8756 66.1543 56.8482 66.382H56.6669L56.6704 66.3958ZM59.3487 65.5539C59.5335 65.3227 59.7353 65.1571 59.9542 65.0501C60.1731 64.9466 60.4365 64.8948 60.741 64.8948C61.2301 64.8948 61.5859 65.0294 61.8082 65.2951C62.0306 65.5643 62.1434 65.9956 62.1434 66.596C62.1434 66.6305 62.1434 66.7892 62.14 67.0791C62.14 67.3689 62.1366 67.6415 62.1366 67.8934C62.1366 68.2419 62.1434 68.5352 62.1503 68.7733C62.1605 69.0114 62.1776 69.2529 62.1982 69.491C61.9724 69.4738 61.8116 69.4634 61.709 69.4565C61.6098 69.4496 61.5311 69.4462 61.473 69.4462C61.384 69.4462 61.278 69.4462 61.1549 69.4565C61.0317 69.4634 60.8778 69.4738 60.6896 69.491C60.7102 69.284 60.7273 68.9976 60.7375 68.6318C60.7478 68.2661 60.7512 67.8002 60.7512 67.2343C60.7512 66.6339 60.6999 66.2406 60.6007 66.0508C60.5015 65.861 60.3236 65.7644 60.0671 65.7644C59.8105 65.7644 59.619 65.8783 59.5095 66.1094C59.4001 66.3406 59.3419 66.7409 59.3419 67.3068C59.3419 67.569 59.3453 67.883 59.3556 68.2523C59.3658 68.6215 59.3795 69.0355 59.3966 69.4841C59.2051 69.4703 59.0409 69.4565 58.9075 69.4496C58.7741 69.4427 58.6646 69.4393 58.5723 69.4393C58.5004 69.4393 58.4115 69.4393 58.3089 69.4496C58.2028 69.4565 58.0523 69.4669 57.8607 69.4841C57.8915 69.0942 57.9121 68.6456 57.9223 68.1349C57.936 67.6243 57.9394 66.9134 57.9394 66.0094C57.9394 65.0191 57.9326 64.2944 57.9223 63.8355C57.9086 63.3766 57.8915 62.9591 57.8607 62.5898C58.0694 62.6071 58.2268 62.6175 58.3328 62.6244C58.4388 62.6313 58.5278 62.6347 58.5996 62.6347C58.6749 62.6347 58.7706 62.6347 58.8904 62.6244C59.0135 62.6175 59.1811 62.6071 59.4001 62.5898C59.3829 62.821 59.3693 63.0557 59.359 63.2869C59.3487 63.5181 59.3453 63.7527 59.3453 63.9977V65.5505L59.3487 65.5539ZM63.2825 69.491C63.3099 69.3116 63.327 69.1149 63.3373 68.901C63.3475 68.687 63.3509 68.4144 63.3509 68.0866V66.8893C63.3509 66.4235 63.3441 66.0473 63.3304 65.7678C63.3167 65.4883 63.2928 65.233 63.262 65.0053C63.4228 65.0225 63.5664 65.0363 63.6964 65.0467C63.8264 65.057 63.9427 65.0605 64.0453 65.0605C64.1479 65.0605 64.2711 65.057 64.4011 65.0467C64.5311 65.0363 64.6747 65.026 64.8287 65.0053C64.8013 65.2157 64.7774 65.4297 64.7637 65.6574C64.75 65.8817 64.7397 66.1232 64.7397 66.3855C64.7397 66.4856 64.7397 66.6339 64.7432 66.8237C64.7432 67.017 64.7466 67.155 64.7466 67.2447V67.99C64.7466 68.3799 64.75 68.6836 64.7603 68.9044C64.7705 69.1253 64.7876 69.3219 64.815 69.4876C64.7363 69.4876 64.6303 69.4772 64.4934 69.4703C64.2608 69.46 64.1103 69.4531 64.0385 69.4531C63.9427 69.4531 63.7614 69.46 63.4946 69.4738C63.3954 69.4807 63.3201 69.4841 63.2723 69.4876L63.2825 69.491ZM63.3099 63.4111C63.3099 63.2041 63.3817 63.0246 63.5254 62.8762C63.6691 62.7279 63.8469 62.6554 64.0556 62.6554C64.2643 62.6554 64.4353 62.7279 64.579 62.8762C64.7226 63.0212 64.7945 63.2006 64.7945 63.4111C64.7945 63.6216 64.7226 63.7941 64.5755 63.939C64.4285 64.084 64.2506 64.1564 64.0488 64.1564C63.8469 64.1564 63.6691 64.084 63.5254 63.939C63.3817 63.7941 63.3099 63.6181 63.3099 63.4111ZM68.9266 67.2102C68.9266 66.6546 68.8514 66.2337 68.7043 65.9507C68.5572 65.6678 68.3349 65.5263 68.0407 65.5263C67.7465 65.5263 67.5276 65.6678 67.3908 65.9507C67.2539 66.2337 67.1855 66.6857 67.1855 67.3034C67.1855 67.8382 67.2573 68.2316 67.4044 68.4938C67.5481 68.7526 67.7705 68.8837 68.0681 68.8837C68.3417 68.8837 68.5538 68.7388 68.7043 68.4489C68.8548 68.1625 68.9301 67.7485 68.9301 67.2067L68.9266 67.2102ZM68.8993 68.9113C68.7111 69.1598 68.5093 69.3357 68.2972 69.4427C68.0852 69.5497 67.8218 69.6014 67.5036 69.6014C66.9255 69.6014 66.4877 69.3979 66.1901 68.9976C65.8925 68.5939 65.7454 68.0004 65.7454 67.2171C65.7454 66.4338 65.9062 65.899 66.2243 65.4952C66.5459 65.0915 67.0008 64.8914 67.596 64.8914C67.9004 64.8914 68.1536 64.9431 68.352 65.0467C68.5504 65.1502 68.7282 65.3227 68.8856 65.5643V64.5153C68.8856 64.4601 68.8788 64.1978 68.8685 63.7216C68.8582 63.28 68.8514 62.9038 68.8411 62.5967C68.9916 62.6174 69.1319 62.6347 69.2584 62.6451C69.385 62.6554 69.4979 62.6589 69.5971 62.6589C69.6963 62.6589 69.8126 62.6554 69.9357 62.6451C70.0623 62.6347 70.1991 62.6174 70.3531 62.5967C70.3325 62.9246 70.3154 63.2558 70.3052 63.5974C70.2949 63.939 70.2915 64.3876 70.2915 64.9397C70.2915 65.8334 70.2949 66.6339 70.3052 67.3379C70.3154 68.0418 70.3325 68.7595 70.3531 69.491C70.182 69.4772 70.0315 69.4634 69.9084 69.4565C69.7852 69.4496 69.6758 69.4462 69.58 69.4462C69.5218 69.4462 69.4397 69.4462 69.3337 69.4565C69.2277 69.46 69.0703 69.4738 68.8548 69.491C68.8685 69.3841 68.8788 69.2805 68.8856 69.1839C68.8924 69.0873 68.8993 68.9941 68.8993 68.9113ZM73.7566 69.3081C73.7977 69.1046 73.8387 68.8906 73.8798 68.6663C73.9208 68.442 73.9756 68.1522 74.0371 67.8002H74.1911C74.2732 68.1971 74.4237 68.4938 74.6494 68.687C74.8718 68.8803 75.1762 68.9769 75.5593 68.9769C75.9082 68.9769 76.1853 68.8941 76.3837 68.7353C76.5821 68.5732 76.6813 68.3523 76.6813 68.0694C76.6813 67.8623 76.6163 67.6864 76.4829 67.5483C76.3495 67.4069 76.0211 67.2102 75.4978 66.9652C74.7965 66.6374 74.3347 66.3372 74.1124 66.068C73.89 65.7989 73.7772 65.4573 73.7772 65.0432C73.7772 64.4394 73.9858 63.9632 74.4066 63.6181C74.8273 63.2696 75.402 63.0971 76.134 63.0971C76.4487 63.0971 76.7395 63.1281 77.0097 63.1937C77.2799 63.2558 77.5331 63.3524 77.7657 63.4835C77.687 63.6802 77.6186 63.8804 77.5604 64.077C77.5023 64.2772 77.4475 64.4773 77.3997 64.6844H77.2902C77.1602 64.3427 76.9926 64.0943 76.7874 63.939C76.5821 63.7803 76.3256 63.7044 76.0143 63.7044C75.703 63.7044 75.4567 63.7803 75.272 63.9287C75.0839 64.0805 74.9915 64.2737 74.9915 64.5118C74.9915 64.8327 75.3507 65.1571 76.0724 65.4883C76.1956 65.5435 76.2914 65.5919 76.3598 65.6229C77.0473 65.9542 77.492 66.2544 77.6904 66.5132C77.8888 66.7754 77.988 67.1136 77.988 67.5276C77.988 68.1798 77.7588 68.6905 77.297 69.0597C76.8352 69.4289 76.1956 69.6152 75.378 69.6152C75.0736 69.6152 74.7863 69.5876 74.5092 69.5359C74.2355 69.4841 73.9824 69.4082 73.7532 69.3081H73.7566ZM78.5524 67.2481C78.5524 66.5097 78.7611 65.93 79.1818 65.5125C79.6026 65.095 80.1841 64.8845 80.9332 64.8845C81.6823 64.8845 82.2707 65.0915 82.6846 65.5021C83.0951 65.9128 83.3037 66.4959 83.3037 67.2447C83.3037 67.9935 83.0951 68.5594 82.6743 68.9769C82.2536 69.391 81.6721 69.6014 80.9298 69.6014C80.1875 69.6014 79.5957 69.3944 79.1784 68.9803C78.7645 68.5663 78.5558 67.9866 78.5558 67.2447L78.5524 67.2481ZM80.0746 67.2481C80.0746 67.9486 80.1396 68.442 80.2696 68.725C80.3996 69.0079 80.6219 69.1494 80.9332 69.1494C81.2445 69.1494 81.4634 69.0079 81.5934 68.725C81.7234 68.442 81.7884 67.9486 81.7884 67.2447C81.7884 66.5408 81.7234 66.0473 81.5934 65.7609C81.4634 65.4745 81.2445 65.3331 80.9332 65.3331C80.6219 65.3331 80.403 65.4745 80.2696 65.7609C80.1396 66.0473 80.0746 66.5408 80.0746 67.2447V67.2481ZM87.2649 66.3958C87.2102 66.0922 87.1041 65.861 86.9502 65.7023C86.7963 65.5435 86.5944 65.4676 86.3447 65.4676C86.0232 65.4676 85.7701 65.6091 85.5785 65.8921C85.3869 66.1785 85.2946 66.5649 85.2946 67.0549C85.2946 67.6622 85.4075 68.1246 85.6332 68.4386C85.859 68.7526 86.1908 68.9113 86.6252 68.9113C86.8099 68.9113 86.981 68.8837 87.1417 68.832C87.3025 68.7802 87.4496 68.7008 87.583 68.5973L87.6412 68.656C87.5864 68.8458 87.5488 68.9872 87.5214 69.0804C87.4975 69.177 87.477 69.2667 87.4564 69.3495C87.2751 69.4324 87.0802 69.4979 86.8749 69.5393C86.6697 69.5807 86.4439 69.6014 86.2045 69.6014C85.4519 69.6014 84.8533 69.3944 84.412 68.9769C83.9708 68.5594 83.7519 67.9935 83.7519 67.2792C83.7519 66.5649 83.9776 65.9956 84.4257 65.5574C84.8738 65.1191 85.4656 64.8983 86.1942 64.8983C86.4508 64.8983 86.6971 64.9224 86.9399 64.9707C87.1828 65.0225 87.4257 65.095 87.6617 65.1916C87.6138 65.371 87.5728 65.5574 87.5385 65.7506C87.5009 65.9438 87.4701 66.1543 87.4428 66.382H87.2615L87.2649 66.3958ZM88.4758 69.4945C88.5032 69.315 88.5203 69.1184 88.5305 68.9044C88.5408 68.6905 88.5442 68.4179 88.5442 68.0901V66.8927C88.5442 66.4269 88.5374 66.0508 88.5237 65.7713C88.51 65.4918 88.4861 65.2364 88.4553 65.0087C88.6161 65.026 88.7597 65.0398 88.8897 65.0501C89.0197 65.0605 89.136 65.0639 89.2386 65.0639C89.3412 65.0639 89.4644 65.0605 89.5944 65.0501C89.7244 65.0398 89.868 65.0294 90.022 65.0087C89.9946 65.2192 89.9706 65.4331 89.957 65.6609C89.9433 65.8852 89.933 66.1267 89.933 66.3889C89.933 66.489 89.933 66.6374 89.9364 66.8272C89.9364 67.0204 89.9399 67.1584 89.9399 67.2481V67.9935C89.9399 68.3834 89.9433 68.687 89.9535 68.9079C89.9638 69.1287 89.9809 69.3254 90.0083 69.491C89.9296 69.491 89.8236 69.4807 89.6867 69.4738C89.4541 69.4634 89.3036 69.4565 89.2318 69.4565C89.136 69.4565 88.9547 69.4634 88.6879 69.4772C88.5887 69.4841 88.5134 69.4876 88.4655 69.491L88.4758 69.4945ZM88.5032 63.4145C88.5032 63.2075 88.575 63.0281 88.7187 62.8797C88.8623 62.7313 89.0402 62.6589 89.2489 62.6589C89.4575 62.6589 89.6286 62.7313 89.7722 62.8797C89.9159 63.0246 89.9877 63.204 89.9877 63.4145C89.9877 63.625 89.9159 63.7975 89.7688 63.9425C89.6217 64.0874 89.4439 64.1599 89.242 64.1599C89.0402 64.1599 88.8623 64.0874 88.7187 63.9425C88.575 63.7975 88.5032 63.6216 88.5032 63.4145Z" fill="#8C3706"/>
<path d="M92.3689 66.7239H93.7919V66.6031C93.7919 66.5859 93.7919 66.5652 93.7953 66.541C93.7953 66.5203 93.7987 66.5065 93.7987 66.5065C93.7987 66.1131 93.7406 65.8129 93.6208 65.6059C93.5045 65.3989 93.3335 65.2954 93.1112 65.2954C92.8751 65.2954 92.6904 65.4058 92.5604 65.6266C92.4304 65.8474 92.3654 66.1614 92.3654 66.5721V66.7204L92.3689 66.7239ZM92.3689 67.2553V67.2829C92.3689 67.766 92.4954 68.149 92.752 68.4285C93.0085 68.708 93.354 68.8495 93.7953 68.8495C94.0211 68.8495 94.2263 68.8115 94.4076 68.739C94.5923 68.6631 94.7496 68.5527 94.8796 68.4078L94.9959 68.4664C94.9617 68.57 94.9275 68.6838 94.8899 68.8012C94.8523 68.9185 94.8112 69.0599 94.7668 69.2221C94.5615 69.3498 94.3289 69.4464 94.0758 69.512C93.8226 69.5775 93.5387 69.6086 93.2275 69.6086C92.4988 69.6086 91.9242 69.3947 91.5 68.9668C91.0793 68.5389 90.8672 67.9627 90.8672 67.2346C90.8672 66.5065 91.0724 65.9613 91.4897 65.5334C91.9036 65.1056 92.4544 64.8916 93.1453 64.8916C93.8363 64.8916 94.3255 65.0607 94.6573 65.4023C94.9891 65.7439 95.1567 66.265 95.1567 66.962C95.1567 67.0379 95.1567 67.1 95.1567 67.1414C95.1567 67.1863 95.1533 67.2242 95.1499 67.2622H92.3689V67.2553ZM96.1419 65.568H95.8648C95.8648 65.568 95.8135 65.5679 95.7348 65.5748C95.6561 65.5783 95.5843 65.5818 95.5159 65.5818C95.5261 65.5231 95.5296 65.4679 95.5364 65.4161C95.5398 65.3644 95.5432 65.3195 95.5432 65.2816C95.5432 65.2436 95.5433 65.1987 95.5364 65.147C95.533 65.0952 95.5261 65.04 95.5159 64.9814H95.5467C95.7793 65.0055 95.9469 65.0159 96.0461 65.0159H96.1419V64.7536C96.1419 64.5983 96.1419 64.4534 96.1316 64.3223C96.1248 64.1877 96.1145 64.0635 96.1008 63.9462C96.3779 63.8703 96.6242 63.784 96.8431 63.6839C97.062 63.5839 97.2604 63.47 97.4417 63.3389H97.6435C97.6162 63.5252 97.5957 63.7081 97.5854 63.8944C97.5717 64.0773 97.5649 64.2636 97.5649 64.4431V65.0124H97.6949C97.818 65.0124 98.0164 64.9986 98.2969 64.9779C98.3208 64.9779 98.3379 64.9779 98.3516 64.9744C98.3448 65.0193 98.3414 65.0642 98.3379 65.1125C98.3379 65.1573 98.3345 65.216 98.3345 65.2816C98.3345 65.3402 98.3345 65.392 98.3379 65.4368C98.3379 65.4817 98.3448 65.5265 98.3516 65.5714C98.2593 65.5714 98.1601 65.568 98.054 65.568H97.5512L97.5341 67.9661V68.1593C97.5341 68.532 97.5785 68.777 97.6675 68.8874C97.7564 68.9978 97.9206 69.053 98.1601 69.053C98.2045 69.053 98.2661 69.0496 98.3448 69.0392C98.4235 69.0289 98.5056 69.022 98.5945 69.0082L98.5603 69.4119C98.3927 69.4844 98.2114 69.5361 98.0164 69.5706C97.8214 69.6051 97.6025 69.6224 97.3562 69.6224C96.9184 69.6224 96.6002 69.5189 96.4053 69.3084C96.2103 69.0979 96.1145 68.7528 96.1145 68.2698C96.1145 68.1076 96.1145 67.9075 96.1248 67.6659C96.1316 67.4244 96.1384 67.2656 96.1384 67.1828V66.9999C96.1453 66.51 96.1487 66.0338 96.1487 65.568H96.1419ZM99.8396 70.6852L100.329 69.612L99.046 66.2546C98.9742 66.0614 98.8955 65.8682 98.8134 65.6646C98.7313 65.461 98.6355 65.2436 98.5329 65.0055C98.7039 65.0193 98.8681 65.0262 99.0187 65.0331C99.1692 65.04 99.306 65.0435 99.4291 65.0435C99.5352 65.0435 99.6549 65.0435 99.7883 65.0331C99.9217 65.0262 100.062 65.0193 100.209 65.0055C100.322 65.4817 100.452 65.9475 100.596 66.4064C100.739 66.8654 100.9 67.3174 101.074 67.7625L101.56 66.3754C101.615 66.2063 101.68 66.0027 101.748 65.7681C101.817 65.5334 101.885 65.2815 101.957 65.009C102.046 65.0193 102.131 65.0262 102.214 65.0331C102.296 65.04 102.354 65.0435 102.391 65.0435C102.501 65.0435 102.607 65.0435 102.706 65.0331C102.805 65.0262 102.908 65.0193 103.007 65.0055C102.436 66.2098 101.919 67.3899 101.447 68.5527C100.979 69.7156 100.551 70.8646 100.168 71.9998C100.062 71.9895 99.9662 71.986 99.8807 71.9791C99.7951 71.9757 99.7165 71.9722 99.6446 71.9722C99.5728 71.9722 99.4907 71.9722 99.4018 71.9791C99.3163 71.9826 99.2205 71.9895 99.1179 71.9998C99.2649 71.7721 99.3983 71.5478 99.5181 71.327C99.6412 71.1061 99.7473 70.8922 99.843 70.6817L99.8396 70.6852Z" fill="#8C3706"/>
</g>
<defs>
<clipPath id="clip0_380_7670">
<rect width="103" height="72" fill="white"/>
</clipPath>
</defs>
</svg>
