<svg width="247" height="72" viewBox="0 0 247 72" fill="none" xmlns="http://www.w3.org/2000/svg">
<path fill-rule="evenodd" clip-rule="evenodd" d="M0.0957031 0.148926H49.8593V71.8516H0.0957031V0.148926ZM7.26831 64.6332H42.6618V7.37002H7.26831V64.6332Z" fill="#F7D730"/>
<path fill-rule="evenodd" clip-rule="evenodd" d="M82.9147 32.3192H79.8366C75.7932 26.5756 71.783 20.8682 67.7783 14.4178H67.7493V32.3192H64.3466V7.3592H67.4275C71.4709 13.0625 75.4756 18.7296 79.4431 25.1467H79.5135V7.3592H82.9161L82.9147 32.3192ZM91.0029 22.4402C91.9903 19.1587 92.9846 16.1287 93.8725 12.2765H93.9443C94.9358 16.1287 95.8238 19.1601 96.7449 22.4402H91.0029ZM92.6297 7.3592L84.054 32.3192H87.7411L89.8982 25.5063H97.3842L99.3327 32.3192H104.087L96.1773 7.3592H92.6297ZM108.091 32.3192V10.7073H101.564V7.3592H118.866V10.7073H112.345V32.3192H108.091ZM120.246 7.3592H124.471V32.3192H120.246V7.3592ZM137.59 29.1766C133.153 29.1766 131.594 24.2565 131.594 19.4781C131.594 14.8802 133.366 10.4934 137.59 10.4934C141.809 10.4934 143.575 14.8802 143.575 19.4781C143.575 24.2565 142.019 29.1766 137.59 29.1766ZM137.59 32.7413C144.077 32.7413 148.117 26.9325 148.117 19.4767C148.117 12.4903 143.657 6.92871 137.59 6.92871C131.529 6.92871 127.05 12.4903 127.05 19.4767C127.051 26.9339 131.098 32.7413 137.59 32.7413ZM169.284 32.3192H166.202C162.156 26.5756 158.148 20.8682 154.146 14.4178H154.112V32.3192H150.713V7.3592H153.796C157.833 13.0625 161.841 18.7296 165.806 25.1467H165.879V7.3592H169.286V32.3192H169.284ZM177.368 22.4402C178.364 19.1587 179.351 16.1287 180.243 12.2765H180.314C181.307 16.1287 182.191 19.1601 183.11 22.4402H177.368ZM179.003 7.3592L170.424 32.3192H174.113L176.27 25.5063H183.755L185.705 32.3192H190.454L182.545 7.3592H179.003ZM191.69 7.3592H195.917V28.9655H204.316V32.3192H191.69V7.3592ZM80.2992 53.1964V63.4976C78.0276 64.3933 75.651 65.0307 73.2468 65.0307C65.9402 65.0307 61.332 59.326 61.332 51.98C61.332 45.1672 65.9402 39.2153 73.3863 39.2153C75.6869 39.2153 77.9931 40.0749 79.4127 41.1428L78.029 44.102C76.8966 43.3952 75.1193 42.7884 73.4912 42.7884C68.9562 42.7884 65.8684 46.3906 65.8684 52.0605C65.8684 57.9749 69.4161 61.466 73.0686 61.466C74.1982 61.466 75.1608 61.3299 76.0515 60.8619V53.1964H80.2992ZM95.5172 43.0022H88.4178V49.8442H95.3667V53.1964H88.4178V61.2493H96.7849V64.6058H84.1603V39.6444H95.5172V43.0022ZM108.635 61.4646C104.198 61.4646 102.636 56.5487 102.636 51.7675C102.636 47.1724 104.409 42.787 108.635 42.787C112.851 42.787 114.62 47.1724 114.62 51.7675C114.62 56.5487 113.057 61.4646 108.635 61.4646ZM108.635 65.0307C115.12 65.0307 119.159 59.2191 119.159 51.7661C119.159 44.7797 114.694 39.2139 108.635 39.2139C102.564 39.2139 98.1023 44.7797 98.1023 51.7661C98.1009 59.2205 102.136 65.0307 108.635 65.0307ZM139.579 53.1964V63.4976C137.307 64.3933 134.938 65.0307 132.524 65.0307C125.223 65.0307 120.61 59.326 120.61 51.98C120.61 45.1672 125.223 39.2153 132.669 39.2153C134.975 39.2153 137.275 40.0749 138.691 41.1428L137.307 44.102C136.172 43.3952 134.41 42.7884 132.776 42.7884C128.232 42.7884 125.147 46.3906 125.147 52.0605C125.147 57.9749 128.696 61.466 132.348 61.466C133.486 61.466 134.439 61.3299 135.328 60.8619V53.1964H139.579ZM147.743 43.0022H149.617C152.127 43.0022 153.55 44.4575 153.55 47.028C153.55 50.3761 151.532 51.8717 149.509 51.9786C149.082 52.0216 148.088 52.0577 147.743 52.0883V43.0022ZM158.518 64.6058L153.51 54.2699C156.24 52.8118 157.809 49.8442 157.809 46.8488C157.809 41.9954 154.86 39.6444 150.109 39.6444H143.479V64.6058H147.743V55.1934H149.656L153.655 64.6058H158.518ZM165.536 54.7281C166.527 51.4426 167.519 48.4153 168.409 44.5645H168.479C169.472 48.4153 170.356 51.4426 171.278 54.7281H165.536ZM167.164 39.6444L158.582 64.6058H162.269L164.434 57.7929H171.919L173.858 64.6058H178.618L170.707 39.6444H167.164ZM186.593 39.6444H179.963V64.6058H184.219V55.1934H186.129C191.203 55.1934 194.29 51.0565 194.29 46.8488C194.29 41.994 191.345 39.6444 186.593 39.6444ZM185.996 51.98C185.554 52.0202 184.516 52.0536 184.219 52.0827V43.0022H186.129C188.61 43.0022 190.034 44.4575 190.034 47.028C190.034 50.3761 188.019 51.873 185.996 51.98ZM214 64.6058H209.747V52.5938H200.912V64.6058H196.704V39.6444H200.912V49.236H209.747V39.7152H214V64.6058ZM218.074 39.6444H222.303V64.6058H218.074V39.6444ZM241.441 44.1756C240.411 43.5327 238.717 42.787 237.077 42.787C232.745 42.787 229.601 46.3892 229.601 52.0591C229.601 57.9735 233.073 61.4646 237.188 61.4646C238.694 61.4575 240.168 61.0244 241.441 60.2148L242.615 63.3199C241.331 64.21 239.069 65.0307 237.015 65.0307C229.709 65.0307 225.096 59.326 225.096 51.98C225.096 45.1672 229.669 39.2153 237.077 39.2153C239.281 39.2153 241.331 40.1485 242.793 41.1428L241.441 44.1756Z" fill="black"/>
</svg>
