<svg width="199" height="72" viewBox="0 0 199 72" fill="none" xmlns="http://www.w3.org/2000/svg">
<g clip-path="url(#clip0_380_7674)">
<mask id="mask0_380_7674" style="mask-type:luminance" maskUnits="userSpaceOnUse" x="-16" y="-13" width="226" height="100">
<path d="M-15.8545 86.2773H209.219V-12.7669H-15.8545V86.2773Z" fill="white"/>
</mask>
<g mask="url(#mask0_380_7674)">
<path d="M167.672 72C167.098 72 166.519 71.672 166.133 71.1135C166.091 71.0696 165.903 70.9933 165.767 70.9933V70.6695L165.762 70.9933C164.836 70.9975 163.905 71.0315 162.974 71.0597C162.131 71.0838 161.276 71.1135 160.432 71.1276H160.322C159.883 71.1276 159.453 71.0894 159.019 71.0555C158.806 71.0357 158.604 71.0173 158.398 71.0018L158.204 70.9876C157.901 70.9593 157.673 70.8279 157.467 71.2916C157.262 71.7356 156.814 72 156.26 72C155.581 72 154.905 71.614 154.544 71.0117C154.254 70.5352 153.88 70.4376 153.313 70.2835L153.159 70.2453C151.505 69.8013 149.854 69.3248 148.186 68.837L146.623 68.3888C146.365 68.7183 146.03 68.7607 145.87 68.7607C145.542 68.7607 145.186 68.6023 144.843 68.2828C144.433 67.9123 144.057 67.4882 143.687 67.088C143.526 66.9141 143.371 66.7359 143.204 66.562C143.052 66.398 143.02 66.1577 143.131 65.9639C143.283 65.6953 143.601 65.1311 144.214 65.1311C144.569 65.1311 144.908 65.3234 145.224 65.5398C145.374 65.6373 145.518 65.7278 145.623 65.8876C146.469 67.1884 147.834 67.5603 149.276 67.9562C149.703 68.0707 150.13 68.1923 150.542 68.3323C151.249 68.5684 151.979 68.7183 152.753 68.8724C153.135 68.9544 153.515 69.0308 153.892 69.1128C154.009 69.1467 154.119 69.1651 154.182 69.1651C154.166 69.0152 154.274 68.7027 154.572 68.5868C155.052 68.4086 155.074 68.2305 154.946 67.5164C154.912 67.3482 154.881 67.1799 154.868 67.0103C154.791 66.1379 154.712 65.2513 154.63 64.3747C154.48 62.7982 154.336 61.2117 154.207 59.6253C154.176 59.2252 154.078 59.1092 153.837 58.989C153.525 58.8307 153.135 58.5168 152.966 58.0969C152.848 57.8183 152.691 57.7222 152.194 57.6585C150.052 57.3602 147.912 57.0505 145.764 56.7423L143.406 56.4058C143.174 56.9021 142.656 57.4804 141.725 57.2443C140.695 56.9841 139.484 55.8218 139.532 54.7614C139.552 54.3316 139.803 53.9753 140.025 53.6628C140.107 53.5511 140.185 53.445 140.247 53.3347C140.274 53.281 140.315 53.2386 140.353 53.199L140.179 52.0721C139.931 50.48 139.682 48.8809 139.439 47.2803C139.353 46.6964 139.278 46.1082 139.224 45.52C139.15 44.6956 138.967 44.0792 138.252 43.3609C137.541 42.6469 136.89 42.5366 135.904 42.4447C135.301 42.3909 134.7 42.3429 134.093 42.3005C132.606 42.1888 131.063 42.0728 129.566 41.7985C128.825 41.6684 128.42 41.9767 127.885 42.4206C127.807 42.4786 127.725 42.5408 127.649 42.6045L127.698 42.8547C128.386 45.2598 129.093 47.7568 129.83 50.1916C129.857 50.2397 130.014 50.3598 130.108 50.4277C130.205 50.4998 130.296 50.5719 130.376 50.644L130.501 50.7515C131.068 51.2563 131.773 51.8841 131.619 52.9968C131.585 53.2329 131.389 53.4111 131.15 53.4309C131.14 53.4309 131.058 53.4351 131.044 53.4351C130.244 53.4351 129.279 52.8286 128.721 52.2545C128.406 51.9364 128.034 51.4443 128.041 50.9198C128.048 50.6257 128.222 50.4136 128.386 50.2637L128.01 48.8809C127.455 46.8321 126.906 44.8017 126.332 42.7727C126.315 42.7289 126.209 42.6285 126.138 42.5507C126.049 42.4687 125.963 42.3825 125.893 42.2906C125.808 42.1789 125.712 42.0728 125.617 41.9724C125.353 41.6684 125.052 41.3305 124.911 40.9021C124.735 40.386 125.078 39.5376 125.559 39.2831C125.791 39.1615 125.815 39.1092 125.813 38.7374C125.799 36.2404 125.801 33.7434 125.823 31.2464C125.825 30.8363 125.815 30.8321 125.603 30.7359C125.238 30.562 124.981 30.2863 124.863 29.9441C124.723 29.5299 124.784 29.0477 125.043 28.5415C125.169 28.2955 125.361 28.0551 125.627 27.8233C126.425 27.1106 127.759 27.0908 128.312 27.795C128.584 28.1371 128.673 28.6575 128.557 29.1835C128.433 29.7519 128.092 30.21 127.636 30.4461C127.174 30.6723 127.036 30.924 127.043 31.4867C127.055 32.509 127.062 33.5313 127.072 34.5578C127.082 36.0339 127.093 37.5044 127.116 38.9791C127.123 38.9933 127.165 39.0852 127.369 39.3015C127.609 39.5758 127.889 39.8374 128.198 40.0919L128.304 40.1838C128.416 40.2757 128.628 40.4539 128.711 40.4638C130.993 40.6843 133.279 40.8922 135.563 41.0901L137.416 41.2584C137.416 41.2584 137.437 41.264 137.461 41.264C137.573 40.714 138.023 40.4482 138.34 40.2602C138.716 40.0396 138.778 39.9717 138.776 39.7978C138.744 37.9611 138.735 36.1244 138.725 34.2835C138.718 32.9233 138.713 31.5687 138.694 30.2142C138.691 30.0799 138.636 29.906 138.594 29.8678C137.881 29.3998 137.454 28.7112 137.461 27.9972C137.471 27.2732 137.891 26.6087 138.655 26.1265C138.984 25.9244 139.084 25.7801 139.124 25.486C139.418 23.1912 139.723 20.9007 140.03 18.6214L140.308 16.5288L139.452 15.7328C139.446 15.7285 139.439 15.7186 139.429 15.7144L131.869 17.9696L131.671 18.1251C131.456 18.2976 131.242 18.4659 131.024 18.6299L130.811 18.7854C130.35 19.1276 129.887 19.474 129.405 19.7822C129.127 19.9604 128.577 19.976 128.249 19.6239C127.971 19.3199 128.041 18.7939 128.179 18.5295C128.372 18.1675 128.601 17.8395 128.851 17.5553C129.3 17.0491 129.761 16.5627 130.169 16.1287L130.599 15.6705C130.764 15.4924 131.04 15.4585 131.249 15.5928C131.449 15.7285 131.529 15.9929 131.43 16.2149L131.293 16.5246L131.76 16.919C131.921 16.8512 132.093 16.7748 132.267 16.6971C132.824 16.4567 133.398 16.2008 133.995 16.0127C134.891 15.7328 135.795 15.4783 136.702 15.2223C137.531 14.9919 138.361 14.7543 139.189 14.4998C139.364 14.4418 139.572 14.2679 139.769 14.0983L139.982 13.9201C139.991 13.906 140.011 13.872 140.032 13.8438C140.112 13.708 140.23 13.5157 140.462 13.4196C141.1 13.1297 141.274 12.5995 141.502 11.761C141.537 11.6267 141.574 11.491 141.615 11.351C142.109 9.67408 142.625 8.00141 143.148 6.30328L143.614 4.77625C143.402 4.63626 143.296 4.46235 143.247 4.33792C143.102 3.9901 143.189 3.56592 143.478 3.18981C143.987 2.54365 144.59 1.98515 145.169 1.44502C145.398 1.23293 145.692 1.20466 145.849 1.20466C146.027 1.20466 146.283 1.24284 146.459 1.41675C146.743 1.6953 146.821 2.29763 146.619 2.62566C146.399 2.98338 146.148 3.31565 145.9 3.64368C145.78 3.8077 145.658 3.96606 145.545 4.12442C145.469 4.22622 145.384 4.33792 145.302 4.43831C145.125 4.66029 144.962 4.86249 144.898 5.0562C144.248 7.06114 143.621 9.07599 142.998 11.0809L142.509 12.6476C143.102 13.0675 143.433 13.6076 143.457 14.2057C143.484 14.9183 143.069 15.5786 142.287 16.0806C141.882 16.3408 141.708 16.6306 141.632 17.1891L141.493 18.1435C141.151 20.5444 140.814 22.9452 140.48 25.3461C140.407 25.8904 140.411 25.8904 140.637 25.9342C140.99 26.0106 141.356 26.3683 141.428 26.7246C141.493 27.023 141.567 27.0371 141.819 27.0371C141.916 27.0371 142.017 27.0329 142.123 27.023L142.328 27.0131C145.381 26.8689 148.441 26.7487 151.499 26.6426C151.955 26.6285 151.992 26.5705 152.064 26.3627C152.187 25.9965 152.515 25.5341 152.944 25.3743C153.361 25.2259 153.425 25.0279 153.45 24.3195C153.508 22.8293 153.573 21.3347 153.646 19.8402C153.719 18.2255 153.791 16.6066 153.853 14.9961C153.853 14.9424 153.815 14.8321 153.781 14.7699C153.115 14.538 152.652 13.9498 152.566 13.2174C152.461 12.3492 152.901 11.491 153.689 11.0385C154.087 10.8109 154.165 10.6044 154.218 10.0445C154.37 8.30964 154.544 6.57475 154.716 4.83846L154.905 4.17815C154.958 3.72004 155.039 3.69176 154.757 3.57581C154.176 3.33968 154.012 2.33156 154.09 1.8791C154.261 0.900665 154.975 0.196526 155.91 0.0904846C155.93 0.0904846 156.048 0.0805817 156.067 0.0805817C156.506 0.0805817 157.252 0.302574 157.525 0.794617C157.645 1.00671 157.683 1.01095 157.963 1.01095H158.064C159.401 0.991158 160.736 0.986916 162.067 0.986916H164.99C165.144 0.986916 165.298 1.00671 165.454 1.02509C165.801 1.05903 166.105 1.21314 166.345 0.673027C166.563 0.196533 167.31 0.142799 167.62 0.142799C167.812 0.142799 168.087 0.16684 168.319 0.258743C169.056 0.566978 169.524 1.09296 169.634 1.74902C169.756 2.43336 169.456 3.15588 168.82 3.73983C168.83 3.73983 168.811 3.83173 168.815 3.89819C169.052 6.80522 169.302 7.60975 169.568 10.5125C169.572 10.5663 169.626 10.6964 169.76 10.8406C170.171 11.3029 170.547 11.6847 170.913 12.0113C171.039 12.123 171.218 12.2093 171.348 12.2291C173.89 12.5811 176.441 12.9176 178.973 13.2556L180.381 13.4436L181.187 12.5811L180.647 10.7868C180.154 9.158 179.644 7.46129 179.133 5.76457C178.915 5.01661 178.64 4.42417 178.032 3.95192C177.728 3.72004 177.005 3.07953 176.967 2.34146C176.947 2.00919 177.063 1.70518 177.309 1.46482C177.574 1.19476 177.85 1.14527 178.032 1.14527C178.554 1.14527 178.935 1.54542 179.267 1.8989C179.373 2.00919 179.475 2.11947 179.571 2.19724C179.836 2.41922 180.02 2.70766 180.184 2.96358C180.531 3.51785 180.622 3.92789 180.492 4.29409C180.454 4.42841 180.362 4.58819 180.188 4.73807L180.608 6.16896C181.245 8.36196 181.877 10.5267 182.528 12.6914C182.538 12.7055 182.624 12.7833 182.678 12.8314C182.778 12.9176 182.885 13.0194 182.962 13.1212C183.073 13.2556 183.185 13.3899 183.299 13.5256C183.627 13.9116 183.965 14.3118 184.182 14.8024C184.38 15.252 184.356 15.7186 184.12 16.0905C183.815 16.5429 183.237 16.7409 182.648 16.5726C182.152 16.427 181.737 16.1188 181.331 15.8247C181.183 15.7144 181.033 15.5984 180.879 15.5023C180.748 15.4146 180.608 15.31 180.478 15.2025C180.3 15.0583 180.102 14.8901 179.966 14.866C177.541 14.48 175.066 14.1379 172.679 13.8056L171.324 13.6119C171.246 13.602 171.16 13.5737 171.092 13.5935C171.063 13.5935 171.034 13.6175 171.005 13.6939C170.647 14.6143 169.804 15.0244 168.714 14.7982C167.71 14.5917 166.92 13.6797 166.876 12.6872C166.833 11.6889 167.292 10.9806 168.169 10.6766L168.087 9.52421C168.001 8.27005 167.909 7.01732 167.802 5.76882C167.672 4.22198 167.542 5.12265 167.384 4.00423C167.374 3.91798 167.238 3.74407 167.138 3.62389C167.074 3.53764 167.012 3.45987 166.954 3.37786C166.896 3.37786 166.737 3.28172 166.649 3.08942C166.345 2.37539 165.83 2.25521 164.922 2.25521L164.411 2.25945L164.267 2.25521C162.255 2.22128 160.201 2.29762 158.218 2.37539L157.793 2.39519C157.779 2.40932 157.649 2.52527 157.573 2.60162L157.423 2.7317C157.341 2.90561 157.23 3.10781 156.986 3.20396C156.369 3.45988 156.308 3.90809 156.253 4.74655C156.253 4.74655 156.076 4.91056 155.995 5.91869C155.869 7.42311 155.744 8.94167 155.636 10.4503C155.633 10.5267 155.705 10.7147 155.766 10.7628C156.471 11.2011 156.889 11.901 156.88 12.6476C156.872 13.3715 156.468 14.0219 155.766 14.4418C155.393 14.6582 155.301 14.8363 155.284 15.3383C155.185 18.2156 155.045 21.2909 154.866 24.7579C154.847 25.1 154.885 25.1142 155.1 25.1919C155.922 25.4903 156.382 26.1987 156.39 27.1827C156.393 28.2135 155.92 28.9714 155.089 29.2697C154.832 29.3574 154.789 29.4097 154.789 29.8678C154.794 33.2895 154.794 36.7126 154.767 40.1301C154.765 40.5161 154.823 40.5797 155.066 40.6801C155.445 40.83 155.913 41.1962 156.062 41.6543C156.167 41.9625 156.26 42.0106 156.797 42.0106C160.346 41.9965 163.713 41.9965 167.132 42.0064C167.503 42.0064 167.528 41.9724 167.604 41.7646C167.768 41.3263 168.189 40.8922 168.656 40.6801C168.955 40.5401 169.022 40.4298 169.018 40.0481C168.999 36.6306 169.004 33.2032 169.022 29.79C169.022 29.4917 168.984 29.4337 168.723 29.3234C167.764 28.9134 167.142 27.6691 167.406 26.6568C167.658 25.6486 168.501 24.9699 169.5 24.9601C170.687 24.9601 171.564 25.6444 171.873 26.7868C172.148 27.8134 171.734 28.7253 170.705 29.3574C170.605 29.4196 170.489 29.5977 170.479 29.6599C170.445 33.0689 170.445 36.6603 170.475 40.3181C170.483 40.3662 170.581 40.5062 170.633 40.5401C171.718 41.1043 171.96 41.9427 171.965 42.5507C171.974 43.4811 171.482 44.2814 170.638 44.6914C170.383 44.8116 170.325 44.8978 170.315 45.2075C170.185 48.2248 170.031 51.2421 169.886 54.2595L169.852 54.8674C169.848 54.9396 169.838 55.1234 169.857 55.1658C169.857 55.1658 169.891 55.2054 170.016 55.2435C170.503 55.4259 170.87 55.7794 171.044 56.2319C171.251 56.7678 171.179 57.3885 170.855 57.9866C170.239 59.129 168.888 59.6394 167.875 59.105C167.426 58.8689 167.098 58.4687 166.962 57.9724C166.808 57.4323 166.901 56.8243 167.204 56.304C167.368 56.0297 167.556 55.6974 167.909 55.5815C168.453 55.4019 168.501 55.1078 168.517 54.3174L168.525 53.995C168.637 51.0838 168.757 48.1668 168.893 45.2556C168.912 44.8158 168.863 44.8017 168.656 44.7296C168.213 44.5797 167.778 44.1555 167.643 43.7412C167.566 43.5009 167.532 43.4472 167.074 43.4472C163.539 43.4613 160.099 43.4514 156.622 43.4373C156.236 43.4373 156.226 43.4613 156.154 43.6592C155.817 44.6094 154.948 45.0859 153.858 44.9318C152.821 44.7876 152.116 44.147 151.886 43.1248C151.635 42.0304 152.04 41.1043 152.949 40.714C153.306 40.5599 153.34 40.4341 153.337 39.8699C153.327 36.5345 153.33 33.1934 153.347 29.8579C153.35 29.3998 153.306 29.3856 153.108 29.3277C152.734 29.2117 152.286 28.8837 152.157 28.4793C152.05 28.1371 151.927 28.0551 151.495 28.0551C151.386 28.0551 151.277 28.065 151.163 28.0693C148.85 28.1711 146.613 28.2531 144.375 28.345L141.831 28.4411C141.544 28.5755 140.326 29.8296 140.117 30.2142V31.1403C140.117 34.0233 140.117 36.9106 140.145 39.7978C140.151 39.8756 140.267 40.0778 140.363 40.1456C141.407 40.8201 141.64 41.5581 141.657 42.0643C141.674 42.5649 141.486 43.3171 140.503 44.0495C140.497 44.0735 140.449 44.2531 140.462 44.3676C140.695 46.2679 140.944 48.1668 141.195 50.0573L141.363 51.2902C141.414 51.4924 141.458 51.6465 141.435 51.8261C141.315 52.8625 141.916 53.5129 142.615 54.2651C142.856 54.5295 143.095 54.7812 143.303 55.0597C143.337 55.0696 143.57 55.1036 143.662 55.1177C145.355 55.3595 147.043 55.5999 148.737 55.836L152.231 56.3337C152.33 56.3478 152.42 56.362 152.505 56.362C152.65 56.362 152.739 56.362 152.858 56.0721C153.067 55.5334 153.617 54.9014 155.083 55.1856C155.995 55.3637 156.605 56.0156 156.806 57.0223C157.001 58.0064 156.598 58.8307 155.78 59.1234C155.609 59.187 155.575 59.2351 155.575 59.2351C155.555 59.2831 155.572 59.5051 155.581 59.6013C155.694 60.7918 155.797 61.9781 155.893 63.1644C156.031 64.7395 156.167 66.316 156.324 67.8925C156.338 68.0184 156.492 68.2305 156.622 68.4143C156.681 68.4906 156.738 68.5684 156.79 68.6504C156.943 68.7268 157.14 68.8427 157.225 69.0887C157.417 69.6472 157.761 69.749 158.624 69.749H158.76C161.474 69.7448 163.837 69.7052 166.013 69.6571C165.999 69.6472 166.105 69.5511 166.173 69.4889C166.253 69.4168 166.331 69.3531 166.413 69.2909C166.539 69.199 166.659 69.0972 166.78 68.9968C167.094 68.7409 167.416 68.4807 167.807 68.3026C167.923 68.2545 168.053 68.2262 168.207 68.2262C168.449 68.2262 169.196 68.3365 169.37 68.8229C169.49 69.1707 169.606 69.1707 169.692 69.1707C169.838 69.1707 170.041 69.1085 170.229 69.0505L171.666 68.6405C173.383 68.1626 175.157 67.6663 176.817 66.9961C177.608 66.678 178.438 65.8735 178.698 65.1736C179.421 63.2549 180 61.2301 180.564 59.2831C180.763 58.603 180.956 57.9229 181.157 57.2485C180.482 56.9601 180.188 56.3662 180.328 55.5716C180.526 54.4956 181.549 53.4931 182.596 53.3347C183.545 53.1905 183.888 53.5652 184.212 54.1831L185.128 53.9413C186.218 53.643 187.308 53.3489 188.398 53.0308C188.992 52.8625 189.579 52.6744 190.163 52.4765C190.496 52.3662 190.828 52.2545 191.156 52.1485C192.792 51.638 193.863 50.596 194.355 49.0732C194.847 47.5164 195.29 45.9102 195.72 44.3634C195.86 43.8431 196.005 43.3227 196.149 42.8066C196.145 42.801 196.145 42.7967 196.139 42.7911C196.048 42.6949 195.961 42.5946 195.879 42.4928C195.695 42.2863 195.522 42.0785 195.32 41.9003C195.256 41.8522 195.136 41.8042 195.06 41.8042C192.121 42.0587 189.189 42.3287 186.261 42.6285C186.295 42.6327 186.213 42.719 186.16 42.7727C186.087 42.8448 186.02 42.9169 185.952 42.9749C185.841 43.071 185.735 43.1813 185.629 43.293C185.355 43.573 185.051 43.8855 184.646 44.0495C183.623 44.4652 182.624 44.0311 182.206 43.0371C181.761 41.9965 182.238 40.714 183.241 40.246C183.575 40.0877 183.623 39.9618 183.623 39.5334C183.627 36.7904 183.647 34.0516 183.657 31.3086L183.661 30.2821C183.666 30.0601 183.627 29.9258 183.315 29.7038C182.788 29.3178 182.33 28.6716 182.123 28.0254C181.958 27.5292 182.05 26.9947 182.364 26.5649C182.716 26.0728 183.305 25.7844 183.931 25.7844C185.051 25.7943 185.947 26.5069 186.228 27.6112C186.488 28.6716 186.078 29.4959 185.065 29.9399C185.084 29.9441 185.032 30.0601 185.026 30.1138C185.002 33.5935 185.007 36.7847 185.032 39.8515C185.046 39.8756 185.186 40.0198 185.268 40.1018C185.359 40.2036 185.441 40.2559 185.509 40.2997C185.701 40.4199 185.957 40.5882 186.054 40.8978C186.121 41.1481 186.184 41.1764 186.426 41.1764C186.526 41.1764 186.642 41.1665 186.752 41.1523L189.527 40.9219C191.369 40.7621 193.212 40.608 195.05 40.4341C195.132 40.4242 195.324 40.2559 195.43 40.164L195.55 40.0636C195.56 40.0481 195.594 39.9915 195.618 39.9519C195.71 39.7978 195.849 39.5673 196.115 39.4698C196.661 39.2775 196.713 38.9396 196.713 38.1011V34.2637L196.708 31.3722C196.713 30.9325 196.607 30.7543 196.251 30.562C195.624 30.2241 195.232 29.6698 195.184 29.0378C195.132 28.3832 195.44 27.7511 196.029 27.3029C196.029 27.3029 196.053 27.2732 196.057 27.2492C195.286 24.4581 194.567 21.9809 193.881 19.6819C193.873 19.6918 193.791 19.6239 193.727 19.5801C193.617 19.4938 193.501 19.4118 193.414 19.3157L193.178 19.0597C192.87 18.7416 192.551 18.4136 192.291 18.0276C191.963 17.5652 191.987 17.1948 192.073 16.9572C192.127 16.813 192.223 16.6348 192.435 16.4807L192.227 16.0325C192.127 15.8063 192.203 15.5405 192.415 15.4005C192.623 15.2662 192.904 15.3043 193.072 15.4924L193.641 16.1386C194.177 16.7409 194.76 17.4054 195.324 18.0954C195.724 18.5776 195.86 18.9975 195.739 19.3779C195.695 19.5079 195.608 19.6663 195.43 19.8063L195.758 21.0025C196.309 23.0654 196.858 25.1043 197.426 27.129C197.452 27.2252 197.586 27.3948 197.76 27.5009C198.493 27.9929 198.879 28.5175 198.923 29.0958C198.961 29.6741 198.671 30.234 198.03 30.8123C198.054 30.7982 198.021 30.8901 198.016 31.1785C198.011 33.3149 198.011 35.4457 198.011 37.5949V39.0993C198.661 39.5673 198.99 40.082 198.999 40.6278C198.999 41.264 198.585 41.8466 197.726 42.4206C197.582 42.5168 197.462 42.661 197.442 42.7388C196.882 44.7338 196.343 46.7402 195.792 48.7593L195.42 50.1435C195.599 50.2778 195.69 50.4376 195.734 50.5719C195.898 51.0541 195.613 51.5263 195.344 51.8883C195.198 52.0862 195.03 52.2743 194.871 52.4482L194.75 52.5783C194.167 53.2089 193.563 53.8692 193.034 54.5832C192.884 54.7854 192.599 54.8491 192.377 54.7176C192.155 54.5875 192.059 54.3174 192.161 54.0813L192.449 53.4111L192.223 53.175L190.453 53.701C188.678 54.2354 186.898 54.7671 185.109 55.2718C184.62 55.4175 184.24 55.6974 183.806 56.0297L183.507 56.246C182.61 56.9021 182.364 57.7886 182.09 58.8109C182.032 59.0032 181.978 59.1969 181.92 59.3991C181.481 60.8498 181.033 62.292 180.598 63.6946L180.122 65.2273C180.144 65.2895 180.174 65.3432 180.202 65.4012C180.338 65.6854 180.482 66.0035 180.424 66.3499C180.262 67.2563 178.847 68.7268 177.942 68.7268C177.579 68.7126 177.357 68.5005 177.165 68.3167C177.165 68.3167 177.155 68.3125 177.149 68.3026L176.214 68.6108C175.148 68.9586 174.048 69.3206 172.939 69.667C172.303 69.8593 171.652 70.0092 171.019 70.1449L170.899 70.1676C170.065 70.3613 169.456 70.4956 169.008 71.2096C168.689 71.7158 168.217 72 167.672 72Z" fill="#9E9C9D"/>
<path d="M141.824 59.2637C139.712 59.2637 138.002 57.5571 138.002 55.4404C138.002 53.3337 139.712 51.6186 141.824 51.6186C143.937 51.6186 145.651 53.3337 145.651 55.4404C145.651 57.5571 143.937 59.2637 141.824 59.2637Z" fill="#46A2DF"/>
<path d="M153.475 46.1895C151.363 46.1895 149.651 44.4786 149.651 42.3662C149.651 40.2594 151.363 38.5443 153.475 38.5443C155.593 38.5443 157.305 40.2594 157.305 42.3662C157.305 44.4786 155.593 46.1895 153.475 46.1895Z" fill="#FCD31D"/>
<path d="M139.439 32.2148C137.324 32.2148 135.612 30.504 135.612 28.3916C135.612 26.2806 137.324 24.5641 139.439 24.5641C141.554 24.5641 143.262 26.2806 143.262 28.3916C143.262 30.504 141.554 32.2148 139.439 32.2148Z" fill="#73C82C"/>
<path d="M170.181 30.6572C168.063 30.6572 166.355 28.9407 166.355 26.8297C166.355 24.7187 168.063 23.0121 170.181 23.0121C172.293 23.0121 174.005 24.7187 174.005 26.8297C174.005 28.9407 172.293 30.6572 170.181 30.6572Z" fill="#672290"/>
<path d="M154.712 17.1982C152.597 17.1982 150.883 15.4874 150.883 13.375C150.883 11.264 152.597 9.55738 154.712 9.55738C156.822 9.55738 158.532 11.264 158.532 13.375C158.532 15.4874 156.822 17.1982 154.712 17.1982Z" fill="#EE242D"/>
<path d="M34.3391 71.6748V18.0742C34.3391 8.1824 26.6643 0.14846 17.2325 0.14846C7.68042 0.14846 0 8.1824 0 18.0742V71.6748H11.4464V48.1287H22.8927V71.6748H34.3391ZM11.4464 36.1357V18.0742C11.4464 14.7713 13.949 12.1202 17.2325 12.1202C20.3731 12.1202 22.8927 14.7713 22.8927 18.0742V36.1357H11.4464Z" fill="#A60C2F"/>
<path d="M41.5508 0V53.9512C41.5508 63.8289 49.2171 72 58.6503 72C68.2193 72 75.8913 63.8289 75.8913 53.9512V0H64.4364V53.9512C64.4364 57.24 61.8037 60.0283 58.6503 60.0283C55.5097 60.0283 52.9943 57.24 52.9943 53.9512V0H41.5508Z" fill="#A60C2F"/>
<path d="M83.248 71.6104V17.9843C83.248 8.1434 90.9483 0.137741 100.44 0.137741H111.942V12.067H100.44C97.2819 12.067 94.7567 14.7026 94.7567 17.9843V24.0034H111.942V35.937H94.7567V71.6104H83.248Z" fill="#A60C2F"/>
</g>
</g>
<defs>
<clipPath id="clip0_380_7674">
<rect width="199" height="72" fill="white"/>
</clipPath>
</defs>
</svg>
