<svg width="57" height="20" viewBox="0 0 57 20" fill="none" xmlns="http://www.w3.org/2000/svg">
<g clip-path="url(#clip0_291_1335)">
<path d="M20.2434 10.0205H16.8564V0.000164032H20.2434V10.0205Z" fill="#E5535A"/>
<path d="M3.38714 19.9951H0V9.95925H3.38714V19.9951Z" fill="#E5535A"/>
<path d="M37.2079 20H33.8208V13.5492H37.2079V20Z" fill="#E5535A"/>
<path d="M46.8466 20H43.4595V6.15355H46.8466V20Z" fill="#E5535A"/>
<path d="M10.2879 3.27881V3.24249e-05C4.61509 3.24249e-05 0 4.4678 0 9.95898H3.38698C3.38698 6.27561 6.48265 3.27881 10.2879 3.27881Z" fill="#260F47"/>
<path d="M10.2879 13.3198V10.0412C4.61509 10.0412 0 14.5085 0 20H3.38698C3.38698 16.3165 6.48265 13.3198 10.2879 13.3198Z" fill="#260F47"/>
<path d="M20.2373 10.0204H16.8503C16.8503 15.5117 21.4656 19.9795 27.1383 19.9795V16.7006C23.3332 16.7006 20.2373 13.7039 20.2373 10.0204Z" fill="#260F47"/>
<path d="M33.8211 13.5425H37.2081C37.2081 8.05113 32.5928 3.58336 26.9202 3.58336V6.86231C30.7253 6.86231 33.8211 9.85894 33.8211 13.5425Z" fill="#260F47"/>
<path d="M39.9681 2.35301C39.9681 3.57677 38.9433 4.56885 37.679 4.56885C36.4148 4.56885 35.3901 3.57677 35.3901 2.35301C35.3901 1.12924 36.4148 0.137167 37.679 0.137167C38.9433 0.137167 39.9681 1.12924 39.9681 2.35301Z" fill="#260F47"/>
<path d="M50.2297 9.8644C48.3438 9.8644 46.8097 8.37939 46.8097 6.55379C46.8097 4.72818 48.3438 3.24317 50.2297 3.24317C52.1157 3.24317 53.6497 4.72818 53.6497 6.55379C53.6497 8.37939 52.1157 9.8644 50.2297 9.8644ZM50.2297 -1.23978e-05C46.4964 -1.23978e-05 43.4595 2.93996 43.4595 6.55379C43.4595 10.1674 46.4964 13.1074 50.2297 13.1074C53.963 13.1074 57 10.1674 57 6.55379C57 2.93996 53.963 -1.23978e-05 50.2297 -1.23978e-05Z" fill="#260F47"/>
</g>
<defs>
<clipPath id="clip0_291_1335">
<rect width="57" height="20" fill="white" transform="matrix(1 0 0 -1 0 20)"/>
</clipPath>
</defs>
</svg>
