<svg width="42" height="40" viewBox="0 0 42 40" fill="none" xmlns="http://www.w3.org/2000/svg">
<path fill-rule="evenodd" clip-rule="evenodd" d="M20.7166 15.4552C20.579 16.7371 18.8175 16.9361 18.8175 16.9361H18.7292C17.9748 11.8649 17.7264 5.55372 21.1012 1C24.476 5.55372 24.2275 11.8649 23.4732 16.9361H23.4567C23.4567 16.9361 21.6568 16.8157 21.5547 15.4552C21.4527 14.0947 21.1561 5.85911 21.1561 5.85911C21.1561 5.85911 20.8542 14.1732 20.7166 15.4552ZM2.02296 14.168C8.21547 11.4758 12.9922 13.9831 17.6306 17.866H17.63C17.63 17.866 17.5922 18.7165 17.0024 18.527C16.4126 18.3376 3.97031 14.1776 3.97031 14.1776C3.97031 14.1776 16.3222 18.8555 16.8036 19.109C17.285 19.3626 17.4468 19.9821 17.4468 19.9821C16.0224 19.1312 14.2735 19.0543 12.5306 18.9777H12.5306C11.3204 18.9245 10.113 18.8715 9.01935 18.5595C7.23648 18.0509 5.96405 17.0421 4.69989 16.0399L4.69988 16.0399C3.8479 15.3644 2.99967 14.692 2.00146 14.1776L2.02296 14.168ZM39.9771 14.3819C33.7846 11.6896 29.0078 14.1968 24.3694 18.0798H24.37C24.37 18.0798 24.4079 18.9303 24.9977 18.7409C25.5875 18.5515 38.0298 14.3914 38.0298 14.3914C38.0298 14.3914 25.6779 19.0692 25.1965 19.3228C24.7151 19.5765 24.5533 20.1958 24.5533 20.1958C25.9776 19.345 27.7265 19.2682 29.4694 19.1916H29.4694C30.6797 19.1384 31.887 19.0853 32.9808 18.7733C34.7635 18.2647 36.0358 17.256 37.2999 16.2539C38.152 15.5784 39.0003 14.9058 39.9986 14.3914L39.9771 14.3819ZM19.2744 22.0169C19.2744 21.0759 20.0923 20.3129 21.1012 20.3129C22.1101 20.3129 22.9279 21.0759 22.9279 22.0169C22.9279 22.9581 22.1101 23.721 21.1012 23.721C20.0923 23.721 19.2744 22.9581 19.2744 22.0169ZM18.3839 20.0875C17.9851 18.7191 18.6734 17.7329 19.9666 17.3562L19.9974 17.3589C19.8833 17.6348 19.739 18.0451 19.889 18.3404C20.217 18.986 21.4857 18.9727 22.0243 18.7134C22.5708 18.4503 22.6174 17.7792 22.2501 17.3562C23.5434 17.7329 24.2317 18.7191 23.833 20.0875C23.7474 20.3808 23.6162 20.7278 23.4977 21.0409C23.4652 21.127 23.4336 21.2105 23.4042 21.2897H23.3943C23.3943 21.2897 22.6414 19.6738 20.9772 19.721C19.3129 19.7683 18.8185 21.2897 18.8185 21.2897H18.8126C18.7829 21.2097 18.7509 21.1253 18.718 21.0383C18.5999 20.7258 18.4691 20.38 18.3839 20.0875ZM23.3355 23.0388C23.3355 23.0388 23.3944 25.1533 21.1013 25.1504C18.8081 25.1477 18.8186 22.8863 18.8186 22.8863C18.8186 22.8863 17.6008 23.0269 17.4643 24.2607C17.3278 25.4946 18.1346 26.7589 19.1189 27.3651C19.751 27.7544 20.1523 27.5333 20.5104 27.3359C20.7099 27.2259 20.8961 27.1233 21.1013 27.1377C21.3032 27.1518 21.4671 27.2578 21.6377 27.3681C21.9516 27.5711 22.2885 27.7889 22.928 27.4765C23.915 26.9942 24.7562 25.6597 24.5534 24.3888C24.3507 23.1179 23.3355 23.0388 23.3355 23.0388ZM26.2356 24.8608C25.1769 23.7729 24.0208 22.5851 24.3398 21.3017L24.3696 21.2896C28.5726 21.2896 31.3292 25.4374 34.1822 29.7302C36.2089 32.7799 38.2843 35.9027 40.9615 37.6636C36.9613 37.8647 33.3213 36.8612 30.7634 34.8973C28.2268 32.9498 26.1958 30.6931 24.4919 27.3247L24.4916 27.3246C24.5839 26.828 25.2667 25.0199 25.9909 25.7033C26.7153 26.3868 35.1084 34.9658 35.1084 34.9658C35.1084 34.9658 28.0883 26.8949 26.9445 25.61C26.7271 25.3658 26.484 25.116 26.2356 24.8608ZM40.9615 37.6636L41.0001 37.6617V37.6889L40.9615 37.6636ZM15.7649 24.6467C16.8235 23.5589 17.9793 22.3712 17.6604 21.0879L17.6305 21.0758C13.4275 21.0758 10.671 25.2236 7.81804 29.5163C5.79127 32.566 3.71584 35.6889 1.03862 37.4498L1 37.4479V37.4751L1.03862 37.4498C5.0388 37.6509 8.67875 36.6474 11.2367 34.6836C13.7734 32.736 15.8044 30.4793 17.5083 27.111L17.5085 27.1109C17.4163 26.6142 16.7335 24.8061 16.0091 25.4896C15.2849 26.1731 6.8917 34.7521 6.8917 34.7521C6.8917 34.7521 13.9119 26.6811 15.0557 25.3963C15.2732 25.1519 15.5164 24.9021 15.7649 24.6467ZM19.0902 29.6603L19.0902 29.6604C19.3918 33.3633 19.593 35.8327 21.1768 39.0001C22.9561 35.4418 23.1929 32.7646 23.3944 28.2297C23.3944 28.2297 21.7063 28.3282 21.6043 29.6887C21.5022 31.0492 21.1768 35.6779 21.1768 35.6779C21.1768 35.6779 20.9943 30.9924 20.8566 29.7104C20.719 28.4285 18.9887 28.2297 18.9887 28.2297H18.9712C19.0143 28.7278 19.053 29.2034 19.0902 29.6603Z" fill="#1B532B"/>
<path d="M18.8175 16.9361V17.0815C18.8229 17.0815 18.8284 17.0812 18.8338 17.0806L18.8175 16.9361ZM20.7166 15.4552L20.572 15.4397L20.572 15.4397L20.7166 15.4552ZM18.7292 16.9361L18.5853 16.9575C18.5959 17.0288 18.6571 17.0815 18.7292 17.0815V16.9361ZM21.1012 1L21.2181 0.913417C21.1906 0.876409 21.1473 0.854584 21.1012 0.854584C21.0552 0.854583 21.0118 0.876408 20.9844 0.913416L21.1012 1ZM23.4732 16.9361V17.0815C23.5452 17.0815 23.6064 17.0288 23.617 16.9575L23.4732 16.9361ZM23.4567 16.9361L23.4469 17.0815H23.4567V16.9361ZM21.5547 15.4552L21.4097 15.4661V15.4661L21.5547 15.4552ZM21.1561 5.85911L21.3015 5.85388C21.2986 5.77566 21.2344 5.7137 21.1562 5.71369C21.0779 5.71368 21.0136 5.77562 21.0108 5.85383L21.1561 5.85911ZM17.6306 17.866V18.0114C17.6918 18.0114 17.7464 17.9731 17.7673 17.9156C17.7882 17.8581 17.7709 17.7937 17.724 17.7544L17.6306 17.866ZM2.02296 14.168L1.96498 14.0346L1.9638 14.0352L2.02296 14.168ZM17.63 17.866V17.7205C17.5522 17.7205 17.4882 17.7818 17.4848 17.8595L17.63 17.866ZM17.0024 18.527L16.9579 18.6655L17.0024 18.527ZM3.97031 14.1776L4.01642 14.0397C3.94132 14.0146 3.85992 14.0542 3.83334 14.1288C3.80675 14.2034 3.84475 14.2855 3.91881 14.3136L3.97031 14.1776ZM16.8036 19.109L16.8714 18.9803L16.8713 18.9803L16.8036 19.109ZM17.4468 19.9821L17.3723 20.1069C17.423 20.1372 17.4869 20.1338 17.5341 20.0984C17.5814 20.0629 17.6025 20.0024 17.5875 19.9453L17.4468 19.9821ZM12.5306 18.9777L12.537 18.8323H12.5306V18.9777ZM12.5306 18.9777L12.5242 19.1231H12.5306V18.9777ZM9.01935 18.5595L8.97946 18.6993H8.97946L9.01935 18.5595ZM4.69989 16.0399L4.60905 16.1534L4.60955 16.1538L4.69989 16.0399ZM4.69988 16.0399L4.79072 15.9263L4.79022 15.9259L4.69988 16.0399ZM2.00146 14.1776L1.9423 14.0447C1.89121 14.0675 1.8577 14.1175 1.85611 14.1735C1.85452 14.2294 1.88514 14.2812 1.93485 14.3068L2.00146 14.1776ZM24.3694 18.0798L24.276 17.9683C24.2291 18.0076 24.2118 18.072 24.2327 18.1295C24.2536 18.187 24.3082 18.2252 24.3694 18.2252V18.0798ZM39.9771 14.3819L40.0363 14.249L40.0351 14.2485L39.9771 14.3819ZM24.37 18.0798L24.5152 18.0733C24.5118 17.9956 24.4478 17.9344 24.37 17.9344V18.0798ZM24.9977 18.7409L25.0422 18.8793H25.0422L24.9977 18.7409ZM38.0298 14.3914L38.0813 14.5274C38.1553 14.4994 38.1933 14.4172 38.1668 14.3426C38.1402 14.268 38.0588 14.2284 37.9837 14.2535L38.0298 14.3914ZM24.5533 20.1958L24.4126 20.159C24.3976 20.2162 24.4187 20.2767 24.4659 20.3121C24.5132 20.3476 24.5771 20.3509 24.6278 20.3207L24.5533 20.1958ZM29.4694 19.1916V19.046L29.463 19.0463L29.4694 19.1916ZM29.4694 19.1916V19.3371L29.4758 19.3368L29.4694 19.1916ZM32.9808 18.7733L33.0206 18.9132H33.0206L32.9808 18.7733ZM37.2999 16.2539L37.3902 16.3678L37.2999 16.2539ZM39.9986 14.3914L40.0652 14.5207C40.115 14.4951 40.1456 14.4432 40.144 14.3873C40.1424 14.3314 40.1089 14.2814 40.0578 14.2586L39.9986 14.3914ZM19.9666 17.3562L19.9795 17.2113C19.9614 17.2097 19.9433 17.2115 19.9259 17.2166L19.9666 17.3562ZM18.3839 20.0875L18.5235 20.0468L18.5235 20.0468L18.3839 20.0875ZM19.9974 17.3589L20.1317 17.4145C20.1494 17.3717 20.1457 17.3231 20.1217 17.2835C20.0977 17.244 20.0563 17.2182 20.0102 17.2141L19.9974 17.3589ZM19.889 18.3404L19.7594 18.4063L19.7594 18.4063L19.889 18.3404ZM22.0243 18.7134L22.0874 18.8444L22.0874 18.8444L22.0243 18.7134ZM22.2501 17.3562L22.2908 17.2166C22.2289 17.1985 22.1625 17.2234 22.1277 17.2778C22.0929 17.3321 22.098 17.4028 22.1403 17.4515L22.2501 17.3562ZM23.833 20.0875L23.9726 20.1282L23.9726 20.1281L23.833 20.0875ZM23.4977 21.0409L23.6337 21.0924L23.4977 21.0409ZM23.4042 21.2897V21.4351C23.4649 21.4351 23.5193 21.3973 23.5405 21.3403L23.4042 21.2897ZM23.3943 21.2897L23.2625 21.3511C23.2864 21.4023 23.3378 21.4351 23.3943 21.4351V21.2897ZM20.9772 19.721L20.9731 19.5757H20.9731L20.9772 19.721ZM18.8185 21.2897V21.4351C18.8815 21.4351 18.9373 21.3945 18.9568 21.3346L18.8185 21.2897ZM18.8126 21.2897L18.6762 21.3403C18.6974 21.3973 18.7518 21.4351 18.8126 21.4351V21.2897ZM18.718 21.0383L18.582 21.0897L18.718 21.0383ZM21.1013 25.1504L21.1015 25.005H21.1015L21.1013 25.1504ZM23.3355 23.0388L23.3468 22.8938C23.3057 22.8906 23.2652 22.905 23.2353 22.9335C23.2054 22.9619 23.189 23.0016 23.1901 23.0429L23.3355 23.0388ZM18.8186 22.8863L18.9641 22.887C18.9643 22.8454 18.9466 22.8057 18.9156 22.778C18.8847 22.7502 18.8433 22.7371 18.802 22.7419L18.8186 22.8863ZM17.4643 24.2607L17.6089 24.2767L17.4643 24.2607ZM19.1189 27.3651L19.0426 27.4889L19.0426 27.4889L19.1189 27.3651ZM20.5104 27.3359L20.5806 27.4632H20.5806L20.5104 27.3359ZM21.1013 27.1377L21.0911 27.2827L21.0912 27.2827L21.1013 27.1377ZM21.6377 27.3681L21.7166 27.246H21.7166L21.6377 27.3681ZM22.928 27.4765L22.9918 27.6071L22.9919 27.6071L22.928 27.4765ZM24.5534 24.3888L24.697 24.3659L24.5534 24.3888ZM24.3398 21.3017L24.285 21.167C24.242 21.1845 24.2099 21.2216 24.1987 21.2667L24.3398 21.3017ZM26.2356 24.8608L26.1314 24.9622L26.2356 24.8608ZM24.3696 21.2896V21.1442C24.3508 21.1442 24.3322 21.1478 24.3148 21.1549L24.3696 21.2896ZM34.1822 29.7302L34.0611 29.8107L34.1822 29.7302ZM30.7634 34.8973L30.8519 34.7819L30.7634 34.8973ZM24.4919 27.3247L24.6217 27.2591C24.6103 27.2365 24.5932 27.2173 24.5721 27.2034L24.4919 27.3247ZM24.4916 27.3246L24.3487 27.298C24.338 27.3554 24.3627 27.4137 24.4115 27.4459L24.4916 27.3246ZM25.9909 25.7033L25.8911 25.8091L25.8911 25.8091L25.9909 25.7033ZM35.1084 34.9658L35.0044 35.0675C35.0594 35.1238 35.1492 35.1261 35.207 35.0727C35.2648 35.0194 35.2697 34.9298 35.2181 34.8704L35.1084 34.9658ZM26.9445 25.61L27.0531 25.5133L27.0531 25.5133L26.9445 25.61ZM41.0001 37.6617H41.1455C41.1455 37.6218 41.1291 37.5837 41.1002 37.5562C41.0714 37.5288 41.0325 37.5144 40.9926 37.5164L41.0001 37.6617ZM41.0001 37.6889L40.9204 37.8106C40.9651 37.8398 41.0222 37.8422 41.0692 37.8168C41.1162 37.7914 41.1455 37.7423 41.1455 37.6889H41.0001ZM17.6604 21.0879L17.8015 21.0529C17.7903 21.0077 17.7581 20.9706 17.715 20.9532L17.6604 21.0879ZM15.7649 24.6467L15.8691 24.7481L15.7649 24.6467ZM17.6305 21.0758L17.6851 20.941C17.6677 20.934 17.6492 20.9304 17.6305 20.9304V21.0758ZM7.81804 29.5163L7.69693 29.4359L7.81804 29.5163ZM1 37.4479L1.00743 37.3026C0.967627 37.3006 0.928731 37.315 0.899837 37.3424C0.870943 37.3699 0.854584 37.408 0.854584 37.4479H1ZM1 37.4751H0.854584C0.854584 37.5285 0.883863 37.5776 0.930848 37.603C0.977833 37.6284 1.03496 37.626 1.07965 37.5968L1 37.4751ZM11.2367 34.6836L11.3253 34.7989L11.3253 34.7989L11.2367 34.6836ZM17.5083 27.111L17.4417 26.9816C17.4145 26.9957 17.3923 27.018 17.3785 27.0453L17.5083 27.111ZM17.5085 27.1109L17.575 27.2402C17.6321 27.2108 17.6631 27.1474 17.6514 27.0843L17.5085 27.1109ZM16.0091 25.4896L15.9094 25.3838L15.9093 25.3838L16.0091 25.4896ZM6.8917 34.7521L6.78198 34.6567C6.73036 34.716 6.73528 34.8057 6.79309 34.859C6.8509 34.9124 6.94064 34.9101 6.99564 34.8538L6.8917 34.7521ZM15.0557 25.3963L15.1643 25.4929L15.1643 25.4929L15.0557 25.3963ZM19.0902 29.6604L18.945 29.6685L18.9453 29.6722L19.0902 29.6604ZM19.0902 29.6603L19.2355 29.6523L19.2352 29.6485L19.0902 29.6603ZM21.1768 39.0001L21.0467 39.0651C21.0713 39.1144 21.1217 39.1455 21.1768 39.1455C21.2318 39.1455 21.2822 39.1144 21.3068 39.0651L21.1768 39.0001ZM23.3944 28.2297L23.5396 28.2362C23.5415 28.1951 23.5258 28.1551 23.4965 28.1262C23.4672 28.0973 23.427 28.0822 23.3859 28.0845L23.3944 28.2297ZM21.6043 29.6887L21.7493 29.6996L21.7493 29.6996L21.6043 29.6887ZM21.1768 35.6779L21.0315 35.6835C21.0345 35.7607 21.0973 35.8221 21.1745 35.8233C21.2517 35.8245 21.3164 35.7651 21.3218 35.6881L21.1768 35.6779ZM20.8566 29.7104L20.712 29.726L20.712 29.726L20.8566 29.7104ZM18.9887 28.2297L19.0053 28.0853C18.9998 28.0846 18.9942 28.0843 18.9887 28.0843V28.2297ZM18.9712 28.2297V28.0843C18.9304 28.0843 18.8916 28.1014 18.864 28.1314C18.8365 28.1614 18.8228 28.2016 18.8263 28.2422L18.9712 28.2297ZM18.8175 16.9361C18.8338 17.0806 18.8339 17.0806 18.8339 17.0806C18.834 17.0806 18.834 17.0806 18.8341 17.0806C18.8342 17.0806 18.8344 17.0806 18.8345 17.0805C18.8349 17.0805 18.8353 17.0805 18.8359 17.0804C18.837 17.0803 18.8386 17.0801 18.8405 17.0798C18.8444 17.0793 18.85 17.0786 18.857 17.0777C18.8712 17.0757 18.8914 17.0728 18.917 17.0686C18.9681 17.0602 19.0405 17.0468 19.1276 17.0267C19.3013 16.9865 19.5358 16.9188 19.7761 16.8086C20.2524 16.59 20.7843 16.1871 20.8612 15.4707L20.572 15.4397C20.5113 16.0053 20.0936 16.3428 19.6548 16.5442C19.4375 16.6439 19.223 16.7061 19.0621 16.7433C18.9819 16.7619 18.9157 16.7741 18.8699 16.7816C18.847 16.7853 18.8293 16.7879 18.8176 16.7895C18.8117 16.7903 18.8073 16.7909 18.8046 16.7912C18.8032 16.7914 18.8022 16.7915 18.8016 16.7916C18.8013 16.7916 18.8012 16.7916 18.8011 16.7916C18.801 16.7916 18.801 16.7916 18.801 16.7916C18.801 16.7916 18.8011 16.7916 18.8011 16.7916C18.8011 16.7916 18.8012 16.7916 18.8175 16.9361ZM18.7292 17.0815H18.8175V16.7907H18.7292V17.0815ZM20.9844 0.913416C17.5713 5.51874 17.8308 11.8848 18.5853 16.9575L18.873 16.9147C18.1189 11.8451 17.8814 5.58871 21.2181 1.08658L20.9844 0.913416ZM23.617 16.9575C24.3716 11.8848 24.631 5.51874 21.2181 0.913417L20.9844 1.08658C24.3209 5.58871 24.0835 11.8451 23.3293 16.9147L23.617 16.9575ZM23.4567 17.0815H23.4732V16.7907H23.4567V17.0815ZM21.4097 15.4661C21.4666 16.2239 22.0003 16.6291 22.4863 16.8393C22.7303 16.9449 22.9694 17.005 23.1466 17.0389C23.2354 17.0559 23.3095 17.0664 23.3617 17.0727C23.3879 17.0758 23.4086 17.0779 23.4231 17.0793C23.4304 17.0799 23.436 17.0804 23.44 17.0807C23.442 17.0809 23.4436 17.081 23.4448 17.0811C23.4454 17.0811 23.4458 17.0811 23.4462 17.0812C23.4464 17.0812 23.4465 17.0812 23.4467 17.0812C23.4467 17.0812 23.4468 17.0812 23.4468 17.0812C23.4469 17.0812 23.447 17.0812 23.4567 16.9361C23.4664 16.791 23.4664 16.791 23.4665 16.791C23.4665 16.791 23.4665 16.791 23.4665 16.791C23.4665 16.791 23.4665 16.791 23.4665 16.791C23.4664 16.791 23.4662 16.791 23.4659 16.791C23.4654 16.791 23.4644 16.7909 23.463 16.7908C23.4602 16.7906 23.4557 16.7902 23.4497 16.7896C23.4378 16.7885 23.4198 16.7867 23.3965 16.7839C23.35 16.7783 23.2826 16.7688 23.2011 16.7532C23.0377 16.722 22.8204 16.667 22.6017 16.5724C22.1622 16.3822 21.745 16.047 21.6998 15.4443L21.4097 15.4661ZM21.1561 5.85911C21.0108 5.86434 21.0108 5.86437 21.0108 5.86444C21.0108 5.8645 21.0108 5.86459 21.0108 5.86472C21.0108 5.86497 21.0108 5.86535 21.0109 5.86585C21.0109 5.86685 21.011 5.86834 21.011 5.87032C21.0112 5.87429 21.0114 5.88021 21.0117 5.88802C21.0122 5.90365 21.0131 5.92686 21.0142 5.95719C21.0164 6.01786 21.0196 6.107 21.0237 6.22094C21.0321 6.44881 21.044 6.77585 21.0587 7.17256C21.0881 7.96596 21.1284 9.03802 21.1718 10.1526C21.2587 12.3798 21.3584 14.7825 21.4097 15.4661L21.6998 15.4443C21.649 14.7674 21.5494 12.372 21.4625 10.1413C21.419 9.02693 21.3788 7.95507 21.3494 7.16179C21.3347 6.76515 21.3227 6.43816 21.3144 6.21034C21.3102 6.09643 21.307 6.00731 21.3048 5.94667C21.3037 5.91635 21.3029 5.89315 21.3023 5.87753C21.302 5.86972 21.3018 5.8638 21.3017 5.85984C21.3016 5.85786 21.3015 5.85637 21.3015 5.85537C21.3015 5.85488 21.3015 5.8545 21.3015 5.85425C21.3015 5.85413 21.3015 5.85403 21.3015 5.85397C21.3015 5.85391 21.3015 5.85388 21.1561 5.85911ZM20.8612 15.4707C20.9306 14.8236 21.0407 12.4178 21.1333 10.1824C21.1796 9.06282 21.2217 7.98333 21.2521 7.18375C21.2673 6.78396 21.2797 6.45413 21.2882 6.22425C21.2925 6.10931 21.2958 6.01935 21.298 5.95812C21.2991 5.92751 21.3 5.90408 21.3006 5.8883C21.3009 5.88041 21.3011 5.87443 21.3012 5.87043C21.3013 5.86843 21.3014 5.86692 21.3014 5.86591C21.3014 5.8654 21.3014 5.86502 21.3014 5.86477C21.3014 5.86464 21.3014 5.86455 21.3014 5.86448C21.3014 5.86442 21.3014 5.86439 21.1561 5.85911C21.0108 5.85383 21.0108 5.85386 21.0108 5.85393C21.0108 5.85399 21.0108 5.85408 21.0108 5.85421C21.0108 5.85446 21.0108 5.85484 21.0108 5.85534C21.0107 5.85635 21.0107 5.85785 21.0106 5.85985C21.0104 5.86385 21.0102 5.86982 21.0099 5.8777C21.0094 5.89346 21.0085 5.91687 21.0074 5.94746C21.0051 6.00865 21.0018 6.09857 20.9976 6.21347C20.989 6.44327 20.9767 6.773 20.9615 7.17268C20.931 7.97206 20.889 9.05122 20.8427 10.1704C20.7499 12.4125 20.6402 14.8048 20.572 15.4397L20.8612 15.4707ZM17.724 17.7544C15.3996 15.8087 13.0279 14.1964 10.4519 13.4122C7.87038 12.6264 5.09252 12.675 1.96498 14.0347L2.08094 14.3014C5.14591 12.9689 7.85268 12.925 10.3672 13.6904C12.8873 14.4576 15.2232 16.0403 17.5373 17.9775L17.724 17.7544ZM17.63 18.0114H17.6306V17.7205H17.63V18.0114ZM16.9579 18.6655C17.1393 18.7237 17.2973 18.7062 17.4254 18.6276C17.5471 18.5528 17.6228 18.4343 17.6705 18.3261C17.7188 18.2164 17.7445 18.1031 17.7584 18.0197C17.7654 17.9775 17.7696 17.9416 17.772 17.916C17.7732 17.9031 17.774 17.8927 17.7745 17.8853C17.7748 17.8816 17.775 17.8787 17.7751 17.8765C17.7752 17.8754 17.7752 17.8745 17.7752 17.8738C17.7753 17.8735 17.7753 17.8732 17.7753 17.873C17.7753 17.8728 17.7753 17.8727 17.7753 17.8726C17.7753 17.8726 17.7753 17.8725 17.7753 17.8725C17.7753 17.8725 17.7753 17.8724 17.63 17.866C17.4848 17.8595 17.4848 17.8594 17.4848 17.8594C17.4848 17.8594 17.4848 17.8594 17.4848 17.8593C17.4848 17.8593 17.4848 17.8593 17.4848 17.8592C17.4848 17.8592 17.4848 17.8592 17.4848 17.8593C17.4848 17.8594 17.4847 17.8598 17.4847 17.8603C17.4847 17.8613 17.4846 17.8631 17.4844 17.8656C17.484 17.8705 17.4835 17.8783 17.4825 17.8883C17.4806 17.9084 17.4772 17.9375 17.4715 17.972C17.4598 18.0422 17.4392 18.1297 17.4043 18.2089C17.3688 18.2897 17.3244 18.3483 17.2732 18.3797C17.2283 18.4073 17.1604 18.4251 17.0469 18.3886L16.9579 18.6655ZM3.97031 14.1776C3.9242 14.3155 3.92425 14.3155 3.92435 14.3155C3.92444 14.3156 3.92458 14.3156 3.92477 14.3157C3.92515 14.3158 3.92572 14.316 3.92647 14.3163C3.92798 14.3168 3.93023 14.3175 3.93322 14.3185C3.93921 14.3205 3.94814 14.3235 3.95992 14.3274C3.98348 14.3353 4.01845 14.347 4.06408 14.3623C4.15536 14.3928 4.2893 14.4376 4.45999 14.4946C4.80136 14.6087 5.2897 14.772 5.87754 14.9685C7.05322 15.3614 8.62695 15.8874 10.2191 16.4192C13.4025 17.4826 16.662 18.5704 16.9579 18.6655L17.0469 18.3886C16.753 18.2942 13.4964 17.2073 10.3113 16.1434C8.71912 15.6115 7.14541 15.0856 5.96973 14.6926C5.3819 14.4962 4.89357 14.3329 4.5522 14.2188C4.38152 14.1617 4.24757 14.117 4.1563 14.0864C4.11066 14.0712 4.07569 14.0595 4.05213 14.0516C4.04035 14.0477 4.03143 14.0447 4.02544 14.0427C4.02245 14.0417 4.0202 14.0409 4.01869 14.0404C4.01794 14.0402 4.01737 14.04 4.01699 14.0399C4.0168 14.0398 4.01666 14.0398 4.01657 14.0397C4.01647 14.0397 4.01642 14.0397 3.97031 14.1776ZM16.8713 18.9803C16.8023 18.9439 16.5462 18.8393 16.1675 18.6891C15.7832 18.5367 15.2607 18.333 14.6478 18.0959C13.4218 17.6216 11.8324 17.013 10.2583 16.4124C8.6841 15.8117 7.12499 15.219 5.95944 14.7765C5.37666 14.5553 4.89226 14.3715 4.55355 14.2431C4.3842 14.1789 4.25127 14.1285 4.16067 14.0942C4.11538 14.077 4.08066 14.0639 4.05728 14.055C4.04558 14.0506 4.03672 14.0472 4.03078 14.045C4.02781 14.0439 4.02557 14.043 4.02407 14.0424C4.02332 14.0422 4.02276 14.042 4.02238 14.0418C4.02219 14.0417 4.02205 14.0417 4.02196 14.0416C4.02186 14.0416 4.02182 14.0416 3.97031 14.1776C3.91881 14.3136 3.91886 14.3136 3.91895 14.3136C3.91905 14.3137 3.91919 14.3137 3.91937 14.3138C3.91975 14.3139 3.92031 14.3141 3.92106 14.3144C3.92255 14.315 3.92479 14.3158 3.92776 14.317C3.9337 14.3192 3.94256 14.3226 3.95425 14.327C3.97763 14.3359 4.01234 14.349 4.05762 14.3662C4.1482 14.4005 4.28111 14.4509 4.45045 14.5151C4.78912 14.6435 5.27347 14.8272 5.8562 15.0484C7.02167 15.4909 8.58063 16.0835 10.1546 16.6841C11.7286 17.2846 13.3175 17.893 14.5428 18.3671C15.1556 18.6042 15.6771 18.8075 16.0604 18.9595C16.4493 19.1137 16.6846 19.2107 16.7358 19.2377L16.8713 18.9803ZM17.4468 19.9821C17.5875 19.9453 17.5875 19.9452 17.5875 19.9452C17.5875 19.9452 17.5875 19.9451 17.5875 19.9451C17.5875 19.945 17.5874 19.9449 17.5874 19.9448C17.5874 19.9446 17.5873 19.9444 17.5872 19.9441C17.5871 19.9436 17.5869 19.9429 17.5867 19.9421C17.5862 19.9404 17.5856 19.9382 17.5848 19.9354C17.5832 19.9298 17.5809 19.922 17.5779 19.9122C17.5719 19.8926 17.5629 19.865 17.5506 19.8313C17.5261 19.7643 17.488 19.6723 17.4337 19.5716C17.3264 19.3727 17.1482 19.1262 16.8714 18.9803L16.7358 19.2376C16.9404 19.3454 17.0837 19.5354 17.1777 19.7097C17.2241 19.7955 17.2566 19.8743 17.2775 19.9313C17.2879 19.9597 17.2953 19.9825 17.3 19.9977C17.3023 20.0054 17.304 20.0111 17.305 20.0147C17.3055 20.0165 17.3059 20.0178 17.306 20.0185C17.3061 20.0188 17.3062 20.019 17.3062 20.0191C17.3062 20.0191 17.3062 20.0191 17.3062 20.0191C17.3062 20.019 17.3062 20.019 17.3062 20.019C17.3062 20.019 17.3062 20.0189 17.3062 20.0189C17.3062 20.0189 17.3062 20.0188 17.4468 19.9821ZM12.5242 19.123C14.2757 19.2 15.9851 19.2783 17.3723 20.1069L17.5214 19.8572C16.0598 18.9841 14.2713 18.9087 12.537 18.8324L12.5242 19.123ZM12.5306 19.1231H12.5306V18.8323H12.5306V19.1231ZM8.97946 18.6993C10.0926 19.0168 11.3177 19.07 12.5242 19.123L12.537 18.8324C11.323 18.7791 10.1335 18.7261 9.05924 18.4196L8.97946 18.6993ZM4.60955 16.1538C5.87187 17.1546 7.16515 18.1817 8.97946 18.6993L9.05924 18.4196C7.30781 17.92 6.05624 16.9296 4.79023 15.9259L4.60955 16.1538ZM4.60904 16.1534L4.60905 16.1534L4.79073 15.9263L4.79072 15.9263L4.60904 16.1534ZM1.93485 14.3068C2.91846 14.8137 3.75595 15.4771 4.60954 16.1538L4.79022 15.9259C3.93984 15.2518 3.08088 14.5702 2.06808 14.0483L1.93485 14.3068ZM1.9638 14.0352L1.9423 14.0447L2.06063 14.3104L2.08212 14.3008L1.9638 14.0352ZM24.4627 18.1913C26.7768 16.2541 29.1127 14.6714 31.6328 13.9042C34.1474 13.1388 36.8542 13.1827 39.9192 14.5152L40.0351 14.2485C36.9076 12.8888 34.1297 12.8402 31.5481 13.626C28.9721 14.4102 26.6004 16.0225 24.276 17.9683L24.4627 18.1913ZM24.37 17.9344H24.3694V18.2252H24.37V17.9344ZM24.9532 18.6024C24.8397 18.6389 24.7718 18.6212 24.7269 18.5936C24.6756 18.5621 24.6313 18.5035 24.5957 18.4228C24.5608 18.3435 24.5402 18.2561 24.5286 18.1859C24.5228 18.1513 24.5194 18.1223 24.5175 18.1021C24.5165 18.0921 24.516 18.0844 24.5156 18.0794C24.5154 18.0769 24.5153 18.0752 24.5153 18.0741C24.5153 18.0736 24.5152 18.0733 24.5152 18.0731C24.5152 18.0731 24.5152 18.0731 24.5152 18.0731C24.5152 18.0731 24.5152 18.0731 24.5152 18.0732C24.5152 18.0732 24.5152 18.0732 24.5152 18.0732C24.5152 18.0733 24.5152 18.0733 24.37 18.0798C24.2247 18.0863 24.2247 18.0863 24.2247 18.0864C24.2247 18.0864 24.2247 18.0865 24.2247 18.0865C24.2247 18.0866 24.2247 18.0867 24.2247 18.0868C24.2247 18.0871 24.2247 18.0874 24.2248 18.0877C24.2248 18.0884 24.2248 18.0893 24.2249 18.0904C24.225 18.0925 24.2252 18.0955 24.2255 18.0992C24.226 18.1066 24.2268 18.117 24.228 18.1298C24.2304 18.1555 24.2346 18.1914 24.2417 18.2336C24.2555 18.3169 24.2813 18.4303 24.3296 18.54C24.3772 18.6482 24.4529 18.7667 24.5747 18.8414C24.7028 18.9201 24.8608 18.9376 25.0422 18.8793L24.9532 18.6024ZM38.0298 14.3914C37.9837 14.2535 37.9836 14.2535 37.9835 14.2536C37.9834 14.2536 37.9833 14.2537 37.9831 14.2537C37.9827 14.2538 37.9822 14.254 37.9814 14.2543C37.9799 14.2548 37.9776 14.2555 37.9747 14.2565C37.9687 14.2585 37.9597 14.2615 37.948 14.2655C37.9244 14.2733 37.8894 14.285 37.8438 14.3003C37.7525 14.3308 37.6186 14.3756 37.4479 14.4326C37.1065 14.5468 36.6182 14.71 36.0304 14.9065C34.8547 15.2994 33.281 15.8254 31.6888 16.3572C28.5037 17.4212 25.2471 18.5081 24.9532 18.6024L25.0422 18.8793C25.3381 18.7843 28.5976 17.6964 31.781 16.6331C33.3731 16.1012 34.9469 15.5753 36.1226 15.1823C36.7104 14.9858 37.1987 14.8226 37.5401 14.7085C37.7108 14.6514 37.8447 14.6066 37.936 14.5761C37.9817 14.5609 38.0166 14.5492 38.0402 14.5413C38.052 14.5374 38.0609 14.5344 38.0669 14.5324C38.0699 14.5314 38.0721 14.5306 38.0736 14.5301C38.0744 14.5299 38.0749 14.5297 38.0753 14.5295C38.0755 14.5295 38.0757 14.5294 38.0758 14.5294C38.0758 14.5294 38.0759 14.5294 38.0298 14.3914ZM25.2643 19.4515C25.3155 19.4245 25.5508 19.3275 25.9397 19.1733C26.323 19.0214 26.8445 18.818 27.4573 18.5809C28.6826 18.1069 30.2715 17.4985 31.8455 16.8979C33.4195 16.2974 34.9784 15.7047 36.1439 15.2623C36.7266 15.041 37.211 14.8573 37.5496 14.7289C37.719 14.6647 37.8519 14.6143 37.9425 14.58C37.9878 14.5629 38.0225 14.5497 38.0458 14.5409C38.0575 14.5364 38.0664 14.5331 38.0723 14.5308C38.0753 14.5297 38.0775 14.5288 38.079 14.5283C38.0798 14.528 38.0803 14.5278 38.0807 14.5276C38.0809 14.5276 38.0811 14.5275 38.0811 14.5275C38.0812 14.5274 38.0813 14.5274 38.0298 14.3914C37.9783 14.2554 37.9782 14.2555 37.9781 14.2555C37.978 14.2555 37.9779 14.2556 37.9777 14.2557C37.9773 14.2558 37.9768 14.256 37.976 14.2563C37.9745 14.2569 37.9723 14.2577 37.9693 14.2588C37.9634 14.2611 37.9545 14.2645 37.9428 14.2689C37.9194 14.2777 37.8847 14.2909 37.8394 14.3081C37.7488 14.3424 37.6159 14.3928 37.4465 14.457C37.1078 14.5854 36.6234 14.7691 36.0407 14.9904C34.8751 15.4329 33.316 16.0256 31.7418 16.6262C30.1677 17.2268 28.5783 17.8354 27.3523 18.3097C26.7394 18.5469 26.2169 18.7506 25.8326 18.903C25.4539 19.0531 25.1978 19.1578 25.1287 19.1942L25.2643 19.4515ZM24.5533 20.1958C24.6939 20.2326 24.6939 20.2326 24.6939 20.2327C24.6939 20.2327 24.6939 20.2327 24.6939 20.2327C24.6939 20.2328 24.6939 20.2328 24.6939 20.2328C24.6939 20.2329 24.6939 20.2329 24.6939 20.2328C24.6939 20.2328 24.6939 20.2326 24.694 20.2322C24.6942 20.2315 24.6946 20.2303 24.6951 20.2285C24.6961 20.2249 24.6978 20.2191 24.7001 20.2115C24.7048 20.1962 24.7122 20.1735 24.7226 20.1451C24.7435 20.0881 24.776 20.0093 24.8223 19.9235C24.9164 19.7492 25.0597 19.5593 25.2643 19.4515L25.1287 19.1942C24.8519 19.34 24.6737 19.5866 24.5664 19.7854C24.5121 19.8861 24.474 19.978 24.4495 20.0451C24.4372 20.0787 24.4282 20.1063 24.4222 20.1259C24.4192 20.1357 24.4169 20.1436 24.4153 20.1492C24.4145 20.152 24.4139 20.1542 24.4134 20.1559C24.4132 20.1567 24.413 20.1574 24.4129 20.1579C24.4128 20.1582 24.4127 20.1584 24.4127 20.1586C24.4127 20.1587 24.4126 20.1588 24.4126 20.1588C24.4126 20.1589 24.4126 20.1589 24.4126 20.159C24.4126 20.159 24.4126 20.159 24.5533 20.1958ZM29.463 19.0463C27.7287 19.1225 25.9402 19.1979 24.4787 20.071L24.6278 20.3207C26.0149 19.4921 27.7242 19.4138 29.4757 19.3368L29.463 19.0463ZM29.4694 19.0462H29.4694V19.337H29.4694V19.0462ZM32.9409 18.6335C31.8666 18.94 30.677 18.9929 29.463 19.0463L29.4758 19.3368C30.6823 19.2838 31.9075 19.2307 33.0206 18.9132L32.9409 18.6335ZM37.2096 16.1399C35.9436 17.1436 34.6921 18.1339 32.9409 18.6335L33.0206 18.9132C34.8348 18.3956 36.128 17.3685 37.3902 16.3678L37.2096 16.1399ZM39.932 14.2622C38.9191 14.7841 38.06 15.4657 37.2096 16.1399L37.3902 16.3678C38.2439 15.691 39.0815 15.0276 40.0652 14.5207L39.932 14.2622ZM39.918 14.5147L39.9395 14.5243L40.0578 14.2586L40.0363 14.249L39.918 14.5147ZM21.1012 20.1675C20.0216 20.1675 19.129 20.9862 19.129 22.0169H19.4198C19.4198 21.1655 20.1629 20.4583 21.1012 20.4583V20.1675ZM23.0733 22.0169C23.0733 20.9862 22.1807 20.1675 21.1012 20.1675V20.4583C22.0394 20.4583 22.7825 21.1655 22.7825 22.0169H23.0733ZM21.1012 23.8664C22.1807 23.8664 23.0733 23.0478 23.0733 22.0169H22.7825C22.7825 22.8684 22.0394 23.5756 21.1012 23.5756V23.8664ZM19.129 22.0169C19.129 23.0478 20.0216 23.8664 21.1012 23.8664V23.5756C20.1629 23.5756 19.4198 22.8684 19.4198 22.0169H19.129ZM19.9259 17.2166C19.2542 17.4122 18.7241 17.7709 18.4167 18.2741C18.1078 18.7797 18.0355 19.4119 18.2442 20.1281L18.5235 20.0468C18.3335 19.3947 18.4059 18.8496 18.6649 18.4258C18.9252 17.9996 19.3858 17.6768 20.0073 17.4958L19.9259 17.2166ZM20.0102 17.2141L19.9795 17.2113L19.9537 17.501L19.9845 17.5038L20.0102 17.2141ZM20.0187 18.2746C19.9644 18.1676 19.9582 18.0282 19.9872 17.8683C20.0159 17.7102 20.0756 17.5503 20.1317 17.4145L19.863 17.3033C19.805 17.4434 19.7355 17.6267 19.7011 17.8164C19.667 18.0045 19.6637 18.2179 19.7594 18.4063L20.0187 18.2746ZM21.9613 18.5824C21.7222 18.6975 21.2989 18.7645 20.893 18.7216C20.4805 18.678 20.1478 18.5288 20.0187 18.2746L19.7594 18.4063C19.9582 18.7977 20.4239 18.9645 20.8624 19.0108C21.3075 19.0579 21.7879 18.9886 22.0874 18.8444L21.9613 18.5824ZM22.1403 17.4515C22.4598 17.8195 22.4017 18.3704 21.9613 18.5824L22.0874 18.8444C22.7399 18.5303 22.775 17.7389 22.3599 17.2609L22.1403 17.4515ZM23.9726 20.1281C24.1813 19.4119 24.109 18.7797 23.8001 18.2741C23.4927 17.7709 22.9625 17.4122 22.2908 17.2166L22.2095 17.4958C22.831 17.6768 23.2916 17.9996 23.5519 18.4258C23.8109 18.8496 23.8834 19.3947 23.6934 20.0468L23.9726 20.1281ZM23.6337 21.0924C23.7516 20.7807 23.8851 20.428 23.9726 20.1282L23.6934 20.0468C23.6098 20.3335 23.4807 20.6748 23.3617 20.9895L23.6337 21.0924ZM23.5405 21.3403C23.5697 21.2616 23.6011 21.1785 23.6337 21.0924L23.3617 20.9895C23.3292 21.0755 23.2974 21.1594 23.2679 21.239L23.5405 21.3403ZM23.3943 21.4351H23.4042V21.1442H23.3943V21.4351ZM20.9813 19.8664C21.7608 19.8443 22.3286 20.2103 22.7068 20.5902C22.8959 20.7803 23.0358 20.9721 23.1282 21.1164C23.1744 21.1884 23.2085 21.2482 23.2308 21.2895C23.2419 21.3101 23.2501 21.3261 23.2554 21.3366C23.258 21.3419 23.26 21.3458 23.2611 21.3482C23.2617 21.3495 23.2621 21.3503 23.2624 21.3508C23.2625 21.351 23.2625 21.3512 23.2626 21.3512C23.2626 21.3512 23.2626 21.3512 23.2626 21.3512C23.2625 21.3512 23.2625 21.3512 23.2625 21.3512C23.2625 21.3511 23.2625 21.3511 23.3943 21.2897C23.5261 21.2282 23.5261 21.2282 23.526 21.2281C23.526 21.2281 23.526 21.228 23.526 21.228C23.5259 21.2278 23.5258 21.2277 23.5258 21.2275C23.5256 21.2272 23.5254 21.2267 23.5251 21.2262C23.5246 21.2251 23.5239 21.2236 23.523 21.2218C23.5213 21.2181 23.5187 21.213 23.5155 21.2064C23.5089 21.1933 23.4993 21.1746 23.4866 21.1512C23.4613 21.1043 23.4235 21.0382 23.3731 20.9595C23.2724 20.8023 23.12 20.5931 22.9129 20.3851C22.4986 19.9689 21.8578 19.5506 20.9731 19.5757L20.9813 19.8664ZM18.8185 21.2897C18.9568 21.3346 18.9568 21.3347 18.9568 21.3347C18.9568 21.3347 18.9568 21.3348 18.9568 21.3348C18.9567 21.3348 18.9567 21.3349 18.9567 21.3349C18.9567 21.3349 18.9568 21.3348 18.9568 21.3346C18.957 21.3342 18.9572 21.3335 18.9576 21.3324C18.9583 21.3303 18.9595 21.3267 18.9613 21.3219C18.9647 21.3123 18.9702 21.2976 18.9779 21.2785C18.9933 21.2401 19.0175 21.1843 19.0516 21.1167C19.12 20.9813 19.2276 20.8 19.3841 20.6178C19.6954 20.2551 20.199 19.8886 20.9813 19.8664L20.9731 19.5757C20.091 19.6007 19.5153 20.0185 19.1634 20.4283C18.9883 20.6323 18.8683 20.8344 18.7919 20.9857C18.7537 21.0615 18.7262 21.1249 18.7081 21.1699C18.699 21.1925 18.6923 21.2105 18.6877 21.2232C18.6854 21.2295 18.6837 21.2346 18.6824 21.2382C18.6818 21.24 18.6813 21.2415 18.6809 21.2425C18.6808 21.2431 18.6806 21.2435 18.6805 21.2439C18.6804 21.2441 18.6804 21.2443 18.6803 21.2444C18.6803 21.2445 18.6803 21.2445 18.6803 21.2446C18.6802 21.2446 18.6802 21.2447 18.8185 21.2897ZM18.8126 21.4351H18.8185V21.1442H18.8126V21.4351ZM18.582 21.0897C18.615 21.1768 18.6467 21.2608 18.6762 21.3403L18.9489 21.239C18.919 21.1586 18.8869 21.0738 18.854 20.9868L18.582 21.0897ZM18.2442 20.1281C18.3314 20.4272 18.4644 20.7788 18.582 21.0897L18.854 20.9868C18.7353 20.6729 18.6068 20.3327 18.5235 20.0468L18.2442 20.1281ZM21.1011 25.2958C21.6975 25.2966 22.1514 25.1594 22.4948 24.945C22.8379 24.7309 23.062 24.4452 23.2076 24.1622C23.3528 23.8802 23.4207 23.5998 23.4526 23.3911C23.4686 23.2865 23.4757 23.1989 23.4788 23.1369C23.4803 23.1058 23.4809 23.0811 23.481 23.0638C23.4811 23.0551 23.4811 23.0482 23.481 23.0434C23.481 23.0409 23.481 23.039 23.4809 23.0375C23.4809 23.0368 23.4809 23.0362 23.4809 23.0358C23.4809 23.0355 23.4809 23.0353 23.4809 23.0352C23.4809 23.0351 23.4809 23.035 23.4809 23.0349C23.4809 23.0348 23.4809 23.0348 23.3355 23.0388C23.1901 23.0429 23.1901 23.0428 23.1901 23.0427C23.1901 23.0427 23.1901 23.0427 23.1901 23.0427C23.1901 23.0426 23.1901 23.0426 23.1901 23.0426C23.1901 23.0427 23.1901 23.0429 23.1902 23.0431C23.1902 23.0437 23.1902 23.0448 23.1902 23.0464C23.1902 23.0495 23.1903 23.0545 23.1902 23.0614C23.1901 23.075 23.1897 23.0957 23.1883 23.1225C23.1857 23.1761 23.1794 23.2537 23.1651 23.3472C23.1364 23.5349 23.0758 23.7829 22.949 24.0291C22.8227 24.2745 22.6316 24.5168 22.3408 24.6983C22.0503 24.8796 21.6517 25.0057 21.1015 25.005L21.1011 25.2958ZM18.8186 22.8863C18.6732 22.8856 18.6732 22.8857 18.6732 22.8858C18.6732 22.8858 18.6732 22.8859 18.6732 22.886C18.6732 22.8862 18.6732 22.8864 18.6732 22.8866C18.6732 22.8871 18.6732 22.8877 18.6732 22.8884C18.6732 22.8899 18.6733 22.892 18.6733 22.8945C18.6733 22.8996 18.6735 22.9068 18.6737 22.9159C18.6743 22.9343 18.6754 22.9604 18.6776 22.9933C18.682 23.0591 18.6911 23.1521 18.7093 23.2633C18.7458 23.485 18.8196 23.7829 18.9701 24.0826C19.1209 24.3829 19.3499 24.6875 19.697 24.9168C20.045 25.1467 20.5028 25.2951 21.1011 25.2958L21.1015 25.005C20.5532 25.0044 20.1524 24.8691 19.8573 24.6742C19.5615 24.4787 19.3632 24.2175 19.23 23.9521C19.0964 23.6861 19.0296 23.4185 18.9963 23.2161C18.9798 23.1153 18.9717 23.0316 18.9678 22.9737C18.9658 22.9447 18.9649 22.9223 18.9644 22.9075C18.9642 22.9001 18.9641 22.8946 18.9641 22.8911C18.9641 22.8894 18.9641 22.8882 18.9641 22.8875C18.9641 22.8871 18.9641 22.8869 18.9641 22.8868C18.9641 22.8868 18.9641 22.8868 18.9641 22.8868C18.9641 22.8868 18.9641 22.8869 18.9641 22.8869C18.9641 22.8869 18.9641 22.887 18.8186 22.8863ZM17.6089 24.2767C17.671 23.7148 17.9755 23.4075 18.2665 23.2361C18.4137 23.1494 18.5578 23.0976 18.6653 23.0676C18.7189 23.0527 18.7628 23.0433 18.7927 23.0377C18.8076 23.0349 18.819 23.0331 18.8263 23.032C18.83 23.0315 18.8326 23.0311 18.8341 23.0309C18.8349 23.0308 18.8354 23.0308 18.8356 23.0307C18.8357 23.0307 18.8357 23.0307 18.8357 23.0307C18.8356 23.0307 18.8356 23.0307 18.8355 23.0307C18.8355 23.0308 18.8355 23.0308 18.8354 23.0308C18.8354 23.0308 18.8353 23.0308 18.8186 22.8863C18.802 22.7419 18.8019 22.7419 18.8018 22.7419C18.8018 22.7419 18.8017 22.7419 18.8016 22.7419C18.8015 22.7419 18.8014 22.7419 18.8012 22.742C18.8009 22.742 18.8004 22.742 18.8 22.7421C18.799 22.7422 18.7977 22.7424 18.7962 22.7426C18.7931 22.743 18.7889 22.7436 18.7836 22.7444C18.773 22.7459 18.758 22.7483 18.7394 22.7518C18.7022 22.7587 18.6499 22.77 18.5871 22.7875C18.462 22.8224 18.2932 22.8829 18.1189 22.9855C17.7669 23.1929 17.3941 23.5728 17.3198 24.2448L17.6089 24.2767ZM19.1951 27.2413C18.2468 26.6572 17.48 25.4419 17.6089 24.2767L17.3198 24.2448C17.1757 25.5473 18.0225 26.8607 19.0426 27.4889L19.1951 27.2413ZM20.4402 27.2085C20.258 27.309 20.0908 27.3995 19.8973 27.4265C19.7113 27.4525 19.4867 27.4208 19.1951 27.2413L19.0426 27.4889C19.3833 27.6987 19.6753 27.7511 19.9375 27.7145C20.1922 27.6789 20.4047 27.5602 20.5806 27.4632L20.4402 27.2085ZM21.1115 26.9926C20.8556 26.9747 20.6304 27.1037 20.4402 27.2085L20.5806 27.4632C20.7894 27.3481 20.9365 27.2719 21.0911 27.2827L21.1115 26.9926ZM21.7166 27.246C21.5517 27.1393 21.3568 27.0098 21.1115 26.9926L21.0912 27.2827C21.2496 27.2938 21.3825 27.3762 21.5587 27.4902L21.7166 27.246ZM22.8642 27.3458C22.5671 27.491 22.3555 27.5063 22.1893 27.473C22.0171 27.4385 21.8765 27.3493 21.7166 27.246L21.5587 27.4902C21.7128 27.5899 21.8977 27.7111 22.1322 27.7582C22.3728 27.8064 22.6494 27.7744 22.9918 27.6071L22.8642 27.3458ZM24.4098 24.4117C24.505 25.0086 24.3557 25.6271 24.0599 26.1575C23.7636 26.6886 23.3269 27.1197 22.8642 27.3458L22.9919 27.6071C23.5161 27.351 23.9934 26.8736 24.3139 26.2992C24.6346 25.7241 24.8046 25.0399 24.697 24.3659L24.4098 24.4117ZM23.3355 23.0388C23.3242 23.1838 23.3241 23.1838 23.324 23.1838C23.324 23.1838 23.3239 23.1838 23.3239 23.1838C23.3238 23.1838 23.3237 23.1838 23.3237 23.1838C23.3236 23.1837 23.3235 23.1837 23.3235 23.1837C23.3235 23.1837 23.3238 23.1838 23.3243 23.1838C23.3252 23.1839 23.3271 23.1841 23.3298 23.1844C23.3352 23.1851 23.3441 23.1862 23.3559 23.1882C23.3795 23.1921 23.4148 23.1991 23.4584 23.2112C23.5459 23.2354 23.6652 23.2798 23.7901 23.3597C24.0355 23.5168 24.3152 23.8187 24.4098 24.4117L24.697 24.3659C24.5889 23.6881 24.2597 23.315 23.9468 23.1148C23.7926 23.0161 23.6454 22.9612 23.5362 22.9309C23.4814 22.9157 23.4359 22.9066 23.4032 22.9012C23.3868 22.8985 23.3737 22.8967 23.3641 22.8956C23.3594 22.895 23.3555 22.8946 23.3526 22.8944C23.3511 22.8942 23.3499 22.8941 23.349 22.894C23.3485 22.894 23.3481 22.8939 23.3477 22.8939C23.3475 22.8939 23.3474 22.8939 23.3472 22.8939C23.3471 22.8939 23.347 22.8939 23.347 22.8939C23.3469 22.8938 23.3468 22.8938 23.3355 23.0388ZM24.1987 21.2667C24.0254 21.9637 24.2569 22.6237 24.6487 23.2332C25.0396 23.8412 25.6046 24.4209 26.1314 24.9622L26.3398 24.7593C25.8079 24.2128 25.2654 23.6546 24.8934 23.0759C24.5223 22.4987 24.3352 21.9231 24.4809 21.3368L24.1987 21.2667ZM24.3148 21.1549L24.285 21.167L24.3946 21.4364L24.4244 21.4243L24.3148 21.1549ZM34.3033 29.6498C32.879 27.5066 31.4685 25.3832 29.8851 23.7974C28.2994 22.2093 26.5246 21.1442 24.3696 21.1442V21.435C26.4176 21.435 28.1227 22.4439 29.6793 24.0029C31.2382 25.5642 32.6324 27.6611 34.0611 29.8107L34.3033 29.6498ZM41.0414 37.5421C38.394 35.8008 36.3349 32.7067 34.3033 29.6498L34.0611 29.8107C36.083 32.853 38.1746 36.0046 40.8816 37.7851L41.0414 37.5421ZM30.6748 35.0126C33.2658 37.0019 36.942 38.0112 40.9688 37.8089L40.9542 37.5184C36.9806 37.7181 33.3768 36.7205 30.8519 34.7819L30.6748 35.0126ZM24.3622 27.3904C26.0767 30.7798 28.1224 33.053 30.6748 35.0126L30.8519 34.7819C28.3312 32.8466 26.3149 30.6064 24.6217 27.2591L24.3622 27.3904ZM24.4115 27.4459L24.4118 27.4461L24.5721 27.2034L24.5718 27.2032L24.4115 27.4459ZM26.0907 25.5976C25.9844 25.4972 25.8693 25.4339 25.7467 25.4131C25.6236 25.3921 25.5064 25.4163 25.4006 25.4677C25.196 25.5669 25.0219 25.7728 24.8816 25.9934C24.5981 26.4388 24.3979 27.0327 24.3487 27.298L24.6346 27.3511C24.6776 27.1198 24.8649 26.5614 25.127 26.1495C25.2594 25.9414 25.3976 25.7924 25.5276 25.7293C25.5891 25.6995 25.6448 25.6907 25.698 25.6998C25.7517 25.7089 25.8165 25.7386 25.8911 25.8091L26.0907 25.5976ZM35.1084 34.9658C35.2123 34.8641 35.2123 34.8641 35.2122 34.864C35.2122 34.864 35.2121 34.8639 35.2119 34.8638C35.2117 34.8635 35.2113 34.8631 35.2108 34.8626C35.2098 34.8615 35.2083 34.86 35.2062 34.8579C35.2022 34.8538 35.1962 34.8476 35.1882 34.8395C35.1723 34.8233 35.1487 34.7991 35.1179 34.7676C35.0562 34.7046 34.9657 34.6121 34.8503 34.4942C34.6193 34.2582 34.2886 33.9204 33.8895 33.5129C33.0913 32.698 32.0195 31.6042 30.9251 30.489C28.7381 28.2607 26.4556 25.9418 26.0907 25.5976L25.8911 25.8091C26.2506 26.1483 28.5268 28.4607 30.7175 30.6927C31.8119 31.8078 32.8836 32.9015 33.6818 33.7164C34.0808 34.1239 34.4115 34.4617 34.6424 34.6976C34.7579 34.8155 34.8484 34.908 34.91 34.971C34.9408 35.0025 34.9644 35.0267 34.9803 35.0429C34.9883 35.051 34.9943 35.0572 34.9984 35.0613C35.0004 35.0634 35.0019 35.0649 35.0029 35.066C35.0034 35.0665 35.0038 35.0669 35.0041 35.0671C35.0042 35.0673 35.0043 35.0674 35.0043 35.0674C35.0044 35.0675 35.0044 35.0675 35.1084 34.9658ZM26.8359 25.7066C27.4071 26.3484 29.4474 28.6865 31.3457 30.8653C32.2947 31.9544 33.2079 33.0034 33.8839 33.7801C34.2219 34.1685 34.5006 34.4888 34.6948 34.712C34.7919 34.8236 34.8679 34.9109 34.9196 34.9703C34.9454 35 34.9652 35.0228 34.9785 35.0381C34.9852 35.0457 34.9902 35.0515 34.9936 35.0554C34.9953 35.0574 34.9965 35.0588 34.9974 35.0598C34.9978 35.0603 34.9981 35.0607 34.9983 35.0609C34.9985 35.061 34.9985 35.0611 34.9986 35.0612C34.9986 35.0612 34.9987 35.0613 35.1084 34.9658C35.2181 34.8704 35.2181 34.8704 35.218 34.8703C35.218 34.8703 35.2179 34.8702 35.2178 34.87C35.2176 34.8698 35.2172 34.8694 35.2168 34.8689C35.216 34.868 35.2147 34.8665 35.213 34.8645C35.2096 34.8607 35.2046 34.8549 35.1979 34.8472C35.1846 34.8319 35.1648 34.8092 35.139 34.7794C35.0873 34.72 35.0113 34.6327 34.9142 34.5211C34.72 34.2979 34.4413 33.9776 34.1033 33.5892C33.4273 32.8125 32.514 31.7634 31.565 30.6742C29.6673 28.4963 27.6256 26.1565 27.0531 25.5133L26.8359 25.7066ZM26.1314 24.9622C26.3803 25.2179 26.621 25.4653 26.8359 25.7066L27.0531 25.5133C26.8332 25.2662 26.5877 25.0141 26.3398 24.7593L26.1314 24.9622ZM40.9926 37.5164L40.954 37.5184L40.9689 37.8089L41.0075 37.8069L40.9926 37.5164ZM41.1455 37.6889V37.6617H40.8547V37.6889H41.1455ZM40.8818 37.7853L40.9204 37.8106L41.0797 37.5672L41.0411 37.542L40.8818 37.7853ZM17.5193 21.123C17.665 21.7093 17.4779 22.2848 17.1069 22.862C16.7349 23.4406 16.1925 23.9988 15.6607 24.5453L15.8691 24.7481C16.3959 24.2068 16.9607 23.6272 17.3515 23.0193C17.7433 22.4098 17.9747 21.7498 17.8015 21.0529L17.5193 21.123ZM17.5759 21.2106L17.6058 21.2227L17.715 20.9532L17.6851 20.941L17.5759 21.2106ZM7.93915 29.5968C9.36779 27.4472 10.762 25.3503 12.3209 23.789C13.8775 22.2301 15.5825 21.2212 17.6305 21.2212V20.9304C15.4755 20.9304 13.7008 21.9954 12.1151 23.5835C10.5317 25.1693 9.12123 27.2927 7.69693 29.4359L7.93915 29.5968ZM1.11853 37.5713C3.82554 35.7908 5.91723 32.6392 7.93915 29.5968L7.69693 29.4359C5.6653 32.4928 3.60615 35.587 0.958705 37.3283L1.11853 37.5713ZM0.992569 37.5931L1.03119 37.5951L1.04605 37.3046L1.00743 37.3026L0.992569 37.5931ZM1.14542 37.4751V37.4479H0.854584V37.4751H1.14542ZM0.95897 37.3282L0.920353 37.3534L1.07965 37.5968L1.11826 37.5715L0.95897 37.3282ZM11.1482 34.5682C8.62324 36.5067 5.01947 37.5043 1.04592 37.3046L1.03132 37.5951C5.05813 37.7974 8.73426 36.7881 11.3253 34.7989L11.1482 34.5682ZM17.3785 27.0453C15.6853 30.3926 13.669 32.6328 11.1481 34.5682L11.3253 34.7989C13.8777 32.8392 15.9235 30.566 17.638 27.1766L17.3785 27.0453ZM17.4419 26.9815L17.4417 26.9816L17.5748 27.2403L17.575 27.2402L17.4419 26.9815ZM16.1089 25.5953C16.1836 25.5248 16.2484 25.4951 16.3021 25.486C16.3553 25.4769 16.4111 25.4857 16.4726 25.5155C16.6026 25.5786 16.7408 25.7276 16.8732 25.9357C17.1353 26.3476 17.3226 26.9061 17.3655 27.1374L17.6514 27.0843C17.6022 26.819 17.402 26.2251 17.1186 25.7796C16.9782 25.5591 16.8041 25.3531 16.5995 25.2539C16.4937 25.2025 16.3766 25.1783 16.2534 25.1993C16.1308 25.2201 16.0157 25.2834 15.9094 25.3838L16.1089 25.5953ZM6.8917 34.7521C6.99564 34.8538 6.99567 34.8538 6.99574 34.8537C6.9958 34.8537 6.9959 34.8536 6.99602 34.8534C6.99628 34.8532 6.99666 34.8528 6.99717 34.8523C6.99819 34.8512 6.99971 34.8497 7.00172 34.8476C7.00576 34.8435 7.01179 34.8373 7.01974 34.8292C7.03564 34.813 7.05924 34.7888 7.09007 34.7573C7.15171 34.6943 7.24222 34.6018 7.35768 34.4839C7.58858 34.248 7.91926 33.9102 8.31834 33.5027C9.1165 32.6878 10.1882 31.5941 11.2826 30.479C13.4733 28.2469 15.7495 25.9346 16.109 25.5953L15.9093 25.3838C15.5445 25.7281 13.262 28.047 11.075 30.2753C9.98058 31.3905 8.90876 32.4842 8.11056 33.2992C7.71146 33.7067 7.38076 34.0445 7.14984 34.2805C7.03437 34.3984 6.94385 34.4909 6.8822 34.5539C6.85137 34.5854 6.82776 34.6096 6.81186 34.6258C6.80391 34.6339 6.79788 34.6401 6.79384 34.6442C6.79182 34.6463 6.7903 34.6478 6.78928 34.6489C6.78877 34.6494 6.78839 34.6498 6.78814 34.6501C6.78801 34.6502 6.78791 34.6503 6.78785 34.6503C6.78778 34.6504 6.78775 34.6504 6.8917 34.7521ZM14.9471 25.2996C14.3745 25.9427 12.3328 28.2825 10.4351 30.4605C9.48611 31.5497 8.57282 32.5988 7.89679 33.3755C7.55877 33.7639 7.28007 34.0842 7.08587 34.3074C6.98878 34.419 6.9128 34.5063 6.8611 34.5657C6.83525 34.5955 6.81547 34.6182 6.80215 34.6335C6.7955 34.6412 6.79045 34.647 6.78707 34.6508C6.78538 34.6528 6.78411 34.6543 6.78326 34.6552C6.78283 34.6557 6.78251 34.6561 6.7823 34.6563C6.78219 34.6565 6.78211 34.6566 6.78206 34.6566C6.782 34.6567 6.78198 34.6567 6.8917 34.7521C7.00142 34.8476 7.00144 34.8475 7.0015 34.8475C7.00155 34.8474 7.00163 34.8473 7.00174 34.8472C7.00195 34.847 7.00227 34.8466 7.00269 34.8461C7.00354 34.8451 7.00482 34.8437 7.00651 34.8417C7.00989 34.8378 7.01493 34.832 7.02159 34.8244C7.0349 34.8091 7.05468 34.7863 7.08053 34.7566C7.13222 34.6972 7.20819 34.6099 7.30529 34.4983C7.49948 34.2751 7.77817 33.9548 8.11617 33.5664C8.79218 32.7897 9.70543 31.7407 10.6544 30.6515C12.5528 28.4728 14.5931 26.1346 15.1643 25.4929L14.9471 25.2996ZM15.6607 24.5453C15.4126 24.8001 15.1671 25.0524 14.9471 25.2996L15.1643 25.4929C15.3792 25.2515 15.6201 25.004 15.8691 24.7481L15.6607 24.5453ZM19.2354 29.6524L19.2354 29.6523L18.945 29.6684L18.945 29.6685L19.2354 29.6524ZM21.3068 38.935C19.737 35.7956 19.5368 33.3523 19.2352 29.6486L18.9453 29.6722C19.2468 33.3744 19.4489 35.8698 21.0467 39.0651L21.3068 38.935ZM23.2491 28.2233C23.0477 32.7548 22.8115 35.4058 21.0467 38.935L21.3068 39.0651C23.1006 35.4779 23.338 32.7743 23.5396 28.2362L23.2491 28.2233ZM21.7493 29.6996C21.7948 29.0929 22.1891 28.7644 22.597 28.5817C22.8011 28.4903 23.0038 28.4383 23.1563 28.4092C23.2322 28.3947 23.295 28.3861 23.3383 28.3811C23.3599 28.3786 23.3767 28.377 23.3877 28.376C23.3932 28.3756 23.3973 28.3753 23.3999 28.3751C23.4011 28.375 23.402 28.3749 23.4025 28.3749C23.4028 28.3749 23.4029 28.3749 23.403 28.3749C23.403 28.3749 23.403 28.3749 23.403 28.3749C23.403 28.3749 23.4029 28.3749 23.4029 28.3749C23.4029 28.3749 23.4028 28.3749 23.3944 28.2297C23.3859 28.0845 23.3858 28.0846 23.3858 28.0846C23.3857 28.0846 23.3857 28.0846 23.3856 28.0846C23.3855 28.0846 23.3853 28.0846 23.3851 28.0846C23.3848 28.0846 23.3843 28.0846 23.3837 28.0847C23.3826 28.0848 23.3811 28.0849 23.3792 28.085C23.3753 28.0853 23.3699 28.0857 23.3631 28.0863C23.3493 28.0874 23.3297 28.0893 23.305 28.0921C23.2556 28.0978 23.1857 28.1075 23.1018 28.1235C22.9346 28.1554 22.7088 28.213 22.4781 28.3163C22.0165 28.523 21.5158 28.9241 21.4593 29.6779L21.7493 29.6996ZM21.1768 35.6779C21.3218 35.6881 21.3218 35.688 21.3218 35.688C21.3218 35.688 21.3218 35.6879 21.3218 35.6879C21.3218 35.6877 21.3219 35.6875 21.3219 35.6872C21.3219 35.6867 21.322 35.6858 21.3221 35.6847C21.3222 35.6825 21.3225 35.6791 21.3228 35.6748C21.3234 35.666 21.3243 35.6529 21.3255 35.6358C21.3279 35.6015 21.3315 35.5511 21.336 35.4865C21.3451 35.3573 21.3582 35.1712 21.3743 34.9436C21.4064 34.4884 21.4502 33.8674 21.4973 33.2038C21.5914 31.8764 21.6983 30.3795 21.7493 29.6996L21.4593 29.6779C21.4082 30.3585 21.3013 31.8561 21.2072 33.1832C21.1601 33.8468 21.1163 34.4679 21.0842 34.9232C21.0681 35.1508 21.055 35.3369 21.0459 35.4661C21.0413 35.5307 21.0378 35.5811 21.0354 35.6153C21.0342 35.6325 21.0333 35.6455 21.0326 35.6543C21.0323 35.6587 21.0321 35.6621 21.0319 35.6643C21.0319 35.6654 21.0318 35.6663 21.0318 35.6668C21.0317 35.6671 21.0317 35.6673 21.0317 35.6675C21.0317 35.6675 21.0317 35.6676 21.0317 35.6676C21.0317 35.6677 21.0317 35.6677 21.1768 35.6779ZM20.712 29.726C20.7803 30.3616 20.8601 31.8484 20.9231 33.1817C20.9545 33.8472 20.9816 34.4727 21.0008 34.9318C21.0104 35.1614 21.0181 35.3493 21.0234 35.4799C21.026 35.5452 21.028 35.5961 21.0294 35.6307C21.0301 35.648 21.0306 35.6612 21.0309 35.6701C21.0311 35.6745 21.0312 35.6779 21.0313 35.6801C21.0314 35.6813 21.0314 35.6821 21.0314 35.6827C21.0314 35.683 21.0314 35.6832 21.0315 35.6833C21.0315 35.6834 21.0315 35.6834 21.0315 35.6835C21.0315 35.6835 21.0315 35.6835 21.1768 35.6779C21.3221 35.6722 21.3221 35.6722 21.3221 35.6722C21.3221 35.6721 21.3221 35.6721 21.3221 35.672C21.3221 35.6718 21.3221 35.6716 21.322 35.6713C21.322 35.6708 21.322 35.6699 21.3219 35.6688C21.3219 35.6665 21.3217 35.6631 21.3215 35.6587C21.3212 35.6498 21.3207 35.6365 21.32 35.6192C21.3186 35.5845 21.3166 35.5335 21.314 35.4682C21.3087 35.3375 21.301 35.1494 21.2914 34.9196C21.2721 34.4602 21.245 33.8342 21.2136 33.168C21.1508 31.8381 21.0706 30.3412 21.0012 29.6949L20.712 29.726ZM18.9887 28.2297C18.9721 28.3742 18.972 28.3742 18.972 28.3742C18.972 28.3742 18.972 28.3742 18.972 28.3742C18.9719 28.3742 18.972 28.3742 18.972 28.3742C18.9721 28.3742 18.9722 28.3742 18.9725 28.3742C18.9731 28.3743 18.974 28.3744 18.9754 28.3746C18.9781 28.3749 18.9824 28.3755 18.9881 28.3763C18.9996 28.3779 19.0169 28.3805 19.0394 28.3842C19.0842 28.3917 19.1492 28.4039 19.2279 28.4224C19.3858 28.4595 19.5963 28.5216 19.8096 28.6211C20.2398 28.8219 20.6512 29.1592 20.712 29.726L21.0012 29.6949C20.9245 28.9798 20.4019 28.5767 19.9326 28.3576C19.6961 28.2472 19.4654 28.1795 19.2945 28.1393C19.2088 28.1191 19.1375 28.1057 19.0872 28.0973C19.0621 28.0931 19.0421 28.0902 19.0282 28.0882C19.0212 28.0873 19.0158 28.0866 19.0119 28.0861C19.01 28.0858 19.0085 28.0856 19.0074 28.0855C19.0068 28.0854 19.0064 28.0854 19.006 28.0853C19.0058 28.0853 19.0057 28.0853 19.0056 28.0853C19.0055 28.0853 19.0054 28.0853 19.0054 28.0853C19.0053 28.0853 19.0053 28.0853 18.9887 28.2297ZM18.9712 28.3751H18.9887V28.0843H18.9712V28.3751ZM19.2352 29.6485C19.1979 29.1917 19.1592 28.7157 19.1161 28.2172L18.8263 28.2422C18.8693 28.7399 18.9081 29.2152 18.9453 29.6721L19.2352 29.6485Z" fill="#1B532B"/>
</svg>
