<svg width="41" height="40" viewBox="0 0 41 40" fill="none" xmlns="http://www.w3.org/2000/svg">
<path d="M14.6101 35.6339C11.188 31.6485 16.7735 25.2692 20.2026 22.5508C32.7686 31.8513 25.8988 37.346 20.8931 38.9308C20.4328 39.1737 17.4409 38.9308 14.6101 35.6339Z" fill="#1B532B" stroke="white"/>
<path d="M21.2039 22.3078C21.2039 22.516 19.5124 35.0786 37.3947 31.2265C37.3372 25.6856 34.0185 16.1445 21.2039 22.3078Z" fill="#1B532B" stroke="white"/>
<path d="M19.6764 22.3078C19.6764 22.516 21.368 35.0786 3.48564 31.2265C3.54317 25.6856 6.86188 16.1445 19.6764 22.3078Z" fill="#1B532B" stroke="white"/>
<path d="M21.4113 20.885C21.4093 20.8839 21.4074 20.8826 21.4054 20.8813C20.8923 20.5606 20.1218 20.7384 19.777 20.8757C19.7696 20.8793 19.762 20.8823 19.7542 20.885C19.7616 20.882 19.7692 20.8789 19.777 20.8757C20.1235 20.7123 20.1179 19.6305 17.4413 16.4777C14.0236 12.4521 13.5403 9.43291 14.4033 6.58724C15.0938 4.3107 18.7876 1.91385 20.5482 1C22.2283 1.89072 25.8439 4.25517 26.8657 6.58724C28.1431 9.50232 26.486 12.4521 23.6207 16.4777C21.3491 19.6691 21.1953 20.7385 21.4054 20.8813C21.4074 20.8826 21.4093 20.8838 21.4113 20.885Z" fill="#1B532B" stroke="white"/>
<path d="M22.8611 12.1677C21.9773 13.3337 22.4928 16.2627 22.8611 17.5814C21.425 19.8024 21.3131 21.4198 21.4233 22.2238C20.6783 22.0579 20.6783 22.0579 19.7886 22.2238C20.0436 20.7817 18.9946 18.4143 18.3387 17.5814C18.3847 16.413 18.4077 13.6946 18.1316 12.1677C17.7863 10.259 11.7795 9.00965 5.28941 12.1677C-1.20072 15.3257 1.14677 18.8654 2.87287 22.1969C4.59897 25.5284 9.25943 28.1659 9.8463 28.4435C10.4332 28.7212 13.2985 29.6928 14.6103 26.0837C15.6598 23.1964 18.6996 22.7869 18.8583 22.7869C18.2714 23.2033 18.3387 24.2444 18.4768 24.5915C18.5873 24.8691 19.8807 25.9796 20.5136 26.5001C20.9739 26.13 22.0325 25.23 22.5849 24.5915C23.1372 23.9529 22.5619 23.1223 22.2052 22.7869H22.8611C24.4871 22.696 26.2097 24.9038 26.4168 26.0837C26.624 27.2636 27.2108 28.2353 29.3857 28.8253C31.5606 29.4152 35.8758 25.3549 37.9817 22.1969C40.0875 19.0389 42.7457 16.3668 35.8758 12.1677C29.006 7.96856 23.9658 10.7101 22.8611 12.1677Z" fill="#1B532B" stroke="white"/>
</svg>
