<svg width="189" height="40" viewBox="0 0 189 40" fill="none" xmlns="http://www.w3.org/2000/svg">
<path d="M14.6101 35.6339C11.188 31.6485 16.7735 25.2692 20.2026 22.5508C32.7686 31.8513 25.8988 37.346 20.8931 38.9308C20.4328 39.1737 17.4409 38.9308 14.6101 35.6339Z" fill="#1B532B" stroke="white"/>
<path d="M21.2039 22.3078C21.2039 22.516 19.5124 35.0786 37.3947 31.2265C37.3372 25.6856 34.0185 16.1445 21.2039 22.3078Z" fill="#1B532B" stroke="white"/>
<path d="M19.6764 22.3078C19.6764 22.516 21.368 35.0786 3.48564 31.2265C3.54317 25.6856 6.86188 16.1445 19.6764 22.3078Z" fill="#1B532B" stroke="white"/>
<path d="M21.4113 20.885C21.4093 20.8839 21.4074 20.8826 21.4054 20.8813C20.8923 20.5606 20.1218 20.7384 19.777 20.8757C19.7696 20.8793 19.762 20.8823 19.7542 20.885C19.7616 20.882 19.7692 20.8789 19.777 20.8757C20.1235 20.7123 20.1179 19.6305 17.4413 16.4777C14.0236 12.4521 13.5403 9.43291 14.4033 6.58724C15.0938 4.3107 18.7876 1.91385 20.5482 1C22.2283 1.89072 25.8439 4.25517 26.8657 6.58724C28.1431 9.50232 26.486 12.4521 23.6207 16.4777C21.3491 19.6691 21.1953 20.7385 21.4054 20.8813C21.4074 20.8826 21.4093 20.8838 21.4113 20.885Z" fill="#1B532B" stroke="white"/>
<path d="M22.8611 12.1677C21.9773 13.3337 22.4928 16.2627 22.8611 17.5814C21.425 19.8024 21.3131 21.4198 21.4233 22.2238C20.6783 22.0579 20.6783 22.0579 19.7886 22.2238C20.0436 20.7817 18.9946 18.4143 18.3387 17.5814C18.3847 16.413 18.4077 13.6946 18.1316 12.1677C17.7863 10.259 11.7795 9.00965 5.28941 12.1677C-1.20072 15.3257 1.14677 18.8654 2.87287 22.1969C4.59897 25.5284 9.25943 28.1659 9.8463 28.4435C10.4332 28.7212 13.2985 29.6928 14.6103 26.0837C15.6598 23.1964 18.6996 22.7869 18.8583 22.7869C18.2714 23.2033 18.3387 24.2444 18.4768 24.5915C18.5873 24.8691 19.8807 25.9796 20.5136 26.5001C20.9739 26.13 22.0325 25.23 22.5849 24.5915C23.1372 23.9529 22.5619 23.1223 22.2052 22.7869H22.8611C24.4871 22.696 26.2097 24.9038 26.4168 26.0837C26.624 27.2636 27.2108 28.2353 29.3857 28.8253C31.5606 29.4152 35.8758 25.3549 37.9817 22.1969C40.0875 19.0389 42.7457 16.3668 35.8758 12.1677C29.006 7.96856 23.9658 10.7101 22.8611 12.1677Z" fill="#1B532B" stroke="white"/>
<path d="M183.157 34.595C182.395 34.595 181.731 34.4918 181.164 34.2854C180.596 34.079 180.156 33.7776 179.843 33.3811C179.535 32.9793 179.381 32.4878 179.381 31.9067V31.8985C179.381 31.4043 179.505 30.9725 179.754 30.6032C180.002 30.2339 180.394 29.9434 180.929 29.7316C181.469 29.5198 182.166 29.403 183.019 29.3813L187.93 29.2835V30.5788L183.319 30.6928C182.687 30.7091 182.228 30.815 181.942 31.0106C181.661 31.2061 181.52 31.4695 181.52 31.8008V31.817C181.52 32.2407 181.717 32.5584 182.112 32.7702C182.512 32.9765 183.038 33.0797 183.692 33.0797C184.324 33.0797 184.875 32.9928 185.345 32.819C185.821 32.6398 186.188 32.39 186.447 32.0696C186.712 31.7437 186.844 31.3636 186.844 30.9291V29.0391C186.844 28.4689 186.626 28.0263 186.188 27.7113C185.756 27.3963 185.137 27.2388 184.332 27.2388C183.63 27.2388 183.065 27.3555 182.639 27.5891C182.217 27.8226 181.952 28.1376 181.844 28.5341L181.82 28.6074H179.77L179.786 28.5096C179.872 27.9557 180.107 27.4642 180.491 27.0351C180.88 26.6006 181.399 26.2612 182.047 26.0168C182.701 25.767 183.473 25.6421 184.365 25.6421C185.337 25.6421 186.169 25.7751 186.861 26.0413C187.552 26.3074 188.082 26.6875 188.449 27.1818C188.816 27.676 189 28.2679 189 28.9577V34.4402H186.844V32.9494H186.804C186.604 33.2861 186.323 33.5794 185.961 33.8292C185.599 34.0736 185.18 34.2637 184.705 34.3994C184.23 34.5298 183.714 34.595 183.157 34.595Z" fill="#1B532B"/>
<path d="M173.496 34.6357C172.427 34.6357 171.497 34.451 170.709 34.0817C169.925 33.7124 169.318 33.1911 168.885 32.5176C168.459 31.8442 168.245 31.0513 168.245 30.1389V30.1307C168.245 29.2183 168.461 28.4282 168.893 27.7601C169.326 27.0867 169.933 26.5653 170.717 26.196C171.5 25.8267 172.424 25.6421 173.488 25.6421C174.418 25.6421 175.236 25.7833 175.944 26.0657C176.651 26.3481 177.221 26.7391 177.654 27.2388C178.086 27.7384 178.353 28.3195 178.456 28.9821L178.464 29.0554H176.365L176.341 28.9903C176.179 28.4743 175.857 28.0643 175.376 27.7601C174.896 27.4506 174.282 27.2958 173.537 27.2958C172.899 27.2958 172.348 27.4099 171.884 27.638C171.425 27.8661 171.068 28.1946 170.814 28.6237C170.566 29.0473 170.441 29.5496 170.441 30.1307V30.147C170.441 30.739 170.566 31.2468 170.814 31.6704C171.068 32.094 171.425 32.4199 171.884 32.648C172.348 32.8706 172.902 32.982 173.545 32.982C174.28 32.982 174.888 32.8326 175.368 32.5339C175.855 32.2352 176.181 31.8198 176.349 31.2875L176.365 31.2224H178.472L178.456 31.2957C178.348 31.9637 178.075 32.5502 177.637 33.0553C177.2 33.5549 176.627 33.9432 175.919 34.2202C175.217 34.4972 174.409 34.6357 173.496 34.6357Z" fill="#1B532B"/>
<path d="M164.689 34.4408V25.8382H166.852V34.4408H164.689ZM165.774 24.6081C165.423 24.6081 165.132 24.4995 164.899 24.2823C164.667 24.065 164.551 23.7962 164.551 23.4758C164.551 23.1608 164.667 22.8947 164.899 22.6774C165.132 22.4602 165.423 22.3516 165.774 22.3516C166.126 22.3516 166.415 22.4602 166.642 22.6774C166.874 22.8947 166.99 23.1608 166.99 23.4758C166.99 23.7962 166.874 24.065 166.642 24.2823C166.415 24.4995 166.126 24.6081 165.774 24.6081Z" fill="#1B532B"/>
<path d="M157.751 34.4409V25.8383L159.907 25.8465V27.5735H159.947C160.136 26.9761 160.474 26.509 160.96 26.1723C161.446 25.8356 162.041 25.6672 162.743 25.6672C162.9 25.6672 163.051 25.6754 163.197 25.6917C163.343 25.708 163.467 25.727 163.569 25.7487V27.5816C163.434 27.5545 163.28 27.5328 163.108 27.5165C162.935 27.5002 162.754 27.492 162.565 27.492C162.024 27.492 161.554 27.5952 161.155 27.8016C160.755 28.0025 160.447 28.3039 160.231 28.7058C160.015 29.1023 159.907 29.5911 159.907 30.1722V34.4409H157.751Z" fill="#1B532B"/>
<path d="M151.431 34.4395V27.4174H149.665V25.837H151.431V25.3726C151.431 24.71 151.558 24.1642 151.812 23.7352C152.071 23.3007 152.452 22.9803 152.955 22.7739C153.457 22.5675 154.078 22.4644 154.819 22.4644C155.116 22.4644 155.407 22.4806 155.694 22.5132C155.986 22.5404 156.229 22.5757 156.423 22.6191V24.0448C156.229 24.0122 156.037 23.9904 155.848 23.9796C155.659 23.9633 155.459 23.9551 155.248 23.9551C154.665 23.9551 154.232 24.0719 153.951 24.3054C153.676 24.5335 153.538 24.8974 153.538 25.3971V25.837H156.383V27.4174H153.587V34.4395H151.431Z" fill="#1B532B"/>
<path d="M135.337 34.4398L141.034 22.6846H142.995V24.6641H142.314L137.703 34.4398H135.337ZM137.971 31.393L138.732 29.7556H145.92L146.658 31.393H137.971ZM146.966 34.4398L142.355 24.6641V22.6846H143.643L149.332 34.4398H146.966Z" fill="#1B532B"/>
<path d="M127.865 34.4398V22.6846H130.02V34.4398H127.865Z" fill="#1B532B"/>
<path d="M120.288 34.595C119.526 34.595 118.862 34.4918 118.295 34.2854C117.727 34.079 117.287 33.7776 116.974 33.3811C116.666 32.9793 116.512 32.4878 116.512 31.9067V31.8985C116.512 31.4043 116.636 30.9725 116.884 30.6032C117.133 30.2339 117.525 29.9434 118.06 29.7316C118.6 29.5198 119.297 29.403 120.15 29.3813L125.061 29.2835V30.5788L120.45 30.6928C119.818 30.7091 119.359 30.815 119.073 31.0106C118.792 31.2061 118.651 31.4695 118.651 31.8008V31.817C118.651 32.2407 118.848 32.5584 119.243 32.7702C119.642 32.9765 120.169 33.0797 120.823 33.0797C121.455 33.0797 122.006 32.9928 122.476 32.819C122.952 32.6398 123.319 32.39 123.578 32.0696C123.843 31.7437 123.975 31.3636 123.975 30.9291V29.0391C123.975 28.4689 123.757 28.0263 123.319 27.7113C122.887 27.3963 122.268 27.2388 121.463 27.2388C120.761 27.2388 120.196 27.3555 119.769 27.5891C119.348 27.8226 119.083 28.1376 118.975 28.5341L118.951 28.6074H116.901L116.917 28.5096C117.003 27.9557 117.238 27.4642 117.622 27.0351C118.011 26.6006 118.53 26.2612 119.178 26.0168C119.832 25.767 120.604 25.6421 121.496 25.6421C122.468 25.6421 123.3 25.7751 123.992 26.0413C124.683 26.3074 125.212 26.6875 125.58 27.1818C125.947 27.676 126.131 28.2679 126.131 28.9577V34.4402H123.975V32.9494H123.935C123.735 33.2861 123.454 33.5794 123.092 33.8292C122.73 34.0736 122.311 34.2637 121.836 34.3994C121.36 34.5298 120.845 34.595 120.288 34.595Z" fill="#1B532B"/>
<path d="M110.182 34.4409V25.8383L112.337 25.8465V27.5735H112.378C112.567 26.9761 112.905 26.509 113.391 26.1723C113.877 25.8356 114.471 25.6672 115.174 25.6672C115.33 25.6672 115.482 25.6754 115.627 25.6917C115.773 25.708 115.898 25.727 116 25.7487V27.5816C115.865 27.5545 115.711 27.5328 115.538 27.5165C115.365 27.5002 115.184 27.492 114.995 27.492C114.455 27.492 113.985 27.5952 113.585 27.8016C113.185 28.0025 112.878 28.3039 112.661 28.7058C112.445 29.1023 112.337 29.5911 112.337 30.1722V34.4409H110.182Z" fill="#1B532B"/>
<path d="M107.264 34.5866C106.092 34.5866 105.228 34.3558 104.671 33.8942C104.12 33.4271 103.845 32.6939 103.845 31.6946V27.4178H102.029V25.8374H103.845V23.6216H106.008V25.8374H108.764V27.4178H106.008V31.4584C106.008 32.0232 106.146 32.4224 106.422 32.6559C106.702 32.884 107.159 32.9981 107.791 32.9981C107.964 32.9981 108.137 32.9899 108.31 32.9736C108.488 32.9573 108.639 32.9383 108.764 32.9166V34.4644C108.558 34.5024 108.326 34.5323 108.067 34.554C107.813 34.5757 107.545 34.5866 107.264 34.5866Z" fill="#1B532B"/>
<path d="M91.3003 34.4402V25.8376H93.4559V27.5158H93.4964C93.8152 26.9401 94.2852 26.4839 94.9065 26.1472C95.5278 25.8104 96.2679 25.6421 97.1269 25.6421C98.3749 25.6421 99.3447 25.987 100.036 26.6767C100.728 27.3664 101.073 28.3385 101.073 29.5931V34.4402H98.9098V29.9841C98.9098 29.126 98.6964 28.4716 98.2696 28.0208C97.8428 27.5701 97.2134 27.3447 96.3814 27.3447C95.7925 27.3447 95.2793 27.4614 94.8417 27.695C94.404 27.9285 94.0637 28.2571 93.8206 28.6807C93.5775 29.0989 93.4559 29.5931 93.4559 30.1633V34.4402H91.3003Z" fill="#1B532B"/>
<path d="M85.0126 34.6358C83.9159 34.6358 82.9704 34.462 82.1762 34.1144C81.3821 33.7614 80.7716 33.2509 80.3448 32.5829C79.918 31.9149 79.7046 31.1111 79.7046 30.1716V30.1634C79.7046 29.2402 79.9207 28.4391 80.3529 27.7603C80.7905 27.0814 81.3983 26.5573 82.1762 26.188C82.9542 25.8187 83.8618 25.6368 84.8991 25.6422C85.9526 25.6476 86.8575 25.8404 87.6139 26.2206C88.3756 26.5953 88.9591 27.1221 89.3643 27.801C89.7749 28.4799 89.9802 29.2755 89.9802 30.1879V30.6522H80.8067V29.3244H88.6269L87.9056 30.3508V29.8539C87.9056 29.3108 87.7868 28.8437 87.5491 28.4527C87.3113 28.0563 86.9683 27.7521 86.5199 27.5403C86.0769 27.3285 85.5447 27.2226 84.9234 27.2226C84.2697 27.2226 83.7106 27.3258 83.2459 27.5322C82.7867 27.7385 82.4329 28.0481 82.1844 28.4609C81.9412 28.8682 81.8197 29.3732 81.8197 29.9761V30.3101C81.8197 30.9781 81.9655 31.5157 82.2573 31.9231C82.549 32.325 82.9407 32.6155 83.4323 32.7947C83.924 32.9739 84.4723 33.0636 85.0774 33.0636C85.488 33.0636 85.8716 33.0201 86.2281 32.9332C86.5901 32.8409 86.9035 32.7105 87.1682 32.5422C87.4329 32.3684 87.6274 32.1593 87.7517 31.9149L87.776 31.8579H89.8424L89.8181 31.9394C89.6885 32.3684 89.4778 32.7513 89.186 33.088C88.8943 33.4247 88.5377 33.7071 88.1163 33.9352C87.6949 34.1633 87.2222 34.3371 86.6982 34.4566C86.1741 34.5761 85.6123 34.6358 85.0126 34.6358Z" fill="#1B532B"/>
<path d="M73.8684 34.6357C72.7987 34.6357 71.8695 34.451 71.0807 34.0817C70.2974 33.7124 69.6896 33.1911 69.2574 32.5176C68.8306 31.8442 68.6172 31.0513 68.6172 30.1389V30.1307C68.6172 29.2183 68.8333 28.4282 69.2655 27.7601C69.6977 27.0867 70.3055 26.5653 71.0888 26.196C71.8722 25.8267 72.796 25.6421 73.8603 25.6421C74.7896 25.6421 75.6081 25.7833 76.3158 26.0657C77.0235 26.3481 77.5935 26.7391 78.0257 27.2388C78.4579 27.7384 78.7253 28.3195 78.828 28.9821L78.8361 29.0554H76.7372L76.7129 28.9903C76.5508 28.4743 76.2293 28.0643 75.7485 27.7601C75.2677 27.4506 74.6545 27.2958 73.909 27.2958C73.2715 27.2958 72.7204 27.4099 72.2558 27.638C71.7966 27.8661 71.44 28.1946 71.1861 28.6237C70.9376 29.0473 70.8133 29.5496 70.8133 30.1307V30.147C70.8133 30.739 70.9376 31.2468 71.1861 31.6704C71.44 32.094 71.7966 32.4199 72.2558 32.648C72.7204 32.8706 73.2742 32.982 73.9171 32.982C74.6518 32.982 75.2596 32.8326 75.7404 32.5339C76.2266 32.2352 76.5535 31.8198 76.721 31.2875L76.7372 31.2224H78.8442L78.828 31.2957C78.7199 31.9637 78.4471 32.5502 78.0095 33.0553C77.5719 33.5549 76.9992 33.9432 76.2915 34.2202C75.5891 34.4972 74.7815 34.6357 73.8684 34.6357Z" fill="#1B532B"/>
<path d="M58.4634 34.4395V27.4174H56.6968V25.837H58.4634V25.3726C58.4634 24.71 58.5904 24.1642 58.8443 23.7352C59.1036 23.3007 59.4845 22.9803 59.9869 22.7739C60.4894 22.5675 61.1106 22.4644 61.8508 22.4644C62.1479 22.4644 62.4397 22.4806 62.726 22.5132C63.0177 22.5404 63.2608 22.5757 63.4553 22.6191V24.0448C63.2608 24.0122 63.0691 23.9904 62.88 23.9796C62.6909 23.9633 62.491 23.9551 62.2803 23.9551C61.6968 23.9551 61.2646 24.0719 60.9837 24.3054C60.7082 24.5335 60.5704 24.8974 60.5704 25.3971V25.837H63.4148V27.4174H60.619V34.4395H58.4634Z" fill="#1B532B"/>
<path d="M50.684 34.6357C49.6251 34.6357 48.6958 34.4538 47.8963 34.0899C47.1021 33.7206 46.4835 33.2019 46.0405 32.5339C45.5975 31.8605 45.376 31.0649 45.376 30.147V30.1307C45.376 29.2129 45.5975 28.42 46.0405 27.752C46.4889 27.0786 47.1102 26.5599 47.9044 26.196C48.7039 25.8267 49.6305 25.6421 50.684 25.6421C51.7429 25.6421 52.6721 25.8267 53.4717 26.196C54.2712 26.5599 54.8925 27.0786 55.3355 27.752C55.7785 28.42 56 29.2129 56 30.1307V30.147C56 31.0649 55.7785 31.8605 55.3355 32.5339C54.8925 33.2019 54.2712 33.7206 53.4717 34.0899C52.6775 34.4538 51.7483 34.6357 50.684 34.6357ZM50.6921 32.982C51.308 32.982 51.8482 32.8706 52.3128 32.648C52.7828 32.4253 53.1475 32.1049 53.4068 31.6867C53.6716 31.2631 53.8039 30.7499 53.8039 30.147V30.1307C53.8039 29.5279 53.6716 29.0174 53.4068 28.5992C53.1475 28.1756 52.7828 27.8525 52.3128 27.6298C51.8428 27.4071 51.2998 27.2958 50.684 27.2958C50.0735 27.2958 49.5332 27.4071 49.0632 27.6298C48.5986 27.8525 48.2339 28.1756 47.9692 28.5992C47.7045 29.0174 47.5721 29.5279 47.5721 30.1307V30.147C47.5721 30.7499 47.7018 31.2631 47.9611 31.6867C48.2258 32.1049 48.5932 32.4253 49.0632 32.648C49.5332 32.8706 50.0762 32.982 50.6921 32.982Z" fill="#1B532B"/>
<path d="M143.075 17.6077C142.313 17.6077 141.648 17.5045 141.081 17.2981C140.514 17.0917 140.074 16.7903 139.76 16.3938C139.452 15.992 139.298 15.5005 139.298 14.9193V14.9112C139.298 14.417 139.423 13.9852 139.671 13.6159C139.92 13.2466 140.311 12.9561 140.846 12.7443C141.386 12.5325 142.083 12.4157 142.937 12.394L147.848 12.2962V13.5915L143.237 13.7055C142.605 13.7218 142.145 13.8277 141.859 14.0232C141.578 14.2188 141.438 14.4822 141.438 14.8134V14.8297C141.438 15.2533 141.635 15.5711 142.029 15.7829C142.429 15.9892 142.956 16.0924 143.61 16.0924C144.242 16.0924 144.793 16.0055 145.263 15.8317C145.738 15.6525 146.106 15.4027 146.365 15.0823C146.63 14.7564 146.762 14.3763 146.762 13.9418V12.0518C146.762 11.4816 146.543 11.039 146.106 10.724C145.673 10.409 145.055 10.2515 144.25 10.2515C143.547 10.2515 142.983 10.3682 142.556 10.6018C142.135 10.8353 141.87 11.1503 141.762 11.5467L141.738 11.6201H139.687L139.704 11.5223C139.79 10.9684 140.025 10.4769 140.409 10.0478C140.798 9.61334 141.316 9.27391 141.964 9.02952C142.618 8.7797 143.391 8.65479 144.282 8.65479C145.255 8.65479 146.087 8.78784 146.778 9.05396C147.47 9.32007 147.999 9.70024 148.366 10.1945C148.734 10.6887 148.918 11.2806 148.918 11.9704V17.4529H146.762V15.9621H146.721C146.522 16.2988 146.241 16.5921 145.879 16.8419C145.517 17.0863 145.098 17.2764 144.623 17.4121C144.147 17.5425 143.631 17.6077 143.075 17.6077Z" fill="#1B532B"/>
<path d="M133.327 17.6485C132.23 17.6485 131.284 17.4747 130.49 17.1271C129.696 16.7741 129.086 16.2636 128.659 15.5956C128.232 14.9276 128.019 14.1238 128.019 13.1843V13.1761C128.019 12.2529 128.235 11.4518 128.667 10.773C129.104 10.0941 129.712 9.57001 130.49 9.20071C131.268 8.83141 132.176 8.64947 133.213 8.6549C134.267 8.66033 135.172 8.85313 135.928 9.2333C136.69 9.60803 137.273 10.1348 137.678 10.8137C138.089 11.4926 138.294 12.2882 138.294 13.2006V13.6649H129.121V12.3371H136.941L136.22 13.3635V12.8666C136.22 12.3235 136.101 11.8564 135.863 11.4654C135.625 11.0689 135.282 10.7648 134.834 10.553C134.391 10.3412 133.859 10.2353 133.237 10.2353C132.584 10.2353 132.025 10.3385 131.56 10.5449C131.101 10.7512 130.747 11.0608 130.498 11.4735C130.255 11.8809 130.134 12.3859 130.134 12.9888V13.3228C130.134 13.9908 130.28 14.5284 130.571 14.9358C130.863 15.3376 131.255 15.6282 131.746 15.8074C132.238 15.9866 132.786 16.0763 133.391 16.0763C133.802 16.0763 134.186 16.0328 134.542 15.9459C134.904 15.8536 135.217 15.7232 135.482 15.5549C135.747 15.3811 135.941 15.172 136.066 14.9276L136.09 14.8706H138.156L138.132 14.9521C138.002 15.3811 137.792 15.764 137.5 16.1007C137.208 16.4374 136.852 16.7198 136.43 16.9479C136.009 17.176 135.536 17.3498 135.012 17.4693C134.488 17.5888 133.926 17.6485 133.327 17.6485Z" fill="#1B532B"/>
<path d="M122.184 17.6484C121.114 17.6484 120.185 17.4637 119.396 17.0944C118.613 16.7251 118.005 16.2038 117.573 15.5303C117.146 14.8569 116.933 14.064 116.933 13.1516V13.1434C116.933 12.231 117.149 11.4408 117.581 10.7728C118.013 10.0994 118.621 9.57804 119.404 9.20874C120.188 8.83944 121.111 8.65479 122.176 8.65479C123.105 8.65479 123.923 8.79599 124.631 9.0784C125.339 9.3608 125.909 9.75183 126.341 10.2515C126.773 10.7511 127.041 11.3322 127.143 11.9948L127.151 12.0681H125.053L125.028 12.0029C124.866 11.487 124.545 11.077 124.064 10.7728C123.583 10.4633 122.97 10.3085 122.224 10.3085C121.587 10.3085 121.036 10.4225 120.571 10.6506C120.112 10.8787 119.755 11.2073 119.502 11.6364C119.253 12.06 119.129 12.5623 119.129 13.1434V13.1597C119.129 13.7517 119.253 14.2595 119.502 14.6831C119.755 15.1067 120.112 15.4326 120.571 15.6607C121.036 15.8833 121.59 15.9947 122.232 15.9947C122.967 15.9947 123.575 15.8453 124.056 15.5466C124.542 15.2479 124.869 14.8325 125.036 14.3002L125.053 14.2351H127.16L127.143 14.3084C127.035 14.9764 126.763 15.5629 126.325 16.068C125.887 16.5676 125.315 16.9559 124.607 17.2329C123.905 17.5099 123.097 17.6484 122.184 17.6484Z" fill="#1B532B"/>
<path d="M109.785 17.6077C109.023 17.6077 108.359 17.5045 107.792 17.2981C107.224 17.0917 106.784 16.7903 106.471 16.3938C106.163 15.992 106.009 15.5005 106.009 14.9193V14.9112C106.009 14.417 106.133 13.9852 106.382 13.6159C106.63 13.2466 107.022 12.9561 107.557 12.7443C108.097 12.5325 108.794 12.4157 109.647 12.394L114.558 12.2962V13.5915L109.947 13.7055C109.315 13.7218 108.856 13.8277 108.57 14.0232C108.289 14.2188 108.148 14.4822 108.148 14.8134V14.8297C108.148 15.2533 108.345 15.5711 108.74 15.7829C109.14 15.9892 109.666 16.0924 110.32 16.0924C110.952 16.0924 111.503 16.0055 111.973 15.8317C112.449 15.6525 112.816 15.4027 113.075 15.0823C113.34 14.7564 113.472 14.3763 113.472 13.9418V12.0518C113.472 11.4816 113.254 11.039 112.816 10.724C112.384 10.409 111.765 10.2515 110.96 10.2515C110.258 10.2515 109.693 10.3682 109.267 10.6018C108.845 10.8353 108.58 11.1503 108.472 11.5467L108.448 11.6201H106.398L106.414 11.5223C106.5 10.9684 106.735 10.4769 107.119 10.0478C107.508 9.61334 108.027 9.27391 108.675 9.02952C109.329 8.7797 110.101 8.65479 110.993 8.65479C111.965 8.65479 112.797 8.78784 113.489 9.05396C114.18 9.32007 114.71 9.70024 115.077 10.1945C115.444 10.6887 115.628 11.2806 115.628 11.9704V17.4529H113.472V15.9621H113.432C113.232 16.2988 112.951 16.5921 112.589 16.8419C112.227 17.0863 111.808 17.2764 111.333 17.4121C110.858 17.5425 110.342 17.6077 109.785 17.6077Z" fill="#1B532B"/>
<path d="M98.5614 17.6482C97.6052 17.6482 96.7786 17.4582 96.0817 17.078C95.3902 16.6978 94.8553 16.171 94.4771 15.4976C94.1044 14.8187 93.918 14.0394 93.918 13.1596V13.1433C93.918 12.2581 94.1071 11.4787 94.4852 10.8053C94.8634 10.1319 95.3983 9.60505 96.0898 9.22489C96.7813 8.84473 97.6025 8.65464 98.5533 8.65464C99.1638 8.65464 99.7149 8.73068 100.207 8.88274C100.698 9.02938 101.128 9.23847 101.495 9.51001C101.862 9.78156 102.16 10.0993 102.386 10.4631H102.427V5.69751H104.583V17.4527H102.427V15.8397H102.386C102.16 16.2036 101.862 16.5213 101.495 16.7929C101.133 17.0644 100.706 17.2762 100.215 17.4283C99.723 17.5749 99.1719 17.6482 98.5614 17.6482ZM99.2422 15.9782C99.8905 15.9782 100.452 15.8615 100.928 15.6279C101.403 15.3944 101.771 15.0658 102.03 14.6422C102.295 14.2186 102.427 13.7244 102.427 13.1596V13.1433C102.427 12.5785 102.295 12.0843 102.03 11.6607C101.765 11.237 101.395 10.9085 100.92 10.6749C100.45 10.4414 99.8905 10.3247 99.2422 10.3247C98.5885 10.3247 98.0266 10.4387 97.5566 10.6668C97.092 10.8949 96.7354 11.2208 96.4869 11.6444C96.2384 12.0625 96.1141 12.5622 96.1141 13.1433V13.1596C96.1141 13.7407 96.2384 14.2431 96.4869 14.6667C96.7354 15.0849 97.092 15.408 97.5566 15.6361C98.0266 15.8642 98.5885 15.9782 99.2422 15.9782Z" fill="#1B532B"/>
<path d="M90.3599 17.4532V8.85066H92.5236V17.4532H90.3599ZM91.4458 7.62056C91.0947 7.62056 90.8029 7.51194 90.5706 7.29471C90.3383 7.07747 90.2222 6.80864 90.2222 6.48821C90.2222 6.17322 90.3383 5.90711 90.5706 5.68987C90.8029 5.47263 91.0947 5.36401 91.4458 5.36401C91.797 5.36401 92.086 5.47263 92.3129 5.68987C92.5453 5.90711 92.6614 6.17322 92.6614 6.48821C92.6614 6.80864 92.5453 7.07747 92.3129 7.29471C92.086 7.51194 91.797 7.62056 91.4458 7.62056Z" fill="#1B532B"/>
<path d="M78.8457 17.4527V5.69751H81.0013V10.569H81.0418C81.3606 9.96621 81.8333 9.49644 82.46 9.15972C83.0867 8.823 83.8268 8.65464 84.6804 8.65464C85.507 8.65464 86.2148 8.81486 86.8036 9.13528C87.3979 9.45571 87.8544 9.91733 88.1732 10.5202C88.4919 11.123 88.6513 11.8453 88.6513 12.6871V17.4527H86.4876V13.0863C86.4876 12.201 86.2661 11.5249 85.8231 11.0578C85.3855 10.5908 84.7507 10.3572 83.9187 10.3572C83.3298 10.3572 82.8166 10.4767 82.379 10.7157C81.9414 10.9492 81.601 11.2778 81.3579 11.7014C81.1202 12.1196 81.0013 12.6138 81.0013 13.184V17.4527H78.8457Z" fill="#1B532B"/>
<path d="M72.5887 17.6484C71.519 17.6484 70.5897 17.4637 69.801 17.0944C69.0176 16.7251 68.4098 16.2038 67.9776 15.5303C67.5508 14.8569 67.3374 14.064 67.3374 13.1516V13.1434C67.3374 12.231 67.5535 11.4408 67.9857 10.7728C68.4179 10.0994 69.0257 9.57804 69.8091 9.20874C70.5924 8.83944 71.5163 8.65479 72.5806 8.65479C73.5098 8.65479 74.3283 8.79599 75.036 9.0784C75.7437 9.3608 76.3137 9.75183 76.7459 10.2515C77.1781 10.7511 77.4455 11.3322 77.5482 11.9948L77.5563 12.0681H75.4574L75.4331 12.0029C75.271 11.487 74.9496 11.077 74.4687 10.7728C73.9879 10.4633 73.3747 10.3085 72.6292 10.3085C71.9917 10.3085 71.4406 10.4225 70.976 10.6506C70.5168 10.8787 70.1602 11.2073 69.9063 11.6364C69.6578 12.06 69.5335 12.5623 69.5335 13.1434V13.1597C69.5335 13.7517 69.6578 14.2595 69.9063 14.6831C70.1602 15.1067 70.5168 15.4326 70.976 15.6607C71.4406 15.8833 71.9944 15.9947 72.6373 15.9947C73.372 15.9947 73.9798 15.8453 74.4606 15.5466C74.9469 15.2479 75.2737 14.8325 75.4412 14.3002L75.4574 14.2351H77.5644L77.5482 14.3084C77.4401 14.9764 77.1673 15.5629 76.7297 16.068C76.2921 16.5676 75.7194 16.9559 75.0117 17.2329C74.3094 17.5099 73.5017 17.6484 72.5887 17.6484Z" fill="#1B532B"/>
<path d="M61.2681 17.4536V8.85101L63.4237 8.85915V10.5862H63.4642C63.6533 9.98878 63.9909 9.52172 64.4772 9.18501C64.9634 8.84829 65.5577 8.67993 66.26 8.67993C66.4167 8.67993 66.5679 8.68808 66.7138 8.70437C66.8597 8.72066 66.9839 8.73967 67.0866 8.7614V10.5943C66.9515 10.5672 66.7976 10.5455 66.6247 10.5292C66.4518 10.5129 66.2708 10.5047 66.0817 10.5047C65.5415 10.5047 65.0714 10.6079 64.6717 10.8143C64.2719 11.0152 63.9639 11.3166 63.7478 11.7185C63.5317 12.115 63.4237 12.6038 63.4237 13.1849V17.4536H61.2681Z" fill="#1B532B"/>
<path d="M52.6618 17.6739C51.2247 17.6739 49.9713 17.4268 48.9016 16.9326C47.8374 16.4329 47.0108 15.7269 46.4219 14.8145C45.833 13.9021 45.5386 12.8241 45.5386 11.5804V11.5641C45.5386 10.3204 45.833 9.2451 46.4219 8.33814C47.0108 7.42574 47.8374 6.72244 48.9016 6.22823C49.9713 5.72858 51.2247 5.47876 52.6618 5.47876C54.1043 5.47876 55.3577 5.72858 56.422 6.22823C57.4917 6.72244 58.3183 7.42574 58.9017 8.33814C59.4906 9.2451 59.785 10.3204 59.785 11.5641V11.5804C59.785 12.8241 59.4906 13.9021 58.9017 14.8145C58.3183 15.7269 57.4917 16.4329 56.422 16.9326C55.3577 17.4268 54.1043 17.6739 52.6618 17.6739ZM52.6618 15.8165C53.6451 15.8165 54.4987 15.6427 55.2226 15.2951C55.9465 14.9476 56.5084 14.4561 56.9082 13.8206C57.308 13.1852 57.5079 12.4385 57.5079 11.5804V11.5641C57.5079 10.7006 57.308 9.95384 56.9082 9.32385C56.5084 8.68843 55.9438 8.19965 55.2145 7.8575C54.4906 7.50992 53.6397 7.33613 52.6618 7.33613C51.684 7.33613 50.8304 7.50992 50.101 7.8575C49.3771 8.19965 48.8152 8.68843 48.4154 9.32385C48.021 9.95384 47.8238 10.7006 47.8238 11.5641V11.5804C47.8238 12.4439 48.021 13.1934 48.4154 13.8288C48.8152 14.4642 49.3771 14.9557 50.101 15.3033C50.8304 15.6454 51.684 15.8165 52.6618 15.8165Z" fill="#1B532B"/>
</svg>
