<svg width="144" height="30" viewBox="0 0 144 30" fill="none" xmlns="http://www.w3.org/2000/svg">
<path d="M138.157 29.595C137.395 29.595 136.731 29.4918 136.164 29.2854C135.596 29.079 135.156 28.7776 134.843 28.3811C134.535 27.9793 134.381 27.4878 134.381 26.9067V26.8985C134.381 26.4043 134.505 25.9725 134.754 25.6032C135.002 25.2339 135.394 24.9434 135.929 24.7316C136.469 24.5198 137.166 24.403 138.019 24.3813L142.93 24.2835V25.5788L138.319 25.6928C137.687 25.7091 137.228 25.815 136.942 26.0106C136.661 26.2061 136.52 26.4695 136.52 26.8008V26.817C136.52 27.2407 136.717 27.5584 137.112 27.7702C137.512 27.9765 138.038 28.0797 138.692 28.0797C139.324 28.0797 139.875 27.9928 140.345 27.819C140.821 27.6398 141.188 27.39 141.447 27.0696C141.712 26.7437 141.844 26.3636 141.844 25.9291V24.0391C141.844 23.4689 141.626 23.0263 141.188 22.7113C140.756 22.3963 140.137 22.2388 139.332 22.2388C138.63 22.2388 138.065 22.3555 137.639 22.5891C137.217 22.8226 136.952 23.1376 136.844 23.5341L136.82 23.6074H134.77L134.786 23.5096C134.872 22.9557 135.107 22.4642 135.491 22.0351C135.88 21.6006 136.399 21.2612 137.047 21.0168C137.701 20.767 138.473 20.6421 139.365 20.6421C140.337 20.6421 141.169 20.7751 141.861 21.0413C142.552 21.3074 143.082 21.6875 143.449 22.1818C143.816 22.676 144 23.2679 144 23.9577V29.4402H141.844V27.9494H141.804C141.604 28.2861 141.323 28.5794 140.961 28.8292C140.599 29.0736 140.18 29.2637 139.705 29.3994C139.23 29.5298 138.714 29.595 138.157 29.595Z" fill="#1B532B"/>
<path d="M128.496 29.6357C127.427 29.6357 126.497 29.451 125.709 29.0817C124.925 28.7124 124.318 28.1911 123.885 27.5176C123.459 26.8442 123.245 26.0513 123.245 25.1389V25.1307C123.245 24.2183 123.461 23.4282 123.893 22.7601C124.326 22.0867 124.933 21.5653 125.717 21.196C126.5 20.8267 127.424 20.6421 128.488 20.6421C129.418 20.6421 130.236 20.7833 130.944 21.0657C131.651 21.3481 132.221 21.7391 132.654 22.2388C133.086 22.7384 133.353 23.3195 133.456 23.9821L133.464 24.0554H131.365L131.341 23.9903C131.179 23.4743 130.857 23.0643 130.376 22.7601C129.896 22.4506 129.282 22.2958 128.537 22.2958C127.899 22.2958 127.348 22.4099 126.884 22.638C126.425 22.8661 126.068 23.1946 125.814 23.6237C125.566 24.0473 125.441 24.5496 125.441 25.1307V25.147C125.441 25.739 125.566 26.2468 125.814 26.6704C126.068 27.094 126.425 27.4199 126.884 27.648C127.348 27.8706 127.902 27.982 128.545 27.982C129.28 27.982 129.888 27.8326 130.368 27.5339C130.855 27.2352 131.181 26.8198 131.349 26.2875L131.365 26.2224H133.472L133.456 26.2957C133.348 26.9637 133.075 27.5502 132.637 28.0553C132.2 28.5549 131.627 28.9432 130.919 29.2202C130.217 29.4972 129.409 29.6357 128.496 29.6357Z" fill="#1B532B"/>
<path d="M119.689 29.4408V20.8382H121.852V29.4408H119.689ZM120.774 19.6081C120.423 19.6081 120.132 19.4995 119.899 19.2823C119.667 19.065 119.551 18.7962 119.551 18.4758C119.551 18.1608 119.667 17.8947 119.899 17.6774C120.132 17.4602 120.423 17.3516 120.774 17.3516C121.126 17.3516 121.415 17.4602 121.642 17.6774C121.874 17.8947 121.99 18.1608 121.99 18.4758C121.99 18.7962 121.874 19.065 121.642 19.2823C121.415 19.4995 121.126 19.6081 120.774 19.6081Z" fill="#1B532B"/>
<path d="M112.751 29.4409V20.8383L114.907 20.8465V22.5735H114.947C115.136 21.9761 115.474 21.509 115.96 21.1723C116.446 20.8356 117.041 20.6672 117.743 20.6672C117.9 20.6672 118.051 20.6754 118.197 20.6917C118.343 20.708 118.467 20.727 118.569 20.7487V22.5816C118.434 22.5545 118.28 22.5328 118.108 22.5165C117.935 22.5002 117.754 22.492 117.565 22.492C117.024 22.492 116.554 22.5952 116.155 22.8016C115.755 23.0025 115.447 23.3039 115.231 23.7058C115.015 24.1023 114.907 24.5911 114.907 25.1722V29.4409H112.751Z" fill="#1B532B"/>
<path d="M106.431 29.4395V22.4174H104.665V20.837H106.431V20.3726C106.431 19.71 106.558 19.1642 106.812 18.7352C107.071 18.3007 107.452 17.9803 107.955 17.7739C108.457 17.5675 109.078 17.4644 109.819 17.4644C110.116 17.4644 110.407 17.4806 110.694 17.5132C110.986 17.5404 111.229 17.5757 111.423 17.6191V19.0448C111.229 19.0122 111.037 18.9904 110.848 18.9796C110.659 18.9633 110.459 18.9551 110.248 18.9551C109.665 18.9551 109.232 19.0719 108.951 19.3054C108.676 19.5335 108.538 19.8974 108.538 20.3971V20.837H111.383V22.4174H108.587V29.4395H106.431Z" fill="#1B532B"/>
<path d="M90.3369 29.4398L96.0339 17.6846H97.995V19.6641H97.3143L92.7032 29.4398H90.3369ZM92.9706 26.393L93.7324 24.7556H100.92L101.658 26.393H92.9706ZM101.966 29.4398L97.3548 19.6641V17.6846H98.6433L104.332 29.4398H101.966Z" fill="#1B532B"/>
<path d="M82.8647 29.4398V17.6846H85.0204V29.4398H82.8647Z" fill="#1B532B"/>
<path d="M75.2881 29.595C74.5263 29.595 73.8618 29.4918 73.2946 29.2854C72.7273 29.079 72.287 28.7776 71.9736 28.3811C71.6657 27.9793 71.5117 27.4878 71.5117 26.9067V26.8985C71.5117 26.4043 71.636 25.9725 71.8845 25.6032C72.133 25.2339 72.5247 24.9434 73.0595 24.7316C73.5998 24.5198 74.2967 24.403 75.1503 24.3813L80.0612 24.2835V25.5788L75.4502 25.6928C74.8181 25.7091 74.3589 25.815 74.0725 26.0106C73.7916 26.2061 73.6511 26.4695 73.6511 26.8008V26.817C73.6511 27.2407 73.8483 27.5584 74.2427 27.7702C74.6425 27.9765 75.1692 28.0797 75.8229 28.0797C76.455 28.0797 77.0061 27.9928 77.4761 27.819C77.9515 27.6398 78.3189 27.39 78.5782 27.0696C78.8429 26.7437 78.9753 26.3636 78.9753 25.9291V24.0391C78.9753 23.4689 78.7565 23.0263 78.3189 22.7113C77.8867 22.3963 77.2681 22.2388 76.4631 22.2388C75.7608 22.2388 75.1962 22.3555 74.7694 22.5891C74.348 22.8226 74.0833 23.1376 73.9753 23.5341L73.951 23.6074H71.9007L71.9169 23.5096C72.0033 22.9557 72.2384 22.4642 72.6219 22.0351C73.0109 21.6006 73.5296 21.2612 74.1779 21.0168C74.8316 20.767 75.6041 20.6421 76.4956 20.6421C77.468 20.6421 78.3 20.7751 78.9915 21.0413C79.683 21.3074 80.2125 21.6875 80.5799 22.1818C80.9472 22.676 81.1309 23.2679 81.1309 23.9577V29.4402H78.9753V27.9494H78.9348C78.7349 28.2861 78.454 28.5794 78.092 28.8292C77.73 29.0736 77.3113 29.2637 76.8359 29.3994C76.3605 29.5298 75.8445 29.595 75.2881 29.595Z" fill="#1B532B"/>
<path d="M65.1816 29.4409V20.8383L67.3372 20.8465V22.5735H67.3778C67.5669 21.9761 67.9045 21.509 68.3907 21.1723C68.877 20.8356 69.4712 20.6672 70.1736 20.6672C70.3302 20.6672 70.4815 20.6754 70.6274 20.6917C70.7733 20.708 70.8975 20.727 71.0002 20.7487V22.5816C70.8651 22.5545 70.7111 22.5328 70.5382 22.5165C70.3654 22.5002 70.1844 22.492 69.9953 22.492C69.455 22.492 68.985 22.5952 68.5852 22.8016C68.1854 23.0025 67.8775 23.3039 67.6614 23.7058C67.4453 24.1023 67.3372 24.5911 67.3372 25.1722V29.4409H65.1816Z" fill="#1B532B"/>
<path d="M62.2643 29.5866C61.092 29.5866 60.2276 29.3558 59.6711 28.8942C59.1201 28.4271 58.8445 27.6939 58.8445 26.6946V22.4178H57.0293V20.8374H58.8445V18.6216H61.0083V20.8374H63.7635V22.4178H61.0083V26.4584C61.0083 27.0232 61.146 27.4224 61.4216 27.6559C61.7025 27.884 62.159 27.9981 62.7911 27.9981C62.964 27.9981 63.1369 27.9899 63.3097 27.9736C63.488 27.9573 63.6393 27.9383 63.7635 27.9166V29.4644C63.5583 29.5024 63.3259 29.5323 63.0666 29.554C62.8127 29.5757 62.5453 29.5866 62.2643 29.5866Z" fill="#1B532B"/>
<path d="M46.3003 29.4402V20.8376H48.4559V22.5158H48.4964C48.8152 21.9401 49.2852 21.4839 49.9065 21.1472C50.5278 20.8104 51.2679 20.6421 52.1269 20.6421C53.3749 20.6421 54.3447 20.987 55.0362 21.6767C55.7277 22.3664 56.0735 23.3385 56.0735 24.5931V29.4402H53.9098V24.9841C53.9098 24.126 53.6964 23.4716 53.2696 23.0208C52.8428 22.5701 52.2134 22.3447 51.3814 22.3447C50.7925 22.3447 50.2793 22.4614 49.8417 22.695C49.404 22.9285 49.0637 23.2571 48.8206 23.6807C48.5775 24.0989 48.4559 24.5931 48.4559 25.1633V29.4402H46.3003Z" fill="#1B532B"/>
<path d="M40.0126 29.6358C38.9159 29.6358 37.9704 29.462 37.1762 29.1144C36.3821 28.7614 35.7716 28.2509 35.3448 27.5829C34.918 26.9149 34.7046 26.1111 34.7046 25.1716V25.1634C34.7046 24.2402 34.9207 23.4391 35.3529 22.7603C35.7905 22.0814 36.3983 21.5573 37.1762 21.188C37.9542 20.8187 38.8618 20.6368 39.8991 20.6422C40.9526 20.6476 41.8575 20.8404 42.6139 21.2206C43.3756 21.5953 43.9591 22.1221 44.3643 22.801C44.7749 23.4799 44.9802 24.2755 44.9802 25.1879V25.6522H35.8067V24.3244H43.6269L42.9056 25.3508V24.8539C42.9056 24.3108 42.7868 23.8437 42.5491 23.4527C42.3113 23.0563 41.9683 22.7521 41.5199 22.5403C41.0769 22.3285 40.5447 22.2226 39.9234 22.2226C39.2697 22.2226 38.7106 22.3258 38.2459 22.5322C37.7867 22.7385 37.4329 23.0481 37.1844 23.4609C36.9412 23.8682 36.8197 24.3732 36.8197 24.9761V25.3101C36.8197 25.9781 36.9655 26.5157 37.2573 26.9231C37.549 27.325 37.9407 27.6155 38.4323 27.7947C38.924 27.9739 39.4723 28.0636 40.0774 28.0636C40.488 28.0636 40.8716 28.0201 41.2281 27.9332C41.5901 27.8409 41.9035 27.7105 42.1682 27.5422C42.4329 27.3684 42.6274 27.1593 42.7517 26.9149L42.776 26.8579H44.8424L44.8181 26.9394C44.6885 27.3684 44.4778 27.7513 44.186 28.088C43.8943 28.4247 43.5377 28.7071 43.1163 28.9352C42.6949 29.1633 42.2222 29.3371 41.6982 29.4566C41.1741 29.5761 40.6123 29.6358 40.0126 29.6358Z" fill="#1B532B"/>
<path d="M28.8684 29.6357C27.7987 29.6357 26.8695 29.451 26.0807 29.0817C25.2974 28.7124 24.6896 28.1911 24.2574 27.5176C23.8306 26.8442 23.6172 26.0513 23.6172 25.1389V25.1307C23.6172 24.2183 23.8333 23.4282 24.2655 22.7601C24.6977 22.0867 25.3055 21.5653 26.0888 21.196C26.8722 20.8267 27.796 20.6421 28.8603 20.6421C29.7896 20.6421 30.6081 20.7833 31.3158 21.0657C32.0235 21.3481 32.5935 21.7391 33.0257 22.2388C33.4579 22.7384 33.7253 23.3195 33.828 23.9821L33.8361 24.0554H31.7372L31.7129 23.9903C31.5508 23.4743 31.2293 23.0643 30.7485 22.7601C30.2677 22.4506 29.6545 22.2958 28.909 22.2958C28.2715 22.2958 27.7204 22.4099 27.2558 22.638C26.7966 22.8661 26.44 23.1946 26.1861 23.6237C25.9376 24.0473 25.8133 24.5496 25.8133 25.1307V25.147C25.8133 25.739 25.9376 26.2468 26.1861 26.6704C26.44 27.094 26.7966 27.4199 27.2558 27.648C27.7204 27.8706 28.2742 27.982 28.9171 27.982C29.6518 27.982 30.2596 27.8326 30.7404 27.5339C31.2266 27.2352 31.5535 26.8198 31.721 26.2875L31.7372 26.2224H33.8442L33.828 26.2957C33.7199 26.9637 33.4471 27.5502 33.0095 28.0553C32.5719 28.5549 31.9992 28.9432 31.2915 29.2202C30.5891 29.4972 29.7815 29.6357 28.8684 29.6357Z" fill="#1B532B"/>
<path d="M13.4634 29.4395V22.4174H11.6968V20.837H13.4634V20.3726C13.4634 19.71 13.5904 19.1642 13.8443 18.7352C14.1036 18.3007 14.4845 17.9803 14.9869 17.7739C15.4894 17.5675 16.1106 17.4644 16.8508 17.4644C17.1479 17.4644 17.4397 17.4806 17.726 17.5132C18.0177 17.5404 18.2608 17.5757 18.4553 17.6191V19.0448C18.2608 19.0122 18.0691 18.9904 17.88 18.9796C17.6909 18.9633 17.491 18.9551 17.2803 18.9551C16.6968 18.9551 16.2646 19.0719 15.9837 19.3054C15.7082 19.5335 15.5704 19.8974 15.5704 20.3971V20.837H18.4148V22.4174H15.619V29.4395H13.4634Z" fill="#1B532B"/>
<path d="M5.68396 29.6357C4.62506 29.6357 3.69583 29.4538 2.89626 29.0899C2.10208 28.7206 1.48349 28.2019 1.04049 27.5339C0.59748 26.8605 0.375977 26.0649 0.375977 25.147V25.1307C0.375977 24.2129 0.59748 23.42 1.04049 22.752C1.4889 22.0786 2.11019 21.5599 2.90436 21.196C3.70393 20.8267 4.63047 20.6421 5.68396 20.6421C6.74286 20.6421 7.67209 20.8267 8.47166 21.196C9.27124 21.5599 9.89253 22.0786 10.3355 22.752C10.7785 23.42 11 24.2129 11 25.1307V25.147C11 26.0649 10.7785 26.8605 10.3355 27.5339C9.89253 28.2019 9.27124 28.7206 8.47166 29.0899C7.67749 29.4538 6.74826 29.6357 5.68396 29.6357ZM5.69206 27.982C6.30795 27.982 6.8482 27.8706 7.31282 27.648C7.78284 27.4253 8.14751 27.1049 8.40683 26.6867C8.67156 26.2631 8.80392 25.7499 8.80392 25.147V25.1307C8.80392 24.5279 8.67156 24.0174 8.40683 23.5992C8.14751 23.1756 7.78284 22.8525 7.31282 22.6298C6.8428 22.4071 6.29985 22.2958 5.68396 22.2958C5.07347 22.2958 4.53322 22.4071 4.0632 22.6298C3.59858 22.8525 3.23391 23.1756 2.96919 23.5992C2.70447 24.0174 2.5721 24.5279 2.5721 25.1307V25.147C2.5721 25.7499 2.70176 26.2631 2.96109 26.6867C3.22581 27.1049 3.59318 27.4253 4.0632 27.648C4.53322 27.8706 5.07618 27.982 5.69206 27.982Z" fill="#1B532B"/>
<path d="M98.0747 12.6077C97.313 12.6077 96.6484 12.5045 96.0812 12.2981C95.5139 12.0917 95.0736 11.7903 94.7603 11.3938C94.4523 10.992 94.2983 10.5005 94.2983 9.91935V9.9112C94.2983 9.41699 94.4226 8.98523 94.6711 8.61593C94.9196 8.24663 95.3113 7.95607 95.8462 7.74427C96.3864 7.53246 97.0833 7.4157 97.9369 7.39397L102.848 7.29622V8.59149L98.2368 8.70554C97.6047 8.72183 97.1455 8.82773 96.8591 9.02325C96.5782 9.21876 96.4377 9.48216 96.4377 9.81345V9.82974C96.4377 10.2533 96.6349 10.5711 97.0293 10.7829C97.4291 10.9892 97.9559 11.0924 98.6096 11.0924C99.2417 11.0924 99.7927 11.0055 100.263 10.8317C100.738 10.6525 101.106 10.4027 101.365 10.0823C101.63 9.75642 101.762 9.37626 101.762 8.94178V7.05182C101.762 6.48158 101.543 6.03896 101.106 5.72396C100.673 5.40897 100.055 5.25147 99.2498 5.25147C98.5474 5.25147 97.9829 5.36824 97.5561 5.60177C97.1347 5.8353 96.8699 6.15029 96.7619 6.54675L96.7376 6.62007H94.6873L94.7035 6.52231C94.79 5.96836 95.025 5.47686 95.4086 5.04782C95.7975 4.61334 96.3162 4.27391 96.9645 4.02952C97.6182 3.7797 98.3908 3.65479 99.2822 3.65479C100.255 3.65479 101.087 3.78784 101.778 4.05396C102.47 4.32007 102.999 4.70024 103.366 5.19445C103.734 5.68866 103.918 6.28063 103.918 6.97036V12.4529H101.762V10.9621H101.721C101.522 11.2988 101.241 11.5921 100.879 11.8419C100.517 12.0863 100.098 12.2764 99.6225 12.4121C99.1471 12.5425 98.6312 12.6077 98.0747 12.6077Z" fill="#1B532B"/>
<path d="M88.3265 12.6485C87.2298 12.6485 86.2844 12.4747 85.4902 12.1271C84.696 11.7741 84.0856 11.2636 83.6588 10.5956C83.232 9.92761 83.0186 9.12384 83.0186 8.18429V8.17614C83.0186 7.25289 83.2347 6.45183 83.6669 5.77296C84.1045 5.0941 84.7122 4.57001 85.4902 4.20071C86.2682 3.83141 87.1758 3.64947 88.2131 3.6549C89.2666 3.66033 90.1715 3.85313 90.9279 4.2333C91.6896 4.60803 92.2731 5.13483 92.6783 5.81369C93.0889 6.49256 93.2942 7.28819 93.2942 8.20058V8.66493H84.1207V7.33707H91.9408L91.2196 8.36351V7.86658C91.2196 7.32349 91.1007 6.85643 90.863 6.4654C90.6253 6.06895 90.2823 5.76482 89.8338 5.55301C89.3908 5.3412 88.8587 5.2353 88.2374 5.2353C87.5837 5.2353 87.0245 5.33849 86.5599 5.54486C86.1007 5.75124 85.7468 6.0608 85.4983 6.47355C85.2552 6.88087 85.1336 7.38594 85.1336 7.98878V8.32278C85.1336 8.99078 85.2795 9.52844 85.5712 9.93576C85.863 10.3376 86.2547 10.6282 86.7463 10.8074C87.2379 10.9866 87.7863 11.0763 88.3914 11.0763C88.802 11.0763 89.1855 11.0328 89.5421 10.9459C89.9041 10.8536 90.2174 10.7232 90.4821 10.5549C90.7469 10.3811 90.9414 10.172 91.0656 9.92761L91.0899 9.87059H93.1564L93.1321 9.95205C93.0024 10.3811 92.7917 10.764 92.5 11.1007C92.2083 11.4374 91.8517 11.7198 91.4303 11.9479C91.0089 12.176 90.5362 12.3498 90.0121 12.4693C89.4881 12.5888 88.9262 12.6485 88.3265 12.6485Z" fill="#1B532B"/>
<path d="M77.1839 12.6484C76.1142 12.6484 75.1849 12.4637 74.3962 12.0944C73.6128 11.7251 73.005 11.2038 72.5728 10.5303C72.146 9.85689 71.9326 9.06398 71.9326 8.15159V8.14344C71.9326 7.23105 72.1487 6.44085 72.5809 5.77284C73.0131 5.09941 73.6209 4.57804 74.4043 4.20874C75.1876 3.83944 76.1115 3.65479 77.1758 3.65479C78.105 3.65479 78.9235 3.79599 79.6312 4.0784C80.339 4.3608 80.9089 4.75183 81.3411 5.25148C81.7733 5.75112 82.0407 6.33223 82.1434 6.9948L82.1515 7.06812H80.0526L80.0283 7.00295C79.8662 6.48701 79.5448 6.07697 79.064 5.77284C78.5831 5.46328 77.9699 5.3085 77.2244 5.3085C76.5869 5.3085 76.0358 5.42255 75.5712 5.65065C75.112 5.87875 74.7554 6.20732 74.5015 6.63636C74.253 7.05997 74.1287 7.56233 74.1287 8.14344V8.15973C74.1287 8.7517 74.253 9.25949 74.5015 9.6831C74.7554 10.1067 75.112 10.4326 75.5712 10.6607C76.0358 10.8833 76.5896 10.9947 77.2325 10.9947C77.9672 10.9947 78.575 10.8453 79.0559 10.5466C79.5421 10.2479 79.8689 9.83245 80.0364 9.30022L80.0526 9.23505H82.1596L82.1434 9.30837C82.0353 9.97637 81.7625 10.5629 81.3249 11.068C80.8873 11.5676 80.3146 11.9559 79.6069 12.2329C78.9046 12.5099 78.0969 12.6484 77.1839 12.6484Z" fill="#1B532B"/>
<path d="M64.7852 12.6077C64.0234 12.6077 63.3589 12.5045 62.7916 12.2981C62.2244 12.0917 61.7841 11.7903 61.4707 11.3938C61.1628 10.992 61.0088 10.5005 61.0088 9.91935V9.9112C61.0088 9.41699 61.133 8.98523 61.3816 8.61593C61.6301 8.24663 62.0218 7.95607 62.5566 7.74427C63.0969 7.53246 63.7938 7.4157 64.6474 7.39397L69.5583 7.29622V8.59149L64.9472 8.70554C64.3151 8.72183 63.8559 8.82773 63.5696 9.02325C63.2887 9.21876 63.1482 9.48216 63.1482 9.81345V9.82974C63.1482 10.2533 63.3454 10.5711 63.7398 10.7829C64.1396 10.9892 64.6663 11.0924 65.32 11.0924C65.9521 11.0924 66.5032 11.0055 66.9732 10.8317C67.4486 10.6525 67.816 10.4027 68.0753 10.0823C68.34 9.75642 68.4724 9.37626 68.4724 8.94178V7.05182C68.4724 6.48158 68.2536 6.03896 67.816 5.72396C67.3838 5.40897 66.7652 5.25147 65.9602 5.25147C65.2579 5.25147 64.6933 5.36824 64.2665 5.60177C63.8451 5.8353 63.5804 6.15029 63.4723 6.54675L63.448 6.62007H61.3978L61.414 6.52231C61.5004 5.96836 61.7354 5.47686 62.119 5.04782C62.508 4.61334 63.0266 4.27391 63.6749 4.02952C64.3286 3.7797 65.1012 3.65479 65.9926 3.65479C66.9651 3.65479 67.7971 3.78784 68.4886 4.05396C69.1801 4.32007 69.7096 4.70024 70.0769 5.19445C70.4443 5.68866 70.628 6.28063 70.628 6.97036V12.4529H68.4724V10.9621H68.4319C68.232 11.2988 67.951 11.5921 67.5891 11.8419C67.2271 12.0863 66.8084 12.2764 66.333 12.4121C65.8576 12.5425 65.3416 12.6077 64.7852 12.6077Z" fill="#1B532B"/>
<path d="M53.5614 12.6482C52.6052 12.6482 51.7786 12.4582 51.0817 12.078C50.3902 11.6978 49.8553 11.171 49.4771 10.4976C49.1044 9.81874 48.918 9.0394 48.918 8.15959V8.1433C48.918 7.25806 49.1071 6.47872 49.4852 5.80529C49.8634 5.13185 50.3983 4.60505 51.0898 4.22489C51.7813 3.84473 52.6025 3.65464 53.5533 3.65464C54.1638 3.65464 54.7149 3.73068 55.2065 3.88274C55.6981 4.02938 56.1276 4.23847 56.495 4.51001C56.8624 4.78156 57.1595 5.09927 57.3864 5.46314H57.427V0.69751H59.5826V12.4527H57.427V10.8397H57.3864C57.1595 11.2036 56.8624 11.5213 56.495 11.7929C56.133 12.0644 55.7062 12.2762 55.2146 12.4283C54.723 12.5749 54.1719 12.6482 53.5614 12.6482ZM54.2422 10.9782C54.8905 10.9782 55.4523 10.8615 55.9277 10.6279C56.4032 10.3944 56.7705 10.0658 57.0299 9.64223C57.2946 9.21862 57.427 8.72441 57.427 8.15959V8.1433C57.427 7.57848 57.2946 7.08427 57.0299 6.66066C56.7651 6.23705 56.3951 5.90847 55.9196 5.67495C55.4496 5.44142 54.8905 5.32465 54.2422 5.32465C53.5885 5.32465 53.0266 5.4387 52.5566 5.6668C52.092 5.8949 51.7354 6.22075 51.4869 6.64436C51.2384 7.06254 51.1141 7.56219 51.1141 8.1433V8.15959C51.1141 8.7407 51.2384 9.24306 51.4869 9.66667C51.7354 10.0849 52.092 10.408 52.5566 10.6361C53.0266 10.8642 53.5885 10.9782 54.2422 10.9782Z" fill="#1B532B"/>
<path d="M45.3599 12.4532V3.85066H47.5236V12.4532H45.3599ZM46.4458 2.62056C46.0947 2.62056 45.8029 2.51194 45.5706 2.29471C45.3383 2.07747 45.2222 1.80864 45.2222 1.48821C45.2222 1.17322 45.3383 0.907106 45.5706 0.689869C45.8029 0.472632 46.0947 0.364014 46.4458 0.364014C46.797 0.364014 47.086 0.472632 47.3129 0.689869C47.5453 0.907106 47.6614 1.17322 47.6614 1.48821C47.6614 1.80864 47.5453 2.07747 47.3129 2.29471C47.086 2.51194 46.797 2.62056 46.4458 2.62056Z" fill="#1B532B"/>
<path d="M33.8457 12.4527V0.69751H36.0013V5.56904H36.0418C36.3606 4.96621 36.8333 4.49644 37.46 4.15972C38.0867 3.823 38.8268 3.65464 39.6804 3.65464C40.507 3.65464 41.2148 3.81486 41.8036 4.13528C42.3979 4.45571 42.8544 4.91733 43.1732 5.52017C43.4919 6.123 43.6513 6.84531 43.6513 7.6871V12.4527H41.4876V8.08627C41.4876 7.20103 41.2661 6.52489 40.8231 6.05783C40.3855 5.59077 39.7507 5.35724 38.9187 5.35724C38.3298 5.35724 37.8166 5.47672 37.379 5.71568C36.9414 5.94921 36.601 6.27778 36.3579 6.70139C36.1202 7.11957 36.0013 7.61378 36.0013 8.18403V12.4527H33.8457Z" fill="#1B532B"/>
<path d="M27.5887 12.6484C26.519 12.6484 25.5897 12.4637 24.801 12.0944C24.0176 11.7251 23.4098 11.2038 22.9776 10.5303C22.5508 9.85689 22.3374 9.06398 22.3374 8.15159V8.14344C22.3374 7.23105 22.5535 6.44085 22.9857 5.77284C23.4179 5.09941 24.0257 4.57804 24.8091 4.20874C25.5924 3.83944 26.5163 3.65479 27.5806 3.65479C28.5098 3.65479 29.3283 3.79599 30.036 4.0784C30.7437 4.3608 31.3137 4.75183 31.7459 5.25148C32.1781 5.75112 32.4455 6.33223 32.5482 6.9948L32.5563 7.06812H30.4574L30.4331 7.00295C30.271 6.48701 29.9496 6.07697 29.4687 5.77284C28.9879 5.46328 28.3747 5.3085 27.6292 5.3085C26.9917 5.3085 26.4406 5.42255 25.976 5.65065C25.5168 5.87875 25.1602 6.20732 24.9063 6.63636C24.6578 7.05997 24.5335 7.56233 24.5335 8.14344V8.15973C24.5335 8.7517 24.6578 9.25949 24.9063 9.6831C25.1602 10.1067 25.5168 10.4326 25.976 10.6607C26.4406 10.8833 26.9944 10.9947 27.6373 10.9947C28.372 10.9947 28.9798 10.8453 29.4606 10.5466C29.9469 10.2479 30.2737 9.83245 30.4412 9.30022L30.4574 9.23505H32.5644L32.5482 9.30837C32.4401 9.97637 32.1673 10.5629 31.7297 11.068C31.2921 11.5676 30.7194 11.9559 30.0117 12.2329C29.3094 12.5099 28.5017 12.6484 27.5887 12.6484Z" fill="#1B532B"/>
<path d="M16.2681 12.4536V3.85101L18.4237 3.85915V5.58618H18.4642C18.6533 4.98878 18.9909 4.52172 19.4772 4.18501C19.9634 3.84829 20.5577 3.67993 21.26 3.67993C21.4167 3.67993 21.5679 3.68808 21.7138 3.70437C21.8597 3.72066 21.9839 3.73967 22.0866 3.7614V5.59433C21.9515 5.56718 21.7976 5.54545 21.6247 5.52916C21.4518 5.51287 21.2708 5.50472 21.0817 5.50472C20.5415 5.50472 20.0714 5.60791 19.6717 5.81428C19.2719 6.01523 18.9639 6.31664 18.7478 6.71853C18.5317 7.11499 18.4237 7.60377 18.4237 8.18488V12.4536H16.2681Z" fill="#1B532B"/>
<path d="M7.66181 12.6739C6.22474 12.6739 4.97135 12.4268 3.90165 11.9326C2.83735 11.4329 2.01076 10.7269 1.42189 9.81451C0.833012 8.90211 0.538574 7.82408 0.538574 6.5804V6.5641C0.538574 5.32042 0.833012 4.2451 1.42189 3.33814C2.01076 2.42574 2.83735 1.72244 3.90165 1.22823C4.97135 0.728582 6.22474 0.47876 7.66181 0.47876C9.10428 0.47876 10.3577 0.728582 11.422 1.22823C12.4917 1.72244 13.3183 2.42574 13.9017 3.33814C14.4906 4.2451 14.785 5.32042 14.785 6.5641V6.5804C14.785 7.82408 14.4906 8.90211 13.9017 9.81451C13.3183 10.7269 12.4917 11.4329 11.422 11.9326C10.3577 12.4268 9.10428 12.6739 7.66181 12.6739ZM7.66181 10.8165C8.64507 10.8165 9.49867 10.6427 10.2226 10.2951C10.9465 9.94757 11.5084 9.45607 11.9082 8.82065C12.308 8.18523 12.5079 7.43848 12.5079 6.5804V6.5641C12.5079 5.70059 12.308 4.95384 11.9082 4.32385C11.5084 3.68843 10.9438 3.19965 10.2145 2.8575C9.49056 2.50992 8.63967 2.33613 7.66181 2.33613C6.68395 2.33613 5.83035 2.50992 5.10101 2.8575C4.37707 3.19965 3.81521 3.68843 3.41542 4.32385C3.02104 4.95384 2.82384 5.70059 2.82384 6.5641V6.5804C2.82384 7.44391 3.02104 8.19338 3.41542 8.8288C3.81521 9.46421 4.37707 9.95571 5.10101 10.3033C5.83035 10.6454 6.68395 10.8165 7.66181 10.8165Z" fill="#1B532B"/>
</svg>
