<svg width="284" height="282" viewBox="0 0 284 282" fill="none" xmlns="http://www.w3.org/2000/svg">
<path d="M160.279 131.087C160.279 131.087 161.919 116.938 164.582 108.726C167.244 100.527 170.992 88.9293 174.626 71.192C176.342 62.7781 177.086 54.7811 174.626 41.8571C172.165 28.9331 163.358 22.3763 158.853 15.8069C154.348 9.23752 152.708 1.65745 150.247 1.03841C147.787 0.419374 145.515 7.39304 140.001 13.9624C134.5 20.5318 124.847 26.6843 121.566 45.1418C118.285 63.5993 123.61 84.116 125.869 96.0167C128.128 107.917 130.071 122.105 129.352 129.9C129.15 132.123 127.093 133.74 115.825 123.494C104.557 113.249 97.9953 106.894 80.5822 106.073C63.1691 105.252 42.0715 114.689 34.8917 116.95C27.7246 119.212 24.242 120.639 15.8383 120.437C7.43454 120.235 2.52607 116.95 1.28948 118.176C0.0529009 119.401 2.92983 127.095 7.03075 131.555C11.1317 136.014 15.8382 138.187 19.3209 144.896C22.8035 151.604 26.9044 158.994 35.0936 160.22C43.2828 161.445 54.6266 156.127 61.5161 156.329C68.4183 156.531 75.6485 156.493 83.232 160.409C83.232 160.409 62.1344 165.147 45.5289 189.757C28.936 214.367 26.6773 224.891 23.6111 235.326C20.5322 245.761 17.6679 249.45 11.119 255.805C4.55757 262.159 4.15379 263.397 5.99605 265.646C7.8383 267.907 26.6899 265.444 45.327 252.722C63.9767 240 65.2006 233.443 72.5696 227.695C79.9513 221.947 84.1027 220.102 88.5821 216.211C93.0616 212.32 104.115 216.616 116.002 206.572C127.888 196.516 138.285 191.387 141.377 191.387H141.932C145.023 191.387 155.433 196.516 167.307 206.572C179.193 216.628 190.247 212.32 194.726 216.211C199.206 220.102 203.357 221.96 210.739 227.695C218.121 233.431 219.345 240 237.982 252.722C256.631 265.444 275.47 267.907 277.312 265.646C279.155 263.385 278.751 262.159 272.19 255.805C265.628 249.45 262.764 245.748 259.698 235.326C256.619 224.891 254.373 214.38 237.78 189.757C221.187 165.134 200.089 160.409 200.089 160.409C207.673 156.493 214.903 156.518 221.805 156.329C228.707 156.127 240.038 161.458 248.228 160.22C256.417 158.994 260.518 151.604 264 144.896C267.483 138.187 272.19 136.014 276.29 131.555C280.391 127.095 283.256 119.401 282.032 118.176C280.808 116.95 275.887 120.222 267.483 120.437C259.079 120.639 255.496 119.502 248.43 116.95C234.196 111.821 216.998 106.894 201.83 111.619C186.676 116.331 174.79 126.792 168.645 130.076C162.5 133.361 159.522 136.418 160.241 131.1L160.279 131.087Z" fill="#F9F8F4" stroke="#686F6B" stroke-width="1.12" stroke-miterlimit="10"/>
<path d="M141.843 196.112C145.528 196.112 145.73 201.443 158.234 212.321C170.726 223.198 184.657 223.868 197.565 219.914C207.609 216.831 215.597 207.609 218.877 189.353C222.158 171.098 217.237 154.687 206.423 146.69C197.275 139.919 184.657 138.895 171.546 143.203C158.436 147.511 150.853 156.746 141.843 156.746C132.834 156.746 125.25 147.511 112.14 143.203C99.0297 138.895 86.525 139.552 77.2632 146.69C65.5662 155.698 59.6735 171.54 64.8091 189.353C69.2759 204.817 76.0267 215.403 86.1212 219.914C98.4492 225.434 112.96 223.198 125.452 212.321C137.944 201.443 138.159 196.112 141.843 196.112Z" fill="#F9F8F4" stroke="#686F6B" stroke-width="1.12" stroke-miterlimit="10"/>
<path d="M144.307 128.623C150.604 129.495 153.935 140.473 156.799 153.208C159.663 165.942 163.562 176.201 160.282 178.867C160.282 178.867 159.878 185.638 164.383 191.993C168.887 198.347 169.909 199.99 173.19 208.404C176.471 216.817 188.345 222.149 194.502 223.993C200.647 225.838 201.467 228.503 199.827 233.43C198.187 238.357 195.322 244.712 189.998 248.401C184.673 252.09 183.651 257.636 174.023 263.17C164.395 268.703 157.228 276.296 150.667 278.355C144.105 280.402 136.736 283.484 125.266 277.534C113.796 271.583 107.853 265.431 98.4273 260.504C89.0015 255.577 82.0363 244.295 78.5536 239.381C75.071 234.454 74.8691 229.944 80.194 226.255C85.5189 222.566 91.0583 219.685 98.0235 216.817C104.989 213.95 107.247 207.368 112.774 202.352C118.301 197.337 119.739 192.005 121.998 187.899C124.257 183.794 125.481 177.843 125.481 177.843C125.481 177.843 121.594 177.022 124.459 168.406C127.323 159.79 136.951 127.587 144.332 128.611L144.307 128.623Z" fill="#F9F8F4" stroke="#686F6B" stroke-width="1.12" stroke-miterlimit="10"/>
<path d="M125.453 177.856C125.453 177.856 129.138 180.117 135.081 177.856C135.081 177.856 136.923 180.938 139.182 180.319C141.44 179.7 142.261 179.46 144.923 180.395C147.585 181.343 148.809 180.105 150.046 177.856C150.046 177.856 156.191 182.164 160.292 178.879" stroke="#686F6B" stroke-width="1.12" stroke-miterlimit="10" stroke-linecap="round"/>
<path d="M133.44 61.6158C133.566 67.604 133.882 73.0238 134.146 76.9401C134.411 80.8565 134.601 83.2821 134.449 83.3074C134.323 83.32 133.882 80.9197 133.427 77.0033C132.973 73.0869 132.544 67.6546 132.418 61.6284C132.292 55.6149 132.506 50.1572 132.796 46.2282C133.087 42.2992 133.427 39.8862 133.566 39.8862C133.717 39.8862 133.629 42.3371 133.516 46.2535C133.402 50.1825 133.314 55.6022 133.44 61.5905V61.6158Z" fill="#686F6B"/>
<path d="M149.21 44.498C149.488 53.8468 149.488 61.4269 149.21 61.4395C148.932 61.4395 148.478 53.8721 148.2 44.5359C147.923 35.1872 147.923 27.6071 148.2 27.5945C148.478 27.5945 148.932 35.1493 149.21 44.498Z" fill="#686F6B"/>
<path d="M161.614 69.1334C161.198 75.7786 160.251 81.7416 159.343 85.9991C158.889 88.1341 158.472 89.8397 158.132 91.0146C157.791 92.1895 157.576 92.8212 157.513 92.8085C157.362 92.7706 157.917 90.1429 158.649 85.8728C159.381 81.6026 160.201 75.6649 160.617 69.0703C161.021 62.4756 160.945 56.4874 160.756 52.1541C160.567 47.8208 160.34 45.1425 160.504 45.1299C160.58 45.1299 160.706 45.7868 160.895 46.987C161.084 48.1872 161.286 49.9432 161.475 52.1162C161.854 56.4495 162.043 62.4882 161.639 69.1334H161.614Z" fill="#686F6B"/>
<path d="M146.424 105.012C146.285 110.331 146.033 115.132 145.768 118.618C145.503 122.093 145.251 124.24 145.112 124.228C144.973 124.228 144.973 122.067 145.049 118.58C145.137 115.106 145.263 110.293 145.402 104.987C145.541 99.6809 145.654 94.8801 145.743 91.3933C145.844 87.9191 145.945 85.7588 146.096 85.7588C146.235 85.7588 146.386 87.9065 146.462 91.3933C146.55 94.8801 146.55 99.6935 146.424 105.012Z" fill="#686F6B"/>
<path d="M138.334 113.249C138.788 118.606 138.914 122.952 138.637 122.977C138.359 123.003 137.766 118.682 137.324 113.325C136.87 107.968 136.744 103.622 137.021 103.597C137.299 103.572 137.892 107.893 138.334 113.237V113.249Z" fill="#686F6B"/>
<path d="M154.122 116.66C153.176 120.918 152.002 124.278 151.737 124.202C151.46 124.127 152.192 120.678 153.125 116.445C154.072 112.213 154.867 108.777 155.157 108.827C155.434 108.878 155.068 112.402 154.122 116.66Z" fill="#686F6B"/>
<path d="M70.916 132.641C76.1778 132.3 81.1998 131.997 85.7802 132.035C90.3606 132.06 94.4994 132.389 97.9189 133.008C101.338 133.614 104.051 134.397 105.868 135.105C106.79 135.421 107.458 135.762 107.925 135.964C108.392 136.179 108.619 136.305 108.607 136.343C108.569 136.419 107.572 136.052 105.73 135.484C103.9 134.903 101.187 134.233 97.7928 133.728C94.3985 133.21 90.3102 132.957 85.7676 132.982C81.2251 133.008 76.2157 133.323 70.9665 133.665C65.7047 134.006 60.67 134.246 56.0896 134.119C51.5092 134.006 47.3704 133.551 43.9762 132.805C40.5819 132.073 37.9068 131.163 36.1276 130.38C35.2191 130.026 34.563 129.647 34.1087 129.42C33.6545 129.18 33.4273 129.041 33.44 129.015C33.5157 128.801 37.339 130.86 44.115 132.098C47.484 132.742 51.5597 133.109 56.1023 133.172C60.6448 133.235 65.6416 132.982 70.9034 132.641H70.916Z" fill="#686F6B"/>
<path d="M226.436 137.039C235.307 136.129 243.054 133.615 248.909 132.756C251.824 132.289 254.221 132.175 255.874 132.225C256.695 132.251 257.338 132.301 257.767 132.364C258.196 132.415 258.423 132.465 258.423 132.503C258.423 132.592 257.515 132.554 255.874 132.63C254.247 132.705 251.887 132.92 249.023 133.464C243.294 134.487 235.521 137.127 226.537 138.05C217.591 139.086 209.389 138.631 203.559 137.847C200.645 137.468 198.31 136.988 196.695 136.635C195.093 136.243 194.222 136.003 194.235 135.927C194.247 135.851 195.156 135.978 196.771 136.243C198.399 136.47 200.733 136.849 203.648 137.127C209.452 137.734 217.566 138.062 226.424 137.039H226.436Z" fill="#686F6B"/>
<path d="M38.5989 237.74C43.9995 232.206 48.6178 226.938 51.8606 223.047C53.4758 221.102 54.7881 219.522 55.6966 218.423C56.6051 217.337 57.135 216.743 57.1855 216.794C57.236 216.844 56.8196 217.501 56.012 218.676C55.2045 219.851 53.9805 221.506 52.4158 223.515C49.2991 227.532 44.744 232.901 39.3181 238.46C33.8797 244.006 28.6053 248.68 24.6684 251.877C22.7 253.481 21.0722 254.744 19.9113 255.578C18.7631 256.412 18.1069 256.854 18.0565 256.791C18.0186 256.74 18.5865 256.197 19.659 255.262C20.7315 254.328 22.2836 252.988 24.1889 251.321C27.9996 247.986 33.1731 243.261 38.5737 237.74H38.5989Z" fill="#686F6B"/>
<path d="M63.5998 209.086C65.0004 207.355 66.3254 206.104 66.5399 206.281C66.7544 206.458 65.7954 207.999 64.3822 209.73C62.9815 211.461 61.6566 212.712 61.4421 212.535C61.2276 212.358 62.1866 210.817 63.5872 209.086H63.5998Z" fill="#686F6B"/>
<path d="M48.0509 208.784C51.3695 204.83 54.789 201.583 57.4514 199.498C60.1139 197.401 61.9561 196.378 62.0192 196.479C62.1075 196.618 60.4293 197.843 57.9057 200.054C55.3821 202.252 52.1013 205.524 48.8206 209.454C45.5272 213.37 42.7639 217.11 40.745 219.801C38.726 222.492 37.4264 224.134 37.3128 224.046C37.1992 223.97 38.2844 222.176 40.1519 219.371C42.032 216.579 44.7197 212.751 48.0383 208.784H48.0509Z" fill="#686F6B"/>
<path d="M59.4952 227.885C62.4983 225.067 64.9967 222.313 66.7002 220.216C68.4036 218.131 69.3626 216.754 69.5014 216.83C69.6023 216.893 68.8579 218.422 67.2806 220.646C65.7034 222.882 63.2302 225.762 60.2018 228.618C57.1608 231.473 54.2208 233.797 52.0504 235.44C49.8801 237.07 48.4795 238.004 48.3912 237.903C48.3028 237.79 49.5394 236.653 51.5962 234.884C53.6403 233.103 56.5047 230.702 59.5078 227.885H59.4952Z" fill="#686F6B"/>
<path d="M125.931 141.789C129.073 142.042 131.319 143.355 131.193 143.583C131.079 143.861 128.782 143.027 125.842 142.8C122.902 142.534 120.505 142.976 120.442 142.686C120.353 142.433 122.789 141.511 125.931 141.789Z" fill="#686F6B"/>
<path d="M162.678 140.134C166.463 140.639 168.961 142.635 168.785 142.825C168.633 143.09 166.059 141.599 162.539 141.144C159.018 140.626 156.141 141.359 156.066 141.069C155.952 140.841 158.892 139.603 162.678 140.134Z" fill="#686F6B"/>
<path d="M238.032 228.593C239.786 231.309 241.477 233.874 243.092 236.135C244.732 238.384 246.285 240.355 247.723 241.883C250.575 244.978 252.72 246.494 252.606 246.659C252.568 246.722 252.013 246.368 251.029 245.686C250.537 245.357 249.944 244.915 249.325 244.347C248.695 243.791 247.938 243.172 247.206 242.389C245.666 240.898 244.038 238.94 242.335 236.691C240.657 234.429 238.928 231.865 237.174 229.149C235.42 226.433 233.742 223.868 232.14 221.581C230.512 219.32 228.985 217.336 227.572 215.783C224.77 212.649 222.651 211.083 222.777 210.931C222.815 210.881 223.37 211.234 224.329 211.942C224.821 212.283 225.401 212.738 226.02 213.319C226.651 213.887 227.395 214.519 228.102 215.302C229.616 216.818 231.218 218.789 232.909 221.038C234.562 223.312 236.278 225.889 238.032 228.593Z" fill="#686F6B"/>
<path d="M239.383 207.912C242.058 211.487 244.191 214.936 245.579 217.501C246.98 220.065 247.686 221.733 247.573 221.796C247.434 221.872 246.513 220.318 244.961 217.867C243.409 215.416 241.213 212.068 238.563 208.518C235.913 204.981 233.327 201.923 231.409 199.75C229.491 197.577 228.267 196.238 228.38 196.137C228.469 196.049 229.869 197.198 231.939 199.258C234.008 201.317 236.708 204.336 239.383 207.912Z" fill="#686F6B"/>
<path d="M219.632 223.956C222.509 226.887 224.439 229.629 224.225 229.805C223.998 229.982 221.752 227.569 218.9 224.676C216.061 221.77 213.689 219.471 213.878 219.244C214.054 219.029 216.755 221.012 219.619 223.956H219.632Z" fill="#686F6B"/>
<path d="M248.09 249.287C254.5 253.304 260.09 255.894 259.964 256.172C259.913 256.298 258.437 255.793 256.153 254.77C253.869 253.746 250.79 252.167 247.548 250.146C244.305 248.124 241.529 246.052 239.598 244.461C237.667 242.869 236.582 241.757 236.658 241.656C236.847 241.416 241.642 245.294 248.077 249.287H248.09Z" fill="#686F6B"/>
<path d="M253.627 234.833C254.46 236.438 254.826 237.878 254.561 237.992C254.296 238.106 253.526 236.867 252.718 235.301C251.911 233.722 251.368 232.382 251.608 232.231C251.848 232.092 252.794 233.216 253.627 234.833Z" fill="#686F6B"/>
<path d="M143.258 173.638C143.851 173.461 144.381 173.132 144.759 172.69C145.163 172.261 145.453 171.578 146.16 171.073C146.917 170.555 147.775 170.669 148.393 170.745C149.037 170.833 149.655 170.922 150.261 171.023C152.696 171.427 154.917 172.172 156.444 173.385C157.971 174.573 158.753 176.013 159.005 177.049C159.283 178.098 159.132 178.691 159.081 178.691C158.993 178.691 158.993 178.11 158.627 177.175C158.274 176.253 157.466 174.99 156.002 173.966C154.564 172.93 152.482 172.286 150.11 171.945C149.504 171.869 148.898 171.781 148.267 171.705C147.649 171.629 147.081 171.616 146.715 171.882C146.311 172.16 146.021 172.753 145.517 173.347C144.999 173.941 144.305 174.371 143.548 174.598C142.046 175.065 140.33 174.737 139.22 173.688C138.69 173.17 138.387 172.892 137.819 172.791C137.289 172.678 136.633 172.69 136.028 172.652C133.605 172.539 131.435 172.589 129.706 173.057C127.977 173.511 126.715 174.295 125.958 174.952C125.201 175.609 124.873 176.089 124.81 176.051C124.76 176.026 124.961 175.457 125.681 174.674C126.387 173.89 127.687 172.943 129.504 172.374C131.321 171.781 133.605 171.654 136.053 171.717C136.659 171.743 137.277 171.717 138.009 171.831C138.362 171.894 138.741 172.033 139.081 172.261C139.409 172.488 139.649 172.741 139.889 172.943C140.734 173.726 142.072 173.979 143.258 173.613V173.638Z" fill="#686F6B"/>
<path d="M132.835 177.061C134.096 176.808 135.257 176.391 136.052 175.722C136.443 175.393 136.734 175.002 136.898 174.597C137.062 174.218 137.036 173.801 136.948 173.435C136.746 172.69 136.242 172.222 135.863 172.058C135.459 171.906 135.182 171.957 135.156 171.868C135.131 171.818 135.396 171.603 135.964 171.666C136.519 171.742 137.276 172.247 137.642 173.195C137.806 173.662 137.907 174.269 137.693 174.863C137.516 175.431 137.15 175.974 136.671 176.417C135.712 177.301 134.387 177.781 133.024 178.046C131.649 178.324 130.298 178.324 129.1 178.135C127.926 177.971 126.765 177.579 126.097 176.796C125.403 176 125.415 175.077 125.63 174.572C125.844 174.041 126.172 173.928 126.197 173.966C126.261 174.016 126.071 174.231 126.008 174.673C125.945 175.09 126.071 175.798 126.614 176.29C127.169 176.821 128.115 177.086 129.226 177.2C130.336 177.326 131.573 177.288 132.822 177.048L132.835 177.061Z" fill="#686F6B"/>
<path d="M152.19 176.719C153.098 177.199 154.032 177.54 154.902 177.755C155.798 177.97 156.555 178.096 157.186 177.97C157.817 177.869 158.259 177.604 158.461 177.351C158.65 177.086 158.663 176.846 158.751 176.846C158.801 176.846 158.953 177.073 158.814 177.528C158.663 177.983 158.107 178.463 157.35 178.677C156.972 178.791 156.555 178.854 156.088 178.842C155.647 178.816 155.193 178.766 154.713 178.677C153.754 178.501 152.719 178.16 151.723 177.629C150.738 177.098 149.817 176.467 149.199 175.595C148.896 175.165 148.694 174.66 148.631 174.18C148.555 173.674 148.707 173.182 148.909 172.828C149.325 172.095 150.007 171.779 150.461 171.779C150.94 171.779 151.117 171.994 151.092 172.045C151.066 172.121 150.839 172.07 150.511 172.171C150.196 172.272 149.767 172.588 149.54 173.144C149.287 173.687 149.426 174.382 149.943 175.039C150.448 175.683 151.268 176.239 152.177 176.732L152.19 176.719Z" fill="#686F6B"/>
<path d="M140.796 234.757C141.654 234.82 142.361 234.328 142.727 233.544C143.106 232.786 143.093 231.826 143.03 230.866C142.967 229.906 142.815 228.946 142.714 227.948C142.664 227.455 142.639 226.899 142.752 226.356C142.853 225.8 143.08 225.333 143.232 224.916C143.598 224.031 143.522 223.412 143.181 222.465C143.03 221.985 142.929 221.442 142.992 220.873C143.055 220.267 143.446 219.774 143.661 219.433C144.658 218.081 144.128 216.211 144.216 214.43C144.216 213.546 144.241 212.674 144.229 211.84C144.229 211.423 144.203 211.006 144.165 210.602C144.128 210.223 144.052 209.756 144.064 209.301C144.077 208.391 144.355 207.557 144.317 206.888C144.317 206.269 143.762 205.549 143.673 204.626C143.56 203.641 144.077 202.87 144.279 202.239C144.506 201.62 144.456 200.925 144.38 200.205C144.342 199.838 144.304 199.472 144.317 199.08C144.317 198.727 144.329 198.373 144.342 198.019C144.367 197.312 144.367 196.617 144.557 195.909C144.733 195.189 145.2 194.633 145.15 194.179C145.124 193.673 144.834 193.092 144.607 192.562C144.304 192.018 144.216 191.26 144.304 190.704C144.393 190.111 144.443 189.643 144.443 189.1C144.355 186.965 144.784 185.146 144.683 183.693C144.594 182.253 144.165 181.128 143.572 180.661C142.992 180.181 142.55 180.092 142.576 180.042C142.576 180.029 142.689 180.042 142.878 180.092C143.068 180.155 143.358 180.257 143.699 180.497C144.393 180.964 144.923 182.152 145.074 183.655C145.251 185.184 144.859 186.99 145.011 189.087C145.036 189.605 144.973 190.237 144.91 190.755C144.847 191.311 144.91 191.753 145.188 192.284C145.427 192.839 145.755 193.37 145.831 194.141C145.869 194.532 145.717 194.924 145.579 195.227C145.44 195.53 145.326 195.796 145.251 196.099C145.099 196.667 145.099 197.35 145.087 198.044C145.087 198.386 145.087 198.739 145.087 199.093C145.087 199.422 145.124 199.763 145.162 200.129C145.251 200.849 145.326 201.683 145.049 202.504C144.784 203.287 144.405 203.906 144.506 204.538C144.557 204.854 144.67 205.208 144.822 205.549C144.973 205.89 145.175 206.357 145.188 206.837C145.225 207.785 144.948 208.555 144.96 209.313C144.96 209.68 145.023 210.059 145.074 210.514C145.124 210.943 145.137 211.385 145.15 211.828C145.175 212.699 145.15 213.571 145.15 214.443C145.137 215.327 145.213 216.161 145.225 217.108C145.225 217.576 145.2 218.068 145.087 218.574C144.973 219.079 144.733 219.559 144.468 219.976C144.191 220.406 143.976 220.684 143.951 221.012C143.913 221.378 143.964 221.77 144.102 222.187C144.241 222.604 144.43 223.109 144.456 223.678C144.494 224.259 144.317 224.802 144.153 225.257C143.976 225.737 143.787 226.154 143.724 226.546C143.648 226.95 143.661 227.379 143.711 227.847C143.799 228.794 143.964 229.767 144.039 230.778C144.09 231.776 144.153 232.888 143.635 233.961C143.383 234.479 143.017 234.972 142.487 235.301C141.97 235.642 141.339 235.781 140.746 235.755C140.153 235.73 139.585 235.553 139.093 235.301C138.601 235.035 138.121 234.719 137.743 234.227C137.036 233.254 136.897 232.13 136.859 231.106C136.847 230.588 136.86 230.07 136.91 229.578C136.96 229.06 136.986 228.668 136.948 228.2C136.872 227.304 136.544 226.432 136.304 225.459C136.052 224.486 136.001 223.4 136.254 222.402C136.506 221.416 136.948 220.583 137.061 219.787C137.188 218.991 136.986 218.081 137.011 217.121C137.011 216.237 136.973 215.352 136.923 214.481C136.859 213.596 136.809 212.737 136.759 211.878C136.683 211.032 136.759 210.059 136.948 209.238C137.352 207.557 137.869 206.117 137.642 204.601C137.49 203.073 137.326 201.455 137.73 199.965C138.096 198.638 137.919 197.261 137.945 195.897C137.945 195.215 138.033 194.52 138.159 193.901C138.285 193.282 138.386 192.688 138.475 192.094C138.651 190.919 138.777 189.807 138.866 188.746C139.03 186.636 139.295 184.805 139.661 183.352C140.027 181.912 140.494 180.749 141.225 180.269C141.591 180.029 141.957 180.08 142.146 180.168C142.336 180.257 142.424 180.32 142.412 180.332C142.412 180.358 142.298 180.307 142.121 180.269C141.932 180.219 141.629 180.219 141.352 180.446C140.758 180.901 140.355 182.025 140.065 183.453C139.762 184.893 139.572 186.7 139.459 188.797C139.396 189.858 139.295 190.995 139.143 192.183C139.068 192.776 138.967 193.395 138.853 194.027C138.727 194.646 138.676 195.24 138.676 195.897C138.676 197.185 138.891 198.638 138.5 200.142C138.159 201.481 138.311 202.946 138.487 204.513C138.588 205.283 138.576 206.206 138.399 207.014C138.235 207.835 137.995 208.631 137.831 209.415C137.654 210.223 137.604 210.956 137.68 211.815C137.743 212.674 137.806 213.533 137.869 214.417C137.932 215.302 137.983 216.199 137.983 217.121C137.957 217.967 138.184 218.864 138.046 219.913C137.894 220.949 137.427 221.795 137.225 222.629C137.024 223.463 137.049 224.322 137.289 225.206C137.503 226.091 137.869 227.038 137.97 228.099C138.033 228.605 137.995 229.199 137.945 229.653C137.907 230.133 137.882 230.601 137.894 231.068C137.919 231.991 138.083 232.951 138.576 233.608C139.068 234.214 139.989 234.707 140.809 234.745L140.796 234.757Z" fill="#686F6B"/>
<path d="M139.153 253.745C139.393 256.171 139.708 258.496 139.809 260.643C139.923 262.791 139.834 264.736 139.569 266.354C139.43 267.149 139.38 267.806 139.481 268.413C139.582 269.019 139.733 269.562 139.771 270.03C139.847 271.003 139.506 271.457 139.468 271.445C139.38 271.42 139.557 270.927 139.38 270.093C139.292 269.676 139.09 269.171 138.926 268.527C138.749 267.87 138.762 267.061 138.863 266.265C139.027 264.699 139.039 262.804 138.875 260.706C138.711 258.609 138.383 256.31 138.131 253.846C137.601 248.894 138.08 244.435 138.206 241.238C138.396 238.042 138.408 236.059 138.547 236.046C138.686 236.046 138.926 238.029 138.926 241.251C138.976 244.472 138.635 248.919 139.14 253.733L139.153 253.745Z" fill="#686F6B"/>
<path d="M141.499 252.369C141.525 254.428 141.891 256.399 141.954 258.269C141.991 259.204 141.954 260.101 141.84 260.935C141.701 261.781 141.512 262.489 141.386 263.171C141.108 264.51 140.931 265.597 140.944 266.342C140.931 267.1 141.209 267.391 141.171 267.454C141.159 267.479 141.045 267.429 140.894 267.264C140.767 267.088 140.616 266.784 140.566 266.38C140.427 265.571 140.503 264.434 140.692 263.057C140.78 262.375 140.931 261.604 141.02 260.846C141.096 260.076 141.096 259.229 141.02 258.332C140.906 256.551 140.515 254.567 140.477 252.407C140.439 250.272 140.553 248.276 140.49 246.482C140.414 244.7 140.263 243.007 140.351 241.618C140.414 240.215 140.641 239.078 140.957 238.333C141.26 237.588 141.588 237.272 141.626 237.297C141.701 237.335 141.499 237.714 141.335 238.447C141.159 239.179 141.045 240.266 141.07 241.618C141.07 242.982 141.285 244.574 141.424 246.431C141.537 248.276 141.449 250.297 141.487 252.369H141.499Z" fill="#686F6B"/>
<path d="M129.842 190.327C130.397 191.552 131.344 192.677 131.71 194.054C131.975 195.443 131.899 196.53 131.848 197.528C131.773 198.501 131.621 199.297 131.407 199.815C131.192 200.345 130.94 200.56 130.889 200.522C130.826 200.472 130.953 200.219 131.028 199.714C131.117 199.208 131.154 198.45 131.129 197.515C131.091 196.606 131.053 195.393 130.801 194.306C130.486 193.207 129.577 192.159 128.908 190.744C128.744 190.39 128.618 189.986 128.58 189.543V189.379C128.568 189.303 128.58 189.202 128.58 189.139C128.618 188.988 128.656 188.887 128.694 188.798C128.782 188.609 128.871 188.457 128.934 188.305C129.009 188.166 129.072 188.027 129.11 187.914C129.148 187.787 129.148 187.749 129.161 187.585C129.161 187.307 129.11 187.029 129.022 186.764C128.858 186.221 128.58 185.753 128.252 185.349C127.912 184.919 127.558 184.515 127.268 184.111C126.637 183.29 126.511 182.367 126.536 181.837C126.561 181.281 126.65 180.99 126.713 180.99C126.789 180.99 126.826 181.294 126.927 181.799C127.028 182.317 127.218 182.999 127.836 183.669C128.126 184.01 128.505 184.376 128.883 184.806C129.3 185.248 129.665 185.816 129.905 186.473C130.019 186.802 130.107 187.168 130.12 187.56C130.132 187.724 130.12 188.027 130.044 188.217C129.981 188.419 129.893 188.596 129.817 188.76C129.653 189.101 129.489 189.354 129.565 189.468C129.59 189.746 129.678 190.036 129.817 190.339L129.842 190.327Z" fill="#686F6B"/>
<path d="M133.54 189.189C133.678 190.529 133.111 191.741 132.858 192.651C132.732 193.106 132.656 193.599 132.707 193.927C132.77 194.306 132.959 194.723 133.022 195.178C133.161 196.138 132.757 196.757 132.606 197.149C132.417 197.54 132.328 197.768 132.253 197.755C132.19 197.755 132.152 197.477 132.227 197.035C132.278 196.593 132.505 195.961 132.316 195.342C132.227 195.014 132.013 194.647 131.874 194.117C131.748 193.535 131.824 193.005 131.937 192.449C132.177 191.35 132.631 190.377 132.505 189.265C132.48 188.671 132.429 188.065 132.48 187.446C132.518 186.827 132.707 186.208 132.972 185.702C133.54 184.704 134.108 184.035 134.448 183.352C135.155 182.039 135.003 181.015 135.18 181.003C135.281 180.952 135.735 182.026 135.104 183.643C134.827 184.426 134.234 185.273 133.817 186.107C133.388 186.953 133.451 187.976 133.527 189.215L133.54 189.189Z" fill="#686F6B"/>
<path d="M153.088 190.895C153.277 192.121 153.731 193.296 154.021 194.445C154.173 195.026 154.274 195.57 154.311 196.126C154.349 196.694 154.261 197.2 154.16 197.642C153.958 198.513 153.744 199.158 153.655 199.625C153.567 200.08 153.554 200.358 153.479 200.358C153.416 200.358 153.289 200.105 153.264 199.587C153.226 199.082 153.352 198.349 153.453 197.515C153.58 196.669 153.453 195.772 153.113 194.685C152.797 193.612 152.293 192.437 152.078 191.034C151.851 189.632 152.141 188.293 151.864 187.396C151.624 186.461 150.703 185.981 150.009 185.387C149.289 184.831 148.873 184.098 148.759 183.606C148.621 183.113 148.646 182.835 148.709 182.81C148.898 182.734 149.05 183.934 150.45 184.806C150.804 185.046 151.195 185.261 151.649 185.602C152.091 185.93 152.545 186.435 152.759 187.092C153.176 188.406 152.86 189.67 153.088 190.883V190.895Z" fill="#686F6B"/>
<path d="M155.835 189.947C155.886 191.134 155.696 192.195 155.52 193.143C155.343 194.091 155.179 194.912 155.103 195.607C154.914 196.996 155.141 197.855 154.99 197.906C154.876 197.969 154.371 197.097 154.384 195.569C154.321 194.065 154.864 192.057 154.813 189.997C154.813 188.999 154.296 188.001 154.51 186.813C154.775 185.664 155.52 185.032 155.987 184.514C157.009 183.541 157.135 182.657 157.299 182.682C157.362 182.682 157.412 182.922 157.337 183.352C157.274 183.781 156.996 184.388 156.542 184.969C156.125 185.55 155.545 186.207 155.431 186.978C155.293 187.723 155.772 188.734 155.823 189.947H155.835Z" fill="#686F6B"/>
<path d="M110.843 167.914C112.382 168.912 113.934 169.683 115.423 170.213C116.912 170.693 118.313 170.984 119.499 171.022C121.884 171.136 123.36 170.693 123.411 170.883C123.436 170.946 123.082 171.098 122.414 171.3C122.086 171.414 121.669 171.54 121.177 171.59C120.685 171.641 120.117 171.78 119.499 171.742C118.237 171.793 116.736 171.565 115.133 171.11C113.556 170.592 111.89 169.809 110.288 168.773C107.108 166.663 104.748 164.136 103.158 162.254C101.581 160.359 100.761 159.07 100.862 158.995C100.975 158.893 101.997 160.03 103.688 161.774C105.379 163.517 107.777 165.893 110.83 167.927L110.843 167.914Z" fill="#686F6B"/>
<path d="M112.103 181.495C114.854 181.091 117.276 180.118 118.929 179.322C120.595 178.514 121.453 177.743 121.566 177.857C121.667 177.933 120.936 178.943 119.283 179.954C117.642 180.965 115.194 182.076 112.242 182.506C109.226 182.885 106.576 182.026 104.835 181.331C103.081 180.598 102.059 180.03 102.109 179.903C102.16 179.764 103.295 180.106 105.074 180.649C106.854 181.167 109.365 181.849 112.115 181.495H112.103Z" fill="#686F6B"/>
<path d="M109.175 195.531C113.377 192.941 116.847 190.099 118.929 187.635C121.036 185.197 121.819 183.314 121.983 183.39C122.046 183.415 121.907 183.908 121.541 184.754C121.162 185.601 120.494 186.776 119.484 188.09C117.491 190.743 113.983 193.775 109.718 196.39C107.61 197.742 105.377 198.778 103.27 199.397C101.175 200.041 99.2193 200.332 97.5789 200.484C94.2982 200.762 92.2667 200.534 92.2794 200.42C92.2794 200.256 94.2982 200.231 97.5032 199.776C100.683 199.321 105.074 198.247 109.188 195.531H109.175Z" fill="#686F6B"/>
<path d="M176.076 171.615C179.597 171.034 182.587 169.72 184.568 168.495C186.575 167.282 187.622 166.233 187.736 166.36C187.824 166.436 186.941 167.674 184.959 169.101C183.004 170.516 179.9 172.02 176.24 172.613C174.411 172.917 172.657 173.068 171.029 172.904C169.414 172.727 168.038 172.361 166.89 172.095C164.594 171.502 163.155 171.439 163.143 171.287C163.13 171.148 164.657 170.971 167.029 171.388C168.215 171.565 169.591 171.855 171.117 171.969C172.619 172.07 174.335 171.906 176.076 171.615Z" fill="#686F6B"/>
<path d="M174.332 183.087C177.487 184.072 180.49 184.502 182.635 184.464C184.806 184.464 186.03 183.858 186.093 183.997C186.181 184.085 184.957 184.982 182.673 185.171C180.414 185.399 177.298 185.058 174.03 184.047C172.402 183.554 170.862 182.822 169.651 181.937C168.427 181.053 167.493 180.067 166.774 179.208C165.361 177.477 164.692 176.277 164.793 176.201C164.919 176.1 165.79 177.162 167.304 178.728C168.061 179.499 169.008 180.383 170.181 181.167C171.355 181.962 172.755 182.594 174.332 183.074V183.087Z" fill="#686F6B"/>
<path d="M179.094 197.83C181.605 199.346 184.166 200.496 186.601 201.153C189.037 201.835 191.333 201.999 193.239 201.936C197.074 201.759 199.358 200.837 199.409 201.026C199.434 201.089 198.879 201.355 197.844 201.721C196.797 202.062 195.245 202.479 193.276 202.643C191.308 202.808 188.911 202.707 186.362 202.05C183.813 201.418 181.138 200.256 178.564 198.689C175.989 197.122 173.718 195.328 171.889 193.471C170.034 191.627 168.595 189.769 167.46 188.178C166.324 186.573 165.491 185.234 164.936 184.286C164.381 183.339 164.116 182.796 164.166 182.758C164.305 182.669 165.655 184.678 168.027 187.748C170.387 190.805 174.008 194.81 179.081 197.817L179.094 197.83Z" fill="#686F6B"/>
<path d="M192.77 231.89C192.379 232.787 191.609 233.242 191.433 233.027C191.243 232.813 191.521 232.219 191.849 231.461C192.19 230.703 192.581 230.084 192.859 230.159C193.124 230.235 193.161 231.019 192.77 231.89Z" fill="#686F6B"/>
<path d="M194.118 233.848C193.866 234.24 193.538 234.543 193.273 234.454C193.008 234.379 192.932 233.823 193.26 233.305C193.576 232.774 194.118 232.597 194.295 232.812C194.484 233.027 194.358 233.444 194.118 233.835V233.848Z" fill="#686F6B"/>
<path d="M190.752 237.79C190.449 238.409 190.273 238.94 189.982 238.99C189.705 239.041 189.415 238.22 189.818 237.373C190.21 236.565 190.765 236.186 191.005 236.325C191.257 236.476 191.055 237.158 190.752 237.79Z" fill="#686F6B"/>
<path d="M54.3235 185.109C54.9418 184.237 55.8882 183.946 56.0017 184.212C56.1153 184.464 55.661 184.982 55.1311 185.715C54.5885 186.448 53.9828 187.042 53.743 186.877C53.5159 186.726 53.7052 185.942 54.3235 185.109Z" fill="#686F6B"/>
<path d="M58.0052 184.426C58.6235 183.984 59.2544 184.148 59.2797 184.426C59.3175 184.704 58.9516 184.982 58.6109 185.247C58.2576 185.5 57.9043 185.765 57.6393 185.651C57.3869 185.563 57.3995 184.893 58.0052 184.426Z" fill="#686F6B"/>
<path d="M55.065 188.28C55.8221 187.56 56.6675 187.256 56.8189 187.496C56.9704 187.736 56.4656 188.355 55.7716 189.025C55.065 189.695 54.371 190.149 54.1565 189.96C53.9546 189.77 54.3206 189 55.065 188.28Z" fill="#686F6B"/>
<path d="M213.739 191.93C213.562 192.739 213.209 193.32 212.944 193.244C212.679 193.168 212.591 192.473 212.755 191.69C212.919 190.907 213.285 190.313 213.55 190.376C213.827 190.439 213.903 191.134 213.739 191.93Z" fill="#686F6B"/>
<path d="M215.896 188.026C215.846 188.961 215.442 189.593 215.177 189.542C214.887 189.492 214.836 188.759 214.874 187.976C214.925 187.205 214.912 186.586 215.177 186.46C215.429 186.333 215.947 187.054 215.896 188.014V188.026Z" fill="#686F6B"/>
<path d="M215.005 195.632C214.664 196.592 214.437 197.299 214.172 197.337C213.869 197.375 213.68 196.352 214.033 195.328C214.374 194.33 214.714 193.635 214.992 193.648C215.295 193.648 215.358 194.646 215.005 195.632Z" fill="#686F6B"/>
<path d="M208.794 113.78C209.236 113.552 209.753 113.439 210.132 113.502C210.51 113.552 210.7 113.729 210.687 113.856C210.599 114.133 210.031 114.26 209.236 114.702C208.82 114.904 208.365 115.068 208.012 115.094C207.659 115.119 207.431 115.018 207.406 114.892C207.406 114.614 207.936 114.26 208.794 113.792V113.78Z" fill="#686F6B"/>
<path d="M206.724 117.04C207.834 116.711 208.831 116.85 208.843 117.141C208.856 117.419 208.036 117.722 207.001 118.025C205.967 118.328 205.045 118.442 204.944 118.164C204.856 117.911 205.613 117.368 206.724 117.04Z" fill="#686F6B"/>
<path d="M214.446 115.864C215.506 115.827 216.327 115.864 216.415 116.117C216.516 116.395 215.607 116.85 214.51 116.888C213.412 116.926 212.579 116.799 212.528 116.534C212.465 116.244 213.374 115.915 214.459 115.877L214.446 115.864Z" fill="#686F6B"/>
<path d="M68.8832 143.076C72.2396 143.039 74.9778 142.255 75.0535 142.571C75.1292 142.773 72.492 144.037 68.8832 144.087C65.2365 144.075 62.6498 142.558 62.7634 142.356C62.8769 142.053 65.5267 143.064 68.8832 143.064V143.076Z" fill="#686F6B"/>
<path d="M92.2771 120.917C96.2518 122.636 99.6461 124.556 101.943 126.211C104.239 127.866 105.45 129.142 105.362 129.23C105.261 129.357 103.898 128.283 101.539 126.805C99.1918 125.327 95.7723 123.52 91.8859 121.852C87.9995 120.248 84.1383 119.856 81.375 119.515C78.599 119.199 76.8703 118.921 76.8829 118.77C76.8955 118.631 78.6242 118.656 81.438 118.795C84.214 118.959 88.214 119.237 92.2645 120.905L92.2771 120.917Z" fill="#686F6B"/>
<path d="M184.694 127.829C186.776 126.629 188.807 125.77 190.334 125.327C191.861 124.885 192.845 124.809 192.87 124.936C192.908 125.087 192 125.403 190.574 126.01C189.148 126.603 187.242 127.538 185.198 128.713C181.148 131.114 177.88 133.211 177.703 132.946C177.577 132.743 180.555 130.292 184.694 127.841V127.829Z" fill="#686F6B"/>
<path d="M248.078 152.704C250.235 152.274 252.04 151.289 253.352 150.594C254.652 149.874 255.472 149.419 255.56 149.545C255.636 149.646 254.967 150.316 253.731 151.213C252.494 152.072 250.639 153.234 248.267 153.714C245.895 154.169 243.724 153.765 242.273 153.373C240.81 152.956 239.952 152.552 239.989 152.426C240.027 152.274 240.948 152.438 242.425 152.666C243.888 152.868 245.92 153.133 248.078 152.716V152.704Z" fill="#686F6B"/>
<path d="M162.801 33.9359C163.04 34.5423 163.129 35.174 163.078 35.6162C163.028 36.071 162.876 36.3237 162.738 36.3111C162.46 36.2605 162.308 35.3762 161.854 34.2896C161.387 33.1779 161.223 32.0787 161.514 32.0029C161.766 31.9524 162.308 32.7357 162.801 33.9233V33.9359Z" fill="#686F6B"/>
<path d="M164.811 32.3826C165.038 33.128 165.189 33.646 165 33.8481C164.798 34.0755 164.104 33.5449 163.852 32.7111C163.612 31.9278 163.549 31.3593 163.776 31.1824C164.016 31.0055 164.583 31.5993 164.823 32.3826H164.811Z" fill="#686F6B"/>
<path d="M166.451 39.9244C166.792 41.5542 166.502 42.8934 166.237 42.8808C165.946 42.8808 165.782 41.6174 165.454 40.1392C165.152 38.6611 164.76 37.4861 165 37.3345C165.24 37.1829 166.111 38.282 166.451 39.9244Z" fill="#686F6B"/>
<path d="M9.62944 128.46C11.0048 129.787 12.5316 130.747 13.5411 131.581C14.5758 132.402 15.1184 133.033 15.03 133.135C14.9417 133.248 14.2603 132.819 13.1373 132.174C12.0395 131.505 10.4244 130.633 8.92282 129.193C8.15311 128.435 7.63578 127.538 7.28247 126.729C6.92916 125.921 6.67678 125.188 6.43704 124.607C5.97016 123.419 5.5033 122.787 5.61686 122.686C5.70519 122.585 6.41181 123.116 7.08058 124.291C7.7872 125.441 8.31716 127.197 9.64207 128.473L9.62944 128.46Z" fill="#686F6B"/>
<path d="M18.9425 136.949C19.2958 137.366 19.5103 137.859 19.5355 138.25C19.5734 138.629 19.4598 138.869 19.321 138.882C19.0308 138.882 18.7532 138.263 18.1602 137.606C17.5671 136.924 17.0624 136.216 17.2769 136.014C17.4661 135.825 18.2232 136.141 18.9425 136.962V136.949Z" fill="#686F6B"/>
<path d="M38.1465 154.952C40.3169 155.041 42.3484 154.421 43.8878 154.295C45.4272 154.118 46.3988 154.333 46.3736 154.459C46.3736 154.611 45.4398 154.662 44.0013 155.003C42.5503 155.293 40.5566 156.051 38.0834 155.963C35.6734 155.862 33.604 154.864 32.38 153.941C31.1308 153.019 30.5125 152.312 30.5882 152.211C30.6766 152.084 31.4715 152.615 32.7586 153.335C34.0456 154.068 35.9131 154.851 38.1339 154.952H38.1465Z" fill="#686F6B"/>
<path d="M50.5739 153.954C51.3057 153.954 51.9114 154.182 51.9114 154.459C51.9114 154.737 51.3183 154.965 50.5739 154.965C49.8294 154.965 49.2363 154.737 49.2363 154.459C49.2363 154.182 49.8294 153.954 50.5739 153.954Z" fill="#686F6B"/>
<path d="M259.356 144.946C260.504 144.138 261.248 143.481 261.488 143.595C261.602 143.67 261.551 143.999 261.286 144.428C261.021 144.858 260.529 145.338 259.974 145.768C258.826 146.576 258.043 147.22 257.804 147.094C257.69 147.018 257.753 146.69 258.031 146.273C258.308 145.856 258.788 145.389 259.356 144.959V144.946Z" fill="#686F6B"/>
<path d="M259.508 123.558C262.12 123.836 264.517 123.887 266.271 124.039C268.012 124.178 269.085 124.38 269.085 124.519C269.085 124.658 268 124.708 266.259 124.759C264.517 124.797 262.095 124.86 259.407 124.582C256.719 124.329 254.334 123.558 252.719 122.851C251.104 122.143 250.17 121.575 250.233 121.449C250.297 121.31 251.319 121.663 252.972 122.181C254.625 122.699 256.896 123.318 259.52 123.571L259.508 123.558Z" fill="#686F6B"/>
<path d="M273.213 122.371C273.97 122.068 274.702 122.004 274.803 122.27C274.904 122.522 274.387 123.002 273.579 123.331C272.759 123.659 271.976 123.584 271.939 123.306C271.888 123.028 272.469 122.687 273.213 122.383V122.371Z" fill="#686F6B"/>
<path d="M75.5232 154.46C77.3529 152.3 79.2961 150.657 80.6715 149.47C82.0595 148.295 82.9428 147.587 83.0437 147.688C83.1446 147.789 82.438 148.686 81.1636 149.988C79.9018 151.314 78.0595 153.02 76.3055 155.104C74.5264 157.151 73.3907 159.438 72.356 160.916C71.3592 162.432 70.6778 163.341 70.5517 163.266C70.4255 163.19 70.8923 162.154 71.7378 160.537C72.6337 158.958 73.6557 156.608 75.5232 154.447V154.46Z" fill="#686F6B"/>
<path d="M89.0637 144.82C90.6663 144.34 92.0164 144.353 92.0669 144.618C92.1174 144.909 90.8682 145.338 89.3667 145.793C87.8525 146.223 86.7041 146.69 86.5401 146.475C86.3635 146.248 87.4613 145.288 89.0764 144.82H89.0637Z" fill="#686F6B"/>
<path d="M207.471 151.971C208.733 153.386 209.768 154.864 210.588 156.279C211.383 157.707 211.988 159.059 212.367 160.234C213.149 162.571 213.25 164.112 213.137 164.125C212.973 164.163 212.619 162.697 211.698 160.486C210.777 158.275 209.162 155.37 206.727 152.666C204.279 149.975 201.553 148.067 199.446 146.93C197.351 145.781 195.925 145.288 195.976 145.124C196.001 145.023 197.515 145.263 199.774 146.286C200.897 146.779 202.184 147.511 203.522 148.459C204.846 149.419 206.209 150.594 207.484 151.996L207.471 151.971Z" fill="#686F6B"/>
<path d="M214.183 169.708C214.246 170.555 214.07 171.262 213.779 171.288C213.489 171.313 213.224 170.631 213.161 169.784C213.098 168.938 213.275 168.23 213.565 168.205C213.855 168.18 214.12 168.862 214.183 169.708Z" fill="#686F6B"/>
<path d="M113.274 210.046C114.132 209.339 114.839 208.732 115.066 208.897C115.293 209.048 114.889 210.021 113.917 210.817C112.958 211.626 111.936 211.853 111.823 211.6C111.697 211.335 112.428 210.754 113.274 210.034V210.046Z" fill="#686F6B"/>
<path d="M150.298 141.573C150.942 143.569 151.219 145.426 151.371 146.766C151.51 148.105 151.51 148.951 151.371 148.976C151.232 149.002 150.98 148.193 150.664 146.892C150.336 145.591 149.945 143.797 149.339 141.889C148.734 139.981 147.951 138.351 147.245 137.24C146.563 136.128 146.021 135.483 146.134 135.37C146.223 135.281 146.942 135.749 147.825 136.81C148.721 137.871 149.667 139.564 150.298 141.56V141.573Z" fill="#686F6B"/>
<path d="M146.889 142.192C147.595 144.049 147.293 145.679 147.028 145.654C146.737 145.654 146.573 144.188 145.942 142.546C145.337 140.903 144.491 139.703 144.706 139.501C144.883 139.299 146.195 140.322 146.889 142.192Z" fill="#686F6B"/>
<path d="M128.62 166.954C127.737 169.455 127.775 171.679 127.484 171.692C127.232 171.755 126.702 169.367 127.661 166.613C128.595 163.859 130.475 162.292 130.639 162.507C130.866 162.709 129.465 164.427 128.62 166.941V166.954Z" fill="#686F6B"/>
<path d="M132.243 175.672C133.681 175.709 134.691 174.989 134.892 175.191C134.981 175.28 134.842 175.634 134.375 176C133.921 176.366 133.126 176.695 132.23 176.682C131.322 176.682 130.539 176.328 130.098 175.949C129.643 175.57 129.504 175.217 129.605 175.128C129.807 174.926 130.804 175.672 132.243 175.659V175.672Z" fill="#686F6B"/>
<path d="M153.856 175.28C155.118 175.886 156.316 175.621 156.43 175.873C156.48 175.987 156.215 176.265 155.66 176.417C155.105 176.581 154.26 176.568 153.439 176.189C152.619 175.823 152.052 175.191 151.812 174.661C151.559 174.13 151.597 173.751 151.723 173.713C152.001 173.625 152.569 174.698 153.869 175.254L153.856 175.28Z" fill="#686F6B"/>
<path d="M142.688 176.48C143.823 176.353 144.82 176.745 145.401 177.162C145.994 177.591 146.195 178.008 146.095 178.097C145.918 178.312 144.593 177.288 142.789 177.49C142.36 177.541 141.88 177.667 141.375 177.68C140.883 177.718 140.353 177.579 140.038 177.339C139.697 177.099 139.52 176.783 139.495 176.555C139.47 176.315 139.546 176.202 139.609 176.202C139.748 176.202 139.886 176.555 140.391 176.707C140.883 176.922 141.552 176.656 142.688 176.48Z" fill="#686F6B"/>
<path d="M81.8674 235.541C82.3595 236.893 83.3437 237.866 84.0629 238.573C84.7948 239.281 85.249 239.748 85.1607 239.862C85.085 239.976 84.4793 239.723 83.6086 239.129C82.7506 238.548 81.514 237.537 80.9084 235.895C80.3153 234.278 80.5046 232.661 80.9084 231.65C81.3122 230.614 81.8295 230.159 81.9304 230.235C82.0566 230.323 81.779 230.892 81.6024 231.852C81.4131 232.799 81.3752 234.177 81.8799 235.541H81.8674Z" fill="#686F6B"/>
<path d="M88.7862 243.955C89.2657 244.536 89.5938 245.118 89.4045 245.332C89.2278 245.547 88.5465 245.269 88.0039 244.6C87.4613 243.943 87.3099 243.223 87.5497 243.084C87.802 242.945 88.2941 243.374 88.7862 243.955Z" fill="#686F6B"/>
<path d="M144.746 276.373C147.068 275.88 148.973 274.693 150.349 273.859C151.724 273.012 152.595 272.482 152.683 272.608C152.759 272.722 152.052 273.442 150.765 274.453C149.478 275.438 147.535 276.815 144.973 277.371C142.387 277.889 140.128 277.472 138.513 277.257C136.885 277.03 135.901 276.815 135.926 276.676C135.951 276.537 136.961 276.499 138.576 276.55C140.179 276.575 142.45 276.866 144.772 276.386L144.746 276.373Z" fill="#686F6B"/>
<path d="M156.668 269.158C157.4 268.703 158.119 268.526 158.27 268.766C158.422 269.006 157.942 269.562 157.21 270.017C156.479 270.472 155.759 270.649 155.608 270.409C155.457 270.169 155.936 269.613 156.668 269.158Z" fill="#686F6B"/>
<path d="M169.832 213.798C166.627 210.564 164.62 207.431 164.848 207.279C165.087 207.103 167.409 209.907 170.564 213.091C173.693 216.287 176.469 218.65 176.292 218.877C176.141 219.092 173.037 217.058 169.844 213.798H169.832Z" fill="#686F6B"/>
<path d="M163.837 199.939C164.606 201.165 164.707 202.378 164.442 202.441C164.165 202.517 163.66 201.569 162.979 200.47C162.297 199.371 161.666 198.499 161.868 198.284C162.045 198.082 163.08 198.701 163.849 199.939H163.837Z" fill="#686F6B"/>
<path d="M131.876 30.4367C129.315 34.9976 128.003 39.0783 127.712 38.9899C127.46 38.9393 128.369 34.6312 130.993 29.944C133.592 25.2442 136.76 22.1995 136.936 22.389C137.163 22.5911 134.4 25.8633 131.876 30.4494V30.4367Z" fill="#686F6B"/>
<path d="M126.271 45.5975C126.157 46.6967 125.93 47.6063 125.652 47.6063C125.375 47.6063 125.135 46.6588 125.261 45.4965C125.387 44.3341 125.816 43.4498 126.081 43.5129C126.359 43.5761 126.384 44.4984 126.271 45.6102V45.5975Z" fill="#686F6B"/>
<path d="M152.57 6.71123C153.151 8.55578 152.722 10.1097 152.457 10.0592C152.167 10.0339 152.116 8.61895 151.599 7.01445C151.107 5.39731 150.35 4.20973 150.577 4.02022C150.766 3.83071 152.003 4.86669 152.57 6.71123Z" fill="#686F6B"/>
<path d="M154.742 14.4303C155.196 15.1504 155.84 15.5547 155.764 15.8326C155.726 15.959 155.474 16.0348 155.083 15.9211C154.704 15.82 154.225 15.5042 153.884 14.9988C153.543 14.4935 153.442 13.9249 153.48 13.5333C153.518 13.1416 153.682 12.9269 153.821 12.9395C154.098 12.99 154.237 13.7228 154.729 14.4303H154.742Z" fill="#686F6B"/>
<path d="M168.241 85.5953C166.929 90.8384 165.655 95.0454 165.377 94.9696C165.099 94.8938 165.945 90.5983 167.257 85.3426C167.901 82.7148 168.582 80.3523 169.036 78.672C169.49 76.979 169.629 75.9052 169.781 75.9052C169.92 75.9052 170.033 77.0422 169.743 78.8109C169.453 80.5923 168.885 82.9548 168.241 85.5827V85.5953Z" fill="#686F6B"/>
<path d="M164.492 101.778C164.239 102.852 163.81 103.66 163.533 103.597C163.255 103.534 163.242 102.612 163.495 101.538C163.747 100.464 164.176 99.6554 164.454 99.7186C164.731 99.7817 164.744 100.704 164.492 101.778Z" fill="#686F6B"/>
<path d="M129.819 100.591C130.753 106.618 130.917 111.57 130.652 111.595C130.362 111.621 129.744 106.731 128.823 100.755C127.901 94.7671 127.031 89.9283 127.308 89.8651C127.573 89.802 128.898 94.5775 129.832 100.604L129.819 100.591Z" fill="#686F6B"/>
<path d="M132.748 117.343C132.937 118.467 132.722 119.389 132.445 119.389C132.167 119.389 131.928 118.543 131.751 117.507C131.587 116.471 131.536 115.587 131.801 115.498C132.066 115.41 132.571 116.218 132.748 117.343Z" fill="#686F6B"/>
<path d="M81.1222 108.877C83.4439 108.751 85.589 108.865 87.1032 109.231C88.6174 109.585 89.4628 110.078 89.4124 110.191C89.3619 110.343 88.4534 110.103 86.9771 109.951C85.5007 109.774 83.4565 109.774 81.1726 109.901C78.8887 110.027 76.769 110.103 75.2421 109.964C73.7153 109.838 72.7942 109.547 72.8068 109.421C72.832 109.269 73.7658 109.294 75.2547 109.244C76.7436 109.206 78.8131 109.016 81.1222 108.89V108.877Z" fill="#686F6B"/>
<path d="M94.1822 111.127C95.381 111.619 96.1002 112.441 95.9362 112.655C95.7721 112.883 94.8636 112.504 93.7911 112.062C92.7185 111.607 91.8227 111.24 91.8605 110.962C91.8984 110.685 92.9835 110.621 94.1822 111.127Z" fill="#686F6B"/>
<path d="M101.602 222.327C107.494 219.585 111.103 215.58 111.33 215.82C111.419 215.896 110.649 217.008 109.059 218.498C107.482 219.989 105.046 221.821 102.031 223.249C99.015 224.664 96.0623 225.397 93.9046 225.662C91.7469 225.94 90.3967 225.826 90.3967 225.712C90.3588 225.384 95.7468 225.144 101.589 222.327H101.602Z" fill="#686F6B"/>
<path d="M121.175 198.36C121.906 197.514 122.676 196.971 122.891 197.148C123.105 197.324 122.676 198.171 121.944 199.017C121.212 199.864 120.443 200.407 120.228 200.23C120.014 200.053 120.43 199.207 121.162 198.36H121.175Z" fill="#686F6B"/>
<path d="M19.1425 261.288C23.5337 260.365 26.9911 259.203 27.1046 259.481C27.2056 259.721 23.8365 261.351 19.357 262.286C14.8776 263.246 11.1426 263.12 11.1426 262.867C11.13 262.576 14.764 262.235 19.1552 261.3L19.1425 261.288Z" fill="#686F6B"/>
<path d="M32.5054 255.502C33.7168 254.681 34.6884 253.961 34.8903 254.163C35.0922 254.352 34.3856 255.451 33.0733 256.348C31.7736 257.245 30.4865 257.511 30.3856 257.258C30.272 256.993 31.2941 256.336 32.4928 255.515L32.5054 255.502Z" fill="#686F6B"/>
<path d="M83.3952 212.207C85.2879 214.153 87.3321 215.542 88.922 216.313C90.5119 217.096 91.6097 217.362 91.5718 217.513C91.5592 217.627 90.3857 217.627 88.6318 216.97C86.8778 216.338 84.6444 214.949 82.6633 212.915C80.6822 210.88 79.2943 208.745 78.3479 207.191C77.4142 205.625 76.9221 204.601 77.0356 204.526C77.1618 204.45 77.8685 205.334 78.941 206.787C80.0262 208.227 81.4898 210.261 83.3826 212.207H83.3952Z" fill="#686F6B"/>
<path d="M74.222 196.945C74.9791 197.716 75.4334 198.499 75.2315 198.701C75.0296 198.903 74.2599 198.436 73.5028 197.665C72.7457 196.894 72.2914 196.111 72.4933 195.909C72.6952 195.707 73.4649 196.174 74.222 196.945Z" fill="#686F6B"/>
<path d="M199.229 214.267C202.952 212.157 205.185 209.365 205.425 209.567C205.652 209.681 203.684 212.902 199.747 215.151C195.835 217.438 192.05 217.526 192.075 217.274C192.024 216.97 195.545 216.44 199.242 214.267H199.229Z" fill="#686F6B"/>
<path d="M168.859 148.332C173.591 147.005 177.616 147.334 177.591 147.586C177.591 147.89 173.705 148.029 169.124 149.317C164.544 150.568 161.137 152.463 160.986 152.198C160.834 151.996 164.115 149.633 168.859 148.332Z" fill="#686F6B"/>
<path d="M124.065 154.56C125.049 155.495 125.781 156.341 125.604 156.569C125.44 156.796 124.38 156.278 123.358 155.293C122.336 154.32 121.768 153.284 121.97 153.107C122.185 152.918 123.068 153.612 124.052 154.547L124.065 154.56Z" fill="#686F6B"/>
<path d="M118.312 150.923C119.346 151.693 119.725 152.704 119.485 152.843C119.246 152.995 118.577 152.375 117.706 151.731C116.848 151.087 116.053 150.619 116.141 150.341C116.205 150.076 117.29 150.139 118.324 150.91L118.312 150.923Z" fill="#686F6B"/>
<path d="M269.07 258.269C270.307 259.431 270.9 260.695 270.673 260.846C270.433 261.01 269.525 260.088 268.376 259.014C267.241 257.928 266.257 257.069 266.408 256.816C266.547 256.576 267.846 257.107 269.07 258.269Z" fill="#686F6B"/>
<path d="M273.714 263.575C274.143 264.08 274.307 264.649 274.092 264.826C273.878 265.002 273.36 264.737 272.931 264.232C272.502 263.726 272.338 263.158 272.553 262.981C272.767 262.804 273.285 263.07 273.714 263.575Z" fill="#686F6B"/>
<path d="M229.438 187.142C230.195 188.077 230.636 188.987 230.409 189.164C230.195 189.341 229.4 188.721 228.643 187.787C227.886 186.852 227.444 185.942 227.671 185.765C227.886 185.588 228.68 186.207 229.438 187.142Z" fill="#686F6B"/>
<path d="M227.217 189.29C227.999 190.035 228.479 190.806 228.277 191.008C228.075 191.21 227.293 190.768 226.51 190.023C225.728 189.277 225.249 188.507 225.45 188.304C225.64 188.102 226.435 188.545 227.217 189.29Z" fill="#686F6B"/>
<path d="M233.791 194.886C234.523 196.175 234.927 197.337 234.674 197.476C234.422 197.615 233.64 196.68 232.908 195.391C232.176 194.103 231.772 192.941 232.025 192.802C232.264 192.663 233.059 193.597 233.791 194.886Z" fill="#686F6B"/>
<rect y="134.996" width="284" height="59.9981" fill="#F9F8F4"/>
</svg>
