<svg width="81" height="26" viewBox="0 0 81 26" fill="none" xmlns="http://www.w3.org/2000/svg">
<path d="M14.6667 9.4207C14.4648 9.4207 14.2629 9.4207 14.0341 9.4207C13.7918 9.14726 13.59 8.88684 13.3612 8.61339C13.0382 8.22276 12.7286 7.84514 12.4056 7.45451C12.3249 7.37638 12.2845 7.29826 12.2037 7.22013C11.9615 6.98575 11.9615 6.98575 11.6519 6.98575V8.02744C11.6519 8.26182 11.6116 8.99101 11.8538 9.14726C11.9749 9.22539 12.1364 9.22539 12.2576 9.22539C12.2979 9.22539 12.3787 9.22539 12.4191 9.22539V9.4207C12.0153 9.4207 11.625 9.38164 11.2213 9.38164C10.8175 9.38164 10.4272 9.38164 10.0234 9.4207V9.22539C10.0638 9.22539 10.1446 9.22539 10.1849 9.22539C10.3061 9.22539 10.4676 9.22539 10.5887 9.14726C10.831 8.99101 10.7906 8.26182 10.7906 8.02744V5.59248C10.7906 5.31904 10.831 4.58986 10.5483 4.4336C10.4272 4.39454 10.3061 4.39454 10.1849 4.35547H10.0234V4.16016C10.4272 4.16016 10.8175 4.19922 11.2213 4.19922C11.6654 4.19922 12.0961 4.16016 12.4998 4.16016C12.944 4.16016 13.3746 4.16016 13.7784 4.39454C14.1821 4.62892 14.3302 5.0456 14.3302 5.47529C14.3302 5.98312 14.0476 6.43886 13.5765 6.63418C13.3342 6.75137 13.1324 6.79043 12.8632 6.82949L14.6532 8.83475C14.8954 9.1082 15.0569 9.18632 15.4069 9.22539V9.4207C15.1512 9.4207 14.9089 9.4207 14.6667 9.4207ZM12.2441 4.40756C12.2037 4.40756 11.7596 4.40756 11.6923 4.44662C11.6116 4.48568 11.6116 4.56381 11.6116 4.64194V6.84252H11.8538C12.2979 6.84252 13.0112 6.76439 13.2535 6.37375C13.3746 6.17844 13.415 5.90499 13.415 5.7227C13.4015 4.94143 13.0785 4.40756 12.2441 4.40756Z" fill="#262626"/>
<path d="M17.4671 9.53785C16.4308 9.53785 15.5156 8.7696 15.5156 7.72791C15.5156 6.68622 16.4308 5.95703 17.4671 5.95703C18.5034 5.95703 19.459 6.72528 19.459 7.72791C19.459 8.80867 18.5438 9.53785 17.4671 9.53785ZM17.4671 6.13933C16.5923 6.13933 16.3097 6.9857 16.3097 7.71489C16.3097 8.44407 16.5116 9.36858 17.4671 9.36858C18.3823 9.36858 18.5842 8.5222 18.5842 7.79302C18.6246 7.02477 18.4227 6.13933 17.4671 6.13933Z" fill="#262626"/>
<path d="M22.8091 6.53005C22.6476 6.84255 22.5264 7.1811 22.3649 7.49361L21.2883 9.92857C21.2075 10.0848 21.0056 10.5406 21.0056 10.5406C20.9249 10.7359 20.723 11.1916 20.4134 11.1916C20.2923 11.1916 20.1712 11.1135 20.1712 10.9572C20.1712 10.6838 20.4134 10.6057 20.6153 10.5275C20.8576 10.4103 20.898 10.2541 20.9787 9.99367L21.2613 9.34261L20.0635 6.64723C19.902 6.29566 19.8616 6.21754 19.5117 6.17847V6.02222C19.7943 6.02222 20.0635 6.02222 20.3865 6.02222C20.7095 6.02222 20.9787 6.02222 21.2613 6.02222V6.21753C21.0595 6.2566 20.7768 6.17847 20.7768 6.45192C20.7768 6.64723 20.9787 7.10298 21.0595 7.29829L21.6113 8.61343L22.2438 7.10298C22.3246 6.94672 22.4457 6.63421 22.4457 6.45192C22.4457 6.21754 22.1631 6.21753 22.0016 6.21753V6.02222C22.2034 6.02222 22.4053 6.02222 22.5937 6.02222C22.7956 6.02222 22.9975 6.02222 23.1455 6.02222V6.21753C22.9302 6.21753 22.9302 6.29566 22.8091 6.53005Z" fill="#262626"/>
<path d="M26.3901 9.49887C26.0267 9.49887 25.7979 9.30355 25.7172 8.99104C25.3134 9.30355 24.8828 9.56397 24.3579 9.56397C23.9137 9.56397 23.5234 9.32959 23.5234 8.87385C23.5234 8.2228 24.156 7.94935 24.7213 7.71497L25.3134 7.44153C25.3942 7.40246 25.5961 7.32434 25.6364 7.24621C25.6768 7.20714 25.6768 7.12902 25.6768 7.05089C25.6768 6.47796 25.5961 6.12639 24.9635 6.12639C24.5597 6.12639 24.2502 6.16545 24.2098 6.59515C24.1694 6.79047 24.0887 6.94672 23.8868 6.94672C23.7253 6.94672 23.6042 6.82953 23.6042 6.67327C23.6042 6.06128 24.6809 5.98315 25.125 5.98315C25.9191 5.98315 26.444 6.17847 26.444 7.02485V8.5353C26.444 8.73062 26.4439 9.14729 26.7266 9.14729C26.8881 9.14729 26.9688 9.06917 27.0496 8.95198L27.2111 9.0301C26.9958 9.26449 26.7535 9.49887 26.3901 9.49887ZM25.6768 7.45454C25.4346 7.53267 25.1923 7.64986 25.0039 7.76705C24.6405 7.96237 24.2502 8.19675 24.2502 8.61343C24.2502 8.92594 24.4521 9.18636 24.7751 9.18636C25.1385 9.18636 25.448 8.95198 25.6903 8.7176V7.45454H25.6768Z" fill="#262626"/>
<path d="M28.3538 9.42074C28.0308 9.42074 27.7616 9.42074 27.4386 9.45981V9.26449C27.9635 9.22543 27.9904 9.18636 27.9904 8.69156C27.9904 8.57437 27.9904 8.45718 27.9904 8.33999V5.44929C27.9904 5.21491 28.0308 4.75917 27.7885 4.64198C27.6674 4.60291 27.5059 4.56385 27.3848 4.56385V4.4076C27.8289 4.36853 28.2596 4.25134 28.7037 4.17322V8.33999C28.7037 8.45718 28.7037 8.57437 28.7037 8.69156C28.7037 9.19938 28.7441 9.19939 29.2555 9.26449V9.45981C28.946 9.42074 28.623 9.42074 28.3538 9.42074Z" fill="#262626"/>
<path d="M6.94279 15.3323C6.41791 15.7229 5.86611 15.6839 5.27393 15.6839C4.95092 15.6839 4.601 15.6839 4.27799 15.6839C4.15687 15.6839 4.03574 15.6839 3.91461 15.6839C3.51085 15.6839 3.12055 15.7229 2.7168 15.7229V15.5276C2.75717 15.5276 2.83792 15.5276 2.8783 15.5276C2.99943 15.5276 3.16093 15.5276 3.28206 15.4495C3.56469 15.2933 3.48394 14.5641 3.48394 14.3297V11.8947C3.48394 11.6213 3.52431 10.9312 3.28206 10.7749C3.16093 10.6968 2.99943 10.6968 2.8783 10.6968C2.83792 10.6968 2.75717 10.6968 2.7168 10.6968V10.5015C3.20131 10.5015 3.67236 10.5405 4.15687 10.5405C4.47987 10.5405 4.78942 10.5015 5.11243 10.5015C5.94686 10.5015 6.90242 10.7749 6.90242 11.7385C6.90242 12.1682 6.66016 12.5067 6.26986 12.7411C6.06799 12.8192 5.86611 12.8974 5.67769 12.9364C6.1622 13.0145 6.67362 13.0927 7.037 13.4442C7.31963 13.6786 7.48114 14.0172 7.48114 14.4078C7.41384 14.7073 7.25234 15.0589 6.94279 15.3323ZM4.81634 13.0536H4.29145V14.2516C4.29145 14.5641 4.25108 15.2151 4.61446 15.4104C4.77596 15.4886 4.93746 15.4886 5.13934 15.4886H5.17972C5.22009 15.4886 5.26047 15.4886 5.26047 15.4886C5.50272 15.4495 5.74498 15.4495 5.9334 15.3323C6.29678 15.137 6.41791 14.6813 6.41791 14.3297C6.41791 13.275 5.74498 13.0536 4.81634 13.0536ZM4.81634 10.6577C4.69521 10.6577 4.3722 10.6187 4.29145 10.7749C4.25108 10.814 4.25108 10.8921 4.25108 10.9702V12.8583H4.80288C5.51618 12.8583 5.96032 12.4677 5.96032 11.7775C5.97378 11.0484 5.58348 10.6577 4.81634 10.6577Z" fill="#262626"/>
<path d="M9.97103 15.7881C8.93472 15.7881 8.01953 15.0198 8.01953 13.9782C8.01953 12.9365 8.93472 12.2073 9.97103 12.2073C11.0073 12.2073 11.9629 12.9755 11.9629 13.9782C11.9225 15.0589 11.0073 15.7881 9.97103 15.7881ZM9.93065 12.3896C9.05584 12.3896 8.77321 13.2359 8.77321 13.9651C8.77321 14.6943 8.97509 15.6188 9.93065 15.6188C10.8458 15.6188 11.0477 14.7724 11.0477 14.0433C11.0881 13.275 10.8862 12.3896 9.93065 12.3896Z" fill="#262626"/>
<path d="M13.7923 15.788C13.1193 15.788 12.7963 15.5146 12.7963 14.8635V12.5067H12.3926V12.4285H12.433C12.8771 12.1942 13.1866 11.8947 13.3885 11.4259H13.5096V12.3113H14.4248V12.5067H13.5096V14.551C13.5096 14.7072 13.5096 14.8635 13.55 15.0588C13.5904 15.3713 13.6711 15.5666 14.0345 15.5666C14.3172 15.5666 14.4787 15.4104 14.6267 15.176L14.7882 15.2932C14.546 15.6708 14.196 15.788 13.7923 15.788Z" fill="#262626"/>
<path d="M18.0581 15.749C17.6947 15.749 17.4659 15.5537 17.3852 15.2412C16.9814 15.5537 16.5507 15.8141 16.0258 15.8141C15.5817 15.8141 15.1914 15.5797 15.1914 15.124C15.1914 14.4729 15.824 14.1995 16.3892 13.9651L16.9814 13.6916C17.0622 13.6526 17.264 13.5745 17.3044 13.4963C17.3448 13.4573 17.3448 13.3791 17.3448 13.301C17.3448 12.7281 17.264 12.3765 16.6315 12.3765C16.2277 12.3765 15.9182 12.4156 15.8778 12.8453C15.8374 13.0406 15.7567 13.1968 15.5144 13.1968C15.3529 13.1968 15.2318 13.0797 15.2318 12.9234C15.2318 12.3114 16.3085 12.2333 16.7526 12.2333C17.5467 12.2333 18.0715 12.4286 18.0715 13.275V14.7854C18.0715 14.9807 18.0715 15.3974 18.3542 15.3974C18.5157 15.3974 18.5964 15.3193 18.7176 15.2021L18.8791 15.2802C18.6637 15.5146 18.4215 15.749 18.0581 15.749ZM17.3448 13.7047C17.1025 13.7828 16.8603 13.9 16.6719 14.0172C16.3085 14.2125 15.9182 14.4469 15.9182 14.8636C15.9182 15.1761 16.12 15.4365 16.4431 15.4365C16.8064 15.4365 17.116 15.2021 17.3582 14.9677V13.7047H17.3448Z" fill="#262626"/>
<path d="M22.6075 15.6709C22.2845 15.6709 21.975 15.6709 21.6923 15.7099V15.5146C22.2172 15.4755 22.2441 15.4365 22.2441 14.9417C22.2441 14.8245 22.2441 14.7073 22.2441 14.5901V13.7047C22.2441 13.1708 22.2038 12.4677 21.4904 12.4677C21.1674 12.4677 20.8175 12.6239 20.656 12.8974C20.4541 13.2099 20.4541 13.5484 20.4541 13.9V14.5901C20.4541 14.7073 20.4541 14.8245 20.4541 14.9417C20.4541 15.4495 20.4945 15.4755 21.0059 15.5146V15.7099C20.6829 15.7099 20.4138 15.6709 20.0908 15.6709C19.7677 15.6709 19.4986 15.6709 19.1756 15.7099V15.5146C19.7005 15.4755 19.7274 15.4365 19.7274 14.9417C19.7274 14.8245 19.7274 14.7073 19.7274 14.5901V13.6265C19.7274 13.4312 19.7677 12.8192 19.6062 12.702C19.5255 12.6239 19.4044 12.6239 19.3236 12.6239H19.1621V12.4677C19.5659 12.4286 19.9158 12.3114 20.2792 12.1942C20.3599 12.4677 20.3599 12.702 20.4003 12.9625C20.6829 12.4937 21.1136 12.2333 21.6789 12.2333C22.1634 12.2333 22.7556 12.3895 22.8767 12.9234C22.9171 13.1187 22.9171 13.314 22.9171 13.4963C22.9171 13.887 22.9171 14.2646 22.9171 14.6552C22.9171 14.7724 22.9171 14.8896 22.9171 15.0068C22.9171 15.163 22.9171 15.4365 23.0786 15.5146C23.1997 15.5927 23.3612 15.5927 23.5227 15.5927V15.7881C23.1997 15.6709 22.9305 15.6709 22.6075 15.6709Z" fill="#262626"/>
<path d="M24.9221 15.6708C24.5991 15.6708 24.2896 15.6708 24.007 15.7099V15.5146C24.5318 15.4755 24.5588 15.4364 24.5588 14.9416C24.5588 14.8245 24.5588 14.7073 24.5588 14.5901V13.5093C24.5588 13.3921 24.5588 12.8583 24.5184 12.7411C24.4376 12.6629 24.3569 12.6239 24.2358 12.6239C24.155 12.6239 24.0339 12.6239 23.9531 12.6239V12.4286C24.4376 12.3504 24.7876 12.2723 25.2721 12.1161V14.551C25.2721 14.6682 25.2721 14.7854 25.2721 14.9026C25.2721 15.4104 25.3124 15.4364 25.8239 15.4755V15.6708C25.5547 15.6708 25.2451 15.6708 24.9221 15.6708ZM24.8414 11.1916C24.5991 11.1916 24.3973 10.9962 24.3973 10.7619C24.3973 10.5275 24.5991 10.3322 24.8414 10.3322C25.0836 10.3322 25.2855 10.5275 25.2855 10.7619C25.2721 11.0483 25.0836 11.1916 24.8414 11.1916Z" fill="#262626"/>
<path d="M27.9508 15.7881C26.9145 15.7881 26.2012 15.098 26.2012 14.0953C26.2012 12.9755 27.0356 12.1682 28.193 12.1682C28.5161 12.1682 29.2697 12.2463 29.2697 12.7021C29.2697 12.8583 29.1486 12.9755 28.9871 12.9755C28.7852 12.9755 28.7045 12.8193 28.6237 12.663C28.5026 12.3896 28.4622 12.3505 28.1392 12.3505C27.2644 12.3505 26.9818 13.1969 26.9818 13.9261C26.9818 14.6553 27.224 15.4756 28.1392 15.4756C28.5833 15.4756 28.8929 15.2803 29.1755 14.9678L29.337 15.124C29.0275 15.5928 28.5026 15.7881 27.9508 15.7881Z" fill="#262626"/>
<path d="M5.38078 20.8793C5.38078 21.1528 5.38078 21.4523 5.42115 21.7257C4.86935 21.7257 4.74822 21.8429 4.26371 22.0773C3.81958 22.2726 3.46966 22.3898 2.94477 22.3898C2.19109 22.3898 1.54508 22.1945 0.993276 21.6997C0.441474 21.1658 0.199219 20.5798 0.199219 19.8116C0.199219 18.1579 1.35666 16.9209 3.0659 16.9209C3.69845 16.9209 4.22334 17.0381 4.73476 17.4287L4.89627 17.0772H4.97702L4.89627 18.6527H4.73476C4.69439 17.7282 4.06183 17.1423 3.10627 17.1423C1.54508 17.1423 1.19515 18.5746 1.19515 19.7986C1.19515 20.9575 1.63929 22.1945 3.02552 22.1945C3.81958 22.1945 4.42522 21.8429 4.42522 20.9965C4.42522 20.4887 4.26371 20.3455 3.71191 20.3064V20.1111C4.07529 20.1111 4.42522 20.1111 4.82897 20.1111C5.19236 20.1111 5.5019 20.1111 5.86529 20.1111V20.3064C5.46153 20.3064 5.38078 20.4627 5.38078 20.8793Z" fill="#262626"/>
<path d="M9.28465 22.3116C8.92127 22.3116 8.69247 22.1163 8.61172 21.8038C8.20796 22.1163 7.77729 22.3767 7.2524 22.3767C6.80827 22.3767 6.41797 22.1423 6.41797 21.6866C6.41797 21.0355 7.05052 20.7621 7.61578 20.5277L8.20796 20.2543C8.28871 20.2152 8.49059 20.1371 8.57134 20.059C8.61172 20.0199 8.61172 19.9418 8.61172 19.8636C8.61172 19.2907 8.53097 18.9391 7.89841 18.9391C7.49466 18.9391 7.18511 18.9782 7.14473 19.4079C7.10436 19.6032 7.0236 19.7595 6.78135 19.7595C6.61985 19.7595 6.49872 19.6423 6.49872 19.486C6.49872 18.874 7.57541 18.7959 8.01954 18.7959C8.8136 18.7959 9.33848 18.9912 9.33848 19.8376V21.348C9.33848 21.5434 9.33848 21.96 9.62111 21.96C9.78262 21.96 9.86337 21.8819 9.98449 21.7647L10.146 21.8428C9.89028 22.0772 9.60765 22.3116 9.28465 22.3116ZM8.53097 20.3064C8.28871 20.3845 8.04646 20.5017 7.85804 20.6189C7.49466 20.8142 7.10436 21.0486 7.10436 21.4652C7.10436 21.7777 7.30624 22.0382 7.62924 22.0382C7.99262 22.0382 8.30217 21.8038 8.54443 21.5694V20.3064H8.53097Z" fill="#262626"/>
<path d="M13.0793 19.46C12.7159 19.46 12.7967 19.0303 12.4871 19.0303C12.2449 19.0303 11.9623 19.2256 11.8546 19.4209C11.6527 19.7334 11.6527 20.072 11.6527 20.4235V21.1527C11.6527 21.2699 11.6527 21.3871 11.6527 21.5043C11.6527 22.0382 11.7738 22.0382 12.2853 22.0772V22.2726C11.9623 22.2726 11.6527 22.2335 11.3297 22.2335C11.0067 22.2335 10.6972 22.2335 10.3741 22.2726V22.0772C10.899 22.0382 10.9259 21.9991 10.9259 21.5043C10.9259 21.3871 10.9259 21.2699 10.9259 21.1527V20.1892C10.9259 19.9938 10.9663 19.3819 10.7644 19.2256C10.6837 19.1865 10.5626 19.1865 10.4818 19.1475H10.3203V18.9912C10.7241 18.9522 11.0336 18.835 11.4374 18.7178C11.5181 19.0303 11.5585 19.2516 11.5585 19.5641C11.8008 19.0563 12.1507 18.7568 12.7563 18.7568C12.9986 18.7568 13.3485 18.874 13.3485 19.1865C13.362 19.3428 13.2408 19.46 13.0793 19.46Z" fill="#262626"/>
<path d="M16.8205 22.3507C16.7398 22.1554 16.6994 21.9601 16.659 21.7387C16.2957 22.1684 15.9861 22.3507 15.3805 22.3507C14.3442 22.3507 13.6309 21.5825 13.6309 20.5798C13.6309 19.5772 14.3442 18.7699 15.4209 18.7699C15.9054 18.7699 16.2553 18.9262 16.5783 19.2777V17.9235C16.5783 17.4157 16.4975 17.3115 15.9457 17.2725V17.1162C16.3899 17.0772 16.8205 16.96 17.2647 16.8818V20.9575C17.2647 21.1918 17.2243 21.7257 17.5069 21.882C17.5877 21.921 17.7088 21.9601 17.8299 21.9601H17.9511V22.1163C17.5473 22.1554 17.1839 22.2726 16.8205 22.3507ZM16.5917 20.1501C16.5917 19.6814 16.5917 19.421 16.188 19.1475C16.0265 19.0303 15.8246 18.9913 15.5958 18.9913C14.721 18.9913 14.4384 19.8376 14.4384 20.5668C14.4384 21.296 14.6806 22.1163 15.5554 22.1163C15.8784 22.1163 16.2284 21.9601 16.3899 21.6866C16.511 21.4523 16.5514 20.9965 16.5514 20.7231C16.5917 20.5408 16.5917 20.3455 16.5917 20.1501Z" fill="#262626"/>
<path d="M21.5309 20.1111H19.0545C19.0141 20.2283 19.0141 20.3455 19.0141 20.5018C19.0141 21.27 19.4179 22.0513 20.2927 22.0513C20.7368 22.0513 21.0464 21.856 21.329 21.5174L21.4905 21.6737C21.0867 22.1424 20.6964 22.3247 20.0504 22.3247C19.0141 22.3247 18.1797 21.6346 18.1797 20.5929C18.1797 19.5903 18.9737 18.7439 20.0504 18.7439C20.8445 18.7439 21.6116 19.2127 21.6116 20.02C21.6116 20.1111 21.6116 20.1111 21.5309 20.1111ZM20.0504 18.9522C19.4179 18.9522 19.216 19.3819 19.0949 19.9158H20.5349C20.6964 19.9158 20.8579 19.9158 20.8579 19.7595C20.8579 19.2647 20.5753 18.9522 20.0504 18.9522Z" fill="#262626"/>
<path d="M25.4747 22.2335C25.1517 22.2335 24.8421 22.2335 24.5595 22.2726V22.0772C25.0844 22.0382 25.1113 21.9991 25.1113 21.5043C25.1113 21.3871 25.1113 21.2699 25.1113 21.1527V20.2673C25.1113 19.7334 25.0709 19.0303 24.3576 19.0303C24.0346 19.0303 23.6847 19.1865 23.5232 19.46C23.3213 19.7725 23.3213 20.111 23.3213 20.4626V21.1527C23.3213 21.2699 23.3213 21.3871 23.3213 21.5043C23.3213 22.0121 23.3617 22.0382 23.8731 22.0772V22.2726C23.5501 22.2726 23.2809 22.2335 22.9579 22.2335C22.6349 22.2335 22.3658 22.2335 22.0428 22.2726V22.0772C22.5676 22.0382 22.5946 21.9991 22.5946 21.5043C22.5946 21.3871 22.5946 21.2699 22.5946 21.1527V20.1892C22.5946 19.9938 22.6349 19.3819 22.4734 19.2256C22.3927 19.1475 22.2716 19.1475 22.1908 19.1475H22.0293V18.9912C22.4331 18.9522 22.783 18.835 23.1464 18.7178C23.2271 18.9912 23.2271 19.2256 23.2675 19.486C23.5501 19.0173 23.9808 18.7568 24.5461 18.7568C25.0306 18.7568 25.6227 18.9131 25.7439 19.447C25.7842 19.6423 25.7842 19.8376 25.7842 20.0199C25.7842 20.4105 25.7842 20.7881 25.7842 21.1788C25.7842 21.296 25.7842 21.4132 25.7842 21.5303C25.7842 21.6866 25.7842 21.96 25.9457 22.0382C26.0669 22.1163 26.2284 22.1163 26.3899 22.1163V22.3116C26.0803 22.2335 25.7573 22.2335 25.4747 22.2335Z" fill="#262626"/>
<path d="M28.1529 22.3507C27.8299 22.3507 27.5203 22.2726 27.2377 22.0773L27.0762 22.3117H26.9551V21.1528H27.1166C27.2377 21.6866 27.5203 22.1554 28.1529 22.1554C28.5163 22.1554 28.8258 21.9601 28.8258 21.5825C28.8258 20.7361 26.9955 20.8142 26.9955 19.6944C26.9955 19.1605 27.48 18.7699 27.9914 18.7699C28.274 18.7699 28.5432 18.848 28.7854 18.9652L28.9469 18.7699H29.0277V19.7725H28.8662C28.7047 19.3428 28.5432 18.9652 28.0318 18.9652C27.7491 18.9652 27.5069 19.1215 27.5069 19.3949C27.5069 19.7465 27.7491 19.8637 28.0318 20.0069C28.6239 20.3194 29.3507 20.5408 29.3507 21.322C29.3507 21.921 28.7854 22.3507 28.1529 22.3507Z" fill="#262626"/>
<path d="M74.7337 8.65247V9.0431L75.2586 9.08216C75.8104 9.16029 76.5371 9.27748 76.8871 9.58999C77.0889 9.78531 77.2505 10.0197 77.1293 10.3973L73.8993 18.5746L70.9922 11.0484C70.7903 10.5405 70.7096 10.3192 70.7096 10.0457C70.7096 9.53791 71.1537 9.19936 71.7055 9.12123L72.8226 9.0431V8.65247H65.9587V9.0431L66.6316 9.08216C67.3046 9.12123 67.6679 9.08216 68.0717 9.55093C68.3947 9.9025 68.2332 10.3582 68.1928 10.3973L64.9628 18.6137L62.0961 11.0484C61.8942 10.5405 61.7731 10.241 61.7731 9.92854C61.8134 9.39467 62.3249 9.19936 62.6883 9.12123C63.0516 9.0431 63.5631 9.0431 63.5631 9.0431V8.65247H56.8203V9.0431C56.8203 9.0431 57.2644 9.0431 57.897 9.12123C58.4892 9.19936 58.9333 9.55093 59.3774 10.6707L63.6842 21.8169L63.8053 22.1684H64.0476L64.2091 21.8169L68.5562 11.0484L72.5803 21.8169L72.7418 22.2075H73.0245L73.1456 21.8559L77.2504 11.7515L77.6138 10.9833C77.8561 10.4103 77.9772 10.2931 78.1387 9.98063C78.4214 9.4728 79.0539 9.2905 79.8883 9.17331C80.4132 9.05612 80.642 9.09519 80.965 9.05612V8.66549H74.7337V8.65247Z" fill="#262626"/>
<path d="M47.8154 21.7648C46.6175 21.7648 45.5409 20.5278 44.666 19.5252L38.4482 10.6187L42.082 6.64724C43.3202 5.41023 43.9931 4.8373 45.4332 4.7201L46.1869 4.64198V4.21228H39.8075V4.68104C39.8075 4.68104 40.1709 4.68104 40.44 4.7201C41.0322 4.75917 41.6379 5.07168 41.6379 5.56648C41.6379 6.17847 41.0861 6.72536 40.4804 7.33736L35.5815 12.5849V6.84256C35.5815 4.95449 36.4967 4.79823 36.7793 4.75917C37.2638 4.68104 37.5734 4.68104 37.5734 4.68104V4.25134H31.2344V4.68104C31.2344 4.68104 31.6785 4.68104 32.1092 4.7201C32.5533 4.75917 33.2262 4.99355 33.2262 6.84256V19.7335C33.2262 21.6216 32.7821 21.8169 31.5978 21.8169H31.2344V22.3247H37.6945V21.8169H37.2907C36.0929 21.8169 35.5815 21.6216 35.5815 19.7726V13.7568L36.7389 12.5198L42.4454 20.6189C42.4454 20.6189 42.5665 20.7752 42.6069 20.9705C42.6069 21.1268 42.5665 21.3611 42.4454 21.4783C42.2435 21.7518 41.8532 21.869 41.0861 21.869H41.0053C40.8034 21.869 40.7227 21.869 40.7227 21.869V22.3768H48.2057V21.869L47.8154 21.7648Z" fill="#262626"/>
<path d="M58.259 13.7828C58.259 12.3114 57.5053 10.9312 56.6978 10.1499C55.6615 9.14727 54.181 8.57434 52.5122 8.57434C48.7572 8.57434 46.1328 11.6604 46.1328 15.4365C46.1328 19.5251 49.161 22.3377 53.1851 22.3377C55.0155 22.3377 56.2537 21.7257 56.9401 21.1788C57.5726 20.671 57.936 20.2153 58.2186 19.7465C58.6628 19.0173 58.7031 18.6267 58.7031 18.6267L58.3801 18.4704C58.3801 18.4704 58.259 18.7439 57.936 19.3168C57.5726 19.8897 56.8593 20.3585 56.4959 20.5929C56.1729 20.7882 55.2577 21.1267 53.9388 21.1267C52.3103 21.1267 48.8784 19.9679 48.8784 13.9521V13.7568H58.2994C58.259 13.8219 58.259 13.8219 58.259 13.7828ZM56.0653 13.314H48.8514L48.8918 13.0797C49.1341 10.9181 50.4126 8.95196 52.4449 8.91289C54.7867 8.88685 56.0653 10.6187 56.0653 13.314Z" fill="#262626"/>
</svg>
