<svg width="85" height="25" viewBox="0 0 85 25" fill="none" xmlns="http://www.w3.org/2000/svg">
<path d="M59.6394 24.7435C58.859 24.7435 58.1866 24.5791 57.6222 24.2503C57.0627 23.9214 56.6332 23.4552 56.3338 22.8515C56.0345 22.2478 55.8848 21.5337 55.8848 20.7092V20.7018C55.8848 19.8822 56.0345 19.1681 56.3338 18.5595C56.6381 17.946 57.0627 17.4699 57.6075 17.1313C58.1572 16.7926 58.805 16.6233 59.551 16.6233C60.2921 16.6233 60.9326 16.7877 61.4725 17.1165C62.0173 17.4405 62.4345 17.8969 62.724 18.4859C63.0185 19.0748 63.1657 19.7619 63.1657 20.5472V21.1362H56.7903V19.9141H62.2897L61.4062 21.0552V20.3484C61.4062 19.838 61.3277 19.4135 61.1707 19.0748C61.0136 18.7362 60.7976 18.4834 60.5228 18.3165C60.248 18.1448 59.9314 18.0589 59.5731 18.0589C59.2099 18.0589 58.886 18.1472 58.6013 18.3239C58.3216 18.4957 58.1007 18.7534 57.9388 19.0969C57.7817 19.4405 57.7032 19.8576 57.7032 20.3484V21.0552C57.7032 21.5313 57.7817 21.9386 57.9388 22.2773C58.1007 22.611 58.3289 22.8687 58.6234 23.0503C58.9179 23.227 59.2688 23.3153 59.6762 23.3153C59.9805 23.3153 60.248 23.2687 60.4786 23.1754C60.7093 23.0773 60.8983 22.9521 61.0455 22.8C61.1976 22.6478 61.3032 22.4834 61.3621 22.3067L61.3768 22.2552H63.0848L63.07 22.3362C63.0062 22.6356 62.8884 22.93 62.7167 23.2196C62.5449 23.5043 62.3142 23.7619 62.0246 23.9926C61.7351 24.2233 61.3915 24.4073 60.994 24.5448C60.5964 24.6773 60.1449 24.7435 59.6394 24.7435Z" fill="#745A5A"/>
<path d="M51.7615 24.7435C51.0793 24.7435 50.4952 24.6429 50.0094 24.4417C49.5284 24.2405 49.1505 23.9583 48.8756 23.5951C48.6057 23.227 48.4413 22.8024 48.3824 22.3214L48.375 22.2552H50.1787L50.1934 22.3214C50.2621 22.6601 50.4241 22.9227 50.6793 23.1092C50.9394 23.2957 51.3026 23.3889 51.7689 23.3889C52.0682 23.3889 52.3235 23.3521 52.5345 23.2785C52.7456 23.2049 52.9075 23.0969 53.0204 22.9546C53.1382 22.8122 53.1971 22.6454 53.1971 22.454V22.4466C53.1971 22.2159 53.1186 22.0294 52.9615 21.8871C52.8044 21.7399 52.5222 21.6196 52.1149 21.5264L50.8192 21.2392C50.3235 21.1264 49.9087 20.9718 49.575 20.7754C49.2413 20.5791 48.991 20.3362 48.8241 20.0466C48.6572 19.7521 48.5738 19.411 48.5738 19.0233V19.0159C48.5738 18.5399 48.7038 18.1227 48.964 17.7644C49.2241 17.4061 49.5897 17.1264 50.0609 16.9251C50.5321 16.7239 51.0793 16.6233 51.7026 16.6233C52.3505 16.6233 52.9051 16.7313 53.3664 16.9472C53.8278 17.1632 54.1836 17.4527 54.4339 17.8159C54.6891 18.1791 54.8265 18.5865 54.8462 19.038L54.8535 19.119H53.1455L53.1382 19.0601C53.0989 18.746 52.9566 18.4883 52.7112 18.2871C52.4658 18.081 52.1296 17.9779 51.7026 17.9779C51.4327 17.9779 51.1971 18.0172 50.9959 18.0957C50.7995 18.1742 50.6474 18.2846 50.5394 18.427C50.4363 18.5693 50.3848 18.7362 50.3848 18.9276V18.9349C50.3848 19.0822 50.4216 19.2147 50.4952 19.3325C50.5689 19.4503 50.6867 19.5534 50.8486 19.6417C51.0106 19.7251 51.2265 19.7987 51.4965 19.8626L52.7922 20.1497C53.602 20.3313 54.1787 20.5914 54.5222 20.93C54.8658 21.2638 55.0376 21.7129 55.0376 22.2773V22.2846C55.0376 22.7754 54.8977 23.2073 54.6179 23.5803C54.3382 23.9484 53.9505 24.2356 53.4548 24.4417C52.964 24.6429 52.3995 24.7435 51.7615 24.7435Z" fill="#745A5A"/>
<path d="M43.008 24.7214C42.4927 24.7214 42.0362 24.6233 41.6387 24.427C41.2461 24.2257 40.9393 23.9484 40.7185 23.5951C40.5025 23.2368 40.3945 22.827 40.3945 22.3656V22.3509C40.3945 21.8846 40.5099 21.4871 40.7405 21.1583C40.9761 20.8245 41.3148 20.5619 41.7565 20.3705C42.1982 20.1742 42.7332 20.0564 43.3614 20.0172L46.343 19.8331V21.0478L43.6191 21.2172C43.1675 21.2466 42.8215 21.3546 42.581 21.5411C42.3405 21.7276 42.2203 21.9754 42.2203 22.2846V22.292C42.2203 22.611 42.3405 22.8638 42.581 23.0503C42.8264 23.2319 43.1504 23.3227 43.5528 23.3227C43.9062 23.3227 44.2203 23.2515 44.4951 23.1092C44.7749 22.9668 44.9958 22.773 45.1577 22.5276C45.3197 22.2822 45.4007 22.0049 45.4007 21.6957V19.3546C45.4007 18.9619 45.2755 18.6527 45.0252 18.427C44.7798 18.1963 44.424 18.081 43.9577 18.081C43.5258 18.081 43.1798 18.1742 42.9197 18.3607C42.6596 18.5423 42.4976 18.7779 42.4338 19.0675L42.4191 19.1337H40.7258L40.7332 19.0454C40.7724 18.584 40.927 18.1718 41.197 17.8086C41.4669 17.4405 41.8399 17.1509 42.316 16.9399C42.797 16.7288 43.3663 16.6233 44.024 16.6233C44.6767 16.6233 45.2412 16.7313 45.7172 16.9472C46.1982 17.1632 46.5688 17.465 46.8289 17.8527C47.0939 18.2405 47.2264 18.6969 47.2264 19.2221V24.5889H45.4007V23.3889H45.3565C45.2093 23.6589 45.0178 23.8945 44.7823 24.0957C44.5467 24.2969 44.2767 24.4515 43.9724 24.5595C43.6731 24.6675 43.3516 24.7214 43.008 24.7214Z" fill="#745A5A"/>
<path d="M36.2955 24.7434C35.9225 24.7434 35.5789 24.6845 35.2648 24.5667C34.9556 24.444 34.6832 24.2747 34.4476 24.0587C34.212 23.8378 34.0182 23.5728 33.866 23.2636H33.8292V24.5888H31.9961V13.9655H33.8292V18.125H33.866C34.0182 17.8109 34.2145 17.5434 34.455 17.3225C34.6955 17.0967 34.9728 16.925 35.2869 16.8072C35.601 16.6845 35.9421 16.6231 36.3102 16.6231C36.963 16.6231 37.5298 16.7875 38.0108 17.1164C38.4918 17.4403 38.8648 17.9066 39.1298 18.5151C39.3949 19.1188 39.5274 19.8403 39.5274 20.6796V20.6869C39.5274 21.5213 39.3949 22.2428 39.1298 22.8513C38.8697 23.4599 38.4967 23.9286 38.0108 24.2575C37.5298 24.5814 36.9581 24.7434 36.2955 24.7434ZM35.7507 23.2047C36.1433 23.2047 36.482 23.1041 36.7666 22.9029C37.0562 22.6967 37.2771 22.4047 37.4292 22.0268C37.5814 21.6489 37.6574 21.2023 37.6574 20.6869V20.6796C37.6574 20.1593 37.5789 19.7127 37.4219 19.3397C37.2697 18.9667 37.0513 18.6796 36.7666 18.4783C36.482 18.2722 36.1433 18.1691 35.7507 18.1691C35.3728 18.1691 35.039 18.2722 34.7495 18.4783C34.4648 18.6845 34.239 18.9765 34.0722 19.3544C33.9053 19.7274 33.8219 20.1691 33.8219 20.6796V20.6869C33.8219 21.1974 33.9028 21.6415 34.0648 22.0194C34.2317 22.3974 34.4599 22.6894 34.7495 22.8955C35.039 23.1016 35.3728 23.2047 35.7507 23.2047Z" fill="#745A5A"/>
<path d="M26.2385 24.7214C25.7232 24.7214 25.2667 24.6233 24.8692 24.427C24.4765 24.2257 24.1698 23.9484 23.9489 23.5951C23.733 23.2368 23.625 22.827 23.625 22.3656V22.3509C23.625 21.8846 23.7403 21.4871 23.971 21.1583C24.2066 20.8245 24.5452 20.5619 24.987 20.3705C25.4287 20.1742 25.9636 20.0564 26.5919 20.0172L29.5735 19.8331V21.0478L26.8495 21.2172C26.398 21.2466 26.052 21.3546 25.8115 21.5411C25.571 21.7276 25.4508 21.9754 25.4508 22.2846V22.292C25.4508 22.611 25.571 22.8638 25.8115 23.0503C26.0569 23.2319 26.3808 23.3227 26.7833 23.3227C27.1367 23.3227 27.4508 23.2515 27.7256 23.1092C28.0054 22.9668 28.2262 22.773 28.3882 22.5276C28.5502 22.2822 28.6311 22.0049 28.6311 21.6957V19.3546C28.6311 18.9619 28.506 18.6527 28.2557 18.427C28.0103 18.1963 27.6544 18.081 27.1882 18.081C26.7563 18.081 26.4103 18.1742 26.1502 18.3607C25.89 18.5423 25.7281 18.7779 25.6643 19.0675L25.6495 19.1337H23.9563L23.9637 19.0454C24.0029 18.584 24.1575 18.1718 24.4275 17.8086C24.6974 17.4405 25.0704 17.1509 25.5465 16.9399C26.0275 16.7288 26.5968 16.6233 27.2544 16.6233C27.9072 16.6233 28.4716 16.7313 28.9477 16.9472C29.4287 17.1632 29.7992 17.465 30.0594 17.8527C30.3244 18.2405 30.4569 18.6969 30.4569 19.2221V24.5889H28.6311V23.3889H28.587C28.4397 23.6589 28.2483 23.8945 28.0127 24.0957C27.7771 24.2969 27.5072 24.4515 27.2029 24.5595C26.9035 24.6675 26.5821 24.7214 26.2385 24.7214Z" fill="#745A5A"/>
<path d="M21.8656 24.7435C21.0558 24.7435 20.4521 24.5668 20.0546 24.2134C19.6619 23.86 19.4656 23.2809 19.4656 22.476V18.1987H18.3613V16.7852H19.4656V14.8048H21.3282V16.7852H22.7785V18.1987H21.3282V22.3287C21.3282 22.7066 21.4116 22.9692 21.5785 23.1165C21.7503 23.2588 22.0006 23.33 22.3294 23.33C22.4227 23.33 22.5037 23.3275 22.5724 23.3226C22.646 23.3128 22.7147 23.3054 22.7785 23.3005V24.6772C22.6705 24.6919 22.538 24.7066 22.381 24.7214C22.2288 24.7361 22.057 24.7435 21.8656 24.7435Z" fill="#745A5A"/>
<path d="M13.2658 24.7214C12.7505 24.7214 12.2941 24.6233 11.8965 24.427C11.5039 24.2257 11.1971 23.9484 10.9763 23.5951C10.7603 23.2368 10.6523 22.827 10.6523 22.3656V22.3509C10.6523 21.8846 10.7677 21.4871 10.9984 21.1583C11.2339 20.8245 11.5726 20.5619 12.0143 20.3705C12.456 20.1742 12.991 20.0564 13.6192 20.0172L16.6008 19.8331V21.0478L13.8769 21.2172C13.4253 21.2466 13.0793 21.3546 12.8388 21.5411C12.5984 21.7276 12.4781 21.9754 12.4781 22.2846V22.292C12.4781 22.611 12.5984 22.8638 12.8388 23.0503C13.0842 23.2319 13.4082 23.3227 13.8106 23.3227C14.164 23.3227 14.4781 23.2515 14.753 23.1092C15.0327 22.9668 15.2536 22.773 15.4155 22.5276C15.5775 22.2822 15.6585 22.0049 15.6585 21.6957V19.3546C15.6585 18.9619 15.5333 18.6527 15.283 18.427C15.0376 18.1963 14.6818 18.081 14.2155 18.081C13.7836 18.081 13.4376 18.1742 13.1775 18.3607C12.9174 18.5423 12.7554 18.7779 12.6916 19.0675L12.6769 19.1337H10.9836L10.991 19.0454C11.0303 18.584 11.1849 18.1718 11.4548 17.8086C11.7247 17.4405 12.0977 17.1509 12.5738 16.9399C13.0548 16.7288 13.6241 16.6233 14.2818 16.6233C14.9346 16.6233 15.499 16.7313 15.975 16.9472C16.456 17.1632 16.8266 17.465 17.0867 17.8527C17.3517 18.2405 17.4842 18.6969 17.4842 19.2221V24.5889H15.6585V23.3889H15.6143C15.4671 23.6589 15.2757 23.8945 15.0401 24.0957C14.8045 24.2969 14.5346 24.4515 14.2303 24.5595C13.9309 24.6675 13.6094 24.7214 13.2658 24.7214Z" fill="#745A5A"/>
<path d="M0.736328 24.5888V13.9655H4.61608C5.6762 13.9655 6.58172 14.1716 7.33264 14.5839C8.08356 14.9961 8.66025 15.5949 9.06271 16.3802C9.46516 17.1655 9.66639 18.1176 9.66639 19.2366V19.2513C9.66639 20.3704 9.46516 21.3299 9.06271 22.1299C8.66516 22.925 8.08847 23.5335 7.33264 23.9556C6.58172 24.3777 5.6762 24.5888 4.61608 24.5888H0.736328ZM2.63571 22.9912H4.41731C5.13387 22.9912 5.73755 22.8489 6.22835 22.5642C6.71915 22.2747 7.09215 21.855 7.34737 21.3053C7.60258 20.7507 7.73019 20.0685 7.73019 19.2587V19.244C7.73019 18.4538 7.60013 17.7839 7.34001 17.2342C7.08479 16.6845 6.70933 16.2697 6.21363 15.99C5.72283 15.7053 5.12406 15.563 4.41731 15.563H2.63571V22.9912Z" fill="#745A5A"/>
<path d="M83.6176 11.0796C82.8078 11.0796 82.2041 10.9029 81.8065 10.5496C81.4139 10.1962 81.2176 9.61706 81.2176 8.81215V4.53485H80.1133V3.12136H81.2176V1.14099H83.0802V3.12136H84.5305V4.53485H83.0802V8.66491C83.0802 9.04283 83.1636 9.3054 83.3305 9.45264C83.5022 9.59497 83.7525 9.66614 84.0814 9.66614C84.1746 9.66614 84.2556 9.66369 84.3243 9.65878C84.3979 9.64896 84.4667 9.6416 84.5305 9.63669V11.0134C84.4225 11.0281 84.29 11.0428 84.1329 11.0576C83.9808 11.0723 83.809 11.0796 83.6176 11.0796Z" fill="#745A5A"/>
<path d="M72.3008 10.9251V3.12144H74.1265V4.34352H74.1707C74.3719 3.92144 74.6713 3.58524 75.0689 3.33493C75.4713 3.08463 75.967 2.95947 76.556 2.95947C77.4149 2.95947 78.0775 3.2196 78.5437 3.73984C79.0149 4.26009 79.2505 4.97174 79.2505 5.87481V10.9251H77.4173V6.24291C77.4173 5.68831 77.2873 5.26131 77.0272 4.96193C76.767 4.65763 76.3769 4.50548 75.8566 4.50548C75.5081 4.50548 75.2038 4.58647 74.9437 4.74843C74.6836 4.90548 74.4824 5.12634 74.34 5.41101C74.1977 5.69076 74.1265 6.01959 74.1265 6.39751V10.9251H72.3008Z" fill="#745A5A"/>
<path d="M66.5959 11.0576C66.0806 11.0576 65.6241 10.9595 65.2266 10.7631C64.834 10.5619 64.5272 10.2846 64.3063 9.93125C64.0904 9.57297 63.9824 9.16315 63.9824 8.7018V8.68708C63.9824 8.22082 64.0978 7.82327 64.3284 7.49444C64.564 7.1607 64.9027 6.89812 65.3444 6.70671C65.7861 6.51039 66.3211 6.3926 66.9493 6.35334L69.9309 6.16929V7.38401L67.207 7.55334C66.7554 7.58278 66.4094 7.69076 66.1689 7.87726C65.9284 8.06376 65.8082 8.31162 65.8082 8.62082V8.62818C65.8082 8.9472 65.9284 9.19996 66.1689 9.38646C66.4143 9.56806 66.7382 9.65886 67.1407 9.65886C67.4941 9.65886 67.8082 9.58769 68.083 9.44536C68.3628 9.30303 68.5836 9.10916 68.7456 8.86376C68.9076 8.61837 68.9886 8.34106 68.9886 8.03186V5.69076C68.9886 5.29812 68.8634 4.98892 68.6131 4.76315C68.3677 4.53248 68.0119 4.41714 67.5456 4.41714C67.1137 4.41714 66.7677 4.51039 66.5076 4.6969C66.2475 4.87849 66.0855 5.11407 66.0217 5.40364L66.007 5.4699H64.3137L64.3211 5.38156C64.3603 4.92021 64.5149 4.50794 64.7849 4.14475C65.0548 3.77665 65.4278 3.48708 65.9039 3.27604C66.3849 3.06499 66.9542 2.95947 67.6119 2.95947C68.2646 2.95947 68.829 3.06745 69.3051 3.2834C69.7861 3.49935 70.1567 3.80119 70.4168 4.18892C70.6818 4.57665 70.8143 5.03309 70.8143 5.55824V10.9251H68.9886V9.72511H68.9444C68.7971 9.99505 68.6057 10.2306 68.3701 10.4319C68.1346 10.6331 67.8646 10.7877 67.5603 10.8957C67.2609 11.0036 66.9395 11.0576 66.5959 11.0576Z" fill="#745A5A"/>
<path d="M60.8984 10.9253V0.302002H62.7316V10.9253H60.8984Z" fill="#745A5A"/>
<path d="M52.8813 7.41365V5.88237H55.5537C56.2408 5.88237 56.7709 5.70813 57.1439 5.35967C57.5218 5.00629 57.7108 4.51059 57.7108 3.87255V3.85783C57.7108 3.21488 57.5218 2.71918 57.1439 2.37071C56.7709 2.02225 56.2408 1.84801 55.5537 1.84801H52.8813V0.302002H56.0249C56.7415 0.302002 57.3697 0.449241 57.9096 0.74372C58.4543 1.0382 58.8789 1.45292 59.1832 1.98789C59.4875 2.51795 59.6396 3.13881 59.6396 3.85047V3.86519C59.6396 4.57194 59.4875 5.1928 59.1832 5.72777C58.8789 6.25783 58.4543 6.67255 57.9096 6.97194C57.3697 7.26642 56.7415 7.41365 56.0249 7.41365H52.8813ZM51.9316 10.9253V0.302002H53.831V10.9253H51.9316Z" fill="#745A5A"/>
<path d="M40.293 10.9251V3.12144H42.1187V4.34352H42.1629C42.3641 3.92144 42.6635 3.58524 43.0611 3.33493C43.4635 3.08463 43.9592 2.95947 44.5482 2.95947C45.4071 2.95947 46.0697 3.2196 46.5359 3.73984C47.0071 4.26009 47.2427 4.97174 47.2427 5.87481V10.9251H45.4095V6.24291C45.4095 5.68831 45.2795 5.26131 45.0193 4.96193C44.7592 4.65763 44.369 4.50548 43.8488 4.50548C43.5003 4.50548 43.196 4.58647 42.9359 4.74843C42.6758 4.90548 42.4746 5.12634 42.3322 5.41101C42.1899 5.69076 42.1187 6.01959 42.1187 6.39751V10.9251H40.293Z" fill="#745A5A"/>
<path d="M34.5862 11.0576C34.0708 11.0576 33.6144 10.9595 33.2168 10.7631C32.8242 10.5619 32.5174 10.2846 32.2966 9.93125C32.0806 9.57297 31.9727 9.16315 31.9727 8.7018V8.68708C31.9727 8.22082 32.088 7.82327 32.3187 7.49444C32.5543 7.1607 32.8929 6.89812 33.3346 6.70671C33.7763 6.51039 34.3113 6.3926 34.9395 6.35334L37.9211 6.16929V7.38401L35.1972 7.55334C34.7457 7.58278 34.3996 7.69076 34.1592 7.87726C33.9187 8.06376 33.7984 8.31162 33.7984 8.62082V8.62818C33.7984 8.9472 33.9187 9.19996 34.1592 9.38646C34.4046 9.56806 34.7285 9.65886 35.1309 9.65886C35.4843 9.65886 35.7984 9.58769 36.0733 9.44536C36.353 9.30303 36.5739 9.10916 36.7358 8.86376C36.8978 8.61837 36.9788 8.34106 36.9788 8.03186V5.69076C36.9788 5.29812 36.8536 4.98892 36.6033 4.76315C36.3579 4.53248 36.0021 4.41714 35.5358 4.41714C35.1039 4.41714 34.7579 4.51039 34.4978 4.6969C34.2377 4.87849 34.0757 5.11407 34.0119 5.40364L33.9972 5.4699H32.3039L32.3113 5.38156C32.3506 4.92021 32.5052 4.50794 32.7751 4.14475C33.045 3.77665 33.4181 3.48708 33.8941 3.27604C34.3751 3.06499 34.9444 2.95947 35.6021 2.95947C36.2549 2.95947 36.8193 3.06745 37.2954 3.2834C37.7763 3.49935 38.1469 3.80119 38.407 4.18892C38.672 4.57665 38.8046 5.03309 38.8046 5.55824V10.9251H36.9788V9.72511H36.9346C36.7874 9.99505 36.596 10.2306 36.3604 10.4319C36.1248 10.6331 35.8549 10.7877 35.5506 10.8957C35.2512 11.0036 34.9297 11.0576 34.5862 11.0576Z" fill="#745A5A"/>
<path d="M27.7478 11.0797C26.9773 11.0797 26.3098 10.9153 25.7454 10.5865C25.181 10.2576 24.7442 9.78892 24.435 9.18033C24.1307 8.57174 23.9785 7.85027 23.9785 7.01591V7.00855C23.9785 6.1791 24.1331 5.46254 24.4423 4.85886C24.7515 4.25027 25.1859 3.78156 25.7454 3.45272C26.3098 3.12389 26.9699 2.95947 27.7258 2.95947C28.4129 2.95947 29.0067 3.09199 29.5073 3.35702C30.008 3.61714 30.4006 3.96315 30.6853 4.39505C30.9699 4.82696 31.1319 5.30303 31.1712 5.82327V5.87481H29.4485L29.4337 5.81591C29.3601 5.438 29.181 5.11653 28.8963 4.8515C28.6166 4.58156 28.2337 4.44659 27.7478 4.44659C27.365 4.44659 27.0288 4.55211 26.7393 4.76315C26.4546 4.96929 26.2337 5.26377 26.0767 5.64659C25.9196 6.02941 25.8411 6.48831 25.8411 7.02327V7.03064C25.8411 7.57051 25.9196 8.03186 26.0767 8.41468C26.2386 8.79751 26.462 9.09198 26.7466 9.29812C27.0362 9.49935 27.3724 9.59996 27.7552 9.59996C28.2215 9.59996 28.5969 9.47481 28.8816 9.2245C29.1712 8.96929 29.3577 8.638 29.4411 8.23064L29.4558 8.16438H31.1859L31.1785 8.21591C31.1294 8.75579 30.9577 9.24168 30.6632 9.67358C30.3687 10.1055 29.9736 10.449 29.4779 10.7043C28.9822 10.9546 28.4055 11.0797 27.7478 11.0797Z" fill="#745A5A"/>
<path d="M20.9078 10.9251V3.12147H22.7409V10.9251H20.9078ZM21.8206 2.00245C21.536 2.00245 21.2955 1.90429 21.0992 1.70797C20.9028 1.51166 20.8047 1.27607 20.8047 1.00123C20.8047 0.721472 20.9028 0.485889 21.0992 0.294478C21.2955 0.0981595 21.536 0 21.8206 0C22.1102 0 22.3532 0.0981595 22.5495 0.294478C22.7458 0.485889 22.844 0.721472 22.844 1.00123C22.844 1.27607 22.7458 1.51166 22.5495 1.70797C22.3532 1.90429 22.1102 2.00245 21.8206 2.00245Z" fill="#745A5A"/>
<path d="M15.6738 10.9251V3.12144H17.4996V4.46867H17.5438C17.6616 3.99751 17.8751 3.62941 18.1843 3.36438C18.4984 3.09444 18.8812 2.95947 19.3327 2.95947C19.4456 2.95947 19.5536 2.96683 19.6566 2.98156C19.7597 2.99628 19.8456 3.01346 19.9143 3.03309V4.68953C19.8407 4.66009 19.7352 4.63555 19.5978 4.61591C19.4652 4.59628 19.3205 4.58647 19.1634 4.58647C18.8198 4.58647 18.5229 4.65763 18.2726 4.79996C18.0223 4.93739 17.8309 5.14107 17.6984 5.41101C17.5659 5.68094 17.4996 6.00978 17.4996 6.39751V10.9251H15.6738Z" fill="#745A5A"/>
<path d="M11.1026 10.9251V4.53494H10.0352V3.12145H11.1026V2.37789C11.1026 1.86746 11.1861 1.44783 11.3529 1.119C11.5247 0.790161 11.7873 0.547217 12.1407 0.390161C12.4941 0.228198 12.9529 0.147217 13.5174 0.147217C13.699 0.147217 13.8781 0.154579 14.0548 0.169303C14.2364 0.184027 14.3836 0.201204 14.4965 0.220836V1.50182C14.418 1.492 14.3296 1.48464 14.2315 1.47973C14.1382 1.46992 14.0425 1.46501 13.9444 1.46501C13.5861 1.46501 13.321 1.54599 13.1493 1.70795C12.9824 1.86992 12.899 2.11041 12.899 2.42942V3.12145H14.4671V4.53494H12.9358V10.9251H11.1026Z" fill="#745A5A"/>
<path d="M0 10.9253L3.79877 0.302002H5.39632V2.19403H4.84417L1.98773 10.9253H0ZM1.92147 8.1793L2.42945 6.71427H7.2957L7.80368 8.1793H1.92147ZM7.73742 10.9253L4.88098 2.19403V0.302002H5.93374L9.72515 10.9253H7.73742Z" fill="#745A5A"/>
</svg>
