<svg width="70" height="30" viewBox="0 0 70 30" fill="none" xmlns="http://www.w3.org/2000/svg">
<g clip-path="url(#clip0_380_14545)">
<mask id="mask0_380_14545" style="mask-type:luminance" maskUnits="userSpaceOnUse" x="0" y="0" width="91" height="30">
<path d="M0 4.57764e-05H90.7794V29.9088H0V4.57764e-05Z" fill="white"/>
</mask>
<g mask="url(#mask0_380_14545)">
<path d="M13.5762 14.7089C13.5762 9.7516 16.0365 5.46174 23.3567 5.46174C23.3567 10.4294 20.0337 14.7089 13.5762 14.7089Z" fill="#4A9C2D"/>
<path d="M25.3041 27.7246C26.6751 27.7246 27.7291 27.5328 28.8112 27.141C28.8112 23.218 26.4313 20.4144 22.2277 18.3942C19.0106 16.8079 15.0508 15.9865 11.4398 15.9865C13.0242 11.3098 11.8691 5.5065 10.3337 2.32102C8.63251 5.65828 7.57046 11.3797 9.20393 16.0344C5.99633 16.2646 3.45237 17.6388 2.37611 19.4506C2.29476 19.5887 2.13205 19.8832 2.22929 19.9336C2.30618 19.9739 2.43016 19.8506 2.50678 19.7818C3.66578 18.7268 5.20063 18.2125 6.67418 18.2125C10.0796 18.2125 12.484 20.9917 14.1826 22.6613C17.8332 26.2509 21.4016 27.7317 25.3041 27.7246Z" fill="#4A9C2D"/>
<path d="M39.3718 9.30033L37.5968 10.1949C37.5082 10.2384 37.4193 10.3042 37.3304 10.3042C37.2638 10.3042 37.1972 10.2603 37.1529 10.1513C36.7537 9.21321 36.1767 8.86389 35.5777 8.86389H34.1133C33.248 8.86389 32.5158 9.58417 32.5158 10.4349V16.8932C32.5158 17.7442 33.248 18.4642 34.1133 18.4642H35.2005C36.0881 18.4642 36.7757 17.7661 36.7757 16.8932V15.8677C36.7757 15.7151 36.7091 15.6496 36.5539 15.6496H34.4683C34.3128 15.6496 34.2465 15.5842 34.2465 15.4313V13.5768C34.2465 13.4242 34.3128 13.3587 34.4683 13.3587H39.1054C39.2609 13.3587 39.3272 13.4242 39.3272 13.5768V16.8932C39.3272 19.1625 37.7076 20.7551 35.2005 20.7551H34.1133C31.5839 20.7551 29.9863 19.1625 29.9863 16.8932V10.4349C29.9863 8.16581 31.5839 6.57294 34.1133 6.57294H35.5777C37.4193 6.57294 38.4178 7.31485 39.0834 8.34033C39.2829 8.66745 39.5049 9.01677 39.5049 9.14773C39.5049 9.21321 39.4604 9.25677 39.3718 9.30033Z" fill="#231F20"/>
<path d="M48.0246 16.2605C48.0246 15.3877 47.3144 14.7115 46.427 14.7115H43.9864C43.831 14.7115 43.7644 14.7767 43.7644 14.9296V18.0277C43.7644 18.1805 43.831 18.246 43.9864 18.246H46.427C47.2924 18.246 48.0246 17.5696 48.0246 16.6751V16.2605ZM48.0246 10.6532C48.0246 9.80219 47.2924 9.08219 46.427 9.08219H43.9864C43.831 9.08219 43.7644 9.14767 43.7644 9.30027V12.2022C43.7644 12.3551 43.831 12.4203 43.9864 12.4203H46.427C47.2924 12.4203 48.0246 11.7003 48.0246 10.8493V10.6532ZM46.427 20.537H41.4347C41.2795 20.537 41.2129 20.4715 41.2129 20.3189V7.00932C41.2129 6.85671 41.2795 6.79123 41.4347 6.79123H46.427C48.9565 6.79123 50.554 8.38384 50.554 10.8493V11.0677C50.554 11.8751 50.0213 12.8132 49.3777 13.4241C49.3114 13.4677 49.2891 13.5332 49.2891 13.577C49.2891 13.6205 49.3114 13.686 49.3777 13.7296C50.0213 14.3405 50.554 15.3877 50.554 16.1951V16.5222C50.554 18.9879 48.9565 20.537 46.427 20.537Z" fill="#231F20"/>
<path d="M54.9918 20.537H52.8842C52.7287 20.537 52.6621 20.4715 52.6621 20.3186V7.00932C52.6621 6.85644 52.7287 6.79123 52.8842 6.79123H54.9918C55.147 6.79123 55.2136 6.85644 55.2136 7.00932V20.3186C55.2136 20.4715 55.147 20.537 54.9918 20.537Z" fill="#231F20"/>
<path d="M66.0637 9.08231H60.7833C60.6278 9.08231 60.5612 9.14779 60.5612 9.3004V12.2023C60.5612 12.3549 60.6278 12.4204 60.7833 12.4204H65.1098C65.2652 12.4204 65.3316 12.4859 65.3316 12.6385V14.4933C65.3316 14.6459 65.2652 14.7114 65.1098 14.7114H60.7833C60.6278 14.7114 60.5612 14.7768 60.5612 14.9297V20.3188C60.5612 20.4716 60.4947 20.5371 60.3395 20.5371H58.2318C58.0764 20.5371 58.0098 20.4716 58.0098 20.3188V7.00944C58.0098 6.85656 58.0764 6.79136 58.2318 6.79136H66.0637C66.2192 6.79136 66.2858 6.85656 66.2858 7.00944V8.86396C66.2858 9.01684 66.2192 9.08231 66.0637 9.08231Z" fill="#231F20"/>
</g>
</g>
<defs>
<clipPath id="clip0_380_14545">
<rect width="70" height="30" fill="white"/>
</clipPath>
</defs>
</svg>
