<svg width="48" height="29" viewBox="0 0 48 29" fill="none" xmlns="http://www.w3.org/2000/svg">
<path d="M10.7219 4.12061C7.52007 4.12061 4.868 6.49007 4.45476 9.55145H16.9891C16.5755 6.49007 13.9239 4.12061 10.7219 4.12061ZM6.44526 8.12025C7.26066 6.59402 8.87071 5.55169 10.7218 5.55169C12.5728 5.55169 14.1829 6.59402 14.9983 8.12025H6.44526ZM39.0806 14.9115V1.25791H37.5999V16.3426H46.762V14.9115H39.0806ZM35.9205 1.25791H34.4394V5.04212C32.6931 2.6401 29.8058 1.06543 26.5433 1.06543C23.2298 1.06543 20.302 2.68854 18.5647 5.15413C16.8567 2.68866 13.9798 1.06543 10.7219 1.06543C5.49166 1.06543 1.23633 5.24634 1.23633 10.3854C1.23633 15.5248 5.49166 19.7056 10.7219 19.7056C13.9798 19.7056 16.8565 18.0819 18.5643 15.6161C20.3017 18.0826 23.2298 19.7056 26.5433 19.7056C29.8058 19.7056 32.6931 18.131 34.4394 15.7285V19.3977H46.762V17.9663H35.9205V1.25791ZM26.5433 18.2742C23.4058 18.2742 20.683 16.552 19.3167 14.038H17.8063C16.4669 16.552 13.7976 18.2742 10.7218 18.2742C6.30803 18.2742 2.71718 14.7351 2.71718 10.3854C2.71718 6.03566 6.30803 2.49686 10.7218 2.49686C14.5692 2.49686 17.7903 5.186 18.554 8.75684C19.333 5.186 22.6187 2.49686 26.5432 2.49686C31.0455 2.49686 34.7083 6.03566 34.7083 10.3854C34.7083 14.7352 31.0455 18.2742 26.5433 18.2742ZM26.5433 4.12061C22.9671 4.12061 20.0579 6.93072 20.0579 10.3854C20.0579 10.653 20.0773 10.9164 20.1112 11.1753H4.44893C4.84259 14.258 7.50454 16.6505 10.7219 16.6505C12.8321 16.6505 14.6969 15.6169 15.8441 14.038H13.884C13.0352 14.7723 11.9311 15.2193 10.7218 15.2193C8.85334 15.2193 7.2318 14.1565 6.42389 12.6066H15.0197H20.48C21.4105 14.9679 23.7766 16.6505 26.5432 16.6505C30.1195 16.6505 33.0287 13.8401 33.0287 10.3854C33.0288 6.93072 30.1195 4.12061 26.5433 4.12061ZM26.5433 15.2193C23.7838 15.2193 21.5386 13.0507 21.5386 10.3854C21.5386 7.72027 23.7838 5.55169 26.5433 5.55169C29.3028 5.55169 31.5478 7.72027 31.5478 10.3854C31.5478 13.0507 29.3028 15.2193 26.5433 15.2193Z" fill="#C1D72C"/>
<path d="M4.32928 25.4291V25.7156H2.63062V27.0332H4.52204V27.3196H2.30469V23.9398H4.44295V24.2263H2.63062V25.4291H4.32928Z" fill="#8EC1EC"/>
<path d="M5.19858 25.7348C5.19858 25.5728 5.17383 25.2288 5.17383 25.1145H5.47019C5.47495 25.2766 5.48007 25.458 5.48995 25.5008H5.50476C5.62337 25.2573 5.91461 25.0569 6.28506 25.0569C6.99597 25.0569 7.15415 25.5248 7.15415 26.0072V27.3198H6.85779V26.0213C6.85779 25.663 6.75424 25.3148 6.28506 25.3148C5.8454 25.3148 5.49471 25.6106 5.49471 26.2171V27.3199H5.19852V25.7348H5.19858Z" fill="#8EC1EC"/>
<path d="M9.90305 26.9952C9.68072 27.2531 9.38948 27.3771 9.06366 27.3771C8.36245 27.3771 7.86328 26.8899 7.86328 26.217C7.86328 25.5438 8.36245 25.0568 9.06366 25.0568C9.39442 25.0568 9.69078 25.1956 9.91293 25.439L9.67596 25.6106C9.50314 25.4294 9.30051 25.3147 9.06366 25.3147C8.50557 25.3147 8.15982 25.7203 8.15982 26.217C8.15982 26.7133 8.50563 27.1191 9.06366 27.1191C9.31039 27.1191 9.52308 26.9951 9.67596 26.8136L9.90305 26.9952Z" fill="#8EC1EC"/>
<path d="M11.0608 28.0024C10.9472 28.2841 10.7594 28.4655 10.4335 28.4655C10.3349 28.4655 10.2363 28.4463 10.1422 28.4224L10.1718 28.1549C10.2558 28.1791 10.3496 28.2079 10.4385 28.2079C10.6557 28.2079 10.7498 28.0122 10.8189 27.8404L11.0263 27.329L10.0977 25.1143H10.4286L11.1844 26.9713L11.9202 25.1143H12.236L11.0608 28.0024Z" fill="#8EC1EC"/>
<path d="M14.6646 26.9952C14.4424 27.2531 14.1511 27.3771 13.825 27.3771C13.124 27.3771 12.625 26.8899 12.625 26.217C12.625 25.5438 13.124 25.0568 13.825 25.0568C14.156 25.0568 14.4521 25.1956 14.6747 25.439L14.4375 25.6106C14.2647 25.4294 14.0621 25.3147 13.825 25.3147C13.2671 25.3147 12.9213 25.7203 12.9213 26.217C12.9213 26.7133 13.2671 27.1191 13.825 27.1191C14.0721 27.1191 14.2843 26.9951 14.4375 26.8136L14.6646 26.9952Z" fill="#8EC1EC"/>
<path d="M15.2266 23.7107H15.5229V27.32H15.2266V23.7107Z" fill="#8EC1EC"/>
<path d="M17.485 25.0568C18.1864 25.0568 18.6852 25.5438 18.6852 26.217C18.6852 26.89 18.1864 27.377 17.485 27.377C16.7837 27.377 16.2852 26.89 16.2852 26.217C16.2852 25.5438 16.7837 25.0568 17.485 25.0568ZM17.485 27.1191C18.0431 27.1191 18.389 26.7133 18.389 26.217C18.389 25.7206 18.0431 25.3147 17.485 25.3147C16.9269 25.3147 16.5812 25.7205 16.5812 26.217C16.5812 26.7133 16.927 27.1191 17.485 27.1191Z" fill="#8EC1EC"/>
<path d="M19.332 25.1143H19.6282V25.5007H19.6383C19.8209 25.1955 20.211 25.0568 20.5517 25.0568C21.2531 25.0568 21.7515 25.5438 21.7515 26.217C21.7515 26.89 21.2531 27.377 20.5517 27.377C20.211 27.377 19.821 27.2385 19.6383 26.9332H19.6282V28.408H19.332V25.1143ZM20.5516 27.1191C21.1097 27.1191 21.4557 26.7133 21.4557 26.217C21.4557 25.7206 21.1097 25.3147 20.5516 25.3147C20.0135 25.3147 19.5985 25.7205 19.5985 26.217C19.5985 26.7133 20.0135 27.1191 20.5516 27.1191Z" fill="#8EC1EC"/>
<path d="M24.4755 26.9045C24.2433 27.2387 23.8929 27.3768 23.4878 27.3768C22.7913 27.3768 22.332 26.8949 22.332 26.2122C22.332 25.5535 22.8061 25.0568 23.473 25.0568C24.1743 25.0568 24.5445 25.5773 24.5445 26.0883V26.2887H22.6286C22.6286 26.5271 22.8014 27.1191 23.4929 27.1191C23.7939 27.1191 24.1101 26.9665 24.2582 26.7276L24.4755 26.9045ZM24.2484 26.0307C24.2484 25.6392 23.8976 25.3146 23.4584 25.3146C22.8113 25.3146 22.6287 25.916 22.6287 26.0307H24.2484Z" fill="#8EC1EC"/>
<path d="M27.2526 26.933H27.2428C27.0602 27.2386 26.6697 27.3771 26.3291 27.3771C25.6277 27.3771 25.1289 26.8901 25.1289 26.217C25.1289 25.5438 25.6277 25.0568 26.3291 25.0568C26.6697 25.0568 27.0601 25.1956 27.2428 25.5006H27.2526V23.7107H27.5489V27.3199H27.2526V26.933ZM26.3291 25.3147C25.771 25.3147 25.4251 25.7205 25.4251 26.217C25.4251 26.7133 25.771 27.1191 26.3291 27.1191C26.8673 27.1191 27.2822 26.7133 27.2822 26.217C27.2822 25.7205 26.8673 25.3147 26.3291 25.3147Z" fill="#8EC1EC"/>
<path d="M28.5212 24.0256C28.6447 24.0256 28.7432 24.1212 28.7432 24.2407C28.7432 24.3599 28.6447 24.4555 28.5212 24.4555C28.3976 24.4555 28.2988 24.3599 28.2988 24.2407C28.2988 24.1212 28.3976 24.0256 28.5212 24.0256ZM28.3729 25.1143H28.6692V27.3199H28.3729V25.1143Z" fill="#8EC1EC"/>
<path d="M31.33 26.3937C31.33 26.8232 31.3398 27.0666 31.3744 27.3198H31.0979C31.0779 27.2098 31.0682 27.0858 31.0682 26.9619H31.0581C30.8905 27.2432 30.6432 27.3768 30.2582 27.3768C29.8678 27.3768 29.4531 27.1908 29.4531 26.723C29.4531 26.0499 30.2684 25.9831 30.7177 25.9831H31.0633V25.8495C31.0633 25.4674 30.7869 25.3148 30.4212 25.3148C30.1547 25.3148 29.9275 25.3958 29.7249 25.5629L29.5522 25.3672C29.7694 25.1668 30.1249 25.057 30.4212 25.057C30.9744 25.057 31.33 25.2957 31.33 25.854L31.33 26.3937ZM30.7372 26.2121C30.2432 26.2121 29.7495 26.3315 29.7495 26.7085C29.7495 26.9807 30.0211 27.1192 30.2683 27.1192C30.9005 27.1192 31.0632 26.7276 31.0632 26.3602V26.2121H30.7372Z" fill="#8EC1EC"/>
<path d="M34.5752 25.0568C35.2766 25.0568 35.775 25.5438 35.775 26.217C35.775 26.89 35.2766 27.377 34.5752 27.377C33.874 27.377 33.375 26.89 33.375 26.217C33.375 25.5438 33.8739 25.0568 34.5752 25.0568ZM34.5752 27.1191C35.1333 27.1191 35.4792 26.7133 35.4792 26.217C35.4792 25.7206 35.1333 25.3147 34.5752 25.3147C34.0168 25.3147 33.6714 25.7205 33.6714 26.217C33.6713 26.7133 34.0168 27.1191 34.5752 27.1191Z" fill="#8EC1EC"/>
<path d="M36.6542 25.3718H36.1797V25.1142H36.6542V24.3933C36.6542 23.8253 37.0441 23.6531 37.3354 23.6531C37.4786 23.6531 37.5873 23.6725 37.6763 23.7107L37.6168 23.9589C37.5476 23.9255 37.464 23.911 37.3503 23.911C37.0786 23.911 36.9501 24.1021 36.9501 24.498V25.1142H37.4837V25.3718H36.9501V27.3198H36.6541V25.3718H36.6542Z" fill="#8EC1EC"/>
<path d="M39.416 27.3196V23.9398H39.7421V27.0332H41.3716V27.3196H39.416Z" fill="#8EC1EC"/>
<path d="M42.0466 24.0256C42.1698 24.0256 42.2688 24.1212 42.2688 24.2407C42.2688 24.3599 42.1698 24.4555 42.0466 24.4555C41.9232 24.4555 41.8242 24.3599 41.8242 24.2407C41.8242 24.1212 41.9232 24.0256 42.0466 24.0256ZM41.8985 25.1143H42.1947V27.3199H41.8985V25.1143Z" fill="#8EC1EC"/>
<path d="M43.2516 25.3718H42.7773V25.1142H43.2516V24.3933C43.2516 23.8253 43.6416 23.6531 43.9331 23.6531C44.076 23.6531 44.1849 23.6725 44.2737 23.7107L44.2143 23.9589C44.1453 23.9255 44.0615 23.911 43.9477 23.911C43.6761 23.911 43.5479 24.1021 43.5479 24.498V25.1142H44.0812V25.3718H43.5479V27.3198H43.2516V25.3718Z" fill="#8EC1EC"/>
<path d="M46.6102 26.9045C46.378 27.2387 46.0275 27.3768 45.6225 27.3768C44.9262 27.3768 44.4668 26.8949 44.4668 26.2122C44.4668 25.5535 44.9411 25.0568 45.6075 25.0568C46.3089 25.0568 46.6794 25.5773 46.6794 26.0883V26.2887H44.7635C44.7635 26.5271 44.9363 27.1191 45.6275 27.1191C45.9285 27.1191 46.2448 26.9665 46.3928 26.7276L46.6102 26.9045ZM46.3833 26.0307C46.3833 25.6392 46.0326 25.3146 45.593 25.3146C44.9463 25.3146 44.7635 25.916 44.7635 26.0307H46.3833Z" fill="#8EC1EC"/>
</svg>
