<svg width="88" height="30" viewBox="0 0 88 30" fill="none" xmlns="http://www.w3.org/2000/svg">
<g clip-path="url(#clip0_380_14526)">
<path d="M37.6578 15.1734C37.6578 19.3217 34.3975 22.3785 30.3963 22.3785C26.3951 22.3785 23.1348 19.3217 23.1348 15.1734C23.1348 10.9959 26.3951 7.96838 30.3963 7.96838C34.3975 7.96838 37.6578 10.9959 37.6578 15.1734ZM34.4791 15.1734C34.4791 12.5812 32.5894 10.8075 30.3963 10.8075C28.2032 10.8075 26.3135 12.5812 26.3135 15.1734C26.3135 17.7397 28.2032 19.5393 30.3963 19.5393C32.5894 19.5393 34.4791 17.7364 34.4791 15.1734Z" fill="#EA4335"/>
<path d="M53.3238 15.1734C53.3238 19.3217 50.0635 22.3785 46.0623 22.3785C42.0611 22.3785 38.8008 19.3217 38.8008 15.1734C38.8008 10.9992 42.0611 7.96838 46.0623 7.96838C50.0635 7.96838 53.3238 10.9959 53.3238 15.1734ZM50.1451 15.1734C50.1451 12.5812 48.2555 10.8075 46.0623 10.8075C43.8692 10.8075 41.9795 12.5812 41.9795 15.1734C41.9795 17.7397 43.8692 19.5393 46.0623 19.5393C48.2555 19.5393 50.1451 17.7364 50.1451 15.1734Z" fill="#FBBC05"/>
<path d="M68.3359 8.40367V21.339C68.3359 26.6599 65.1832 28.8331 61.4562 28.8331C57.9478 28.8331 55.8362 26.4975 55.0399 24.5874L57.8075 23.4407C58.3003 24.6134 59.5078 25.9972 61.4529 25.9972C63.8386 25.9972 65.317 24.5322 65.317 21.7742V20.738H65.2061C64.4946 21.6118 63.1239 22.3752 61.3942 22.3752C57.7748 22.3752 54.459 19.2372 54.459 15.1994C54.459 11.1324 57.7748 7.96838 61.3942 7.96838C63.1206 7.96838 64.4913 8.73177 65.2061 9.57961H65.317V8.40692H68.3359V8.40367ZM65.5422 15.1994C65.5422 12.6624 63.8419 10.8075 61.6781 10.8075C59.4849 10.8075 57.6475 12.6624 57.6475 15.1994C57.6475 17.7105 59.4849 19.5393 61.6781 19.5393C63.8419 19.5393 65.5422 17.7105 65.5422 15.1994Z" fill="#4285F4"/>
<path d="M73.3133 0.821899V21.9367H70.2129V0.821899H73.3133Z" fill="#34A853"/>
<path d="M85.3955 17.5449L87.8628 19.1821C87.0665 20.3548 85.1475 22.3753 81.8316 22.3753C77.7195 22.3753 74.6484 19.2113 74.6484 15.1702C74.6484 10.8856 77.7456 7.96521 81.4759 7.96521C85.2323 7.96521 87.0697 10.9408 87.6702 12.5488L87.9999 13.3674L78.3233 17.3564C79.0641 18.802 80.2162 19.5394 81.8316 19.5394C83.4504 19.5394 84.5731 18.7468 85.3955 17.5449ZM77.8011 14.9526L84.2696 12.2791C83.9138 11.3793 82.8434 10.7524 81.5836 10.7524C79.9681 10.7524 77.7195 12.1719 77.8011 14.9526Z" fill="#EA4335"/>
<path d="M11.3998 13.2991V10.2423H21.7487C21.8499 10.7751 21.9021 11.4053 21.9021 12.0874C21.9021 14.3808 21.2722 17.2167 19.2423 19.2373C17.2678 21.2838 14.745 22.3752 11.4031 22.3752C5.20872 22.3752 0 17.3532 0 11.1876C0 5.02209 5.20872 0 11.4031 0C14.8298 0 17.271 1.33836 19.1052 3.08277L16.9381 5.23973C15.6229 4.01182 13.841 3.05678 11.3998 3.05678C6.87643 3.05678 3.33867 6.68529 3.33867 11.1876C3.33867 15.69 6.87643 19.3185 11.3998 19.3185C14.3338 19.3185 16.0047 18.1458 17.0752 17.0803C17.9433 16.2162 18.5145 14.9818 18.7397 13.2959L11.3998 13.2991Z" fill="#4285F4"/>
<path d="M70.3262 28.862V24.9911H70.8408V28.862H70.3262Z" fill="#4285F4"/>
<path d="M71.6836 28.862V26.0579H72.1107V26.4513C72.1991 26.314 72.3167 26.204 72.4635 26.1213C72.6103 26.0368 72.7774 25.9945 72.9649 25.9945C73.1736 25.9945 73.3442 26.0376 73.4769 26.1239C73.6113 26.2101 73.7059 26.3307 73.7607 26.4856C73.9836 26.1582 74.2736 25.9945 74.6308 25.9945C74.9103 25.9945 75.1251 26.072 75.2755 26.2269C75.4258 26.38 75.5009 26.6168 75.5009 26.9371V28.862H75.0261V27.0956C75.0261 26.9055 75.0102 26.769 74.9783 26.6863C74.9483 26.6018 74.8926 26.534 74.8112 26.483C74.7299 26.4319 74.6344 26.4064 74.5247 26.4064C74.3266 26.4064 74.1622 26.4724 74.0313 26.6044C73.9004 26.7347 73.835 26.9442 73.835 27.2329V28.862H73.3575V27.0401C73.3575 26.8289 73.3186 26.6705 73.2408 26.5648C73.163 26.4592 73.0356 26.4064 72.8588 26.4064C72.7244 26.4064 72.5997 26.4416 72.4847 26.512C72.3716 26.5824 72.2893 26.6854 72.238 26.821C72.1867 26.9565 72.1611 27.1519 72.1611 27.4071V28.862H71.6836Z" fill="#4285F4"/>
<path d="M78.0646 28.5161C77.8878 28.6658 77.7171 28.7714 77.5527 28.833C77.39 28.8946 77.2149 28.9254 77.0274 28.9254C76.7179 28.9254 76.4801 28.8506 76.3138 28.701C76.1476 28.5496 76.0645 28.3568 76.0645 28.1227C76.0645 27.9854 76.0954 27.8604 76.1573 27.7478C76.221 27.6333 76.3032 27.5418 76.404 27.4732C76.5066 27.4045 76.6215 27.3526 76.7489 27.3174C76.8426 27.2927 76.9841 27.269 77.1733 27.2461C77.5588 27.2003 77.8427 27.1457 78.0249 27.0824C78.0266 27.0172 78.0275 26.9759 78.0275 26.9583C78.0275 26.7646 77.9824 26.6282 77.8922 26.549C77.7701 26.4416 77.5889 26.3879 77.3483 26.3879C77.1237 26.3879 76.9575 26.4275 76.8496 26.5068C76.7435 26.5842 76.6648 26.7224 76.6135 26.9213L76.1466 26.8579C76.1891 26.659 76.2589 26.4988 76.3562 26.3774C76.4535 26.2542 76.5941 26.16 76.778 26.0948C76.9619 26.028 77.175 25.9945 77.4173 25.9945C77.6578 25.9945 77.8533 26.0227 78.0036 26.079C78.1539 26.1353 78.2644 26.2066 78.3352 26.2929C78.4059 26.3774 78.4554 26.4847 78.4837 26.615C78.4996 26.696 78.5076 26.8421 78.5076 27.0533V27.687C78.5076 28.1289 78.5173 28.4088 78.5368 28.5267C78.558 28.6429 78.5987 28.7547 78.6588 28.862H78.1601C78.1106 28.7635 78.0788 28.6482 78.0646 28.5161ZM78.0249 27.4547C77.8515 27.5251 77.5916 27.5849 77.2449 27.6342C77.0486 27.6624 76.9098 27.6941 76.8285 27.7293C76.7471 27.7645 76.6843 27.8164 76.6401 27.8851C76.5959 27.952 76.5738 28.0268 76.5738 28.1095C76.5738 28.2362 76.6215 28.3419 76.717 28.4264C76.8143 28.5108 76.9558 28.5531 77.1415 28.5531C77.3254 28.5531 77.489 28.5135 77.6322 28.4343C77.7755 28.3533 77.8807 28.2433 77.9479 28.1042C77.9992 27.9968 78.0249 27.8384 78.0249 27.6289V27.4547Z" fill="#4285F4"/>
<path d="M79.1619 29.0944L79.6261 29.163C79.6456 29.3056 79.6995 29.4095 79.788 29.4746C79.9065 29.5626 80.0683 29.6066 80.2734 29.6066C80.4945 29.6066 80.6651 29.5626 80.7854 29.4746C80.9057 29.3866 80.987 29.2634 81.0295 29.1049C81.0542 29.0081 81.0657 28.8048 81.0639 28.495C80.8553 28.7397 80.5953 28.862 80.284 28.862C79.8967 28.862 79.597 28.723 79.3847 28.4448C79.1725 28.1667 79.0664 27.8331 79.0664 27.4441C79.0664 27.1765 79.115 26.9301 79.2123 26.7048C79.3096 26.4777 79.4502 26.3026 79.6341 26.1793C79.8198 26.0561 80.0373 25.9945 80.2867 25.9945C80.6192 25.9945 80.8933 26.1283 81.109 26.3959V26.0579H81.5494V28.4818C81.5494 28.9184 81.5043 29.2273 81.4141 29.4086C81.3257 29.5917 81.1842 29.736 80.9897 29.8416C80.7969 29.9473 80.559 30.0001 80.2761 30.0001C79.9401 30.0001 79.6686 29.9244 79.4617 29.773C79.2548 29.6234 79.1548 29.3972 79.1619 29.0944ZM79.5572 27.4098C79.5572 27.7777 79.6306 28.0461 79.7774 28.2151C79.9241 28.3841 80.1081 28.4686 80.3291 28.4686C80.5484 28.4686 80.7323 28.385 80.8809 28.2178C81.0295 28.0488 81.1037 27.7847 81.1037 27.4256C81.1037 27.0824 81.0268 26.8236 80.873 26.6493C80.7209 26.4751 80.5369 26.3879 80.3212 26.3879C80.1089 26.3879 79.9286 26.4742 79.78 26.6467C79.6315 26.8174 79.5572 27.0718 79.5572 27.4098Z" fill="#4285F4"/>
<path d="M84.203 27.959L84.6964 28.0197C84.6186 28.3067 84.4744 28.5293 84.264 28.6878C84.0535 28.8462 83.7847 28.9254 83.4575 28.9254C83.0455 28.9254 82.7183 28.7995 82.476 28.5478C82.2355 28.2943 82.1152 27.9396 82.1152 27.4837C82.1152 27.012 82.2373 26.6458 82.4813 26.3853C82.7254 26.1248 83.0419 25.9945 83.431 25.9945C83.8077 25.9945 84.1154 26.1221 84.3542 26.3774C84.5929 26.6326 84.7123 26.9917 84.7123 27.4547C84.7123 27.4828 84.7114 27.5251 84.7097 27.5814H82.6087C82.6264 27.8895 82.7139 28.1253 82.8713 28.2891C83.0287 28.4528 83.225 28.5346 83.4602 28.5346C83.6353 28.5346 83.7848 28.4888 83.9085 28.3973C84.0323 28.3058 84.1305 28.1597 84.203 27.959ZM82.6352 27.1906H84.2083C84.1871 26.9547 84.1269 26.7778 84.0279 26.6599C83.8758 26.4768 83.6786 26.3853 83.4363 26.3853C83.217 26.3853 83.0322 26.4583 82.8819 26.6044C82.7333 26.7506 82.6511 26.9459 82.6352 27.1906Z" fill="#4285F4"/>
<path d="M85.1074 28.025L85.5796 27.9511C85.6061 28.1394 85.6795 28.2838 85.7998 28.3841C85.9218 28.4844 86.0916 28.5346 86.3091 28.5346C86.5284 28.5346 86.6911 28.4906 86.7972 28.4026C86.9034 28.3128 86.9564 28.2081 86.9564 28.0884C86.9564 27.981 86.9095 27.8965 86.8158 27.8349C86.7504 27.7926 86.5877 27.739 86.3277 27.6738C85.9775 27.5858 85.7344 27.5101 85.5982 27.4467C85.4638 27.3816 85.3612 27.2927 85.2905 27.1801C85.2215 27.0656 85.187 26.9398 85.187 26.8025C85.187 26.6775 85.2153 26.5622 85.2719 26.4566C85.3303 26.3492 85.409 26.2603 85.508 26.1899C85.5823 26.1353 85.6831 26.0896 85.8104 26.0526C85.9395 26.0139 86.0775 25.9945 86.2242 25.9945C86.4453 25.9945 86.639 26.0262 86.8052 26.0896C86.9732 26.1529 87.097 26.2392 87.1766 26.3483C87.2562 26.4557 87.311 26.6 87.3411 26.7814L86.8742 26.8447C86.853 26.7004 86.7911 26.5877 86.6885 26.5068C86.5877 26.4258 86.4444 26.3853 86.2587 26.3853C86.0394 26.3853 85.8829 26.4214 85.7892 26.4936C85.6955 26.5657 85.6486 26.6502 85.6486 26.747C85.6486 26.8086 85.668 26.8641 85.7069 26.9134C85.7459 26.9644 85.8069 27.0067 85.89 27.0401C85.9377 27.0577 86.0783 27.0982 86.3118 27.1616C86.6496 27.2514 86.8848 27.3253 87.0174 27.3834C87.1518 27.4397 87.2571 27.5224 87.3331 27.6316C87.4091 27.7407 87.4472 27.8763 87.4472 28.0382C87.4472 28.1966 87.4003 28.3463 87.3066 28.4871C87.2146 28.6261 87.0811 28.7344 86.906 28.8119C86.7309 28.8876 86.5328 28.9254 86.3118 28.9254C85.9457 28.9254 85.6663 28.8497 85.4735 28.6983C85.2825 28.5469 85.1605 28.3225 85.1074 28.025Z" fill="#4285F4"/>
</g>
<defs>
<clipPath id="clip0_380_14526">
<rect width="88" height="30" fill="white"/>
</clipPath>
</defs>
</svg>
