<svg width="39" height="23" viewBox="0 0 39 23" fill="none" xmlns="http://www.w3.org/2000/svg">
<g clip-path="url(#clip0_380_14595)">
<mask id="mask0_380_14595" style="mask-type:luminance" maskUnits="userSpaceOnUse" x="-11" y="-18" width="60" height="67">
<path d="M-10.4785 48.607H48.1955V-17.1423H-10.4785V48.607Z" fill="white"/>
</mask>
<g mask="url(#mask0_380_14595)">
<path fill-rule="evenodd" clip-rule="evenodd" d="M20.6816 1.07759H22.9462V0.262695H20.6816V1.07759ZM20.0264 1.71037H23.6019V2.69199H21.1259V3.95863H23.3187V4.94025H21.1265V6.26962H23.6341V7.25125H20.0264V1.71037ZM2.07422 1.71587H2.90521L4.80122 4.55784L6.6978 1.71587H7.52878V7.24244H6.43154V3.96579L4.8097 6.34226H4.79331L3.17203 3.96579V7.24244H2.07422V1.71587ZM8.97821 5.15815V1.71587H10.0755V5.19777C10.0755 5.96314 10.5678 6.33455 11.2134 6.33455C11.859 6.33455 12.3508 5.96314 12.3508 5.19777V1.71587H13.448V5.15815C13.448 6.6823 12.4802 7.32058 11.2134 7.32058C9.94657 7.32058 8.97821 6.6823 8.97821 5.15815ZM14.6459 6.39728L15.2909 5.57633C15.6301 5.92353 16.2112 6.34226 16.8002 6.34226C17.2921 6.34226 17.6312 6.07374 17.6312 5.71059C17.6312 5.34743 17.1875 5.16585 16.6143 4.98427L16.3158 4.88963C15.759 4.71576 14.8392 4.36086 14.8392 3.29505C14.8392 2.29252 15.5979 1.63719 16.7273 1.63719C17.3964 1.62978 18.0441 1.86629 18.5431 2.30022L17.8975 3.12117C17.6233 2.86806 17.2191 2.61606 16.7273 2.61606C16.2033 2.61606 15.872 2.89227 15.872 3.25543C15.872 3.64225 16.2915 3.80016 16.7675 3.95038L17.0665 4.04502C17.8653 4.29758 18.6963 4.66844 18.6963 5.68693C18.6963 6.69716 17.9133 7.32113 16.8082 7.32113C15.8398 7.32113 15.0653 6.83142 14.6459 6.39728ZM25.0751 5.15815V1.71587H26.1723V5.19777C26.1723 5.96314 26.6647 6.33455 27.3103 6.33455C27.9558 6.33455 28.4482 5.96314 28.4482 5.19777V1.71587H29.5449V5.15815C29.5449 6.6823 28.5771 7.32058 27.3103 7.32058C26.0434 7.32058 25.0751 6.6823 25.0751 5.15815ZM31.0723 1.71587H31.9033L33.7993 4.55784L35.6959 1.71587H36.5269V7.24244H35.4291V3.96579L33.8078 6.34226H33.7909L32.1696 3.96579V7.24244H31.0723V1.71587ZM2.09514 16.4606H2.648L5.5802 20.4982V16.4606H6.16981V21.5068H5.61694L2.68418 17.4697V21.5068H2.09514V16.4606ZM10.3253 19.6398L9.32304 17.2754H9.30834L8.30607 19.6398H10.3253ZM10.5458 20.1735H8.07769L7.51013 21.5073H6.86908L9.05792 16.4611H9.57347L11.7617 21.5068H11.1133L10.5458 20.1735ZM12.8533 17.0014H11.1738V16.4611H15.123V17.0014H13.4429V21.5079H12.8533V17.0014ZM15.7601 19.669V16.4611H16.3497V19.6833C16.3497 20.5626 16.8653 21.0462 17.6832 21.0462C18.5086 21.0462 19.0241 20.5626 19.0241 19.6833V16.4611H19.6137V19.669C19.6137 21.0462 18.7296 21.5794 17.6832 21.5794C16.6442 21.5794 15.7601 21.0457 15.7601 19.669ZM21.3741 18.9339H22.5454C23.4148 18.9339 23.6799 18.4728 23.6799 17.9676C23.6799 17.4625 23.4142 16.9943 22.5454 16.9943H21.3741V18.9339ZM24.0412 21.5073L22.4346 19.467H21.3741V21.5073H20.7845V16.4611H22.5527C23.6358 16.4611 24.2769 17.0444 24.2769 17.9533C24.2769 18.6384 23.9083 19.2145 23.135 19.4021L24.7998 21.5073H24.0412ZM25.3498 16.4606H28.4884V16.9943H25.9389V18.6813H28.2306V19.215H25.9394V20.9736H28.4957V21.5073H25.3498V16.4606ZM31.2809 16.4606H31.8406V19.2651H33.4325V19.7768H31.2809V16.4606ZM29.5494 16.4606H30.139V20.9736H33.4325V21.5073H29.5494V16.4606ZM34.3364 16.4606H37.4749V16.9943H34.9254V18.6813H37.2171V19.215H34.9254V20.9736H37.4823V21.5073H34.3364V16.4606ZM6.98271 9.43789H7.53104L10.4435 13.4469V9.43789H11.0291V14.4494H10.4802L7.56835 10.4399V14.4494H6.98271V9.43789ZM17.9467 11.9651V12.4449H15.8686V9.43789H16.3955V11.9651H17.9467ZM13.0201 11.285H14.0665L13.547 10.1609H13.5396L13.0201 11.285ZM13.0506 14.4346H16.6504V13.9339H13.0506V14.4346ZM12.8008 11.7648L12.4859 12.4449H11.9228L13.3417 9.43789H13.7448L15.1637 12.4449H14.608L14.2931 11.7648H12.8008ZM20.0716 9.43789H20.6573V11.6427H23.4374V9.43789H24.0225V14.4494H23.4374V12.1797H20.6573V14.4494H20.0716V9.43789ZM30.7202 9.91769H29.689V9.43789H32.2719V9.91769H31.2476V12.4444H30.7207V9.91824L30.7202 9.91769ZM26.9134 12.051L27.213 11.6355C27.4109 11.8078 27.7625 12.008 28.1136 12.008C28.4426 12.008 28.6766 11.865 28.6766 11.6212C28.6766 11.3279 28.3696 11.2564 28.0989 11.1777L27.8428 11.1062C27.4844 11.0055 27.009 10.8768 27.009 10.2825C27.009 9.73831 27.4182 9.39497 28.0548 9.39497C28.5014 9.39497 28.8745 9.55233 29.0791 9.68824L28.8236 10.1323C28.6331 10.0107 28.3329 9.87477 28.018 9.87477C27.7111 9.87477 27.4991 10.0035 27.4991 10.2539C27.4991 10.5114 27.7037 10.5549 28.0333 10.6479L28.2673 10.7122C28.6257 10.8124 29.1746 10.9488 29.1746 11.5855C29.1746 12.1583 28.7354 12.4878 28.0915 12.4878C27.6578 12.4839 27.2399 12.3289 26.9134 12.051ZM26.36 14.4346H29.9604V13.9339H26.36V14.4346ZM25.4482 12.4444H25.975V9.43789H25.4482V12.4444Z" fill="#1D1D1B"/>
</g>
</g>
<defs>
<clipPath id="clip0_380_14595">
<rect width="39" height="23" fill="white"/>
</clipPath>
</defs>
</svg>
