<svg width="34" height="34" viewBox="0 0 34 34" fill="none" xmlns="http://www.w3.org/2000/svg">
<g clip-path="url(#clip0_380_14434)">
<path d="M28.7356 17.0001C28.7356 23.4817 23.4811 28.736 16.9996 28.736C10.5181 28.736 5.26367 23.4816 5.26367 17.0001C5.26367 10.5186 10.5181 5.26416 16.9996 5.26416C23.4811 5.26416 28.7356 10.5186 28.7356 17.0001Z" stroke="#00A08C" stroke-width="1.44479"/>
<mask id="mask0_380_14434" style="mask-type:luminance" maskUnits="userSpaceOnUse" x="-5" y="-3" width="44" height="40">
<path d="M-3.611 -2.48608C-3.93687 -2.48608 -4.19922 -2.22374 -4.19922 -1.89786V35.8977C-4.19922 36.2236 -3.93687 36.486 -3.611 36.486H37.6116C37.9375 36.486 38.1998 36.2236 38.1998 35.8977V-1.89786C38.1998 -2.22374 37.9375 -2.48608 37.6116 -2.48608H-3.611ZM17.0003 5.26354C23.4821 5.26354 28.7365 10.5179 28.7365 16.9997C28.7365 23.4816 23.4821 28.7359 17.0003 28.7359C10.5185 28.7359 5.26409 23.4816 5.26409 16.9997C5.26409 10.5179 10.5185 5.26354 17.0003 5.26354Z" fill="white"/>
</mask>
<g mask="url(#mask0_380_14434)">
<path d="M28.7206 17.0003C31.9577 20.2374 31.9577 25.4858 28.7206 28.7229C25.4835 31.96 20.2351 31.96 16.998 28.7229C13.7609 25.4858 13.7609 20.2374 16.998 17.0003C20.2351 13.7632 25.4835 13.7632 28.7206 17.0003Z" stroke="#00A08C" stroke-width="1.50984"/>
<path d="M16.9979 5.27763C20.235 8.51473 20.235 13.7631 16.9979 17.0002C13.7608 20.2373 8.51245 20.2373 5.27535 17.0002C2.03824 13.7631 2.03824 8.51474 5.27535 5.27763C8.51245 2.04053 13.7608 2.04053 16.9979 5.27763Z" stroke="#00A08C" stroke-width="1.50984"/>
<path d="M16.998 28.7226C13.7609 31.9597 8.51254 31.9597 5.27544 28.7226C2.03833 25.4855 2.03833 20.2372 5.27544 17.0001C8.51254 13.763 13.7609 13.763 16.998 17.0001C20.2351 20.2372 20.2351 25.4855 16.998 28.7226Z" stroke="#00A08C" stroke-width="1.50984"/>
<path d="M28.7207 17.0001C25.4836 20.2372 20.2352 20.2372 16.9981 17.0001C13.761 13.763 13.761 8.51465 16.9981 5.27754C20.2352 2.04044 25.4836 2.04044 28.7207 5.27754C31.9578 8.51465 31.9578 13.763 28.7207 17.0001Z" stroke="#00A08C" stroke-width="1.50984"/>
<path d="M33.5763 17.0003C33.5763 21.5782 29.8651 25.2894 25.2872 25.2894C20.7092 25.2894 16.998 21.5782 16.998 17.0003C16.998 12.4223 20.7092 8.71118 25.2872 8.71118C29.8651 8.71118 33.5763 12.4223 33.5763 17.0003Z" stroke="#00A08C" stroke-width="1.50984"/>
<path d="M16.9981 17.0003C16.9981 21.5782 13.287 25.2894 8.70903 25.2894C4.13107 25.2894 0.419922 21.5782 0.419922 17.0003C0.419922 12.4223 4.13107 8.71118 8.70903 8.71118C13.287 8.71118 16.9981 12.4223 16.9981 17.0003Z" stroke="#00A08C" stroke-width="1.50984"/>
<path d="M25.2872 25.2894C25.2872 29.8673 21.576 33.5785 16.9981 33.5785C12.4201 33.5785 8.70898 29.8673 8.70898 25.2894C8.70898 20.7114 12.4201 17.0002 16.9981 17.0002C21.576 17.0002 25.2872 20.7114 25.2872 25.2894Z" stroke="#00A08C" stroke-width="1.50984"/>
<path d="M25.2872 8.7111C25.2872 13.2891 21.576 17.0002 16.9981 17.0002C12.4201 17.0002 8.70898 13.2891 8.70898 8.7111C8.70898 4.13315 12.4201 0.421997 16.9981 0.421997C21.576 0.421997 25.2872 4.13315 25.2872 8.7111Z" stroke="#00A08C" stroke-width="1.50984"/>
</g>
<path d="M26.0373 25.2549C26.0373 25.688 25.6862 26.0392 25.253 26.0392C24.8199 26.0392 24.4688 25.688 24.4688 25.2549C24.4688 24.8217 24.8199 24.4706 25.253 24.4706C25.6862 24.4706 26.0373 24.8217 26.0373 25.2549Z" fill="#00A08C"/>
<path d="M25.7556 25.202C25.7556 25.5078 25.5078 25.7556 25.202 25.7556C24.8963 25.7556 24.6484 25.5078 24.6484 25.202C24.6484 24.8963 24.8963 24.6484 25.202 24.6484C25.5078 24.6484 25.7556 24.8963 25.7556 25.202Z" fill="white" fill-opacity="0.784314"/>
<path d="M25.9781 25.3449C25.9781 25.6958 25.6935 25.9804 25.3425 25.9804C24.9916 25.9804 24.707 25.6959 24.707 25.3449C24.707 24.9939 24.9916 24.7094 25.3425 24.7094C25.6935 24.7094 25.9781 24.9939 25.9781 25.3449Z" fill="#00A08C"/>
<path d="M6.01781 17.0001C6.01781 17.4333 5.66667 17.7844 5.23351 17.7844C4.80036 17.7844 4.44922 17.4333 4.44922 17.0001C4.44922 16.567 4.80036 16.2158 5.23351 16.2158C5.66667 16.2158 6.01781 16.567 6.01781 17.0001Z" fill="#8080BF"/>
<path d="M5.73612 16.9473C5.73612 17.253 5.48827 17.5009 5.18251 17.5009C4.87677 17.5009 4.62891 17.253 4.62891 16.9473C4.62891 16.6415 4.87675 16.3937 5.18251 16.3937C5.48825 16.3937 5.73612 16.6415 5.73612 16.9473Z" fill="white" fill-opacity="0.784314"/>
<path d="M5.95853 17.0901C5.95853 17.4411 5.67401 17.7256 5.32302 17.7256C4.97204 17.7256 4.6875 17.4411 4.6875 17.0901C4.6875 16.7391 4.97202 16.4546 5.32302 16.4546C5.674 16.4546 5.95853 16.7391 5.95853 17.0901Z" fill="#8080BF"/>
<path d="M9.52758 8.74157C9.52758 9.17474 9.17643 9.52587 8.74328 9.52587C8.31013 9.52587 7.95898 9.17473 7.95898 8.74157C7.95898 8.30842 8.31013 7.95728 8.74328 7.95728C9.17643 7.95728 9.52758 8.30842 9.52758 8.74157Z" fill="#00A08C"/>
<path d="M9.24393 8.68874C9.24393 8.99448 8.99608 9.24234 8.69032 9.24234C8.38459 9.24234 8.13672 8.9945 8.13672 8.68874C8.13672 8.383 8.38457 8.13513 8.69032 8.13513C8.99606 8.13513 9.24393 8.38298 9.24393 8.68874Z" fill="white" fill-opacity="0.784314"/>
<path d="M9.4683 8.83156C9.4683 9.18254 9.18378 9.46708 8.83278 9.46708C8.4818 9.46708 8.19727 9.18255 8.19727 8.83156C8.19727 8.48058 8.48179 8.19604 8.83278 8.19604C9.18376 8.19604 9.4683 8.48057 9.4683 8.83156Z" fill="#00A08C"/>
<path d="M17.7815 28.7213C17.7815 29.1545 17.4303 29.5056 16.9972 29.5056C16.564 29.5056 16.2129 29.1545 16.2129 28.7213C16.2129 28.2882 16.564 27.937 16.9972 27.937C17.4303 27.937 17.7815 28.2882 17.7815 28.7213Z" fill="#8080BF"/>
<path d="M17.4978 28.6685C17.4978 28.9742 17.25 29.2221 16.9442 29.2221C16.6385 29.2221 16.3906 28.9742 16.3906 28.6685C16.3906 28.3627 16.6385 28.1149 16.9442 28.1149C17.25 28.1149 17.4978 28.3627 17.4978 28.6685Z" fill="white" fill-opacity="0.784314"/>
<path d="M17.7222 28.8113C17.7222 29.1623 17.4377 29.4468 17.0867 29.4468C16.7357 29.4468 16.4512 29.1623 16.4512 28.8113C16.4512 28.4603 16.7357 28.1758 17.0867 28.1758C17.4377 28.1758 17.7222 28.4603 17.7222 28.8113Z" fill="#8080BF"/>
<path d="M9.52758 25.2549C9.52758 25.688 9.17643 26.0392 8.74328 26.0392C8.31013 26.0392 7.95898 25.688 7.95898 25.2549C7.95898 24.8217 8.31013 24.4706 8.74328 24.4706C9.17643 24.4706 9.52758 24.8217 9.52758 25.2549Z" fill="#00A08C"/>
<path d="M9.24393 25.202C9.24393 25.5078 8.99608 25.7556 8.69032 25.7556C8.38459 25.7556 8.13672 25.5078 8.13672 25.202C8.13672 24.8963 8.38457 24.6484 8.69032 24.6484C8.99606 24.6484 9.24393 24.8963 9.24393 25.202Z" fill="white" fill-opacity="0.784314"/>
<path d="M9.4683 25.3449C9.4683 25.6958 9.18378 25.9804 8.83278 25.9804C8.4818 25.9804 8.19727 25.6959 8.19727 25.3449C8.19727 24.9939 8.48179 24.7094 8.83278 24.7094C9.18376 24.7094 9.4683 24.9939 9.4683 25.3449Z" fill="#00A08C"/>
<path d="M29.469 17.0001C29.469 17.4333 29.1178 17.7844 28.6847 17.7844C28.2515 17.7844 27.9004 17.4333 27.9004 17.0001C27.9004 16.567 28.2515 16.2158 28.6847 16.2158C29.1178 16.2158 29.469 16.567 29.469 17.0001Z" fill="#8080BF"/>
<path d="M29.1853 16.9473C29.1853 17.253 28.9375 17.5009 28.6317 17.5009C28.326 17.5009 28.0781 17.253 28.0781 16.9473C28.0781 16.6415 28.326 16.3937 28.6317 16.3937C28.9375 16.3937 29.1853 16.6415 29.1853 16.9473Z" fill="white" fill-opacity="0.784314"/>
<path d="M29.4097 17.0901C29.4097 17.4411 29.1252 17.7256 28.7742 17.7256C28.4232 17.7256 28.1387 17.4411 28.1387 17.0901C28.1387 16.7391 28.4232 16.4546 28.7742 16.4546C29.1252 16.4546 29.4097 16.7391 29.4097 17.0901Z" fill="#8080BF"/>
<path d="M26.0412 8.74157C26.0412 9.17474 25.6901 9.52587 25.257 9.52587C24.8238 9.52587 24.4727 9.17473 24.4727 8.74157C24.4727 8.30842 24.8238 7.95728 25.257 7.95728C25.6901 7.95728 26.0412 8.30842 26.0412 8.74157Z" fill="#00A08C"/>
<path d="M25.7596 8.68874C25.7596 8.99448 25.5117 9.24234 25.2059 9.24234C24.9002 9.24234 24.6523 8.9945 24.6523 8.68874C24.6523 8.383 24.9002 8.13513 25.2059 8.13513C25.5117 8.13513 25.7596 8.38298 25.7596 8.68874Z" fill="white" fill-opacity="0.784314"/>
<path d="M25.982 8.83156C25.982 9.18254 25.6974 9.46708 25.3465 9.46708C24.9955 9.46708 24.7109 9.18255 24.7109 8.83156C24.7109 8.48058 24.9955 8.19604 25.3465 8.19604C25.6974 8.19604 25.982 8.48057 25.982 8.83156Z" fill="#00A08C"/>
<path d="M17.7815 5.25903C17.7815 5.69219 17.4303 6.04332 16.9972 6.04332C16.564 6.04332 16.2129 5.69218 16.2129 5.25903C16.2129 4.82587 16.564 4.47473 16.9972 4.47473C17.4303 4.47473 17.7815 4.82587 17.7815 5.25903Z" fill="#8080BF"/>
<path d="M17.4978 5.20619C17.4978 5.51193 17.25 5.7598 16.9442 5.7598C16.6385 5.7598 16.3906 5.51195 16.3906 5.20619C16.3906 4.90046 16.6385 4.65259 16.9442 4.65259C17.25 4.65259 17.4978 4.90043 17.4978 5.20619Z" fill="white" fill-opacity="0.784314"/>
<path d="M17.7222 5.34902C17.7222 5.7 17.4377 5.98453 17.0867 5.98453C16.7357 5.98453 16.4512 5.70001 16.4512 5.34902C16.4512 4.99804 16.7357 4.7135 17.0867 4.7135C17.4377 4.7135 17.7222 4.99802 17.7222 5.34902Z" fill="#8080BF"/>
<path d="M8.88086 18.4115C8.92063 18.3689 8.94833 18.2709 8.96395 18.1175C8.981 17.9641 8.98952 17.6359 8.98952 17.1331V16.9542C8.98952 16.4059 8.981 16.0565 8.96395 15.9059C8.94833 15.7539 8.92063 15.6566 8.88086 15.614H9.47316C9.43339 15.6552 9.40498 15.7497 9.38794 15.8974C9.37231 16.0451 9.3645 16.3597 9.3645 16.8412V17.0117V17.18C9.3645 17.6629 9.37231 17.979 9.38794 18.1281C9.40498 18.2758 9.43339 18.3703 9.47316 18.4115L8.88086 18.4115Z" fill="black"/>
<path d="M11.2012 17.0115C11.2012 16.9476 11.2246 16.8922 11.2715 16.8453C11.3198 16.7985 11.3759 16.775 11.4398 16.775C11.5037 16.775 11.5591 16.7985 11.606 16.8453C11.6529 16.8922 11.6763 16.9476 11.6763 17.0115C11.6763 17.074 11.6529 17.1294 11.606 17.1777C11.5591 17.226 11.5037 17.2501 11.4398 17.2501C11.3759 17.2501 11.3198 17.2267 11.2715 17.1798C11.2246 17.1315 11.2012 17.0754 11.2012 17.0115Z" fill="black"/>
<path d="M13.4062 18.4115C13.446 18.3689 13.4737 18.2709 13.4893 18.1175C13.5064 17.9641 13.5149 17.636 13.5149 17.1331V16.9542C13.5149 16.4059 13.5064 16.0565 13.4893 15.9059C13.4737 15.7539 13.446 15.6566 13.4062 15.614H13.5447C13.674 15.614 13.8345 15.6076 14.0263 15.5949C14.2194 15.5821 14.3487 15.5757 14.414 15.5757C14.6839 15.5757 14.8877 15.6389 15.0255 15.7653C15.1647 15.8917 15.2343 16.0785 15.2343 16.3256C15.2343 16.5813 15.159 16.7901 15.0085 16.952C14.8579 17.1139 14.664 17.1949 14.4268 17.1949C14.3416 17.1949 14.2621 17.1871 14.1882 17.1715C14.1158 17.1544 14.0497 17.1303 13.9901 17.099H14.0348C14.272 17.099 14.4574 17.0323 14.5909 16.8988C14.7258 16.7652 14.7933 16.5799 14.7933 16.3427C14.7933 16.1424 14.7464 15.994 14.6526 15.8974C14.5589 15.7994 14.4154 15.7504 14.2223 15.7504C14.1669 15.7504 14.115 15.7525 14.0667 15.7568C14.0184 15.7596 13.973 15.7646 13.9304 15.7717C13.9162 15.8328 13.9055 15.972 13.8984 16.1893C13.8927 16.4066 13.8899 16.7007 13.8899 17.0714C13.8899 17.621 13.8977 17.9712 13.9133 18.1217C13.9304 18.2723 13.9588 18.3689 13.9986 18.4115L13.4062 18.4115Z" fill="black"/>
<path d="M16.793 17.0115C16.793 16.9476 16.8164 16.8922 16.8633 16.8453C16.9116 16.7985 16.9677 16.775 17.0316 16.775C17.0955 16.775 17.1509 16.7985 17.1978 16.8453C17.2447 16.8922 17.2681 16.9476 17.2681 17.0115C17.2681 17.074 17.2447 17.1294 17.1978 17.1777C17.1509 17.226 17.0955 17.2501 17.0316 17.2501C16.9677 17.2501 16.9116 17.2267 16.8633 17.1798C16.8164 17.1315 16.793 17.0754 16.793 17.0115Z" fill="black"/>
<path d="M19.2928 15.9464L19.3056 17.3547C19.3084 17.6928 19.3205 17.9349 19.3418 18.0813C19.3645 18.2261 19.4007 18.3362 19.4504 18.4115H18.9434C19.0002 18.339 19.0414 18.1714 19.0669 17.9087C19.0925 17.6445 19.1053 17.2596 19.1053 16.7539C19.1053 16.3064 19.0932 16.016 19.0691 15.8825C19.0463 15.7476 19.0044 15.6581 18.9434 15.614H19.3972C19.4796 15.614 19.5712 15.6907 19.672 15.8441C19.6976 15.8839 19.7182 15.9152 19.7338 15.9379C19.8162 16.0586 19.9433 16.2497 20.1152 16.511C20.5129 17.1175 20.8325 17.5855 21.074 17.9151L21.0782 16.6921C21.0782 16.3001 21.0697 16.0352 21.0527 15.8974C21.0356 15.7582 21.0058 15.6637 20.9632 15.614H21.3787C21.336 15.6538 21.3062 15.7603 21.2892 15.9336C21.2735 16.1055 21.2657 16.4542 21.2657 16.9797V17.538V18.4243H20.9824C20.8858 18.2709 20.645 17.9158 20.2601 17.359C19.8752 16.8022 19.5528 16.3313 19.2928 15.9464" fill="black"/>
<path d="M23.1055 17.0115C23.1055 16.9476 23.1289 16.8922 23.1758 16.8453C23.2241 16.7985 23.2802 16.775 23.3441 16.775C23.408 16.775 23.4634 16.7985 23.5103 16.8453C23.5572 16.8922 23.5806 16.9476 23.5806 17.0115C23.5806 17.074 23.5571 17.1294 23.5103 17.1777C23.4634 17.226 23.408 17.2501 23.3441 17.2501C23.2802 17.2501 23.2241 17.2267 23.1758 17.1798C23.1289 17.1315 23.1055 17.0754 23.1055 17.0115Z" fill="black"/>
<path d="M25.3125 18.4115C25.3523 18.3689 25.38 18.2709 25.3956 18.1175C25.4126 17.9641 25.4212 17.6359 25.4212 17.1331V16.9542C25.4212 16.4059 25.4126 16.0565 25.3956 15.9059C25.38 15.7539 25.3523 15.6566 25.3125 15.614H25.9048C25.865 15.6552 25.8366 15.7497 25.8196 15.8974C25.804 16.0451 25.7961 16.3597 25.7961 16.8412V17.0117V17.18C25.7961 17.6629 25.804 17.979 25.8196 18.1281C25.8366 18.2758 25.865 18.3703 25.9048 18.4115L25.3125 18.4115Z" fill="black"/>
</g>
<defs>
<clipPath id="clip0_380_14434">
<rect width="34" height="34" fill="white"/>
</clipPath>
</defs>
</svg>
