<svg width="106" height="22" viewBox="0 0 106 22" fill="none" xmlns="http://www.w3.org/2000/svg">
<g clip-path="url(#clip0_380_14491)">
<path d="M13.2609 10.3557C11.52 7.30873 10.5234 3.77459 10.5234 0.00158691C14.2373 0.00158691 17.7175 1.0183 20.7165 2.7783C26.8072 6.35645 30.9095 13.0429 30.9095 20.702C23.3626 20.702 16.7829 16.5393 13.2609 10.3557Z" fill="#AFC8E9"/>
<path d="M41.1008 2.78457C44.0967 1.012 47.5784 0.00471429 51.2907 0C51.2907 3.76986 50.2942 7.30557 48.5595 10.3541C45.0344 16.5346 38.4516 20.7004 30.9062 20.7004C30.9062 13.0397 35.007 6.358 41.1008 2.783V2.78457Z" fill="#AFC8E9"/>
<path d="M1.07772 13.0114C4.94478 10.802 9.18324 9.87016 13.318 10.0839C20.2165 10.4406 26.7885 14.0062 30.9063 20.13C35.024 14.0077 41.5976 10.4406 48.4961 10.0839C52.6309 9.87016 56.8678 10.802 60.7364 13.0114C52.4204 15.2743 30.9063 21.2379 30.9063 21.2379C30.9063 21.2379 9.39214 15.2727 1.07617 13.0114H1.07772Z" fill="#4596D0"/>
<path d="M50.7376 15.5695C43.8701 14.072 36.4764 15.6842 30.9071 20.7018C25.3379 15.6842 17.9442 14.1678 11.0782 15.6607C7.03314 16.5422 3.17381 18.483 0 21.9857H61.8142C58.6404 18.483 54.7827 16.4495 50.7376 15.5695Z" fill="#295A96"/>
<path d="M66.1286 20.8418C66.1952 20.8418 66.24 20.8167 66.24 20.7271V8.21384L64.5549 8.1447C64.5549 7.77855 64.5765 7.43598 64.5765 7.11855C65.5653 7.09498 67.3882 7.07141 68.5101 7.07141C70.4444 7.07141 71.7489 7.18613 72.8306 7.66541C73.8411 8.16827 74.5808 9.26355 74.5808 10.45C74.5808 12.1393 73.3892 13.3728 71.9068 13.8977V14.0376C73.9308 14.2874 75.503 15.8148 75.503 17.644C75.503 20.1991 73.301 21.9591 69.9075 21.9591C69.3458 21.9591 67.5925 21.9387 67.1639 21.9387H64.5332C64.5332 21.5946 64.5332 21.2268 64.5564 20.8858L66.1286 20.8403V20.8418ZM67.9732 20.0656C67.9515 20.7507 68.4003 20.911 69.8827 20.911C71.6824 20.911 73.6368 20.0656 73.6368 17.8278C73.6368 16.4356 72.5799 14.7431 69.3458 14.7431C68.5798 14.7431 68.1496 14.7431 67.9948 14.7903L67.9732 20.0656ZM67.9948 13.6714C68.1279 13.6981 68.5101 13.717 69.0734 13.717C71.0758 13.717 72.8306 12.5997 72.8306 10.8413C72.8306 9.26513 71.7025 8.1007 69.321 8.1007C68.603 8.1007 68.1976 8.14627 68.0181 8.16827L67.9948 13.6714Z" fill="#4596D0"/>
<path d="M79.7846 20.7963C79.8511 20.7963 79.8728 20.7491 79.8728 20.702V8.21383L78.2773 8.14468C78.2773 7.82568 78.2773 7.43597 78.3021 7.09497C79.0634 7.09497 80.0306 7.11854 80.8631 7.11854C81.7637 7.11854 82.7773 7.09497 83.6052 7.09497C83.6052 7.43754 83.6052 7.82568 83.5835 8.16826L81.7405 8.21383C81.6972 8.21383 81.6724 8.25783 81.6724 8.30497V13.5583C81.6724 13.6007 81.6724 13.6478 81.7637 13.6478H89.0011V8.21383L87.09 8.16826C87.09 7.82568 87.09 7.43754 87.1102 7.12011H89.9219C90.7575 7.12011 91.6302 7.09654 92.3312 7.09654C92.3514 7.43911 92.3312 7.82726 92.3049 8.14626L90.8658 8.2154C90.8225 8.2154 90.8225 8.2594 90.8225 8.30654L90.759 20.7978L92.421 20.8654C92.421 21.208 92.421 21.5725 92.3962 21.9418C91.6566 21.9418 90.6894 21.9183 89.8321 21.9183C88.9331 21.9183 87.9226 21.9418 87.1117 21.9418C87.1117 21.5977 87.138 21.208 87.138 20.8654L88.9145 20.7978C88.9795 20.7978 89.0011 20.7758 89.0011 20.7035V14.8594C89.0011 14.8138 88.981 14.7698 88.9145 14.7698L81.6508 14.8138L81.626 20.7978L83.6269 20.8654C83.6269 21.208 83.6269 21.5977 83.6037 21.9418C82.7959 21.9418 81.739 21.9183 80.8182 21.9183C79.9842 21.9183 79.0619 21.9418 78.3006 21.9418C78.3006 21.5977 78.3006 21.23 78.3222 20.8654L79.783 20.7978L79.7846 20.7963Z" fill="#4596D0"/>
<path d="M95.6599 8.16667C95.6367 7.8241 95.6599 7.45953 95.6816 7.11853H101.169C101.169 7.4611 101.146 7.84767 101.124 8.19024L99.1664 8.23582C99.1216 8.23582 99.1216 8.25624 99.1216 8.32853L99.055 20.383C99.055 20.7947 99.0751 20.8607 100.022 20.8607C102.518 20.8607 103.238 20.7931 103.597 20.7255C103.798 20.6815 103.911 20.5197 104.001 20.2478L104.81 17.8482C105.237 17.9158 105.641 18.0321 106.002 18.1248C105.774 19.2421 105.415 20.7491 105.126 21.9607C104.046 21.9607 101.325 21.9402 98.2906 21.9402C97.3435 21.9402 96.446 21.9607 95.6367 21.9607C95.6367 21.6165 95.6599 21.2284 95.6816 20.8874L97.212 20.8167C97.277 20.8167 97.3033 20.7962 97.3033 20.7271V8.23739L95.6599 8.16824V8.16667Z" fill="#4596D0"/>
</g>
<defs>
<clipPath id="clip0_380_14491">
<rect width="106" height="22" fill="white"/>
</clipPath>
</defs>
</svg>
