<svg width="68" height="30" viewBox="0 0 68 30" fill="none" xmlns="http://www.w3.org/2000/svg">
<path d="M10.7452 3.021C3.99238 3.77047 -6.57775 7.13729 6.04813 12.3752C12.2144 14.9941 -8.926 7.13729 10.7452 5.64091" fill="#231F20"/>
<path d="M10.4512 28.0904C17.204 27.3409 27.7752 23.6004 15.1493 18.3625C8.98301 15.7427 30.1234 23.9743 10.4512 25.0968" fill="#231F20"/>
<path d="M10.4505 13.8723C30.1227 12.7498 8.98233 4.51818 15.1486 7.13712C27.7745 12.375 17.2034 16.1173 10.4505 16.865H11.038C-8.63427 17.9875 12.2129 25.8453 6.04662 23.2264C-6.28516 17.9875 3.99099 14.6201 11.038 13.8722" fill="#231F20"/>
<path d="M10.7445 2.64709C3.69826 3.39559 -6.57852 6.76339 5.75413 12.0013C12.2138 14.6202 -8.92677 6.76339 10.7445 5.64083" fill="#336699"/>
<path d="M10.1582 27.7156C17.2043 26.9671 27.4812 23.2264 15.1495 17.9877C8.98327 15.3688 29.8303 23.6004 10.1582 24.722" fill="#336699"/>
<path d="M10.452 13.4984C29.8308 12.375 8.98381 4.14433 15.1501 6.76326C27.4817 12.0011 17.2048 15.7425 10.1587 16.4911H10.7452C-8.92603 17.6137 12.2144 25.4705 6.0481 22.8516C-6.57778 17.6137 3.99247 14.246 10.7452 13.4982" fill="#336699"/>
<path d="M25.3784 21.3856C25.8063 21.1435 25.8879 21.0228 26.0099 20.3372C26.3766 18.22 26.6006 13.2196 26.6006 12.0499C26.6006 10.3966 26.5805 10.4167 26.2137 9.99336C25.6842 9.34805 25.3174 9.16655 25.0527 9.08587V9.00518C25.5416 9.06574 26.1119 9.08587 26.5194 9.08587C26.9878 9.08587 27.5786 9.04561 27.864 9.00518C30.6139 13.1186 33.7307 16.385 36.0732 19.0466C36.0935 18.7844 36.0935 17.4535 36.0935 16.4253C36.0528 13.7031 35.9916 10.6586 35.7066 9.77126C35.5639 9.34788 35.3602 9.14625 35.0953 9.08569V9.005C35.6454 9.04526 36.2565 9.08569 36.8473 9.08569C37.3972 9.08569 37.7027 9.04544 38.0083 9.005V9.08569C37.7231 9.1865 37.5805 9.32775 37.4378 9.87207C37.1321 10.981 36.7452 19.1875 36.6434 21.4659C36.5415 21.4458 36.4397 21.4458 36.3379 21.4458C36.2157 21.4458 36.1136 21.4458 36.0118 21.4659C33.4656 18.5824 29.3915 13.9853 27.3952 11.3239L27.3546 11.3641C27.3749 12.7552 27.4564 18.159 27.7416 20.4375C27.8028 20.9619 27.8843 21.2037 28.2509 21.3852V21.4659C27.762 21.4054 27.2731 21.3852 26.7841 21.3852C26.3158 21.3852 25.8472 21.4255 25.3786 21.4659L25.3784 21.3856Z" fill="#336699"/>
<path d="M49.5587 11.9896C49.5587 11.6266 49.518 11.2435 49.1309 10.8805C48.3161 10.1344 46.8901 9.87236 46.116 9.87236C44.9345 9.87236 44.1197 9.9933 43.4883 10.3563C42.1846 11.1225 41.8996 13.3002 41.8996 14.7116C41.8996 18.5223 44.1605 20.0146 47.0531 20.0146C48.8049 20.0146 49.8437 19.2888 50.3531 18.8855C50.4346 19.0267 50.5566 19.1879 50.6178 19.2483C49.6197 20.0953 49.2326 20.5589 48.5603 21.4463C48.1529 21.5471 47.8677 21.6479 46.7883 21.6479C42.9587 21.6479 40.168 19.45 40.168 15.3569C40.168 11.2034 43.1217 8.82397 47.094 8.82397C48.6217 8.82397 49.7625 9.14672 50.2718 9.14672H50.4753C50.2106 9.67091 49.8845 10.6993 49.8845 11.9898H49.5587V11.9896Z" fill="#336699"/>
<path d="M56.9514 21.6478C56.6051 21.6478 56.0755 21.5872 55.5866 21.5065C55.0772 21.4459 54.5883 21.3856 54.2829 21.3856C53.8958 21.3856 52.8162 21.4461 52.6328 21.4662V21.3856C52.9385 21.3453 53.2032 21.0628 53.3051 20.5185C53.4273 19.8732 53.5293 18.7039 53.5293 15.2358C53.5293 9.73115 53.3256 9.24722 52.633 9.08584V9.00516C52.7348 9.00516 53.0406 9.02529 53.3868 9.04542C53.7332 9.06554 54.0997 9.08567 54.2831 9.08567C54.6293 9.08567 55.1997 9.02511 55.8311 8.94442C56.4625 8.88387 57.1756 8.82349 57.7867 8.82349C59.9257 8.82349 61.0052 9.67042 61.0052 11.3844C61.0052 12.7352 60.0276 13.6224 58.7645 14.6306C59.9255 14.7718 62.0645 15.4574 62.0645 17.6956C62.0645 18.7037 61.7181 19.5909 61.0052 20.1958C59.905 21.1437 58.8662 21.6478 56.9514 21.6478ZM55.1792 9.77158C55.057 10.5781 55.057 12.3323 55.057 14.5301C55.7091 14.5301 57.7459 14.5301 58.0108 14.4695C58.3773 14.1872 59.2738 13.4411 59.2738 12.1708C59.2738 10.5175 58.1738 9.63017 56.483 9.63017C56.0348 9.63034 55.6071 9.6909 55.1792 9.77158ZM55.057 15.2157C55.057 16.6067 55.057 18.8652 55.1792 20.1152C55.7291 20.4179 56.5847 20.8411 57.8884 20.8411C58.6625 20.8411 59.2939 20.6596 59.62 20.4177C60.1496 20.0346 60.3328 18.9256 60.3328 18.4417C60.3328 16.4051 58.8255 15.1551 56.6662 15.1551C56.1367 15.1553 55.4237 15.2157 55.057 15.2157Z" fill="#336699"/>
<path d="M67.6445 9.08606C66.9113 9.26755 66.7484 9.87243 66.7484 15.236C66.7484 20.7405 66.9519 21.2043 67.6445 21.3858V21.4665C67.4612 21.4463 66.3815 21.3858 65.9743 21.3858C65.5872 21.3858 64.5076 21.4463 64.3242 21.4665V21.3858C65.0372 21.2244 65.2205 20.5994 65.2205 15.236C65.2205 9.79192 65.0168 9.24743 64.3242 9.08606V9.00537C64.5076 9.0255 65.5872 9.08606 65.9743 9.08606C66.3817 9.08606 67.4612 9.0255 67.6445 9.00537V9.08606Z" fill="#336699"/>
</svg>
