<svg width="86" height="26" viewBox="0 0 86 26" fill="none" xmlns="http://www.w3.org/2000/svg">
<g clip-path="url(#clip0_380_14405)">
<path d="M46.5533 11.5047C45.256 10.6789 44.0489 9.90363 44.0489 8.37008C44.0489 7.00499 45.1481 6.51631 46.1929 6.51631C47.5622 6.51631 48.4088 7.17345 48.6611 8.42066L48.6792 8.50489H48.9853V8.40373C48.9674 8.15103 48.9674 7.71271 48.9674 7.46002C48.9674 7.02192 48.9853 6.71842 49.0215 6.33091L49.0394 6.21281L48.9134 6.22975C48.8181 6.24382 48.7215 6.24949 48.6251 6.24668C48.3033 6.23847 47.9833 6.19889 47.6703 6.12858C47.1778 6.03559 46.6772 5.98487 46.1748 5.97705C44.103 5.97705 42.6618 7.27462 42.6618 9.14532C42.6618 11.117 44.139 12.044 45.5623 12.954C46.9135 13.8135 48.1927 14.6224 48.1927 16.2571C48.1927 17.7907 46.9857 18.4817 45.7965 18.4817C44.4093 18.4817 43.0041 17.7737 43.0041 16.4086C43.0079 16.2845 43.0199 16.1608 43.0401 16.0381L43.0582 15.8694H42.7878L42.7518 15.92C42.5956 16.2784 42.5161 16.662 42.5176 17.0491C42.5163 17.258 42.5344 17.4666 42.5717 17.6726C42.5896 17.858 42.6077 18.0434 42.6077 18.2288C42.6123 18.3694 42.6062 18.5103 42.5896 18.6501L42.5536 18.7849L42.6977 18.768C42.781 18.7541 42.8655 18.7485 42.95 18.7513C43.3144 18.7607 43.6767 18.8059 44.0311 18.8861C44.544 19.0046 45.07 19.0668 45.5983 19.0715C47.9045 19.0715 49.5258 17.5883 49.5258 15.4819C49.5258 13.409 48.0124 12.4315 46.5533 11.5047Z" fill="#990000"/>
<path d="M67.3793 5.97705C63.0554 5.97705 60.4609 9.36437 60.4609 12.6169C60.4609 15.8021 63.0013 19.0882 67.2352 19.0882C71.0905 19.0882 74.1171 16.2232 74.1171 12.5663C74.1171 8.87569 71.1625 5.97705 67.3793 5.97705ZM72.1894 12.6844C72.1894 16.2738 70.2799 18.5153 67.2171 18.5153C64.1903 18.5153 62.3888 16.2908 62.3888 12.5832C62.3888 8.15103 64.893 6.5669 67.2171 6.5669C69.523 6.54996 72.1894 8.16775 72.1894 12.6844Z" fill="#990000"/>
<path d="M85.9547 18.8187C84.8558 18.4648 83.5766 16.3245 82.6399 14.7573C82.1353 13.8978 81.703 13.2068 81.3966 12.9035C82.982 12.3136 83.937 11.1003 83.937 9.6677C83.937 7.46008 82.1172 6.02747 79.3248 6.02747C79.1266 6.02747 78.8203 6.02747 78.4779 6.0444C78.0818 6.06134 77.6494 6.06134 77.3431 6.06134C76.5143 6.06134 76.1539 6.06134 75.5054 6.02747H75.3973V6.29732L75.4873 6.31403C76.1179 6.39826 76.3161 6.63425 76.3161 7.83087V17.3357C76.3161 18.7175 76.0819 18.7514 75.4514 18.8523L75.3613 18.8692V19.1389H75.4695C75.8478 19.1219 76.3883 19.1052 77.1268 19.1052C77.9015 19.1052 78.5501 19.1219 78.7843 19.1389H78.8924V18.8692L78.8024 18.8523C78.1718 18.7514 77.9377 18.7175 77.9377 17.3357V13.3416H79.0547C79.3145 13.3405 79.5737 13.3179 79.8294 13.2743C80.1536 13.5776 80.5319 14.2516 80.766 14.6561C80.8201 14.7403 80.8561 14.8246 80.8923 14.8751C83.1442 18.8356 83.3965 19.0716 85.4323 19.1389C85.5946 19.1427 85.7571 19.137 85.9187 19.1219L86.0088 19.1052V18.8523L85.9547 18.8187ZM77.9377 6.75213C78.3536 6.64249 78.7847 6.59143 79.2167 6.6006C80.9823 6.6006 82.1353 7.88146 82.1353 9.87004C82.1353 11.8586 81.0905 12.7517 78.7483 12.7517H77.9377V6.75213Z" fill="#990000"/>
<path d="M60.732 5.96021H60.5878C59.6869 5.97714 54.9668 6.04444 50.7151 5.96021H50.625L50.6069 6.0275C50.5169 6.34772 50.4447 6.63428 50.3547 6.90391C50.2465 7.24106 50.1565 7.54434 50.0845 7.88149L50.0664 7.99937H50.3547L50.3906 7.94879C50.9311 6.88698 51.7239 6.87026 54.6605 6.87026V17.3188C54.6605 18.7175 54.4263 18.7514 53.7957 18.8356L53.7057 18.8523V19.122H53.8138C54.1921 19.1053 54.7326 19.0883 55.4533 19.0883C56.2279 19.0883 56.8585 19.1053 57.0927 19.122H57.2008V18.8523L57.1108 18.8356C56.4802 18.7345 56.2458 18.7008 56.2458 17.3188V6.87026C59.4889 6.87026 59.9573 6.98814 59.9573 7.42646C59.9567 7.50621 59.9446 7.58552 59.9213 7.66222L59.8851 7.78032H60.2095L60.2274 7.69609C60.2815 7.42646 60.4978 6.56699 60.6598 6.07809L60.732 5.96021Z" fill="#990000"/>
<path d="M39.2028 5.99385C38.5363 5.99385 37.7797 5.97714 37.3833 5.96021H37.2751V6.22984L37.3652 6.24677C38.0317 6.34772 38.4281 6.3983 38.4281 7.71281V15.465C38.4281 16.9143 37.6896 18.4648 36.5185 18.4648C36.3072 18.4654 36.0962 18.4485 35.888 18.4142C35.2088 18.2356 34.6206 17.835 34.2304 17.2851C34.1945 17.2346 34.1404 17.1673 34.1044 17.1167C33.8947 16.8351 33.7251 16.5292 33.5999 16.2066C33.5887 16.18 33.5686 16.1574 33.5427 16.1423C33.5167 16.1271 33.4863 16.1201 33.4558 16.1224C33.4252 16.1299 33.3988 16.148 33.3821 16.173C33.3653 16.1981 33.3595 16.2282 33.3657 16.2572L33.6359 18.2964C33.6353 18.3161 33.64 18.3356 33.6494 18.3532C33.6588 18.3708 33.6727 18.3859 33.6899 18.3973C34.2877 18.7404 34.9576 18.9588 35.6538 19.0377C35.8978 19.0753 36.145 19.0922 36.3923 19.0883H36.5905C38.6263 19.0883 39.9775 17.5548 39.9775 15.2629V7.71281C39.9775 6.43217 40.2838 6.38159 40.9325 6.24677L41.0404 6.22984V5.96021H40.9325C40.5721 5.97714 39.8334 5.99385 39.2028 5.99385Z" fill="#990000"/>
<path d="M27.7639 0H0V26H27.7639V0Z" fill="#990000"/>
<path d="M5.26537 19.0055C5.65604 19.2499 6.0963 19.4165 6.55877 19.495C7.58547 19.6519 8.51349 19.6982 9.19465 19.5504C9.78704 19.4303 9.98455 19.2734 10.0635 19.3934C10.1523 19.5227 9.77712 19.8737 8.5332 20.0583C7.23993 20.2522 6.45016 19.9751 6.45016 19.9751C6.45016 19.9751 6.45995 20.2338 6.9141 20.557C7.37818 20.8895 7.68416 20.9634 7.96065 21.2773C8.21729 21.5728 8.04955 21.8683 8.18766 21.8868C8.31598 21.9053 8.35553 21.6098 8.49378 21.305C8.57506 21.1068 8.58201 20.8887 8.51349 20.6863C8.51349 20.6863 8.97756 21.0557 9.88573 20.9725C10.5275 20.9079 10.8927 20.8063 10.8533 20.6863C10.8237 20.5939 10.6854 20.6401 10.3498 20.5847C10.1788 20.568 10.0171 20.5037 9.88573 20.4C10.3245 20.2497 10.7397 20.0447 11.1199 19.7905C11.801 19.3472 12.2453 18.7931 12.1466 18.6638C12.0479 18.5345 11.7616 18.6731 11.4161 18.7654C11.2094 18.8338 10.9933 18.8742 10.7743 18.8854C10.7743 18.8854 10.725 18.8208 10.9323 18.5899C11.2285 18.2667 11.495 18.239 11.4851 18.1098C11.4752 17.9805 11.031 17.8327 9.89565 18.3128C9.60524 18.4386 9.32482 18.5837 9.05654 18.7469C9.15444 18.4718 9.23358 18.1911 9.29347 17.9066C9.3526 17.5648 9.50077 16.9369 9.36252 16.8907C9.2342 16.8446 9.26384 16.9553 9.00706 17.2508C8.81961 17.454 8.77013 17.5464 8.68136 17.5186C8.56283 17.4725 8.59247 17.2878 8.52341 17.0938C8.46414 16.9092 8.29627 16.6598 8.22721 16.6875C8.07905 16.7614 7.99028 17.7865 7.67437 18.1098C7.56329 18.2139 7.42821 18.2928 7.27949 18.3406C7.0519 18.4184 6.81083 18.456 6.56856 18.4514C6.29194 18.452 6.01756 18.405 5.75908 18.3128C5.49251 18.2205 4.9791 18.0451 4.65327 17.5556C4.65327 17.5556 4.61384 17.4818 4.60392 17.4818C4.29606 17.4462 3.99618 17.3652 3.71546 17.2417C3.80423 17.4909 3.95239 17.8141 4.05108 18.0543C4.42626 18.8854 4.93967 20.2892 4.44597 21.3974C3.8635 22.718 2.51096 22.9766 2.36293 22.6903C2.2444 22.4594 3.35021 22.4502 3.94247 21.3512C4.42626 20.4554 4.061 19.3287 4.061 19.3287C4.061 19.3287 4.061 20.2984 3.31066 20.9541C2.47154 21.6929 1.91857 21.3512 1.80017 21.4528C1.67185 21.5728 1.87915 21.6651 2.08644 21.7576C2.20213 21.8019 2.32089 21.839 2.44191 21.8683C2.26717 22.0163 2.0711 22.1407 1.85943 22.2377C1.5336 22.3855 1.35594 22.4502 1.3361 22.5609C1.32631 22.6441 1.77054 23.0596 2.20498 23.2351C2.50845 23.3495 2.82738 23.4241 3.1527 23.4568C3.1527 23.4568 3.19226 23.4476 3.05401 23.6784C2.90585 23.9186 2.74789 24.02 2.81708 24.1125C2.91577 24.251 3.03417 24.2232 3.64628 23.8723C4.25838 23.5122 4.43618 23.2813 4.43618 23.2813C4.40479 23.3723 4.37843 23.4648 4.3572 23.5583C4.29794 23.78 4.16961 23.8631 4.2683 23.9555C4.38683 24.0663 5.02844 23.3922 5.41354 22.6257C5.77362 21.9158 5.90403 21.1229 5.78871 20.3446C5.72945 19.9105 5.44317 19.3287 5.26537 19.0055Z" fill="white"/>
<path d="M15.3748 17.0199V6.86152C15.3748 6.86152 15.2958 4.67281 15.4636 4.12796C15.6071 3.69222 15.8572 3.2938 16.1942 2.96436C16.6681 2.50254 17.6651 2.35479 17.6651 2.35479C17.9514 2.30863 18.0206 2.17931 17.991 2.05C17.9866 1.99807 17.9638 1.949 17.9263 1.91054C17.8887 1.87207 17.8385 1.84642 17.7837 1.83765L10.7149 1.82837C10.6598 1.84017 10.6101 1.86796 10.5728 1.90776C10.5356 1.94756 10.5128 1.99734 10.5076 2.05C10.4879 2.17931 10.547 2.31791 10.8334 2.35479C10.8334 2.35479 11.8305 2.50254 12.3043 2.96436C12.6447 3.2914 12.8954 3.69062 13.035 4.12796C13.2027 4.68197 13.1237 6.86152 13.1237 6.86152L12.9658 16.9923C12.9658 17.4263 13.0151 19.2918 12.9067 19.9659C12.7486 20.8986 12.5216 21.6928 11.9095 22.3024C11.2973 22.9211 10.7248 23.1151 9.89547 23.1151C9.05635 23.1151 8.51331 22.875 7.92091 22.4409C7.32865 22.0069 6.20312 21.0095 6.20312 21.0095L7.2793 24.2786C7.2793 24.2786 9.37226 24.5557 10.4779 24.3802C11.4652 24.2232 12.2846 24.0016 13.3312 23.1151C14.4961 22.1361 14.9304 20.7232 15.118 20.0028C15.4043 18.9778 15.3748 17.0199 15.3748 17.0199Z" fill="white"/>
<path d="M18.2096 9.12401C17.9563 8.85349 17.6825 8.60043 17.3902 8.36681C17.0095 8.1008 16.6029 7.8689 16.1758 7.67419V8.57C16.549 8.70339 16.8886 8.9078 17.173 9.17029C17.4889 9.44724 17.8147 9.77047 18.0614 10.0291L18.2096 9.12401Z" fill="white"/>
<path d="M17.5454 11.7746C17.422 11.4152 17.3263 11.0479 17.259 10.6756C17.1505 10.0385 17.18 9.89986 17.18 9.89986C17.0319 9.75211 16.6173 9.37344 16.3705 9.29041C16.3705 9.29041 16.3014 9.77054 16.4594 10.7957C16.5349 11.2378 16.6371 11.6756 16.7654 12.107L17.5454 11.7746Z" fill="white"/>
<path d="M24.7638 20.1599C24.3724 19.936 23.9507 19.762 23.51 19.6427C23.6975 19.2272 24.0332 19.1533 24.0431 19.107C24.053 19.0609 23.7568 18.9408 23.5 18.9963C23.2837 19.061 23.0963 19.1909 22.967 19.3657C22.9176 19.495 22.9078 19.6057 22.7695 19.9751C23.0164 20.0767 23.6482 20.3353 23.9542 20.4738C24.8428 20.8802 25.218 21.3419 25.3857 21.8499C25.4521 22.0802 25.4487 22.3232 25.3759 22.5518C25.1686 23.2351 24.5269 23.6692 23.9148 23.5306C23.5 23.4383 23.1841 23.2351 23.0361 22.9673C22.9756 22.8517 22.9408 22.7257 22.934 22.5971C22.9272 22.4685 22.9485 22.3399 22.9965 22.2193C23.0192 22.1466 23.0582 22.0793 23.111 22.0219C23.1638 21.9646 23.2292 21.9185 23.3027 21.8867C23.3706 21.8593 23.4447 21.8476 23.5185 21.8524C23.5924 21.8572 23.6639 21.8785 23.7272 21.9145C23.8186 21.9527 23.8946 22.0172 23.9443 22.0986C23.994 22.1799 24.0147 22.2739 24.0035 22.367C24.0035 22.4502 24.0135 22.5148 24.0727 22.5332C24.0977 22.5422 24.1248 22.5443 24.151 22.5394C24.1772 22.5345 24.2014 22.5228 24.2208 22.5055C24.2834 22.4534 24.3334 22.3893 24.3675 22.3177C24.4015 22.246 24.4188 22.1684 24.4183 22.0899C24.438 21.8499 24.2899 21.5174 23.8062 21.3235C23.3323 21.1388 22.7103 21.3973 22.4733 21.8683C22.3632 22.0935 22.3029 22.3373 22.2961 22.5849C22.2893 22.8325 22.3362 23.0788 22.4339 23.309C22.3486 23.3884 22.2755 23.4785 22.2167 23.5768C22.1122 23.7303 22.0734 23.915 22.1081 24.094C22.1154 24.1079 22.1255 24.1204 22.1377 24.1309C22.1673 24.1402 22.197 24.1125 22.2463 24.0663C22.3184 23.9937 22.4015 23.9314 22.493 23.8815C22.631 23.8091 22.7912 23.783 22.9472 23.8077C23.3323 24.0386 23.6975 24.1863 24.1221 24.1863C24.3097 24.1844 24.496 24.1564 24.6749 24.1032C25.3166 23.9277 25.7806 23.4383 25.988 22.7364C25.988 22.7272 25.9978 22.718 25.9978 22.7087C26.1084 22.3335 26.105 21.937 25.988 21.5635C25.9287 21.2957 25.6819 20.7047 24.7638 20.1599Z" fill="white"/>
<path d="M5.22523 13.0211C5.34813 12.5264 5.53025 12.0462 5.76815 11.5897C5.66197 11.5048 5.53678 11.4433 5.4018 11.4098C5.26683 11.3762 5.12552 11.3714 4.9883 11.3958C4.80978 11.6344 4.68547 11.9047 4.62305 12.19C4.82042 12.7349 5.05736 12.9565 5.22523 13.0211Z" fill="white"/>
<path d="M4.00137 14.1571C3.91899 14.4432 3.87587 14.738 3.87305 15.0343C3.90268 15.1268 4.49494 15.5053 4.73187 15.5239C4.7168 15.2977 4.73677 15.0706 4.79114 14.8497C4.46377 14.6925 4.19014 14.4526 4.00137 14.1571Z" fill="white"/>
<path d="M26.155 11.636C26.4907 11.4328 26.6388 11.2666 26.5894 11.165C26.5697 11.1281 26.4118 11.1095 26.2439 11.1004C25.9695 11.0764 25.6983 11.0269 25.4344 10.9526C25.208 10.8862 24.9989 10.7763 24.8204 10.63C24.6419 10.4837 24.498 10.3042 24.3978 10.103C24.2792 9.85364 24.2398 9.46582 24.6248 9.04099H24.6347L24.7038 8.97627C25.2962 8.47758 26.1846 7.72965 26.2735 5.99348C26.3028 5.17494 26.0764 4.36616 25.6219 3.66617C25.5721 3.59547 25.5355 3.51746 25.5134 3.43538C25.5134 3.36151 25.6021 3.30607 25.7207 3.24135C25.9026 3.14413 26.0634 3.01571 26.1945 2.86281C26.4315 2.55802 26.5104 2.31795 26.4907 2.23479C26.4907 2.22551 26.4808 2.22551 26.4808 2.21635C26.4611 2.20707 26.3821 2.24407 26.2932 2.28095C26.1321 2.35747 25.9635 2.41934 25.7897 2.4657C25.4048 2.54874 24.8814 2.45642 24.3681 2.34555C24.3089 2.33639 24.2496 2.31795 24.1806 2.30867C23.5625 2.17277 22.9297 2.10458 22.2949 2.10548C21.5434 2.10426 20.7999 2.25079 20.1128 2.53558C19.4257 2.82037 18.8103 3.23705 18.3063 3.75861C17.1118 4.95908 16.6379 6.79684 16.5293 7.23095L17.2796 7.66493C17.2796 7.66493 17.2894 7.62805 17.3093 7.57261L17.2796 7.66493C17.3389 7.60949 17.5659 7.50802 18.1188 7.4433C18.3896 7.3966 18.6673 7.3966 18.9382 7.4433C19.0863 7.4803 19.1949 7.50802 19.2147 7.46174C19.2837 7.29554 18.8691 6.89844 18.5236 6.73225C18.2564 6.6241 17.9611 6.59199 17.6745 6.63993C17.9411 5.97492 18.3163 5.15299 18.6716 4.71901C19.2443 4.0264 20.4783 2.86281 22.4726 2.93668C24.5557 3.01056 25.4738 4.53426 25.4541 6.00264C25.4403 6.61153 25.2189 7.20038 24.8223 7.68337C24.6406 7.92109 24.4081 8.12098 24.1396 8.27042C23.8711 8.41985 23.5724 8.51559 23.2623 8.55157C22.2553 8.64389 21.3472 8.03431 21.1891 7.14779C21.0806 6.53834 21.1793 6.01192 21.4556 5.67025C21.5692 5.53651 21.7132 5.42814 21.8771 5.35304C22.0411 5.27794 22.2209 5.23801 22.4035 5.23615C22.5168 5.22768 22.6306 5.24321 22.7366 5.28158C22.8426 5.31995 22.9379 5.38018 23.0156 5.45778C23.0925 5.53941 23.1512 5.63451 23.1885 5.73756C23.2258 5.84061 23.2408 5.94955 23.2327 6.05808C23.2363 6.19394 23.1945 6.32747 23.1131 6.44005C23.0317 6.55263 22.9148 6.63864 22.7787 6.68609C22.6799 6.73225 22.6207 6.75997 22.6305 6.81528C22.634 6.84654 22.6446 6.87673 22.6616 6.90382C22.6787 6.93091 22.7017 6.95427 22.7292 6.97232C22.8206 7.01544 22.9209 7.03943 23.0232 7.04261C23.1255 7.0458 23.2273 7.0281 23.3216 6.99076C23.6178 6.89844 23.9633 6.53834 23.9436 5.85488C23.9238 5.17155 23.2722 4.54354 22.5812 4.49738C22.2384 4.47525 21.8948 4.52513 21.5753 4.64337C21.2559 4.76161 20.9688 4.94521 20.7351 5.18071C20.7251 5.18999 20.7152 5.18999 20.7152 5.18071C20.5734 5.11063 20.4198 5.06379 20.2611 5.04224C19.9057 4.99608 19.6589 5.0884 19.5799 5.16227C19.5602 5.18071 19.5602 5.18999 19.5602 5.18999C19.5602 5.20843 19.6195 5.23615 19.6885 5.26387C19.8253 5.32279 19.9517 5.40063 20.0637 5.49478C20.2416 5.6474 20.3656 5.84714 20.419 6.06736V6.07651C20.3006 6.92616 20.34 7.64649 20.9521 8.42226C21.7025 9.37338 22.7588 9.36422 23.213 9.35494C23.299 9.35464 23.3848 9.36081 23.4698 9.37338H23.4795C23.5243 9.3907 23.5623 9.42026 23.5888 9.45818C23.6152 9.49609 23.6288 9.54059 23.6277 9.58585C23.6242 9.63721 23.607 9.68693 23.5776 9.73048C23.5483 9.77403 23.5078 9.81003 23.4598 9.8352C23.2229 10.0014 23.1736 10.1676 23.2327 10.574C23.2623 10.7956 23.4105 11.0357 23.5684 11.3036C23.7368 11.5551 23.8633 11.8291 23.9436 12.1162C24.0392 12.5678 24.0359 13.0327 23.9337 13.483C23.914 13.5753 23.9041 13.6308 23.9238 13.6585C23.9318 13.6682 23.9424 13.6759 23.9545 13.6808C23.9666 13.6856 23.9799 13.6875 23.993 13.6862C24.1312 13.6862 24.4175 13.483 24.5952 13.2244C24.7137 13.0582 24.7137 12.7996 24.7137 12.6056C24.7137 12.4672 24.7137 12.3749 24.7531 12.3379C24.7679 12.3294 24.7853 12.3262 24.8024 12.3286C25.2369 12.4117 25.2665 13.1598 25.2468 13.4369C25.2364 13.5408 25.2028 13.6414 25.148 13.7324C25.0986 13.8247 25.0789 13.8708 25.1382 13.9263C25.1875 13.9817 25.2862 13.954 25.3751 13.9263C25.4167 13.9126 25.4597 13.9033 25.5035 13.8986C25.5258 13.8953 25.5487 13.8979 25.5696 13.9061C25.5905 13.9142 25.6085 13.9276 25.6219 13.9447C25.7008 14.0925 25.5627 14.3418 25.3356 14.4896C25.2962 14.5173 25.2567 14.545 25.2172 14.5727C25.0394 14.6836 24.8913 14.7851 24.9111 14.8775C24.9258 14.887 24.9427 14.8933 24.9604 14.896C25.1328 14.9185 25.3083 14.9046 25.4741 14.855C25.6399 14.8055 25.7916 14.7216 25.918 14.6097C26.3129 14.2495 26.4414 13.8431 26.3722 13.0952C26.3031 12.3563 25.6417 11.8207 25.6318 11.8207C25.6219 11.8114 25.6219 11.8114 25.6219 11.8023C25.6219 11.793 25.6318 11.793 25.6417 11.793C25.8268 11.796 26.0076 11.7407 26.155 11.636Z" fill="white"/>
<path d="M24.3184 16.5028H24.3372C24.336 16.5016 24.3345 16.5006 24.3329 16.4999C24.3313 16.4992 24.3296 16.4989 24.3278 16.4989C24.326 16.4989 24.3243 16.4992 24.3227 16.4999C24.321 16.5006 24.3196 16.5016 24.3184 16.5028Z" fill="white"/>
<path d="M24.8228 15.6439C24.2304 15.5146 23.3913 15.5792 22.4138 16.5766C22.3357 16.6692 22.2663 16.7681 22.2065 16.8721C22.1868 16.7982 22.1572 16.7243 22.1276 16.632C21.8817 15.9941 21.5605 15.3839 21.1699 14.8127C20.9327 14.4585 20.6757 14.1164 20.3998 13.7877C20.1856 13.5469 19.9971 13.2871 19.8371 13.0119C19.541 12.4762 19.4818 11.5805 19.5904 11.4235C19.6002 11.4051 19.6101 11.3958 19.6298 11.3958C19.7581 11.4051 19.778 11.5065 19.8174 11.719C19.8895 12.1113 20.0402 12.4872 20.2616 12.8272C20.4512 13.1322 20.68 13.4144 20.9429 13.6675C21.1481 13.8666 21.3332 14.083 21.4957 14.314C21.9795 14.979 22.0979 15.2745 22.0979 15.2837L22.1276 15.3668L22.1176 15.2745C22.0027 14.4314 22.0027 13.578 22.1176 12.7348C22.2103 12.19 22.3797 11.659 22.6213 11.1557C22.7397 10.8878 22.8087 10.7309 22.7594 10.6662C22.7522 10.6497 22.7399 10.6356 22.7241 10.6257C22.7083 10.6159 22.6896 10.6107 22.6706 10.6108H22.6607C22.5422 10.6108 22.3645 10.7955 22.1473 11.0171C22.0782 11.091 22.0091 11.1649 21.94 11.2387C21.7032 11.4766 21.4977 11.7402 21.3279 12.0238C21.2686 12.0145 20.775 11.876 20.7257 10.8878C20.6923 10.4336 20.7221 9.97727 20.8146 9.53029C20.8441 9.37325 20.8639 9.2255 20.8836 9.05931C20.8836 9.00387 20.8737 8.96699 20.8441 8.95771C20.7158 8.92083 20.3702 9.35481 20.1826 9.70576C20.1004 9.86901 20.0471 10.0437 20.0247 10.2229C20.005 10.3245 19.995 10.3891 19.9556 10.3984C19.9417 10.3997 19.9277 10.3965 19.9161 10.3891C19.8076 10.3245 19.6298 10.0383 19.5804 9.50257C19.5677 9.34587 19.5644 9.18863 19.5705 9.03159C19.5705 8.81924 19.5705 8.67148 19.5015 8.63448C19.483 8.62465 19.4619 8.62027 19.4407 8.62192C19.4196 8.62358 19.3995 8.6312 19.3831 8.64376C19.2745 8.70836 19.146 8.90227 19.0375 9.17934C18.9099 9.55713 18.8303 9.9477 18.8005 10.3429C18.7426 10.9636 18.7426 11.5878 18.8005 12.2084C18.4948 12.2225 18.1926 12.2753 17.9021 12.3655C17.4479 12.5039 16.6088 12.8457 16.6484 13.0396C16.6681 13.1319 16.8358 13.1135 17.0433 13.0858C17.18 13.0628 17.319 13.0535 17.4579 13.0581C17.6636 13.0834 17.8636 13.1395 18.0502 13.2243C17.7745 13.3727 17.522 13.556 17.2999 13.7691C16.9741 14.0555 16.6187 14.3787 16.7964 14.6188C16.8557 14.6926 16.9939 14.6372 17.2012 14.5449C17.6059 14.3694 18.2773 14.0832 19.1559 14.3971C20.1432 14.7481 20.7356 15.2929 21.2785 16.4011C21.423 16.7383 21.5321 17.0877 21.6043 17.4446C21.8017 18.442 21.5747 19.6888 20.5874 20.8247C20.225 21.2551 19.8146 21.6483 19.3632 21.9975C18.0897 22.9949 17.3492 23.1611 17.2802 23.0227C17.2308 22.9118 18.1686 22.4224 18.919 21.8128C19.5365 21.3343 20.111 20.8092 20.6368 20.2429C20.6368 20.2429 19.5212 21.0001 18.5044 20.917C17.912 20.8617 17.5171 20.3998 17.4678 20.446C17.3295 20.5846 17.5467 20.9633 17.6158 21.0833C17.673 21.177 17.7464 21.2613 17.833 21.3326C17.833 21.3326 17.7935 21.4065 17.4381 21.4157C17.1419 21.425 17.0433 21.2495 17.0037 21.2772C16.9346 21.3326 16.984 21.5543 17.211 21.7666C17.3397 21.8903 17.4943 21.9878 17.6652 22.053C17.3766 22.1313 17.0771 22.1687 16.7767 22.1637C16.3423 22.1637 15.9177 21.9791 15.819 22.0714C15.6611 22.2284 15.9374 22.3762 16.135 22.5608C16.3225 22.7456 16.4409 22.7456 16.4409 22.7456C16.4409 22.7456 16.3916 22.9579 15.8091 23.0411C15.1872 23.1334 14.6738 22.8102 14.6245 22.9949C14.5652 23.2166 15.2958 23.7891 16.1646 23.863C16.7098 23.8967 17.2548 23.7948 17.7441 23.5675C17.7441 23.5675 17.7343 23.743 17.369 24.1308C17.0136 24.5095 16.826 24.491 16.8951 24.5741C17.0333 24.7495 17.5862 24.6664 19.462 23.0504C19.4604 23.0875 19.4637 23.1247 19.4718 23.1611C19.5804 24.805 21.3279 24.4263 21.3181 24.3247C21.3082 24.2417 20.9922 24.2508 20.706 24.0569C20.3406 23.8076 20.3998 23.6783 20.3998 23.6783C20.4913 23.7328 20.5975 23.7617 20.706 23.7614C20.9231 23.7799 21.0515 23.7707 21.0613 23.6875C21.0613 23.6228 20.469 23.5767 20.3012 22.9949C20.2663 22.848 20.2686 22.6955 20.3081 22.5496C20.3475 22.4036 20.4229 22.2684 20.5282 22.1546C22.0979 20.3352 22.3349 19.301 22.4534 18.5991C22.4731 18.4513 22.562 17.6848 22.9272 17.1861C22.9272 17.1769 22.9372 17.1769 22.9372 17.1676C23.2037 16.7705 23.5986 16.4011 24.1811 16.2995C24.252 16.2819 24.325 16.2726 24.3983 16.2719H24.4477C24.9808 16.3272 25.1585 16.5397 25.2868 16.7613C25.367 16.9234 25.4009 17.1022 25.3853 17.2802C25.3698 17.4582 25.3052 17.6294 25.1979 17.7772C25.1532 17.8387 25.1001 17.8946 25.0399 17.9433C24.9709 17.9988 24.9116 18.0449 24.9215 18.1004C24.9257 18.1206 24.935 18.1396 24.9488 18.1557C24.9625 18.1718 24.9803 18.1845 25.0005 18.1927C25.0421 18.2076 25.0867 18.2137 25.131 18.2105C25.1754 18.2073 25.2185 18.1949 25.2571 18.1743L25.2868 18.1558C25.3657 18.1188 25.425 18.0911 25.4546 18.1004C25.4644 18.1004 25.4644 18.1097 25.4644 18.1281C25.4843 18.2297 25.504 18.3774 25.0696 18.7007C24.9532 18.7842 24.8232 18.8497 24.6846 18.8946C24.5957 18.9223 24.5463 18.9407 24.5266 18.9777C24.5212 18.9882 24.5192 18.9999 24.5209 19.0114C24.5227 19.023 24.5281 19.0337 24.5364 19.0423C24.5661 19.1069 24.6846 19.1439 24.8326 19.1439C24.8724 19.1455 24.9122 19.1423 24.9512 19.1347C25.4546 19.0701 26.0668 18.6545 26.2345 17.6571C26.3078 17.1771 26.1843 16.6888 25.889 16.2903C25.6288 15.9614 25.2501 15.7317 24.8228 15.6439Z" fill="white"/>
<path d="M18.2672 15.4592C18.552 15.4326 18.8391 15.4805 19.0964 15.5978C19.2247 15.6531 19.3235 15.6994 19.363 15.6717C19.4519 15.6347 19.4519 15.5423 19.4123 15.4223C19.3553 15.2588 19.2358 15.1206 19.0767 15.0344C18.844 14.898 18.5702 14.8364 18.2967 14.8589C17.4082 14.8866 16.885 15.5516 16.7764 15.6994C16.7374 15.6154 16.672 15.5445 16.5888 15.4962C16.411 15.3853 16.2137 15.3392 16.1544 15.4039C16.1248 15.4408 16.1544 15.4869 16.2037 15.5516C16.2869 15.6526 16.3534 15.7647 16.4013 15.884C16.4429 16.0629 16.4529 16.247 16.4309 16.4289C16.4019 16.7275 16.4119 17.0283 16.4605 17.3247C16.5675 17.761 16.8261 18.1518 17.1959 18.4359C17.5657 18.72 18.0258 18.8813 18.5041 18.8947C18.6303 18.8966 18.7562 18.8841 18.8792 18.8577C19.3015 18.753 19.6779 18.5269 19.9554 18.2112C19.9774 18.2238 19.9974 18.2394 20.0146 18.2575C20.2769 18.4725 20.5575 18.667 20.8537 18.8392C20.9221 18.5915 20.9619 18.3377 20.9723 18.082C20.5572 17.8053 20.1735 17.4897 19.827 17.14C19.3037 16.6228 19.136 16.4566 19.136 16.4566C19.0373 16.3827 18.7015 16.1242 18.3462 16.1149C18.1978 16.1 18.0479 16.1223 17.9117 16.1795L18.0006 16.2996C18.0301 16.3366 18.1882 16.5489 18.5041 16.9276C18.7612 17.2297 19.0452 17.5108 19.3532 17.7679L19.3433 17.7865L19.4025 17.8327C19.1904 18.0447 18.9021 18.1762 18.5929 18.202C17.7341 18.2944 17.122 17.6387 17.0331 16.9646C16.9827 16.6212 17.0784 16.273 17.2996 15.9949C17.5444 15.7151 17.8872 15.5253 18.2672 15.4592Z" fill="white"/>
<path d="M4.14924 8.70837C5.56104 9.19779 6.35081 8.91156 6.39036 8.90228C6.40521 8.89627 6.42169 8.89476 6.4375 8.89795C6.45331 8.90114 6.46766 8.90888 6.47854 8.92007C6.48941 8.93127 6.49628 8.94537 6.49816 8.9604C6.50005 8.97543 6.49686 8.99063 6.48905 9.00388L6.47926 9.01316C6.36073 9.13319 6.06453 9.43798 5.88687 9.65961C6.03073 9.6799 6.1705 9.72037 6.30146 9.77964C6.41456 9.8234 6.52355 9.87593 6.62729 9.93668C7.0775 9.31404 7.65453 8.78054 8.32537 8.3667C8.87821 8.01576 9.77659 7.68325 10.6652 7.49862L10.7639 7.48018L10.6849 7.5355C10.4266 7.7206 10.2116 7.95319 10.0531 8.21895C9.83586 8.5699 9.65819 9.07775 9.71745 9.22551L9.72725 9.24407C9.80622 9.27167 9.80622 9.27167 9.84578 9.22551C9.87659 9.17871 9.91303 9.13536 9.95439 9.09631C9.97734 9.0661 10.0067 9.04066 10.0407 9.02158C10.0747 9.0025 10.1125 8.99019 10.1518 8.98544H10.1617C10.2029 8.98722 10.2418 9.00374 10.2703 9.0316L10.2801 9.04088C10.3296 9.0686 10.3196 9.11475 10.2999 9.22551C10.2703 9.41954 10.211 9.78893 10.4085 10.0844C10.6751 10.4815 10.912 10.74 11.0404 10.7678C11.0601 10.7678 11.07 10.7678 11.0798 10.7586C11.0897 10.7493 11.139 10.7032 11.0897 10.4723C11.0404 10.2322 10.912 9.40098 11.0501 8.81924C11.218 8.09891 11.7018 7.4063 12.3237 7.4063H12.383V6.75985C12.2646 6.75985 11.6425 6.71369 11.2773 6.35347C11.1815 6.2534 11.1078 6.13664 11.0603 6.00986C11.0129 5.88309 10.9927 5.7488 11.0008 5.6147C11.017 5.13012 11.2328 4.67015 11.6031 4.33095C11.6425 4.29407 11.7709 4.16476 11.7314 4.08172C11.7165 4.05173 11.6928 4.02629 11.6631 4.00832C11.6334 3.99034 11.5989 3.98057 11.5636 3.98012H11.5439C11.2477 3.98012 10.7244 4.33095 10.5665 4.56186C10.4226 4.7747 10.3097 5.00454 10.2307 5.24531C10.2267 5.25596 10.2202 5.26563 10.2117 5.27362C10.2031 5.2816 10.1928 5.2877 10.1814 5.29147C10.1191 5.30772 10.0528 5.30482 9.99243 5.28321C9.93201 5.26161 9.8806 5.22242 9.84578 5.17144C9.77708 5.08 9.74555 4.96862 9.75688 4.85737V4.80205C9.7486 4.79558 9.73802 4.79227 9.72725 4.79277C9.70753 4.79277 9.65819 4.80205 9.60884 4.87593C9.50023 5.04212 9.59892 5.83633 9.92475 6.26115C10.0827 6.46434 10.211 6.63054 10.3097 6.75057L10.3296 6.77829L10.29 6.78757C10.052 6.82954 9.81765 6.88815 9.589 6.96292C9.21396 7.08308 8.81907 7.23999 8.43398 7.38774C7.97983 7.56322 7.51588 7.74797 7.08144 7.87728C5.80789 8.25583 4.79098 8.22823 4.13945 7.79413C3.46808 7.3693 2.70794 6.56582 2.72765 5.18987C2.74927 4.46935 3.05525 3.78182 3.58661 3.25979C3.79526 3.05784 4.04531 2.89731 4.3218 2.78781C4.59828 2.67831 4.89554 2.62209 5.19578 2.6225H5.25505C6.86422 2.6595 7.41707 3.61074 7.39735 4.41411C7.37764 5.18059 6.92349 5.67929 6.17314 5.74401C5.95995 5.76561 5.74523 5.7189 5.56411 5.61152C5.38299 5.50414 5.24618 5.34244 5.17607 5.15287C5.1113 4.96825 5.08122 4.77453 5.08717 4.5803C5.07725 4.42339 5.07725 4.30335 5.01812 4.24791C4.98848 4.22947 4.96877 4.22019 4.93914 4.22947C4.85077 4.27178 4.78349 4.34462 4.75155 4.43254C4.66329 4.64045 4.62044 4.86279 4.62553 5.08644C4.63062 5.31009 4.68355 5.53052 4.78119 5.73473C4.99828 6.16871 5.61038 6.56582 6.37065 6.48278C6.73679 6.45275 7.08677 6.328 7.38143 6.1225C7.67609 5.917 7.9038 5.63886 8.03909 5.31919C8.19413 5.02085 8.26222 4.68951 8.23647 4.35867C8.23113 4.26855 8.21795 4.17899 8.19705 4.09088C8.19339 4.08163 8.19238 4.07165 8.19412 4.06193C8.19586 4.0522 8.20029 4.04307 8.20697 4.03544C8.21862 4.01839 8.23597 4.00543 8.25631 3.99856C8.60345 3.931 8.91033 3.7429 9.11514 3.47214C9.69761 2.69638 9.48052 2.26239 9.39162 2.14236C9.32257 2.04076 9.24359 2.01304 9.22375 2.0222C9.19173 2.06976 9.17148 2.12342 9.16448 2.17924C9.10535 2.39171 9.02637 2.71494 8.58201 2.83497C8.19705 2.94573 7.93048 2.77025 7.58494 2.53946H7.57502C7.31155 2.35108 7.02281 2.19581 6.71619 2.07764C6.17136 1.88574 5.58926 1.80392 5.0082 1.83757C3.48779 1.96689 1.92796 3.0196 1.8589 5.09756C1.80956 7.14767 3.00413 8.31127 4.14924 8.70837Z" fill="white"/>
<path d="M4.99894 16.9738C6.23307 17.0293 7.2697 16.3089 7.66458 16.0412C8.27669 15.6256 9.39229 14.5358 9.40221 14.5266L9.42192 14.5082L9.44163 14.5358C9.44163 14.5451 9.81681 15.1176 10.192 15.2838C10.447 15.3796 10.7297 15.3894 10.9917 15.3116C11.041 15.2931 11.0607 15.2838 11.0607 15.2747C11.0607 15.2654 11.0213 15.2377 10.9818 15.21C10.8193 15.0993 10.6828 14.9586 10.5809 14.7965C10.479 14.6345 10.4138 14.4546 10.3894 14.268C10.3302 13.7416 11.4753 13.243 12.2949 13.1044L12.3244 12.3564C12.0828 12.3673 11.8421 12.3919 11.6038 12.4302C10.1426 12.8089 9.21462 13.6401 8.30632 14.4435C7.33875 15.3024 6.43058 16.115 5.01878 16.115H4.98915C4.45602 16.115 3.92289 15.8657 3.48845 15.4316C3.21628 15.1567 3.00538 14.8338 2.86808 14.4818C2.73078 14.1298 2.66982 13.7557 2.68876 13.3815C2.75795 12.5595 3.07385 11.8854 3.60698 11.4328C4.02264 11.0768 4.56384 10.8763 5.12739 10.8695H5.15702C5.58501 10.8839 5.99678 11.0263 6.33176 11.2759C6.51092 11.4124 6.65784 11.5822 6.76321 11.7745C6.86857 11.9669 6.93009 12.1776 6.94387 12.3934C6.96378 12.5923 6.937 12.7929 6.86539 12.9811C6.79377 13.1693 6.67906 13.3406 6.52927 13.4831C6.35597 13.6209 6.14996 13.7179 5.92842 13.7661C5.70688 13.8143 5.47623 13.8123 5.25571 13.7601C4.92988 13.6954 4.66332 13.4369 4.51529 13.2153C4.40948 13.0503 4.32653 12.8734 4.26843 12.6889C4.25886 12.6624 4.23997 12.6398 4.21485 12.6247C4.18974 12.6096 4.15989 12.6029 4.13019 12.6057C4.05121 12.615 3.99195 12.7166 3.98216 12.8828C3.97473 13.2282 4.09128 13.566 4.31319 13.8423C4.53511 14.1185 4.84957 14.3172 5.20637 14.4066C5.67949 14.5471 6.1921 14.5136 6.6397 14.3128C7.08729 14.112 7.43618 13.7591 7.61524 13.326C7.71566 13.0896 7.77885 12.8407 7.80282 12.5873C7.80282 12.578 7.81262 12.5318 7.85217 12.5227C7.89159 12.5134 7.92123 12.5503 7.94107 12.5873C8.03996 12.6869 8.16441 12.7612 8.30263 12.8032C8.44084 12.8452 8.58824 12.8535 8.73084 12.8273C9.09609 12.735 9.25405 12.4488 9.40221 12.1624C9.54032 11.9038 9.67857 11.6546 9.96484 11.6176C10.3104 11.5621 10.4092 11.6176 10.4783 11.6453C10.5178 11.6637 10.5276 11.673 10.5968 11.6269C10.618 11.6127 10.6335 11.5921 10.6406 11.5686C10.6478 11.5452 10.6462 11.5201 10.6362 11.4975C10.5769 11.3221 10.2314 11.082 9.76746 11.1004C9.61706 11.0941 9.46697 11.1181 9.32731 11.1707C9.18764 11.2233 9.06166 11.3032 8.95785 11.4052C8.83451 11.5174 8.69075 11.6081 8.53333 11.673C8.03976 11.8762 7.7929 11.8115 7.78311 11.8023H7.77319V11.7931C7.76327 11.7746 6.94387 10.1585 5.07792 10.1585H5.06813C4.42593 10.1404 3.79724 10.3332 3.29107 10.7033C3.23181 10.7495 3.2121 10.7588 3.19239 10.7495C3.18974 10.7483 3.18738 10.7467 3.18544 10.7446C3.1835 10.7426 3.18202 10.7402 3.1811 10.7376C3.18017 10.735 3.17981 10.7323 3.18005 10.7296C3.18028 10.7268 3.18111 10.7242 3.18246 10.7218C3.20218 10.6479 3.06393 10.1862 2.97517 10.0107C2.92539 9.92742 2.85751 9.85478 2.77589 9.79751C2.69428 9.74024 2.60074 9.69961 2.5013 9.67822C2.63012 9.87082 2.68252 10.0996 2.64934 10.3247C2.63903 10.5406 2.5784 10.7517 2.47167 10.9434C2.41099 11.0603 2.35824 11.1806 2.31372 11.3036C1.97796 12.1532 1.87928 12.5595 1.86936 13.4553C1.85956 14.4435 2.18526 15.3393 2.79737 15.995C3.07726 16.2858 3.41585 16.522 3.79368 16.69C4.17151 16.858 4.58112 16.9545 4.99894 16.9738Z" fill="white"/>
</g>
<defs>
<clipPath id="clip0_380_14405">
<rect width="86" height="26" fill="white"/>
</clipPath>
</defs>
</svg>
