<svg width="134" height="21" viewBox="0 0 134 21" fill="none" xmlns="http://www.w3.org/2000/svg">
<path fill-rule="evenodd" clip-rule="evenodd" d="M3.07918 17.338C5.00922 19.3216 7.32514 20.3134 10.0261 20.3134C12.7271 20.3134 15.0389 19.3178 16.9617 17.3261C18.8844 15.3347 19.8458 12.937 19.8458 10.1327V0C18.2585 0 17.0304 0.454213 16.1605 1.36229C15.2907 2.27054 14.8558 3.35401 14.8558 4.61251V10.1327C14.8558 11.535 14.3867 12.7495 13.4481 13.7773C12.5096 14.8049 11.3686 15.3188 10.0261 15.3188C8.68313 15.3188 7.53886 14.8049 6.59271 13.7773C5.6464 12.7495 5.17341 11.535 5.17341 10.1327V4.61251C5.17341 3.35401 4.7387 2.27054 3.86876 1.36229C2.99899 0.454213 1.77037 0 0.183594 0V10.1327C0.183594 12.953 1.14844 15.3544 3.07918 17.338ZM52.0969 15.701C52.0969 16.9595 52.5319 18.043 53.4015 18.9513C54.2715 19.8592 55.4997 20.3134 57.087 20.3134V10.1806C57.087 7.36059 56.1257 4.95895 54.2027 2.97537C52.2801 0.991787 49.9682 0 47.2671 0C45.8784 0 44.5433 0.302871 43.2613 0.908252C41.9797 1.51381 40.8729 2.35028 39.9423 3.41765C37.9584 1.13933 35.5093 0 32.5947 0C29.8939 0 27.578 0.995945 25.6478 2.98748C23.7172 4.97902 22.752 7.3765 22.752 10.1806V20.3134C24.3544 20.3134 25.5866 19.863 26.4488 18.963C27.3108 18.0633 27.7422 16.9758 27.7422 15.701V10.1806C27.7422 8.77893 28.2148 7.56365 29.1611 6.53624C30.1073 5.50865 31.2519 4.99476 32.5947 4.99476C33.9527 4.99476 35.0973 5.50485 36.0282 6.5243C36.9589 7.54394 37.4244 8.76284 37.4244 10.1806V15.701C37.4244 16.9595 37.8593 18.043 38.7291 18.9513C39.599 19.8592 40.8273 20.3134 42.4144 20.3134V10.1806C42.4144 8.77893 42.8872 7.56365 43.8337 6.53624C44.7797 5.50865 45.9242 4.99476 47.2671 4.99476C48.6252 4.99476 49.7695 5.50485 50.7006 6.5243C51.6312 7.54394 52.0969 8.76284 52.0969 10.1806V15.701ZM74.8037 10.1806C74.8037 8.76284 74.337 7.54394 73.4037 6.5243C72.4703 5.50485 71.3236 4.99476 69.9625 4.99476C68.6012 4.99476 67.4539 5.50485 66.5205 6.5243C65.5874 7.54394 65.1211 8.76284 65.1211 10.1806C65.1211 11.5827 65.5914 12.7895 66.5323 13.8012C67.4726 14.813 68.6161 15.3188 69.9625 15.3188H74.8037V10.1806ZM69.9736 20.3134C67.2727 20.3134 64.9571 19.3256 63.0266 17.3499C61.0962 15.3747 60.1311 12.985 60.1311 10.1806C60.1311 7.3765 61.0962 4.97902 63.0266 2.98748C64.9571 0.995945 67.2727 0 69.9736 0C72.6747 0 74.9941 0.995945 76.9321 2.98748C78.8703 4.97902 79.8391 7.3765 79.8391 10.1806V20.3134H69.9736ZM97.5548 15.701C97.5548 16.9595 97.9895 18.043 98.8589 18.9513C99.7283 19.8592 100.956 20.3134 102.544 20.3134V10.1806C102.544 7.3765 101.583 4.97902 99.6608 2.98748C97.7366 0.995945 95.4245 0 92.7245 0C90.0235 0 87.7074 0.991787 85.7776 2.97537C83.8467 4.95895 82.8818 7.36059 82.8818 10.1806V20.3134C84.4688 20.3134 85.6972 19.8592 86.5672 18.9513C87.4369 18.043 87.8718 16.9595 87.8718 15.701V10.1806C87.8718 8.77893 88.3446 7.56365 89.2909 6.53624C90.2369 5.50865 91.3815 4.99476 92.7245 4.99476C94.0667 4.99476 95.208 5.50865 96.1467 6.53624C97.0854 7.56365 97.5548 8.77893 97.5548 10.1806V15.701ZM106.893 18.9513C106.024 18.043 105.587 16.9595 105.587 15.701V0C107.176 0 108.404 0.454213 109.273 1.36229C110.144 2.27054 110.579 3.35401 110.579 4.61251V20.3134C108.991 20.3134 107.763 19.8592 106.893 18.9513ZM129.097 5.28154C130.255 5.28154 131.248 4.85137 132.072 3.99103C132.896 3.13087 133.309 1.89625 133.309 0.286961H113.714C113.714 1.89625 114.126 3.13087 114.95 3.99103C115.775 4.85137 116.765 5.28154 117.926 5.28154H121.016V15.701C121.016 16.9595 121.45 18.043 122.321 18.9513C123.191 19.8592 124.419 20.3134 126.007 20.3134V5.28154H129.097Z" fill="url(#paint0_linear_291_1328)"/>
<defs>
<linearGradient id="paint0_linear_291_1328" x1="28.2853" y1="5.12671" x2="43.7054" y2="-21.5621" gradientUnits="userSpaceOnUse">
<stop stop-color="#D74FBA"/>
<stop offset="1" stop-color="#2357CF"/>
</linearGradient>
</defs>
</svg>
