<svg width="358" height="104" viewBox="0 0 358 104" fill="none" xmlns="http://www.w3.org/2000/svg">
<path d="M197.202 24.2652C197.202 24.2652 196.093 8.75631 197.284 -0.591086C198.478 -9.92493 200.147 -23.1238 200.449 -42.8851C200.584 -52.2574 199.761 -60.9857 194.503 -74.349C189.244 -87.7123 178.468 -92.9597 172.305 -99.0928C166.142 -105.226 162.847 -113.024 160.082 -113.189C157.317 -113.354 156.295 -105.414 151.712 -97.25C147.143 -89.0887 138.037 -80.5331 138.26 -60.071C138.483 -39.609 148.352 -18.6826 153.187 -6.37593C158.022 5.93069 162.982 20.7539 163.791 29.2602C164.025 31.686 162.147 33.8373 147.984 25.132C133.822 16.4266 125.496 10.9407 106.654 13.5895C87.811 16.2383 67.0957 30.6367 59.8535 34.5176C52.6248 38.3958 49.179 40.6329 40.1246 42.1195C31.0703 43.606 25.14 41.0779 24.0621 42.6429C22.9842 44.2079 27.6293 51.877 32.9317 55.829C38.2341 59.7811 43.7226 61.1577 48.8176 67.6471C53.9127 74.1364 59.8091 81.2321 68.8408 80.8866C77.8725 80.5411 88.9611 72.5371 96.3914 71.3574C103.835 70.1752 111.582 68.669 120.51 71.3325C120.51 71.3325 98.842 80.6902 86.0203 110.452C73.2121 140.212 72.9227 151.957 71.7493 163.771C70.5623 175.588 68.2379 180.125 62.5021 188.268C56.7527 196.414 56.5706 197.824 59.0024 199.862C61.4366 201.914 81.1564 195.451 98.5668 178.028C115.991 160.603 115.974 153.322 122.713 145.663C129.465 138.001 133.543 135.181 137.559 130.1C141.575 125.018 154.301 127.385 165.014 114.203C175.724 101.008 185.836 93.399 189.152 92.7724L189.747 92.6598C193.063 92.0332 205.268 95.4246 220.041 103.804C234.828 112.181 245.81 105.32 251.403 108.585C256.997 111.851 261.825 113.001 270.905 117.657C279.985 122.312 282.629 129.111 305.197 138.978C327.779 148.843 348.483 147.667 350.001 144.868C351.518 142.069 350.837 140.837 342.511 135.351C334.186 129.865 330.364 126.475 324.962 115.918C319.545 105.349 315.005 94.5304 292.218 71.4841C269.43 48.4377 245.844 47.6462 245.844 47.6462C253.184 41.9085 260.944 40.4701 268.308 38.8678C275.67 37.252 288.904 40.6735 297.436 37.6856C305.971 34.7113 308.871 25.9531 311.247 18.052C313.622 10.1509 318.23 6.8662 321.724 1.2517C325.219 -4.36281 326.731 -13.1956 325.17 -14.2619C323.609 -15.3281 318.994 -10.8211 310.024 -8.8874C301.052 -6.96721 296.978 -7.46038 288.882 -8.76528C272.576 -11.3817 253.131 -13.1803 237.822 -5.03818C222.523 3.08783 211.895 16.7168 205.97 21.4855C200.045 26.2541 197.471 30.1369 197.164 24.2864L197.202 24.2652Z" fill="#1B532B" stroke="#3F654A" stroke-width="1.12" stroke-miterlimit="10"/>
<path d="M190.61 97.7467C194.562 96.9999 195.859 102.677 211.476 111.809C227.079 120.944 242.156 118.839 255.199 111.981C265.347 106.639 272.044 95.1282 271.863 74.8829C271.681 54.6377 263.076 38.0332 249.857 31.6478C238.673 26.2391 224.932 27.6991 211.744 34.9772C198.555 42.2552 192.294 53.6977 182.631 55.5238C172.968 57.35 162.962 48.9818 148.028 47.0185C133.093 45.0552 119.814 48.2944 111.328 57.8277C100.608 69.86 97.499 88.0466 106.618 106.112C114.543 121.792 123.93 131.779 135.671 134.57C150.012 137.993 165.122 132.653 176.316 118.454C187.509 104.255 186.658 98.4935 190.61 97.7467Z" fill="#1B532B" stroke="#3F654A" stroke-width="1.12" stroke-miterlimit="10"/>
<path d="M179.569 24.8599C186.499 24.5186 192.297 35.6186 197.95 48.6968C203.604 61.775 209.865 71.9876 206.887 75.5117C206.887 75.5117 207.826 82.8565 213.946 88.7592C220.065 94.662 221.494 96.2164 226.719 104.576C231.943 112.935 245.759 116.247 252.737 116.977C259.702 117.71 261.122 120.403 260.361 126.02C259.6 131.637 257.816 139.034 252.853 144.07C247.89 149.106 247.917 155.261 238.713 163.148C229.508 171.034 223.36 180.631 216.74 184.17C210.118 187.695 202.839 192.495 189.331 188.437C175.823 184.38 168.201 178.986 157.093 175.612C145.985 172.237 136.227 161.549 131.496 156.984C126.762 152.405 125.631 147.608 130.595 142.572C135.558 137.536 140.916 133.324 147.805 128.836C154.694 124.349 155.782 116.831 160.693 110.331C165.604 103.832 166.067 97.8217 167.657 92.96C169.247 88.0983 169.354 81.468 169.354 81.468C169.354 81.468 165.019 81.375 166.345 71.5531C167.67 61.7311 171.469 25.2398 179.593 24.8412L179.569 24.8599Z" fill="#1B532B" stroke="#E1E6F0" stroke-opacity="0.15" stroke-width="1.12" stroke-miterlimit="10"/>
<path d="M169.328 81.4883C169.328 81.4883 173.738 83.167 179.654 79.5368C179.654 79.5368 182.255 82.4697 184.552 81.3479C186.849 80.2261 187.68 79.8024 190.725 80.2655C193.773 80.7421 194.835 79.1661 195.705 76.5035C195.705 76.5035 203.169 79.8786 206.902 75.5242" stroke="#3F654A" stroke-width="1.12" stroke-miterlimit="10" stroke-linecap="round"/>
<path d="M177.057 -0.893199C177.986 4.83963 178.689 10.0399 179.111 13.8335C179.531 17.6136 179.696 19.9683 179.545 19.9829C179.396 20.011 178.958 17.6939 178.332 13.9387C177.723 10.1944 176.883 5.00616 175.956 -0.713126C175.029 -6.43241 174.178 -11.6046 173.566 -15.3624C172.97 -19.1092 172.64 -21.4467 172.803 -21.4774C172.951 -21.5056 173.549 -19.2327 174.337 -15.5082C175.139 -11.7862 176.114 -6.62347 177.057 -0.893199Z" fill="#3F654A"/>
<path d="M170.046 9.58134C171.619 15.2346 172.636 19.8704 172.343 19.9537C172.05 20.0371 170.538 15.5231 168.979 9.86726C167.406 4.21399 166.39 -0.421768 166.682 -0.505137C166.975 -0.588506 168.487 3.9255 170.044 9.56779L170.046 9.58134Z" fill="#3F654A"/>
<path d="M187.674 10.0382C187.522 14.7965 186.945 18.6387 186.645 18.6111C186.332 18.5861 186.418 14.7385 186.562 10.0099C186.719 5.27869 186.875 1.43187 187.196 1.42725C187.504 1.42518 187.826 5.2799 187.674 10.0382Z" fill="#3F654A"/>
<path d="M101.672 44.0447C107.246 42.6123 112.571 41.2692 117.491 40.3814C122.409 39.4801 126.915 38.9935 130.708 38.9643C134.498 38.9216 137.567 39.2119 139.659 39.6024C140.711 39.7544 141.497 39.9848 142.039 40.1069C142.583 40.2426 142.853 40.3321 142.847 40.3753C142.821 40.4643 141.678 40.2734 139.587 40.037C137.507 39.7846 134.461 39.6163 130.718 39.7623C126.973 39.8947 122.537 40.4524 117.67 41.4002C112.803 42.3481 107.494 43.7022 101.933 45.1321C96.3588 46.5645 91.0076 47.8424 86.0693 48.6353C81.1336 49.4418 76.6024 49.7929 72.8107 49.6814C69.0217 49.5835 65.9682 49.1501 63.9012 48.6706C62.8551 48.4753 62.0745 48.2018 61.5412 48.05C61.0053 47.8846 60.7336 47.7816 60.742 47.7519C60.7796 47.5062 65.2977 48.94 72.8162 48.8945C76.5603 48.9026 81.0059 48.4695 85.8908 47.6165C90.7757 46.7635 96.0838 45.4797 101.658 44.0473L101.672 44.0447Z" fill="#3F654A"/>
<path d="M269.363 17.2392C278.693 14.4656 286.493 10.1987 292.598 8.09052C295.63 6.99835 298.178 6.39044 299.961 6.10959C300.846 5.97045 301.547 5.89421 302.02 5.875C302.49 5.84224 302.744 5.8504 302.752 5.89106C302.77 5.98591 301.787 6.12941 300.043 6.5432C298.313 6.95444 295.826 7.66308 292.864 8.82633C286.927 11.0851 279.125 15.4926 269.676 18.3028C260.291 21.2273 251.402 22.4019 244.991 22.7434C241.788 22.9277 239.187 22.886 237.383 22.834C235.585 22.7387 234.602 22.6577 234.6 22.5739C234.599 22.49 235.599 22.4414 237.385 22.3985C239.177 22.3125 241.757 22.2459 244.94 21.9532C251.288 21.4271 260.057 20.1348 269.35 17.2418L269.363 17.2392Z" fill="#3F654A"/>
<path d="M162.531 42.7051C165.952 42.3392 168.627 43.2932 168.538 43.5627C168.473 43.8838 165.841 43.455 162.641 43.807C159.434 44.1184 156.952 45.0786 156.826 44.7797C156.68 44.5266 159.105 43.0438 162.531 42.7051Z" fill="#3F654A"/>
<path d="M201.608 33.4823C205.77 33.257 208.855 34.8915 208.704 35.1306C208.595 35.4458 205.532 34.3686 201.664 34.5944C197.783 34.7524 194.846 36.1215 194.706 35.8252C194.538 35.6043 197.44 33.6804 201.608 33.4823Z" fill="#3F654A"/>
<path d="M300.361 113.087C302.793 115.645 305.126 118.052 307.317 120.151C309.532 122.23 311.596 124.029 313.449 125.377C317.135 128.119 319.743 129.31 319.654 129.51C319.626 129.585 318.959 129.318 317.765 128.786C317.171 128.533 316.445 128.179 315.667 127.695C314.877 127.227 313.94 126.716 312.996 126.024C311.043 124.737 308.9 122.967 306.617 120.9C304.359 118.815 301.985 116.415 299.553 113.857C297.122 111.299 294.802 108.888 292.619 106.761C290.415 104.665 288.376 102.847 286.545 101.467C282.905 98.6742 280.314 97.4236 280.419 97.2355C280.449 97.1736 281.116 97.4405 282.288 98.0049C282.885 98.271 283.6 98.6412 284.381 99.1392C285.173 99.621 286.099 100.148 287.016 100.845C288.947 102.164 291.066 103.953 293.335 106.022C295.569 108.126 297.932 110.542 300.361 113.087Z" fill="#3F654A"/>
<path d="M297.617 90.6308C301.21 93.9233 304.197 97.1903 306.205 99.6597C308.227 102.127 309.323 103.772 309.214 103.863C309.081 103.972 307.778 102.492 305.616 100.178C303.455 97.8638 300.422 94.718 296.86 91.4475C293.301 88.1905 289.907 85.4356 287.409 83.4937C284.912 81.5518 283.327 80.3636 283.429 80.2321C283.506 80.1194 285.241 81.0686 287.878 82.8578C290.515 84.6471 294.023 87.3383 297.617 90.6308Z" fill="#3F654A"/>
<path d="M187.57 73.3543C188.17 73.0444 188.672 72.5847 188.988 72.0337C189.334 71.4911 189.507 70.7006 190.162 70.0153C190.869 69.3063 191.813 69.2543 192.491 69.2103C193.199 69.1747 193.88 69.1443 194.551 69.1299C197.245 69.0699 199.778 69.4192 201.661 70.4106C203.539 71.3748 204.67 72.761 205.151 73.821C205.661 74.8894 205.619 75.5569 205.565 75.5672C205.47 75.5851 205.352 74.9618 204.77 74.0332C204.205 73.1156 203.082 71.9243 201.305 71.1234C199.552 70.3038 197.189 70.0348 194.575 70.1498C193.91 70.1912 193.243 70.2191 192.551 70.2657C191.872 70.3097 191.26 70.4113 190.922 70.77C190.545 71.15 190.354 71.8456 189.933 72.5848C189.499 73.3265 188.841 73.928 188.075 74.3253C186.56 75.131 184.653 75.1266 183.249 74.227C182.576 73.7788 182.195 73.5421 181.565 73.5488C180.974 73.5342 180.272 73.6808 179.615 73.7629C176.994 74.132 174.676 74.6261 172.917 75.4779C171.155 76.3161 169.96 77.412 169.281 78.27C168.603 79.1281 168.348 79.7095 168.273 79.6817C168.213 79.6648 168.315 79.0141 168.927 78.0282C169.526 77.0449 170.728 75.7652 172.562 74.7871C174.39 73.7819 176.814 73.1835 179.453 72.7551C180.107 72.6594 180.765 72.507 181.573 72.4806C181.965 72.4767 182.399 72.549 182.811 72.7239C183.209 72.9013 183.517 73.1237 183.815 73.2919C184.881 73.9607 186.367 73.9606 187.564 73.3272L187.57 73.3543Z" fill="#3F654A"/>
<path d="M177.087 79.1388C178.39 78.6121 179.55 77.9296 180.267 77.0503C180.62 76.6187 180.852 76.1398 180.946 75.673C181.045 75.2332 180.933 74.7912 180.764 74.4161C180.397 73.6576 179.761 73.2585 179.321 73.1591C178.858 73.0783 178.57 73.1888 178.525 73.099C178.488 73.0499 178.729 72.7659 179.35 72.7185C179.961 72.6873 180.876 73.0759 181.46 74.018C181.731 74.4861 181.962 75.116 181.852 75.7964C181.778 76.4419 181.496 77.0988 181.071 77.6702C180.222 78.8132 178.898 79.5966 177.49 80.1574C176.071 80.7343 174.623 81.008 173.299 81.0477C172.007 81.1094 170.683 80.9246 169.807 80.2201C168.901 79.5071 168.728 78.5153 168.855 77.9298C168.978 77.3172 169.307 77.1288 169.341 77.1643C169.419 77.2057 169.26 77.4744 169.282 77.9615C169.299 78.4214 169.577 79.1547 170.259 79.5732C170.962 80.0298 172.031 80.1225 173.245 80.0194C174.462 79.9298 175.78 79.6385 177.071 79.1279L177.087 79.1388Z" fill="#3F654A"/>
<path d="M197.775 74.8483C198.846 75.1791 199.917 75.3557 200.894 75.4095C201.899 75.4583 202.736 75.4403 203.387 75.177C204.044 74.9407 204.463 74.5666 204.629 74.2547C204.778 73.9317 204.743 73.6717 204.838 73.6538C204.892 73.6436 205.1 73.8568 205.044 74.3728C204.973 74.8913 204.475 75.5187 203.707 75.9025C203.324 76.1012 202.89 76.2534 202.387 76.3345C201.908 76.3969 201.41 76.4347 200.878 76.4371C199.814 76.4417 198.635 76.2856 197.458 75.9185C196.295 75.5489 195.179 75.0581 194.339 74.2485C193.927 73.8491 193.608 73.3481 193.443 72.8459C193.26 72.3193 193.322 71.7601 193.467 71.3398C193.765 70.4695 194.432 69.9926 194.919 69.9005C195.433 69.8033 195.666 69.9979 195.65 70.0572C195.638 70.1436 195.384 70.1354 195.053 70.3103C194.735 70.4827 194.339 70.9084 194.208 71.5507C194.047 72.1845 194.337 72.9016 195.025 73.5014C195.697 74.0901 196.689 74.5201 197.764 74.8644L197.775 74.8483Z" fill="#3F654A"/>
<path d="M197.32 139.41C198.253 139.304 198.911 138.632 199.144 137.718C199.397 136.828 199.189 135.801 198.926 134.784C198.664 133.767 198.307 132.768 197.996 131.718C197.842 131.199 197.703 130.608 197.714 130.003C197.71 129.386 197.859 128.838 197.937 128.361C198.15 127.338 197.943 126.689 197.386 125.742C197.126 125.258 196.908 124.696 196.86 124.073C196.805 123.41 197.124 122.802 197.285 122.393C198.081 120.741 197.133 118.843 196.867 116.914C196.688 115.966 196.538 115.026 196.355 114.134C196.271 113.687 196.159 113.245 196.037 112.819C195.919 112.42 195.743 111.934 195.665 111.444C195.494 110.465 195.623 109.515 195.446 108.804C195.321 108.14 194.579 107.48 194.298 106.509C193.976 105.475 194.375 104.544 194.463 103.825C194.581 103.115 194.386 102.38 194.159 101.623C194.044 101.238 193.93 100.853 193.864 100.43C193.792 100.051 193.734 99.6688 193.676 99.2868C193.559 98.5229 193.419 97.7776 193.478 96.9804C193.522 96.1722 193.91 95.4814 193.763 95.0038C193.634 94.4669 193.205 93.9024 192.854 93.3794C192.419 92.8581 192.17 92.063 192.152 91.4488C192.127 90.7941 192.086 90.2825 191.976 89.6998C191.448 87.4277 191.54 85.3895 191.137 83.8517C190.75 82.3248 190.062 81.2058 189.332 80.8247C188.612 80.4274 188.12 80.422 188.137 80.3627C188.134 80.3492 188.259 80.3397 188.472 80.3556C188.688 80.3849 189.02 80.4345 189.434 80.6229C190.273 80.9836 191.082 82.1499 191.549 83.7317C192.048 85.3355 191.995 87.3525 192.582 89.5712C192.715 90.1216 192.775 90.8119 192.812 91.3803C192.857 91.9893 193.015 92.4507 193.42 92.9636C193.79 93.5112 194.249 94.0138 194.486 94.8251C194.606 95.2374 194.523 95.6882 194.436 96.0415C194.349 96.3949 194.281 96.7025 194.261 97.043C194.214 97.6835 194.352 98.4152 194.479 99.163C194.548 99.5289 194.62 99.9083 194.692 100.288C194.758 100.64 194.868 100.998 194.983 101.383C195.224 102.138 195.474 103.017 195.343 103.954C195.217 104.848 194.937 105.588 195.173 106.246C195.291 106.574 195.485 106.93 195.716 107.266C195.948 107.601 196.259 108.061 196.37 108.574C196.603 109.582 196.461 110.465 196.628 111.275C196.702 111.668 196.847 112.062 196.993 112.54C197.134 112.99 197.238 113.462 197.341 113.934C197.545 114.864 197.694 115.804 197.871 116.739C198.037 117.69 198.287 118.569 198.492 119.582C198.587 120.084 198.66 120.617 198.641 121.182C198.621 121.747 198.461 122.311 198.262 122.812C198.051 123.329 197.877 123.67 197.917 124.028C197.95 124.428 198.084 124.838 198.317 125.257C198.551 125.676 198.856 126.18 198.998 126.785C199.157 127.4 199.078 128.019 198.994 128.54C198.902 129.09 198.783 129.576 198.795 130.009C198.796 130.458 198.896 130.916 199.045 131.407C199.332 132.405 199.705 133.416 199.991 134.484C200.247 135.545 200.54 136.724 200.203 137.981C200.038 138.588 199.745 139.19 199.243 139.65C198.757 140.121 198.109 140.398 197.468 140.491C196.827 140.584 196.182 140.509 195.603 140.338C195.021 140.153 194.443 139.912 193.937 139.46C192.982 138.56 192.605 137.382 192.357 136.292C192.238 135.739 192.147 135.181 192.101 134.642C192.05 134.076 191.998 133.651 191.863 133.157C191.6 132.211 191.071 131.342 190.617 130.347C190.149 129.355 189.875 128.2 189.943 127.078C190.014 125.97 190.319 124.987 190.279 124.11C190.253 123.231 189.852 122.296 189.685 121.261C189.505 120.312 189.285 119.372 189.055 118.447C188.808 117.511 188.579 116.6 188.351 115.689C188.098 114.796 187.982 113.737 188.019 112.818C188.111 110.934 188.374 109.285 187.823 107.705C187.351 106.096 186.848 104.395 186.978 102.714C187.102 101.217 186.633 99.7756 186.384 98.3071C186.246 97.5754 186.2 96.8122 186.209 96.1226C186.219 95.4331 186.207 94.7758 186.182 94.121C186.133 92.825 186.043 91.607 185.922 90.4509C185.671 88.1547 185.584 86.1362 185.682 84.5037C185.782 82.8848 186.047 81.5436 186.735 80.8803C187.079 80.5487 187.481 80.5287 187.702 80.5852C187.923 80.6417 188.031 80.6915 188.02 80.7076C188.025 80.7347 187.893 80.7036 187.696 80.6987C187.483 80.6829 187.158 80.7443 186.906 81.0444C186.362 81.6525 186.157 82.9403 186.135 84.5303C186.102 86.1364 186.265 88.1125 186.569 90.3849C186.716 91.5359 186.838 92.7759 186.917 94.0803C186.956 94.7325 186.973 95.4169 186.979 96.1175C186.969 96.807 187.036 97.4541 187.169 98.1587C187.43 99.5409 187.955 101.056 187.84 102.747C187.746 104.253 188.205 105.794 188.712 107.438C188.977 108.245 189.15 109.236 189.125 110.139C189.115 111.053 189.019 111.956 189.002 112.829C188.977 113.732 189.071 114.528 189.326 115.434C189.568 116.343 189.81 117.252 190.057 118.187C190.304 119.123 190.54 120.075 190.727 121.064C190.871 121.977 191.297 122.893 191.36 124.046C191.408 125.188 191.079 126.19 191.031 127.125C190.984 128.061 191.185 128.977 191.621 129.877C192.031 130.782 192.615 131.724 192.938 132.842C193.109 133.371 193.188 134.016 193.226 134.514C193.283 135.036 193.351 135.543 193.459 136.041C193.673 137.026 194.044 138.022 194.705 138.627C195.355 139.178 196.443 139.519 197.331 139.394L197.32 139.41Z" fill="#3F654A"/>
<path d="M176.564 93.9739C177.408 95.1757 178.651 96.1899 179.323 97.5927C179.889 99.0295 180.028 100.21 180.176 101.291C180.292 102.35 180.291 103.234 180.166 103.833C180.043 104.446 179.816 104.727 179.754 104.697C179.676 104.655 179.761 104.359 179.739 103.801C179.732 103.241 179.619 102.421 179.402 101.423C179.177 100.455 178.891 99.162 178.4 98.0479C177.839 96.9329 176.652 95.9924 175.647 94.6103C175.4 94.2641 175.183 93.8561 175.052 93.3895L175.019 93.2134C174.99 93.1346 174.983 93.0236 174.97 92.9559C174.98 92.7856 175 92.6696 175.023 92.567C175.079 92.3459 175.143 92.1654 175.18 91.99C175.233 91.8256 175.273 91.6637 175.29 91.5341C175.305 91.3909 175.298 91.3503 175.278 91.1716C175.222 90.8734 175.111 90.5856 174.963 90.3189C174.677 89.7695 174.284 89.3244 173.85 88.9573C173.398 88.5656 172.937 88.2036 172.544 87.8288C171.701 87.076 171.378 86.1124 171.298 85.5381C171.212 84.9368 171.248 84.6072 171.316 84.5944C171.397 84.5791 171.499 84.8966 171.71 85.4182C171.923 85.9533 172.264 86.6466 173.063 87.2395C173.444 87.5465 173.924 87.8628 174.417 88.2468C174.953 88.6366 175.461 89.1722 175.851 89.8282C176.039 90.1575 176.209 90.5326 176.301 90.9501C176.348 91.1237 176.396 91.4514 176.353 91.67C176.327 91.8996 176.268 92.1072 176.22 92.2987C176.113 92.6978 175.988 93.0021 176.093 93.1087C176.176 93.4017 176.33 93.6954 176.54 93.9925L176.564 93.9739Z" fill="#3F654A"/>
<path d="M180.302 92.0048C180.722 93.4131 180.359 94.829 180.272 95.8557C180.229 96.3691 180.248 96.9129 180.369 97.255C180.513 97.6487 180.801 98.0575 180.961 98.5326C181.304 99.5342 180.996 100.28 180.913 100.731C180.79 101.189 180.741 101.451 180.657 101.453C180.59 101.466 180.493 101.175 180.484 100.686C180.449 100.201 180.564 99.4775 180.236 98.8519C180.075 98.5175 179.77 98.1681 179.514 97.6271C179.261 97.0293 179.234 96.4449 179.244 95.8256C179.278 94.5982 179.568 93.4627 179.207 92.2959C179.06 91.6641 178.883 91.0239 178.811 90.3497C178.726 89.6781 178.804 88.9757 178.986 88.38C179.393 87.1944 179.866 86.3612 180.093 85.5604C180.584 84.0079 180.215 82.9411 180.402 82.8917C180.5 82.817 181.204 83.8768 180.856 85.7391C180.717 86.6355 180.252 87.6636 179.974 88.6423C179.686 89.6371 179.961 90.7219 180.293 92.0345L180.302 92.0048Z" fill="#3F654A"/>
<path d="M201.613 89.8709C202.064 91.1469 202.79 92.315 203.334 93.4892C203.614 94.0819 203.833 94.6441 203.986 95.2326C204.142 95.8347 204.149 96.3947 204.131 96.8894C204.091 97.8653 203.991 98.5998 203.991 99.1191C203.989 99.6248 204.032 99.9255 203.951 99.9408C203.883 99.9536 203.696 99.7082 203.564 99.1577C203.421 98.6234 203.408 97.8119 203.347 96.8971C203.311 95.9636 202.994 95.0271 202.408 93.9309C201.852 92.843 201.073 91.6851 200.558 90.2245C200.03 88.7665 200.07 87.2713 199.591 86.3655C199.144 85.4114 198.059 85.0832 197.194 84.587C196.31 84.1365 195.715 83.435 195.493 82.9296C195.245 82.4293 195.215 82.126 195.278 82.0861C195.465 81.9665 195.871 83.2231 197.55 83.8742C197.978 84.06 198.441 84.211 198.997 84.4848C199.537 84.7476 200.127 85.1976 200.49 85.8587C201.203 87.1835 201.121 88.6025 201.61 89.8573L201.613 89.8709Z" fill="#3F654A"/>
<path d="M204.368 88.2986C204.663 89.5621 204.675 90.7387 204.678 91.7908C204.681 92.8429 204.671 93.7569 204.731 94.5175C204.809 96.0464 205.227 96.9218 205.075 97.0067C204.966 97.0975 204.248 96.2648 203.952 94.6227C203.579 93.023 203.754 90.7585 203.282 88.56C203.08 87.4895 202.323 86.5239 202.312 85.2067C202.363 83.9199 203.034 83.0915 203.43 82.4413C204.329 81.1907 204.285 80.2166 204.466 80.2105C204.533 80.1977 204.636 80.4449 204.642 80.921C204.662 81.3945 204.487 82.1011 204.117 82.8165C203.789 83.5243 203.299 84.3465 203.334 85.1961C203.336 86.0237 204.055 87.0106 204.355 88.3012L204.368 88.2986Z" fill="#3F654A"/>
<path d="M151.644 73.7867C153.498 74.5452 155.318 75.0572 157.023 75.3245C158.717 75.5376 160.278 75.5654 161.558 75.3656C164.139 75.0042 165.633 74.2306 165.725 74.4237C165.765 74.4863 165.417 74.7205 164.741 75.0729C164.412 75.2613 163.991 75.4812 163.473 75.6352C162.956 75.7891 162.375 76.0533 161.704 76.138C160.361 76.4479 158.705 76.5084 156.894 76.3454C155.097 76.1095 153.152 75.607 151.223 74.8207C147.385 73.2023 144.342 70.9705 142.255 69.2738C140.179 67.5609 139.038 66.345 139.131 66.2433C139.233 66.1119 140.559 67.1242 142.726 68.6514C144.893 70.1787 147.946 72.2402 151.633 73.8029L151.644 73.7867Z" fill="#3F654A"/>
<path d="M155.745 88.0975C158.614 87.1063 161.015 85.5719 162.627 84.3832C164.249 83.1783 165.013 82.1778 165.158 82.2768C165.282 82.3376 164.702 83.57 163.134 84.9891C161.579 86.4056 159.179 88.0942 156.099 89.1534C152.941 90.1712 149.925 89.7869 147.917 89.3945C145.887 88.9641 144.676 88.5615 144.704 88.4158C144.73 88.2565 146.017 88.3922 148.036 88.6142C150.049 88.8092 152.88 89.0319 155.759 88.0949L155.745 88.0975Z" fill="#3F654A"/>
<path d="M155.452 103.745C159.434 100.116 162.579 96.3634 164.313 93.2991C166.079 90.2567 166.536 88.0792 166.728 88.1272C166.8 88.1415 166.751 88.6981 166.531 89.6802C166.296 90.6648 165.817 92.0605 165.001 93.6743C163.4 96.924 160.252 100.887 156.208 104.557C154.222 106.434 152.037 107.997 149.902 109.088C147.786 110.204 145.747 110.912 144.018 111.407C140.556 112.37 138.331 112.538 138.322 112.414C138.288 112.238 140.449 111.801 143.794 110.664C147.112 109.531 151.604 107.49 155.466 103.743L155.452 103.745Z" fill="#3F654A"/>
<path d="M222.359 64.5333C226.017 63.1964 228.958 61.181 230.835 59.4651C232.741 57.7576 233.652 56.4206 233.799 56.5331C233.909 56.5965 233.213 58.1035 231.377 60.0362C229.566 61.9503 226.542 64.1919 222.738 65.5705C220.837 66.2666 218.986 66.7847 217.207 66.9385C215.439 67.0762 213.889 66.962 212.604 66.9102C210.021 66.7388 208.465 66.9626 208.421 66.8026C208.379 66.6561 209.981 66.1569 212.61 66.1232C213.918 66.0725 215.452 66.1054 217.112 65.9179C218.743 65.7219 220.551 65.1979 222.359 64.5333Z" fill="#3F654A"/>
<path d="M222.817 77.1909C226.4 77.6084 229.708 77.4604 232.001 76.9849C234.329 76.545 235.519 75.6465 235.614 75.7828C235.727 75.8597 234.596 77.0699 232.185 77.7361C229.809 78.4378 226.397 78.7037 222.687 78.2821C220.841 78.0835 219.041 77.6097 217.563 76.9067C216.071 76.2062 214.87 75.3385 213.924 74.5629C212.057 72.993 211.097 71.8413 211.19 71.7395C211.305 71.6055 212.453 72.5673 214.395 73.9406C215.363 74.6137 216.558 75.3704 217.975 75.9727C219.395 76.5885 221.025 76.9821 222.814 77.1773L222.817 77.1909Z" fill="#3F654A"/>
<path d="M230.912 92.0382C233.913 93.1552 236.893 93.8691 239.638 94.0801C242.388 94.3182 244.885 94.0289 246.916 93.5749C250.994 92.6077 253.257 91.1556 253.349 91.3486C253.389 91.4113 252.847 91.8084 251.812 92.411C250.758 92.9892 249.178 93.7509 247.1 94.3261C245.022 94.9012 242.43 95.2788 239.563 95.0908C236.701 94.9299 233.596 94.2255 230.518 93.067C227.439 91.9085 224.64 90.4448 222.301 88.8237C219.938 87.2213 218.018 85.521 216.478 84.0438C214.935 82.5531 213.77 81.2856 212.982 80.3819C212.195 79.4781 211.8 78.9491 211.847 78.8983C211.978 78.7753 213.833 80.6561 217 83.468C220.15 86.2689 224.846 89.8304 230.896 92.0272L230.912 92.0382Z" fill="#3F654A"/>
<path d="M94.5108 103.684C94.9973 102.624 95.9534 102.12 96.129 102.382C96.302 102.63 95.9198 103.277 95.4999 104.171C95.0665 105.067 94.5372 105.826 94.2468 105.699C93.9724 105.582 94.0167 104.704 94.5108 103.684Z" fill="#3F654A"/>
<path d="M98.3211 102.206C98.8946 101.607 99.6046 101.655 99.688 101.948C99.7849 102.238 99.4488 102.611 99.1372 102.964C98.8094 103.307 98.4843 103.663 98.177 103.595C97.8884 103.551 97.7662 102.83 98.3211 102.206Z" fill="#3F654A"/>
<path d="M266.874 78.6888C266.849 79.5918 266.588 80.2867 266.288 80.2591C265.988 80.2315 265.753 79.5042 265.77 78.6308C265.787 77.7574 266.059 77.0464 266.356 77.0604C266.667 77.0719 266.889 77.8018 266.874 78.6888Z" fill="#3F654A"/>
<path d="M268.397 74.0635C268.533 75.0764 268.228 75.8358 267.933 75.8353C267.612 75.8399 267.409 75.0642 267.291 74.2164C267.189 73.3796 267.05 72.7182 267.308 72.529C267.553 72.3423 268.254 73.0098 268.395 74.0499L268.397 74.0635Z" fill="#3F654A"/>
<path d="M268.979 82.4016C268.809 83.5005 268.708 84.3054 268.432 84.3997C268.115 84.5018 267.704 83.4426 267.876 82.2734C268.039 81.1338 268.264 80.3195 268.564 80.2768C268.889 80.2154 269.159 81.2731 268.979 82.4016Z" fill="#3F654A"/>
<path d="M244.167 -0.214817C245.291 -0.792198 246.389 -0.845203 246.461 -0.536102C246.531 -0.240552 245.713 0.250899 244.665 0.785833C243.616 1.32077 242.651 1.62943 242.487 1.35178C242.341 1.09868 243.043 0.362564 244.167 -0.214817Z" fill="#3F654A"/>
<path d="M101.608 55.6506C105.2 54.9297 107.978 53.5345 108.123 53.858C108.246 54.0594 105.673 55.949 101.813 56.7347C97.899 57.4603 94.8173 56.3585 94.8982 56.1187C94.9585 55.7705 98.0054 56.3174 101.605 55.6371L101.608 55.6506Z" fill="#3F654A"/>
<path d="M122.205 27.1418C126.817 28.179 130.846 29.5506 133.645 30.8602C136.444 32.1698 138.001 33.2929 137.925 33.4056C137.842 33.5616 136.163 32.686 133.332 31.5789C130.515 30.4693 126.482 29.2247 121.975 28.2238C117.482 27.2906 113.261 27.6532 110.228 27.8475C107.187 28.0714 105.276 28.1237 105.259 27.9585C105.244 27.8069 107.104 27.4836 110.15 27.0623C113.16 26.6758 117.507 26.1631 122.189 27.1308L122.205 27.1418Z" fill="#3F654A"/>
<path d="M222.728 15.8204C224.718 14.1111 226.723 12.778 228.271 11.9942C229.819 11.2105 230.859 10.9297 230.912 11.0601C230.983 11.215 230.072 11.7379 228.666 12.6773C227.257 13.6032 225.403 14.9922 223.449 16.6667C219.591 20.0622 216.511 22.974 216.268 22.7253C216.091 22.534 218.789 19.3017 222.731 15.834L222.728 15.8204Z" fill="#3F654A"/>
<path d="M295.752 29.6562C297.98 28.7581 299.715 27.3355 300.982 26.3242C302.23 25.2884 303.017 24.6343 303.138 24.7519C303.239 24.845 302.658 25.6987 301.513 26.9114C300.361 28.0835 298.607 29.7061 296.16 30.7019C293.708 31.6705 291.298 31.6768 289.663 31.5509C288.008 31.4004 287.006 31.1407 287.021 30.9975C287.031 30.8272 288.052 30.8167 289.682 30.7614C291.293 30.6815 293.525 30.5543 295.755 29.6698L295.752 29.6562Z" fill="#3F654A"/>
<path d="M35.0906 51.9824C36.8347 53.1264 38.6668 53.8468 39.9185 54.5365C41.1948 55.2076 41.9047 55.7751 41.8305 55.9014C41.7588 56.0413 40.9409 55.7187 39.6058 55.2552C38.2927 54.7596 36.3837 54.152 34.4813 52.9116C33.5021 52.2546 32.7654 51.3974 32.2226 50.6018C31.6797 49.8062 31.2605 49.0714 30.8856 48.4967C30.1441 47.3176 29.5153 46.7347 29.6167 46.6033C29.6909 46.4769 30.5564 46.9028 31.5118 48.0275C32.5027 49.1173 33.4271 50.8934 35.1067 51.9934L35.0906 51.9824Z" fill="#3F654A"/>
<path d="M46.8005 59.2004C47.2639 59.5759 47.5939 60.0609 47.7003 60.4758C47.8177 60.8747 47.7446 61.1552 47.5983 61.1968C47.287 61.2557 46.8638 60.648 46.0946 60.0636C45.3202 59.452 44.6354 58.7955 44.8245 58.5352C44.9891 58.2936 45.8652 58.4789 46.803 59.2139L46.8005 59.2004Z" fill="#3F654A"/>
<path d="M71.0477 74.6176C73.3934 74.2725 75.4468 73.1968 77.0723 72.7493C78.6876 72.2475 79.7732 72.2809 79.7717 72.4216C79.8024 72.5842 78.8112 72.8276 77.3375 73.4851C75.8401 74.0908 73.8554 75.308 71.1849 75.7144C68.5795 76.0945 66.1577 75.4435 64.658 74.7024C63.1312 73.9664 62.3247 73.3329 62.3854 73.2092C62.4546 73.0558 63.4147 73.4638 64.9411 73.9753C66.4701 74.5003 68.6318 74.9619 71.0342 74.6202L71.0477 74.6176Z" fill="#3F654A"/>
<path d="M84.1748 71.0287C84.9597 70.8804 85.6554 71.0015 85.7118 71.2996C85.7681 71.5977 85.1781 71.9618 84.3797 72.1127C83.5812 72.2636 82.899 72.1399 82.8427 71.8418C82.7863 71.5437 83.3763 71.1796 84.1748 71.0287Z" fill="#3F654A"/>
<path d="M306.276 19.0494C307.344 17.9494 308.009 17.0939 308.289 17.1672C308.426 17.2255 308.439 17.588 308.242 18.1025C308.045 18.6169 307.614 19.2316 307.106 19.8048C306.038 20.9048 305.329 21.7544 305.047 21.6675C304.91 21.6092 304.911 21.2441 305.124 20.7407C305.337 20.2373 305.757 19.6387 306.279 19.0629L306.276 19.0494Z" fill="#3F654A"/>
<path d="M111.035 66.5143C112.56 63.8264 114.311 61.6709 115.545 60.1184C116.796 58.5769 117.6 57.639 117.729 57.727C117.857 57.8149 117.281 58.9202 116.178 60.5742C115.094 62.2528 113.464 64.4555 112.005 67.0468C110.512 69.6026 109.757 72.2854 108.947 74.0805C108.185 75.9086 107.639 77.0224 107.488 76.9666C107.337 76.9109 107.628 75.7051 108.207 73.7993C108.848 71.924 109.468 69.1964 111.033 66.5008L111.035 66.5143Z" fill="#3F654A"/>
<path d="M123.606 53.431C125.227 52.5913 126.678 52.3312 126.786 52.6055C126.899 52.9069 125.646 53.6208 124.128 54.413C122.591 55.1806 121.454 55.9147 121.234 55.7176C120.999 55.5095 121.982 54.2572 123.619 53.4285L123.606 53.431Z" fill="#3F654A"/>
<path d="M252.053 37.0983C253.693 38.3602 255.102 39.7358 256.269 41.0872C257.411 42.4573 258.334 43.7844 258.979 44.9679C260.291 47.3161 260.712 48.9488 260.593 48.9853C260.425 49.0592 259.749 47.559 258.312 45.3744C256.876 43.1898 254.555 40.4006 251.395 37.9945C248.224 35.6044 244.914 34.1108 242.424 33.3183C239.944 32.5098 238.315 32.2704 238.336 32.084C238.342 31.9705 240.015 31.921 242.645 32.5608C243.949 32.8616 245.478 33.3867 247.105 34.1318C248.721 34.8931 250.42 35.8771 252.071 37.1228L252.053 37.0983Z" fill="#3F654A"/>
<path d="M262.848 54.7628C263.088 55.6579 263.042 56.4526 262.735 56.5385C262.429 56.6244 262.007 55.9464 261.768 55.0513C261.528 54.1562 261.574 53.3616 261.88 53.2757C262.187 53.1897 262.609 53.8678 262.848 54.7628Z" fill="#3F654A"/>
<path d="M188.623 37.5352C189.717 39.5457 190.392 41.4814 190.825 42.887C191.246 44.2952 191.417 45.2031 191.274 45.2583C191.13 45.3136 190.695 44.4975 190.093 43.1658C189.478 41.8366 188.694 39.9917 187.658 38.0684C186.622 36.145 185.452 34.5556 184.469 33.5064C183.513 32.4521 182.8 31.871 182.899 31.726C182.976 31.6133 183.842 31.9688 185.005 32.928C186.181 33.8847 187.539 35.5086 188.62 37.5217L188.623 37.5352Z" fill="#3F654A"/>
<path d="M185.092 38.8907C186.227 40.7393 186.232 42.5487 185.943 42.5753C185.632 42.6342 185.159 41.0956 184.149 39.4619C183.167 37.8231 182.017 36.7072 182.206 36.4469C182.354 36.1943 183.969 37.0259 185.092 38.8907Z" fill="#3F654A"/>
<path d="M170.518 69.1515C170.077 72.0135 170.569 74.3907 170.26 74.4631C170.002 74.582 168.95 72.1284 169.42 68.98C169.863 65.8368 171.562 63.7754 171.782 63.9725C172.066 64.1433 170.912 66.2701 170.515 69.138L170.518 69.1515Z" fill="#3F654A"/>
<path d="M176.171 77.7695C177.721 77.5186 178.658 76.5416 178.915 76.7175C179.028 76.7945 178.951 77.202 178.524 77.6896C178.111 78.1746 177.325 78.6881 176.362 78.8561C175.387 79.0403 174.477 78.8194 173.926 78.5024C173.362 78.188 173.142 77.8367 173.232 77.7214C173.407 77.4637 174.628 78.0611 176.168 77.756L176.171 77.7695Z" fill="#3F654A"/>
<path d="M199.272 72.9679C200.748 73.3626 201.98 72.8351 202.153 73.083C202.23 73.1948 202.002 73.5466 201.438 73.8217C200.875 74.1104 199.966 74.2682 199.01 74.028C198.056 73.8013 197.319 73.2388 196.954 72.7183C196.576 72.2004 196.54 71.7862 196.667 71.7199C196.947 71.5688 197.774 72.6055 199.28 72.9383L199.272 72.9679Z" fill="#3F654A"/>
<path d="M187.536 76.5182C188.729 76.1525 189.877 76.3705 190.584 76.7C191.308 77.0405 191.609 77.4468 191.518 77.5621C191.372 77.8282 189.744 76.9992 187.85 77.5817C187.4 77.7229 186.911 77.9556 186.372 78.0715C185.852 78.2119 185.256 78.1702 184.869 77.9767C184.454 77.7883 184.201 77.4854 184.128 77.2466C184.052 76.9942 184.11 76.8569 184.178 76.8441C184.327 76.816 184.547 77.1673 185.119 77.2276C185.691 77.3582 186.354 76.9381 187.536 76.5182Z" fill="#3F654A"/>
<path d="M224.213 111.043C220.12 108.224 217.333 105.27 217.546 105.062C217.767 104.823 220.826 107.361 224.854 110.136C228.859 112.93 232.315 114.901 232.172 115.181C232.053 115.442 228.311 113.89 224.226 111.041L224.213 111.043Z" fill="#3F654A"/>
<path d="M214.976 97.3941C216.05 98.5525 216.404 99.8329 216.133 99.9543C215.85 100.092 215.117 99.1779 214.163 98.1372C213.209 97.0964 212.356 96.2893 212.529 96.018C212.678 95.7654 213.913 96.2197 214.989 97.3916L214.976 97.3941Z" fill="#3F654A"/>
<path d="M158.352 -2.27056C160.574 4.00369 161.754 9.28219 161.475 9.363C161.169 9.44892 159.515 4.33026 157.316 -1.89235C155.114 -8.12851 153.199 -13.1418 153.484 -13.2658C153.756 -13.3873 156.145 -8.53381 158.368 -2.25955L158.352 -2.27056Z" fill="#3F654A"/>
<path d="M164.889 15.1045C165.32 16.2721 165.276 17.3048 164.979 17.3611C164.681 17.4173 164.252 16.558 163.853 15.4827C163.467 14.4048 163.233 13.4666 163.5 13.318C163.766 13.1694 164.471 13.9344 164.889 15.1045Z" fill="#3F654A"/>
<path d="M107.802 16.4888C110.266 15.8827 112.59 15.5699 114.288 15.6559C115.984 15.7284 116.991 16.0855 116.96 16.2177C116.936 16.3905 115.913 16.3172 114.299 16.4539C112.68 16.5634 110.487 16.9777 108.063 17.5762C105.639 18.1746 103.381 18.6856 101.716 18.846C100.052 19.02 99.0054 18.895 98.9934 18.757C98.9897 18.5893 99.9963 18.4271 101.583 18.0711C103.172 17.7286 105.353 17.1059 107.804 16.5024L107.802 16.4888Z" fill="#3F654A"/>
<path d="M122.265 16.2549C123.651 16.5404 124.589 17.2754 124.456 17.539C124.326 17.8161 123.275 17.5938 122.035 17.3369C120.792 17.0665 119.757 16.8551 119.742 16.5493C119.726 16.2436 120.877 15.9559 122.265 16.2549Z" fill="#3F654A"/>
<path d="M168.896 104.347C169.51 103.291 170.225 102.552 170.491 102.699C170.757 102.845 170.468 103.84 169.855 104.896C169.242 105.952 168.526 106.691 168.26 106.545C167.994 106.398 168.27 105.406 168.883 104.35L168.896 104.347Z" fill="#3F654A"/>
<path d="M255.84 105.587C259.404 102.57 261.234 99.1222 261.532 99.2904C261.799 99.3663 260.341 103.221 256.574 106.431C252.842 109.676 248.8 110.538 248.776 110.262C248.66 109.947 252.328 108.664 255.853 105.584L255.84 105.587Z" fill="#3F654A"/>
<path d="M209.9 41.0219C214.706 38.64 219.09 38.1764 219.114 38.4525C219.176 38.7777 215.036 39.7145 210.384 42.0251C205.725 44.295 202.455 47.0181 202.239 46.7642C202.035 46.5781 205.075 43.3792 209.9 41.0219Z" fill="#3F654A"/>
<path d="M163.118 56.7821C164.363 57.5854 165.32 58.3449 165.176 58.6246C165.047 58.9018 163.805 58.5611 162.509 57.7113C161.215 56.8751 160.396 55.879 160.577 55.6484C160.769 55.4017 161.857 55.9679 163.102 56.7711L163.118 56.7821Z" fill="#3F654A"/>
<path d="M156.21 54.047C157.476 54.6639 158.087 55.6712 157.858 55.8688C157.632 56.08 156.789 55.5516 155.724 55.037C154.673 54.5199 153.726 54.1796 153.764 53.8636C153.778 53.5663 154.955 53.4141 156.221 54.0309L156.21 54.047Z" fill="#3F654A"/>
<path d="M282.742 70.3706C283.743 71.2199 284.402 72.106 284.194 72.3418C284 72.5749 283.021 72.0721 282.02 71.2228C281.018 70.3736 280.36 69.4874 280.568 69.2517C280.762 69.0185 281.74 69.5214 282.742 70.3706Z" fill="#3F654A"/>
<path d="M280.795 73.1238C281.785 73.7647 282.455 74.4941 282.28 74.7519C282.104 75.0096 281.175 74.6939 280.185 74.053C279.195 73.4121 278.525 72.6827 278.7 72.425C278.862 72.1698 279.804 72.483 280.795 73.1238Z" fill="#3F654A"/>
<path d="M288.979 77.7932C290.025 79.027 290.694 80.1918 290.451 80.392C290.209 80.5922 289.18 79.748 288.134 78.5142C287.088 77.2804 286.419 76.1156 286.662 75.9154C286.891 75.7178 287.933 76.5594 288.979 77.7932Z" fill="#3F654A"/>
</svg>
