<svg width="153" height="95" viewBox="0 0 153 95" fill="none" xmlns="http://www.w3.org/2000/svg">
<g clip-path="url(#clip0_291_18106)">
<mask id="mask0_291_18106" style="mask-type:luminance" maskUnits="userSpaceOnUse" x="-42" y="-71" width="232" height="272">
<path d="M-41.1055 200.768H189.077V-70.8057H-41.1055V200.768Z" fill="white"/>
</mask>
<g mask="url(#mask0_291_18106)">
<path fill-rule="evenodd" clip-rule="evenodd" d="M81.1388 4.45085H90.0229V1.08496H81.1388V4.45085ZM78.5684 7.06448H92.5954V11.119H82.8819V16.3508H91.4844V20.4053H82.8841V25.8962H92.7218V29.9507H78.5684V7.06448ZM8.14062 7.0872H11.4007L18.8389 18.8258L26.2793 7.0872H29.5393V29.9144H25.2347V16.3803L18.8721 26.1962H18.8078L12.4474 16.3803V29.9144H8.14062V7.0872ZM35.2255 21.3053V7.0872H39.5301V21.4689C39.5301 24.6303 41.4617 26.1644 43.9943 26.1644C46.527 26.1644 48.4564 24.6303 48.4564 21.4689V7.0872H52.7609V21.3053C52.7609 27.6007 48.9642 30.2371 43.9943 30.2371C39.0245 30.2371 35.2255 27.6007 35.2255 21.3053ZM57.4603 26.4235L59.9907 23.0326C61.3213 24.4667 63.6011 26.1962 65.912 26.1962C67.8414 26.1962 69.172 25.0871 69.172 23.5871C69.172 22.0871 67.4311 21.3371 65.1823 20.5871L64.0114 20.1962C61.8269 19.478 58.2187 18.0121 58.2187 13.6099C58.2187 9.46901 61.1949 6.76221 65.6259 6.76221C68.2507 6.73161 70.7917 7.70852 72.7492 9.50082L70.2165 12.8917C69.1409 11.8463 67.5553 10.8054 65.6259 10.8054C63.5701 10.8054 62.2705 11.9463 62.2705 13.4463C62.2705 15.044 63.916 15.6962 65.7833 16.3167L66.9565 16.7076C70.0901 17.7508 73.3502 19.2826 73.3502 23.4894C73.3502 27.6621 70.2786 30.2393 65.943 30.2393C62.1441 30.2393 59.1058 28.2166 57.4603 26.4235ZM98.3748 21.3053V7.0872H102.679V21.4689C102.679 24.6303 104.611 26.1644 107.144 26.1644C109.676 26.1644 111.608 24.6303 111.608 21.4689V7.0872H115.91V21.3053C115.91 27.6007 112.113 30.2371 107.144 30.2371C102.174 30.2371 98.3748 27.6007 98.3748 21.3053ZM121.902 7.0872H125.162L132.601 18.8258L140.041 7.0872H143.301V29.9144H138.994V16.3803L132.634 26.1962H132.567L126.207 16.3803V29.9144H121.902V7.0872ZM8.22268 67.9891H10.3916L21.8949 84.6663V67.9891H24.2079V88.8322H22.039L10.5335 72.1573V88.8322H8.22268V67.9891ZM40.5103 81.1209L36.5783 71.355H36.5207L32.5887 81.1209H40.5103ZM41.3752 83.3254H31.6927L29.4661 88.8345H26.9512L35.5382 67.9914H37.5608L46.1455 88.8322H43.6018L41.3752 83.3254ZM50.4279 70.2232H43.8391V67.9914H59.332V70.2232H52.741V88.8367H50.4279V70.2232ZM61.8314 81.2413V67.9914H64.1444V81.3004C64.1444 84.9322 66.167 86.9299 69.376 86.9299C72.6139 86.9299 74.6364 84.9322 74.6364 81.3004V67.9914H76.9495V81.2413C76.9495 86.9299 73.481 89.1322 69.376 89.1322C65.2999 89.1322 61.8314 86.9277 61.8314 81.2413ZM83.8554 78.205H88.4505C91.8614 78.205 92.9015 76.3005 92.9015 74.2141C92.9015 72.1277 91.8592 70.1937 88.4505 70.1937H83.8554V78.205ZM94.3186 88.8345L88.0159 80.4072H83.8554V88.8345H81.5424V67.9914H88.4794C92.7285 67.9914 95.2434 70.4005 95.2434 74.155C95.2434 76.9846 93.7974 79.3641 90.7636 80.1391L97.2948 88.8345H94.3186ZM99.4526 67.9891H111.765V70.1937H101.763V77.1618H110.754V79.3663H101.766V86.63H111.794V88.8345H99.4526V67.9891ZM122.721 67.9891H124.916V79.5732H131.161V81.6868H122.721V67.9891ZM115.928 67.9891H118.241V86.63H131.161V88.8345H115.928V67.9891ZM134.708 67.9891H147.02V70.1937H137.018V77.1618H146.009V79.3663H137.018V86.63H147.049V88.8345H134.708V67.9891ZM27.397 38.9825H29.5482L40.9738 55.5415V38.9825H43.2714V59.6824H41.118L29.6945 43.1211V59.6824H27.397V38.9825ZM70.4095 49.4211V51.4029H62.2572V38.9825H64.3241V49.4211H70.4095ZM51.0821 46.612H55.1871L53.149 41.9688H53.1202L51.0821 46.612ZM51.2019 59.621H65.3243V57.5528H51.2019V59.621ZM50.2217 48.5938L48.9864 51.4029H46.7776L52.344 38.9825H53.9252L59.4917 51.4029H57.3117L56.0764 48.5938H50.2217ZM78.7458 38.9825H81.0434V48.0892H91.9501V38.9825H94.2454V59.6824H91.9501V50.3074H81.0434V59.6824H78.7458V38.9825ZM120.521 40.9643H116.476V38.9825H126.608V40.9643H122.59V51.4006H120.523V40.9666L120.521 40.9643ZM105.587 49.7756L106.762 48.0597C107.538 48.7711 108.918 49.5983 110.295 49.5983C111.586 49.5983 112.504 49.0074 112.504 48.0006C112.504 46.7893 111.3 46.4938 110.237 46.1688L109.233 45.8734C107.827 45.4574 105.962 44.9256 105.962 42.4711C105.962 40.2234 107.567 38.8052 110.064 38.8052C111.816 38.8052 113.28 39.4552 114.083 40.0166L113.08 41.8506C112.333 41.3484 111.155 40.787 109.92 40.787C108.716 40.787 107.884 41.3188 107.884 42.3529C107.884 43.4165 108.687 43.5961 109.98 43.9802L110.898 44.2461C112.304 44.6597 114.458 45.2234 114.458 47.8529C114.458 50.2188 112.734 51.5801 110.208 51.5801C108.507 51.564 106.867 50.9238 105.587 49.7756ZM103.416 59.621H117.54V57.5528H103.416V59.621ZM99.8385 51.4006H101.905V38.9825H99.8385V51.4006Z" fill="#E1E6F0"/>
</g>
</g>
<defs>
<clipPath id="clip0_291_18106">
<rect width="153" height="95" fill="white"/>
</clipPath>
</defs>
</svg>
