<svg width="126" height="104" viewBox="0 0 126 104" fill="none" xmlns="http://www.w3.org/2000/svg">
<path d="M61.9185 30.7239C61.9185 30.7239 62.7725 23.3577 64.1585 19.0826C65.5446 14.8141 67.4955 8.77638 69.3873 -0.457764C70.2807 -4.83807 70.6683 -9.00132 69.3873 -15.7296C68.1064 -22.4579 63.5213 -25.8714 61.1762 -29.2915C58.8312 -32.7115 57.9772 -36.6577 56.6963 -36.98C55.4154 -37.3023 54.2329 -33.6718 51.3623 -30.2517C48.4983 -26.8316 43.4731 -23.6286 41.7652 -14.0196C40.0573 -4.41056 42.8294 6.27053 44.0052 12.4661C45.1811 18.6617 46.1926 26.0477 45.8182 30.1057C45.7131 31.2632 44.6424 32.1051 38.7764 26.7711C32.9104 21.4372 29.4946 18.1289 20.4295 17.7014C11.3645 17.2739 0.381296 22.1869 -3.3564 23.3642C-7.08752 24.5415 -8.90051 25.2847 -13.2754 25.1795C-17.6503 25.0743 -20.2055 23.3642 -20.8493 24.0022C-21.493 24.6402 -19.9954 28.6456 -17.8605 30.9673C-15.7256 33.289 -13.2754 34.4202 -11.4624 37.9126C-9.64938 41.405 -7.51449 45.2526 -3.25129 45.8905C1.01191 46.5285 6.91733 43.7596 10.5039 43.8648C14.0971 43.9701 17.8611 43.9503 21.809 45.9892C21.809 45.9892 10.8258 48.4556 2.18118 61.2676C-6.45689 74.0797 -7.63272 79.5583 -9.22895 84.991C-10.8318 90.4236 -12.3229 92.3441 -15.7322 95.6523C-19.148 98.9606 -19.3582 99.6051 -18.3991 100.776C-17.4401 101.953 -7.62615 100.671 2.07608 94.0475C11.7849 87.4245 12.422 84.011 16.2583 81.0185C20.1011 78.0259 22.2622 77.0657 24.5942 75.0399C26.9261 73.0142 32.6805 75.2504 38.8684 70.0217C45.0562 64.7863 50.469 62.1161 52.0784 62.1161H52.3674C53.9768 62.1161 59.3961 64.7863 65.5774 70.0217C71.7653 75.257 77.5196 73.0142 79.8516 75.0399C82.1835 77.0657 84.3447 78.0325 88.1875 81.0185C92.0303 84.0044 92.6675 87.4245 102.37 94.0475C112.078 100.671 121.886 101.953 122.845 100.776C123.804 99.5986 123.594 98.9606 120.178 95.6523C116.762 92.3441 115.271 90.417 113.675 84.991C112.072 79.5583 110.903 74.0863 102.265 61.2676C93.6265 48.449 82.6434 45.9892 82.6434 45.9892C86.5913 43.9503 90.3552 43.9635 93.9484 43.8648C97.5416 43.7596 103.44 46.5351 107.704 45.8905C111.967 45.2526 114.102 41.405 115.915 37.9126C117.728 34.4202 120.178 33.289 122.313 30.9673C124.448 28.6456 125.939 24.6402 125.302 24.0022C124.664 23.3642 122.103 25.0677 117.728 25.1795C113.353 25.2847 111.487 24.6928 107.809 23.3642C100.399 20.694 91.4456 18.1289 83.5498 20.5887C75.6606 23.042 69.4727 28.4877 66.2737 30.1978C63.0747 31.9078 61.5244 33.4994 61.8988 30.7305L61.9185 30.7239Z" fill="#F9F8F4" stroke="#E1E6F0" stroke-width="1.12" stroke-miterlimit="10"/>
<path d="M52.3223 64.5762C54.2404 64.5762 54.3455 67.3517 60.8553 73.0145C67.3585 78.6773 74.6105 79.0259 81.3305 76.9673C86.5593 75.3625 90.7174 70.5613 92.4253 61.0575C94.1332 51.5537 91.5714 43.0101 85.9418 38.8468C81.1794 35.3216 74.6105 34.7888 67.7854 37.0316C60.9604 39.2744 57.0125 44.0822 52.3223 44.0822C47.6321 44.0822 43.6843 39.2744 36.8592 37.0316C30.0341 34.7888 23.5244 35.1308 18.7028 38.8468C12.6135 43.5363 9.54579 51.7839 12.2193 61.0575C14.5447 69.1077 18.0591 74.6193 23.3142 76.9673C29.732 79.8415 37.2862 78.6773 43.7893 73.0145C50.2925 67.3517 50.4042 64.5762 52.3223 64.5762Z" fill="#F9F8F4" stroke="#E1E6F0" stroke-width="1.12" stroke-miterlimit="10"/>
<path d="M53.6037 29.4414C56.8816 29.8952 58.6158 35.6106 60.1069 42.2403C61.598 48.8699 63.6278 54.2104 61.9199 55.5982C61.9199 55.5982 61.7097 59.1235 64.0548 62.4317C66.3999 65.74 66.932 66.595 68.6399 70.9753C70.3478 75.3556 76.5291 78.1311 79.7347 79.0913C82.9337 80.0516 83.3607 81.4393 82.5068 84.0044C81.6528 86.5694 80.1617 89.8777 77.3896 91.7982C74.6176 93.7187 74.0855 96.606 69.0734 99.4867C64.0614 102.367 60.3302 106.32 56.9144 107.392C53.4986 108.458 49.6624 110.063 43.6913 106.965C37.7202 103.867 34.6262 100.664 29.7193 98.099C24.8123 95.5339 21.1863 89.6606 19.3733 87.1022C17.5603 84.5371 17.4552 82.1891 20.2273 80.2686C22.9993 78.3481 25.8831 76.8486 29.5091 75.3556C33.1351 73.8626 34.3109 70.436 37.1881 67.8249C40.0653 65.2138 40.8141 62.4383 41.99 60.3008C43.1658 58.1632 43.803 55.0655 43.803 55.0655C43.803 55.0655 41.7798 54.638 43.2709 50.1524C44.762 45.6669 49.7741 28.902 53.6169 29.4348L53.6037 29.4414Z" fill="#F9F8F4" stroke="#E1E6F0" stroke-width="1.12" stroke-miterlimit="10"/>
<path d="M43.7871 55.0718C43.7871 55.0718 45.7052 56.2491 48.7992 55.0718C48.7992 55.0718 49.7582 56.6766 50.9341 56.3543C52.1099 56.032 52.5368 55.9071 53.9229 56.3938C55.3089 56.887 55.9461 56.2425 56.5898 55.0718C56.5898 55.0718 59.7889 57.3145 61.9238 55.6045" stroke="#E1E6F0" stroke-width="1.12" stroke-miterlimit="10" stroke-linecap="round"/>
<path d="M47.9468 -5.44044C48.0125 -2.32293 48.1767 0.498613 48.3147 2.53749C48.4526 4.57637 48.5511 5.83916 48.4723 5.85232C48.4066 5.85889 48.1767 4.60926 47.9402 2.57038C47.7038 0.5315 47.4804 -2.29662 47.4147 -5.43386C47.3491 -8.56453 47.4607 -11.4058 47.6118 -13.4513C47.7629 -15.4967 47.9402 -16.7529 48.0125 -16.7529C48.0913 -16.7529 48.0454 -15.477 47.9862 -13.4381C47.9271 -11.3927 47.8811 -8.57111 47.9468 -5.4536V-5.44044Z" fill="#E1E6F0"/>
<path d="M62.6147 -1.52806C62.3979 1.93146 61.9053 5.03581 61.4323 7.25227C61.1958 8.36379 60.9791 9.25169 60.8017 9.86335C60.6244 10.475 60.5127 10.8039 60.4798 10.7973C60.401 10.7776 60.69 9.40953 61.071 7.1865C61.452 4.96346 61.879 1.87226 62.0958 -1.56095C62.306 -4.99416 62.2666 -8.11167 62.168 -10.3676C62.0695 -12.6235 61.9513 -14.0178 62.0366 -14.0244C62.0761 -14.0244 62.1417 -13.6824 62.2403 -13.0576C62.3388 -12.4328 62.4439 -11.5186 62.5425 -10.3873C62.7395 -8.1314 62.8381 -4.98758 62.6279 -1.52806H62.6147Z" fill="#E1E6F0"/>
<path d="M54.7053 17.1528C54.633 19.9217 54.5016 22.421 54.3637 24.2362C54.2257 26.0449 54.0944 27.163 54.0221 27.1564C53.9499 27.1564 53.9498 26.0318 53.9893 24.2165C54.0352 22.4078 54.1009 19.902 54.1732 17.1396C54.2455 14.3773 54.3046 11.878 54.3506 10.0627C54.4031 8.25407 54.4557 7.12939 54.5345 7.12939C54.6067 7.12939 54.6856 8.24749 54.725 10.0627C54.771 11.878 54.771 14.3839 54.7053 17.1528Z" fill="#E1E6F0"/>
<path d="M50.4977 21.4395C50.7342 24.2281 50.7998 26.4906 50.6553 26.5038C50.5108 26.5169 50.202 24.2676 49.9721 21.4789C49.7356 18.6903 49.67 16.4278 49.8145 16.4146C49.959 16.4015 50.2678 18.6508 50.4977 21.4329V21.4395Z" fill="#E1E6F0"/>
<path d="M58.7149 23.2157C58.2222 25.4322 57.6113 27.1817 57.4734 27.1422C57.3289 27.1028 57.7098 25.3072 58.1959 23.1039C58.6886 20.9006 59.1024 19.1117 59.2535 19.138C59.398 19.1643 59.2075 20.9993 58.7149 23.2157Z" fill="#E1E6F0"/>
<path d="M15.3985 31.5349C18.1377 31.3573 20.7521 31.1994 23.1366 31.2192C25.5211 31.2323 27.6757 31.4033 29.4559 31.7256C31.2361 32.0413 32.6484 32.4491 33.5943 32.8174C34.0738 32.9818 34.422 33.1594 34.665 33.2646C34.9081 33.3764 35.0263 33.4422 35.0198 33.4619C35.0001 33.5014 34.4811 33.3107 33.522 33.0147C32.5695 32.7122 31.1573 32.3636 29.3902 32.1005C27.6232 31.8308 25.4949 31.6993 23.1301 31.7124C20.7653 31.7256 18.1574 31.89 15.4248 32.0676C12.6856 32.2452 10.0646 32.3701 7.68007 32.3044C5.29557 32.2452 3.14098 32.0084 1.37395 31.6204C-0.39308 31.2389 -1.78568 30.7654 -2.71189 30.3576C-3.18485 30.1734 -3.52644 29.9761 -3.76292 29.8577C-3.9994 29.7328 -4.11764 29.6604 -4.11107 29.6473C-4.07166 29.5354 -2.08127 30.6075 1.44622 31.2521C3.20011 31.5875 5.32185 31.7782 7.68665 31.8111C10.0514 31.844 12.6527 31.7124 15.3919 31.5349H15.3985Z" fill="#E1E6F0"/>
<path d="M96.3585 33.8256C100.976 33.352 105.01 32.0432 108.058 31.596C109.575 31.3526 110.823 31.2934 111.684 31.3197C112.111 31.3329 112.446 31.3592 112.669 31.3921C112.892 31.4184 113.011 31.4447 113.011 31.4644C113.011 31.5105 112.538 31.4907 111.684 31.5302C110.836 31.5696 109.608 31.6815 108.117 31.9643C105.135 32.497 101.088 33.8716 96.4111 34.3517C91.7538 34.891 87.484 34.6543 84.4492 34.2465C82.9318 34.0492 81.7166 33.7993 80.8757 33.6151C80.0415 33.4112 79.5882 33.2862 79.5948 33.2468C79.6014 33.2073 80.0743 33.2731 80.9151 33.4112C81.7625 33.5296 82.9777 33.7269 84.4952 33.8716C87.5168 34.1873 91.7407 34.3583 96.352 33.8256H96.3585Z" fill="#E1E6F0"/>
<path d="M-1.42604 86.25C1.38544 83.3693 3.78966 80.6267 5.47786 78.6009C6.31868 77.5881 7.00184 76.7659 7.4748 76.1937C7.94776 75.6281 8.22365 75.319 8.24993 75.3453C8.2762 75.3716 8.05943 75.7136 7.63903 76.3253C7.21862 76.9369 6.58143 77.7985 5.76689 78.8443C4.14438 80.9358 1.77301 83.731 -1.05161 86.6249C-3.88279 89.5122 -6.62857 91.9457 -8.67806 93.6097C-9.70281 94.445 -10.5502 95.1027 -11.1545 95.5368C-11.7523 95.9709 -12.0939 96.2011 -12.1202 96.1682C-12.1399 96.1419 -11.8443 95.8591 -11.2859 95.3724C-10.7276 94.8857 -9.91958 94.1885 -8.92768 93.3203C-6.94388 91.584 -4.25065 89.1242 -1.43917 86.25H-1.42604Z" fill="#E1E6F0"/>
<path d="M11.592 71.3335C12.3212 70.4325 13.0109 69.7813 13.1226 69.8734C13.2342 69.9655 12.735 70.7679 11.9993 71.6689C11.2702 72.57 10.5804 73.2211 10.4687 73.129C10.3571 73.037 10.8563 72.2346 11.5855 71.3335H11.592Z" fill="#E1E6F0"/>
<path d="M3.49571 71.1757C5.22333 69.1171 7.00348 67.4268 8.38951 66.3416C9.77555 65.2498 10.7346 64.717 10.7674 64.7697C10.8134 64.842 9.93978 65.48 8.626 66.631C7.31223 67.7754 5.60431 69.4788 3.8964 71.5243C2.18193 73.5632 0.743347 75.51 -0.307674 76.9109C-1.35869 78.3118 -2.03529 79.1668 -2.09441 79.1207C-2.15353 79.0813 -1.58861 78.1473 -0.616412 76.6872C0.362351 75.2337 1.76152 73.2409 3.48914 71.1757H3.49571Z" fill="#E1E6F0"/>
<path d="M9.45186 81.1202C11.0153 79.6535 12.3159 78.2198 13.2027 77.128C14.0895 76.0428 14.5887 75.3259 14.661 75.3653C14.7135 75.3982 14.326 76.194 13.5049 77.3516C12.6838 78.5157 11.3963 80.0153 9.81973 81.5017C8.23663 82.9881 6.70607 84.1983 5.57622 85.0533C4.44638 85.9017 3.71724 86.3884 3.67125 86.3358C3.62527 86.2766 4.26903 85.6847 5.33975 84.7639C6.40391 83.8365 7.89504 82.5869 9.45843 81.1202H9.45186Z" fill="#E1E6F0"/>
<path d="M44.0384 36.2979C45.674 36.4294 46.8433 37.1134 46.7776 37.2318C46.7185 37.3765 45.5229 36.9424 43.9924 36.8241C42.4619 36.6859 41.2137 36.9161 41.1809 36.7649C41.1349 36.6333 42.4027 36.1532 44.0384 36.2979Z" fill="#E1E6F0"/>
<path d="M63.1674 35.4368C65.138 35.6999 66.4387 36.7391 66.3467 36.8377C66.2679 36.9759 64.9278 36.1998 63.0951 35.963C61.2624 35.6933 59.7647 36.0748 59.7253 35.9235C59.6662 35.8051 61.1967 35.1606 63.1674 35.4368Z" fill="#E1E6F0"/>
<path d="M102.396 81.4882C103.309 82.9022 104.189 84.2374 105.03 85.4147C105.884 86.5854 106.692 87.6114 107.441 88.4072C108.925 90.0186 110.042 90.8078 109.983 90.8933C109.963 90.9262 109.674 90.7421 109.162 90.3869C108.905 90.2159 108.597 89.9857 108.275 89.6897C107.946 89.4003 107.552 89.0781 107.171 88.6703C106.37 87.8942 105.523 86.8748 104.636 85.704C103.762 84.5268 102.862 83.1916 101.949 81.7776C101.036 80.3635 100.162 79.0284 99.3281 77.8379C98.4807 76.6606 97.6858 75.628 96.9501 74.8191C95.4918 73.188 94.3883 72.3724 94.454 72.2935C94.4737 72.2672 94.7627 72.4513 95.2619 72.8197C95.5181 72.9972 95.8203 73.234 96.1422 73.5365C96.4706 73.8325 96.8581 74.1614 97.226 74.5691C98.0143 75.3584 98.8485 76.3844 99.7287 77.5551C100.589 78.739 101.483 80.0807 102.396 81.4882Z" fill="#E1E6F0"/>
<path d="M103.1 70.7216C104.493 72.5829 105.603 74.3784 106.325 75.7136C107.054 77.0487 107.422 77.9169 107.363 77.9498C107.291 77.9892 106.811 77.1803 106.003 75.9043C105.195 74.6284 104.053 72.8855 102.673 71.0373C101.294 69.1958 99.9469 67.6041 98.9485 66.4729C97.95 65.3416 97.3128 64.6444 97.372 64.5918C97.4179 64.5458 98.1471 65.1443 99.2244 66.2164C100.302 67.2884 101.707 68.8603 103.1 70.7216Z" fill="#E1E6F0"/>
<path d="M92.8183 79.0738C94.316 80.5997 95.321 82.0269 95.2093 82.119C95.0911 82.211 93.9219 80.9548 92.4373 79.4487C90.9593 77.936 89.7244 76.739 89.8229 76.6206C89.9149 76.5088 91.3206 77.5414 92.8117 79.0738H92.8183Z" fill="#E1E6F0"/>
<path d="M107.631 92.2627C110.968 94.3542 113.878 95.7025 113.812 95.8472C113.786 95.913 113.018 95.6499 111.829 95.1171C110.64 94.5844 109.037 93.7623 107.349 92.7099C105.66 91.6576 104.215 90.579 103.21 89.7503C102.205 88.9216 101.64 88.3428 101.68 88.2902C101.778 88.1652 104.274 90.1844 107.624 92.2627H107.631Z" fill="#E1E6F0"/>
<path d="M110.515 84.7374C110.949 85.5727 111.139 86.3224 111.001 86.3816C110.863 86.4408 110.463 85.7963 110.042 84.9807C109.622 84.1586 109.339 83.4614 109.464 83.3825C109.589 83.3102 110.082 83.8955 110.515 84.7374Z" fill="#E1E6F0"/>
<path d="M53.0577 52.8781C53.3664 52.786 53.6423 52.615 53.8394 52.3848C54.0496 52.1612 54.2007 51.806 54.5685 51.5429C54.9627 51.2733 55.4094 51.3325 55.7312 51.3719C56.0663 51.418 56.3881 51.464 56.7034 51.5166C57.9712 51.7271 59.1274 52.1151 59.9222 52.7465C60.717 53.3648 61.1243 54.1145 61.2556 54.6539C61.4002 55.1998 61.3214 55.5089 61.2951 55.5089C61.2491 55.5089 61.2491 55.2063 61.0586 54.7196C60.8747 54.2395 60.4543 53.5818 59.6923 53.0491C58.9434 52.5097 57.8595 52.1743 56.6246 51.9967C56.3093 51.9573 55.994 51.9112 55.6656 51.8718C55.3437 51.8323 55.0481 51.8257 54.8576 51.9639C54.6474 52.1086 54.4963 52.4177 54.2336 52.7268C53.9642 53.0359 53.6029 53.2595 53.2088 53.3779C52.4271 53.6213 51.5337 53.4503 50.9557 52.9044C50.6798 52.6347 50.5221 52.49 50.2265 52.4374C49.9506 52.3782 49.6091 52.3848 49.2938 52.365C48.0325 52.3059 46.9027 52.3322 46.0027 52.5755C45.1028 52.8123 44.4459 53.2201 44.0518 53.5621C43.6577 53.9041 43.4869 54.154 43.454 54.1343C43.4277 54.1211 43.5328 53.8252 43.9073 53.4174C44.2751 53.0096 44.9517 52.5163 45.8977 52.2204C46.8436 51.9112 48.0325 51.8455 49.3069 51.8784C49.6222 51.8915 49.9441 51.8784 50.3251 51.9375C50.509 51.9704 50.706 52.0428 50.8834 52.1612C51.0542 52.2795 51.179 52.4111 51.3038 52.5163C51.7439 52.9241 52.4402 53.0556 53.0577 52.8649V52.8781Z" fill="#E1E6F0"/>
<path d="M47.6298 54.6611C48.2867 54.5295 48.8911 54.3125 49.3049 53.9639C49.5086 53.7929 49.6596 53.589 49.745 53.3786C49.8304 53.1812 49.8173 52.9642 49.7713 52.7735C49.6662 52.3854 49.4034 52.1421 49.2064 52.0566C48.9962 51.9777 48.8517 52.004 48.8385 51.9579C48.8254 51.9316 48.9633 51.8198 49.2589 51.8527C49.548 51.8921 49.9421 52.1552 50.1326 52.6485C50.218 52.8919 50.2705 53.2075 50.1589 53.5167C50.0669 53.8126 49.8764 54.0955 49.6268 54.3256C49.1276 54.786 48.4378 55.036 47.7284 55.1741C47.0124 55.3188 46.3095 55.3188 45.6855 55.2201C45.0746 55.1346 44.4702 54.9307 44.1221 54.523C43.7608 54.1086 43.7673 53.6285 43.879 53.3654C43.9907 53.0892 44.1615 53.03 44.1746 53.0497C44.2074 53.076 44.1089 53.1878 44.0761 53.418C44.0432 53.6351 44.1089 54.0034 44.3914 54.2599C44.6804 54.5361 45.1731 54.6742 45.7511 54.7334C46.3292 54.7992 46.9729 54.7795 47.6232 54.6545L47.6298 54.6611Z" fill="#E1E6F0"/>
<path d="M57.7094 54.4827C58.1824 54.7327 58.6685 54.9103 59.1217 55.0221C59.5881 55.1339 59.9823 55.1996 60.3107 55.1339C60.6392 55.0813 60.869 54.9431 60.9741 54.8116C61.0727 54.6735 61.0793 54.5485 61.1253 54.5485C61.1515 54.5485 61.2304 54.6669 61.1581 54.9037C61.0793 55.1404 60.7902 55.3904 60.3961 55.5022C60.199 55.5614 59.9822 55.5943 59.7392 55.5877C59.5093 55.5745 59.2728 55.5482 59.0232 55.5022C58.524 55.4101 57.9853 55.2325 57.4664 54.9563C56.954 54.6801 56.4745 54.3512 56.1526 53.8974C55.995 53.6738 55.8899 53.4107 55.857 53.1608C55.8176 52.8977 55.8964 52.6412 56.0015 52.457C56.2183 52.0756 56.573 51.9111 56.8095 51.9111C57.0591 51.9111 57.1511 52.0229 57.1379 52.0492C57.1248 52.0887 57.0066 52.0624 56.8358 52.115C56.6715 52.1676 56.4482 52.3321 56.3299 52.6215C56.1986 52.9043 56.2708 53.266 56.5402 53.608C56.8029 53.9434 57.2299 54.2328 57.7029 54.4893L57.7094 54.4827Z" fill="#E1E6F0"/>
<path d="M51.7773 84.6979C52.224 84.7308 52.5919 84.4743 52.7824 84.0665C52.9795 83.6719 52.9729 83.1721 52.94 82.6722C52.9072 82.1723 52.8284 81.6725 52.7758 81.1529C52.7495 80.8964 52.7364 80.607 52.7955 80.3242C52.8481 80.0348 52.9663 79.7915 53.0451 79.5744C53.2356 79.114 53.1962 78.7918 53.0189 78.2985C52.94 78.0486 52.8875 77.7657 52.9204 77.4698C52.9532 77.1541 53.1568 76.8976 53.2685 76.72C53.7874 76.0163 53.5115 75.0429 53.5575 74.1155C53.5575 73.6551 53.5707 73.2013 53.5641 72.7672C53.5641 72.5502 53.551 72.3331 53.5313 72.1227C53.5115 71.9253 53.4721 71.682 53.4787 71.4452C53.4853 70.9717 53.6298 70.5376 53.6101 70.189C53.6101 69.8667 53.321 69.4918 53.2751 69.0117C53.2159 68.4987 53.4852 68.0975 53.5903 67.7687C53.7086 67.4464 53.6823 67.0847 53.6429 66.7098C53.6232 66.519 53.6035 66.3283 53.6101 66.1244C53.6101 65.9403 53.6166 65.7561 53.6232 65.5719C53.6363 65.2036 53.6364 64.8419 53.7349 64.4736C53.8268 64.0987 54.0699 63.8093 54.0436 63.5725C54.0305 63.3094 53.8794 63.0069 53.7611 62.7307C53.6035 62.4478 53.5575 62.0532 53.6035 61.7638C53.6495 61.4547 53.6757 61.2114 53.6757 60.9285C53.6298 59.817 53.8531 58.8699 53.8006 58.1136C53.7546 57.3638 53.5312 56.7784 53.2225 56.5351C52.9203 56.2852 52.6904 56.2391 52.7036 56.2128C52.7036 56.2062 52.7627 56.2128 52.8612 56.2391C52.9597 56.272 53.1108 56.3246 53.2882 56.4496C53.6495 56.6929 53.9254 57.3112 54.0042 58.0939C54.0962 58.8897 53.8925 59.8302 53.9714 60.922C53.9845 61.1916 53.9516 61.5205 53.9188 61.7901C53.8859 62.0795 53.9188 62.3097 54.0633 62.586C54.1881 62.8754 54.3589 63.1516 54.3983 63.5528C54.4181 63.7567 54.3392 63.9606 54.267 64.1184C54.1947 64.2763 54.1356 64.4144 54.0962 64.5722C54.0173 64.8682 54.0173 65.2233 54.0108 65.5851C54.0108 65.7627 54.0108 65.9468 54.0108 66.131C54.0108 66.302 54.0305 66.4796 54.0502 66.6703C54.0962 67.0452 54.1356 67.4793 53.991 67.9068C53.8531 68.3146 53.656 68.6368 53.7086 68.9657C53.7349 69.1301 53.794 69.3143 53.8728 69.4918C53.9516 69.6694 54.0568 69.9128 54.0633 70.1627C54.083 70.656 53.9385 71.0572 53.9451 71.4518C53.9451 71.6425 53.9779 71.8398 54.0042 72.0766C54.0305 72.3002 54.037 72.5304 54.0436 72.7606C54.0567 73.2144 54.0436 73.6682 54.0436 74.1221C54.037 74.5825 54.0764 75.0165 54.083 75.5098C54.083 75.7532 54.0699 76.0097 54.0108 76.2728C53.9516 76.5358 53.8268 76.7858 53.6889 77.0028C53.5444 77.2264 53.4327 77.3711 53.4196 77.5421C53.3998 77.7329 53.4261 77.9367 53.4984 78.1538C53.5706 78.3708 53.6692 78.6339 53.6823 78.9299C53.702 79.2324 53.6101 79.5152 53.5247 79.752C53.4327 80.0019 53.3342 80.219 53.3013 80.4229C53.2619 80.6333 53.2685 80.8569 53.2947 81.1003C53.3407 81.5936 53.4261 82.1 53.4655 82.6262C53.4918 83.1458 53.5247 83.7245 53.2553 84.2836C53.124 84.5532 52.9335 84.8097 52.6576 84.9807C52.3883 85.1583 52.0598 85.2307 51.7511 85.2175C51.4423 85.2044 51.1467 85.1123 50.8905 84.9807C50.6344 84.8426 50.3847 84.6782 50.1877 84.4217C49.8198 83.9153 49.7476 83.3299 49.7278 82.7972C49.7213 82.5275 49.7279 82.2579 49.7541 82.0014C49.7804 81.7317 49.7935 81.5278 49.7738 81.2844C49.7344 80.8175 49.5636 80.3637 49.4388 79.8572C49.3074 79.3508 49.2812 78.7852 49.4126 78.2656C49.5439 77.7526 49.7739 77.3185 49.833 76.9042C49.8987 76.4898 49.7935 76.0163 49.8067 75.5164C49.8067 75.056 49.787 74.5956 49.7607 74.1418C49.7278 73.6814 49.7016 73.2342 49.6753 72.7869C49.6359 72.3463 49.6753 71.8398 49.7738 71.4123C49.984 70.5376 50.2534 69.7878 50.1351 68.9986C50.0563 68.2027 49.9709 67.3609 50.1811 66.5848C50.3716 65.8942 50.2797 65.1773 50.2928 64.467C50.2928 64.1118 50.3388 63.7501 50.4045 63.4278C50.4701 63.1055 50.5227 62.7964 50.5687 62.4873C50.6606 61.8756 50.7263 61.2969 50.7723 60.7444C50.8577 59.646 50.9957 58.6924 51.1862 57.936C51.3767 57.1862 51.6197 56.5811 52.0007 56.3312C52.1912 56.2062 52.3817 56.2326 52.4802 56.2786C52.5787 56.3246 52.6247 56.3575 52.6182 56.3641C52.6182 56.3772 52.5591 56.3509 52.4671 56.3312C52.3686 56.3049 52.2109 56.3049 52.0664 56.4233C51.7576 56.6601 51.5475 57.2454 51.3964 57.9886C51.2387 58.7384 51.1402 59.6789 51.081 60.7707C51.0482 61.3232 50.9956 61.9151 50.9168 62.5333C50.8774 62.8425 50.8249 63.1647 50.7657 63.4936C50.7001 63.8159 50.6738 64.125 50.6738 64.467C50.6738 65.1378 50.7854 65.8942 50.5818 66.6769C50.4044 67.374 50.4833 68.137 50.5753 68.9525C50.6278 69.3537 50.6212 69.8338 50.5293 70.2548C50.4439 70.6823 50.3191 71.0966 50.2337 71.5044C50.1417 71.9253 50.1154 72.3068 50.1548 72.754C50.1877 73.2013 50.2205 73.6485 50.2533 74.1089C50.2862 74.5693 50.3125 75.0363 50.3125 75.5164C50.2993 75.9571 50.4176 76.424 50.3453 76.9699C50.2665 77.5092 50.0235 77.9499 49.9184 78.384C49.8133 78.8181 49.8264 79.2653 49.9512 79.7257C50.0629 80.1861 50.2534 80.6794 50.3059 81.2318C50.3388 81.4949 50.3191 81.804 50.2928 82.0408C50.2731 82.2907 50.2599 82.5341 50.2665 82.7774C50.2796 83.2576 50.3651 83.7574 50.6212 84.0994C50.8774 84.4151 51.3569 84.6716 51.7839 84.6914L51.7773 84.6979Z" fill="#E1E6F0"/>
<path d="M50.9189 94.5836C51.0437 95.8463 51.2079 97.0565 51.2605 98.1746C51.3196 99.2927 51.2736 100.306 51.1357 101.147C51.0634 101.562 51.0371 101.904 51.0897 102.219C51.1422 102.535 51.2211 102.818 51.2408 103.061C51.2802 103.568 51.1028 103.805 51.0831 103.798C51.0371 103.785 51.1291 103.528 51.0371 103.094C50.9911 102.877 50.8861 102.614 50.8007 102.279C50.7087 101.937 50.7153 101.516 50.7678 101.101C50.8532 100.286 50.8598 99.2993 50.7744 98.2075C50.689 97.1157 50.5182 95.9187 50.3868 94.6362C50.1109 92.058 50.3605 89.7363 50.4262 88.0723C50.5248 86.4083 50.5313 85.3757 50.6036 85.3691C50.6759 85.3691 50.8007 86.4017 50.8007 88.0789C50.8269 89.756 50.6496 92.0711 50.9123 94.577L50.9189 94.5836Z" fill="#E1E6F0"/>
<path d="M52.143 93.8662C52.1561 94.9382 52.3466 95.9642 52.3795 96.9376C52.3992 97.4243 52.3795 97.8913 52.3204 98.3254C52.2481 98.766 52.1496 99.1344 52.0839 99.4895C51.9394 100.187 51.8474 100.752 51.854 101.14C51.8474 101.535 51.9919 101.686 51.9722 101.719C51.9657 101.732 51.9065 101.706 51.8277 101.62C51.762 101.528 51.6832 101.371 51.6569 101.16C51.5846 100.739 51.6241 100.147 51.7226 99.4303C51.7686 99.0752 51.8474 98.674 51.8934 98.2794C51.9328 97.8782 51.9328 97.4375 51.8934 96.9705C51.8342 96.0432 51.6306 95.0106 51.6109 93.8859C51.5912 92.7744 51.6503 91.7352 51.6175 90.8013C51.5781 89.8739 51.4993 88.9926 51.5452 88.2691C51.5781 87.5391 51.6963 86.9471 51.8605 86.5591C52.0182 86.171 52.189 86.0066 52.2087 86.0198C52.2481 86.0395 52.143 86.2368 52.0576 86.6183C51.9656 86.9997 51.9065 87.5654 51.9197 88.2691C51.9197 88.9794 52.0313 89.8081 52.1036 90.775C52.1627 91.7352 52.1167 92.7875 52.1364 93.8662H52.143Z" fill="#E1E6F0"/>
<path d="M46.0751 61.565C46.3642 62.203 46.8569 62.7883 47.0474 63.5052C47.1853 64.2287 47.1459 64.7943 47.1196 65.3139C47.0802 65.8203 47.0013 66.2347 46.8897 66.5044C46.778 66.7806 46.6466 66.8924 46.6204 66.8727C46.5875 66.8464 46.6532 66.7148 46.6926 66.4517C46.7386 66.1887 46.7583 65.794 46.7452 65.3073C46.7255 64.8338 46.7057 64.2024 46.5744 63.6368C46.4101 63.0646 45.9372 62.5187 45.589 61.7821C45.5036 61.5979 45.4379 61.3874 45.4182 61.1572V61.0717C45.4117 61.0323 45.4182 60.9797 45.4182 60.9468C45.4379 60.8678 45.4577 60.8152 45.4774 60.7692C45.5234 60.6705 45.5693 60.5916 45.6022 60.5127C45.6416 60.4403 45.6745 60.368 45.6942 60.3088C45.7139 60.243 45.7139 60.2233 45.7204 60.1378C45.7204 59.9931 45.6942 59.8484 45.6482 59.7103C45.5628 59.4275 45.4182 59.1841 45.2474 58.9737C45.0701 58.75 44.8862 58.5396 44.7351 58.3291C44.4066 57.9016 44.3409 57.4215 44.3541 57.1452C44.3672 56.8559 44.4132 56.7046 44.4461 56.7046C44.4855 56.7046 44.5052 56.8624 44.5577 57.1255C44.6103 57.3952 44.7088 57.7503 45.0307 58.0989C45.1818 58.2765 45.3788 58.4672 45.5759 58.6909C45.7927 58.9211 45.9832 59.217 46.108 59.559C46.1671 59.73 46.2131 59.9208 46.2197 60.1246C46.2262 60.2101 46.2197 60.368 46.1803 60.4667C46.1474 60.5719 46.1014 60.664 46.062 60.7495C45.9766 60.927 45.8912 61.0586 45.9306 61.1178C45.9438 61.2625 45.9898 61.4137 46.062 61.5716L46.0751 61.565Z" fill="#E1E6F0"/>
<path d="M47.9988 60.9742C48.0711 61.6714 47.7755 62.3028 47.6441 62.7763C47.5784 63.0131 47.539 63.2696 47.5653 63.4406C47.5981 63.6379 47.6967 63.855 47.7295 64.0917C47.8018 64.5916 47.5916 64.9139 47.5127 65.1178C47.4142 65.3217 47.3682 65.44 47.3288 65.4335C47.296 65.4335 47.2763 65.2888 47.3157 65.0586C47.3419 64.8284 47.4602 64.4995 47.3617 64.1772C47.3157 64.0062 47.204 63.8155 47.1317 63.5393C47.066 63.2367 47.1055 62.9605 47.1646 62.6711C47.2894 62.0989 47.5259 61.5925 47.4602 61.0137C47.447 60.7046 47.4208 60.3889 47.4471 60.0666C47.4668 59.7443 47.5653 59.4221 47.7033 59.159C47.9989 58.6394 48.2944 58.2908 48.4718 57.9356C48.8397 57.2516 48.7608 56.7189 48.8528 56.7123C48.9054 56.686 49.1418 57.2451 48.8134 58.0869C48.6689 58.4947 48.3601 58.9354 48.1434 59.3694C47.92 59.8101 47.9529 60.3428 47.9923 60.9874L47.9988 60.9742Z" fill="#E1E6F0"/>
<path d="M58.173 61.8629C58.2716 62.5009 58.5081 63.1126 58.6591 63.7111C58.738 64.0136 58.7905 64.2964 58.8102 64.5858C58.8299 64.8818 58.7839 65.1449 58.7314 65.3751C58.6263 65.8289 58.5146 66.1643 58.4686 66.4077C58.4226 66.6444 58.4161 66.7891 58.3767 66.7891C58.3438 66.7891 58.2781 66.6576 58.265 66.3879C58.2453 66.1248 58.311 65.7434 58.3635 65.3093C58.4292 64.8686 58.3635 64.4017 58.1862 63.836C58.0219 63.277 57.7592 62.6653 57.6475 61.9353C57.5293 61.2052 57.6804 60.5081 57.5358 60.0411C57.411 59.5544 56.9315 59.3045 56.5702 58.9953C56.1958 58.706 55.979 58.3245 55.9199 58.068C55.8476 57.8115 55.8608 57.6668 55.8936 57.6536C55.9922 57.6142 56.071 58.239 56.8001 58.6928C56.9841 58.8178 57.1877 58.9296 57.4242 59.1072C57.6541 59.2782 57.8906 59.5412 58.0022 59.8832C58.219 60.5673 58.0548 61.225 58.173 61.8564V61.8629Z" fill="#E1E6F0"/>
<path d="M59.6028 61.369C59.6291 61.9872 59.5306 62.5397 59.4386 63.033C59.3466 63.5262 59.2612 63.9538 59.2218 64.3155C59.1233 65.039 59.2415 65.4862 59.1627 65.5125C59.1036 65.5454 58.8408 65.0916 58.8474 64.2958C58.8145 63.5131 59.097 62.4673 59.0707 61.3953C59.0707 60.8757 58.8014 60.3561 58.9131 59.7379C59.051 59.1394 59.4386 58.8105 59.6816 58.5409C60.2137 58.0344 60.2794 57.574 60.3648 57.5872C60.3976 57.5872 60.4239 57.7122 60.3845 57.9358C60.3517 58.1594 60.2072 58.4751 59.9707 58.7776C59.7539 59.0802 59.4517 59.4222 59.3926 59.8234C59.3204 60.2114 59.57 60.7376 59.5962 61.369H59.6028Z" fill="#E1E6F0"/>
<path d="M36.1827 49.8981C36.9841 50.4177 37.7921 50.8189 38.5672 51.0951C39.3424 51.345 40.0715 51.4963 40.689 51.516C41.9305 51.5752 42.6991 51.345 42.7253 51.4437C42.7385 51.4766 42.5545 51.5555 42.2064 51.6607C42.0356 51.7199 41.8188 51.7857 41.5626 51.812C41.3064 51.8383 41.0108 51.9107 40.689 51.8909C40.0321 51.9172 39.2504 51.7989 38.4162 51.5621C37.595 51.2924 36.7279 50.8846 35.8937 50.3453C34.2383 49.247 33.01 47.9316 32.1823 46.9516C31.3612 45.965 30.9342 45.2942 30.9868 45.2547C31.0459 45.2021 31.5779 45.794 32.4582 46.7017C33.3384 47.6093 34.5865 48.8458 36.1761 49.9047L36.1827 49.8981Z" fill="#E1E6F0"/>
<path d="M36.8402 56.9693C38.2722 56.7589 39.5335 56.2525 40.394 55.8381C41.2611 55.4172 41.7077 55.016 41.7668 55.0752C41.8194 55.1146 41.4384 55.6408 40.5779 56.167C39.7239 56.6931 38.4496 57.2719 36.9124 57.4955C35.3425 57.6928 33.963 57.2456 33.0565 56.8838C32.1434 56.5024 31.6114 56.2064 31.6376 56.1406C31.6639 56.0683 32.2551 56.2459 33.1813 56.5287C34.1075 56.7983 35.4147 57.1535 36.8468 56.9693H36.8402Z" fill="#E1E6F0"/>
<path d="M35.3162 64.2753C37.5037 62.927 39.3101 61.4472 40.394 60.1646C41.491 58.8953 41.8983 57.9153 41.9837 57.9548C42.0165 57.9679 41.9443 58.2244 41.7538 58.6651C41.5567 59.1057 41.2085 59.7174 40.683 60.4014C39.6452 61.7826 37.819 63.3611 35.5987 64.7225C34.5017 65.4263 33.339 65.9656 32.242 66.2879C31.1516 66.6233 30.1334 66.7746 29.2794 66.8535C27.5715 66.9982 26.514 66.8798 26.5205 66.8206C26.5205 66.7351 27.5715 66.7219 29.24 66.4852C30.8954 66.2484 33.1814 65.6893 35.3228 64.2753H35.3162Z" fill="#E1E6F0"/>
<path d="M70.1443 51.8254C71.977 51.5229 73.5338 50.8389 74.5651 50.2009C75.6096 49.5695 76.1548 49.0236 76.2139 49.0894C76.2599 49.1288 75.8001 49.7734 74.7687 50.5166C73.7506 51.2532 72.1346 52.0359 70.2297 52.345C69.2772 52.5028 68.3641 52.5818 67.5167 52.4963C66.6759 52.4042 65.9599 52.2135 65.3621 52.0753C64.1666 51.7662 63.4177 51.7333 63.4112 51.6544C63.4046 51.5821 64.1994 51.49 65.4344 51.707C66.0519 51.7991 66.7679 51.9504 67.5627 52.0096C68.3444 52.0622 69.2378 51.9767 70.1443 51.8254Z" fill="#E1E6F0"/>
<path d="M69.2339 57.7964C70.8762 58.3094 72.4396 58.5331 73.5563 58.5133C74.6861 58.5133 75.3233 58.1976 75.3561 58.27C75.4021 58.316 74.7649 58.783 73.576 58.8816C72.4001 59 70.7776 58.8224 69.0763 58.2963C68.2289 58.0398 67.4275 57.6583 66.7969 57.1979C66.1597 56.7375 65.6736 56.2245 65.2992 55.7773C64.5635 54.8762 64.2153 54.2514 64.2679 54.212C64.3336 54.1593 64.7868 54.7118 65.5751 55.5274C65.9692 55.9286 66.4619 56.3889 67.0728 56.7967C67.6837 57.2111 68.4128 57.5399 69.2339 57.7899V57.7964Z" fill="#E1E6F0"/>
<path d="M71.7146 65.4734C73.0218 66.2626 74.3553 66.8611 75.6231 67.2031C76.8909 67.5583 78.0864 67.6438 79.0783 67.6109C81.0752 67.5188 82.2642 67.0387 82.2905 67.1373C82.3036 67.1702 82.0146 67.3083 81.4759 67.4991C80.9307 67.6767 80.1227 67.8937 79.098 67.9792C78.0733 68.0647 76.8252 68.0121 75.4983 67.6701C74.1713 67.3412 72.7787 66.7361 71.4387 65.9206C70.0986 65.105 68.9162 64.1711 67.9637 63.2043C66.9981 62.244 66.2493 61.2772 65.6581 60.4485C65.0669 59.6132 64.6333 58.9161 64.3443 58.4228C64.0553 57.9295 63.9173 57.6467 63.9436 57.6269C64.0158 57.5809 64.7187 58.6267 65.9537 60.2249C67.182 61.8165 69.0673 63.9014 71.708 65.4668L71.7146 65.4734Z" fill="#E1E6F0"/>
<path d="M78.8329 83.2046C78.6292 83.6716 78.2285 83.9084 78.1366 83.7966C78.038 83.6847 78.1826 83.3756 78.3533 82.981C78.5307 82.5864 78.7343 82.2641 78.8788 82.3036C79.0168 82.343 79.0365 82.7508 78.8329 83.2046Z" fill="#E1E6F0"/>
<path d="M79.5373 84.2244C79.406 84.4283 79.2352 84.5861 79.0972 84.5401C78.9593 84.5006 78.9199 84.2112 79.0907 83.9416C79.2549 83.6653 79.5374 83.5733 79.6293 83.6851C79.7279 83.7969 79.6622 84.0139 79.5373 84.2178V84.2244Z" fill="#E1E6F0"/>
<path d="M77.7812 86.2757C77.6236 86.5979 77.5316 86.8742 77.3805 86.9005C77.236 86.9268 77.0849 86.4993 77.2951 86.0586C77.4988 85.6377 77.7878 85.4404 77.9126 85.5127C78.044 85.5916 77.9389 85.9468 77.7812 86.2757Z" fill="#E1E6F0"/>
<path d="M6.7596 58.8497C7.08147 58.3959 7.57413 58.2446 7.63325 58.3828C7.69237 58.5143 7.45589 58.784 7.18 59.1654C6.89753 59.5469 6.58222 59.856 6.45742 59.7705C6.33918 59.6916 6.43772 59.2838 6.7596 58.8497Z" fill="#E1E6F0"/>
<path d="M8.67739 58.4954C8.99927 58.2652 9.32772 58.3507 9.34085 58.4954C9.36056 58.6401 9.17006 58.7848 8.9927 58.9229C8.80878 59.0544 8.62485 59.1926 8.48691 59.1334C8.35553 59.0873 8.36209 58.7387 8.67739 58.4954Z" fill="#E1E6F0"/>
<path d="M7.14805 60.5002C7.54218 60.1253 7.98229 59.9675 8.06111 60.0924C8.13994 60.2174 7.8772 60.5397 7.51591 60.8883C7.14805 61.2368 6.78676 61.4736 6.67509 61.375C6.56999 61.2763 6.76049 60.8751 7.14805 60.5002Z" fill="#E1E6F0"/>
<path d="M89.7478 62.4022C89.6559 62.8231 89.4719 63.1257 89.334 63.0862C89.196 63.0467 89.1501 62.685 89.2355 62.2772C89.3209 61.8695 89.5114 61.5603 89.6493 61.5932C89.7938 61.6261 89.8332 61.9878 89.7478 62.4022Z" fill="#E1E6F0"/>
<path d="M90.8718 60.3699C90.8455 60.8566 90.6353 61.1855 90.4973 61.1592C90.3463 61.1329 90.32 60.7514 90.3397 60.3436C90.366 59.9424 90.3594 59.6201 90.4973 59.5544C90.6287 59.4886 90.8981 59.8635 90.8718 60.3633V60.3699Z" fill="#E1E6F0"/>
<path d="M90.4091 64.3286C90.2317 64.8284 90.1135 65.1967 89.9755 65.2165C89.8179 65.2362 89.7194 64.7035 89.9033 64.1707C90.0807 63.6511 90.258 63.2894 90.4025 63.296C90.5602 63.296 90.593 63.8156 90.4091 64.3286Z" fill="#E1E6F0"/>
<path d="M87.1767 21.7152C87.4066 21.5968 87.6759 21.5376 87.873 21.5705C88.07 21.5968 88.1686 21.6889 88.162 21.7547C88.116 21.8994 87.8204 21.9651 87.4066 22.1953C87.1898 22.3006 86.9533 22.3861 86.7694 22.3992C86.5855 22.4124 86.4672 22.3598 86.4541 22.294C86.4541 22.1493 86.73 21.9651 87.1767 21.7218V21.7152Z" fill="#E1E6F0"/>
<path d="M86.0968 23.4134C86.6749 23.2424 87.1938 23.3147 87.2004 23.466C87.207 23.6107 86.78 23.7686 86.2414 23.9264C85.7027 24.0843 85.2232 24.1435 85.1706 23.9988C85.1247 23.8672 85.5188 23.5844 86.0968 23.4134Z" fill="#E1E6F0"/>
<path d="M90.1182 22.801C90.67 22.7812 91.097 22.801 91.143 22.9325C91.1955 23.0772 90.7226 23.314 90.1511 23.3337C89.5796 23.3534 89.1461 23.2877 89.1198 23.1496C89.0869 22.9983 89.5599 22.8273 90.1248 22.8075L90.1182 22.801Z" fill="#E1E6F0"/>
<path d="M14.3421 36.9679C16.0894 36.9482 17.5148 36.5404 17.5542 36.7048C17.5937 36.8101 16.2208 37.4678 14.3421 37.4941C12.4437 37.4875 11.097 36.6982 11.1562 36.593C11.2153 36.4352 12.5947 36.9613 14.3421 36.9613V36.9679Z" fill="#E1E6F0"/>
<path d="M26.519 25.4314C28.5882 26.3258 30.3552 27.3255 31.5507 28.1871C32.7462 29.0487 33.3769 29.713 33.3309 29.759C33.2783 29.8248 32.5689 29.2658 31.3405 28.4963C30.1187 27.7267 28.3385 26.7862 26.3153 25.9181C24.2921 25.0828 22.282 24.8789 20.8434 24.7013C19.3983 24.5369 18.4983 24.3922 18.5049 24.3133C18.5115 24.2409 19.4114 24.2541 20.8763 24.3264C22.3214 24.4119 24.4038 24.5566 26.5124 25.4248L26.519 25.4314Z" fill="#E1E6F0"/>
<path d="M74.6324 29.0308C75.7163 28.406 76.7738 27.9588 77.5687 27.7286C78.3635 27.4984 78.8759 27.4589 78.889 27.5247C78.9087 27.6036 78.4358 27.7681 77.6935 28.0838C76.9512 28.3929 75.9593 28.8796 74.8951 29.4912C72.7865 30.7409 71.0852 31.8327 70.9932 31.6945C70.9275 31.5893 72.4778 30.3134 74.6324 29.0374V29.0308Z" fill="#E1E6F0"/>
<path d="M107.627 41.9799C108.751 41.7563 109.69 41.2433 110.373 40.8815C111.05 40.5067 111.477 40.2699 111.523 40.3357C111.562 40.3883 111.214 40.7369 110.57 41.2038C109.926 41.6511 108.961 42.2561 107.726 42.5061C106.491 42.7428 105.361 42.5324 104.606 42.3285C103.844 42.1114 103.397 41.901 103.417 41.8352C103.436 41.7563 103.916 41.8418 104.684 41.9602C105.446 42.0654 106.504 42.2035 107.627 41.9865V41.9799Z" fill="#E1E6F0"/>
<path d="M-1.66065 43.1503C-0.530805 43.1963 0.526777 42.8741 1.32818 42.8083C2.12958 42.7162 2.63539 42.828 2.62225 42.8938C2.62225 42.9727 2.13615 42.999 1.3873 43.1766C0.631876 43.3279 -0.405988 43.7225 -1.69349 43.6765C-2.94814 43.6239 -4.02545 43.1043 -4.66263 42.6241C-5.31295 42.144 -5.63482 41.7757 -5.5954 41.7231C-5.54942 41.6573 -5.13558 41.9336 -4.46555 42.3084C-3.79553 42.6899 -2.82335 43.0977 -1.66723 43.1503H-1.66065Z" fill="#E1E6F0"/>
<path d="M4.80567 42.6313C5.18667 42.6313 5.50197 42.7497 5.50197 42.8944C5.50197 43.0391 5.19324 43.1575 4.80567 43.1575C4.41811 43.1575 4.10938 43.0391 4.10938 42.8944C4.10938 42.7497 4.41811 42.6313 4.80567 42.6313Z" fill="#E1E6F0"/>
<path d="M113.496 37.9414C114.094 37.5205 114.481 37.1784 114.606 37.2376C114.665 37.2771 114.639 37.4481 114.501 37.6717C114.363 37.8953 114.107 38.1453 113.818 38.3689C113.22 38.7898 112.813 39.1252 112.688 39.0595C112.629 39.02 112.662 38.849 112.806 38.632C112.951 38.4149 113.2 38.1716 113.496 37.948V37.9414Z" fill="#E1E6F0"/>
<path d="M113.579 26.8075C114.938 26.9522 116.187 26.9785 117.1 27.0575C118.006 27.1298 118.564 27.2351 118.564 27.3074C118.564 27.3797 118 27.4061 117.093 27.4324C116.187 27.4521 114.925 27.485 113.526 27.3403C112.127 27.2087 110.885 26.8075 110.045 26.4392C109.204 26.0709 108.718 25.775 108.751 25.7092C108.783 25.6368 109.316 25.821 110.176 26.0906C111.037 26.3603 112.219 26.6826 113.585 26.8141L113.579 26.8075Z" fill="#E1E6F0"/>
<path d="M120.713 26.1874C121.107 26.0296 121.488 25.9967 121.541 26.1348C121.593 26.2664 121.324 26.5163 120.903 26.6873C120.476 26.8583 120.069 26.8188 120.049 26.6741C120.023 26.5295 120.325 26.3519 120.713 26.194V26.1874Z" fill="#E1E6F0"/>
<path d="M17.799 42.8935C18.7514 41.7689 19.7631 40.9139 20.4791 40.2956C21.2016 39.684 21.6615 39.3156 21.714 39.3683C21.7666 39.4209 21.3987 39.8878 20.7353 40.5653C20.0784 41.2559 19.1193 42.1438 18.2062 43.229C17.28 44.2945 16.6888 45.4849 16.1502 46.2544C15.6312 47.0437 15.2765 47.5172 15.2108 47.4777C15.1451 47.4383 15.3882 46.899 15.8283 46.0571C16.2947 45.235 16.8268 44.0116 17.799 42.887V42.8935Z" fill="#E1E6F0"/>
<path d="M24.8479 37.8758C25.6821 37.6259 26.385 37.6325 26.4113 37.7706C26.4376 37.9218 25.7873 38.1455 25.0056 38.3822C24.2173 38.6059 23.6195 38.8492 23.5341 38.7374C23.4421 38.619 24.0136 38.1192 24.8545 37.8758H24.8479Z" fill="#E1E6F0"/>
<path d="M86.4888 41.5992C87.1457 42.3358 87.6843 43.1054 88.1113 43.842C88.5252 44.5852 88.8405 45.2889 89.0375 45.9006C89.4448 47.1173 89.4974 47.9197 89.4382 47.9263C89.3528 47.946 89.1689 47.1831 88.6894 46.0321C88.2098 44.8812 87.369 43.3684 86.1012 41.961C84.8269 40.5601 83.408 39.5669 82.311 38.975C81.2206 38.3765 80.4783 38.12 80.5046 38.0345C80.5177 37.9819 81.306 38.1068 82.4818 38.6396C83.0665 38.8961 83.7365 39.2775 84.4328 39.7708C85.1225 40.2707 85.8319 40.8823 86.4954 41.6124L86.4888 41.5992Z" fill="#E1E6F0"/>
<path d="M89.9811 50.8333C90.0139 51.274 89.922 51.6423 89.7709 51.6554C89.6198 51.6686 89.4819 51.3134 89.449 50.8728C89.4162 50.4321 89.5081 50.0638 89.6592 50.0506C89.8103 50.0375 89.9483 50.3927 89.9811 50.8333Z" fill="#E1E6F0"/>
<path d="M37.4484 71.8328C37.895 71.4645 38.2629 71.1488 38.3812 71.2343C38.4994 71.3133 38.2892 71.8197 37.7834 72.234C37.2841 72.655 36.7521 72.7734 36.693 72.6418C36.6273 72.5037 37.0082 72.2012 37.4484 71.8263V71.8328Z" fill="#E1E6F0"/>
<path d="M56.7244 36.1865C57.0594 37.2256 57.2039 38.1925 57.2827 38.8896C57.355 39.5868 57.355 40.0275 57.2827 40.0406C57.2105 40.0538 57.0791 39.6328 56.9149 38.9554C56.7441 38.278 56.5405 37.344 56.2252 36.3509C55.9099 35.3578 55.5026 34.5093 55.1348 33.9305C54.78 33.3518 54.4976 33.0163 54.5567 32.9571C54.6027 32.9111 54.9771 33.1545 55.4369 33.7069C55.9033 34.2594 56.396 35.1407 56.7244 36.1799V36.1865Z" fill="#E1E6F0"/>
<path d="M54.9481 36.5073C55.3159 37.4741 55.1583 38.3226 55.0203 38.3094C54.8692 38.3094 54.7839 37.5465 54.4554 36.6915C54.1401 35.8364 53.7 35.2116 53.8117 35.1064C53.9036 35.0012 54.5868 35.5339 54.9481 36.5073Z" fill="#E1E6F0"/>
<path d="M45.4397 49.398C44.9799 50.7003 44.9996 51.8579 44.8485 51.8644C44.7172 51.8973 44.4413 50.6543 44.9405 49.2205C45.4266 47.7867 46.4054 46.9711 46.4908 47.0829C46.609 47.1882 45.8799 48.0826 45.4397 49.3915V49.398Z" fill="#E1E6F0"/>
<path d="M47.3237 53.9372C48.0726 53.9569 48.5981 53.582 48.7032 53.6872C48.7492 53.7333 48.6769 53.9174 48.4339 54.1082C48.1974 54.2989 47.7835 54.4699 47.3172 54.4633C46.8442 54.4633 46.4369 54.2792 46.207 54.0818C45.9705 53.8845 45.8983 53.7004 45.9508 53.6543C46.0559 53.5491 46.5749 53.9372 47.3237 53.9306V53.9372Z" fill="#E1E6F0"/>
<path d="M58.5745 53.7328C59.2314 54.0485 59.8554 53.9104 59.9145 54.0419C59.9408 54.1011 59.8028 54.2458 59.5138 54.3247C59.2248 54.4102 58.7847 54.4036 58.3577 54.2063C57.9307 54.0156 57.6351 53.6867 57.5103 53.4105C57.3789 53.1343 57.3986 52.937 57.4643 52.9172C57.6088 52.8712 57.9044 53.4302 58.581 53.7196L58.5745 53.7328Z" fill="#E1E6F0"/>
<path d="M52.7631 54.3586C53.3543 54.2928 53.8733 54.4967 54.1755 54.7137C54.4842 54.9373 54.5893 55.1544 54.5367 55.2004C54.4448 55.3122 53.755 54.7795 52.8157 54.8847C52.5924 54.911 52.3427 54.9768 52.08 54.9834C51.8238 55.0031 51.5479 54.9308 51.3837 54.8058C51.2063 54.6808 51.1144 54.5164 51.1012 54.398C51.0881 54.2731 51.1275 54.2139 51.1603 54.2139C51.2326 54.2139 51.3048 54.398 51.5676 54.4769C51.8238 54.5888 52.1719 54.4506 52.7631 54.3586Z" fill="#E1E6F0"/>
<path d="M21.1018 85.105C21.358 85.8087 21.8704 86.3151 22.2448 86.6834C22.6258 87.0518 22.8623 87.2951 22.8163 87.3543C22.7769 87.4135 22.4615 87.282 22.0083 86.9728C21.5616 86.6703 20.9179 86.1441 20.6026 85.2891C20.2938 84.4473 20.3924 83.6054 20.6026 83.0792C20.8128 82.5399 21.0821 82.3031 21.1347 82.3426C21.2003 82.3886 21.0558 82.6846 20.9639 83.1845C20.8653 83.6777 20.8456 84.3946 21.1084 85.105H21.1018Z" fill="#E1E6F0"/>
<path d="M24.7001 89.4856C24.9498 89.7881 25.1205 90.0907 25.022 90.2025C24.93 90.3143 24.5753 90.1696 24.2929 89.821C24.0104 89.479 23.9316 89.1041 24.0564 89.0318C24.1878 88.9594 24.4439 89.183 24.7001 89.4856Z" fill="#E1E6F0"/>
<path d="M60.039 102.606C60.42 102.37 60.7944 102.278 60.8732 102.403C60.9521 102.527 60.7024 102.817 60.3214 103.054C59.9404 103.29 59.566 103.382 59.4872 103.258C59.4084 103.133 59.658 102.843 60.039 102.606Z" fill="#E1E6F0"/>
<path d="M66.8929 73.7861C65.2244 72.1023 64.1799 70.4712 64.2982 70.3923C64.423 70.3002 65.6317 71.7603 67.2739 73.4178C68.903 75.0817 70.3481 76.3116 70.2561 76.43C70.1773 76.5418 68.5614 75.4829 66.8994 73.7861H66.8929Z" fill="#E1E6F0"/>
<path d="M63.7722 66.5707C64.1729 67.2086 64.2255 67.84 64.0875 67.8729C63.943 67.9124 63.6802 67.4191 63.3255 66.8469C62.9708 66.2747 62.6423 65.8209 62.7474 65.7091C62.8394 65.6038 63.3781 65.9261 63.7788 66.5707H63.7722Z" fill="#E1E6F0"/>
<path d="M66.0635 7.04263C65.3803 9.77209 64.7169 11.9622 64.5724 11.9228C64.4279 11.8833 64.868 9.64713 65.5512 6.91109C65.8862 5.54307 66.2409 4.31316 66.4773 3.43842C66.7138 2.5571 66.7861 1.99805 66.8649 1.99805C66.9372 1.99805 66.9963 2.58998 66.8452 3.51077C66.6941 4.43813 66.3985 5.66803 66.0635 7.03605V7.04263Z" fill="#E1E6F0"/>
<path d="M64.1128 15.4669C63.9814 16.026 63.7581 16.4469 63.6135 16.414C63.469 16.3811 63.4625 15.901 63.5939 15.342C63.7252 14.7829 63.9485 14.362 64.0931 14.3949C64.2376 14.4278 64.2442 14.9079 64.1128 15.4669Z" fill="#E1E6F0"/>
<path d="M46.0611 14.8498C46.5472 17.9871 46.6326 20.5653 46.4946 20.5784C46.3436 20.5916 46.0217 18.0463 45.5421 14.9353C45.0626 11.8178 44.6094 9.29883 44.7539 9.26595C44.8918 9.23306 45.5816 11.7192 46.0676 14.8564L46.0611 14.8498Z" fill="#E1E6F0"/>
<path d="M47.5876 23.5711C47.6861 24.1565 47.5745 24.6366 47.4299 24.6366C47.2854 24.6366 47.1606 24.1959 47.0687 23.6566C46.9833 23.1173 46.957 22.6569 47.0949 22.6109C47.2329 22.5648 47.4956 22.9858 47.5876 23.5711Z" fill="#E1E6F0"/>
<path d="M20.7108 19.1635C21.9195 19.0978 23.0362 19.157 23.8245 19.3477C24.6127 19.5319 25.0528 19.7884 25.0266 19.8475C25.0003 19.9265 24.5273 19.8015 23.7588 19.7226C22.9902 19.6305 21.926 19.6305 20.7371 19.6963C19.5481 19.7621 18.4446 19.8015 17.6497 19.7292C16.8549 19.6634 16.3753 19.5121 16.3819 19.4464C16.395 19.3674 16.8811 19.3806 17.6563 19.3543C18.4314 19.3345 19.5087 19.2359 20.7108 19.1701V19.1635Z" fill="#E1E6F0"/>
<path d="M27.511 20.335C28.1351 20.5915 28.5095 21.019 28.4241 21.1308C28.3387 21.2492 27.8657 21.0519 27.3074 20.8217C26.749 20.5849 26.2827 20.3942 26.3024 20.2495C26.3221 20.1048 26.887 20.0719 27.511 20.335Z" fill="#E1E6F0"/>
<path d="M31.3694 78.2246C34.4371 76.7973 36.3158 74.7124 36.434 74.8374C36.48 74.8769 36.0793 75.4556 35.2516 76.2317C34.4305 77.0078 33.1627 77.9615 31.5928 78.7047C30.0228 79.4413 28.4857 79.8228 27.3624 79.9609C26.2391 80.1056 25.5362 80.0464 25.5362 79.9872C25.5165 79.8162 28.3214 79.6912 31.3628 78.2246H31.3694Z" fill="#E1E6F0"/>
<path d="M41.562 65.7489C41.943 65.3082 42.3437 65.0254 42.4554 65.1175C42.5671 65.2096 42.3437 65.6502 41.9627 66.0909C41.5817 66.5315 41.181 66.8143 41.0694 66.7223C40.9577 66.6302 41.1745 66.1895 41.5555 65.7489H41.562Z" fill="#E1E6F0"/>
<path d="M21.8953 72.9582C22.8806 73.9711 23.9448 74.6946 24.7724 75.0957C25.6001 75.5035 26.1716 75.6416 26.1519 75.7206C26.1453 75.7798 25.5344 75.7798 24.6214 75.4377C23.7083 75.1089 22.5456 74.3854 21.5143 73.3265C20.4829 72.2676 19.7604 71.1561 19.2677 70.3471C18.7816 69.5316 18.5254 68.9988 18.5846 68.9594C18.6502 68.9199 19.0181 69.3803 19.5765 70.1367C20.1414 70.8864 20.9034 71.9454 21.8887 72.9582H21.8953Z" fill="#E1E6F0"/>
<path d="M17.1193 65.0121C17.5134 65.4133 17.7499 65.8211 17.6448 65.9263C17.5397 66.0315 17.139 65.7882 16.7448 65.387C16.3507 64.9858 16.1142 64.578 16.2193 64.4728C16.3244 64.3675 16.7251 64.6109 17.1193 65.0121Z" fill="#E1E6F0"/>
<path d="M82.1985 74.0297C84.1363 72.9313 85.299 71.4778 85.4238 71.583C85.542 71.6422 84.5173 73.3194 82.4678 74.4901C80.4314 75.6805 78.4608 75.7266 78.4739 75.595C78.4476 75.4372 80.2803 75.1609 82.205 74.0297H82.1985Z" fill="#E1E6F0"/>
<path d="M66.3858 39.7038C68.8491 39.0132 70.9446 39.1842 70.9315 39.3157C70.9315 39.4736 68.9082 39.5459 66.5237 40.2168C64.1392 40.8679 62.3656 41.8545 62.2868 41.7164C62.208 41.6111 63.9159 40.3812 66.3858 39.7038Z" fill="#E1E6F0"/>
<path d="M43.0666 42.946C43.579 43.4327 43.9599 43.8734 43.868 43.9917C43.7826 44.1101 43.2308 43.8405 42.6987 43.3275C42.1666 42.821 41.871 42.2817 41.9761 42.1896C42.0878 42.091 42.5476 42.4527 43.06 42.9394L43.0666 42.946Z" fill="#E1E6F0"/>
<path d="M40.0738 41.0531C40.6124 41.4543 40.8095 41.9805 40.6847 42.0528C40.5599 42.1318 40.2117 41.8095 39.7585 41.4741C39.3118 41.1386 38.898 40.8953 38.9439 40.7506C38.9768 40.6125 39.5417 40.6454 40.0803 41.0466L40.0738 41.0531Z" fill="#E1E6F0"/>
<path d="M118.554 96.9382C119.198 97.5433 119.507 98.201 119.388 98.2799C119.264 98.3654 118.791 97.8853 118.193 97.3262C117.602 96.7606 117.089 96.3134 117.168 96.1818C117.24 96.0569 117.917 96.3331 118.554 96.9382Z" fill="#E1E6F0"/>
<path d="M120.973 99.7C121.196 99.963 121.281 100.259 121.17 100.351C121.058 100.443 120.789 100.305 120.565 100.042C120.342 99.7789 120.257 99.4829 120.368 99.3908C120.48 99.2988 120.749 99.4369 120.973 99.7Z" fill="#E1E6F0"/>
<path d="M97.9234 59.9089C98.3175 60.3956 98.5474 60.8691 98.4292 60.9612C98.3175 61.0533 97.9037 60.731 97.5095 60.2443C97.1154 59.7576 96.8855 59.2841 97.0037 59.192C97.1154 59.0999 97.5292 59.4222 97.9234 59.9089Z" fill="#E1E6F0"/>
<path d="M96.766 61.0282C97.1732 61.4163 97.4228 61.8175 97.3177 61.9227C97.2126 62.028 96.8053 61.7977 96.3981 61.4097C95.9908 61.0217 95.7412 60.6205 95.8463 60.5152C95.9448 60.41 96.3587 60.6402 96.766 61.0282Z" fill="#E1E6F0"/>
<path d="M100.189 63.94C100.57 64.6108 100.781 65.2159 100.649 65.2883C100.518 65.3606 100.11 64.8739 99.7295 64.2031C99.3485 63.5322 99.1383 62.9271 99.2697 62.8548C99.3945 62.7824 99.8083 63.2691 100.189 63.94Z" fill="#E1E6F0"/>
</svg>
