<svg width="386" height="104" viewBox="0 0 386 104" fill="none" xmlns="http://www.w3.org/2000/svg">
<path d="M194.276 86.5128C194.276 86.5128 182.424 96.5769 174.181 101.143C165.948 105.699 154.317 112.158 138.201 123.598C130.563 129.031 124.01 134.855 116.342 146.997C108.674 159.14 110.814 170.933 109.512 179.529C108.21 188.126 103.87 195.395 105.371 197.722C106.872 200.049 113.88 196.179 123.174 195.047C132.457 193.907 144.741 196.192 161.112 183.914C177.482 171.635 188.523 151.302 195.589 140.127C202.655 128.951 211.677 116.186 218.059 110.505C219.877 108.882 222.723 109.124 224.076 125.693C225.429 142.262 225.927 152.22 239.205 165.85C252.482 179.48 276.342 187.673 283.754 191.219C291.156 194.755 294.998 196.211 301.55 202.635C308.103 209.058 309.57 215.335 311.47 215.279C313.369 215.223 316.807 206.942 316.86 200.329C316.912 193.716 314.777 188.476 316.998 180.53C319.218 172.584 321.455 163.633 315.836 156.554C310.217 149.474 297.206 145.264 291.861 139.969C286.506 134.665 280.711 129.308 277.58 120.533C277.58 120.533 297.938 132.475 329.522 125.218C361.095 117.951 370.738 111.24 380.96 105.201C391.192 99.1715 396.225 98.3633 406.184 98.1742C416.153 97.9945 417.397 97.3078 417.603 94.1414C417.819 90.9649 400.947 78.883 376.601 75.1437C352.246 71.395 346.384 75.713 336.223 74.8073C326.052 73.8921 321.366 72.2701 314.894 72.036C308.421 71.802 302.805 60.1395 285.84 59.2939C268.866 58.4585 256.751 54.8025 254.285 52.4989L253.842 52.0852C251.376 49.7817 246.895 37.9336 244.917 21.0647C242.93 4.1864 230.903 -0.613644 230.23 -7.05518C229.556 -13.4967 227.629 -18.0713 226.015 -28.1466C224.401 -38.2219 228.32 -44.3741 222.934 -68.4089C217.538 -92.453 204.347 -108.455 201.193 -108.024C198.038 -107.593 197.447 -106.315 197.946 -96.357C198.444 -86.399 197.971 -81.3121 192.65 -70.7138C187.33 -60.0959 181.289 -50.0381 176.176 -18.0338C171.064 13.9704 184.371 33.4597 184.371 33.4597C175.404 30.9329 169.656 25.5254 164.009 20.5335C158.353 15.5518 153.288 2.85604 145.833 -2.25841C138.388 -7.38293 129.61 -4.54353 121.833 -1.78754C114.057 0.968424 108.684 -0.805308 102.089 -0.303781C95.4953 0.197758 87.4776 4.20046 87.5407 6.08996C87.6039 7.97946 93.9672 9.03629 100.83 15.1268C107.684 21.2275 109.695 24.8046 113.43 32.1054C120.961 46.8024 131.008 63.5477 146.626 71.0803C162.225 78.6135 179.501 79.1265 186.85 81.0853C194.199 83.0441 198.852 82.8243 194.315 86.5309L194.276 86.5128Z" fill="#F9F8F4" stroke="#E1E6F0" stroke-width="1.12" stroke-miterlimit="10"/>
<path d="M257.435 48.3816C254.496 45.6362 258.307 41.2332 256.439 23.2392C254.58 5.25458 243.967 -5.65955 230.725 -12.1238C220.416 -17.1491 207.173 -15.7444 190.953 -3.62741C174.734 8.48952 166.43 25.2466 169.097 39.6831C171.348 51.9011 180.65 62.1195 194.317 68.4521C207.984 74.7846 220.915 73.0689 228.101 79.7821C235.287 86.4952 234.455 99.5123 241.702 112.718C248.949 125.923 259.412 134.716 272.119 135.924C288.161 137.455 304.666 129.209 313.843 111.173C321.803 95.5104 324.307 82.0356 319.616 70.9163C313.897 57.3266 300.656 48.2978 282.587 47.666C264.517 47.0343 260.373 51.1271 257.435 48.3816Z" fill="#F9F8F4" stroke="#E1E6F0" stroke-width="1.12" stroke-miterlimit="10"/>
<path d="M205.18 100.381C200.807 94.9942 206.331 83.755 213.535 71.4629C220.74 59.1708 225.274 48.0829 229.877 48.4012C229.877 48.4012 235.245 43.3007 236.387 34.8753C237.529 26.4499 237.938 24.3783 241.59 15.2223C245.243 6.06633 239.745 -7.03365 236.208 -13.0932C232.681 -19.1433 234.013 -21.8807 238.993 -24.5886C243.972 -27.2964 250.992 -30.2309 257.988 -29.2057C264.985 -28.1805 269.933 -31.8428 281.735 -29.0827C293.538 -26.3227 304.912 -27.0386 311.68 -23.792C318.439 -20.5354 326.614 -17.5033 331.329 -4.2104C336.043 9.08252 336.199 18.4185 340.046 29.372C343.893 40.3255 341.042 54.5145 340.158 61.0295C339.265 67.5546 336.065 71.3026 329.069 70.2774C322.073 69.2522 315.508 67.4222 307.815 64.5197C300.123 61.6172 293.416 65.1844 285.271 65.0669C277.125 64.9494 272.005 68.1301 267.144 69.7222C262.283 71.3143 256.873 75.1486 256.873 75.1486C256.873 75.1486 259.361 78.6995 250.656 83.4378C241.951 88.1762 210.276 106.689 205.15 100.372L205.18 100.381Z" fill="#F9F8F4" stroke="#E1E6F0" stroke-width="1.12" stroke-miterlimit="10"/>
<path d="M256.906 75.1582C256.906 75.1582 255.652 70.6089 249.227 67.9843C249.227 67.9843 250.054 64.1528 247.792 62.9636C245.529 61.7744 244.696 61.3547 243.269 58.6251C241.851 55.8855 239.952 55.961 237.29 56.8334C237.29 56.8334 235.599 48.8182 229.88 48.3825" stroke="#E1E6F0" stroke-width="1.12" stroke-miterlimit="10" stroke-linecap="round"/>
<path d="M185.897 117.636C189.971 113.497 193.749 109.856 196.559 107.272C199.359 104.698 201.161 103.173 201.262 103.287C201.373 103.39 199.763 105.114 197.104 107.838C194.445 110.544 190.758 114.289 186.693 118.418C182.629 122.547 178.961 126.292 176.292 129.007C173.623 131.703 171.933 133.351 171.812 133.239C171.701 133.135 173.181 131.309 175.718 128.471C178.246 125.624 181.833 121.785 185.897 117.636Z" fill="#E1E6F0"/>
<path d="M188.438 102.61C192.365 99.9192 195.805 98.1131 195.96 98.371C196.125 98.6383 192.972 100.844 189.073 103.524C185.165 106.195 181.97 108.343 181.776 108.087C181.592 107.84 184.511 105.301 188.438 102.61Z" fill="#E1E6F0"/>
<path d="M145.945 32.4728C138.192 26.5886 130.139 22.821 124.828 19.1437C122.155 17.3446 120.158 15.6489 118.877 14.3769C118.242 13.7456 117.766 13.2258 117.471 12.8557C117.167 12.4957 117.023 12.2861 117.051 12.2559C117.117 12.1854 117.814 12.8926 119.179 14.0544C120.533 15.2068 122.576 16.7937 125.265 18.4947C130.597 21.947 138.764 25.6327 146.618 31.5914C154.525 37.4312 160.728 43.9054 164.795 48.874C166.837 51.3482 168.341 53.4705 169.366 54.9561C170.352 56.4626 170.868 57.3028 170.802 57.3539C170.735 57.405 170.104 56.6272 169.014 55.2121C167.885 53.8179 166.305 51.7762 164.188 49.3826C160.01 44.5739 153.783 38.2662 145.955 32.4821L145.945 32.4728Z" fill="#E1E6F0"/>
<path d="M370.806 92.1076C362.375 92.4972 354.766 93.2582 349.279 93.9456C346.541 94.294 344.318 94.5758 342.774 94.7756C341.24 94.9653 340.375 95.044 340.372 94.9661C340.37 94.8882 341.191 94.6744 342.711 94.339C344.231 94.0035 346.44 93.5955 349.185 93.1591C354.664 92.2769 362.299 91.3883 370.769 90.9972C379.239 90.6257 386.929 90.8273 392.451 91.2112C395.217 91.3982 397.457 91.6033 399.004 91.8032C400.541 91.9938 401.394 92.13 401.387 92.218C401.38 92.2865 400.522 92.2967 398.97 92.2432C397.418 92.1897 395.182 92.1014 392.419 92.0119C386.895 91.8328 379.247 91.7468 370.826 92.1264L370.806 92.1076Z" fill="#E1E6F0"/>
<path d="M329.51 96.3343C327.103 96.6712 325.114 96.6816 325.075 96.3807C325.035 96.0798 326.949 95.5649 329.366 95.2374C331.773 94.9005 333.761 94.8901 333.801 95.191C333.84 95.4919 331.927 96.0068 329.52 96.3437L329.51 96.3343Z" fill="#E1E6F0"/>
<path d="M341.689 108.162C336.095 108.844 330.948 108.886 327.271 108.564C323.585 108.253 321.353 107.697 321.378 107.569C321.411 107.393 323.663 107.666 327.323 107.783C330.974 107.91 336.029 107.744 341.574 107.055C347.119 106.385 352.109 105.461 355.725 104.819C359.34 104.177 361.601 103.835 361.626 103.99C361.66 104.135 359.457 104.758 355.878 105.603C352.298 106.43 347.302 107.48 341.699 108.172L341.689 108.162Z" fill="#E1E6F0"/>
<path d="M346.793 84.399C342.298 84.4085 338.253 84.7436 335.332 85.1471C332.42 85.5406 330.629 85.9245 330.575 85.7606C330.541 85.635 332.274 84.9703 335.189 84.372C338.113 83.7636 342.232 83.3089 346.775 83.288C351.328 83.2764 355.406 83.613 358.361 83.9201C361.306 84.2373 363.12 84.5353 363.115 84.6817C363.101 84.8382 361.267 84.8237 358.309 84.702C355.351 84.5997 351.278 84.3801 346.783 84.3896L346.793 84.399Z" fill="#E1E6F0"/>
<path d="M229.647 103.571C227.329 101.028 226.516 98.3069 226.787 98.2195C227.084 98.0824 228.295 100.459 230.47 102.831C232.618 105.233 234.859 106.667 234.693 106.946C234.575 107.213 231.946 106.134 229.647 103.571Z" fill="#E1E6F0"/>
<path d="M199.106 77.5113C196.463 74.2876 195.958 70.8338 196.24 70.8143C196.559 70.7155 197.501 73.8226 199.97 76.8086C202.392 79.845 205.233 81.4042 205.077 81.6924C204.998 81.9584 201.73 80.7552 199.106 77.5113Z" fill="#E1E6F0"/>
<path d="M239.559 65.2561C238.954 64.9553 238.287 64.8224 237.655 64.8931C237.013 64.9348 236.273 65.2628 235.333 65.1393C234.343 64.9884 233.744 64.2583 233.307 63.7371C232.86 63.1871 232.432 62.6559 232.024 62.1239C230.383 59.9868 229.167 57.7375 228.853 55.6324C228.52 53.5475 228.969 51.8158 229.54 50.8014C230.1 49.7582 230.663 49.3973 230.703 49.4349C230.774 49.5007 230.341 49.9643 229.936 50.9827C229.531 51.9816 229.233 53.591 229.638 55.4979C230.014 57.3961 231.194 59.4614 232.832 61.5011C233.259 62.0129 233.676 62.5347 234.123 63.0653C234.56 63.5864 235.003 64.0196 235.493 64.0807C236.022 64.1599 236.696 63.9024 237.541 63.8049C238.396 63.7168 239.27 63.8913 240.043 64.2741C241.589 65.0201 242.713 66.5608 242.817 68.2246C242.854 69.0326 242.889 69.48 243.266 69.9837C243.604 70.4693 244.137 70.9481 244.592 71.4296C246.439 73.3255 248.208 74.9024 249.935 75.8176C251.653 76.743 253.243 77.0584 254.337 77.0985C255.43 77.1386 256.05 77.0002 256.072 77.0774C256.093 77.1352 255.508 77.4382 254.351 77.5271C253.204 77.6253 251.461 77.4127 249.588 76.5122C247.696 75.6319 245.78 74.0309 243.875 72.1565C243.411 71.685 242.899 71.2445 242.4 70.6085C242.165 70.2948 241.967 69.9019 241.864 69.4667C241.772 69.0408 241.769 68.6606 241.728 68.3208C241.638 67.066 240.759 65.8679 239.54 65.2763L239.559 65.2561Z" fill="#E1E6F0"/>
<path d="M250.424 70.291C249.229 69.5523 247.993 69.0198 246.86 68.9616C246.303 68.9321 245.78 69.0283 245.348 69.2285C244.934 69.4086 244.644 69.76 244.441 70.118C244.047 70.863 244.101 71.6119 244.281 72.025C244.49 72.4468 244.749 72.6133 244.703 72.7027C244.686 72.7618 244.314 72.7357 243.908 72.2622C243.522 71.788 243.295 70.8208 243.709 69.7924C243.926 69.2973 244.298 68.7383 244.911 68.4245C245.476 68.1027 246.172 67.942 246.884 67.9466C248.308 67.9558 249.723 68.5601 251.007 69.3639C252.312 70.1671 253.388 71.1731 254.203 72.2174C255.017 73.2228 255.651 74.4002 255.601 75.5233C255.561 76.6753 254.864 77.4016 254.316 77.6448C253.75 77.9082 253.404 77.7545 253.412 77.7055C253.399 77.6181 253.71 77.5878 254.09 77.2821C254.451 76.9966 254.877 76.3383 254.812 75.541C254.764 74.704 254.207 73.7872 253.406 72.8692C252.615 71.941 251.6 71.0498 250.425 70.3105L250.424 70.291Z" fill="#E1E6F0"/>
<path d="M234.733 56.1436C234.366 55.0837 233.875 54.1159 233.341 53.2959C232.787 52.457 232.277 51.792 231.679 51.4227C231.101 51.0332 230.551 50.9158 230.202 50.9669C229.853 51.0375 229.664 51.2195 229.593 51.1537C229.553 51.1161 229.602 50.8219 230.052 50.5625C230.511 50.3126 231.312 50.3434 232.076 50.7362C232.462 50.9276 232.842 51.1875 233.205 51.5454C233.538 51.8946 233.863 52.2734 234.179 52.7012C234.812 53.5569 235.383 54.5999 235.783 55.766C236.173 56.9226 236.437 58.1128 236.28 59.2688C236.202 59.8371 235.986 60.3906 235.679 60.8206C235.363 61.2801 234.875 61.5603 234.45 61.692C233.572 61.9662 232.793 61.7104 232.431 61.3719C232.049 61.0146 232.068 60.7117 232.125 60.6902C232.202 60.6485 232.346 60.8581 232.683 61.0219C233.01 61.1763 233.587 61.2441 234.182 60.97C234.789 60.7247 235.196 60.067 235.272 59.1575C235.35 58.2675 235.11 57.2129 234.752 56.143L234.733 56.1436Z" fill="#E1E6F0"/>
<path d="M287.066 18.3369C286.429 17.6472 285.498 17.5136 284.622 17.8658C283.756 18.1883 283.05 18.9636 282.385 19.7765C281.72 20.5894 281.125 21.4681 280.462 22.3394C280.135 22.77 279.741 23.2322 279.246 23.5809C278.751 23.949 278.222 24.1527 277.79 24.3724C276.839 24.8052 276.438 25.3553 276.004 26.365C275.767 26.8607 275.443 27.3692 274.969 27.7757C274.467 28.2124 273.788 28.314 273.362 28.4262C271.56 28.7617 270.589 30.648 269.192 32.0031C268.533 32.7085 267.863 33.385 267.252 34.0595C266.941 34.392 266.651 34.7434 266.379 35.094C266.127 35.4246 265.839 35.8538 265.49 36.2072C264.803 36.9234 263.96 37.3816 263.491 37.9439C263.03 38.4377 262.936 39.4258 262.319 40.2272C261.676 41.0979 260.689 41.3271 260.057 41.6805C259.414 42.0051 258.937 42.5969 258.461 43.2277C258.218 43.5482 257.975 43.8686 257.673 44.1716C257.41 44.4537 257.136 44.7266 256.862 44.9993C256.315 45.5448 255.797 46.099 255.119 46.5223C254.442 46.9651 253.655 47.0606 253.356 47.461C253 47.8829 252.798 48.5627 252.584 49.1552C252.421 49.8141 251.927 50.4846 251.442 50.8622C250.929 51.27 250.54 51.6052 250.136 52.0386C248.615 53.8074 246.917 54.9388 245.915 56.1729C244.913 57.3876 244.417 58.6041 244.542 59.4189C244.647 60.2343 244.933 60.6339 244.876 60.6554C244.866 60.6655 244.785 60.5708 244.672 60.3894C244.568 60.198 244.412 59.9011 244.319 59.4558C244.113 58.5658 244.576 57.2237 245.575 55.9117C246.573 54.5607 248.231 53.4112 249.673 51.6255C250.039 51.1936 250.56 50.7367 250.997 50.3706C251.461 49.9742 251.74 49.5744 251.914 48.9444C252.137 48.3223 252.271 47.6546 252.785 46.9835C253.046 46.6429 253.459 46.4433 253.796 46.3049C254.132 46.1665 254.42 46.0395 254.707 45.854C255.251 45.5134 255.76 44.9692 256.287 44.4244C256.542 44.1523 256.805 43.8702 257.069 43.588C257.313 43.326 257.537 43.0257 257.78 42.7053C258.246 42.0651 258.807 41.3436 259.641 40.8954C260.436 40.4681 261.199 40.2563 261.589 39.6773C261.784 39.3877 261.957 39.0209 262.091 38.636C262.224 38.2511 262.411 37.7278 262.759 37.3355C263.435 36.5515 264.23 36.1436 264.785 35.5296C265.058 35.2373 265.29 34.888 265.589 34.4877C265.869 34.1074 266.188 33.7453 266.508 33.3832C267.137 32.6691 267.807 31.9926 268.456 31.2973C269.125 30.6013 269.686 29.8797 270.382 29.1146C270.73 28.7417 271.118 28.3675 271.585 28.049C272.052 27.7305 272.601 27.5262 273.123 27.3911C273.664 27.2554 274.043 27.1935 274.308 26.9503C274.611 26.6863 274.862 26.3363 275.062 25.9003C275.262 25.4644 275.488 24.9202 275.891 24.4479C276.294 23.9562 276.84 23.6545 277.31 23.4139C277.808 23.1626 278.27 22.9712 278.612 22.7058C278.974 22.4397 279.284 22.0877 279.592 21.6772C280.227 20.8556 280.821 19.9575 281.514 19.0949C282.217 18.2612 282.996 17.3274 284.208 16.8563C284.796 16.6312 285.455 16.5108 286.122 16.6437C286.789 16.7571 287.396 17.1164 287.85 17.5784C288.304 18.0405 288.625 18.6047 288.83 19.1729C289.024 19.7512 289.171 20.3604 289.106 21.0355C288.945 22.3379 288.218 23.3383 287.486 24.1827C287.11 24.6053 286.714 25.009 286.306 25.3644C285.88 25.7399 285.568 26.0336 285.25 26.4346C284.642 27.2065 284.254 28.1463 283.72 29.1009C283.197 30.0649 282.428 30.9691 281.483 31.5772C280.547 32.1751 279.573 32.5111 278.89 33.0614C278.196 33.6022 277.679 34.4782 276.944 35.2253C276.285 35.9307 275.656 36.6643 275.047 37.3973C274.438 38.1497 273.838 38.8725 273.238 39.5953C272.668 40.3269 271.883 41.0465 271.12 41.5605C269.546 42.5999 268.06 43.3632 267.111 44.7417C266.093 46.0738 265.019 47.4859 263.586 48.3742C262.306 49.1596 261.42 50.3896 260.384 51.4591C259.875 52.0033 259.287 52.4917 258.725 52.8915C258.163 53.2913 257.64 53.6897 257.127 54.0975C256.111 54.903 255.182 55.6958 254.321 56.4765C252.618 58.0371 251.041 59.3009 249.667 60.1871C248.302 61.0632 247.063 61.6424 246.122 61.48C245.651 61.3988 245.397 61.0859 245.312 60.8743C245.227 60.6627 245.203 60.5465 245.223 60.5459C245.242 60.5257 245.295 60.6506 245.407 60.8125C245.521 60.9938 245.762 61.2195 246.153 61.245C246.965 61.3241 248.125 60.7281 249.42 59.8056C250.735 58.8824 252.232 57.5825 253.885 55.9943C254.726 55.1948 255.654 54.3631 256.66 53.5287C257.163 53.1114 257.704 52.6929 258.266 52.2736C258.828 51.8739 259.31 51.4379 259.8 50.9138C260.76 49.886 261.672 48.5673 263.104 47.6596C264.373 46.8452 265.345 45.5634 266.371 44.1822C266.865 43.4923 267.562 42.7661 268.305 42.2528C269.048 41.72 269.833 41.2638 270.547 40.7612C271.29 40.2479 271.877 39.701 272.456 38.9594C273.046 38.2271 273.636 37.4949 274.245 36.7425C274.853 35.9901 275.482 35.2369 276.169 34.5013C276.82 33.8449 277.307 32.9603 278.199 32.2273C279.092 31.5138 280.095 31.1864 280.877 30.6718C281.659 30.1571 282.279 29.4531 282.747 28.569C283.235 27.7038 283.649 26.6754 284.359 25.7537C284.686 25.3036 285.158 24.8581 285.537 24.5329C285.925 24.1782 286.294 23.8242 286.632 23.442C287.299 22.6875 287.884 21.7994 287.981 20.9087C288.04 20.0583 287.673 18.979 287.047 18.3376L287.066 18.3369Z" fill="#E1E6F0"/>
<path d="M302.527 4.41504C304.143 2.30158 305.623 0.212302 307.143 -1.57603C308.653 -3.37377 310.173 -4.85984 311.589 -5.95227C312.293 -6.48371 312.823 -6.9701 313.194 -7.52902C313.566 -8.08794 313.85 -8.63407 314.168 -9.03513C314.832 -9.86748 315.443 -9.97642 315.464 -9.93814C315.515 -9.85217 315.007 -9.59077 314.527 -8.79405C314.287 -8.39569 314.071 -7.84219 313.722 -7.20603C313.373 -6.55038 312.761 -5.91485 312.087 -5.35521C310.789 -4.22787 309.367 -2.72571 307.935 -0.930671C306.503 0.864367 305.052 2.9429 303.417 5.09599C300.15 9.44113 296.444 12.6411 293.962 15.0966C291.429 17.5051 289.941 19.0778 289.821 18.9844C289.71 18.881 290.997 17.1203 293.397 14.5506C295.758 11.9433 299.343 8.65001 302.527 4.43452L302.527 4.41504Z" fill="#E1E6F0"/>
<path d="M299.63 3.76531C301.145 2.10393 302.321 0.259182 303.664 -1.27925C304.331 -2.05317 305.029 -2.74041 305.741 -3.32089C306.483 -3.89263 307.161 -4.31594 307.77 -4.76608C308.989 -5.62742 309.94 -6.36238 310.485 -6.96634C311.06 -7.56156 311.055 -8.00024 311.132 -8.02242C311.161 -8.03317 311.214 -7.90822 311.212 -7.66439C311.181 -7.42929 311.076 -7.07459 310.815 -6.71451C310.323 -5.96615 309.416 -5.11566 308.239 -4.15829C307.66 -3.67993 306.965 -3.178 306.33 -2.63919C305.695 -2.0809 305.064 -1.40572 304.456 -0.633828C303.219 0.871671 302.053 2.74525 300.474 4.49665C298.913 6.2279 297.335 7.73546 296.049 9.21343C294.782 10.6907 293.641 12.1539 292.535 13.1965C291.44 14.2681 290.411 15.0058 289.604 15.3653C288.807 15.7342 288.31 15.7417 288.299 15.6933C288.267 15.6067 288.71 15.4548 289.387 14.9926C290.074 14.5397 290.974 13.7577 291.961 12.6606C292.978 11.5723 293.993 10.1427 295.266 8.55798C296.55 7.0021 298.127 5.45552 299.64 3.77466L299.63 3.76531Z" fill="#E1E6F0"/>
<path d="M262.696 61.9399C263.167 60.5488 263.25 58.9467 263.984 57.5756C264.808 56.2697 265.678 55.4595 266.462 54.701C267.247 53.9814 267.961 53.4595 268.518 53.2061C269.085 52.9427 269.446 52.9594 269.458 53.0273C269.471 53.1146 269.182 53.2221 268.745 53.5688C268.298 53.9061 267.703 54.4825 267.026 55.247C266.379 56.0007 265.505 56.9964 264.897 58.051C264.329 59.1628 264.273 60.6762 263.752 62.3031C263.619 62.7075 263.419 63.124 263.119 63.5049L262.997 63.6359C262.95 63.7058 262.865 63.777 262.818 63.8274C262.675 63.9201 262.569 63.9725 262.473 64.0148C262.262 64.1002 262.078 64.1553 261.915 64.2292C261.751 64.2836 261.597 64.3475 261.482 64.41C261.358 64.4825 261.33 64.5128 261.197 64.6344C260.99 64.8561 260.823 65.1154 260.696 65.3928C260.422 65.9483 260.295 66.5281 260.256 67.095C260.207 67.6915 260.188 68.2772 260.118 68.8159C260.009 69.941 259.423 70.7707 259.007 71.1752C258.573 71.5997 258.286 71.7657 258.236 71.7187C258.175 71.6623 258.371 71.3922 258.667 70.9139C258.972 70.4255 259.33 69.7403 259.336 68.7455C259.358 68.2572 259.329 67.6829 259.348 67.0582C259.345 66.3952 259.477 65.6691 259.775 64.9665C259.929 64.6198 260.132 64.2617 260.413 63.94C260.526 63.7995 260.762 63.5671 260.963 63.4723C261.164 63.3581 261.366 63.2829 261.549 63.2083C261.934 63.0584 262.253 62.9791 262.278 62.832C262.465 62.5915 262.611 62.2939 262.726 61.9486L262.696 61.9399Z" fill="#E1E6F0"/>
<path d="M258.9 60.0909C259.788 58.9193 261.144 58.375 262.023 57.8374C262.463 57.5687 262.89 57.2321 263.095 56.9325C263.327 56.5831 263.487 56.1096 263.775 55.6998C264.38 54.8305 265.163 54.6376 265.576 54.438C266.019 54.2667 266.259 54.1511 266.31 54.2175C266.36 54.2646 266.183 54.5145 265.793 54.8108C265.423 55.1259 264.771 55.4605 264.461 56.0953C264.287 56.4231 264.185 56.8752 263.9 57.4019C263.568 57.9595 263.112 58.3262 262.607 58.685C261.597 59.3831 260.51 59.8206 259.782 60.8014C259.36 61.2938 258.948 61.8151 258.447 62.2713C257.955 62.7369 257.343 63.0896 256.755 63.2952C255.558 63.6682 254.607 63.7792 253.827 64.0695C252.284 64.5911 251.642 65.5201 251.492 65.3986C251.374 65.3637 251.811 64.1686 253.52 63.3488C254.325 62.9309 255.429 62.6976 256.382 62.3428C257.355 61.9873 258.067 61.1241 258.929 60.0801L258.9 60.0909Z" fill="#E1E6F0"/>
<path d="M244.576 44.1664C245.339 43.0479 245.852 41.7722 246.477 40.639C246.789 40.0626 247.114 39.5541 247.498 39.0825C247.891 38.6008 248.338 38.2635 248.748 37.986C249.559 37.4411 250.21 37.0871 250.629 36.78C251.038 36.4831 251.255 36.2707 251.315 36.3271C251.366 36.3742 251.278 36.6698 250.912 37.1017C250.566 37.533 249.919 38.0234 249.217 38.6133C248.486 39.1945 247.918 40.004 247.381 41.1245C246.832 42.2161 246.359 43.5294 245.485 44.8078C244.621 46.0956 243.392 46.9475 242.945 47.8698C242.44 48.7942 242.817 49.8634 242.928 50.8542C243.087 51.8335 242.873 52.7283 242.597 53.2059C242.34 53.7024 242.113 53.9052 242.044 53.8784C241.837 53.7978 242.61 52.7276 242.143 50.9887C242.04 50.5339 241.888 50.0712 241.779 49.4606C241.672 48.8695 241.686 48.1279 242.005 47.4441C242.651 46.0858 243.844 45.3131 244.567 44.1765L244.576 44.1664Z" fill="#E1E6F0"/>
<path d="M241.682 42.874C242.526 41.8892 243.468 41.1837 244.315 40.5596C245.162 39.9354 245.905 39.4026 246.483 38.9048C247.669 37.9373 248.128 37.0829 248.287 37.1554C248.424 37.1896 248.177 38.261 247.028 39.471C245.958 40.7171 244.029 41.9151 242.534 43.5953C241.791 44.3914 241.46 45.573 240.404 46.3604C239.336 47.08 238.271 47.0291 237.513 47.0944C235.973 47.1087 235.213 47.7202 235.101 47.5778C235.051 47.5308 235.189 47.3017 235.57 47.0154C235.94 46.7198 236.613 46.443 237.409 46.3179C238.174 46.1646 239.127 46.0731 239.791 45.543C240.457 45.0519 240.828 43.8885 241.692 42.8834L241.682 42.874Z" fill="#E1E6F0"/>
<path d="M261.152 93.9744C260.668 92.0312 260.004 90.26 259.212 88.7273C258.382 87.2349 257.481 85.9595 256.563 85.0455C254.746 83.1778 253.239 82.4304 253.34 82.2416C253.367 82.1724 253.761 82.3148 254.445 82.6519C254.792 82.8057 255.218 83.0151 255.648 83.3415C256.078 83.6679 256.635 83.9801 257.1 84.4711C258.144 85.371 259.172 86.6712 260.111 88.2281C260.984 89.8165 261.729 91.6824 262.235 93.7028C263.199 97.755 263.198 101.529 263.064 104.215C262.91 106.902 262.604 108.541 262.467 108.526C262.301 108.522 262.333 106.853 262.283 104.203C262.234 101.552 262.091 97.8714 261.171 93.9737L261.152 93.9744Z" fill="#E1E6F0"/>
<path d="M270.266 82.2045C267.771 80.4773 265.114 79.448 263.202 78.8511C261.271 78.255 260.013 78.2304 260.007 78.0551C259.983 77.9194 261.32 77.6585 263.391 78.084C265.453 78.5002 268.234 79.4374 270.909 81.2949C273.597 83.2397 275.07 85.8994 275.941 87.7511C276.794 89.6425 277.186 90.8576 277.051 90.9207C276.908 90.994 276.256 89.8757 275.242 88.1167C274.209 86.3778 272.714 83.9626 270.256 82.1951L270.266 82.2045Z" fill="#E1E6F0"/>
<path d="M283.06 73.1894C277.779 72.1243 272.893 71.806 269.396 72.2197C265.899 72.5944 263.872 73.513 263.798 73.3303C263.766 73.2631 264.244 72.9735 265.167 72.571C266.099 72.1779 267.508 71.7391 269.292 71.4432C272.86 70.8126 277.917 71.0079 283.267 72.0999C285.955 72.5918 288.509 73.4296 290.651 74.506C292.802 75.5528 294.578 76.7784 296 77.8797C298.824 80.1026 300.275 81.7977 300.18 81.879C300.057 82.01 298.428 80.5259 295.533 78.5005C292.658 76.4939 288.355 74.0785 283.05 73.18L283.06 73.1894Z" fill="#E1E6F0"/>
<path d="M211.877 42.4153C208.636 40.2556 205.272 39.0753 202.778 38.5767C200.274 38.0491 198.658 38.1052 198.661 37.9198C198.647 37.7935 200.274 37.4641 202.918 37.8015C205.533 38.1302 209.129 39.2439 212.49 41.4969C214.175 42.6184 215.687 43.8044 216.863 45.1483C218.02 46.4928 218.844 47.8099 219.562 48.8772C220.951 51.062 222.051 52.1842 221.949 52.3145C221.855 52.4348 220.505 51.4382 218.924 49.338C218.11 48.3131 217.229 47.0565 216.096 45.8282C214.974 44.6287 213.482 43.481 211.877 42.4153Z" fill="#E1E6F0"/>
<path d="M221.816 34.563C220.034 31.4264 217.958 28.8461 216.219 27.2779C214.488 25.6607 213.06 25.2324 213.113 25.0746C213.109 24.9382 214.753 25.1348 216.716 26.6854C218.687 28.187 220.919 30.7814 222.773 34.0228C223.704 35.6287 224.386 37.3602 224.693 38.9682C225.01 40.5856 225.021 42.0674 224.954 43.2886C224.792 45.7222 224.431 47.1778 224.294 47.1631C224.118 47.1497 224.214 45.6544 224.174 43.2766C224.144 42.0978 224.048 40.6872 223.696 39.188C223.353 37.6787 222.706 36.1313 221.806 34.5731L221.816 34.563Z" fill="#E1E6F0"/>
<path d="M229.001 19.2556C228.128 16.1753 226.941 13.3496 225.488 11.011C224.054 8.6522 222.345 6.81005 220.778 5.44071C217.587 2.72353 215.078 1.75735 215.179 1.56858C215.206 1.4994 215.846 1.70146 216.945 2.1802C218.034 2.6885 219.583 3.51242 221.275 4.84816C222.968 6.18389 224.805 8.05091 226.348 10.4742C227.91 12.8773 229.178 15.7977 230.064 18.9653C230.95 22.1329 231.425 25.2562 231.5 28.1009C231.605 30.9543 231.369 33.5075 231.089 35.6234C230.799 37.7494 230.465 39.4381 230.202 40.6076C229.939 41.7771 229.745 42.4078 229.677 42.4005C229.5 42.3676 229.92 39.7593 230.316 35.5429C230.712 31.346 230.807 25.4531 229.002 19.2751L229.001 19.2556Z" fill="#E1E6F0"/>
<path d="M196.97 -1.85362C197.714 -2.36693 198.429 -2.56721 198.584 -2.3093C198.738 -2.05139 198.291 -1.43137 197.577 -0.928814C196.862 -0.426258 196.128 -0.225306 195.963 -0.473138C195.789 -0.730371 196.247 -1.34099 196.97 -1.85362Z" fill="#E1E6F0"/>
<path d="M192.342 -0.347228C193.079 -1.05533 193.872 -1.25831 194.046 -1.02055C194.24 -0.763995 193.734 -0.141914 193.12 0.454664C192.505 1.03176 192.054 1.53495 191.749 1.43828C191.453 1.351 191.577 0.391114 192.333 -0.337141L192.342 -0.347228Z" fill="#E1E6F0"/>
<path d="M142.683 64.1668C142.162 64.0191 141.664 63.7243 141.409 63.3919C141.145 63.0695 141.126 62.7874 141.23 62.696C141.508 62.5401 142.055 62.8624 143.018 63.1021C143.501 63.2511 143.986 63.4586 144.286 63.7017C144.587 63.9448 144.693 64.1947 144.619 64.3142C144.412 64.5359 143.725 64.4232 142.693 64.1567L142.683 64.1668Z" fill="#E1E6F0"/>
<path d="M146.766 63.1122C145.635 62.5468 144.944 61.6932 145.15 61.4521C145.347 61.221 146.227 61.5902 147.279 62.1193C148.33 62.6485 149.149 63.2441 149.023 63.541C148.905 63.8084 147.896 63.6776 146.766 63.1122Z" fill="#E1E6F0"/>
<path d="M139.729 58.2959C138.855 57.5363 138.229 56.895 138.347 56.6276C138.474 56.3307 139.537 56.6448 140.441 57.4326C141.345 58.2203 141.915 58.9417 141.758 59.1909C141.592 59.4697 140.622 59.0548 139.728 58.2764L139.729 58.2959Z" fill="#E1E6F0"/>
<path d="M172.372 70.9202C169.817 70.3261 167.556 69.4976 166.009 68.7127C164.462 67.9277 163.62 67.2548 163.694 67.1352C163.777 66.9861 164.737 67.4111 166.326 67.9899C167.906 68.5787 170.122 69.2527 172.628 69.8387C177.648 70.9421 181.817 71.7045 181.76 72.0477C181.71 72.303 177.509 72.039 172.381 70.9101L172.372 70.9202Z" fill="#E1E6F0"/>
<path d="M140.356 3.84838C138.315 2.58323 136.142 2.02474 134.577 1.60116C133.004 1.20713 132.011 0.958769 132.034 0.792181C132.049 0.655151 133.082 0.619389 134.736 0.825324C136.363 1.06149 138.708 1.51647 140.958 2.90115C143.189 4.30598 144.619 6.24563 145.485 7.63927C146.342 9.06247 146.725 10.0243 146.601 10.0969C146.457 10.1896 145.845 9.37221 144.837 8.09077C143.82 6.83888 142.397 5.11353 140.366 3.8383L140.356 3.84838Z" fill="#E1E6F0"/>
<path d="M125.58 1.63311C124.062 1.42245 122.978 1.39173 122.872 1.12239C122.838 0.977312 123.123 0.752893 123.654 0.607716C124.185 0.462538 124.936 0.446322 125.699 0.517394C127.217 0.728055 128.321 0.797032 128.418 1.07644C128.452 1.22153 128.157 1.43652 127.625 1.56222C127.093 1.68792 126.362 1.7035 125.589 1.62303L125.58 1.63311Z" fill="#E1E6F0"/>
<path d="M109.523 18.5812C107.647 16.4133 105.772 14.5866 104.486 13.1587C103.201 11.7504 102.496 10.7899 102.599 10.6791C102.703 10.5682 103.606 11.3366 105.033 12.5938C106.45 13.861 108.429 15.6158 110.366 17.8402C112.322 20.0444 113.649 22.4361 114.411 24.2039C115.172 25.9717 115.493 27.1209 115.348 27.1747C115.194 27.2385 114.643 26.1948 113.71 24.55C112.778 22.9051 111.427 20.7189 109.522 18.5617L109.523 18.5812Z" fill="#E1E6F0"/>
<path d="M97.7023 9.31566C96.8725 8.99338 96.2417 8.49842 96.3588 8.21158C96.4666 7.93482 97.2369 7.93736 98.1258 8.27709C99.0248 8.62623 99.5924 9.26967 99.4155 9.51957C99.2486 9.77888 98.5315 9.61845 97.7117 9.30558L97.7023 9.31566Z" fill="#E1E6F0"/>
<path d="M172.194 34.6893C172.242 32.6204 172.518 30.6705 172.918 28.9307C173.348 27.1996 173.872 25.67 174.446 24.4508C175.563 22.0036 176.631 20.699 176.731 20.7735C176.89 20.8655 176.08 22.2977 175.168 24.7476C174.255 27.1974 173.378 30.7187 173.306 34.6898C173.253 38.6603 174.006 42.2128 174.839 44.6899C175.653 47.1676 176.423 48.6231 176.261 48.7165C176.165 48.7783 175.137 47.4586 174.097 44.9593C173.569 43.7295 173.088 42.1861 172.727 40.4336C172.386 38.6805 172.175 36.7279 172.203 34.6597L172.194 34.6893Z" fill="#E1E6F0"/>
<path d="M180.057 15.5399C180.637 14.8178 181.306 14.3851 181.556 14.5812C181.806 14.7773 181.509 15.5189 180.929 16.241C180.348 16.9632 179.68 17.3959 179.43 17.1998C179.18 17.0037 179.477 16.2621 180.057 15.5399Z" fill="#E1E6F0"/>
<path d="M290.607 58.5574C289.395 58.4824 288.379 58.4395 288.321 58.1393C288.252 57.8491 289.299 57.3741 290.667 57.4632C292.035 57.5328 293.02 58.113 292.922 58.3991C292.825 58.7048 291.808 58.623 290.597 58.5675L290.607 58.5574Z" fill="#E1E6F0"/>
<path d="M210.051 85.586C211.025 83.5143 212.187 81.8261 213.064 80.6451C213.951 79.4735 214.582 78.7983 214.712 78.8816C214.841 78.9649 214.44 79.7979 213.722 81.0709C213.014 82.3533 211.989 84.0757 211.051 86.0486C210.112 88.0216 209.522 89.9045 209.257 91.3178C208.972 92.7123 208.925 93.6305 208.75 93.6366C208.613 93.6413 208.388 92.7326 208.474 91.2279C208.55 89.7139 209.057 87.6584 210.041 85.5961L210.051 85.586Z" fill="#E1E6F0"/>
<path d="M213.232 87.6317C214.052 85.6238 215.508 84.5496 215.701 84.7672C215.932 84.9834 214.971 86.2746 214.251 88.0547C213.51 89.8161 213.29 91.4033 212.968 91.4047C212.677 91.4343 212.392 89.6403 213.232 87.6317Z" fill="#E1E6F0"/>
<path d="M246.252 81.4932C248.821 80.1561 250.447 78.3544 250.688 78.5605C250.937 78.6982 249.58 80.9977 246.763 82.4799C243.966 83.981 241.299 83.8296 241.328 83.5361C241.298 83.2056 243.695 82.8787 246.243 81.5033L246.252 81.4932Z" fill="#E1E6F0"/>
<path d="M249.861 71.8397C248.742 70.7376 247.4 70.5598 247.39 70.2482C247.385 70.1118 247.759 69.933 248.405 69.9887C249.04 70.0349 249.919 70.3653 250.624 71.0429C251.349 71.7199 251.709 72.585 251.779 73.2164C251.859 73.8572 251.706 74.2427 251.56 74.2381C251.248 74.2489 251.008 72.9115 249.851 71.8497L249.861 71.8397Z" fill="#E1E6F0"/>
<path d="M232.329 56.0479C231.775 54.624 230.621 53.9424 230.718 53.6562C230.763 53.5279 231.181 53.5037 231.737 53.7964C232.302 54.0791 232.967 54.7192 233.339 55.6326C233.72 56.536 233.703 57.4629 233.498 58.0648C233.304 58.6761 232.992 58.9502 232.863 58.8864C232.576 58.7501 232.923 57.4704 232.3 56.0586L232.329 56.0479Z" fill="#E1E6F0"/>
<path d="M242.133 63.4125C241.133 62.667 240.63 61.6119 240.478 60.8468C240.325 60.0623 240.474 59.5793 240.621 59.584C240.922 59.5443 241.216 61.3478 242.806 62.5311C243.186 62.8104 243.662 63.0669 244.074 63.4329C244.495 63.7694 244.814 64.2751 244.887 64.7017C244.98 65.147 244.885 65.5305 244.736 65.7307C244.577 65.941 244.432 65.9753 244.382 65.9283C244.271 65.8249 244.424 65.4393 244.135 64.9423C243.902 64.4043 243.171 64.1176 242.133 63.4125Z" fill="#E1E6F0"/>
<path d="M334.652 61.622C335.267 60.177 335.207 58.6677 335.16 57.5675C335.103 56.4578 335.089 55.7465 335.245 55.7216C335.39 55.6874 335.685 56.3402 335.937 57.4626C336.188 58.5655 336.421 60.2931 335.68 62.0544C334.949 63.7862 333.593 64.935 332.517 65.4403C331.423 65.9658 330.672 65.9431 330.648 65.8074C330.613 65.6428 331.258 65.3962 332.114 64.762C332.971 64.1472 334.028 63.077 334.642 61.6126L334.652 61.622Z" fill="#E1E6F0"/>
<path d="M335.407 49.7558C335.458 48.9349 335.629 48.2269 335.94 48.1966C336.241 48.157 336.578 48.8864 336.512 49.8248C336.455 50.7531 336.039 51.4403 335.744 51.3725C335.439 51.2953 335.367 50.586 335.407 49.7558Z" fill="#E1E6F0"/>
<path d="M248.288 13.4215C248.435 18.3894 247.7 22.3835 247.406 22.3351C247.083 22.2976 247.321 18.3304 247.177 13.4404C247.063 8.55916 246.609 4.60627 246.919 4.55651C247.2 4.49803 248.16 8.43338 248.278 13.412L248.288 13.4215Z" fill="#E1E6F0"/>
<path d="M242.743 28.9407C243.042 27.3897 243.865 26.347 244.124 26.4941C244.401 26.6405 244.098 27.7724 243.823 29.1568C243.547 30.5413 243.401 31.7067 243.08 31.7276C242.788 31.7572 242.424 30.4924 242.733 28.9313L242.743 28.9407Z" fill="#E1E6F0"/>
<path d="M309.067 57.4576C302.324 55.2536 296.461 55.759 296.459 55.3983C296.445 55.272 297.887 54.9587 300.266 54.9543C302.635 54.9405 305.942 55.2939 309.412 56.4023C312.871 57.5208 315.773 59.1364 317.691 60.5326C319.619 61.9186 320.612 63.0154 320.527 63.1061C320.312 63.3963 315.836 59.573 309.077 57.467L309.067 57.4576Z" fill="#E1E6F0"/>
<path d="M275.598 61.9912C274.383 62.1211 273.364 61.9809 273.325 61.6799C273.286 61.379 274.259 61.0235 275.473 60.8937C276.688 60.7638 277.706 60.9041 277.746 61.205C277.785 61.5059 276.822 61.8708 275.608 62.0006L275.598 61.9912Z" fill="#E1E6F0"/>
<path d="M388.9 82.4785C387.322 82.2309 386.01 82.0814 386 81.7697C385.98 81.4681 387.363 81.1179 389.078 81.3803C390.783 81.6332 392.007 82.3806 391.899 82.6574C391.792 82.9536 390.488 82.7161 388.919 82.4779L388.9 82.4785Z" fill="#E1E6F0"/>
<path d="M316.048 79.0963C315.988 76.1341 315.393 73.5025 314.699 71.7031C314.014 69.8936 313.337 68.864 313.48 68.7713C313.574 68.69 314.51 69.5644 315.42 71.3953C316.348 73.2061 317.094 75.9788 317.159 79.0774C317.223 82.1759 316.739 84.9132 316.336 86.8578C315.914 88.8032 315.544 89.9861 315.397 89.9619C315.24 89.9284 315.335 88.6965 315.562 86.7384C315.77 84.781 316.118 82.068 316.058 79.1057L316.048 79.0963Z" fill="#E1E6F0"/>
<path d="M311.991 98.1052C311.962 96.9263 312.183 95.9631 312.495 95.9523C312.806 95.9415 313.072 96.8879 313.102 98.0667C313.131 99.2455 312.91 100.209 312.598 100.22C312.287 100.23 312.021 99.284 311.991 98.1052Z" fill="#E1E6F0"/>
<path d="M225.189 -8.85892C220.648 -9.94967 216.786 -9.38684 216.746 -9.72671C216.649 -9.98665 220.62 -11.0896 225.436 -9.94985C230.26 -8.85914 233.345 -6.109 233.136 -5.92626C232.951 -5.6468 229.747 -7.84676 225.179 -8.86833L225.189 -8.85892Z" fill="#E1E6F0"/>
<path d="M200.283 66.3656C195.52 63.8978 192.554 60.6366 192.762 60.4538C192.988 60.212 196.192 62.997 200.805 65.3821C205.391 67.7975 209.52 68.8245 209.444 69.149C209.414 69.423 205.036 68.8628 200.283 66.3656Z" fill="#E1E6F0"/>
<path d="M240.653 94.774C240.564 93.295 240.611 92.0745 240.922 92.0247C241.222 91.9656 241.682 93.1685 241.763 94.7161C241.853 96.2537 241.534 97.5031 241.241 97.4937C240.929 97.485 240.742 96.2726 240.654 94.7935L240.653 94.774Z" fill="#E1E6F0"/>
<path d="M242.533 101.963C242.282 100.578 242.733 99.4893 243.028 99.5571C243.332 99.6148 243.404 100.607 243.618 101.77C243.823 102.923 244.108 103.888 243.831 104.044C243.583 104.209 242.764 103.35 242.513 101.964L242.533 101.963Z" fill="#E1E6F0"/>
</svg>
