<svg width="248" height="80" viewBox="0 0 248 80" fill="none" xmlns="http://www.w3.org/2000/svg">
<path d="M44.9125 28.9866C44.2944 28.9866 43.6763 28.9866 42.9758 28.9866C42.2341 28.1452 41.616 27.3439 40.9155 26.5026C39.9266 25.3006 38.9788 24.1387 37.9898 22.9368C37.7426 22.6964 37.619 22.456 37.3717 22.2156C36.63 21.4944 36.63 21.4944 35.6823 21.4944V24.6996C35.6823 25.4208 35.5587 27.6644 36.3004 28.1452C36.6712 28.3856 37.1657 28.3856 37.5366 28.3856C37.6602 28.3856 37.9074 28.3856 38.0311 28.3856V28.9866C36.7949 28.9866 35.5999 28.8664 34.3637 28.8664C33.1275 28.8664 31.9325 28.8664 30.6963 28.9866V28.3856C30.8199 28.3856 31.0671 28.3856 31.1908 28.3856C31.5616 28.3856 32.0561 28.3856 32.427 28.1452C33.1687 27.6644 33.0451 25.4208 33.0451 24.6996V17.2075C33.0451 16.3661 33.1687 14.1224 32.3033 13.6417C31.9325 13.5215 31.5616 13.5215 31.1908 13.4013H30.6963V12.8003C31.9325 12.8003 33.1275 12.9205 34.3637 12.9205C35.7235 12.9205 37.0421 12.8003 38.2783 12.8003C39.6381 12.8003 40.9567 12.8003 42.1929 13.5215C43.4291 14.2426 43.8824 15.5247 43.8824 16.8469C43.8824 18.4094 43.017 19.8117 41.5748 20.4127C40.8331 20.7732 40.215 20.8934 39.3909 21.0136L44.8713 27.1837C45.6131 28.025 46.1075 28.2654 47.1789 28.3856V28.9866C46.396 28.9866 45.6543 28.9866 44.9125 28.9866ZM37.4954 13.5615C37.3717 13.5615 36.0119 13.5615 35.8059 13.6817C35.5587 13.8019 35.5587 14.0423 35.5587 14.2827V21.0537H36.3004C37.6602 21.0537 39.8441 20.8133 40.5859 19.6114C40.9567 19.0104 41.0803 18.169 41.0803 17.6081C41.0391 15.2042 40.0502 13.5615 37.4954 13.5615Z" fill="#E1E6F0"/>
<path d="M53.4818 29.3465C50.3089 29.3465 47.5068 26.9827 47.5068 23.7775C47.5068 20.5723 50.3089 18.3286 53.4818 18.3286C56.6547 18.3286 59.5803 20.6925 59.5803 23.7775C59.5803 27.1029 56.7783 29.3465 53.4818 29.3465ZM53.4818 18.8895C50.8034 18.8895 49.938 21.4938 49.938 23.7374C49.938 25.981 50.5561 28.8257 53.4818 28.8257C56.2838 28.8257 56.9019 26.2214 56.9019 23.9778C57.0255 21.614 56.4074 18.8895 53.4818 18.8895Z" fill="#E1E6F0"/>
<path d="M69.8407 20.0914C69.3462 21.0529 68.9754 22.0946 68.4809 23.0562L65.1844 30.5483C64.9371 31.0291 64.319 32.4314 64.319 32.4314C64.0718 33.0324 63.4537 34.4347 62.506 34.4347C62.1351 34.4347 61.7642 34.1943 61.7642 33.7135C61.7642 32.8721 62.506 32.6317 63.1241 32.3913C63.8658 32.0308 63.9894 31.55 64.2366 30.7487L65.102 28.7454L61.4346 20.4519C60.9401 19.3702 60.8165 19.1298 59.7451 19.0096V18.5288C60.6105 18.5288 61.4346 18.5288 62.4235 18.5288C63.4125 18.5288 64.2366 18.5288 65.102 18.5288V19.1298C64.4839 19.25 63.6185 19.0096 63.6185 19.851C63.6185 20.4519 64.2366 21.8542 64.4839 22.4552L66.1733 26.5018L68.11 21.8542C68.3573 21.3734 68.7281 20.4119 68.7281 19.851C68.7281 19.1298 67.8628 19.1298 67.3683 19.1298V18.5288C67.9864 18.5288 68.6045 18.5288 69.1814 18.5288C69.7995 18.5288 70.4176 18.5288 70.8709 18.5288V19.1298C70.2116 19.1298 70.2116 19.3702 69.8407 20.0914Z" fill="#E1E6F0"/>
<path d="M80.8024 29.2277C79.6898 29.2277 78.9893 28.6268 78.7421 27.6652C77.5059 28.6268 76.1872 29.4281 74.5802 29.4281C73.2204 29.4281 72.0254 28.7069 72.0254 27.3046C72.0254 25.3014 73.9621 24.46 75.6928 23.7388L77.5059 22.8975C77.7531 22.7773 78.3712 22.5369 78.4948 22.2965C78.6184 22.1763 78.6184 21.9359 78.6184 21.6955C78.6184 19.9326 78.3712 18.8509 76.4345 18.8509C75.1983 18.8509 74.2505 18.9711 74.1269 20.2932C74.0033 20.8942 73.7561 21.375 73.138 21.375C72.6435 21.375 72.2726 21.0144 72.2726 20.5336C72.2726 18.6505 75.5692 18.4102 76.929 18.4102C79.3602 18.4102 80.9672 19.0111 80.9672 21.6154V26.2629C80.9672 26.8639 80.9672 28.146 81.8325 28.146C82.327 28.146 82.5743 27.9056 82.8215 27.545L83.316 27.7854C82.6567 28.5066 81.915 29.2277 80.8024 29.2277ZM78.6184 22.9375C77.8767 23.1779 77.135 23.5385 76.5581 23.8991C75.4455 24.5001 74.2505 25.2212 74.2505 26.5033C74.2505 27.4649 74.8686 28.2662 75.8576 28.2662C76.9702 28.2662 77.9179 27.545 78.6596 26.8238V22.9375H78.6184Z" fill="#E1E6F0"/>
<path d="M86.8184 28.9871C85.8295 28.9871 85.0053 28.9871 84.0164 29.1073V28.5063C85.6234 28.3861 85.7059 28.2659 85.7059 26.7434C85.7059 26.3828 85.7059 26.0222 85.7059 25.6617V16.7672C85.7059 16.046 85.8295 14.6437 85.0878 14.2832C84.7169 14.163 84.2224 14.0428 83.8516 14.0428V13.562C85.2114 13.4418 86.53 13.0812 87.8898 12.8408V25.6617C87.8898 26.0222 87.8898 26.3828 87.8898 26.7434C87.8898 28.3059 88.0134 28.306 89.5793 28.5063V29.1073C88.6315 28.9871 87.6426 28.9871 86.8184 28.9871Z" fill="#E1E6F0"/>
<path d="M21.2592 47.1752C19.6521 48.3771 17.9626 48.2569 16.1496 48.2569C15.1606 48.2569 14.0892 48.2569 13.1003 48.2569C12.7294 48.2569 12.3586 48.2569 11.9877 48.2569C10.7515 48.2569 9.55651 48.3771 8.32031 48.3771V47.7762C8.44393 47.7762 8.69117 47.7762 8.81479 47.7762C9.18565 47.7762 9.68013 47.7762 10.051 47.5358C10.9163 47.055 10.6691 44.8113 10.6691 44.0902V36.598C10.6691 35.7566 10.7927 33.6332 10.051 33.1524C9.68013 32.912 9.18565 32.912 8.81479 32.912C8.69117 32.912 8.44393 32.912 8.32031 32.912V32.311C9.80375 32.311 11.246 32.4312 12.7294 32.4312C13.7184 32.4312 14.6661 32.311 15.6551 32.311C18.2099 32.311 21.1355 33.1524 21.1355 36.1172C21.1355 37.4394 20.3938 38.4811 19.1988 39.2022C18.5807 39.4426 17.9626 39.683 17.3858 39.8032C18.8692 40.0436 20.435 40.284 21.5476 41.3657C22.413 42.0869 22.9074 43.1286 22.9074 44.3306C22.7014 45.2521 22.2069 46.3338 21.2592 47.1752ZM14.7485 40.1638H13.1415V43.8498C13.1415 44.8113 13.0179 46.8146 14.1304 47.4156C14.6249 47.656 15.1194 47.656 15.7375 47.656H15.8611C15.9847 47.656 16.1084 47.656 16.1084 47.656C16.8501 47.5358 17.5918 47.5358 18.1687 47.1752C19.2813 46.5742 19.6521 45.1719 19.6521 44.0902C19.6521 40.8449 17.5918 40.1638 14.7485 40.1638ZM14.7485 32.7918C14.3777 32.7918 13.3887 32.6716 13.1415 33.1524C13.0179 33.2726 13.0179 33.513 13.0179 33.7534V39.5628H14.7073C16.8913 39.5628 18.2511 38.3609 18.2511 36.2374C18.2923 33.9938 17.0973 32.7918 14.7485 32.7918Z" fill="#E1E6F0"/>
<path d="M30.5316 48.5789C27.3587 48.5789 24.5566 46.2151 24.5566 43.0099C24.5566 39.8047 27.3587 37.561 30.5316 37.561C33.7045 37.561 36.6302 39.9249 36.6302 43.0099C36.5065 46.3353 33.7045 48.5789 30.5316 48.5789ZM30.408 38.122C27.7295 38.122 26.8642 40.7262 26.8642 42.9698C26.8642 45.2135 27.4823 48.0581 30.408 48.0581C33.21 48.0581 33.8281 45.4539 33.8281 43.2102C33.9517 40.8464 33.3336 38.122 30.408 38.122Z" fill="#E1E6F0"/>
<path d="M42.2337 48.5776C40.1734 48.5776 39.1844 47.7362 39.1844 45.733V38.4812H37.9482V38.2408H38.0719C39.4317 37.5196 40.3794 36.5981 40.9975 35.1558H41.3684V37.8802H44.1704V38.4812H41.3684V44.7714C41.3684 45.2522 41.3684 45.733 41.492 46.3339C41.6156 47.2955 41.8629 47.8965 42.9754 47.8965C43.8408 47.8965 44.3353 47.4157 44.7885 46.6945L45.283 47.0551C44.5413 48.217 43.4699 48.5776 42.2337 48.5776Z" fill="#E1E6F0"/>
<path d="M55.2946 48.4582C54.182 48.4582 53.4815 47.8572 53.2342 46.8957C51.998 47.8572 50.6794 48.6585 49.0724 48.6585C47.7126 48.6585 46.5176 47.9374 46.5176 46.5351C46.5176 44.5318 48.4543 43.6905 50.185 42.9693L51.998 42.1279C52.2453 42.0077 52.8634 41.7673 52.987 41.5269C53.1106 41.4067 53.1106 41.1664 53.1106 40.926C53.1106 39.1631 52.8634 38.0813 50.9267 38.0813C49.6905 38.0813 48.7427 38.2015 48.6191 39.5237C48.4955 40.1247 48.2483 40.6054 47.5065 40.6054C47.0121 40.6054 46.6412 40.2449 46.6412 39.7641C46.6412 37.881 49.9377 37.6406 51.2975 37.6406C53.7287 37.6406 55.3358 38.2416 55.3358 40.8458V45.4934C55.3358 46.0944 55.3358 47.3764 56.2011 47.3764C56.6956 47.3764 56.9428 47.1361 57.3137 46.7755L57.8082 47.0159C57.1489 47.737 56.4072 48.4582 55.2946 48.4582ZM53.1106 42.168C52.3689 42.4084 51.6272 42.769 51.0503 43.1295C49.9377 43.7305 48.7427 44.4517 48.7427 45.7338C48.7427 46.6953 49.3608 47.4966 50.3498 47.4966C51.4624 47.4966 52.4101 46.7755 53.1518 46.0543V42.168H53.1106Z" fill="#E1E6F0"/>
<path d="M69.2227 48.2179C68.2337 48.2179 67.286 48.2179 66.4207 48.3381V47.7371C68.0277 47.6169 68.1101 47.4967 68.1101 45.9742C68.1101 45.6136 68.1101 45.2531 68.1101 44.8925V42.1681C68.1101 40.5254 67.9865 38.3619 65.8026 38.3619C64.8136 38.3619 63.7422 38.8427 63.2478 39.684C62.6297 40.6456 62.6297 41.6873 62.6297 42.769V44.8925C62.6297 45.2531 62.6297 45.6136 62.6297 45.9742C62.6297 47.5368 62.7533 47.6169 64.3191 47.7371V48.3381C63.3302 48.3381 62.506 48.2179 61.5171 48.2179C60.5281 48.2179 59.704 48.2179 58.715 48.3381V47.7371C60.3221 47.6169 60.4045 47.4967 60.4045 45.9742C60.4045 45.6136 60.4045 45.2531 60.4045 44.8925V41.9277C60.4045 41.3267 60.5281 39.4436 60.0336 39.083C59.7864 38.8427 59.4155 38.8427 59.1683 38.8427H58.6738V38.3619C59.91 38.2417 60.9814 37.8811 62.094 37.5205C62.3412 38.3619 62.3412 39.083 62.4648 39.8843C63.3302 38.442 64.6488 37.6407 66.3795 37.6407C67.8629 37.6407 69.676 38.1215 70.0468 39.7641C70.1705 40.3651 70.1705 40.9661 70.1705 41.527C70.1705 42.729 70.1705 43.8909 70.1705 45.0928C70.1705 45.4534 70.1705 45.814 70.1705 46.1746C70.1705 46.6553 70.1705 47.4967 70.6649 47.7371C71.0358 47.9775 71.5303 47.9775 72.0248 47.9775V48.5785C71.0358 48.2179 70.2117 48.2179 69.2227 48.2179Z" fill="#E1E6F0"/>
<path d="M76.3087 48.2182C75.3197 48.2182 74.372 48.2182 73.5066 48.3384V47.7374C75.1137 47.6172 75.1961 47.497 75.1961 45.9746C75.1961 45.614 75.1961 45.2534 75.1961 44.8928V41.5674C75.1961 41.2068 75.1961 39.5641 75.0725 39.2035C74.8252 38.9632 74.578 38.843 74.2071 38.843C73.9599 38.843 73.589 38.843 73.3418 38.843V38.242C74.8252 38.0016 75.8966 37.7612 77.38 37.2804V44.7726C77.38 45.1332 77.38 45.4938 77.38 45.8544C77.38 47.4169 77.5037 47.497 79.0695 47.6172V48.2182C78.2454 48.2182 77.2976 48.2182 76.3087 48.2182ZM76.0614 34.4358C75.3197 34.4358 74.7016 33.8348 74.7016 33.1137C74.7016 32.3925 75.3197 31.7915 76.0614 31.7915C76.8031 31.7915 77.4212 32.3925 77.4212 33.1137C77.38 33.9951 76.8031 34.4358 76.0614 34.4358Z" fill="#E1E6F0"/>
<path d="M85.5824 48.5785C82.4095 48.5785 80.2256 46.4551 80.2256 43.3701C80.2256 39.9245 82.7804 37.4404 86.3242 37.4404C87.3131 37.4404 89.6207 37.6808 89.6207 39.0831C89.6207 39.5639 89.2498 39.9245 88.7553 39.9245C88.1372 39.9245 87.89 39.4437 87.6428 38.9629C87.2719 38.1215 87.1483 38.0013 86.1593 38.0013C83.4809 38.0013 82.6156 40.6056 82.6156 42.8492C82.6156 45.0929 83.3573 47.617 86.1593 47.617C87.5191 47.617 88.4669 47.016 89.3322 46.0544L89.8267 46.5352C88.879 47.9776 87.2719 48.5785 85.5824 48.5785Z" fill="#E1E6F0"/>
<path d="M16.4788 64.2447C16.4788 65.0861 16.4788 66.0076 16.6024 66.849C14.9129 66.849 14.5421 67.2096 13.0586 67.9307C11.6988 68.5317 10.6274 68.8923 9.02039 68.8923C6.71283 68.8923 4.73491 68.2913 3.04544 66.7688C1.35598 65.1262 0.614258 63.3232 0.614258 60.9594C0.614258 55.8711 4.15802 52.0649 9.39125 52.0649C11.328 52.0649 12.935 52.4255 14.5009 53.6275L14.9953 52.5457H15.2426L14.9953 57.3936H14.5009C14.3772 54.549 12.4405 52.7461 9.51487 52.7461C4.73491 52.7461 3.66354 57.1532 3.66354 60.9193C3.66354 64.4851 5.02336 68.2913 9.26763 68.2913C11.6988 68.2913 13.5531 67.2095 13.5531 64.6053C13.5531 63.0428 13.0586 62.6021 11.3692 62.4819V61.8809C12.4817 61.8809 13.5531 61.8809 14.7893 61.8809C15.9019 61.8809 16.8496 61.8809 17.9622 61.8809V62.4819C16.726 62.4819 16.4788 62.9626 16.4788 64.2447Z" fill="#E1E6F0"/>
<path d="M28.4284 68.6521C27.3158 68.6521 26.6153 68.0511 26.368 67.0895C25.1318 68.0511 23.8132 68.8524 22.2062 68.8524C20.8464 68.8524 19.6514 68.1312 19.6514 66.7289C19.6514 64.7257 21.5881 63.8843 23.3188 63.1631L25.1318 62.3218C25.3791 62.2016 25.9972 61.9612 26.2444 61.7208C26.368 61.6006 26.368 61.3602 26.368 61.1198C26.368 59.357 26.1208 58.2752 24.1841 58.2752C22.9479 58.2752 22.0001 58.3954 21.8765 59.7175C21.7529 60.3185 21.5057 60.7993 20.7639 60.7993C20.2695 60.7993 19.8986 60.4387 19.8986 59.9579C19.8986 58.0749 23.1951 57.8345 24.5549 57.8345C26.9861 57.8345 28.5932 58.4354 28.5932 61.0397V65.6872C28.5932 66.2882 28.5932 67.5703 29.4585 67.5703C29.953 67.5703 30.2002 67.3299 30.5711 66.9693L31.0656 67.2097C30.2827 67.9309 29.4173 68.6521 28.4284 68.6521ZM26.1208 62.482C25.3791 62.7224 24.6374 63.083 24.0605 63.4436C22.9479 64.0446 21.7529 64.7657 21.7529 66.0478C21.7529 67.0094 22.371 67.8107 23.36 67.8107C24.4725 67.8107 25.4203 67.0895 26.162 66.3683V62.482H26.1208Z" fill="#E1E6F0"/>
<path d="M40.0479 59.877C38.9354 59.877 39.1826 58.5548 38.2348 58.5548C37.4931 58.5548 36.6278 59.1558 36.2981 59.7568C35.68 60.7183 35.68 61.76 35.68 62.8418V65.0854C35.68 65.446 35.68 65.8066 35.68 66.1672C35.68 67.8099 36.0509 67.8099 37.6167 67.9301V68.531C36.6278 68.531 35.68 68.4108 34.6911 68.4108C33.7021 68.4108 32.7544 68.4108 31.7654 68.531V67.9301C33.3725 67.8099 33.4549 67.6897 33.4549 66.1672C33.4549 65.8066 33.4549 65.446 33.4549 65.0854V62.1206C33.4549 61.5196 33.5785 59.6366 32.9604 59.1558C32.7132 59.0356 32.3423 59.0356 32.0951 58.9154H31.6006V58.4346C32.8368 58.3144 33.7845 57.9538 35.0207 57.5933C35.268 58.5548 35.3916 59.2359 35.3916 60.1975C36.1333 58.635 37.2047 57.7135 39.059 57.7135C39.8007 57.7135 40.8721 58.074 40.8721 59.0356C40.9133 59.5164 40.5424 59.877 40.0479 59.877Z" fill="#E1E6F0"/>
<path d="M51.5042 68.7712C51.257 68.1702 51.1334 67.5692 51.0098 66.8881C49.8972 68.2103 48.9494 68.7712 47.0951 68.7712C43.9222 68.7712 41.7383 66.4073 41.7383 63.3223C41.7383 60.2373 43.9222 57.7533 47.2187 57.7533C48.7022 57.7533 49.7736 58.2341 50.7625 59.3158V55.1491C50.7625 53.5865 50.5153 53.266 48.8258 53.1458V52.665C50.1856 52.5448 51.5042 52.1842 52.864 51.9438V64.4842C52.864 65.2054 52.7404 66.8481 53.6058 67.3288C53.853 67.449 54.2239 67.5692 54.5947 67.5692H54.9656V68.05C53.7294 68.1702 52.6168 68.5308 51.5042 68.7712ZM50.8037 62.0002C50.8037 60.5578 50.8037 59.7565 49.5675 58.9152C49.073 58.5546 48.4549 58.4344 47.7544 58.4344C45.076 58.4344 44.2107 61.0386 44.2107 63.2823C44.2107 65.5259 44.9524 68.05 47.6308 68.05C48.6198 68.05 49.6911 67.5692 50.1856 66.7279C50.5565 66.0067 50.6801 64.6044 50.6801 63.7631C50.8037 63.2021 50.8037 62.6012 50.8037 62.0002Z" fill="#E1E6F0"/>
<path d="M65.9264 61.8802H58.3444C58.2208 62.2408 58.2208 62.6013 58.2208 63.0821C58.2208 65.446 59.457 67.8499 62.1354 67.8499C63.4953 67.8499 64.443 67.2489 65.3084 66.2072L65.8028 66.688C64.5666 68.1303 63.3716 68.6912 61.3937 68.6912C58.2208 68.6912 55.666 66.5678 55.666 63.3626C55.666 60.2776 58.0972 57.6733 61.3937 57.6733C63.8249 57.6733 66.1737 59.1157 66.1737 61.5997C66.1737 61.8802 66.1737 61.8802 65.9264 61.8802ZM61.3937 58.3144C59.457 58.3144 58.8389 59.6365 58.4681 61.2792H62.8772C63.3716 61.2792 63.8661 61.2792 63.8661 60.7984C63.8661 59.2759 63.0008 58.3144 61.3937 58.3144Z" fill="#E1E6F0"/>
<path d="M78 68.4108C77.0111 68.4108 76.0633 68.4108 75.198 68.531V67.9301C76.8051 67.8099 76.8875 67.6897 76.8875 66.1672C76.8875 65.8066 76.8875 65.446 76.8875 65.0854V62.361C76.8875 60.7183 76.7639 58.5548 74.5799 58.5548C73.5909 58.5548 72.5196 59.0356 72.0251 59.877C71.407 60.8385 71.407 61.8802 71.407 62.962V65.0854C71.407 65.446 71.407 65.8066 71.407 66.1672C71.407 67.7297 71.5306 67.8099 73.0965 67.9301V68.531C72.1075 68.531 71.2834 68.4108 70.2944 68.4108C69.3055 68.4108 68.4813 68.4108 67.4924 68.531V67.9301C69.0994 67.8099 69.1818 67.6897 69.1818 66.1672C69.1818 65.8066 69.1818 65.446 69.1818 65.0854V62.1206C69.1818 61.5196 69.3055 59.6366 68.811 59.1558C68.5637 58.9154 68.1929 58.9154 67.9456 58.9154H67.4512V58.4346C68.6874 58.3144 69.7587 57.9538 70.8713 57.5933C71.1186 58.4346 71.1186 59.1558 71.2422 59.9571C72.1075 58.5148 73.4261 57.7135 75.1568 57.7135C76.6402 57.7135 78.4533 58.1942 78.8242 59.8369C78.9478 60.4379 78.9478 61.0389 78.9478 61.5998C78.9478 62.8017 78.9478 63.9636 78.9478 65.1656C78.9478 65.5262 78.9478 65.8867 78.9478 66.2473C78.9478 66.7281 78.9478 67.5695 79.4423 67.8099C79.8131 68.0503 80.3076 68.0503 80.8021 68.0503V68.6512C79.8543 68.4108 78.8654 68.4108 78 68.4108Z" fill="#E1E6F0"/>
<path d="M86.1986 68.7708C85.2097 68.7708 84.2619 68.5304 83.3966 67.9295L82.9021 68.6506H82.5312V65.0848H83.0257C83.3966 66.7275 84.2619 68.1699 86.1986 68.1699C87.3112 68.1699 88.259 67.5689 88.259 66.407C88.259 63.8028 82.6549 64.0431 82.6549 60.5975C82.6549 58.9549 84.1383 57.7529 85.7042 57.7529C86.5695 57.7529 87.3936 57.9933 88.1353 58.3539L88.6298 57.7529H88.8771V60.8379H88.3826C87.8881 59.5158 87.3936 58.3539 85.8278 58.3539C84.9624 58.3539 84.2207 58.8347 84.2207 59.676C84.2207 60.7578 84.9624 61.1184 85.8278 61.5591C87.6409 62.5207 89.866 63.2018 89.866 65.6057C89.866 67.4487 88.1353 68.7708 86.1986 68.7708Z" fill="#E1E6F0"/>
<path d="M228.816 26.6235V27.8255L230.423 27.9457C232.112 28.1861 234.337 28.5467 235.409 29.5082C236.027 30.1092 236.521 30.8304 236.15 31.9923L226.261 57.1532L217.36 33.9955C216.742 32.433 216.495 31.7519 216.495 30.9105C216.495 29.348 217.855 28.3063 219.544 28.0659L222.964 27.8255V26.6235H201.949V27.8255L204.009 27.9457C206.07 28.0659 207.182 27.9457 208.418 29.388C209.407 30.4698 208.913 31.8721 208.789 31.9923L198.9 57.2733L190.123 33.9955C189.505 32.433 189.134 31.5115 189.134 30.5499C189.257 28.9072 190.823 28.3063 191.936 28.0659C193.048 27.8255 194.614 27.8255 194.614 27.8255V26.6235H173.97V27.8255C173.97 27.8255 175.33 27.8255 177.266 28.0659C179.079 28.3063 180.439 29.388 181.799 32.8336L194.985 67.1294L195.356 68.2111H196.098L196.592 67.1294L209.902 33.9955L222.223 67.1294L222.717 68.3313H223.582L223.953 67.2496L236.521 36.159L237.634 33.7952C238.376 32.0323 238.746 31.6717 239.241 30.7102C240.106 29.1476 242.043 28.5867 244.598 28.2261C246.205 27.8656 246.905 27.9858 247.894 27.8656V26.6636H228.816V26.6235Z" fill="#E1E6F0"/>
<path d="M146.403 66.9677C142.736 66.9677 139.439 63.1615 136.761 60.0765L117.723 32.672L128.849 20.4521C132.64 16.646 134.701 14.8831 139.11 14.5225L141.417 14.2821V12.96H121.885V14.4023C121.885 14.4023 122.998 14.4023 123.822 14.5225C125.635 14.6427 127.489 15.6043 127.489 17.1267C127.489 19.0098 125.8 20.6925 123.946 22.5756L108.946 38.7218V21.0531C108.946 15.2437 111.748 14.7629 112.614 14.6427C114.097 14.4023 115.045 14.4023 115.045 14.4023V13.0802H95.6367V14.4023C95.6367 14.4023 96.9965 14.4023 98.3151 14.5225C99.675 14.6427 101.735 15.3639 101.735 21.0531V60.7176C101.735 66.527 100.375 67.128 96.7493 67.128H95.6367V68.6905H115.416V67.128H114.18C110.512 67.128 108.946 66.527 108.946 60.8378V42.3277L112.49 38.5215L129.962 63.442C129.962 63.442 130.333 63.9228 130.456 64.5238C130.456 65.0045 130.333 65.7257 129.962 66.0863C129.344 66.9277 128.149 67.2882 125.8 67.2882H125.553C124.935 67.2882 124.687 67.2882 124.687 67.2882V68.8508H147.598V67.2882L146.403 66.9677Z" fill="#E1E6F0"/>
<path d="M178.381 42.4084C178.381 37.881 176.073 33.6341 173.601 31.2302C170.428 28.1452 165.895 26.3823 160.786 26.3823C149.289 26.3823 141.254 35.8778 141.254 47.4966C141.254 60.0771 150.525 68.7311 162.846 68.7311C168.45 68.7311 172.241 66.8481 174.343 65.1654C176.279 63.6028 177.392 62.2005 178.257 60.7582C179.617 58.5145 179.741 57.3126 179.741 57.3126L178.752 56.8318C178.752 56.8318 178.381 57.6732 177.392 59.436C176.279 61.1989 174.096 62.6413 172.983 63.3624C171.994 63.9634 169.192 65.0051 165.154 65.0051C160.168 65.0051 149.66 61.4393 149.66 42.9292V42.3282H178.505C178.381 42.5286 178.381 42.5286 178.381 42.4084ZM171.664 40.966H149.578L149.701 40.2449C150.443 33.594 154.358 27.5442 160.58 27.424C167.75 27.3439 171.664 32.6725 171.664 40.966Z" fill="#E1E6F0"/>
</svg>
