<svg width="309" height="42" viewBox="0 0 309 42" fill="none" xmlns="http://www.w3.org/2000/svg">
<path fill-rule="evenodd" clip-rule="evenodd" d="M61.3818 25.8093C61.8563 28.3711 62.3789 31.7711 62.807 32.982C64.9903 33.9618 67.5071 34.715 70.0704 34.715C76.1941 34.715 80.7997 30.6546 80.7997 25.1598C80.7997 14.7271 66.2728 17.6616 66.2728 9.23243C66.2728 6.4379 68.0762 3.9689 71.494 3.9689C75.9088 3.9689 77.2858 7.2761 78.0938 10.0691L79.28 9.9291L78.4256 3.54902C76.954 3.26909 75.6234 2.38527 72.5856 2.38527C66.2247 2.38527 62.6162 6.43633 62.6162 11.14C62.6162 20.5946 76.954 18.4527 76.954 27.0202C76.954 30.7002 74.6279 33.1236 70.973 33.1236C65.8464 33.1236 63.376 27.8584 62.6178 25.6253L61.3818 25.8093ZM91.2902 12.6765C88.8215 13.5147 86.4473 14.0729 84.2159 14.5856V15.4238C87.3963 15.7965 87.4909 15.8437 87.4909 18.6838V29.6764C87.4909 32.331 87.2056 32.5637 84.0251 32.8436V33.9618H94.7544V32.8436C91.5258 32.5637 91.2886 32.331 91.2886 29.6764V17.7072C92.8564 16.4492 94.7544 15.471 96.7005 15.471C100.024 15.471 101.021 17.6601 101.021 20.4074V29.678C101.021 32.3325 100.735 32.5653 97.555 32.8452V33.9633H108.284V32.8452C105.056 32.5653 104.818 32.3325 104.818 29.678V19.0597C104.818 18.6382 104.77 18.0799 104.722 17.7544C106.526 16.2164 108.331 15.4726 110.04 15.4726C113.646 15.4726 114.549 17.8472 114.549 20.5961V29.678C114.549 32.3325 114.265 32.5653 111.083 32.8452V33.9633H121.812V32.8452C118.584 32.5653 118.347 32.3325 118.347 29.678V19.0597C118.347 15.3326 116.163 12.7708 112.223 12.7708C109.232 12.7708 106.335 15.0998 104.389 16.4507C103.486 14.1217 101.303 12.7708 98.8807 12.7708C95.7002 12.7708 92.9942 15.1926 91.2838 16.2164V12.6765H91.2902ZM131.171 12.6765C128.702 13.5147 126.328 14.0729 124.097 14.5856V15.4238C127.277 15.7965 127.374 15.8437 127.374 18.6838V29.6764C127.374 32.331 127.088 32.5637 123.908 32.8436V33.9618H134.637V32.8436C131.408 32.5637 131.171 32.331 131.171 29.6764V12.6765ZM129.272 1.54551C127.895 1.54551 126.755 2.70923 126.755 4.15289C126.755 5.59655 127.895 6.71468 129.272 6.71468C130.697 6.71468 131.787 5.59655 131.787 4.15289C131.787 2.70923 130.697 1.54551 129.272 1.54551ZM137.438 13.3747L136.012 14.6784L136.203 15.1911H139.764V28.791C139.764 32.6093 141.426 34.5719 144.558 34.5719C144.89 34.5719 145.507 34.4335 145.983 34.2008L149.97 32.2382L149.496 31.1657C148.547 31.7239 147.502 32.0966 146.599 32.0966C145.317 32.0966 143.56 31.4 143.56 27.7201V15.1911H148.782C149.162 14.864 149.4 14.4 149.4 14.0258C149.392 13.7896 149.309 13.5618 149.162 13.3747H143.56V7.22578H142.894L139.76 10.393V13.3747H137.438ZM158.327 0.240234C155.86 1.07844 153.484 1.63672 151.253 2.14939V2.98759C154.433 3.3603 154.528 3.40747 154.528 6.24761V29.6748C154.528 32.3294 154.244 32.5621 151.062 32.8421V33.9602H161.791V32.8421C158.563 32.5621 158.325 32.3294 158.325 29.6748V17.5641C158.954 16.8771 159.722 16.3272 160.58 15.95C161.439 15.5729 162.369 15.377 163.309 15.3751C166.87 15.3751 168.106 17.6097 168.106 21.0585V29.6748C168.106 32.3294 167.82 32.5621 164.64 32.8421V33.9602H175.369V32.8421C172.141 32.5621 171.903 32.3294 171.903 29.6748V19.6164C171.903 15.6565 169.765 12.7692 165.209 12.7692C162.644 12.7692 159.986 14.4 158.324 16.122V0.240234H158.327ZM177.84 27.6273C177.84 29.4421 178.125 32.0966 178.409 32.7965C179.358 33.5403 181.589 34.5719 184.059 34.5719C187.713 34.5719 191.842 32.4222 191.842 28.0456C191.842 24.8327 189.516 23.0148 185.956 21.5711C183.867 20.7329 181.78 19.3836 181.78 17.4273C181.78 15.8909 182.775 14.2145 184.96 14.2145C186.81 14.2145 188.33 15.2854 189.802 18.4527L190.988 18.1727C190.893 17.3345 190.371 14.68 189.898 13.6074C188.613 13.0472 187.221 12.7615 185.815 12.7692C181.636 12.7692 178.598 15.6109 178.598 19.0094C178.598 22.1294 181.304 23.7602 184.438 25.1583C187.096 26.322 188.189 27.6744 188.189 29.5805C188.189 31.9111 186.527 33.122 184.77 33.122C181.921 33.122 179.738 30.0931 178.978 27.3473L177.84 27.6273ZM206.324 33.122C202.148 33.122 199.489 28.5111 199.489 22.5037C199.489 17.4729 201.91 14.2129 205.185 14.2129C209.599 14.2129 211.925 19.1037 211.925 24.3657C211.925 30.7945 209.362 33.122 206.324 33.122ZM205.802 34.5719C210.693 34.5719 216.34 30.7473 216.34 23.3419C216.34 17.3786 211.925 12.7677 205.754 12.7677C201.339 12.7677 195.071 16.2604 195.071 24.2257C195.072 29.1637 198.966 34.5719 205.802 34.5719ZM227.023 12.6293C224.556 13.4675 222.182 14.0258 219.95 14.5384V15.3766C223.131 15.7493 223.225 15.7965 223.225 18.6366V29.6764C223.225 32.331 222.94 32.5637 219.76 32.8436V33.9618H230.489V32.8436C227.26 32.5637 227.023 32.331 227.023 29.6764V17.7072C228.495 16.4492 230.348 15.471 232.246 15.471C235.856 15.471 236.757 17.8456 236.757 20.5946V29.6764C236.757 32.331 236.472 32.5637 233.291 32.8436V33.9618H244.02V32.8436C240.792 32.5637 240.555 32.331 240.555 29.6764V19.1037C240.555 15.3766 238.37 12.7692 234.383 12.7692C232.057 12.7692 229.255 14.5856 227.022 16.262V12.6293H227.023ZM253.421 12.6765C250.954 13.5147 248.578 14.0729 246.348 14.5856V15.4238C249.529 15.7965 249.623 15.8437 249.623 18.6838V29.6764C249.623 32.331 249.338 32.5637 246.157 32.8436V33.9618H256.887V32.8436C253.658 32.5637 253.421 32.331 253.421 29.6764V12.6765ZM251.523 1.54551C250.146 1.54551 249.006 2.70923 249.006 4.15289C249.006 5.59655 250.146 6.71468 251.523 6.71468C252.945 6.71468 254.036 5.59655 254.036 4.15289C254.036 2.70923 252.945 1.54551 251.523 1.54551ZM278.393 32.2382L277.964 31.1657C277.063 31.5871 276.258 31.7711 275.875 31.7711C275.165 31.7711 274.548 30.9785 274.548 29.2093V18.5454C274.548 15.2838 272.885 12.7692 268.849 12.7692C265.429 13.4219 262.534 15.1911 261.394 16.0764C260.352 16.8675 259.735 17.4273 259.735 18.1256C259.735 18.9638 261.063 19.7108 261.824 19.7108C262.088 19.7127 262.345 19.6261 262.552 19.4654C262.76 19.3047 262.905 19.0795 262.964 18.8269C263.533 16.7763 264.482 14.8215 266.856 14.8215C269.421 14.8215 270.844 16.4051 270.844 19.3412V20.9688C269.373 21.9486 265.431 23.3466 263.058 24.2776C260.545 25.2998 259.354 26.885 259.354 29.0756C259.354 31.683 261.633 34.5766 265.146 34.5766C266.191 34.5766 268.802 32.7556 270.844 31.4503C271.13 32.6612 271.84 34.2511 273.502 34.5766L278.393 32.2382ZM270.844 30.0931C269.514 31.0729 267.757 31.9111 266.617 31.9111C265.146 31.9111 263.437 30.7473 263.437 28.2312C263.437 26.2748 264.53 25.3894 265.954 24.644C267.472 23.8514 269.134 23.2004 270.844 22.5037V30.0931ZM287.46 12.6293C284.993 13.4675 282.617 14.0258 280.387 14.5384V15.3766C283.568 15.7493 283.663 15.7965 283.663 18.6366V29.6764C283.663 32.331 283.377 32.5637 280.197 32.8436V33.9618H290.926V32.8436C287.697 32.5637 287.46 32.331 287.46 29.6764V17.7072C288.932 16.4492 290.785 15.471 292.683 15.471C296.29 15.471 297.194 17.8456 297.194 20.5946V29.6764C297.194 32.331 296.909 32.5637 293.728 32.8436V33.9618H304.457V32.8436C301.226 32.5637 300.992 32.331 300.992 29.6764V19.1037C300.992 15.3766 298.807 12.7692 294.817 12.7692C292.491 12.7692 289.692 14.5856 287.459 16.262L287.46 12.6293Z" fill="#E1E6F0"/>
<path fill-rule="evenodd" clip-rule="evenodd" d="M35.173 22.7131C33.8216 20.4375 31.6896 20.4092 31.4251 20.4155L31.4267 20.4092L40.423 18.5693L31.4267 16.7324V16.7293C31.5212 16.6475 33.2702 15.1331 35.8928 15.0954C37.8726 15.0655 39.5863 12.6893 38.493 10.8635C38.493 10.8635 38.1675 13.7335 34.4741 12.7758C31.8771 12.1027 30.3494 13.5652 30.1699 13.7508L30.1683 13.7476L35.2051 6.20538L27.5184 11.1465H27.5152C27.5216 11.0349 27.6627 8.74201 29.495 6.89105C30.8736 5.49771 30.3718 2.62926 28.2831 2.09615C28.2831 2.09615 30.1218 4.35128 26.8211 6.23527C24.4998 7.56098 24.4742 9.65255 24.4806 9.91046H24.4758L22.6018 1.08496L20.7278 9.91046H20.723C20.6493 9.83026 19.0943 8.10981 19.0558 5.52916C19.0254 3.58698 16.6031 1.90587 14.7436 2.97839C14.7436 2.97839 17.6676 3.29762 16.6929 6.91935C16.0052 9.47327 17.5041 10.972 17.6884 11.1434L17.6852 11.145L9.99692 6.20381L14.1024 12.3496L15.0353 13.7461L15.0337 13.7476C14.9568 13.7445 12.5971 13.6187 10.6926 11.807C9.27233 10.4546 6.34835 10.9452 5.80491 12.9943C5.80491 12.9943 8.1037 11.1906 10.0258 14.4301C11.3804 16.7136 13.5221 16.7309 13.7753 16.7246L13.7737 16.7309L4.77734 18.5677L13.7737 20.4076V20.4108C13.7144 20.4627 11.9559 22.0086 9.306 22.0479C7.32782 22.0762 5.61414 24.4524 6.70583 26.2766C6.70583 26.2766 7.03125 23.4082 10.7231 24.3659C13.3313 25.0421 14.8606 23.5639 15.0305 23.3862L15.0353 23.3925L10.0001 30.9331L17.6852 25.9936C17.682 26.0706 17.5522 28.3839 15.707 30.2506C14.3284 31.6455 14.8302 34.514 16.9189 35.0455C16.9189 35.0455 15.0802 32.7904 18.3809 30.9048C20.707 29.5775 20.7278 27.4765 20.7214 27.2281C20.723 27.2281 20.7262 27.2281 20.7294 27.2312L22.6034 36.0551L24.4774 27.2312V27.2281C24.5447 27.302 26.1061 29.0256 26.1462 31.6109C26.1766 33.5515 28.5989 35.2358 30.46 34.1601C30.46 34.1601 27.5344 33.844 28.5091 30.2192C29.1968 27.6668 27.6995 26.1681 27.5136 25.9951C27.5152 25.992 27.5184 25.992 27.5216 25.992L35.2083 30.9316L32.5488 26.9513L30.1715 23.3909C30.2757 23.394 32.6177 23.5324 34.5094 25.3315C35.9297 26.6824 38.8537 26.1917 39.3971 24.1426C39.3923 24.1473 37.0951 25.9511 35.173 22.7131Z" fill="#E1E6F0"/>
</svg>
