<svg width="178" height="104" viewBox="0 0 178 104" fill="none" xmlns="http://www.w3.org/2000/svg">
<path d="M98.5576 72.6221H115.271V55.9199L98.5576 72.6221Z" fill="#E1E6F0"/>
<path d="M67.6455 17.124V26.9896H75.5427V72.9882H67.6455V82.8521H115.276V72.6181H91.2137V26.9896H99.9732V17.124H67.6455Z" fill="#E1E6F0"/>
<path d="M46.2813 80.3336C52.1633 75.585 53.4412 70.3332 53.4371 62.3945L53.4289 27.1801L61.7046 27.1718V17.3071L37.3876 17.3145V27.1801L42.5792 27.1718V64.059C42.5792 69.2328 38.3636 73.4131 33.1876 73.4172C26.4227 73.4237 23.8167 69.2246 23.8167 64.0508V63.9982V27.1636L29.6155 27.1718L29.6978 17.3071H0.826172L0.864026 27.1718H8.12184L8.15311 61.5787C8.15311 68.7032 8.28477 72.8061 12.0569 78.0251C15.4447 82.7111 21.3406 84.9991 30.7585 84.976C37.3909 84.9579 42.5619 83.3362 46.2813 80.3336Z" fill="#E1E6F0"/>
<path d="M170.073 49.8367C174.585 52.8714 177.66 58.24 177.691 64.5388C177.743 74.4134 167.764 82.8594 158.562 82.8479L121.494 82.8512L121.486 72.6173H129.013V26.9896H121.115V17.124H158.627C167.836 17.124 175.311 24.311 175.311 33.2867C175.311 37.3543 173.397 42.107 170.048 45.126C167.899 47.117 165.613 47.8827 165.613 47.8827C165.613 47.8827 167.626 48.247 170.073 49.8367ZM150.506 43.7534C155.858 43.7682 158.851 40.5913 158.865 35.5064C158.88 30.2652 155.488 26.997 150.49 26.9813L145.055 26.9896V43.7616L150.506 43.7534ZM151.324 72.6238C158.025 72.5918 161.069 69.2857 161.086 63.4368C161.103 57.4102 157.046 53.2653 151.298 53.2464L145.044 53.2546L145.054 72.6238H151.324Z" fill="#E1E6F0"/>
</svg>
