<svg width="245" height="72" viewBox="0 0 245 72" fill="none" xmlns="http://www.w3.org/2000/svg">
<path d="M172.69 71.6457C170.431 71.6457 168.484 71.1696 166.849 70.2175C165.229 69.2653 163.986 67.9152 163.119 66.1672C162.252 64.4192 161.818 62.3514 161.818 59.9639V59.9426C161.818 57.5692 162.252 55.5015 163.119 53.7392C164 51.9628 165.229 50.5843 166.807 49.6037C168.398 48.6231 170.274 48.1328 172.434 48.1328C174.58 48.1328 176.435 48.6089 177.998 49.5611C179.576 50.499 180.784 51.8207 181.622 53.5261C182.475 55.2315 182.901 57.2211 182.901 59.4949V61.2003H164.44V57.6616H180.364L177.806 60.9658V58.9193C177.806 57.4413 177.579 56.212 177.124 55.2315C176.669 54.2509 176.044 53.519 175.248 53.0358C174.452 52.5384 173.536 52.2897 172.498 52.2897C171.447 52.2897 170.509 52.5455 169.684 53.0571C168.874 53.5545 168.235 54.3006 167.766 55.2954C167.311 56.2902 167.084 57.4982 167.084 58.9193V60.9658C167.084 62.3443 167.311 63.5239 167.766 64.5045C168.235 65.4708 168.896 66.2169 169.748 66.7428C170.601 67.2544 171.617 67.5102 172.797 67.5102C173.678 67.5102 174.452 67.3752 175.12 67.1052C175.788 66.8209 176.335 66.4585 176.762 66.018C177.202 65.5774 177.508 65.1013 177.678 64.5897L177.721 64.4405H182.667L182.624 64.675C182.439 65.5419 182.098 66.3946 181.601 67.2331C181.103 68.0573 180.435 68.8034 179.597 69.4714C178.758 70.1393 177.764 70.6722 176.613 71.0702C175.461 71.4539 174.154 71.6457 172.69 71.6457Z" fill="#E1E6F0"/>
<path d="M149.88 71.6457C147.905 71.6457 146.214 71.3544 144.807 70.7717C143.414 70.1891 142.32 69.3719 141.524 68.3202C140.742 67.2544 140.266 66.0251 140.096 64.6324L140.074 64.4405H145.297L145.34 64.6324C145.539 65.613 146.008 66.3733 146.747 66.9133C147.5 67.4533 148.551 67.7234 149.901 67.7234C150.768 67.7234 151.507 67.6168 152.118 67.4036C152.73 67.1904 153.199 66.8778 153.525 66.4656C153.866 66.0535 154.037 65.5703 154.037 65.0161V64.9948C154.037 64.3268 153.81 63.7868 153.355 63.3746C152.9 62.9483 152.083 62.6001 150.903 62.3301L147.152 61.4987C145.716 61.1719 144.515 60.7242 143.549 60.1557C142.583 59.5873 141.858 58.8838 141.375 58.0453C140.891 57.1926 140.65 56.2049 140.65 55.0822V55.0609C140.65 53.6824 141.026 52.4744 141.78 51.437C142.533 50.3995 143.592 49.5895 144.956 49.0068C146.32 48.4241 147.905 48.1328 149.71 48.1328C151.586 48.1328 153.191 48.4455 154.527 49.0708C155.863 49.6961 156.894 50.5346 157.618 51.5862C158.357 52.6379 158.755 53.8174 158.812 55.1249L158.833 55.3594H153.888L153.866 55.1888C153.753 54.2793 153.341 53.5332 152.63 52.9505C151.92 52.3536 150.946 52.0552 149.71 52.0552C148.928 52.0552 148.246 52.1689 147.663 52.3963C147.095 52.6236 146.654 52.9434 146.341 53.3555C146.043 53.7677 145.894 54.2509 145.894 54.8051V54.8264C145.894 55.2528 146 55.6365 146.214 55.9776C146.427 56.3186 146.768 56.6171 147.237 56.8729C147.706 57.1145 148.331 57.3276 149.113 57.5124L152.865 58.3438C155.209 58.8696 156.879 59.6228 157.874 60.6034C158.869 61.5698 159.366 62.8701 159.366 64.5045V64.5258C159.366 65.9469 158.961 67.1975 158.151 68.2776C157.341 69.3435 156.218 70.1748 154.783 70.7717C153.362 71.3544 151.728 71.6457 149.88 71.6457Z" fill="#E1E6F0"/>
<path d="M124.535 71.5818C123.043 71.5818 121.722 71.2975 120.57 70.7291C119.433 70.1464 118.545 69.3435 117.906 68.3202C117.28 67.2828 116.968 66.0961 116.968 64.7603V64.7176C116.968 63.3675 117.302 62.2164 117.97 61.2642C118.652 60.2979 119.632 59.5375 120.911 58.9833C122.19 58.4148 123.74 58.0738 125.559 57.9601L134.192 57.4271V60.9445L126.305 61.4348C124.997 61.52 123.995 61.8327 123.299 62.3727C122.603 62.9128 122.254 63.6304 122.254 64.5258V64.5471C122.254 65.4708 122.603 66.2027 123.299 66.7428C124.01 67.2686 124.948 67.5315 126.113 67.5315C127.136 67.5315 128.046 67.3254 128.841 66.9133C129.652 66.5012 130.291 65.9398 130.76 65.2292C131.229 64.5187 131.463 63.7157 131.463 62.8204V56.0415C131.463 54.9046 131.101 54.0093 130.376 53.3555C129.666 52.6876 128.635 52.3536 127.285 52.3536C126.035 52.3536 125.033 52.6236 124.28 53.1637C123.526 53.6895 123.057 54.3717 122.873 55.2101L122.83 55.402H117.927L117.948 55.1462C118.062 53.8103 118.51 52.6165 119.291 51.5649C120.073 50.499 121.153 49.6605 122.532 49.0495C123.924 48.4384 125.573 48.1328 127.477 48.1328C129.367 48.1328 131.002 48.4455 132.38 49.0708C133.773 49.6961 134.846 50.5701 135.599 51.6928C136.366 52.8155 136.75 54.1372 136.75 55.6578V71.1981H131.463V67.7234H131.336C130.909 68.505 130.355 69.1871 129.673 69.7698C128.991 70.3525 128.209 70.8001 127.328 71.1128C126.461 71.4254 125.53 71.5818 124.535 71.5818Z" fill="#E1E6F0"/>
<path d="M105.095 71.6474C104.015 71.6474 103.02 71.4769 102.11 71.1358C101.215 70.7805 100.426 70.2902 99.7441 69.6649C99.062 69.0254 98.5006 68.258 98.0601 67.3626H97.9535V71.1997H92.6455V40.439H97.9535V52.4832H98.0601C98.5006 51.5737 99.0691 50.7991 99.7655 50.1596C100.462 49.5059 101.265 49.0085 102.174 48.6674C103.084 48.3121 104.072 48.1345 105.137 48.1345C107.028 48.1345 108.669 48.6106 110.062 49.5627C111.454 50.5007 112.534 51.8508 113.302 53.613C114.069 55.361 114.453 57.4501 114.453 59.8803V59.9016C114.453 62.3176 114.069 64.4066 113.302 66.1689C112.549 67.9311 111.469 69.2883 110.062 70.2405C108.669 71.1784 107.013 71.6474 105.095 71.6474ZM103.517 67.1921C104.654 67.1921 105.635 66.9008 106.459 66.3181C107.298 65.7212 107.937 64.8756 108.378 63.7813C108.818 62.6871 109.038 61.3938 109.038 59.9016V59.8803C109.038 58.3739 108.811 57.0806 108.356 56.0006C107.916 54.9205 107.283 54.0891 106.459 53.5064C105.635 52.9095 104.654 52.6111 103.517 52.6111C102.423 52.6111 101.457 52.9095 100.618 53.5064C99.7939 54.1033 99.1402 54.9489 98.657 56.0432C98.1738 57.1233 97.9322 58.4023 97.9322 59.8803V59.9016C97.9322 61.3796 98.1667 62.6657 98.6357 63.76C99.1188 64.8543 99.7797 65.6999 100.618 66.2968C101.457 66.8937 102.423 67.1921 103.517 67.1921Z" fill="#E1E6F0"/>
<path d="M75.9739 71.5818C74.4817 71.5818 73.16 71.2975 72.0089 70.7291C70.8719 70.1464 69.9837 69.3435 69.3442 68.3202C68.7189 67.2828 68.4062 66.0961 68.4062 64.7603V64.7176C68.4062 63.3675 68.7402 62.2164 69.4082 61.2642C70.0903 60.2979 71.0709 59.5375 72.3499 58.9833C73.629 58.4148 75.178 58.0738 76.9971 57.9601L85.6306 57.4271V60.9445L77.7432 61.4348C76.4357 61.52 75.4338 61.8327 74.7375 62.3727C74.0411 62.9128 73.6929 63.6304 73.6929 64.5258V64.5471C73.6929 65.4708 74.0411 66.2027 74.7375 66.7428C75.448 67.2686 76.386 67.5315 77.5513 67.5315C78.5746 67.5315 79.4841 67.3254 80.28 66.9133C81.09 66.5012 81.7295 65.9398 82.1985 65.2292C82.6675 64.5187 82.902 63.7157 82.902 62.8204V56.0415C82.902 54.9046 82.5396 54.0093 81.8148 53.3555C81.1042 52.6876 80.0739 52.3536 78.7238 52.3536C77.4732 52.3536 76.4713 52.6236 75.7181 53.1637C74.9649 53.6895 74.4959 54.3717 74.3111 55.2101L74.2685 55.402H69.3655L69.3868 55.1462C69.5005 53.8103 69.9482 52.6165 70.7298 51.5649C71.5115 50.499 72.5915 49.6605 73.97 49.0495C75.3628 48.4384 77.0113 48.1328 78.9157 48.1328C80.8058 48.1328 82.4401 48.4455 83.8186 49.0708C85.2113 49.6961 86.2843 50.5701 87.0375 51.6928C87.8049 52.8155 88.1887 54.1372 88.1887 55.6578V71.1981H82.902V67.7234H82.7741C82.3477 68.505 81.7935 69.1871 81.1113 69.7698C80.4292 70.3525 79.6475 70.8001 78.7664 71.1128C77.8995 71.4254 76.9687 71.5818 75.9739 71.5818Z" fill="#E1E6F0"/>
<path d="M63.316 71.646C60.9711 71.646 59.223 71.1343 58.0719 70.1111C56.935 69.0879 56.3665 67.4109 56.3665 65.0802V52.6949H53.1689V48.602H56.3665V42.8677H61.7598V48.602H65.9593V52.6949H61.7598V64.6539C61.7598 65.7482 62.0014 66.5085 62.4846 66.9348C62.982 67.347 63.7068 67.553 64.6589 67.553C64.929 67.553 65.1634 67.5459 65.3624 67.5317C65.5756 67.5033 65.7745 67.482 65.9593 67.4678V71.4541C65.6466 71.4967 65.2629 71.5394 64.8082 71.582C64.3676 71.6246 63.8702 71.646 63.316 71.646Z" fill="#E1E6F0"/>
<path d="M38.4133 71.5818C36.9211 71.5818 35.5994 71.2975 34.4483 70.7291C33.3114 70.1464 32.4232 69.3435 31.7837 68.3202C31.1584 67.2828 30.8457 66.0961 30.8457 64.7603V64.7176C30.8457 63.3675 31.1797 62.2164 31.8476 61.2642C32.5298 60.2979 33.5104 59.5375 34.7894 58.9833C36.0684 58.4148 37.6175 58.0738 39.4366 57.9601L48.07 57.4271V60.9445L40.1827 61.4348C38.8752 61.52 37.8733 61.8327 37.1769 62.3727C36.4806 62.9128 36.1324 63.6304 36.1324 64.5258V64.5471C36.1324 65.4708 36.4806 66.2027 37.1769 66.7428C37.8875 67.2686 38.8255 67.5315 39.9908 67.5315C41.014 67.5315 41.9236 67.3254 42.7194 66.9133C43.5295 66.5012 44.169 65.9398 44.638 65.2292C45.1069 64.5187 45.3414 63.7157 45.3414 62.8204V56.0415C45.3414 54.9046 44.979 54.0093 44.2542 53.3555C43.5437 52.6876 42.5133 52.3536 41.1632 52.3536C39.9126 52.3536 38.9107 52.6236 38.1575 53.1637C37.4043 53.6895 36.9353 54.3717 36.7506 55.2101L36.7079 55.402H31.805L31.8263 55.1462C31.94 53.8103 32.3877 52.6165 33.1693 51.5649C33.9509 50.499 35.031 49.6605 36.4095 49.0495C37.8022 48.4384 39.4508 48.1328 41.3551 48.1328C43.2452 48.1328 44.8796 48.4455 46.2581 49.0708C47.6508 49.6961 48.7238 50.5701 49.477 51.6928C50.2444 52.8155 50.6281 54.1372 50.6281 55.6578V71.1981H45.3414V67.7234H45.2135C44.7872 68.505 44.2329 69.1871 43.5508 69.7698C42.8686 70.3525 42.087 70.8001 41.2059 71.1128C40.339 71.4254 39.4081 71.5818 38.4133 71.5818Z" fill="#E1E6F0"/>
<path d="M2.13281 71.1997V40.439H13.367C16.4367 40.439 19.0587 41.0358 21.2331 42.2296C23.4074 43.4234 25.0773 45.1572 26.2426 47.431C27.408 49.7049 27.9906 52.4619 27.9906 55.7021V55.7447C27.9906 58.985 27.408 61.7633 26.2426 64.0798C25.0915 66.382 23.4216 68.1443 21.2331 69.3665C19.0587 70.5886 16.4367 71.1997 13.367 71.1997H2.13281ZM7.63266 66.5739H12.7914C14.8663 66.5739 16.6143 66.1618 18.0355 65.3375C19.4566 64.499 20.5367 63.2839 21.2757 61.6923C22.0147 60.0864 22.3842 58.111 22.3842 55.7661V55.7234C22.3842 53.4354 22.0076 51.4955 21.2544 49.9038C20.5154 48.3121 19.4282 47.1113 17.9928 46.3012C16.5717 45.4769 14.8379 45.0648 12.7914 45.0648H7.63266V66.5739Z" fill="#E1E6F0"/>
<path d="M242.122 32.0815C239.777 32.0815 238.029 31.5699 236.878 30.5467C235.741 29.5234 235.172 27.8465 235.172 25.5158V13.1305H231.975V9.03756H235.172V3.30322H240.565V9.03756H244.765V13.1305H240.565V25.0894C240.565 26.1837 240.807 26.944 241.29 27.3704C241.788 27.7825 242.512 27.9886 243.465 27.9886C243.735 27.9886 243.969 27.9815 244.168 27.9673C244.381 27.9388 244.58 27.9175 244.765 27.9033V31.8896C244.452 31.9323 244.069 31.9749 243.614 32.0175C243.173 32.0602 242.676 32.0815 242.122 32.0815Z" fill="#E1E6F0"/>
<path d="M209.355 31.6336V9.03734H214.642V12.576H214.77C215.353 11.3538 216.22 10.3803 217.371 9.65554C218.536 8.93075 219.971 8.56836 221.677 8.56836C224.164 8.56836 226.082 9.32157 227.432 10.828C228.797 12.3344 229.479 14.3951 229.479 17.01V31.6336H224.171V18.0758C224.171 16.47 223.794 15.2336 223.041 14.3666C222.288 13.4855 221.158 13.045 219.652 13.045C218.643 13.045 217.762 13.2795 217.008 13.7484C216.255 14.2032 215.672 14.8427 215.26 15.667C214.848 16.4771 214.642 17.4292 214.642 18.5235V31.6336H209.355Z" fill="#E1E6F0"/>
<path d="M192.834 32.0173C191.342 32.0173 190.02 31.7331 188.869 31.1646C187.732 30.582 186.844 29.779 186.205 28.7558C185.579 27.7183 185.267 26.5317 185.267 25.1958V25.1532C185.267 23.8031 185.601 22.6519 186.269 21.6998C186.951 20.7334 187.931 19.9731 189.21 19.4188C190.489 18.8504 192.038 18.5093 193.857 18.3956L202.491 17.8627V21.38L194.604 21.8703C193.296 21.9556 192.294 22.2682 191.598 22.8083C190.901 23.3483 190.553 24.066 190.553 24.9613V24.9826C190.553 25.9064 190.901 26.6383 191.598 27.1783C192.308 27.7041 193.246 27.967 194.412 27.967C195.435 27.967 196.344 27.761 197.14 27.3488C197.95 26.9367 198.59 26.3754 199.059 25.6648C199.528 24.9542 199.762 24.1513 199.762 23.2559V16.4771C199.762 15.3401 199.4 14.4448 198.675 13.7911C197.965 13.1231 196.934 12.7892 195.584 12.7892C194.334 12.7892 193.332 13.0592 192.578 13.5992C191.825 14.1251 191.356 14.8072 191.171 15.6457L191.129 15.8375H186.226L186.247 15.5817C186.361 14.2459 186.809 13.0521 187.59 12.0004C188.372 10.9346 189.452 10.0961 190.83 9.485C192.223 8.87391 193.872 8.56836 195.776 8.56836C197.666 8.56836 199.3 8.88101 200.679 9.50632C202.072 10.1316 203.145 11.0056 203.898 12.1283C204.665 13.251 205.049 14.5727 205.049 16.0933V31.6336H199.762V28.1589H199.634C199.208 28.9405 198.654 29.6227 197.972 30.2054C197.29 30.788 196.508 31.2357 195.627 31.5483C194.76 31.861 193.829 32.0173 192.834 32.0173Z" fill="#E1E6F0"/>
<path d="M176.335 31.6358V0.875H181.643V31.6358H176.335Z" fill="#E1E6F0"/>
<path d="M153.121 21.4675V17.0335H160.859C162.849 17.0335 164.384 16.529 165.464 15.5199C166.558 14.4967 167.105 13.0614 167.105 11.2139V11.1712C167.105 9.30952 166.558 7.87416 165.464 6.86514C164.384 5.85613 162.849 5.35162 160.859 5.35162H153.121V0.875H162.223C164.298 0.875 166.117 1.30134 167.681 2.15403C169.258 3.00672 170.487 4.2076 171.369 5.75665C172.25 7.29149 172.69 9.08924 172.69 11.1499V11.1925C172.69 13.239 172.25 15.0368 171.369 16.5858C170.487 18.1206 169.258 19.3215 167.681 20.1884C166.117 21.0411 164.298 21.4675 162.223 21.4675H153.121ZM150.371 31.6358V0.875H155.871V31.6358H150.371Z" fill="#E1E6F0"/>
<path d="M116.673 31.6336V9.03734H121.96V12.576H122.087C122.67 11.3538 123.537 10.3803 124.688 9.65554C125.853 8.93075 127.289 8.56836 128.994 8.56836C131.481 8.56836 133.4 9.32157 134.75 10.828C136.114 12.3344 136.796 14.3951 136.796 17.01V31.6336H131.488V18.0758C131.488 16.47 131.112 15.2336 130.359 14.3666C129.605 13.4855 128.475 13.045 126.969 13.045C125.96 13.045 125.079 13.2795 124.326 13.7484C123.573 14.2032 122.99 14.8427 122.578 15.667C122.166 16.4771 121.96 17.4292 121.96 18.5235V31.6336H116.673Z" fill="#E1E6F0"/>
<path d="M100.147 32.0173C98.6545 32.0173 97.3328 31.7331 96.1817 31.1646C95.0448 30.582 94.1566 29.779 93.5171 28.7558C92.8918 27.7183 92.5791 26.5317 92.5791 25.1958V25.1532C92.5791 23.8031 92.9131 22.6519 93.581 21.6998C94.2632 20.7334 95.2438 19.9731 96.5228 19.4188C97.8018 18.8504 99.3509 18.5093 101.17 18.3956L109.803 17.8627V21.38L101.916 21.8703C100.609 21.9556 99.6067 22.2682 98.9103 22.8083C98.214 23.3483 97.8658 24.066 97.8658 24.9613V24.9826C97.8658 25.9064 98.214 26.6383 98.9103 27.1783C99.6209 27.7041 100.559 27.967 101.724 27.967C102.747 27.967 103.657 27.761 104.453 27.3488C105.263 26.9367 105.902 26.3754 106.371 25.6648C106.84 24.9542 107.075 24.1513 107.075 23.2559V16.4771C107.075 15.3401 106.712 14.4448 105.988 13.7911C105.277 13.1231 104.247 12.7892 102.897 12.7892C101.646 12.7892 100.644 13.0592 99.8909 13.5992C99.1377 14.1251 98.6687 14.8072 98.484 15.6457L98.4413 15.8375H93.5384L93.5597 15.5817C93.6734 14.2459 94.121 13.0521 94.9027 12.0004C95.6843 10.9346 96.7644 10.0961 98.1429 9.485C99.5356 8.87391 101.184 8.56836 103.089 8.56836C104.979 8.56836 106.613 8.88101 107.991 9.50632C109.384 10.1316 110.457 11.0056 111.21 12.1283C111.978 13.251 112.362 14.5727 112.362 16.0933V31.6336H107.075V28.1589H106.947C106.521 28.9405 105.966 29.6227 105.284 30.2054C104.602 30.788 103.82 31.2357 102.939 31.5483C102.072 31.861 101.142 32.0173 100.147 32.0173Z" fill="#E1E6F0"/>
<path d="M80.3451 32.0813C78.1139 32.0813 76.1811 31.6052 74.5468 30.653C72.9125 29.7009 71.6477 28.3437 70.7523 26.5814C69.8712 24.8192 69.4307 22.7301 69.4307 20.3142V20.2928C69.4307 17.8911 69.8783 15.8162 70.7737 14.0682C71.669 12.306 72.9267 10.9488 74.5468 9.99661C76.1811 9.04444 78.0926 8.56836 80.2811 8.56836C82.2707 8.56836 83.9903 8.95207 85.4399 9.71949C86.8895 10.4727 88.0264 11.4746 88.8507 12.7252C89.6749 13.9758 90.1439 15.3543 90.2576 16.8608V17.01H85.2694L85.2267 16.8394C85.0136 15.7452 84.4948 14.8143 83.6706 14.0469C82.8605 13.2653 81.752 12.8744 80.3451 12.8744C79.2366 12.8744 78.2631 13.18 77.4246 13.7911C76.6004 14.388 75.9608 15.2407 75.5061 16.3492C75.0513 17.4576 74.8239 18.7864 74.8239 20.3355V20.3568C74.8239 21.9201 75.0513 23.2559 75.5061 24.3644C75.9751 25.4729 76.6217 26.3256 77.4459 26.9225C78.2844 27.5052 79.2579 27.7965 80.3664 27.7965C81.7165 27.7965 82.8037 27.4341 83.6279 26.7093C84.4664 25.9703 85.0065 25.0111 85.2481 23.8315L85.2907 23.6396H90.3002L90.2789 23.7889C90.1368 25.3521 89.6394 26.7591 88.7867 28.0097C87.934 29.2603 86.79 30.2551 85.3546 30.9941C83.9193 31.7189 82.2494 32.0813 80.3451 32.0813Z" fill="#E1E6F0"/>
<path d="M60.5406 31.6348V9.03851H65.8486V31.6348H60.5406ZM63.184 5.79829C62.3597 5.79829 61.6633 5.51406 61.0949 4.9456C60.5264 4.37714 60.2422 3.69499 60.2422 2.89914C60.2422 2.08909 60.5264 1.40694 61.0949 0.85269C61.6633 0.28423 62.3597 0 63.184 0C64.0224 0 64.7259 0.28423 65.2944 0.85269C65.8628 1.40694 66.1471 2.08909 66.1471 2.89914C66.1471 3.69499 65.8628 4.37714 65.2944 4.9456C64.7259 5.51406 64.0224 5.79829 63.184 5.79829Z" fill="#E1E6F0"/>
<path d="M45.3838 31.6336V9.03734H50.6705V12.9384H50.7984C51.1394 11.5741 51.7576 10.5082 52.653 9.74081C53.5625 8.95918 54.671 8.56836 55.9785 8.56836C56.3053 8.56836 56.618 8.58968 56.9164 8.63231C57.2149 8.67495 57.4636 8.72469 57.6625 8.78153V13.5779C57.4493 13.4926 57.1438 13.4216 56.7459 13.3647C56.3622 13.3079 55.9429 13.2795 55.4882 13.2795C54.4934 13.2795 53.6336 13.4855 52.9088 13.8977C52.184 14.2956 51.6297 14.8854 51.246 15.667C50.8623 16.4486 50.6705 17.4008 50.6705 18.5235V31.6336H45.3838Z" fill="#E1E6F0"/>
<path d="M32.1496 31.6352V13.1318H29.0586V9.03892H32.1496V6.88588C32.1496 5.40789 32.3912 4.1928 32.8744 3.24063C33.3718 2.28846 34.1321 1.58499 35.1553 1.13023C36.1786 0.661247 37.5073 0.426758 39.1417 0.426758C39.6675 0.426758 40.1862 0.448075 40.6978 0.49071C41.2236 0.533344 41.65 0.583084 41.9768 0.63993V4.34913C41.7495 4.32071 41.4937 4.29939 41.2094 4.28518C40.9394 4.25676 40.6623 4.24254 40.378 4.24254C39.3406 4.24254 38.5732 4.47703 38.0758 4.94601C37.5926 5.41499 37.351 6.11136 37.351 7.0351V9.03892H41.8916V13.1318H37.4576V31.6352H32.1496Z" fill="#E1E6F0"/>
<path d="M0 31.6358L10.9997 0.875H15.6255V6.35353H14.0267L5.75566 31.6358H0ZM5.5638 23.6844L7.03469 19.4423H21.1254L22.5963 23.6844H5.5638ZM22.4044 31.6358L14.1333 6.35353V0.875H17.1817L28.1601 31.6358H22.4044Z" fill="#E1E6F0"/>
</svg>
