<svg width="176" height="104" viewBox="0 0 176 104" fill="none" xmlns="http://www.w3.org/2000/svg">
<g clip-path="url(#clip0_291_15296)">
<path d="M148.751 53.0008C148.751 86.5524 121.551 113.752 87.9998 113.752C54.4484 113.752 27.249 86.5521 27.249 53.0008C27.249 19.4494 54.4484 -7.75 87.9998 -7.75C121.551 -7.75 148.751 19.4494 148.751 53.0008Z" stroke="#E1E6F0" stroke-width="1.44479"/>
<mask id="mask0_291_15296" style="mask-type:luminance" maskUnits="userSpaceOnUse" x="-22" y="-48" width="220" height="202">
<path d="M-18.6895 -47.8691C-20.3763 -47.8691 -21.7344 -46.5111 -21.7344 -44.8242V150.824C-21.7344 152.51 -20.3763 153.868 -18.6895 153.868H194.698C196.385 153.868 197.743 152.51 197.743 150.824V-44.8242C197.743 -46.5111 196.385 -47.8691 194.698 -47.8691H-18.6895ZM88.0042 -7.75344C121.557 -7.75344 148.756 19.4457 148.756 52.9986C148.756 86.5516 121.557 113.751 88.0042 113.751C54.4514 113.751 27.2522 86.5516 27.2522 52.9986C27.2522 19.4457 54.4514 -7.75344 88.0042 -7.75344Z" fill="white"/>
</mask>
<g mask="url(#mask0_291_15296)">
<path d="M148.68 53.003C165.437 69.7598 165.437 96.9277 148.68 113.685C131.924 130.441 104.756 130.441 87.999 113.685C71.2422 96.9277 71.2422 69.7598 87.999 53.003C104.756 36.2462 131.924 36.2462 148.68 53.003Z" stroke="#E1E6F0" stroke-width="1.50984"/>
<path d="M87.9989 -7.68061C104.756 9.07616 104.756 36.2442 87.9989 53.0009C71.2421 69.7577 44.0741 69.7577 27.3173 53.0009C10.5606 36.2441 10.5606 9.07616 27.3173 -7.68061C44.0741 -24.4374 71.2421 -24.4374 87.9989 -7.68061Z" stroke="#E1E6F0" stroke-width="1.50984"/>
<path d="M87.999 113.683C71.2422 130.44 44.0742 130.44 27.3174 113.683C10.5607 96.9262 10.5607 69.7582 27.3174 53.0014C44.0742 36.2446 71.2422 36.2446 87.999 53.0014C104.756 69.7582 104.756 96.9262 87.999 113.683Z" stroke="#E1E6F0" stroke-width="1.50984"/>
<path d="M148.68 53.0013C131.923 69.7581 104.755 69.7581 87.9981 53.0013C71.2413 36.2445 71.2413 9.07653 87.9981 -7.68023C104.755 -24.437 131.923 -24.437 148.68 -7.68023C165.436 9.07654 165.436 36.2445 148.68 53.0013Z" stroke="#E1E6F0" stroke-width="1.50984"/>
<path d="M173.818 53.003C173.818 76.7007 154.607 95.9114 130.909 95.9114C107.212 95.9114 88.001 76.7007 88.001 53.003C88.001 29.3054 107.212 10.0947 130.909 10.0947C154.607 10.0947 173.818 29.3054 173.818 53.003Z" stroke="#E1E6F0" stroke-width="1.50984"/>
<path d="M88.0002 53.003C88.0002 76.7007 68.7896 95.9114 45.0919 95.9114C21.3943 95.9114 2.18359 76.7007 2.18359 53.003C2.18359 29.3054 21.3943 10.0947 45.0919 10.0947C68.7896 10.0947 88.0002 29.3054 88.0002 53.003Z" stroke="#E1E6F0" stroke-width="1.50984"/>
<path d="M130.908 95.9113C130.908 119.609 111.698 138.82 88.0001 138.82C64.3025 138.82 45.0918 119.609 45.0918 95.9113C45.0918 72.2136 64.3025 53.0029 88.0001 53.0029C111.698 53.0029 130.908 72.2136 130.908 95.9113Z" stroke="#E1E6F0" stroke-width="1.50984"/>
<path d="M130.908 10.0944C130.908 33.792 111.698 53.0027 88.0001 53.0027C64.3025 53.0027 45.0918 33.792 45.0918 10.0944C45.0918 -13.6033 64.3025 -32.814 88.0001 -32.814C111.698 -32.814 130.908 -13.6033 130.908 10.0944Z" stroke="#E1E6F0" stroke-width="1.50984"/>
</g>
<path d="M134.788 95.7322C134.788 97.9745 132.97 99.7921 130.728 99.7921C128.486 99.7921 126.668 97.9745 126.668 95.7322C126.668 93.49 128.486 91.6724 130.728 91.6724C132.97 91.6724 134.788 93.49 134.788 95.7322Z" fill="#E1E6F0"/>
<path d="M133.324 95.458C133.324 97.0407 132.041 98.3237 130.458 98.3237C128.876 98.3237 127.593 97.0408 127.593 95.458C127.593 93.8754 128.876 92.5923 130.458 92.5923C132.041 92.5923 133.324 93.8753 133.324 95.458Z" fill="#E1E6F0" fill-opacity="0.784314"/>
<path d="M134.483 96.1979C134.483 98.0148 133.01 99.4877 131.193 99.4877C129.376 99.4877 127.903 98.0148 127.903 96.1979C127.903 94.3811 129.376 92.9082 131.193 92.9082C133.01 92.9082 134.483 94.381 134.483 96.1979Z" fill="#E1E6F0"/>
<path d="M31.1608 53.0028C31.1608 55.245 29.3431 57.0626 27.1009 57.0626C24.8587 57.0626 23.041 55.245 23.041 53.0028C23.041 50.7605 24.8587 48.9429 27.1009 48.9429C29.3431 48.9429 31.1608 50.7605 31.1608 53.0028Z" fill="#E1E6F0"/>
<path d="M29.6973 52.7285C29.6973 54.3112 28.4143 55.5942 26.8315 55.5942C25.2489 55.5942 23.9658 54.3113 23.9658 52.7285C23.9658 51.1459 25.2488 49.8628 26.8315 49.8628C28.4142 49.8628 29.6973 51.1458 29.6973 52.7285Z" fill="#E1E6F0" fill-opacity="0.784314"/>
<path d="M30.8558 53.4684C30.8558 55.2853 29.383 56.7582 27.5661 56.7582C25.7493 56.7582 24.2764 55.2853 24.2764 53.4684C24.2764 51.6516 25.7492 50.1787 27.5661 50.1787C29.3829 50.1787 30.8558 51.6515 30.8558 53.4684Z" fill="#E1E6F0"/>
<path d="M49.3288 10.2498C49.3288 12.4921 47.5111 14.3097 45.2689 14.3097C43.0267 14.3097 41.209 12.492 41.209 10.2498C41.209 8.00761 43.0267 6.18994 45.2689 6.18994C47.5111 6.18994 49.3288 8.00761 49.3288 10.2498Z" fill="#E1E6F0"/>
<path d="M47.8652 9.97559C47.8652 11.5582 46.5823 12.8413 44.9995 12.8413C43.4169 12.8413 42.1338 11.5583 42.1338 9.97559C42.1338 8.39294 43.4168 7.10986 44.9995 7.10986C46.5822 7.10986 47.8652 8.39283 47.8652 9.97559Z" fill="#E1E6F0" fill-opacity="0.784314"/>
<path d="M49.0238 10.7155C49.0238 12.5323 47.551 14.0052 45.7341 14.0052C43.9172 14.0052 42.4443 12.5324 42.4443 10.7155C42.4443 8.89867 43.9172 7.42578 45.7341 7.42578C47.5509 7.42578 49.0238 8.8986 49.0238 10.7155Z" fill="#E1E6F0"/>
<path d="M49.3288 95.7318C49.3288 97.974 47.5111 99.7916 45.2689 99.7916C43.0267 99.7916 41.209 97.974 41.209 95.7318C41.209 93.4895 43.0267 91.6719 45.2689 91.6719C47.5111 91.6719 49.3288 93.4895 49.3288 95.7318Z" fill="#E1E6F0"/>
<path d="M47.8652 95.4575C47.8652 97.0402 46.5823 98.3232 44.9995 98.3232C43.4169 98.3232 42.1338 97.0403 42.1338 95.4575C42.1338 93.8749 43.4168 92.5918 44.9995 92.5918C46.5822 92.5918 47.8652 93.8748 47.8652 95.4575Z" fill="#E1E6F0" fill-opacity="0.784314"/>
<path d="M49.0238 96.1974C49.0238 98.0143 47.551 99.4872 45.7341 99.4872C43.9172 99.4872 42.4443 98.0143 42.4443 96.1974C42.4443 94.3806 43.9172 92.9077 45.7341 92.9077C47.5509 92.9077 49.0238 94.3805 49.0238 96.1974Z" fill="#E1E6F0"/>
<path d="M152.551 53.0028C152.551 55.245 150.734 57.0626 148.492 57.0626C146.249 57.0626 144.432 55.245 144.432 53.0028C144.432 50.7605 146.249 48.9429 148.492 48.9429C150.734 48.9429 152.551 50.7605 152.551 53.0028Z" fill="#E1E6F0"/>
<path d="M151.088 52.7285C151.088 54.3112 149.805 55.5942 148.222 55.5942C146.64 55.5942 145.356 54.3113 145.356 52.7285C145.356 51.1459 146.639 49.8628 148.222 49.8628C149.805 49.8628 151.088 51.1458 151.088 52.7285Z" fill="#E1E6F0" fill-opacity="0.784314"/>
<path d="M152.246 53.4684C152.246 55.2853 150.774 56.7582 148.957 56.7582C147.14 56.7582 145.667 55.2853 145.667 53.4684C145.667 51.6516 147.14 50.1787 148.957 50.1787C150.774 50.1787 152.246 51.6515 152.246 53.4684Z" fill="#E1E6F0"/>
<path d="M134.811 10.2498C134.811 12.4921 132.994 14.3097 130.751 14.3097C128.509 14.3097 126.691 12.492 126.691 10.2498C126.691 8.00761 128.509 6.18994 130.751 6.18994C132.994 6.18994 134.811 8.00761 134.811 10.2498Z" fill="#E1E6F0"/>
<path d="M133.348 9.97559C133.348 11.5582 132.065 12.8413 130.482 12.8413C128.899 12.8413 127.616 11.5583 127.616 9.97559C127.616 8.39294 128.899 7.10986 130.482 7.10986C132.065 7.10986 133.348 8.39283 133.348 9.97559Z" fill="#E1E6F0" fill-opacity="0.784314"/>
<path d="M134.506 10.7155C134.506 12.5323 133.033 14.0052 131.216 14.0052C129.4 14.0052 127.927 12.5324 127.927 10.7155C127.927 8.89867 129.4 7.42578 131.216 7.42578C133.033 7.42578 134.506 8.8986 134.506 10.7155Z" fill="#E1E6F0"/>
<path d="M45.9707 60.3042C46.1766 60.0836 46.32 59.5763 46.4008 58.7822C46.4891 57.9881 46.5332 56.2897 46.5332 53.6869V52.7604C46.5332 49.9224 46.4891 48.1137 46.4008 47.3342C46.3199 46.5475 46.1766 46.0438 45.9707 45.8232H49.0367C48.8309 46.0365 48.6838 46.5254 48.5956 47.2901C48.5147 48.0548 48.4743 49.6834 48.4743 52.1759V53.0583V53.9295C48.4743 56.4294 48.5147 58.0653 48.5956 58.8373C48.6838 59.602 48.8309 60.0909 49.0367 60.3042L45.9707 60.3042Z" fill="#E1E6F0"/>
<path d="M57.9834 53.0587C57.9834 52.7278 58.1047 52.4411 58.3473 52.1984C58.5973 51.9558 58.8878 51.8345 59.2186 51.8345C59.5495 51.8345 59.8362 51.9558 60.0789 52.1984C60.3215 52.4411 60.4428 52.7278 60.4428 53.0587C60.4428 53.3822 60.3215 53.669 60.0789 53.9189C59.8362 54.1689 59.5495 54.2939 59.2186 54.2939C58.8878 54.2939 58.5973 54.1726 58.3473 53.93C58.1047 53.68 57.9834 53.3896 57.9834 53.0587Z" fill="#E1E6F0"/>
<path d="M69.3965 60.3055C69.6024 60.0849 69.7457 59.5775 69.8266 58.7835C69.9148 57.9894 69.959 56.2909 69.959 53.6881V52.7617C69.959 49.9236 69.9148 48.115 69.8266 47.3355C69.7457 46.5487 69.6023 46.0451 69.3965 45.8245H70.1134C70.7824 45.8245 71.6133 45.7914 72.6059 45.7252C73.6059 45.6591 74.275 45.626 74.6132 45.626C76.0102 45.626 77.0654 45.9532 77.7785 46.6076C78.499 47.2619 78.8593 48.2288 78.8593 49.5081C78.8593 50.8316 78.4696 51.9124 77.6903 52.7506C76.9109 53.5888 75.9072 54.0079 74.6794 54.0079C74.2383 54.0079 73.8265 53.9674 73.4442 53.8866C73.0692 53.7983 72.7273 53.6733 72.4185 53.5116H72.6501C73.878 53.5116 74.8376 53.166 75.5286 52.4748C76.2271 51.7837 76.5763 50.8242 76.5763 49.5964C76.5763 48.5597 76.3337 47.7913 75.8484 47.2914C75.3632 46.7841 74.6205 46.5304 73.6206 46.5304C73.3338 46.5304 73.0654 46.5414 72.8155 46.5635C72.5655 46.5782 72.3302 46.6039 72.1096 46.6407C72.0361 46.9569 71.9809 47.6774 71.9442 48.8024C71.9148 49.9273 71.9 51.4494 71.9001 53.3683C71.9 56.2137 71.9405 58.0262 72.0214 58.8055C72.1096 59.5849 72.2566 60.0849 72.4625 60.3054L69.3965 60.3055Z" fill="#E1E6F0"/>
<path d="M86.9189 53.0587C86.9189 52.7278 87.0403 52.4411 87.2829 52.1984C87.5329 51.9558 87.8233 51.8345 88.1542 51.8345C88.485 51.8345 88.7718 51.9558 89.0144 52.1984C89.2571 52.4411 89.3784 52.7278 89.3784 53.0587C89.3784 53.3822 89.2571 53.669 89.0144 53.9189C88.7718 54.1689 88.485 54.2939 88.1542 54.2939C87.8233 54.2939 87.5329 54.1726 87.2829 53.93C87.0403 53.68 86.9189 53.3896 86.9189 53.0587Z" fill="#E1E6F0"/>
<path d="M99.8713 47.5463L99.9375 54.8364C99.9521 56.5863 100.015 57.8399 100.125 58.5973C100.243 59.3472 100.43 59.9171 100.687 60.3067H98.0625C98.3566 59.9317 98.5698 59.0641 98.7022 57.7039C98.8345 56.3364 98.9007 54.3438 98.9007 51.7262C98.9007 49.41 98.8382 47.9064 98.7132 47.2154C98.5956 46.517 98.3787 46.0537 98.0625 45.8258H100.412C100.838 45.8258 101.312 46.2229 101.834 47.0169C101.967 47.2228 102.073 47.3846 102.154 47.5022C102.581 48.1272 103.239 49.1161 104.128 50.469C106.187 53.6085 107.841 56.0312 109.092 57.737L109.114 51.4064C109.114 49.3771 109.069 48.0058 108.981 47.2925C108.893 46.572 108.739 46.083 108.518 45.8257H110.669C110.448 46.0316 110.294 46.583 110.206 47.48C110.125 48.3697 110.084 50.1748 110.084 52.8953V55.7849V60.373H108.617C108.117 59.5789 106.871 57.7408 104.879 54.8585C102.886 51.9761 101.217 49.5388 99.8716 47.5462" fill="#E1E6F0"/>
<path d="M119.612 53.0587C119.612 52.7278 119.734 52.4411 119.976 52.1984C120.226 51.9558 120.517 51.8345 120.848 51.8345C121.178 51.8345 121.465 51.9558 121.708 52.1984C121.95 52.4411 122.072 52.7278 122.072 53.0587C122.072 53.3822 121.95 53.669 121.708 53.9189C121.465 54.1689 121.178 54.2939 120.848 54.2939C120.517 54.2939 120.226 54.1726 119.976 53.93C119.734 53.68 119.612 53.3896 119.612 53.0587Z" fill="#E1E6F0"/>
<path d="M131.025 60.3042C131.231 60.0836 131.375 59.5763 131.456 58.7822C131.544 57.9881 131.588 56.2897 131.588 53.6869V52.7604C131.588 49.9224 131.544 48.1137 131.456 47.3342C131.375 46.5475 131.231 46.0438 131.025 45.8232H134.091C133.886 46.0365 133.738 46.5254 133.65 47.2901C133.569 48.0548 133.529 49.6834 133.529 52.1759V53.0583V53.9295C133.529 56.4294 133.569 58.0653 133.65 58.8373C133.739 59.602 133.886 60.0909 134.091 60.3042L131.025 60.3042Z" fill="#E1E6F0"/>
</g>
<defs>
<clipPath id="clip0_291_15296">
<rect width="176" height="176" fill="white" transform="translate(0 -35)"/>
</clipPath>
</defs>
</svg>
