<svg width="98" height="104" viewBox="0 0 98 104" fill="none" xmlns="http://www.w3.org/2000/svg">
<path d="M39.9794 50.8378C38.016 48.0559 21.8377 53.3335 15.9739 56.428C10.1101 59.5278 4.42102 64.4291 1.1716 68.8165C-2.07783 73.2039 -8.39673 84.0452 -7.4018 86.7953C-6.40686 89.5507 3.77536 88.8618 16.2332 82.8371C28.6964 76.8124 45.9332 59.2628 39.9741 50.8325L39.9794 50.8378Z" fill="#1B532B" stroke="#3F654A" stroke-width="1.2" stroke-miterlimit="10"/>
<path d="M16.0801 68.589C19.393 66.1092 22.4572 63.942 24.7011 62.4106C25.8231 61.6476 26.7386 61.0382 27.379 60.6302C28.0193 60.2222 28.3792 60.005 28.3951 60.0315C28.411 60.058 28.0828 60.3176 27.4742 60.768C26.8603 61.2131 25.9713 61.8595 24.8758 62.6597C22.6795 64.2493 19.6523 66.4536 16.3394 68.9281C13.0318 71.408 10.0628 73.697 7.92479 75.3555C6.85047 76.1821 5.98255 76.8551 5.37923 77.3161C4.77592 77.7771 4.43193 78.0155 4.41605 77.9943C4.39488 77.9731 4.70712 77.687 5.27868 77.1836C5.85024 76.6855 6.6917 75.9755 7.73956 75.1171C9.83528 73.395 12.7725 71.0635 16.0907 68.5837L16.0801 68.589Z" fill="#3F654A"/>
<path d="M18.076 58.1287C20.0764 56.9524 21.9816 56.0622 23.3894 55.4953C24.7971 54.9283 25.6968 54.6633 25.718 54.711C25.7391 54.7693 24.8765 55.1349 23.5111 55.7708C22.1404 56.4066 20.2776 57.3286 18.293 58.4944C16.3137 59.6601 14.5937 60.8417 13.3765 61.7319C12.1593 62.6221 11.4237 63.1997 11.3813 63.152C11.3443 63.1096 12.0164 62.4526 13.1966 61.4935C14.3767 60.5344 16.0808 59.2998 18.0813 58.1234L18.076 58.1287Z" fill="#3F654A"/>
<path d="M23.8183 74.0998C25.5754 72.632 26.999 71.1113 27.9621 69.9614C28.9253 68.8063 29.4651 68.0433 29.5233 68.0857C29.5498 68.1016 29.4387 68.3082 29.2164 68.6738C28.9994 69.0395 28.6501 69.5481 28.195 70.1522C27.2847 71.3656 25.877 72.9447 24.0935 74.4336C22.3101 75.9226 20.5054 77.0247 19.1559 77.7136C17.8011 78.4024 16.912 78.715 16.8961 78.6673C16.8697 78.6038 17.7111 78.2011 19.013 77.4486C20.3149 76.7015 22.0613 75.5729 23.8236 74.1051L23.8183 74.0998Z" fill="#3F654A"/>
<path d="M46.9721 50.8378C48.9355 48.0559 65.1138 53.3335 70.9776 56.428C76.8413 59.5278 82.5305 64.4291 85.7799 68.8165C89.0293 73.2039 95.3482 84.0452 94.3533 86.7953C93.3583 89.5507 83.1761 88.8618 70.7182 82.8371C58.2551 76.8124 41.0183 59.2628 46.9774 50.8325L46.9721 50.8378Z" fill="#1B532B" stroke="#3F654A" stroke-width="1.2" stroke-miterlimit="10"/>
<path d="M71.721 70.3207C75.415 73.5371 78.892 76.2924 81.4799 78.1894C82.7712 79.1379 83.8296 79.8956 84.5652 80.4096C85.3008 80.9236 85.6978 81.2203 85.6819 81.2468C85.666 81.2733 85.2373 81.019 84.47 80.5474C83.7026 80.0758 82.6177 79.3551 81.2999 78.4384C78.6591 76.5998 75.1398 73.8762 71.4405 70.6492C67.7413 67.4223 64.5289 64.349 62.2268 62.1076C61.0784 60.9842 60.1522 60.0676 59.5225 59.4264C58.8927 58.7853 58.554 58.4196 58.5752 58.3984C58.5963 58.3772 58.9721 58.7005 59.6389 59.3045C60.3004 59.9139 61.253 60.7935 62.4332 61.885C64.7882 64.0734 68.0271 67.1043 71.7157 70.3207H71.721Z" fill="#3F654A"/>
<path d="M70.6416 61.3815C72.6844 62.828 74.4149 64.2958 75.611 65.4191C76.209 65.9808 76.68 66.4471 76.987 66.7862C77.2992 67.1201 77.4633 67.3161 77.4421 67.3373C77.3945 67.385 76.6483 66.7014 75.4099 65.6417C74.1715 64.5819 72.4251 63.1618 70.3981 61.7259C68.3712 60.2899 66.4501 59.1136 65.0424 58.2976C63.6347 57.4763 62.7456 56.9994 62.7721 56.9411C62.7826 56.9146 63.0208 57.0047 63.4442 57.1848C63.8676 57.365 64.4603 57.6564 65.1906 58.0326C66.646 58.7851 68.6041 59.9349 70.6469 61.3762L70.6416 61.3815Z" fill="#3F654A"/>
<path d="M68.5154 76.5103C70.6058 78.2271 72.7174 79.4988 74.2892 80.3201C75.8662 81.1414 76.8876 81.5547 76.8612 81.6236C76.8506 81.6501 76.586 81.5706 76.1097 81.4064C75.6334 81.2474 74.9666 80.9666 74.1516 80.5903C72.5269 79.8326 70.3623 78.5821 68.2402 76.8388C67.1817 75.9645 66.2397 75.0584 65.43 74.1894C64.6309 73.3098 63.9482 72.4832 63.4295 71.752C63.1596 71.397 62.9374 71.0525 62.7416 70.7558C62.5404 70.4591 62.3817 70.1994 62.26 69.9769C62.0112 69.5424 61.8842 69.2933 61.9107 69.2774C61.9742 69.2403 62.5616 70.1729 63.6624 71.5665C64.2075 72.266 64.9061 73.0608 65.7105 73.9139C66.5308 74.7564 67.4675 75.6413 68.5101 76.4997L68.5154 76.5103Z" fill="#3F654A"/>
<path d="M44.3076 56.4277C48.0756 56.4277 53.4207 46.7044 54.8338 39.567C56.2468 32.4242 56.7972 19.7813 56.3262 12.5538C55.8552 5.32621 53.262 1.62766 51.9283 -2.59017C50.5947 -6.808 48.0809 -8.78445 46.4668 -10.2469C44.8526 -11.7094 45.0167 -10.5913 44.3076 -10.5913C43.5984 -10.5913 43.7625 -11.7094 42.1483 -10.2469C40.5342 -8.78445 38.0204 -6.808 36.6868 -2.59017C35.3531 1.62766 32.7599 5.32621 32.2889 12.5538C31.8179 19.7813 32.3683 32.4295 33.7813 39.567C35.1944 46.7097 40.5342 56.4277 44.3076 56.4277Z" fill="#1B532B" stroke="#3F654A" stroke-width="1.2" stroke-miterlimit="10"/>
<path d="M44.586 53.1266C44.586 53.1266 43.6705 44.2193 46.126 39.3127C48.5816 34.406 48.3435 33.8761 49.132 29.5735C49.9259 25.2709 51.1907 23.1567 55.1493 21.4981C59.1078 19.8396 58.1552 16.2153 61.1665 14.7793C64.1725 13.3433 65.0457 15.0071 67.8982 13.8732C70.7507 12.7392 71.3011 12.8187 73.1216 12.9671C74.9422 13.1155 74.3865 13.9474 75.8948 13.6453C77.3977 13.3433 80.409 11.5311 83.0975 10.7787C85.7912 10.0263 87.8552 10.4502 89.9086 11.457C92.6817 12.8134 95.3701 16.5915 94.8197 20.6662C94.3381 24.1899 96.9578 24.5926 96.6402 26.8552C96.3227 29.1178 95.4548 29.3085 95.9258 31.7407C96.4021 34.1728 96.164 36.3612 94.661 38.2529C93.158 40.1393 93.6343 42.0256 92.4435 44.3677C91.2581 46.7098 90.4642 46.164 90.3055 48.0186C90.1467 49.8731 89.5116 52.6656 86.5057 55.6117C83.4997 58.5578 77.0061 58.5578 75.8154 59.3844C74.6299 60.2164 71.9362 59.3844 69.7187 57.7259C67.5013 56.0674 65.3632 55.0818 62.2779 56.5178C59.1925 57.9538 46.6076 54.5573 44.586 53.1213V53.1266Z" fill="#1B532B" stroke="#3F654A" stroke-width="1.2" stroke-miterlimit="10"/>
<path d="M43.081 53.1266C43.081 53.1266 43.9966 44.2193 41.541 39.3127C39.0854 34.406 39.3236 33.8761 38.535 29.5735C37.7412 25.2709 36.4763 23.1567 32.5178 21.4981C28.5592 19.8396 29.5118 16.2153 26.5005 14.7793C23.4945 13.3433 22.6213 15.0071 19.7688 13.8732C16.9163 12.7392 16.3659 12.8187 14.5454 12.9671C12.7249 13.1155 13.2806 13.9474 11.7723 13.6453C10.2693 13.3433 7.25802 11.5311 4.56957 10.7787C1.87583 10.0263 -0.18813 10.4502 -2.24151 11.457C-5.01463 12.8134 -7.70308 16.5915 -7.15269 20.6662C-6.6711 24.1899 -9.29074 24.5926 -8.97321 26.8552C-8.65568 29.1178 -7.78775 29.3085 -8.25876 31.7407C-8.73506 34.1728 -8.49691 36.3612 -6.99392 38.2529C-5.49093 40.1393 -5.96723 42.0256 -4.77648 44.3677C-3.59103 46.7098 -2.79719 46.164 -2.63843 48.0186C-2.47966 49.8731 -1.84459 52.6656 1.16139 55.6117C4.16737 58.5578 10.6609 58.5578 11.8517 59.3844C13.0371 60.2164 15.7309 59.3844 17.9483 57.7259C20.1657 56.0674 22.3038 55.0818 25.3892 56.5178C28.4745 57.9538 41.0594 54.5573 43.081 53.1213V53.1266Z" fill="#1B532B" stroke="#3F654A" stroke-width="1.2" stroke-miterlimit="10"/>
<path d="M16.671 32.8276C18.1687 34.1364 19.4864 35.3658 20.4126 36.2824C21.3387 37.1991 21.8838 37.7979 21.8415 37.8403C21.7991 37.8827 21.1852 37.3634 20.2062 36.505C19.2271 35.6466 17.8776 34.4597 16.3905 33.1509C14.8875 31.8527 13.5274 30.6816 12.543 29.8285C11.5587 28.9754 10.9607 28.4403 10.9977 28.3926C11.0348 28.3449 11.7016 28.8006 12.7336 29.5954C13.7708 30.3902 15.168 31.5241 16.671 32.8276Z" fill="#3F654A"/>
<path d="M29.6996 43.8967C31.3878 45.285 32.9014 46.5567 33.981 47.4999C35.0606 48.4378 35.7116 49.0419 35.6745 49.0895C35.6375 49.1372 34.9177 48.6127 33.7905 47.7331C32.658 46.8535 31.1179 45.6188 29.435 44.2305C27.7521 42.8423 26.2385 41.5706 25.1589 40.6327C24.0793 39.6948 23.4283 39.0907 23.4654 39.043C23.5024 38.9953 24.2169 39.5199 25.3494 40.3942C26.4766 41.2738 28.022 42.5137 29.7102 43.8967H29.6996Z" fill="#3F654A"/>
<path d="M6.28793 23.0349C7.15585 23.8138 7.6639 24.6192 7.57393 24.6881C7.47867 24.7623 6.84361 24.1 6.00215 23.3528C5.17127 22.6004 4.44623 22.0334 4.50974 21.9275C4.56796 21.8321 5.42 22.2507 6.28793 23.0349Z" fill="#3F654A"/>
<path d="M59.1136 41.1572C62.2413 38.6562 65.1944 36.5261 67.4224 35.1378C68.5338 34.4383 69.4546 33.8979 70.1056 33.5588C70.7512 33.2143 71.1164 33.0342 71.1323 33.0607C71.1481 33.0872 70.8094 33.315 70.1903 33.7018C69.5658 34.0833 68.6767 34.6609 67.5918 35.3921C65.4114 36.844 62.5059 38.9953 59.3835 41.4963C56.2611 43.9973 53.451 46.2864 51.3605 47.8761C50.318 48.6709 49.4606 49.3014 48.8573 49.7147C48.254 50.1333 47.9153 50.3559 47.8941 50.3294C47.8783 50.3082 48.1852 50.038 48.7568 49.5823C49.3283 49.1213 50.1539 48.4589 51.1753 47.6376C53.2181 45.995 55.9912 43.6688 59.1189 41.1625L59.1136 41.1572Z" fill="#3F654A"/>
<path d="M77.3031 28.0106C78.6685 27.0674 79.7905 26.3097 79.8646 26.4051C79.9387 26.4952 78.9278 27.4119 77.5466 28.3656C76.1706 29.3194 74.9587 29.9394 74.8952 29.844C74.8317 29.7433 75.9377 28.9644 77.3031 28.0159V28.0106Z" fill="#3F654A"/>
<path d="M87.0745 18.6061C88.244 17.043 88.9426 15.5805 89.0696 15.6441C89.1225 15.6706 89.0008 16.0574 88.7256 16.6562C88.4557 17.2496 88.0218 18.0603 87.4132 18.8658C86.7993 19.6712 86.1007 20.2911 85.5397 20.6461C84.9787 21.0065 84.5818 21.1283 84.5607 21.0806C84.5289 21.0224 84.8676 20.8051 85.3598 20.4024C85.852 19.9997 86.4817 19.3797 87.0692 18.6061H87.0745Z" fill="#3F654A"/>
<path d="M15.3959 46.8005C18.1849 47.5582 20.6193 48.512 22.3605 49.2326C23.2337 49.5929 23.9323 49.9002 24.4086 50.1228C24.8849 50.3453 25.1442 50.4778 25.1336 50.5096C25.1124 50.5679 24.0117 50.1705 22.2493 49.5134C20.4817 48.867 18.0473 47.9609 15.2848 47.2138C13.9035 46.8481 12.5699 46.5673 11.3474 46.3659C10.1249 46.1858 9.01352 46.0692 8.07679 46.0374C6.20864 45.9632 5.04435 46.0851 5.03906 46.0109C5.03906 45.9791 5.32484 45.9315 5.84877 45.8626C6.11338 45.8255 6.43091 45.7884 6.80666 45.7778C7.18241 45.7619 7.61108 45.7248 8.08209 45.7407C9.02939 45.7301 10.1566 45.8202 11.4003 45.9791C12.6387 46.1593 13.9935 46.4295 15.3906 46.8005H15.3959Z" fill="#3F654A"/>
<path d="M32.7908 36.961C33.5423 39.7746 34.2197 42.3233 34.7119 44.1673C34.9553 45.0893 35.1511 45.8364 35.2887 46.3557C35.4157 46.875 35.4792 47.1664 35.4475 47.1717C35.421 47.1823 35.3099 46.9068 35.1299 46.4034C34.95 45.9 34.7066 45.1635 34.4208 44.2521C33.8492 42.4293 33.1083 39.8912 32.3727 37.0722C31.6371 34.248 31.0443 31.6781 30.6527 29.8076C30.4569 28.8697 30.3087 28.112 30.2188 27.5874C30.1288 27.0628 30.0917 26.7661 30.1235 26.7608C30.1553 26.7555 30.2452 27.0363 30.3828 27.5503C30.5151 28.0696 30.7109 28.8167 30.9491 29.7387C31.4201 31.588 32.071 34.142 32.7855 36.9663L32.7908 36.961Z" fill="#3F654A"/>
<path d="M58.8022 32.7117C59.7442 30.0411 60.374 27.5507 60.7551 25.7332C61.1361 23.9157 61.3107 22.7765 61.3743 22.7818C61.406 22.7818 61.3901 23.0732 61.3478 23.5925C61.3054 24.1118 61.2049 24.8642 61.0514 25.7862C60.7445 27.6302 60.157 30.1577 59.2044 32.8494C58.2465 35.5412 57.114 37.8727 56.1985 39.4994C55.738 40.3154 55.3464 40.9566 55.0553 41.3911C54.7643 41.8256 54.5949 42.0587 54.5685 42.0428C54.5102 42.0057 55.0924 41.0096 55.9338 39.3564C56.7806 37.7031 57.8602 35.3717 58.8075 32.7064L58.8022 32.7117Z" fill="#3F654A"/>
<path d="M66.4408 47.8389C67.6581 48.1409 68.8065 48.4907 69.8332 48.8563C70.8546 49.2325 71.7648 49.614 72.5004 49.9902C72.8762 50.1651 73.199 50.3505 73.4848 50.5095C73.7706 50.6632 74.014 50.8168 74.2045 50.944C74.5909 51.1983 74.7973 51.3467 74.7814 51.3732C74.7443 51.4368 73.8711 50.9228 72.3787 50.2605C71.6378 49.9213 70.7275 49.5822 69.7114 49.2272C68.69 48.8881 67.5522 48.5542 66.3456 48.2522C63.927 47.6588 61.699 47.2825 60.0849 46.9911C58.4708 46.705 57.4758 46.5142 57.4864 46.4559C57.497 46.3976 58.5078 46.4824 60.1325 46.6944C61.7572 46.9063 64.0064 47.2401 66.4461 47.8389H66.4408Z" fill="#3F654A"/>
<path d="M44.2911 25.414C44.3122 28.6568 44.3599 31.5871 44.3969 33.7119C44.4075 34.7769 44.4181 35.6353 44.4234 36.2288C44.4234 36.8222 44.4075 37.1508 44.381 37.1561C44.3493 37.1561 44.3069 36.8329 44.2593 36.2394C44.2064 35.6459 44.1535 34.7875 44.0952 33.7278C43.9841 31.6029 43.8836 28.6674 43.8677 25.4193C43.8518 22.1711 43.9153 19.2356 44 17.1108C44.0423 16.0457 44.09 15.1873 44.1376 14.5939C44.1799 14.0004 44.2223 13.6719 44.2487 13.6719C44.2805 13.6719 44.2963 14.0004 44.3016 14.5992C44.3016 15.1926 44.3016 16.051 44.3016 17.1161C44.2911 19.2409 44.2752 22.1764 44.2911 25.414Z" fill="#3F654A"/>
<path d="M44.4464 -4.35404C44.5152 -1.76823 44.5681 0.330087 44.4464 0.340685C44.33 0.351282 44.0918 -1.74703 44.0178 -4.34344C43.9437 -6.93984 44.0654 -9.04346 44.1818 -9.04346C44.3035 -9.04346 44.367 -6.94514 44.4411 -4.35933L44.4464 -4.35404Z" fill="#3F654A"/>
<path d="M44.0631 4.51578C44.0366 5.24172 43.9731 5.83518 43.8514 5.84578C43.7349 5.85107 43.6079 5.25231 43.6344 4.50518C43.6609 3.75806 43.8249 3.16459 43.9413 3.18049C44.0578 3.19638 44.0842 3.78985 44.0578 4.52108L44.0631 4.51578Z" fill="#3F654A"/>
<path d="M43.319 96.5659C44.2451 96.5659 44.0176 98.5 44.7638 100.694C45.51 102.887 43.5466 103.211 44.2663 104.954C44.9861 106.697 46.5261 105.468 47.611 105.468C48.6959 105.468 48.897 107.534 51.1991 107.725C53.5012 107.921 53.6335 106.565 54.6497 105.855C55.6658 105.145 56.412 106.114 58.1002 105.404C59.7937 104.694 60.1959 103.083 59.9948 102.114C59.7937 101.144 60.4023 100.434 61.2808 101.467C62.1593 102.501 63.1754 101.34 64.1915 99.4008C65.2076 97.4667 64.6678 97.3343 64.2603 96.5606C63.8528 95.787 64.8689 94.6266 65.8162 93.6569C66.7635 92.6872 65.8162 92.1096 65.6786 91.336C65.541 90.5624 66.6259 90.4352 67.642 88.5595C68.6581 86.6837 67.8432 85.7829 66.6947 84.4953C65.5463 83.2077 66.2872 83.3349 66.6947 81.7876C67.1022 80.2404 65.8162 79.5939 64.6625 78.8839C63.5141 78.1738 64.0539 77.4638 64.8001 77.6599C65.5463 77.8559 66.8958 78.3063 66.9646 76.7591C67.0334 75.2118 67.642 75.5351 68.9281 74.1786C70.2141 72.8221 69.9442 70.6284 69.6055 69.4044C69.2668 68.1804 69.7431 68.1115 70.0818 66.1138C70.4205 64.1162 67.8484 64.0473 67.7796 63.0829C67.7108 62.1132 68.6581 61.4032 67.171 60.3752C65.6839 59.342 65.7474 57.7312 63.7893 57.0211C61.8259 56.3111 61.4184 58.6319 60.6087 58.828C59.799 59.024 60.6775 57.4715 60.6087 55.9878C60.5399 54.5042 58.1743 53.8577 56.8724 53.9213C55.5758 53.9849 55.6658 53.8577 56.5443 53.3385C57.4228 52.8245 56.5443 51.3408 53.6335 50.6944C50.7228 50.0479 50.9927 49.4015 49.3574 47.9178C47.7221 46.4341 46.796 45.7241 45.039 46.7574C43.2767 47.7906 43.3243 52.6496 43.3243 52.6496C43.3243 52.6496 43.3719 47.7906 41.6096 46.7574C39.8473 45.7241 38.9265 46.4341 37.2912 47.9178C35.6559 49.4015 35.9258 50.0479 33.0151 50.6944C30.1043 51.3408 29.2258 52.8245 30.1043 53.3385C30.9829 53.8524 31.0781 53.9849 29.7762 53.9213C28.4796 53.8577 26.1087 54.5042 26.0399 55.9878C25.9711 57.4715 26.8496 59.0187 26.0399 58.828C25.2302 58.6319 24.8227 56.3111 22.8593 57.0211C20.8959 57.7312 20.9647 59.342 19.4776 60.3752C17.9905 61.4085 18.9378 62.1185 18.869 63.0829C18.8002 64.0526 16.2282 64.1162 16.5669 66.1138C16.9056 68.1115 17.3766 68.1804 17.0432 69.4044C16.7045 70.6284 16.4346 72.8221 17.7206 74.1786C19.0066 75.5351 19.6152 75.2118 19.684 76.7591C19.7528 78.3063 21.1076 77.8559 21.8485 77.6599C22.5947 77.4638 23.1345 78.1738 21.9861 78.8839C20.8377 79.5939 19.5517 80.2404 19.9539 81.7876C20.3614 83.3349 21.1023 83.2077 19.9539 84.4953C18.8055 85.7882 17.9905 86.689 19.0066 88.5595C20.0227 90.4299 21.1023 90.5571 20.97 91.336C20.8324 92.1096 19.8851 92.6925 20.8324 93.6569C21.7797 94.6213 22.7958 95.787 22.3883 96.5606C21.9808 97.3343 21.441 97.4614 22.4571 99.4008C23.4732 101.335 24.4893 102.501 25.3678 101.467C26.2463 100.434 26.8549 101.144 26.6538 102.114C26.4527 103.083 26.8549 104.694 28.5484 105.404C30.2419 106.114 30.9829 105.145 31.999 105.855C33.0151 106.565 33.1474 107.921 35.4495 107.725C37.7516 107.529 37.9527 105.468 39.0376 105.468C40.1225 105.468 41.6625 106.692 42.3823 104.954C43.102 103.216 41.1386 102.887 41.8848 100.694C42.631 98.5 42.4035 96.5659 43.3296 96.5659H43.319Z" fill="#1B532B" stroke="#3F654A" stroke-width="1.2" stroke-miterlimit="10"/>
<path d="M45.0511 65.7486L45.3475 66.6547L45.4957 67.1051L45.5698 67.3329C45.5962 67.423 45.6121 67.5078 45.628 67.5925C45.6809 67.9317 45.6756 68.2178 45.8079 68.4403C45.8714 68.5622 45.9614 68.6841 46.0461 68.8325C46.1361 68.9914 46.189 69.1557 46.2366 69.2987C46.3319 69.5849 46.4377 69.871 46.5647 70.1307C46.6864 70.3797 46.877 70.6182 47.0357 70.899C47.1892 71.1639 47.348 71.4819 47.3956 71.8051C47.4221 71.9534 47.4485 72.07 47.5067 72.1548C47.5491 72.2343 47.6761 72.335 47.7449 72.3721C47.7449 72.3827 47.8243 72.3667 47.9989 72.4303C48.0254 72.4462 48.0518 72.4621 48.073 72.478V72.4303C48.0677 72.3561 48.0571 72.2873 48.0518 72.1813V71.9375C48.0677 71.7786 48.0677 71.6355 48.0518 71.5083C48.036 71.3812 47.983 71.2752 47.9089 71.148L47.6496 70.7559C47.5544 70.6075 47.4856 70.4327 47.4432 70.2737L47.3215 69.818C47.2792 69.6856 47.2315 69.5425 47.1839 69.3835C47.0887 69.0603 47.0251 68.7954 46.8823 68.5304C46.8187 68.4033 46.7447 68.2496 46.6759 68.1436C46.6018 68.0217 46.48 67.8681 46.4483 67.6455C46.4271 67.4336 46.4483 67.3329 46.4112 67.2163C46.3795 67.0998 46.316 66.9726 46.2472 66.8348C46.1784 66.697 46.099 66.5381 46.0725 66.3473C46.0567 66.1831 46.0355 66.0665 45.9985 65.9181C45.9349 65.6373 45.8344 65.3353 45.8026 65.0067C45.7709 64.6835 45.8026 64.3603 45.8714 64.0477C45.9244 63.8516 45.8079 63.592 45.6968 63.3111C45.6703 63.2369 45.6386 63.1628 45.6174 63.0833C45.6015 63.025 45.5751 62.9614 45.5486 62.8978C45.4904 62.7654 45.4269 62.6223 45.3898 62.4262L45.3105 62.0712C45.284 61.9652 45.2417 61.801 45.2681 61.7692V61.7374L45.2787 61.7162C45.2787 61.7109 45.3263 61.748 45.3158 61.7215C45.3211 61.6844 45.3316 61.6261 45.3687 61.6049C45.4481 61.5625 45.5539 61.5731 45.6439 61.589C45.7391 61.6049 45.8291 61.6579 45.9191 61.7374C46.009 61.8169 46.0884 61.944 46.1466 62.0447C46.2207 62.1878 46.2737 62.3308 46.3266 62.458C46.4589 62.7124 46.5859 62.9614 46.7129 63.2158C46.7764 63.3376 46.8558 63.4754 46.9087 63.6238L47.0463 64.0265C47.2898 64.5193 47.565 64.9696 47.856 65.4889C48.1048 66.0612 48.2053 66.5381 48.4117 67.0733C48.507 67.3276 48.6128 67.5714 48.7345 67.7992C48.8457 68.0164 49.0256 68.2655 49.142 68.2867C49.1526 68.292 49.1632 68.2867 49.1685 68.2867C49.1738 68.2867 49.1897 68.2867 49.2002 68.2708C49.232 68.2549 49.2161 68.2708 49.2373 68.2231C49.2638 68.1383 49.269 68.0058 49.269 67.8893C49.2638 67.672 49.1738 67.4177 49.0838 67.1845C48.8668 66.7182 48.7292 66.146 48.6128 65.6903C48.544 65.4783 48.3958 65.2717 48.2794 65.0173C48.1683 64.7577 48.1259 64.5087 48.0201 64.3232C47.9725 64.2331 47.8931 64.1377 47.8137 64.0265C47.7396 63.9152 47.6761 63.8039 47.6126 63.6873C47.4856 63.4542 47.4062 63.2157 47.3215 62.9932L47.1892 62.6541C47.1575 62.5693 47.1045 62.4633 47.0463 62.3626C47.0304 62.3361 47.0093 62.3097 46.9881 62.2779C46.9616 62.2461 46.9034 62.1984 46.877 62.1666C46.8029 62.0871 46.7976 62.0394 46.787 61.997C46.7711 61.8381 46.7764 61.8381 46.7499 61.8169C46.7447 61.8063 46.7394 61.7639 46.787 61.7056C46.8293 61.642 46.8558 61.6473 46.8928 61.6155C47.1098 61.6844 47.295 61.7533 47.5544 61.9811C47.856 62.262 47.9248 62.3573 48.0783 62.5004C48.3641 62.7707 48.6446 63.0409 48.9198 63.3005C49.0626 63.4277 49.2055 63.5602 49.3431 63.6979C49.486 63.841 49.5972 64 49.7189 64.1218C49.9676 64.3868 50.2587 64.6252 50.4915 64.9379C50.7244 65.2505 50.8673 65.5737 51.0843 65.8333C51.3013 66.093 51.5553 66.3632 51.7617 66.6335C51.984 66.9037 52.1851 67.0945 52.5079 67.2057C52.6508 67.2693 52.8095 67.3223 52.8889 67.2905C52.9154 67.2905 52.963 67.2322 53.0054 67.1792C53.0477 67.1262 53.0689 67.068 53.0794 67.015C53.1218 66.7765 52.9313 66.5063 52.7302 66.289C52.4867 66.0506 52.3703 65.7221 52.2591 65.4518C52.1745 65.1816 51.9522 65.0491 51.7088 64.8637C51.4706 64.6729 51.2748 64.4557 51.0949 64.2437C50.735 63.8251 50.3434 63.4489 50.0152 63.0621C49.703 62.6647 49.4331 62.2461 49.1262 61.9229C48.9727 61.7586 48.8139 61.5943 48.6763 61.4142C48.5334 61.2393 48.4382 61.0274 48.3641 60.8472C48.29 60.667 48.1524 60.524 48.0413 60.3703C47.9301 60.2166 47.819 60.0789 47.7025 59.9464C47.4591 59.6868 47.2368 59.4483 47.0304 59.2311C46.824 59.0032 46.6917 58.7489 46.5912 58.5263C46.3954 58.0812 46.2366 57.7421 46.1625 57.4984C46.1255 57.3765 46.1043 57.2864 46.0937 57.2228C46.0831 57.1592 46.0831 57.1274 46.0884 57.1274C46.099 57.1274 46.1202 57.2546 46.2101 57.4825C46.2948 57.7156 46.4695 58.0441 46.6812 58.4839C46.787 58.7012 46.9193 58.9343 47.1204 59.1463C47.3321 59.3582 47.5597 59.5914 47.8084 59.8457C47.9301 59.9782 48.0518 60.1213 48.1683 60.2749C48.2794 60.4286 48.4276 60.5717 48.5123 60.773C48.6551 61.1651 48.9303 61.4566 49.2585 61.7904C49.5866 62.1348 49.8459 62.5322 50.1687 62.9296C50.5021 63.3111 50.8885 63.6714 51.2589 64.0901C51.4441 64.2967 51.6294 64.5034 51.8464 64.6729C51.9575 64.7577 52.0845 64.8372 52.2009 64.9485C52.3227 65.0491 52.4285 65.2187 52.4814 65.3565C52.6031 65.6373 52.6984 65.9075 52.9101 66.1142C53.1112 66.3473 53.3811 66.6335 53.3282 67.0627C53.307 67.1633 53.27 67.2587 53.2117 67.3382C53.1535 67.4124 53.1006 67.4972 52.9683 67.5502C52.7196 67.619 52.5502 67.5237 52.3915 67.4654C52.2433 67.4018 52.058 67.3276 51.9152 67.2057C51.7723 67.0892 51.6505 66.9567 51.5341 66.8242C51.3171 66.5487 51.0896 66.3102 50.8461 66.0294C50.6027 65.7433 50.4439 65.4041 50.2375 65.1286C50.0364 64.8584 49.7453 64.6252 49.4807 64.3444C49.3378 64.2013 49.232 64.0477 49.105 63.9258C48.978 63.7933 48.8351 63.6714 48.6922 63.5443C48.4117 63.2793 48.1259 63.0144 47.8401 62.7442C47.4485 62.3679 47.5226 62.4156 47.4168 62.3573C47.3903 62.3361 47.3638 62.3679 47.3956 62.3891C47.4168 62.405 47.4326 62.4262 47.4485 62.4474C47.4644 62.4739 47.4697 62.4845 47.4856 62.5269L47.6232 62.8713C47.7978 63.3641 47.983 63.7191 48.3112 64.1642C48.454 64.4186 48.4964 64.6835 48.5916 64.8849C48.6816 65.0968 48.8404 65.3088 48.9356 65.5896C49.0785 66.1248 49.1844 66.5752 49.4119 67.068C49.5072 67.3223 49.6077 67.5766 49.6236 67.8893C49.6236 68.0376 49.6236 68.1807 49.576 68.3503C49.5601 68.4297 49.4701 68.5675 49.3749 68.6046C49.3008 68.6629 49.1526 68.6947 49.0521 68.6629C48.8351 68.6046 48.7239 68.4721 48.6287 68.3556C48.5387 68.2337 48.4593 68.1118 48.3905 67.9847C48.2529 67.7356 48.1471 67.476 48.0465 67.2163C47.856 66.7288 47.7025 66.1195 47.4962 65.6691C47.2421 65.2134 46.9246 64.7047 46.6653 64.1748L46.5224 63.7668C46.48 63.6449 46.4165 63.539 46.3477 63.4012C46.2154 63.1416 46.0831 62.8978 45.9455 62.6223C45.8873 62.4792 45.8344 62.352 45.7762 62.2355C45.755 62.1984 45.7603 62.209 45.7497 62.1984C45.7391 62.1931 45.7286 62.1984 45.7391 62.209C45.7391 62.209 45.7603 62.3202 45.7709 62.3732C45.7868 62.4739 45.8397 62.6011 45.8979 62.7389C45.9297 62.8077 45.9561 62.8872 45.9826 62.972C45.9985 63.0303 46.0249 63.0939 46.0514 63.1628C46.1466 63.4224 46.3319 63.735 46.2472 64.1377C46.1837 64.4133 46.1625 64.6888 46.189 64.9643C46.2154 65.2346 46.3054 65.5154 46.3742 65.8227C46.4112 65.9711 46.4377 66.1513 46.4536 66.289C46.4695 66.4003 46.5224 66.5222 46.5912 66.6547C46.6547 66.7871 46.7394 66.9355 46.787 67.1157C46.8452 67.2958 46.8187 67.5078 46.8346 67.5978C46.8452 67.6879 46.9087 67.7886 46.9987 67.9264C47.0939 68.08 47.1522 68.2072 47.2315 68.3556C47.3797 68.6417 47.475 68.9808 47.5544 69.2511C47.5914 69.3888 47.6443 69.5372 47.6973 69.7068L47.819 70.1571C47.8878 70.4433 48.0518 70.6288 48.2424 70.9308C48.3323 71.0686 48.417 71.254 48.4435 71.4448C48.4699 71.6302 48.4646 71.7998 48.4593 71.9587V72.1866C48.454 72.2396 48.4593 72.3244 48.4699 72.4091V72.478C48.4752 72.5151 48.4699 72.5575 48.4699 72.5946C48.4646 72.6688 48.4488 72.743 48.417 72.8013C48.3641 72.9231 48.2318 72.992 48.0995 72.992C48.036 72.992 47.9777 72.9708 47.9142 72.9284C47.856 72.886 47.7661 72.7906 47.7925 72.8224C47.8084 72.8171 47.7026 72.8277 47.5385 72.7642C47.3533 72.6582 47.2421 72.5628 47.1204 72.3932C47.0146 72.2237 46.9775 72.0435 46.9511 71.8951C46.9087 71.6196 46.787 71.3812 46.6441 71.1268C46.5012 70.8778 46.3054 70.634 46.1572 70.332C46.0143 70.0406 45.9032 69.7438 45.8026 69.4471C45.755 69.2987 45.7074 69.1663 45.6439 69.055C45.5751 68.9384 45.4798 68.806 45.3951 68.6523C45.2099 68.3185 45.2205 67.9529 45.1729 67.672C45.1623 67.6031 45.1464 67.5343 45.1305 67.4707L45.0564 67.2481L44.9083 66.7977L44.6119 65.8969C44.5219 65.6532 44.4425 65.3406 44.3685 65.1233C44.3314 65.012 44.2626 64.9273 44.2414 64.9273C44.2414 64.9273 44.2097 64.9273 44.2203 64.9273L44.1885 64.9855C44.1885 64.9855 44.1885 65.0226 44.1462 65.1498C44.0933 65.2664 44.0245 65.3194 44.0192 65.33C44.0192 65.33 43.9927 65.4571 44.0033 65.5525C44.0086 65.6638 44.0245 65.7857 44.0245 65.934C44.0245 66.0029 44.0086 66.0983 43.9927 66.1566L43.9504 66.3314C43.9239 66.4533 43.8922 66.5752 43.8498 66.697C43.8128 66.8189 43.744 66.9567 43.7228 67.0309C43.6646 67.2004 43.7016 67.4442 43.6434 67.7197L43.5429 68.0747C43.5164 68.1648 43.5164 68.2761 43.4952 68.4086C43.4847 68.4721 43.4741 68.541 43.437 68.6417C43.3947 68.7318 43.31 68.8272 43.2095 68.8695C42.9978 68.9596 42.8072 68.8907 42.6644 68.8007C42.5215 68.7106 42.405 68.5145 42.405 68.3291C42.405 68.1648 42.4421 68.0376 42.4738 67.9158L42.5797 67.5819C42.6061 67.4919 42.6167 67.3965 42.6167 67.2852C42.6167 67.0786 42.5903 66.7924 42.6591 66.5434C42.7014 66.3526 42.6749 66.1195 42.7226 65.8492C42.7808 65.6108 42.7914 65.4306 42.802 65.1816C42.8072 65.065 42.8178 64.9432 42.8337 64.816C42.8602 64.6729 42.8708 64.6146 42.876 64.4875C42.8813 64.3762 42.8919 64.2384 42.9343 64.1006C42.9501 64.0371 42.9872 63.9576 43.0084 63.9099C43.0295 63.8675 43.0454 63.8198 43.0613 63.7721C43.1248 63.5814 43.146 63.3694 43.146 63.1522C43.146 62.9349 43.1354 62.7071 43.1354 62.4686C43.1354 62.209 43.1724 62.0023 43.1724 61.7798C43.1777 61.5731 43.1671 61.3294 43.1036 61.2287C43.0877 61.2075 43.093 61.2128 43.0824 61.2075C43.0507 61.1969 43.0348 61.1969 43.0295 61.1969C43.0295 61.1969 42.9819 61.2234 42.9501 61.3082C42.8337 61.7321 42.712 62.1507 42.5956 62.5693C42.5691 62.67 42.5479 62.7865 42.5003 62.9137C42.4527 63.0462 42.3574 63.1681 42.3045 63.2422C42.1986 63.3853 42.1404 63.5761 42.0822 63.788C42.0505 63.8993 42.024 64 41.9658 64.1324C41.9023 64.2649 41.8229 64.3603 41.7594 64.4398C41.6906 64.5246 41.6483 64.5881 41.6271 64.657C41.6006 64.7312 41.5953 64.8425 41.553 64.9749C41.5107 65.1286 41.4048 65.2399 41.3519 65.3088C41.3201 65.3512 41.3043 65.3777 41.2884 65.4094L41.2196 65.5631C41.1349 65.7751 41.0291 65.9605 40.9338 66.146C40.738 66.5222 40.5686 66.9037 40.4416 67.2958C40.3675 67.4972 40.3517 67.6561 40.2934 67.9052C40.267 68.027 40.177 68.1807 40.0976 68.2549C40.0182 68.3397 39.9653 68.398 39.9442 68.4562C39.8859 68.6099 39.8436 68.8325 39.7801 69.0391C39.7483 69.1451 39.706 69.2564 39.6531 69.3623L39.6107 69.4418C39.5896 69.4842 39.5631 69.5107 39.542 69.5372C39.4996 69.5796 39.4784 69.6114 39.4837 69.6061C39.4732 69.5849 39.5049 69.6856 39.4467 69.8551C39.4096 69.9399 39.362 69.9982 39.3356 70.0406C39.3091 70.083 39.3038 70.0936 39.2879 70.1466C39.2615 70.2472 39.2456 70.3638 39.2191 70.4857C39.1927 70.6075 39.1556 70.7506 39.0868 70.8725L38.9175 71.1851C38.8645 71.2911 38.7957 71.3971 38.764 71.4871C38.7217 71.5878 38.6793 71.7097 38.6211 71.8263C38.5576 71.9429 38.4941 72.07 38.3459 72.176C38.2771 72.229 38.166 72.2661 38.0813 72.2555C37.9966 72.2555 37.8908 72.2396 37.8061 72.1813C37.6315 72.0488 37.605 71.8687 37.5838 71.7362C37.5732 71.5984 37.5838 71.4712 37.5944 71.3494C37.6262 71.1056 37.6844 70.8725 37.7532 70.6499C37.8167 70.4486 37.8537 70.2207 37.9331 69.9876C37.9702 69.8763 38.0284 69.7438 38.0866 69.6485L38.2454 69.3517C38.293 69.2511 38.3882 69.1292 38.4465 69.055C38.5153 68.9649 38.547 68.9225 38.5629 68.8272C38.6105 68.6311 38.6211 68.4139 38.6687 68.1754C38.7905 67.6826 39.0551 67.3435 39.1821 66.9567C39.3408 66.554 39.5049 66.1566 39.6584 65.7592C39.7431 65.5578 39.8013 65.3724 39.9124 65.1657C40.0235 64.9696 40.1453 64.8054 40.2405 64.6358C40.4416 64.3285 40.4099 63.9152 40.5951 63.4913C40.8015 63.1257 41.0185 62.7654 41.2249 62.4633C41.2725 62.3838 41.2937 62.3308 41.2831 62.2938C41.2778 62.2408 41.2355 62.156 41.1931 62.0553C41.1667 61.9864 41.1667 61.9811 41.1667 61.9705C41.1667 61.9599 41.1667 61.944 41.1508 61.9387C41.1243 61.9281 41.1032 61.9546 41.0873 61.9652L40.9073 62.156L40.7062 62.3467C40.5475 62.4686 40.4998 62.5693 40.4046 62.7654C40.2987 62.9455 40.2035 63.078 40.1029 63.2369C40.0024 63.3641 40.013 63.5178 39.8912 63.7403C39.7695 63.9311 39.669 64.0106 39.616 64.1695C39.5843 64.249 39.5472 64.3444 39.4837 64.4345C39.4202 64.5245 39.3408 64.5881 39.2826 64.6464C39.2191 64.7047 39.1768 64.7471 39.145 64.8054C39.108 64.8743 39.0762 64.9485 39.0339 65.0332C38.9598 65.2081 38.8063 65.3618 38.6899 65.4677C38.5682 65.5843 38.457 65.7009 38.3565 65.8227C38.3089 65.8863 38.2612 65.9446 38.2401 65.9976C38.2136 66.0559 38.1924 66.1566 38.1236 66.2519C38.0178 66.3685 37.9437 66.3897 37.9331 66.4162C37.8802 66.4692 37.8696 66.5964 37.7796 66.7447C37.6897 66.8507 37.605 66.9302 37.5203 67.0256C37.3457 67.2057 37.1975 67.3859 37.0017 67.5607C36.8747 67.6773 36.7053 67.7886 36.5836 67.8045C36.5254 67.8151 36.4513 67.8098 36.4037 67.7515C36.3666 67.6985 36.3613 67.6349 36.3613 67.5661C36.3613 67.4389 36.446 67.2216 36.4989 67.1103C36.5518 67.0044 36.6154 66.9037 36.6789 66.8083C36.9329 66.4374 37.2134 66.1036 37.4674 65.7645C37.7161 65.4147 38.039 65.1604 38.2348 64.8478C38.4412 64.5351 38.5788 64.1801 38.7693 63.8622C38.9598 63.5231 39.235 63.3164 39.3197 63.0091C39.4996 62.352 39.9283 61.8699 40.1982 61.4195C41.1137 59.4854 41.3625 58.3091 41.4313 58.3409C41.4366 58.3409 41.4154 58.415 41.3731 58.5475C41.336 58.6853 41.2778 58.8919 41.2037 59.1622C41.1402 59.4377 41.0185 59.7662 40.8703 60.153C40.7168 60.5346 40.6004 61.0115 40.3199 61.4883C40.05 61.9652 39.6478 62.4209 39.4837 63.0674C39.4308 63.2263 39.3408 63.4012 39.2297 63.539C39.1186 63.6767 39.018 63.8092 38.9333 63.9629C38.7587 64.2649 38.6264 64.6199 38.4041 64.9643C38.1871 65.3141 37.8643 65.5737 37.6315 65.9128C37.388 66.2467 37.1181 66.5752 36.8694 66.9461C36.8112 67.0362 36.753 67.1263 36.7053 67.2216C36.663 67.3117 36.663 67.3223 36.6471 67.3806C36.6471 67.4018 36.6365 67.4283 36.6471 67.4495C36.6577 67.476 36.6947 67.4601 36.7106 67.4495C36.7582 67.423 36.7847 67.4018 36.8323 67.3594C36.9858 67.2163 37.1499 67.0256 37.3086 66.856L37.5468 66.5964C37.5944 66.5381 37.605 66.4003 37.7108 66.2519C37.7955 66.1566 37.8802 66.1195 37.9014 66.0877C37.9278 66.0506 37.949 65.987 37.9807 65.8916C38.0231 65.791 38.0813 65.7221 38.1342 65.6532C38.2454 65.5154 38.3618 65.3935 38.4835 65.2717C38.6105 65.1445 38.7058 65.0544 38.7693 64.9114C38.801 64.8425 38.8381 64.7577 38.8804 64.6729C38.9281 64.5775 39.0074 64.4928 39.0762 64.4345C39.2191 64.3126 39.272 64.2384 39.3356 64.0583C39.3673 63.9788 39.4149 63.8728 39.4784 63.7933C39.5367 63.7138 39.5896 63.6502 39.6266 63.5867C39.6901 63.4913 39.7113 63.2581 39.833 63.0886C39.9283 62.9349 40.0447 62.7653 40.1241 62.6276C40.1611 62.5534 40.1982 62.4633 40.2564 62.3679C40.3199 62.262 40.394 62.2143 40.4628 62.1401L40.6692 61.944C40.7327 61.8804 40.775 61.8169 40.8809 61.7215C41.0026 61.6102 41.1508 61.5307 41.2831 61.589C41.3466 61.6208 41.3836 61.6738 41.4101 61.7533C41.4366 61.8328 41.4577 61.9228 41.4736 61.944C41.5054 62.0235 41.5583 62.1136 41.5847 62.2514C41.6112 62.4103 41.5371 62.5428 41.4842 62.6329C41.2566 62.9773 41.0714 63.3058 40.8809 63.6343C40.7327 63.9417 40.7645 64.4027 40.521 64.8107C40.4152 65.0014 40.2882 65.171 40.1982 65.3353C40.1135 65.4942 40.0447 65.7115 39.9653 65.8969C39.8119 66.2837 39.6584 66.6759 39.4996 67.0733C39.3567 67.5025 39.0868 67.884 39.0021 68.2496C38.9598 68.4457 38.9492 68.6682 38.8963 68.9066C38.8751 69.0391 38.7852 69.1875 38.7164 69.2723C38.637 69.3729 38.5894 69.4259 38.5417 69.5266L38.383 69.8233C38.33 69.9187 38.293 69.9982 38.2612 70.0989C38.1977 70.2949 38.1607 70.5175 38.0866 70.7559C38.0231 70.9679 37.9702 71.1798 37.9437 71.3971C37.9119 71.5931 37.9437 71.8528 37.9966 71.8687C38.0125 71.8793 38.0866 71.8899 38.1131 71.8634C38.1607 71.8369 38.2136 71.7521 38.2612 71.662C38.3089 71.5666 38.3459 71.4659 38.3882 71.3494C38.4412 71.2169 38.4994 71.1215 38.5523 71.0155L38.7164 70.7029C38.764 70.6128 38.7905 70.5281 38.8116 70.4168C38.8328 70.3055 38.8487 70.1836 38.8857 70.0565C38.9016 69.9876 38.9439 69.8922 38.9863 69.8339C39.0286 69.7756 39.0498 69.7385 39.0657 69.7121C39.0762 69.7279 39.0445 69.6485 39.1027 69.463C39.1503 69.3623 39.2032 69.3199 39.2297 69.2882C39.2456 69.2723 39.2509 69.2617 39.2562 69.2564L39.2879 69.1981C39.3303 69.1186 39.362 69.0338 39.3885 68.9384C39.4467 68.7477 39.4784 68.5569 39.5684 68.3132C39.6319 68.1701 39.7272 68.08 39.7907 68.0111C39.8542 67.937 39.8754 67.8999 39.9018 67.8151C39.9389 67.6561 39.9759 67.3912 40.05 67.1898C40.1823 66.7712 40.3622 66.3685 40.5633 65.9764C40.6639 65.7804 40.775 65.5896 40.8438 65.3989L40.9073 65.2558C40.9338 65.1922 40.9814 65.1286 41.0132 65.0809C41.0873 64.9802 41.1349 64.9273 41.1508 64.8637C41.1772 64.7895 41.1825 64.6782 41.2249 64.5457C41.2672 64.4027 41.3519 64.2861 41.4207 64.2013C41.4895 64.1112 41.553 64.0318 41.5847 63.9682C41.6165 63.8993 41.6483 63.788 41.6747 63.682C41.7329 63.4754 41.8017 63.2263 41.9605 63.0091C42.0346 62.9084 42.0822 62.8501 42.1087 62.7706C42.1404 62.6912 42.1616 62.5852 42.1881 62.4686C42.331 61.9917 42.3997 61.6579 42.5585 61.1439C42.6114 61.0274 42.7067 60.8472 42.9343 60.7942C43.0401 60.773 43.1354 60.7942 43.2095 60.8207C43.31 60.8525 43.4 60.9373 43.4423 61.0115C43.6011 61.3135 43.5693 61.5519 43.5746 61.7904C43.5746 62.0235 43.5376 62.2673 43.5376 62.4686C43.5376 62.6912 43.5535 62.919 43.5482 63.1628C43.5482 63.4012 43.5217 63.6555 43.4423 63.9046C43.4211 63.9682 43.4 64.0265 43.3682 64.0901C43.3418 64.1483 43.3312 64.1748 43.3153 64.2225C43.2888 64.3073 43.2835 64.4027 43.273 64.5193C43.183 65.4094 43.0189 66.4586 43.0084 67.2958C43.0084 67.423 42.9978 67.5661 42.9554 67.6985L42.8496 68.0376C42.8178 68.1436 42.7967 68.2496 42.7967 68.3185C42.7967 68.3768 42.8178 68.4033 42.8708 68.4509C42.9237 68.488 42.9925 68.4933 43.0031 68.4827C43.0084 68.4827 43.0295 68.4774 43.0454 68.3503C43.0613 68.2496 43.0666 68.1171 43.0983 67.9741L43.1936 67.6402C43.2412 67.4495 43.1936 67.2004 43.2835 66.9037C43.3365 66.75 43.3788 66.6758 43.4106 66.5646C43.4476 66.4586 43.4741 66.3473 43.5005 66.2307L43.5429 66.0559C43.5587 65.9976 43.5587 65.9711 43.564 65.9181C43.564 65.8227 43.5535 65.7062 43.5429 65.5737C43.5429 65.4306 43.5164 65.3088 43.6275 65.0915C43.781 64.8849 43.6646 65.1021 43.7651 64.7895C43.7863 64.7471 43.8604 64.5934 43.9821 64.5405C44.1144 64.4822 44.2309 64.4875 44.3579 64.5351C44.596 64.6464 44.6595 64.8319 44.7177 64.9697C44.8183 65.2717 44.8712 65.4942 44.9718 65.7645L45.0511 65.7486Z" fill="#3F654A"/>
<path d="M43.8505 74.004C43.7288 74.4173 43.6864 74.7723 43.7076 75.1909C43.7341 75.5936 43.6917 76.0546 43.6917 76.4096C43.6917 76.5951 43.7235 76.7646 43.7976 76.8971C43.9087 77.0773 43.9563 77.321 44.0092 77.4747C44.0569 77.6336 44.1627 77.7926 44.2209 78.0257C44.2739 78.2748 44.2368 78.4391 44.2474 78.6298C44.2474 79.3664 44.2262 80.0817 44.1945 80.7281C44.1839 81.0514 44.1839 81.364 44.1998 81.6607C44.1998 81.8038 44.2368 81.9098 44.2897 82.0475C44.3427 82.18 44.385 82.3443 44.4168 82.4608C44.4538 82.588 44.5014 82.6993 44.5596 82.8106C44.6231 82.9324 44.6814 83.0596 44.7184 83.1921C44.7978 83.457 44.7872 83.7272 44.7449 83.9551C44.639 84.379 44.6496 84.7499 44.6655 85.0572C44.6761 85.2003 44.7184 85.3328 44.729 85.4599C44.7449 85.5924 44.729 85.6878 44.7184 85.7726C44.7025 85.9368 44.6919 86.0216 44.6761 86.0216C44.6602 86.0216 44.6443 85.9368 44.6337 85.7726C44.6231 85.6931 44.6284 85.5871 44.602 85.4811C44.5808 85.3699 44.5226 85.2427 44.4961 85.0731C44.4538 84.7605 44.422 84.3578 44.5067 83.9127C44.5332 83.7061 44.5332 83.4888 44.4591 83.2715C44.422 83.1603 44.3744 83.0543 44.3056 82.9483C44.2368 82.8265 44.1733 82.6887 44.1257 82.5509C44.078 82.4025 44.0463 82.2913 43.9881 82.1535C43.9352 82.0263 43.8717 81.8409 43.8664 81.6766C43.8346 81.364 43.8293 81.0408 43.8346 80.7122C43.8505 80.0499 43.8558 79.3663 43.8452 78.6245C43.8399 78.4444 43.8558 78.2324 43.824 78.1158C43.7923 77.9781 43.6864 77.8085 43.6176 77.6019C43.5488 77.3899 43.5224 77.2415 43.4271 77.0826C43.316 76.8706 43.2789 76.6322 43.2736 76.4202C43.2736 75.9751 43.3107 75.6201 43.2789 75.1962C43.2736 74.9843 43.2736 74.767 43.2948 74.5392C43.3213 74.3113 43.3795 74.0994 43.4324 73.8927C43.4853 73.6861 43.5329 73.49 43.5541 73.3045C43.57 73.0979 43.5859 72.8965 43.6018 72.6952C43.6335 72.2978 43.6864 71.858 43.6123 71.5347C43.5753 71.3758 43.4853 71.1956 43.4271 70.9784C43.3689 70.7558 43.3636 70.5492 43.3636 70.3425C43.3795 69.9557 43.3901 69.5742 43.4059 69.2033C43.4218 68.8324 43.4377 68.4985 43.3371 68.2018C43.2313 67.8521 43.1678 67.5024 43.1519 67.1579C43.1413 66.4797 43.1678 65.8809 43.1678 65.3299C43.1678 65.0543 43.1572 64.7841 43.1784 64.5244C43.1942 64.2595 43.2683 64.0158 43.3266 63.8038C43.3954 63.5919 43.4218 63.3746 43.5488 63.1997C43.66 63.0355 43.7552 62.9136 43.7976 62.7705C43.8928 62.5003 43.8769 62.2354 43.9457 62.0764C44.004 61.9227 44.0251 61.8433 44.041 61.8433C44.0569 61.8433 44.0622 61.9386 44.0304 62.0976C43.9881 62.2513 44.0304 62.4897 43.9563 62.8183C43.9193 62.9825 43.8081 63.1521 43.7182 63.3004C43.6229 63.4435 43.607 63.6501 43.5541 63.8621C43.4218 64.286 43.4271 64.747 43.4642 65.314C43.4747 65.8703 43.4853 66.4797 43.5012 67.1315C43.5224 67.4441 43.5859 67.762 43.6864 68.0799C43.8187 68.4456 43.8029 68.8483 43.7923 69.2139C43.7817 69.5795 43.7764 69.9557 43.7658 70.3372C43.7658 70.5174 43.7817 70.7028 43.824 70.8618C43.8664 71.0261 43.9616 71.2009 44.0198 71.4341C44.1151 71.9004 44.0516 72.2819 44.0198 72.7058C44.004 72.9177 43.9881 73.1297 43.9669 73.3416C43.9457 73.5695 43.8875 73.7867 43.8346 73.9934L43.8505 74.004Z" fill="#3F654A"/>
<path d="M45.7305 73.6217C45.7305 73.8337 45.7199 74.0297 45.7093 74.2205C45.7093 74.3847 45.7093 74.6444 45.6564 74.8298C45.6352 74.9252 45.614 75.01 45.614 75.0736C45.614 75.1478 45.6246 75.2431 45.614 75.365C45.5823 75.6141 45.5346 75.7518 45.5241 75.9267C45.487 76.2605 45.614 76.4937 45.831 76.8063C45.9316 76.9599 46.0374 77.156 46.0639 77.3732C46.0903 77.5799 46.0744 77.7707 46.0321 77.9561C45.9951 78.131 45.9157 78.3429 45.8045 78.486C45.704 78.6397 45.6617 78.6926 45.6617 78.8304C45.6775 79.1377 45.6617 79.4716 45.6617 79.7524C45.6722 79.9909 45.8363 80.277 45.8469 80.6055C45.8575 80.9128 45.8204 81.1619 45.8998 81.3632C45.9474 81.4692 46.0004 81.6388 45.9951 81.7765C45.9951 81.9143 45.9792 82.0468 45.958 82.1633C45.9051 82.4071 45.8786 82.5714 45.8681 82.7992C45.8151 83.2125 45.7622 83.5516 45.7463 83.8378C45.7305 84.1186 45.7305 84.3465 45.7834 84.4683C45.8363 84.5902 45.9369 84.5531 45.9369 84.5743C45.9369 84.5796 45.921 84.5902 45.8786 84.6008C45.8363 84.6167 45.7569 84.5796 45.7093 84.5107C45.614 84.3623 45.5876 84.1292 45.5823 83.8378C45.5717 83.5463 45.6034 83.186 45.6352 82.7833C45.6405 82.6985 45.6352 82.5767 45.6458 82.4601C45.6564 82.3435 45.6775 82.2322 45.6934 82.121C45.7252 81.8878 45.741 81.7024 45.6246 81.4798C45.5029 81.1937 45.5452 80.8863 45.5241 80.6373C45.5241 80.3936 45.36 80.1551 45.3177 79.7895C45.3071 79.4663 45.3177 79.1748 45.2965 78.8357C45.2965 78.7456 45.3071 78.6291 45.3494 78.5231C45.3918 78.4224 45.4447 78.3482 45.487 78.2793C45.577 78.1522 45.614 78.0409 45.6458 77.8819C45.6722 77.7336 45.6828 77.5799 45.6617 77.4368C45.6458 77.2991 45.5823 77.1825 45.487 77.0394C45.397 76.8964 45.2753 76.7427 45.1907 76.5413C45.1113 76.34 45.0848 76.1174 45.1007 75.9055C45.1113 75.7094 45.1748 75.4816 45.1854 75.3597C45.1854 75.2908 45.1801 75.1955 45.1854 75.0842C45.1854 74.957 45.2171 74.8563 45.233 74.7662C45.2806 74.5808 45.2753 74.4536 45.2806 74.2258C45.2859 74.0244 45.3018 73.8337 45.2965 73.6535C45.2965 73.4733 45.2595 73.3091 45.233 73.0971C45.2065 72.8958 45.1959 72.6944 45.1907 72.4984C45.1907 72.1169 45.1907 71.7353 45.1907 71.3644C45.1907 71.2796 45.1907 71.1631 45.1907 71.1048C45.1854 71.0412 45.1642 70.967 45.1377 70.8716C45.0742 70.665 45.0901 70.4424 45.1007 70.2729C45.1113 69.9391 45.1219 69.5522 45.1748 69.2131C45.2224 68.8687 45.3071 68.5296 45.36 68.2328C45.4129 67.9308 45.4235 67.6288 45.3918 67.3533C45.3547 67.0724 45.27 66.7916 45.2118 66.5054C45.1483 66.214 45.1483 65.9226 45.143 65.6735C45.1324 65.1543 45.143 64.6827 45.1959 64.2641C45.233 64.0362 45.323 63.8614 45.3812 63.7024C45.4182 63.6229 45.4182 63.5699 45.4447 63.4692C45.4711 63.3792 45.5241 63.2944 45.5876 63.2414C45.6458 63.1884 45.6828 63.1566 45.6987 63.1142C45.7199 63.0665 45.7252 63.0082 45.7357 62.9553C45.7569 62.8334 45.8257 62.7433 45.8628 62.685C45.9474 62.5685 45.9316 62.489 45.9474 62.4837C45.958 62.4731 46.0057 62.5737 45.9369 62.7274C45.9051 62.8016 45.8628 62.8758 45.8575 62.9765C45.8575 63.0294 45.8575 63.093 45.8363 63.1672C45.8151 63.252 45.7463 63.3156 45.7093 63.3633C45.6669 63.411 45.6458 63.4587 45.6299 63.5275C45.6193 63.5805 45.614 63.6971 45.5823 63.7819C45.5294 63.9567 45.4553 64.1316 45.4394 64.3065C45.4076 64.6986 45.4235 65.1649 45.4553 65.6735C45.4711 65.9385 45.4764 66.1875 45.5452 66.4472C45.6087 66.7121 45.704 66.9929 45.7569 67.3109C45.8098 67.6341 45.7993 67.9679 45.7463 68.3017C45.6934 68.6409 45.614 68.9482 45.577 69.2767C45.5294 69.6105 45.5294 69.9232 45.5188 70.3047C45.5082 70.4848 45.5029 70.6332 45.5505 70.7763C45.5717 70.8557 45.6087 70.9564 45.6193 71.073C45.6299 71.2002 45.6193 71.2691 45.6246 71.3697C45.6246 71.7406 45.6246 72.1169 45.6246 72.4984C45.6246 72.6838 45.6405 72.8693 45.667 73.0547L45.7093 73.3356C45.7252 73.4468 45.7357 73.5528 45.7357 73.6588L45.7305 73.6217Z" fill="#3F654A"/>
<path d="M25.5244 80.0605C25.9002 79.7479 26.2601 79.4353 26.5988 79.1226C26.9322 78.81 27.2815 78.4974 27.6149 78.2324C28.2923 77.6973 28.8903 77.2522 29.3507 76.7965C30.298 75.9222 30.9066 75.4029 30.9437 75.4453C30.986 75.4877 30.4515 76.0864 29.5571 77.019C29.1284 77.5012 28.5092 78.0046 27.8636 78.5398C27.5302 78.81 27.2232 79.1014 26.8792 79.43C26.5353 79.7479 26.1754 80.0711 25.7943 80.389C24.2649 81.666 22.8148 82.6622 21.7246 83.3988C21.4441 83.5736 21.1954 83.7061 20.9837 83.8491C20.772 83.9869 20.5921 84.1035 20.4439 84.1989C20.3275 84.2995 20.2481 84.432 20.1687 84.4956C20.0893 84.5645 20.0364 84.5751 20.0311 84.5645C20.0205 84.5486 20.0576 84.5168 20.1052 84.4373C20.1581 84.3631 20.1952 84.2307 20.3328 84.077C20.4968 83.9339 20.6503 83.8174 20.8514 83.6531C21.0525 83.4888 21.3065 83.3246 21.5659 83.1444C22.5714 82.3761 24.032 81.311 25.5297 80.0605H25.5244Z" fill="#3F654A"/>
<path d="M28.8108 91.6172C30.7742 90.213 32.5789 88.9678 33.8702 88.0882C34.1666 87.8339 34.4365 87.6007 34.6746 87.3994C34.918 87.1874 35.1509 87.0497 35.315 86.9119C35.479 86.7794 35.5743 86.6417 35.6695 86.5569C35.7595 86.4721 35.823 86.4509 35.8283 86.4615C35.8389 86.4721 35.7966 86.5198 35.7331 86.6152C35.6695 86.7052 35.5902 86.8695 35.4261 87.0338C35.2673 87.2033 35.0504 87.3623 34.8334 87.5795C34.6058 87.7968 34.3465 88.0511 34.0607 88.3267C32.7906 89.291 31.0177 90.5681 29.0649 91.9669C28.0911 92.6717 27.1332 93.3128 26.3076 93.9381C25.9001 94.2613 25.5191 94.5845 25.1327 94.8601C24.7464 95.1197 24.3865 95.3582 24.0584 95.5754C23.3916 95.9887 22.8888 96.3914 22.5237 96.6405C22.3649 96.757 22.2485 96.916 22.1215 96.9637C21.9945 97.0167 21.9257 96.9743 21.9309 96.9637C21.9309 96.9478 21.9945 96.9531 22.0791 96.8895C22.1691 96.8312 22.2432 96.6881 22.4178 96.5186C22.7512 96.2272 23.2222 95.7927 23.8785 95.337C24.196 95.1038 24.5506 94.8495 24.9263 94.5792C25.2915 94.3037 25.6567 93.9752 26.0642 93.6413C26.895 92.9843 27.8371 92.3431 28.8214 91.6331L28.8108 91.6172Z" fill="#3F654A"/>
<path d="M30.5575 96.2647C31.2666 95.6342 31.9229 95.0142 32.505 94.4367C33.0607 93.8326 33.5635 93.2921 33.9816 92.8364C34.8336 91.9091 35.3311 91.3422 35.3681 91.3634C35.3893 91.3793 35.3099 91.5594 35.1088 91.8508C34.9077 92.1423 34.6007 92.545 34.2091 93.0272C33.8069 93.5094 33.3306 94.0922 32.7802 94.7122C32.2087 95.3162 31.5471 95.9468 30.8327 96.5827C30.1235 97.2291 29.4038 97.7855 28.8058 98.3366C28.2025 98.8876 27.6679 99.4122 27.1969 99.8255C26.2549 100.668 25.5563 101.039 25.5299 100.991C25.4928 100.938 26.1173 100.488 26.9905 99.603C27.4298 99.1685 27.9378 98.6227 28.5359 98.0451C29.1392 97.4623 29.8483 96.9006 30.5522 96.2594L30.5575 96.2647Z" fill="#3F654A"/>
<path d="M55.8903 96.9422C54.5355 95.6917 53.3236 94.5472 52.4609 93.6994C51.5983 92.8516 51.0849 92.3058 51.122 92.2634C51.159 92.221 51.7465 92.6873 52.662 93.4768C53.5776 94.2664 54.8213 95.3791 56.1761 96.6296C57.5309 97.8801 58.7428 99.0247 59.6107 99.8725C60.4733 100.72 60.9867 101.266 60.9444 101.308C60.902 101.351 60.3199 100.885 59.4043 100.095C58.4888 99.3055 57.2451 98.1928 55.8903 96.9422Z" fill="#3F654A"/>
<path d="M58.3629 93.048C60.104 93.8852 61.7288 94.6005 62.8137 95.3053C63.9039 95.9941 64.4542 96.5876 64.4225 96.6194C64.3801 96.6723 63.7715 96.169 62.6602 95.5649C61.5647 94.9396 59.94 94.2773 58.1777 93.4295C56.4207 92.5817 54.8859 91.6968 53.8116 91.0133C52.732 90.3297 52.1022 89.8528 52.134 89.8051C52.1657 89.7521 52.8537 90.1389 53.9651 90.7536C55.0764 91.3683 56.6218 92.2002 58.3682 93.0427L58.3629 93.048Z" fill="#3F654A"/>
<path d="M58.3695 88.4061C60.3488 89.1744 62.1429 89.8685 63.4448 90.3719C64.7414 90.8806 65.5405 91.2091 65.5193 91.2621C65.4982 91.3151 64.6673 91.0873 63.3389 90.6528C62.0106 90.2183 60.1954 89.5718 58.2108 88.7982C56.2262 88.0246 54.4533 87.2668 53.1885 86.684C51.9183 86.1064 51.151 85.709 51.1774 85.656C51.2039 85.603 52.0136 85.8997 53.3102 86.4084C54.6068 86.9171 56.3955 87.6218 58.3748 88.4008L58.3695 88.4061Z" fill="#3F654A"/>
<path d="M59.1568 81.1252C61.1943 81.9359 63.036 82.6671 64.3697 83.197C65.7033 83.7375 66.5183 84.0872 66.4971 84.1455C66.476 84.1985 65.6239 83.9494 64.2638 83.4831C62.9037 83.0168 61.0409 82.3333 58.9981 81.5226C56.9606 80.7172 55.1295 79.9382 53.817 79.3448C52.5045 78.7566 51.7107 78.3539 51.7319 78.3009C51.753 78.2479 52.5945 78.55 53.9334 79.0692C55.2671 79.5938 57.114 80.3251 59.1515 81.1252H59.1568Z" fill="#3F654A"/>
<path d="M27.6264 85.7038C29.3252 83.9764 30.7488 82.302 31.7861 81.0939C32.8233 79.8858 33.4743 79.1439 33.5219 79.181C33.5642 79.2181 32.998 80.0235 32.0189 81.2846C31.0399 82.5404 29.6427 84.2573 27.928 86.0059C26.2134 87.7492 24.4616 89.1321 23.1068 89.9905C22.4294 90.4198 21.8685 90.743 21.461 90.9337C21.0587 91.1298 20.8312 91.2252 20.8153 91.1987C20.7835 91.1351 21.6462 90.6582 22.9375 89.7415C24.2341 88.8301 25.9223 87.4312 27.6211 85.7091L27.6264 85.7038Z" fill="#3F654A"/>
<path d="M40.295 93.9496C40.1098 94.2145 39.8822 94.4105 39.6758 94.596C39.4694 94.7762 39.2524 94.9722 39.2577 95.0888C39.2313 95.1842 39.4218 95.3378 39.6017 95.3325C39.697 95.3325 39.8028 95.3113 39.9034 95.269C39.9669 95.2425 39.9828 95.2372 40.0833 95.1842L40.4061 95.0093C40.4591 95.0941 40.5226 95.1842 40.5649 95.2795C40.6125 95.3696 40.6284 95.5074 40.6284 95.6028C40.6284 95.7564 40.5861 95.8942 40.5437 96.0161C40.5014 96.138 40.4538 96.2492 40.4061 96.3552C40.3638 96.4506 40.3426 96.5354 40.332 96.6307C40.3109 96.8162 40.3691 96.9964 40.4591 97.0334C40.5543 97.0917 40.729 97.0335 40.9036 96.9434C40.9936 96.901 41.0888 96.8533 41.2 96.8109C41.3111 96.7685 41.5334 96.742 41.6498 96.8321C41.8245 96.8957 41.7662 97.0546 41.7292 97.2136C41.7027 97.309 41.6816 97.3991 41.6551 97.4891C41.5651 97.8336 41.4752 98.1568 41.4011 98.4429C41.3852 98.5065 41.364 98.5701 41.3482 98.6337C41.3376 98.6655 41.327 98.6973 41.3164 98.7291L41.3005 98.7821C41.3005 98.7821 41.327 98.7821 41.3429 98.7821C41.3746 98.7821 41.4011 98.7768 41.4328 98.7662C41.4752 98.7609 41.5969 98.7132 41.671 98.6655C41.7504 98.6178 41.8192 98.5701 41.8774 98.5171C42.1102 98.3105 42.1632 98.1303 42.1896 98.1409C42.2055 98.1409 42.1949 98.3422 41.9726 98.6072C41.9144 98.6708 41.8456 98.7397 41.7557 98.7979C41.6657 98.8615 41.5863 98.9145 41.4064 98.9675C41.327 98.9887 41.2423 99.0099 41.1576 99.0205C41.1153 99.0205 41.0571 99.0417 41.0306 99.0311L41.0465 98.9039C41.0518 98.8191 41.0835 98.7132 41.1047 98.6072C41.1206 98.533 41.1365 98.4535 41.1523 98.374C41.2158 98.0826 41.2847 97.7594 41.3587 97.4097C41.3746 97.3249 41.3958 97.2401 41.4117 97.1553C41.4117 97.1341 41.4328 97.1023 41.3958 97.097C41.3587 97.097 41.3746 97.0864 41.3005 97.1129C41.2264 97.1447 41.1418 97.1871 41.0465 97.2348C40.8719 97.3196 40.6125 97.4785 40.2897 97.3408C40.1362 97.2719 40.0357 97.1235 39.9881 96.9911C39.9404 96.8533 39.9298 96.7155 39.9404 96.583C39.9457 96.4506 39.9828 96.3128 40.0304 96.1909C40.0727 96.0797 40.1204 95.9737 40.1521 95.873C40.1892 95.7723 40.2103 95.6717 40.2103 95.5816C40.2103 95.5498 40.2103 95.5604 40.1997 95.5551H40.1892C40.1892 95.5551 40.078 95.6187 40.0251 95.6399C39.8928 95.6928 39.7393 95.7353 39.57 95.7353C39.3953 95.7353 39.226 95.6823 39.0778 95.5763C38.9296 95.4809 38.792 95.2796 38.8079 95.0517C38.8238 94.8292 38.9455 94.6755 39.046 94.5642C39.1572 94.4476 39.2577 94.3629 39.3636 94.2675C39.57 94.082 39.7711 93.9019 39.914 93.6952C40.0092 93.5574 40.0727 93.3985 40.0886 93.2448C40.1204 93.107 40.041 92.8951 40.0569 92.9534H39.951C39.8663 92.964 39.7817 92.964 39.6917 92.9534C39.517 92.9375 39.3265 92.9004 39.1519 92.7573C38.9772 92.6196 38.8926 92.3652 38.9349 92.1586C38.972 91.9519 39.0725 91.8089 39.1731 91.6764C39.5753 91.2101 39.9457 90.8233 40.3109 90.4259C41.0359 89.6469 41.6816 88.9528 42.2214 88.3752C42.4913 88.0891 42.6395 87.8242 42.6342 87.5115C42.6447 87.2201 42.6553 86.8704 42.8776 86.7008C43.0681 86.5419 43.2851 86.526 43.4068 86.5842C43.5285 86.6478 43.5338 86.7326 43.5233 86.7326C43.5074 86.7432 43.4756 86.6849 43.3751 86.6584C43.2798 86.6372 43.1158 86.6743 42.9782 86.8121C42.8353 86.9393 42.8406 87.1989 42.8511 87.5115C42.8511 87.6705 42.8406 87.8666 42.7559 88.052C42.6765 88.2375 42.5548 88.3964 42.4278 88.5554C41.9038 89.1542 41.2846 89.8695 40.5861 90.6749C40.2421 91.0723 39.8505 91.5015 39.4959 91.9201C39.1466 92.3758 39.3742 92.6355 40.2844 92.4818C40.5279 92.8262 40.5332 93.0329 40.512 93.2766C40.4855 93.5098 40.3956 93.7323 40.2633 93.9231L40.295 93.9496Z" fill="#3F654A"/>
<path d="M48.6724 93.8591C48.5877 94.0975 48.3337 94.23 48.1485 94.2565C47.9527 94.2883 47.778 94.2724 47.614 94.2459C47.4552 94.2247 47.27 94.1611 47.1588 94.1346C47.0318 94.1081 46.8942 94.0975 46.7725 94.1134C46.6508 94.124 46.5343 94.1664 46.4973 94.2141C46.455 94.2512 46.4497 94.3201 46.4814 94.3783C46.5132 94.4472 46.6137 94.532 46.7249 94.6115L46.8995 94.7492C47.0001 94.834 47.0847 94.9347 47.1694 95.0301C47.1165 95.1308 47.0741 95.2367 46.9895 95.3215C46.9418 95.3586 46.8995 95.401 46.8466 95.4275C46.8095 95.4487 46.7778 95.4646 46.7407 95.4805C46.619 95.5229 46.5026 95.5706 46.3862 95.6129C46.1851 95.6977 46.1268 95.7931 46.1586 95.968C46.1956 96.1428 46.3174 96.3283 46.455 96.482C46.6031 96.6409 46.7725 96.8264 46.8783 97.0436C46.9948 97.245 47.0477 97.5735 46.8783 97.8013C46.7143 98.0345 46.4444 98.0981 46.238 98.0928C45.7987 98.0928 45.4759 97.849 45.2166 97.7166C45.1584 97.6848 45.0631 97.6424 45.0419 97.6318C45.0102 97.6159 44.9784 97.6053 44.9414 97.5947C44.8885 97.5682 44.9043 97.6159 44.9043 97.6477C44.9043 97.6848 44.9043 97.7219 44.9043 97.7537C44.9149 97.9974 44.9202 98.2094 44.9308 98.3789C44.9414 98.7233 44.9308 98.9088 44.9096 98.9088C44.8885 98.9088 44.8461 98.7286 44.7985 98.3895C44.7773 98.2199 44.7456 98.0133 44.7138 97.7696C44.7032 97.6848 44.6926 97.5894 44.6821 97.4993C44.6821 97.4145 44.6344 97.2662 44.7773 97.3298C44.8726 97.3456 44.9731 97.3615 45.0843 97.3986C45.1954 97.4357 45.243 97.4569 45.3277 97.494C45.6241 97.6265 45.9046 97.8119 46.2327 97.796C46.5714 97.796 46.7831 97.5258 46.5767 97.1973C46.4867 97.033 46.3491 96.8847 46.1851 96.7204C46.021 96.5402 45.8569 96.3336 45.7881 96.0421C45.7511 95.8991 45.7617 95.7083 45.8569 95.5547C45.9469 95.401 46.1004 95.3056 46.2274 95.2526C46.3438 95.2049 46.4602 95.1626 46.5767 95.1149C46.5978 95.1043 46.6243 95.0937 46.6402 95.0831C46.6402 95.0831 46.6402 95.0831 46.6455 95.0831C46.6455 95.0831 46.6508 95.0778 46.6455 95.0725L46.4708 94.94C46.3597 94.8499 46.2168 94.7598 46.111 94.5744C46.0051 94.3836 46.0157 94.1028 46.1903 93.9279C46.3597 93.7584 46.5502 93.7213 46.7249 93.7001C46.8995 93.6789 47.0689 93.6895 47.2435 93.7266C47.4287 93.769 47.5346 93.8114 47.6828 93.8326C47.9579 93.8856 48.249 93.8432 48.2755 93.7107C48.3125 93.6418 48.2755 93.5358 48.1802 93.414C48.0903 93.2974 47.9579 93.1861 47.8203 93.0642C47.5504 92.8258 47.2858 92.5927 47.0265 92.3595C46.8942 92.2429 46.7672 92.1263 46.6402 92.0151C46.5132 91.8932 46.3544 91.7501 46.2856 91.517C46.2221 91.2785 46.2909 90.9871 46.5661 90.8546C46.6931 90.7963 46.836 90.8069 46.9418 90.8387C47.0477 90.8705 47.1271 90.9129 47.1959 90.9447C47.344 91.0189 47.4181 91.0401 47.4975 91.0136C47.5822 90.9871 47.6722 90.9023 47.7092 90.8123C47.7992 90.6056 47.7092 90.5208 47.4128 90.3513C47.1218 90.1605 46.9842 89.8638 46.8677 89.6412C46.7513 89.4081 46.6243 89.2385 46.4444 89.0955C46.0951 88.8146 45.677 88.6662 45.333 88.4967C44.9784 88.3324 44.6874 88.1417 44.4863 87.9403C44.0735 87.527 44.1211 87.1508 44.1423 87.1614C44.1793 87.1508 44.1952 87.4793 44.6027 87.8184C44.8038 87.9827 45.079 88.1417 45.4283 88.2794C45.7776 88.4278 46.2062 88.5497 46.6296 88.8623C46.8413 89.0107 47.0265 89.2491 47.1535 89.4876C47.2858 89.7207 47.4023 89.9432 47.6034 90.0598C47.7092 90.1287 47.8627 90.187 47.995 90.3619C48.1379 90.542 48.1273 90.7911 48.0479 90.9712C47.9685 91.1514 47.8256 91.3103 47.614 91.3898C47.5081 91.4269 47.3917 91.4375 47.2753 91.411C47.1694 91.3845 47.0847 91.3474 47.0106 91.3103C46.6984 91.1461 46.6561 91.2256 46.6666 91.4216C46.7143 91.6071 47.0477 91.8349 47.2964 92.0628C47.5557 92.2906 47.8256 92.5238 48.0955 92.7622C48.2278 92.8788 48.376 93.0007 48.5083 93.1702C48.5718 93.255 48.6353 93.3557 48.6777 93.4775C48.7147 93.5994 48.72 93.7584 48.6671 93.8908L48.6724 93.8591Z" fill="#3F654A"/>
<path d="M43.6775 51.3998C45.4345 51.4739 45.5298 53.1219 46.2971 54.0227C47.0645 54.9235 47.2444 55.0135 47.562 56.174C47.8795 57.3344 48.1018 57.4192 49.1391 58.8393C50.1763 60.2593 50.3721 61.388 49.9064 62.3258C49.4989 63.1419 48.1865 63.7883 47.2868 63.6188C46.3818 63.4492 46.2019 62.9299 46.2019 62.9299C46.2019 62.9299 46.4294 63.7035 44.0374 63.9208C41.6453 64.138 41.5553 62.9723 41.5553 62.9723C41.5553 62.9723 41.4653 63.7989 39.9782 63.9473C38.4911 64.0956 37.7343 62.9299 37.4327 62.1987C36.9564 61.0382 37.7238 59.6606 38.3535 58.7121C38.9833 57.7636 38.9833 57.0324 40.2058 55.3156C41.423 53.5935 41.6929 51.315 43.6828 51.3998H43.6775Z" fill="#1B532B" stroke="#3F654A" stroke-width="1.2" stroke-miterlimit="10"/>
<path d="M90.1374 22.9925C89.9734 23.6072 89.5183 23.9092 89.4495 23.8191C89.3648 23.7343 89.6029 23.374 89.7246 22.8812C89.8622 22.3937 89.8358 21.9645 89.9522 21.9327C90.0581 21.8904 90.3015 22.3778 90.1374 22.9925Z" fill="#3F654A"/>
<path d="M91.2417 24.2646C91.0353 24.7574 90.7124 25.07 90.6172 25.0011C90.5166 24.9322 90.6595 24.5507 90.8447 24.1003C91.0353 23.6499 91.2046 23.279 91.3263 23.3002C91.4375 23.3214 91.4481 23.7665 91.2417 24.2646Z" fill="#3F654A"/>
<path d="M88.6878 25.5895C88.9629 25.0914 89.1641 24.6569 89.2858 24.6887C89.3969 24.7151 89.3705 25.2397 89.0635 25.7961C88.7618 26.3525 88.3332 26.6651 88.2538 26.5803C88.1638 26.4955 88.4179 26.0928 88.6931 25.5895H88.6878Z" fill="#3F654A"/>
<path d="M83.5465 52.0096C84.2874 51.6705 84.896 51.395 84.9595 51.4956C85.023 51.591 84.4938 52.0467 83.7211 52.3964C82.9485 52.7515 82.2605 52.8521 82.2287 52.7409C82.197 52.6243 82.8003 52.3487 83.5412 52.0096H83.5465Z" fill="#3F654A"/>
<path d="M79.9336 54.4196C80.2988 54.2023 80.6216 54.038 80.701 54.1228C80.7804 54.2076 80.5634 54.5414 80.1506 54.7852C79.7378 55.0289 79.3409 55.0607 79.3039 54.9494C79.2668 54.8382 79.5685 54.6368 79.9336 54.4196Z" fill="#3F654A"/>
<path d="M82.3784 54.696C82.9077 54.378 83.3892 54.2032 83.4475 54.3038C83.5057 54.4045 83.1246 54.7436 82.5954 55.0616C82.0662 55.3795 81.5846 55.5544 81.5264 55.4537C81.4682 55.353 81.8492 55.0139 82.3784 54.696Z" fill="#3F654A"/>
<path d="M34.9924 18.2341C34.95 18.7322 34.9289 19.1561 34.8124 19.172C34.7013 19.1932 34.5266 18.7587 34.569 18.197C34.6113 17.6353 34.8442 17.2326 34.9553 17.275C35.0717 17.3121 35.0294 17.7307 34.9924 18.2341Z" fill="#3F654A"/>
<path d="M36.5685 19.7761C36.6056 20.1577 36.7855 20.4438 36.7061 20.5339C36.6691 20.5763 36.5526 20.5498 36.4309 20.4279C36.3039 20.3113 36.1822 20.0888 36.1504 19.8238C36.1187 19.5589 36.1875 19.3151 36.2827 19.1721C36.378 19.0237 36.4785 18.9707 36.5262 19.0025C36.6214 19.0714 36.5209 19.3946 36.5738 19.7708L36.5685 19.7761Z" fill="#3F654A"/>
<path d="M36.73 15.8231C36.73 16.4431 36.6348 16.9412 36.5183 16.9412C36.4019 16.9412 36.3066 16.4378 36.3066 15.8231C36.3066 15.2085 36.4019 14.7051 36.5183 14.7051C36.6348 14.7051 36.73 15.2032 36.73 15.8231Z" fill="#3F654A"/>
<path d="M2.85097 53.837C3.29022 54.0702 3.69773 54.1815 3.69243 54.3033C3.69243 54.4199 3.18967 54.4941 2.64987 54.2132C2.11535 53.9324 1.88779 53.4714 1.98305 53.4078C2.07831 53.3336 2.40113 53.6092 2.84568 53.837H2.85097Z" fill="#3F654A"/>
<path d="M3.42933 51.3945C3.99031 51.6965 4.29725 52.1257 4.21258 52.2105C4.1279 52.2953 3.7257 52.0409 3.22293 51.7707C2.72017 51.4952 2.28621 51.3044 2.31267 51.1878C2.33384 51.0766 2.86306 51.0924 3.42404 51.3945H3.42933Z" fill="#3F654A"/>
<path d="M6.81953 54.3189C7.43342 54.658 7.88326 55.0183 7.82505 55.119C7.76683 55.2196 7.22703 55.0289 6.61313 54.6898C5.99923 54.3506 5.54939 53.9903 5.60761 53.8897C5.66582 53.789 6.20563 53.9797 6.81953 54.3189Z" fill="#3F654A"/>
<path d="M88.8291 77.6767C89.2684 78.2596 89.3742 78.8584 89.2631 78.8902C89.1466 78.9325 88.8873 78.4557 88.4904 77.9311C88.0988 77.4065 87.7124 77.0197 87.7865 76.9243C87.85 76.8289 88.3951 77.0939 88.8344 77.6767H88.8291Z" fill="#3F654A"/>
<path d="M88.888 81.1686C89.1156 81.5554 89.2215 81.9157 89.1209 81.974C89.0203 82.0323 88.7504 81.7727 88.5229 81.3858C88.2953 80.999 88.1895 80.6387 88.29 80.5804C88.3906 80.5221 88.6605 80.7818 88.888 81.1686Z" fill="#3F654A"/>
<path d="M91.045 81.6183C91.3679 82.0528 91.5584 82.4608 91.4631 82.5297C91.3679 82.5986 91.0292 82.3071 90.7063 81.8726C90.3835 81.4381 90.193 81.0301 90.2882 80.9612C90.3835 80.8924 90.7222 81.1838 91.045 81.6183Z" fill="#3F654A"/>
<path d="M12.4514 79.488C12.88 79.2496 13.2716 79.1383 13.3299 79.2443C13.3881 79.345 13.0864 79.6258 12.663 79.8642C12.2397 80.1027 11.8428 80.214 11.7845 80.108C11.7263 80.0073 12.028 79.7265 12.4514 79.488Z" fill="#3F654A"/>
<path d="M10.4992 81.9634C10.9596 81.7038 11.4095 81.7038 11.4306 81.8204C11.4571 81.937 11.1078 82.1118 10.7056 82.3397C10.3034 82.5622 9.96998 82.7636 9.88531 82.6788C9.80063 82.5993 10.0335 82.2231 10.4992 81.9634Z" fill="#3F654A"/>
<path d="M14.051 81.226C14.4532 80.961 14.7708 80.7067 14.866 80.7756C14.9613 80.8392 14.7549 81.2684 14.2839 81.581C13.8129 81.8936 13.3419 81.9095 13.3154 81.7982C13.2837 81.6817 13.6488 81.4909 14.051 81.226Z" fill="#3F654A"/>
<path d="M40.6546 58.0975C40.5118 58.5426 40.4006 58.9241 40.2842 58.9241C40.1678 58.9241 40.0884 58.479 40.2524 57.9703C40.4112 57.4563 40.734 57.1437 40.8293 57.2126C40.9298 57.2762 40.7975 57.6524 40.6546 58.1028V58.0975Z" fill="#3F654A"/>
<path d="M39.6387 61.5153C39.5963 61.8651 39.5646 62.1671 39.4481 62.1936C39.337 62.2201 39.1677 61.8968 39.2153 61.4676C39.2629 61.0384 39.5011 60.7576 39.6016 60.8106C39.7075 60.8636 39.6757 61.1656 39.6387 61.5153Z" fill="#3F654A"/>
<path d="M41.5435 60.6464C41.5435 61.0279 41.4482 61.3352 41.3318 61.3352C41.2154 61.3352 41.1201 61.0279 41.1201 60.6464C41.1201 60.2649 41.2154 59.9575 41.3318 59.9575C41.4482 59.9575 41.5435 60.2649 41.5435 60.6464Z" fill="#3F654A"/>
<path d="M49.5607 101.15C49.5925 101.267 49.6189 101.378 49.6348 101.479C49.6454 101.526 49.6507 101.585 49.656 101.622C49.656 101.659 49.6719 101.664 49.6401 101.691C49.6137 101.717 49.6136 101.733 49.6136 101.733V101.722C49.6136 101.685 49.6136 101.77 49.6136 101.76V101.781C49.6136 101.781 49.5819 101.765 49.5607 101.77C49.6348 101.696 49.6136 101.754 49.5872 101.722C49.5766 101.717 49.5607 101.707 49.5766 101.675C49.6084 101.627 49.6983 101.669 49.7142 101.696C49.7301 101.728 49.7936 101.765 49.7142 101.892C49.6507 101.95 49.5978 101.95 49.5607 101.945C49.5131 101.945 49.4655 101.919 49.4337 101.892C49.3067 101.781 49.2908 101.669 49.2485 101.585C49.2114 101.489 49.1744 101.378 49.1373 101.267C49.005 100.806 48.9892 100.408 49.1056 100.377C49.2167 100.345 49.4178 100.689 49.5501 101.15H49.5607Z" fill="#3F654A"/>
<path d="M50.6998 98.9823C50.8638 99.3427 51.0226 99.6394 50.9326 99.7242C50.8532 99.809 50.5145 99.5917 50.3134 99.1625C50.1123 98.7333 50.1652 98.3359 50.2764 98.3253C50.3981 98.3094 50.5251 98.622 50.6945 98.9823H50.6998Z" fill="#3F654A"/>
<path d="M51.8034 102.973C51.9833 103.312 52.0415 103.63 51.9357 103.689C51.8298 103.742 51.6023 103.514 51.4223 103.175C51.2424 102.836 51.1842 102.518 51.29 102.465C51.3959 102.412 51.6234 102.64 51.8034 102.979V102.973Z" fill="#3F654A"/>
<path d="M2.57554 12.9454C3.16297 12.9454 3.57047 13.2315 3.51755 13.3322C3.46992 13.4435 3.06242 13.364 2.57554 13.3693C2.08865 13.3693 1.68115 13.4435 1.63352 13.3322C1.5806 13.2315 1.9881 12.9401 2.57554 12.9454Z" fill="#3F654A"/>
<path d="M-2.71078 78.1639C-1.30305 75.737 0.369287 74.1686 0.438086 74.2428C0.533346 74.3328 -0.964352 76.0019 -2.34033 78.3758C-3.73218 80.7444 -4.44663 82.8745 -4.56835 82.8321C-4.6689 82.8109 -4.1291 80.5801 -2.70549 78.1585L-2.71078 78.1639Z" fill="#3F654A"/>
<path d="M2.19053 69.972C2.86793 69.0447 3.62472 68.4778 3.69881 68.5626C3.78348 68.6526 3.18546 69.3309 2.53452 70.2211C1.87829 71.1113 1.40728 71.8849 1.30143 71.8319C1.19559 71.7842 1.50783 70.894 2.19582 69.972H2.19053Z" fill="#3F654A"/>
<path d="M81.0752 65.2873C82.6364 66.9935 83.6472 68.5832 83.5572 68.6467C83.4567 68.7209 82.303 67.2638 80.7629 65.5787C79.2282 63.8884 77.884 62.6061 77.9686 62.5107C78.0427 62.426 79.5246 63.5758 81.0805 65.2926L81.0752 65.2873Z" fill="#3F654A"/>
<path d="M85.3256 71.5982C85.6114 71.9321 85.7702 72.2606 85.6802 72.3401C85.5902 72.4196 85.2886 72.2076 85.0028 71.8738C84.717 71.54 84.5583 71.2114 84.6482 71.1319C84.7382 71.0525 85.0398 71.2644 85.3256 71.5982Z" fill="#3F654A"/>
<path d="M31.1541 102.962C31.7627 102.883 32.3872 102.872 32.9376 103.052C33.2075 103.142 33.4562 103.285 33.6467 103.465C33.832 103.64 33.9643 103.826 34.086 103.985C34.3188 104.303 34.5199 104.525 34.6999 104.615C34.8798 104.705 35.0068 104.695 35.0121 104.732C35.0174 104.753 34.8904 104.827 34.6417 104.774C34.3929 104.716 34.1177 104.478 33.8531 104.181C33.5832 103.879 33.2921 103.556 32.8211 103.434C32.3607 103.296 31.7997 103.312 31.2123 103.391C30.6196 103.465 30.0163 103.55 29.4606 103.465C28.8996 103.402 28.4127 103.089 28.1587 102.75C27.8888 102.411 27.8094 102.035 27.8465 101.796C27.8782 101.553 27.9735 101.452 27.9946 101.457C28.0264 101.468 27.9946 101.59 28.0158 101.796C28.0317 101.998 28.1375 102.289 28.3916 102.554C28.6456 102.819 29.0213 103.036 29.5188 103.079C30.0057 103.132 30.5667 103.047 31.17 102.967L31.1541 102.962Z" fill="#3F654A"/>
<path d="M52.2131 26.824C52.9275 25.8438 53.769 25.1178 54.4358 24.6886C55.1026 24.2594 55.5683 24.1005 55.5895 24.1428C55.6636 24.2541 53.9225 25.1602 52.5624 27.0731C51.1758 28.9594 50.8583 30.8988 50.726 30.867C50.6783 30.8617 50.6836 30.3689 50.8847 29.6006C51.0805 28.8376 51.5092 27.8096 52.2184 26.824H52.2131Z" fill="#3F654A"/>
<path d="M57.8902 21.4982C58.4247 21.0901 58.9592 20.9259 59.0068 21.0319C59.0598 21.1378 58.647 21.4558 58.1495 21.8373C57.6467 22.2188 57.2392 22.5367 57.1493 22.4572C57.0646 22.3831 57.3557 21.9062 57.8902 21.4982Z" fill="#3F654A"/>
<path d="M81.1217 13.5661C82.3019 12.9249 83.4979 12.501 84.4082 12.4692C85.3237 12.4215 85.8477 12.6812 85.8265 12.7235C85.8106 12.7977 85.2814 12.6494 84.4346 12.7712C83.5879 12.8772 82.4818 13.3117 81.3175 13.9423C80.1479 14.5781 79.026 15.1186 78.1369 15.2829C77.2531 15.4683 76.6868 15.3412 76.6974 15.2935C76.6974 15.2246 77.2425 15.2405 78.0628 14.9914C78.8884 14.7583 79.9415 14.2019 81.1164 13.5661H81.1217Z" fill="#3F654A"/>
<path d="M88.7705 12.7823C89.1939 12.9783 89.5008 13.2221 89.4479 13.3281C89.4003 13.434 89.0139 13.3651 88.5906 13.1691C88.1672 12.973 87.8602 12.7293 87.9132 12.6233C87.9608 12.5173 88.3471 12.5862 88.7705 12.7823Z" fill="#3F654A"/>
<path d="M92.0577 38.1256C91.2956 39.4397 91.0469 40.8226 90.9146 41.8135C90.7876 42.815 90.7505 43.4455 90.687 43.4402C90.6341 43.4402 90.56 42.8097 90.6129 41.7817C90.6659 40.7697 90.8828 39.2966 91.682 37.9136C92.0683 37.2248 92.4811 36.6207 92.7827 36.0378C93.0897 35.4603 93.2749 34.8986 93.3543 34.4164C93.5184 33.4414 93.2114 32.8533 93.2802 32.8268C93.3014 32.8162 93.4072 32.9434 93.5131 33.2189C93.6189 33.4944 93.7036 33.9236 93.656 34.4535C93.6136 34.9781 93.4443 35.5927 93.1373 36.2127C92.841 36.8327 92.4335 37.4579 92.0577 38.1203V38.1256Z" fill="#3F654A"/>
<path d="M72.7877 55.803C73.4757 56.2799 74.2272 56.4813 74.7776 56.5501C75.328 56.619 75.6879 56.5872 75.6985 56.6508C75.709 56.6985 75.3598 56.8469 74.7617 56.8522C74.169 56.8575 73.3117 56.6879 72.5496 56.158C72.1633 55.8931 71.8722 55.5858 71.5864 55.3632C71.3059 55.1301 71.0307 54.9764 70.7767 54.9022C70.2633 54.7433 69.9352 54.9287 69.9088 54.8704C69.8929 54.8492 69.9511 54.7697 70.1099 54.6903C70.2686 54.6108 70.528 54.5578 70.8402 54.6055C71.1524 54.6479 71.507 54.8121 71.8245 55.0453C72.1474 55.2784 72.449 55.5699 72.793 55.803H72.7877Z" fill="#3F654A"/>
<path d="M63.6738 53.3599C64.4306 53.3705 65.0445 53.4764 65.0445 53.5983C65.0445 53.7202 64.4253 53.7997 63.6685 53.7891C62.9118 53.7785 62.2979 53.6725 62.2979 53.5559C62.2979 53.4393 62.917 53.3546 63.6738 53.3652V53.3599Z" fill="#3F654A"/>
<path d="M56.424 48.7233C56.6886 48.7233 56.9638 48.7657 57.2125 48.8716C57.4559 48.9776 57.657 49.1207 57.8264 49.2743C58.1651 49.5764 58.4032 49.8837 58.6255 50.1169C59.0436 50.599 59.3982 50.7686 59.377 50.8322C59.3664 50.8852 58.9219 50.7951 58.4138 50.3341C57.9058 49.9261 57.3501 49.1101 56.4187 49.1525C55.9582 49.1578 55.4396 49.2107 54.9951 49.126C54.5505 49.0571 54.1642 48.9087 53.8625 48.7603C53.2592 48.4477 52.9893 48.1192 53.0211 48.0768C53.0634 48.0238 53.3915 48.2623 53.9842 48.4795C54.2806 48.5855 54.6405 48.6915 55.048 48.7339C55.4608 48.7921 55.8894 48.7339 56.424 48.7233Z" fill="#3F654A"/>
<path d="M46.1098 42.2221C46.3956 41.5863 46.8666 41.2419 46.9407 41.3213C47.0307 41.4061 46.7449 41.8353 46.4962 42.397C46.2421 42.9534 46.1098 43.4515 45.9881 43.4409C45.8717 43.4409 45.8188 42.858 46.1045 42.2221H46.1098Z" fill="#3F654A"/>
<path d="M23.4397 64.3811C25.1279 65.2342 26.1069 66.4529 26.017 66.5165C25.927 66.6066 24.858 65.5733 23.2439 64.7626C21.6403 63.936 20.1744 63.6817 20.1955 63.5545C20.1955 63.4485 21.7567 63.5174 23.4397 64.3864V64.3811Z" fill="#3F654A"/>
<path d="M20.1467 67.9684C21.2104 67.8307 22.0837 67.9314 22.0837 68.0479C22.0837 68.1698 21.2369 68.2599 20.2049 68.3924C19.1729 68.5195 18.3262 68.6467 18.2997 68.5301C18.268 68.4188 19.0883 68.1062 20.152 67.9737L20.1467 67.9684Z" fill="#3F654A"/>
<path d="M22.5083 72.8276C23.7414 71.9268 24.7998 71.2698 24.8686 71.3652C24.9374 71.4605 23.9954 72.2713 22.7623 73.172C21.5292 74.0728 20.4708 74.7299 20.402 74.6345C20.3332 74.5391 21.2752 73.7284 22.5083 72.8276Z" fill="#3F654A"/>
<path d="M33.0162 56.6714C33.6989 57.9749 34.1699 59.0717 34.0641 59.1247C33.9583 59.1777 33.3232 58.1656 32.6405 56.8727C31.9631 55.5798 31.4921 54.4777 31.5926 54.4194C31.6932 54.3611 32.3335 55.3679 33.0162 56.6714Z" fill="#3F654A"/>
<path d="M28.9476 61.1071C29.7679 61.833 30.5247 62.3258 30.4665 62.4318C30.4188 62.5325 29.5298 62.1933 28.6671 61.425C27.7939 60.662 27.3441 59.8248 27.4393 59.7665C27.5399 59.6976 28.122 60.3864 28.9476 61.1071Z" fill="#3F654A"/>
<path d="M53.3068 56.4017C54.3917 55.0664 55.3443 54.0385 55.4343 54.1127C55.5242 54.1868 54.7198 55.3314 53.6402 56.6667C52.5553 58.002 51.6027 59.0299 51.5127 58.9558C51.4228 58.8816 52.2272 57.737 53.3068 56.4017Z" fill="#3F654A"/>
<path d="M57.2306 60.9905C58.7018 59.9626 59.8185 59.0194 59.9031 59.1095C59.9825 59.189 58.977 60.2911 57.474 61.3403C55.9763 62.3947 54.6003 62.967 54.5527 62.8663C54.4945 62.755 55.7646 62.0238 57.2306 60.9905Z" fill="#3F654A"/>
<path d="M62.8801 64.667C65.8173 63.2893 68.1088 61.9752 68.1723 62.0812C68.2041 62.1289 67.6643 62.521 66.7487 63.0774C65.8332 63.6337 64.5366 64.3544 63.06 65.0485C61.5782 65.748 60.2022 66.2884 59.1914 66.6382C58.1806 66.9879 57.535 67.1521 57.5191 67.0991C57.4768 66.9826 59.9482 66.05 62.8801 64.6617V64.667Z" fill="#3F654A"/>
<path d="M63.3838 70.6503C65.5113 71.6412 67.1307 72.6532 67.0725 72.7486C67.0143 72.8546 65.3155 72.0174 63.2039 71.0371C61.0923 70.0515 59.3617 69.2885 59.4041 69.1719C59.4464 69.066 61.2564 69.6541 63.3838 70.6503Z" fill="#3F654A"/>
<path d="M29.1911 73.347C30.7841 72.0859 32.1283 70.8301 33.0756 69.8922C34.0229 68.9543 34.5839 68.3449 34.6368 68.3873C34.6792 68.4191 34.1923 69.0974 33.2926 70.0988C32.3982 71.1003 31.0646 72.4038 29.4557 73.6808C27.8416 74.9525 26.2645 75.9434 25.0844 76.5846C23.9042 77.2257 23.1315 77.5383 23.1104 77.4906C23.0786 77.4324 23.8037 77.0244 24.9309 76.3196C26.0634 75.6202 27.5929 74.5975 29.1911 73.3417V73.347Z" fill="#3F654A"/>
<path d="M45.0789 55.5108C45.1159 56.0672 45.2853 56.5706 45.5022 56.8249C45.7192 57.0846 45.9785 57.0581 45.9838 57.1323C45.9838 57.1587 45.9309 57.2011 45.8039 57.217C45.6822 57.2329 45.4758 57.1958 45.2958 57.0528C44.9307 56.7613 44.6925 56.1838 44.6502 55.5479C44.6131 54.9757 44.4914 54.467 44.3009 54.1861C44.1104 53.9053 43.8511 53.8788 43.8616 53.8099C43.8616 53.7834 43.9251 53.7516 44.0522 53.7569C44.1739 53.7569 44.3644 53.8258 44.5285 53.9848C44.8619 54.308 45.0365 54.8962 45.0789 55.5161V55.5108Z" fill="#3F654A"/>
<path d="M47.7751 60.3223C47.8862 60.7568 47.8598 61.1701 47.7804 61.4456C47.701 61.7265 47.5899 61.8696 47.537 61.8537C47.4205 61.8166 47.5581 61.1701 47.3623 60.4283C47.1824 59.6759 46.7484 59.1831 46.8331 59.093C46.8701 59.0506 47.0395 59.1248 47.2406 59.3367C47.4417 59.5434 47.664 59.8931 47.7751 60.3276V60.3223Z" fill="#3F654A"/>
<path d="M39.3821 103.354C39.5937 103.169 39.6837 102.888 39.7049 102.687C39.7313 102.48 39.7049 102.332 39.7578 102.305C39.8001 102.279 39.9483 102.39 40.0065 102.665C40.07 102.93 40.0065 103.37 39.6625 103.677C39.3133 103.979 38.8687 103.979 38.6147 103.884C38.3501 103.789 38.2548 103.63 38.2919 103.587C38.3289 103.534 38.4665 103.587 38.6782 103.587C38.8846 103.593 39.1704 103.54 39.3821 103.354Z" fill="#3F654A"/>
<path d="M56.8899 103.334C57.2815 103.132 57.4932 102.729 57.6414 102.438C57.7896 102.141 57.8954 101.945 57.9536 101.966C58.0065 101.982 58.0065 102.2 57.9272 102.544C57.8848 102.714 57.816 102.92 57.689 103.137C57.562 103.349 57.3609 103.572 57.0963 103.71C56.8317 103.853 56.5088 103.9 56.2389 103.816C55.9743 103.731 55.8103 103.588 55.678 103.487C55.4239 103.27 55.2546 103.19 55.2599 103.132C55.2599 103.069 55.5192 103.063 55.8367 103.233C55.9955 103.307 56.1649 103.402 56.3395 103.439C56.5088 103.477 56.7047 103.439 56.9005 103.339L56.8899 103.334Z" fill="#3F654A"/>
<path d="M82.3719 85.3593C84.5311 85.9316 86.3569 86.0057 86.3516 86.1382C86.3622 86.2442 84.4835 86.3608 82.2607 85.7726C80.038 85.195 78.4609 84.1724 78.5191 84.0823C78.5774 83.9657 80.2074 84.8029 82.3666 85.3593H82.3719Z" fill="#3F654A"/>
<path d="M89.7023 86.2655C90.3903 86.2655 90.9513 86.1648 90.9936 86.2814C91.0359 86.3874 90.475 86.6894 89.7076 86.6947C88.9402 86.7 88.374 86.4085 88.4163 86.3026C88.4533 86.186 89.0196 86.2814 89.7076 86.2708L89.7023 86.2655Z" fill="#3F654A"/>
<path d="M50.0812 -3.05611C50.8962 -0.920702 50.9226 0.955067 50.8168 0.949768C50.6898 0.965664 50.4781 -0.84122 49.6842 -2.90775C48.9116 -4.97957 47.8743 -6.47383 47.9802 -6.54802C48.0595 -6.6222 49.282 -5.19683 50.0812 -3.06142V-3.05611Z" fill="#3F654A"/>
<path d="M54.477 11.5531C54.641 12.8619 54.6251 14.0488 54.5828 14.9019C54.5405 15.755 54.4717 16.2796 54.4134 16.2796C54.3552 16.2796 54.3182 15.7497 54.2811 14.9019C54.2441 14.0541 54.2123 12.8831 54.0536 11.6061C53.8948 10.3291 53.5879 9.21103 53.2756 8.43211C52.9687 7.65319 52.6988 7.1975 52.757 7.16041C52.794 7.13391 53.1592 7.53662 53.5508 8.31024C53.9477 9.08387 54.3129 10.2443 54.477 11.5478V11.5531Z" fill="#3F654A"/>
<path d="M28.2586 19.9834C28.5973 20.7411 28.9149 21.4405 29.4071 21.9015C29.8939 22.3678 30.4761 22.6646 30.9312 22.956C31.3969 23.2421 31.7515 23.5283 31.9579 23.7614C32.1643 23.9998 32.2331 24.1588 32.2119 24.1747C32.1855 24.1959 32.069 24.0687 31.8415 23.8833C31.6139 23.6978 31.254 23.4647 30.7777 23.2156C30.312 22.956 29.7034 22.6963 29.1319 22.1877C28.5497 21.6737 28.2004 20.9001 27.867 20.1582C27.2214 18.664 26.2635 17.5088 25.4802 16.8094C25.0833 16.4756 24.6811 16.3219 24.4112 16.3325C24.136 16.3431 23.9984 16.465 23.9772 16.4332C23.9614 16.4226 24.0566 16.2371 24.3953 16.1683C24.7287 16.0994 25.2103 16.2424 25.6708 16.5763C26.5493 17.2545 27.5865 18.4361 28.2586 19.9887V19.9834Z" fill="#3F654A"/>
<path d="M36.0107 26.7911C36.3388 27.3369 36.4711 27.9145 36.4817 28.3278C36.4923 28.7411 36.4129 28.9901 36.36 28.9848C36.233 28.9848 36.2489 27.9992 35.6455 27.0137C35.0634 26.0122 34.1955 25.5565 34.2484 25.4452C34.2696 25.3975 34.5236 25.4452 34.8835 25.6519C35.238 25.8585 35.6826 26.2506 36.0107 26.7964V26.7911Z" fill="#3F654A"/>
<path d="M40.2209 41.8936C40.5331 43.3931 40.4538 44.6436 40.3426 44.6436C40.2209 44.6436 40.1098 43.4355 39.8028 41.9783C39.5064 40.5212 39.1254 39.3661 39.2365 39.3184C39.3371 39.2707 39.9087 40.3887 40.2156 41.8883L40.2209 41.8936Z" fill="#3F654A"/>
</svg>
